999
dxfrw 0.6.3
  0
SECTION
  2
HEADER
  9
$ACADVER
  1
AC1021
  9
$DWGCODEPAGE
  3
ANSI_1252
  9
$INSBASE
 10
0
 20
0
 30
0
  9
$EXTMIN
 10
-29.9237005582
 20
-658.647226199
 30
0
  9
$EXTMAX
 10
1082.88472457
 20
329.364983765
 30
0
  9
$LIMMIN
 10
0
 20
0
  9
$LIMMAX
 10
420
 20
297
  9
$ORTHOMODE
 70
    0
  9
$REGENMODE
 70
    1
  9
$FILLMODE
 70
    1
  9
$QTEXTMODE
 70
    0
  9
$MIRRTEXT
 70
    0
  9
$LTSCALE
 40
1
  9
$ATTMODE
 70
    0
  9
$TEXTSIZE
 40
2.5
  9
$TRACEWID
 40
15.68
  9
$TEXTSTYLE
  7
STANDARD
  9
$CLAYER
  8
0
  9
$CELTYPE
  6
BYLAYER
  9
$CECOLOR
 62
  256
  9
$CELTSCALE
 40
1
  9
$DISPSILH
 70
    0
  9
$DIMSCALE
 40
2.5
  9
$DIMASZ
 40
2.5
  9
$DIMEXO
 40
0.625
  9
$DIMDLI
 40
3.75
  9
$DIMRND
 40
0
  9
$DIMDLE
 40
0
  9
$DIMEXE
 40
1.25
  9
$DIMTP
 40
0
  9
$DIMTM
 40
0
  9
$DIMTXT
 40
2.5
  9
$DIMCEN
 40
2.5
  9
$DIMTSZ
 40
0
  9
$DIMTOL
 70
    0
  9
$DIMLIM
 70
    0
  9
$DIMTIH
 70
    0
  9
$DIMTOH
 70
    0
  9
$DIMSE1
 70
    0
  9
$DIMSE2
 70
    0
  9
$DIMTAD
 70
    1
  9
$DIMZIN
 70
    8
  9
$DIMBLK
  1

  9
$DIMASO
 70
    1
  9
$DIMSHO
 70
    1
  9
$DIMPOST
  1

  9
$DIMAPOST
  1

  9
$DIMALT
 70
    0
  9
$DIMALTD
 70
    3
  9
$DIMALTF
 40
0.03937
  9
$DIMLFAC
 40
1
  9
$DIMTOFL
 70
    1
  9
$DIMTVP
 40
0
  9
$DIMTIX
 70
    0
  9
$DIMSOXD
 70
    0
  9
$DIMSAH
 70
    0
  9
$DIMBLK1
  1

  9
$DIMBLK2
  1

  9
$DIMSTYLE
  2
Standard
  9
$DIMCLRD
 70
    0
  9
$DIMCLRE
 70
    0
  9
$DIMCLRT
 70
    0
  9
$DIMTFAC
 40
1
  9
$DIMGAP
 40
0.625
  9
$DIMJUST
 70
    0
  9
$DIMSD1
 70
    0
  9
$DIMSD2
 70
    0
  9
$DIMTOLJ
 70
    0
  9
$DIMTZIN
 70
    8
  9
$DIMALTZ
 70
    0
  9
$DIMALTTZ
 70
    0
  9
$DIMUPT
 70
    0
  9
$DIMDEC
 70
    2
  9
$DIMTDEC
 70
    2
  9
$DIMALTU
 70
    2
  9
$DIMALTTD
 70
    3
  9
$DIMTXSTY
  7
STANDARD
  9
$DIMAUNIT
 70
    0
  9
$DIMADEC
 70
    0
  9
$DIMALTRND
 40
0
  9
$DIMAZIN
 70
    0
  9
$DIMDSEP
 70
   44
  9
$DIMATFIT
 70
    3
  9
$DIMFRAC
 70
    0
  9
$DIMLDRBLK
  1
STANDARD
  9
$DIMLUNIT
 70
    2
  9
$DIMLWD
 70
   -2
  9
$DIMLWE
 70
   -2
  9
$DIMTMOVE
 70
    0
  9
$DIMFXL
 40
1
  9
$DIMFXLON
 70
    0
  9
$DIMJOGANG
 40
0.7854
  9
$DIMTFILL
 70
    0
  9
$DIMTFILLCLR
 70
    0
  9
$DIMARCSYM
 70
    0
  9
$DIMLTYPE
  6

  9
$DIMLTEX1
  6

  9
$DIMLTEX2
  6

  9
$LUNITS
 70
    2
  9
$LUPREC
 70
    4
  9
$SKETCHINC
 40
1
  9
$FILLETRAD
 40
0
  9
$AUNITS
 70
    0
  9
$AUPREC
 70
    2
  9
$MENU
  1
.
  9
$ELEVATION
 40
0
  9
$PELEVATION
 40
0
  9
$THICKNESS
 40
0
  9
$LIMCHECK
 70
    0
  9
$CHAMFERA
 40
0
  9
$CHAMFERB
 40
0
  9
$CHAMFERC
 40
0
  9
$CHAMFERD
 40
0
  9
$SKPOLY
 70
    0
  9
$USRTIMER
 70
    1
  9
$ANGBASE
 50
0
  9
$ANGDIR
 70
    0
  9
$PDMODE
 70
   34
  9
$PDSIZE
 40
0
  9
$PLINEWID
 40
0
  9
$SPLFRAME
 70
    0
  9
$SPLINETYPE
 70
    2
  9
$SPLINESEGS
 70
    8
  9
$HANDSEED
  5
20000
  9
$SURFTAB1
 70
    6
  9
$SURFTAB2
 70
    6
  9
$SURFTYPE
 70
    6
  9
$SURFU
 70
    6
  9
$SURFV
 70
    6
  9
$UCSBASE
  2

  9
$UCSNAME
  2

  9
$UCSORG
 10
0
 20
0
 30
0
  9
$UCSXDIR
 10
1
 20
0
 30
0
  9
$UCSYDIR
 10
0
 20
1
 30
0
  9
$UCSORTHOREF
  2

  9
$UCSORTHOVIEW
 70
    0
  9
$UCSORGTOP
 10
0
 20
0
 30
0
  9
$UCSORGBOTTOM
 10
0
 20
0
 30
0
  9
$UCSORGLEFT
 10
0
 20
0
 30
0
  9
$UCSORGRIGHT
 10
0
 20
0
 30
0
  9
$UCSORGFRONT
 10
0
 20
0
 30
0
  9
$UCSORGBACK
 10
0
 20
0
 30
0
  9
$PUCSBASE
  2

  9
$PUCSNAME
  2

  9
$PUCSORG
 10
0
 20
0
 30
0
  9
$PUCSXDIR
 10
1
 20
0
 30
0
  9
$PUCSYDIR
 10
0
 20
1
 30
0
  9
$PUCSORTHOREF
  2

  9
$PUCSORTHOVIEW
 70
    0
  9
$PUCSORGTOP
 10
0
 20
0
 30
0
  9
$PUCSORGBOTTOM
 10
0
 20
0
 30
0
  9
$PUCSORGLEFT
 10
0
 20
0
 30
0
  9
$PUCSORGRIGHT
 10
0
 20
0
 30
0
  9
$PUCSORGFRONT
 10
0
 20
0
 30
0
  9
$PUCSORGBACK
 10
0
 20
0
 30
0
  9
$USERI1
 70
    0
  9
$USERI2
 70
    0
  9
$USERI3
 70
    0
  9
$USERI4
 70
    0
  9
$USERI5
 70
    0
  9
$USERR1
 40
0
  9
$USERR2
 40
0
  9
$USERR3
 40
0
  9
$USERR4
 40
0
  9
$USERR5
 40
0
  9
$WORLDVIEW
 70
    1
  9
$SHADEDGE
 70
    3
  9
$SHADEDIF
 70
   70
  9
$TILEMODE
 70
    1
  9
$MAXACTVP
 70
   64
  9
$PINSBASE
 10
0
 20
0
 30
0
  9
$PLIMCHECK
 70
    0
  9
$PEXTMIN
 10
0
 20
0
 30
0
  9
$PEXTMAX
 10
0
 20
0
 30
0
  9
$SNAPSTYLE
 70
    0
  9
$PLIMMIN
 10
0
 20
0
  9
$PLIMMAX
 10
279.4
 20
215.9
  9
$UNITMODE
 70
    0
  9
$VISRETAIN
 70
    1
  9
$PLINEGEN
 70
    0
  9
$PSLTSCALE
 70
    1
  9
$TREEDEPTH
 70
 3020
  9
$CMLSTYLE
  2
Standard
  9
$CMLJUST
 70
    0
  9
$CMLSCALE
 40
20
  9
$PROXYGRAPHICS
 70
    1
  9
$MEASUREMENT
 70
    1
  9
$CELWEIGHT
370
   -1
  9
$ENDCAPS
280
    0
  9
$JOINSTYLE
280
    0
  9
$LWDISPLAY
290
    0
  9
$INSUNITS
 70
    4
  9
$HYPERLINKBASE
  1

  9
$STYLESHEET
  1

  9
$XEDIT
290
    1
  9
$CEPSNTYPE
380
    0
  9
$PSTYLEMODE
290
    1
  9
$EXTNAMES
290
    1
  9
$PSVPSCALE
 40
0
  9
$OLESTARTUP
290
    0
  9
$SORTENTS
280
  127
  9
$INDEXCTL
280
    0
  9
$HIDETEXT
280
    1
  9
$XCLIPFRAME
290
    0
  9
$HALOGAP
280
    0
  9
$OBSCOLOR
 70
  257
  9
$OBSLTYPE
280
    0
  9
$INTERSECTIONDISPLAY
280
    0
  9
$INTERSECTIONCOLOR
 70
  257
  9
$DIMASSOC
280
    1
  9
$PROJECTNAME
  1

  9
$CAMERADISPLAY
290
    0
  9
$LENSLENGTH
 40
50
  9
$CAMERAHEIGHT
 40
0
  9
$STEPSPERSEC
 40
2
  9
$STEPSIZE
 40
50
  9
$3DDWFPREC
 40
2
  9
$PSOLWIDTH
 40
5
  9
$PSOLHEIGHT
 40
80
  9
$LOFTANG1
 40
1.570796326794897
  9
$LOFTANG2
 40
1.570796326794897
  9
$LOFTMAG1
 40
0
  9
$LOFTMAG2
 40
0
  9
$LOFTPARAM
 70
    7
  9
$LOFTNORMALS
280
    1
  9
$LATITUDE
 40
1
  9
$LONGITUDE
 40
1
  9
$NORTHDIRECTION
 40
0
  9
$TIMEZONE
 70
-8000
  9
$LIGHTGLYPHDISPLAY
280
    1
  9
$TILEMODELIGHTSYNCH
280
    1
  9
$SOLIDHIST
280
    1
  9
$SHOWHIST
280
    1
  9
$DWFFRAME
280
    2
  9
$DGNFRAME
280
    0
  9
$REALWORLDSCALE
290
    1
  9
$INTERFERECOLOR
 62
    1
  9
$CSHADOW
280
    0
  9
$SHADOWPLANELOCATION
 40
0
  0
ENDSEC
  0
SECTION
  2
CLASSES
  0
ENDSEC
  0
SECTION
  2
TABLES
  0
TABLE
  2
VPORT
  5
8
330
0
100
AcDbSymbolTable
 70
    1
  0
VPORT
  5
31
330
2
100
AcDbSymbolTableRecord
100
AcDbViewportTableRecord
  2
*ACTIVE
 70
    0
 10
0
 20
0
 11
1
 21
1
 12
1109.583536163072
 22
345.6079866737437
 13
0
 23
0
 14
10
 24
10
 15
10
 25
10
 16
0
 26
0
 36
1
 17
0
 27
0
 37
0
 40
1786.247594282191
 41
1.991853360488798
 42
50
 43
0
 44
0
 50
0
 51
0
 71
    0
 72
  100
 73
    1
 74
    3
 75
    0
 76
    1
 77
    0
 78
    0
281
    0
 65
    1
110
0
120
0
130
0
111
1
121
0
131
0
112
0
122
1
132
0
 79
    0
146
0
348
10020
 60
    7
 61
    5
292
1
282
    1
141
0
142
0
 63
  250
421
3358443
  0
ENDTAB
  0
TABLE
  2
LTYPE
  5
5
330
0
100
AcDbSymbolTable
 70
    4
  0
LTYPE
  5
14
330
5
100
AcDbSymbolTableRecord
100
AcDbLinetypeTableRecord
  2
ByBlock
 70
    0
  3

 72
   65
 73
    0
 40
0
  0
LTYPE
  5
15
330
5
100
AcDbSymbolTableRecord
100
AcDbLinetypeTableRecord
  2
ByLayer
 70
    0
  3

 72
   65
 73
    0
 40
0
  0
LTYPE
  5
16
330
5
100
AcDbSymbolTableRecord
100
AcDbLinetypeTableRecord
  2
Continuous
 70
    0
  3
Solid line
 72
   65
 73
    0
 40
0
  0
LTYPE
  5
32
330
5
100
AcDbSymbolTableRecord
100
AcDbLinetypeTableRecord
  2
DOT
 70
    0
  3
Dot . . . . . . . . . . . . . . . . . . . . . .
 72
   65
 73
    2
 40
6.35
 49
0
 74
    0
 49
-6.35
 74
    0
  0
LTYPE
  5
33
330
5
100
AcDbSymbolTableRecord
100
AcDbLinetypeTableRecord
  2
DOTTINY
 70
    0
  3
Dot (.15x) .....................................
 72
   65
 73
    2
 40
0.9525
 49
0
 74
    0
 49
-0.9525
 74
    0
  0
LTYPE
  5
34
330
5
100
AcDbSymbolTableRecord
100
AcDbLinetypeTableRecord
  2
DOT2
 70
    0
  3
Dot (.5x) .....................................
 72
   65
 73
    2
 40
3.175
 49
0
 74
    0
 49
-3.175
 74
    0
  0
LTYPE
  5
35
330
5
100
AcDbSymbolTableRecord
100
AcDbLinetypeTableRecord
  2
DOTX2
 70
    0
  3
Dot (2x) .  .  .  .  .  .  .  .  .  .  .  .  .
 72
   65
 73
    2
 40
12.7
 49
0
 74
    0
 49
-12.7
 74
    0
  0
LTYPE
  5
36
330
5
100
AcDbSymbolTableRecord
100
AcDbLinetypeTableRecord
  2
DASHED
 70
    0
  3
Dashed _ _ _ _ _ _ _ _ _ _ _ _ _ _ _ _ _
 72
   65
 73
    2
 40
19.05
 49
12.7
 74
    0
 49
-6.35
 74
    0
  0
LTYPE
  5
37
330
5
100
AcDbSymbolTableRecord
100
AcDbLinetypeTableRecord
  2
DASHEDTINY
 70
    0
  3
Dashed (.15x) _ _ _ _ _ _ _ _ _ _ _ _ _ _ _ _ _
 72
   65
 73
    2
 40
2.8575
 49
1.905
 74
    0
 49
-0.9525
 74
    0
  0
LTYPE
  5
38
330
5
100
AcDbSymbolTableRecord
100
AcDbLinetypeTableRecord
  2
DASHED2
 70
    0
  3
Dashed (.5x) _ _ _ _ _ _ _ _ _ _ _ _ _ _ _ _ _
 72
   65
 73
    2
 40
9.524999999999999
 49
6.35
 74
    0
 49
-3.175
 74
    0
  0
LTYPE
  5
39
330
5
100
AcDbSymbolTableRecord
100
AcDbLinetypeTableRecord
  2
DASHEDX2
 70
    0
  3
Dashed (2x) ____  ____  ____  ____  ____  ___
 72
   65
 73
    2
 40
38.09999999999999
 49
25.4
 74
    0
 49
-12.7
 74
    0
  0
LTYPE
  5
3A
330
5
100
AcDbSymbolTableRecord
100
AcDbLinetypeTableRecord
  2
DASHDOT
 70
    0
  3
Dash dot __ . __ . __ . __ . __ . __ . __ . __
 72
   65
 73
    4
 40
25.4
 49
12.7
 74
    0
 49
-6.35
 74
    0
 49
0
 74
    0
 49
-6.35
 74
    0
  0
LTYPE
  5
3B
330
5
100
AcDbSymbolTableRecord
100
AcDbLinetypeTableRecord
  2
DASHDOTTINY
 70
    0
  3
Dash dot (.15x) _._._._._._._._._._._._._._._.
 72
   65
 73
    4
 40
3.81
 49
1.905
 74
    0
 49
-0.9525
 74
    0
 49
0
 74
    0
 49
-0.9525
 74
    0
  0
LTYPE
  5
3C
330
5
100
AcDbSymbolTableRecord
100
AcDbLinetypeTableRecord
  2
DASHDOT2
 70
    0
  3
Dash dot (.5x) _._._._._._._._._._._._._._._.
 72
   65
 73
    4
 40
12.7
 49
6.35
 74
    0
 49
-3.175
 74
    0
 49
0
 74
    0
 49
-3.175
 74
    0
  0
LTYPE
  5
3D
330
5
100
AcDbSymbolTableRecord
100
AcDbLinetypeTableRecord
  2
DASHDOTX2
 70
    0
  3
Dash dot (2x) ____  .  ____  .  ____  .  ___
 72
   65
 73
    4
 40
50.8
 49
25.4
 74
    0
 49
-12.7
 74
    0
 49
0
 74
    0
 49
-12.7
 74
    0
  0
LTYPE
  5
3E
330
5
100
AcDbSymbolTableRecord
100
AcDbLinetypeTableRecord
  2
DIVIDE
 70
    0
  3
Divide ____ . . ____ . . ____ . . ____ . . ____
 72
   65
 73
    6
 40
31.75
 49
12.7
 74
    0
 49
-6.35
 74
    0
 49
0
 74
    0
 49
-6.35
 74
    0
 49
0
 74
    0
 49
-6.35
 74
    0
  0
LTYPE
  5
3F
330
5
100
AcDbSymbolTableRecord
100
AcDbLinetypeTableRecord
  2
DIVIDETINY
 70
    0
  3
Divide (.15x) __..__..__..__..__..__..__..__.._
 72
   65
 73
    6
 40
4.7625
 49
1.905
 74
    0
 49
-0.9525
 74
    0
 49
0
 74
    0
 49
-0.9525
 74
    0
 49
0
 74
    0
 49
-0.9525
 74
    0
  0
LTYPE
  5
40
330
5
100
AcDbSymbolTableRecord
100
AcDbLinetypeTableRecord
  2
DIVIDE2
 70
    0
  3
Divide (.5x) __..__..__..__..__..__..__..__.._
 72
   65
 73
    6
 40
15.875
 49
6.35
 74
    0
 49
-3.175
 74
    0
 49
0
 74
    0
 49
-3.175
 74
    0
 49
0
 74
    0
 49
-3.175
 74
    0
  0
LTYPE
  5
41
330
5
100
AcDbSymbolTableRecord
100
AcDbLinetypeTableRecord
  2
DIVIDEX2
 70
    0
  3
Divide (2x) ________  .  .  ________  .  .  _
 72
   65
 73
    6
 40
63.5
 49
25.4
 74
    0
 49
-12.7
 74
    0
 49
0
 74
    0
 49
-12.7
 74
    0
 49
0
 74
    0
 49
-12.7
 74
    0
  0
LTYPE
  5
42
330
5
100
AcDbSymbolTableRecord
100
AcDbLinetypeTableRecord
  2
BORDER
 70
    0
  3
Border __ __ . __ __ . __ __ . __ __ . __ __ .
 72
   65
 73
    6
 40
44.45
 49
12.7
 74
    0
 49
-6.35
 74
    0
 49
12.7
 74
    0
 49
-6.35
 74
    0
 49
0
 74
    0
 49
-6.35
 74
    0
  0
LTYPE
  5
43
330
5
100
AcDbSymbolTableRecord
100
AcDbLinetypeTableRecord
  2
BORDERTINY
 70
    0
  3
Border (.15x) __.__.__.__.__.__.__.__.__.__.__.
 72
   65
 73
    6
 40
6.6675
 49
1.905
 74
    0
 49
-0.9525
 74
    0
 49
1.905
 74
    0
 49
-0.9525
 74
    0
 49
0
 74
    0
 49
-0.9525
 74
    0
  0
LTYPE
  5
44
330
5
100
AcDbSymbolTableRecord
100
AcDbLinetypeTableRecord
  2
BORDER2
 70
    0
  3
Border (.5x) __.__.__.__.__.__.__.__.__.__.__.
 72
   65
 73
    6
 40
22.225
 49
6.35
 74
    0
 49
-3.175
 74
    0
 49
6.35
 74
    0
 49
-3.175
 74
    0
 49
0
 74
    0
 49
-3.175
 74
    0
  0
LTYPE
  5
45
330
5
100
AcDbSymbolTableRecord
100
AcDbLinetypeTableRecord
  2
BORDERX2
 70
    0
  3
Border (2x) ____  ____  .  ____  ____  .  ___
 72
   65
 73
    6
 40
88.89999999999999
 49
25.4
 74
    0
 49
-12.7
 74
    0
 49
25.4
 74
    0
 49
-12.7
 74
    0
 49
0
 74
    0
 49
-12.7
 74
    0
  0
LTYPE
  5
46
330
5
100
AcDbSymbolTableRecord
100
AcDbLinetypeTableRecord
  2
CENTER
 70
    0
  3
Center ____ _ ____ _ ____ _ ____ _ ____ _ ____
 72
   65
 73
    4
 40
50.8
 49
31.75
 74
    0
 49
-6.35
 74
    0
 49
6.35
 74
    0
 49
-6.35
 74
    0
  0
LTYPE
  5
47
330
5
100
AcDbSymbolTableRecord
100
AcDbLinetypeTableRecord
  2
CENTERTINY
 70
    0
  3
Center (.15x) ___ _ ___ _ ___ _ ___ _ ___ _ ___
 72
   65
 73
    4
 40
7.619999999999999
 49
4.7625
 74
    0
 49
-0.9525
 74
    0
 49
0.9525
 74
    0
 49
-0.9525
 74
    0
  0
LTYPE
  5
48
330
5
100
AcDbSymbolTableRecord
100
AcDbLinetypeTableRecord
  2
CENTER2
 70
    0
  3
Center (.5x) ___ _ ___ _ ___ _ ___ _ ___ _ ___
 72
   65
 73
    4
 40
28.575
 49
19.05
 74
    0
 49
-3.175
 74
    0
 49
3.175
 74
    0
 49
-3.175
 74
    0
  0
LTYPE
  5
49
330
5
100
AcDbSymbolTableRecord
100
AcDbLinetypeTableRecord
  2
CENTERX2
 70
    0
  3
Center (2x) ________  __  ________  __  _____
 72
   65
 73
    4
 40
101.6
 49
63.5
 74
    0
 49
-12.7
 74
    0
 49
12.7
 74
    0
 49
-12.7
 74
    0
  0
ENDTAB
  0
TABLE
  2
LAYER
  5
2
330
0
100
AcDbSymbolTable
 70
    1
  0
LAYER
  5
10
330
2
100
AcDbSymbolTableRecord
100
AcDbLayerTableRecord
  2
0
 70
    0
 62
    7
  6
CONTINUOUS
370
   -3
390
F
  0
ENDTAB
  0
TABLE
  2
STYLE
  5
3
330
0
100
AcDbSymbolTable
 70
    3
  0
STYLE
  5
4A
330
2
100
AcDbSymbolTableRecord
100
AcDbTextStyleTableRecord
  2
Standard
 70
    0
 40
0
 41
1
 50
0
 71
    0
 42
1
  3
txt
  4

  0
ENDTAB
  0
TABLE
  2
VIEW
  5
6
330
0
100
AcDbSymbolTable
 70
    0
  0
ENDTAB
  0
TABLE
  2
UCS
  5
7
330
0
100
AcDbSymbolTable
 70
    0
  0
ENDTAB
  0
TABLE
  2
APPID
  5
9
330
0
100
AcDbSymbolTable
 70
    1
  0
APPID
  5
12
330
9
100
AcDbSymbolTableRecord
100
AcDbRegAppTableRecord
  2
ACAD
 70
    0
  0
APPID
  5
4B
330
9
100
AcDbSymbolTableRecord
100
AcDbRegAppTableRecord
  2
LibreCad
 70
    0
  0
ENDTAB
  0
TABLE
  2
DIMSTYLE
  5
A
330
0
100
AcDbSymbolTable
 70
    1
100
AcDbDimStyleTable
 71
    1
  0
DIMSTYLE
105
4C
330
A
100
AcDbSymbolTableRecord
100
AcDbDimStyleTableRecord
  2
Standard
 70
    0
 40
1
 41
2.5
 42
0.625
 43
0.38
 44
1.25
 45
0
 46
0
 47
0
 48
0
 49
1
140
2.5
141
0.09
142
2.5
143
25.4
144
1
145
0
146
1
147
0.625
148
0
 71
    0
 72
    0
 73
    0
 74
    1
 75
    0
 76
    0
 77
    0
 78
    1
 79
    0
170
    0
171
    2
172
    0
173
    0
174
    0
175
    0
176
    0
177
    0
178
    0
179
    0
271
    2
272
    4
273
    2
274
    2
275
    0
276
    0
277
    2
278
    0
279
    0
280
    0
281
    0
282
    0
283
    1
284
    0
285
    0
286
    0
288
    0
289
    3
340
standard
341

371
   -2
372
   -2
  0
ENDTAB
  0
TABLE
  2
BLOCK_RECORD
  5
1
330
0
100
AcDbSymbolTable
 70
    2
  0
BLOCK_RECORD
  5
1F
330
1
100
AcDbSymbolTableRecord
100
AcDbBlockTableRecord
  2
*Model_Space
 70
    0
280
    1
281
    0
  0
BLOCK_RECORD
  5
1E
330
1
100
AcDbSymbolTableRecord
100
AcDbBlockTableRecord
  2
*Paper_Space
 70
    0
280
    1
281
    0
  0
BLOCK_RECORD
  5
4D
330
1
100
AcDbSymbolTableRecord
100
AcDbBlockTableRecord
  2
SHAPE2DVIEW
 70
    0
280
    1
281
    0
  0
ENDTAB
  0
ENDSEC
  0
SECTION
  2
BLOCKS
  0
BLOCK
  5
20
330
1F
100
AcDbEntity
  8
0
100
AcDbBlockBegin
  2
*Model_Space
 70
    0
 10
0
 20
0
 30
0
  3
*Model_Space
  1

  0
ENDBLK
  5
21
330
1F
100
AcDbEntity
  8
0
100
AcDbBlockEnd
  0
BLOCK
  5
1C
330
1B
100
AcDbEntity
  8
0
100
AcDbBlockBegin
  2
*Paper_Space
 70
    0
 10
0
 20
0
 30
0
  3
*Paper_Space
  1

  0
ENDBLK
  5
1D
330
1F
100
AcDbEntity
  8
0
100
AcDbBlockEnd
  0
BLOCK
  5
4E
330
4D
100
AcDbEntity
  8
0
100
AcDbBlockBegin
  2
SHAPE2DVIEW
 70
    0
 10
0
 20
0
  3
SHAPE2DVIEW
  1

  0
LWPOLYLINE
  5
50
100
AcDbEntity
  8
0
  6
ByLayer
 62
    0
370
   -1
100
AcDbPolyline
 90
    6
 70
    0
 43
0
 10
2.54303958341
 20
6.74632136032
 10
5.60887435527
 20
3.9947424931
 10
8.70489387476
 20
0.975521722893
 10
11.8093043942
 20
-1.93276900362
 10
14.9131621511
 20
-4.46213117921
 10
17.9604951966
 20
-6.42911082098
  0
LWPOLYLINE
  5
51
100
AcDbEntity
  8
0
  6
ByLayer
 62
    0
370
   -1
100
AcDbPolyline
 90
    4
 70
    0
 43
0
 10
25.8273353494
 20
-6.32104565805
 10
22.886560198
 20
-5.63865699299
 10
18.703274123
 20
-6.20093762685
 10
14.1421345882
 20
-8.164960539479999
  0
LINE
  5
52
100
AcDbEntity
  8
0
  6
ByLayer
 62
    0
370
   -1
100
AcDbLine
 10
14.1421308175
 20
-8.16496271648
 11
14.1421345882
 21
-8.164960539479999
  0
LINE
  5
53
100
AcDbEntity
  8
0
  6
ByLayer
 62
    0
370
   -1
100
AcDbLine
 10
14.1421270421
 20
-8.16496489621
 11
14.1421308175
 21
-8.16496271648
  0
LWPOLYLINE
  5
54
100
AcDbEntity
  8
0
  6
ByLayer
 62
    0
370
   -1
100
AcDbPolyline
 90
    7
 70
    0
 43
0
 10
14.1421270421
 20
-8.16496489621
 10
10.7700906964
 20
-10.4756636248
 10
7.41469821727
 20
-13.4642907235
 10
4.06545938362
 20
-16.9793131658
 10
0.711915313717
 20
-20.6794897893
 10
-2.67308109322
 20
-24.0679774207
 10
-6.10002706949
 20
-26.6158500356
  0
LWPOLYLINE
  5
55
100
AcDbEntity
  8
0
  6
ByLayer
 62
    0
370
   -1
100
AcDbPolyline
 90
    8
 70
    0
 43
0
 10
-6.10002706949
 20
-26.6158500356
 10
-9.8865989758
 20
-28.0434788443
 10
-13.6913144188
 20
-27.9729407104
 10
-17.4500069814
 20
-26.5195805745
 10
-20.9948854963
 20
-23.8298559648
 10
-24.0080278753
 20
-20.0414780143
 10
-26.0316322128
 20
-15.3328247191
 10
-26.5846619731
 20
-10.0705414584
  0
LWPOLYLINE
  5
56
100
AcDbEntity
  8
0
  6
ByLayer
 62
    0
370
   -1
100
AcDbPolyline
 90
    7
 70
    0
 43
0
 10
-26.5846619731
 20
-10.0705414584
 10
-28.6323164677
 20
-15.5037530907
 10
-29.7661206881
 20
-20.8431701075
 10
-29.9237005582
 20
-25.7950546674
 10
-29.0963871219
 20
-30.0869882875
 10
-27.3296934498
 20
-33.4828584272
 10
-24.720810824
 20
-35.7958477688
  0
LWPOLYLINE
  5
57
100
AcDbEntity
  8
0
  6
ByLayer
 62
    0
370
   -1
100
AcDbPolyline
 90
    5
 70
    0
 43
0
 10
245.357017413
 20
-183.134960443
 10
246.061089964
 20
-179.090566354
 10
248.091347462
 20
-175.198474598
 10
251.422561207
 20
-171.617502409
 10
255.878059903
 20
-168.470250004
  0
LWPOLYLINE
  5
58
100
AcDbEntity
  8
0
  6
ByLayer
 62
    0
370
   -1
100
AcDbPolyline
 90
    3
 70
    0
 43
0
 10
255.878059903
 20
-168.470250004
 10
259.163180601
 20
-166.792243206
 10
262.778041897
 20
-165.357912349
  0
LWPOLYLINE
  5
59
100
AcDbEntity
  8
0
  6
ByLayer
 62
    0
370
   -1
100
AcDbPolyline
 90
    3
 70
    0
 43
0
 10
262.778041871
 20
-165.35791235
 10
263.176123479
 20
-161.902518386
 10
264.628041897
 20
-158.341375591
  0
LINE
  5
5A
100
AcDbEntity
  8
0
  6
ByLayer
 62
    0
370
   -1
100
AcDbLine
 10
-25.1180533417
 20
-9.22379575427
 11
-26.5846619731
 21
-10.0705414584
  0
LWPOLYLINE
  5
5B
100
AcDbEntity
  8
0
  6
ByLayer
 62
    0
370
   -1
100
AcDbPolyline
 90
    6
 70
    0
 43
0
 10
-1.75034645515
 20
-23.211027233
 10
0.490958904264
 20
-19.5092194106
 10
2.3164858133
 20
-15.6176488002
 10
3.66557021377
 20
-11.6656361282
 10
4.49338070157
 20
-7.78451067009
 10
4.77240831839
 20
-4.10324604974
  0
LWPOLYLINE
  5
5C
100
AcDbEntity
  8
0
  6
ByLayer
 62
    0
370
   -1
100
AcDbPolyline
 90
    4
 70
    0
 43
0
 10
4.77240831839
 20
-4.10324604974
 10
4.34753230209
 20
-0.0142578381128
 10
3.09440336228
 20
3.37722000842
 10
1.07643095197
 20
5.89957565621
  0
LINE
  5
5D
100
AcDbEntity
  8
0
  6
ByLayer
 62
    0
370
   -1
100
AcDbLine
 10
2.54303958341
 20
6.74632136032
 11
1.07643095197
 21
5.89957565621
  0
LWPOLYLINE
  5
5E
100
AcDbEntity
  8
0
  6
ByLayer
 62
    0
370
   -1
100
AcDbPolyline
 90
    6
 70
    0
 43
0
 10
1.07643095197
 20
5.89957565621
 10
4.16214636358
 20
3.33475819732
 10
7.26630283784
 20
0.425750891172
 10
10.3709599529
 20
-2.44102928036
 10
13.4677080776
 20
-4.97449625572
 10
16.5100211626
 20
-6.97801826077
  0
LWPOLYLINE
  5
5F
100
AcDbEntity
  8
0
  6
ByLayer
 62
    0
370
   -1
100
AcDbPolyline
 90
    8
 70
    0
 43
0
 10
-5.44965797807
 20
-26.2186771831
 10
-9.210583724379999
 20
-27.414562887
 10
-12.9698546517
 20
-27.167361293
 10
-16.6624046826
 20
-25.5882725611
 10
-20.1024117043
 20
-22.8206220504
 10
-22.9604112309
 20
-19.006103687
 10
-24.7791587353
 20
-14.3431167945
 10
-25.1180533417
 20
-9.223795754279999
  0
LWPOLYLINE
  5
60
100
AcDbEntity
  8
0
  6
ByLayer
 62
    0
370
   -1
100
AcDbPolyline
 90
    9
 70
    0
 43
0
 10
256.717362484
 20
-168.001186754
 10
253.487403901
 20
-170.254253132
 10
250.496377551
 20
-173.065701608
 10
247.958977513
 20
-176.729909604
 10
246.534376261
 20
-181.978347707
 10
247.611020714
 20
-187.414667466
 10
249.966325736
 20
-191.087167437
 10
252.818400579
 20
-193.81851243
 10
255.928516195
 20
-195.922615626
  0
LWPOLYLINE
  5
61
100
AcDbEntity
  8
0
  6
ByLayer
 62
    0
370
   -1
100
AcDbPolyline
 90
    2
 70
    0
 43
0
 10
262.77804188
 20
-165.357912351
 10
262.910358466
 20
-164.860434711
  0
LWPOLYLINE
  5
62
100
AcDbEntity
  8
0
  6
ByLayer
 62
    0
370
   -1
100
AcDbPolyline
 90
   11
 70
    0
 43
0
 10
514.75960965
 20
-64.0697401426
 10
513.5328269300001
 20
-59.1707322706
 10
511.564237616
 20
-54.2392090492
 10
508.943407802
 20
-49.499542963
 10
505.789578961
 20
-45.1673774565
 10
502.246242745
 20
-41.439815675
 10
498.474612459
 20
-38.4864527436
 10
494.646288238
 20
-36.4416595957
 10
490.935449656
 20
-35.3984694176
 10
487.510930974
 20
-35.4043448616
 10
484.528539582
 20
-36.4590186092
  0
LWPOLYLINE
  5
63
100
AcDbEntity
  8
0
  6
ByLayer
 62
    0
370
   -1
100
AcDbPolyline
 90
   12
 70
    0
 43
0
 10
83.2880636694
 20
-318.183366076
 10
82.87761006149999
 20
-313.53799597
 10
81.665009529
 20
-308.630997284
 10
79.70568548369999
 20
-303.686650481
 10
77.089191262
 20
-298.930943067
 10
73.93511697850001
 20
-294.581240548
 10
70.38762351130001
 20
-290.836351475
 10
66.6088534507
 20
-287.867440649
 10
62.7715201705
 20
-285.810205823
 10
59.051013749
 20
-284.758675467
 10
55.6173845482
 20
-284.76091108
 10
52.6275708505
 20
-285.81681048
  0
LWPOLYLINE
  5
64
100
AcDbEntity
  8
0
  6
ByLayer
 62
    0
370
   -1
100
AcDbPolyline
 90
   14
 70
    0
 43
0
 10
52.6275708505
 20
-285.81681048
 10
49.957299324
 20
-288.210748887
 10
48.180291336
 20
-291.743949057
 10
47.3998201314
 20
-296.211074238
 10
47.6612438598
 20
-301.352511352
 10
48.9493695244
 20
-306.869458763
 10
51.1893359436
 20
-312.44129154
 10
54.2509644112
 20
-317.744195015
 10
57.9563242091
 20
-322.469983713
 10
62.0900732944
 20
-326.344011974
 10
66.4119731957
 20
-329.141135354
 10
70.6708508003
 20
-330.698795212
 10
74.6191956222
 20
-330.926466018
 10
78.027544212
 20
-329.810916372
  0
LWPOLYLINE
  5
65
100
AcDbEntity
  8
0
  6
ByLayer
 62
    0
370
   -1
100
AcDbPolyline
 90
    4
 70
    0
 43
0
 10
78.027544212
 20
-329.810916372
 10
80.8818078676
 20
-327.163632487
 10
82.6760731649
 20
-323.197691451
 10
83.2880636694
 20
-318.183366076
  0
LWPOLYLINE
  5
66
100
AcDbEntity
  8
0
  6
ByLayer
 62
    0
370
   -1
100
AcDbPolyline
 90
    3
 70
    0
 43
0
 10
294.359512903
 20
-219.591547354
 10
298.369812045
 20
-216.126389661
 10
299.778041897
 20
-212.038956841
  0
LWPOLYLINE
  5
67
100
AcDbEntity
  8
0
  6
ByLayer
 62
    0
370
   -1
100
AcDbPolyline
 90
    7
 70
    0
 43
0
 10
268.570152869
 20
-219.801243804
 10
272.406598621
 20
-221.411738631
 10
276.826250278
 20
-222.406069714
 10
281.538561324
 20
-222.71887004
 10
286.233745904
 20
-222.329576213
 10
290.603144053
 20
-221.263780288
 10
294.359512903
 20
-219.591547354
  0
LWPOLYLINE
  5
68
100
AcDbEntity
  8
0
  6
ByLayer
 62
    0
370
   -1
100
AcDbPolyline
 90
    3
 70
    0
 43
0
 10
294.359512903
 20
311.131420949
 10
298.369812045
 20
314.596578642
 10
299.778041897
 20
318.684011461
  0
LWPOLYLINE
  5
69
100
AcDbEntity
  8
0
  6
ByLayer
 62
    0
370
   -1
100
AcDbPolyline
 90
   11
 70
    0
 43
0
 10
299.778041897
 20
318.684011461
 10
298.872587448
 20
321.98461342
 10
296.244856293
 20
324.962129462
 10
292.152069064
 20
327.325099572
 10
286.994856293
 20
328.842219772
 10
281.278041897
 20
329.364983765
 10
275.561227501
 20
328.842219772
 10
270.40401473
 20
327.325099572
 10
266.311227501
 20
324.962129462
 10
263.683496346
 20
321.98461342
 10
262.778041897
 20
318.684011461
  0
LWPOLYLINE
  5
6A
100
AcDbEntity
  8
0
  6
ByLayer
 62
    0
370
   -1
100
AcDbPolyline
 90
    9
 70
    0
 43
0
 10
262.778041897
 20
318.684011461
 10
263.574645458
 20
315.583489297
 10
265.895853196
 20
312.749981944
 10
269.541764317
 20
310.427509082
 10
274.198395494
 20
308.816080457
 10
279.46472089
 20
308.054471181
 10
284.887208229
 20
308.208270514
 10
289.998876676
 20
309.264233365
 10
294.359512903
 20
311.131420949
  0
LWPOLYLINE
  5
6B
100
AcDbEntity
  8
0
  6
ByLayer
 62
    0
370
   -1
100
AcDbPolyline
 90
    3
 70
    0
 43
0
 10
293.051365803
 20
311.88668
 10
296.660635031
 20
315.005321924
 10
297.928041897
 20
318.684011461
  0
LWPOLYLINE
  5
6C
100
AcDbEntity
  8
0
  6
ByLayer
 62
    0
370
   -1
100
AcDbPolyline
 90
   10
 70
    0
 43
0
 10
297.928041897
 20
318.684011461
 10
296.923924033
 20
321.971808372
 10
294.032681875
 20
324.863048452
 10
289.603041897
 20
327.009005479
 10
284.169284055
 20
328.150845363
 10
278.386799739
 20
328.150845363
 10
272.953041897
 20
327.009005479
 10
268.523401919
 20
324.863048452
 10
265.632159761
 20
321.971808372
 10
264.628041897
 20
318.684011461
  0
LWPOLYLINE
  5
6D
100
AcDbEntity
  8
0
  6
ByLayer
 62
    0
370
   -1
100
AcDbPolyline
 90
    8
 70
    0
 43
0
 10
264.628041897
 20
318.684011461
 10
265.56238418
 20
315.50908054
 10
268.260546706
 20
312.690482616
 10
272.41970577
 20
310.544558257
 10
277.573065194
 20
309.312151651
 10
283.142246408
 20
309.131579867
 10
288.502201783
 20
310.023109074
 10
293.051365803
 20
311.88668
  0
LWPOLYLINE
  5
6E
100
AcDbEntity
  8
0
  6
ByLayer
 62
    0
370
   -1
100
AcDbPolyline
 90
    7
 70
    0
 43
0
 10
86.8236070839
 20
-274.664107925
 10
91.5105230822
 20
-274.848717247
 10
96.1174743039
 20
-275.377789855
 10
100.569984003
 20
-276.242772671
 10
104.777766619
 20
-277.448867865
 10
108.683351938
 20
-278.955538001
 10
112.223601611
 20
-280.738425998
  0
LWPOLYLINE
  5
6F
100
AcDbEntity
  8
0
  6
ByLayer
 62
    0
370
   -1
100
AcDbPolyline
 90
   10
 70
    0
 43
0
 10
86.8235987769
 20
-316.142126785
 10
86.82359898110001
 20
-312.199468649
 10
86.82359952020001
 20
-307.791030334
 10
86.8236004274
 20
-302.983010318
 10
86.823601643
 20
-297.957219155
 10
86.82360314650001
 20
-292.84900893
 10
86.8236048892
 20
-287.823218656
 10
86.8236068123
 20
-283.015200353
 10
86.8236088681
 20
-278.606764597
 10
86.8236109848
 20
-274.664109688
  0
LWPOLYLINE
  5
70
100
AcDbEntity
  8
0
  6
ByLayer
 62
    0
370
   -1
100
AcDbPolyline
 90
    3
 70
    0
 43
0
 10
86.8236023525
 20
-324.732516938
 10
86.8235997062
 20
-322.499946204
 10
86.8235987769
 20
-316.142126785
  0
LWPOLYLINE
  5
71
100
AcDbEntity
  8
0
  6
ByLayer
 62
    0
370
   -1
100
AcDbPolyline
 90
    4
 70
    0
 43
0
 10
694.008631134
 20
-625.222544415
 10
693.39664074
 20
-620.208220765
 10
691.6023757310001
 20
-616.242279954
 10
688.748112417
 20
-613.594994546
  0
LWPOLYLINE
  5
72
100
AcDbEntity
  8
0
  6
ByLayer
 62
    0
370
   -1
100
AcDbPolyline
 90
   14
 70
    0
 43
0
 10
688.748112417
 20
-613.594994546
 10
685.339762418
 20
-612.479441701
 10
681.3914155160001
 20
-612.707109059
 10
677.132535282
 20
-614.264765422
 10
672.8106323539999
 20
-617.061885462
 10
668.676880021
 20
-620.93591073
 10
664.971516944
 20
-625.66169696
 10
661.909885355
 20
-630.964598633
 10
659.669916154
 20
-636.536430379
 10
658.381788209
 20
-642.05337759
 10
658.120362834
 20
-647.194815347
 10
658.900833121
 20
-651.661941976
 10
660.677840975
 20
-655.195144315
 10
663.348113159
 20
-657.589085487
  0
LWPOLYLINE
  5
73
100
AcDbEntity
  8
0
  6
ByLayer
 62
    0
370
   -1
100
AcDbPolyline
 90
   12
 70
    0
 43
0
 10
663.348113159
 20
-657.589085487
 10
666.337928536
 20
-658.644987784
 10
669.77156006
 20
-658.647226199
 10
673.492069296
 20
-657.595698424
 10
677.329405704
 20
-655.538465853
 10
681.108179013
 20
-652.569556881
 10
684.65567565
 20
-648.824669214
 10
687.809752835
 20
-644.474967638
 10
690.426249515
 20
-639.719260718
 10
692.385575429
 20
-634.7749140019999
 10
693.598177129
 20
-629.867915054
 10
694.008631134
 20
-625.222544415
  0
LWPOLYLINE
  5
74
100
AcDbEntity
  8
0
  6
ByLayer
 62
    0
370
   -1
100
AcDbPolyline
 90
   11
 70
    0
 43
0
 10
692.841197441
 20
-625.896561629
 10
692.37720332
 20
-630.691183067
 10
691.010861338
 20
-635.756626556
 10
688.817675747
 20
-640.812974969
 10
685.918842293
 20
-645.580813776
 10
682.474550926
 20
-649.7966715269999
 10
678.675133675
 20
-653.227579323
 10
674.7305468759999
 20
-655.6839447139999
 10
670.8587689570001
 20
-657.030028599
 10
667.273754915
 20
-657.191446191
 10
664.173613134
 20
-656.159277531
  0
LWPOLYLINE
  5
75
100
AcDbEntity
  8
0
  6
ByLayer
 62
    0
370
   -1
100
AcDbPolyline
 90
   13
 70
    0
 43
0
 10
664.173613134
 20
-656.159277531
 10
661.5048779689999
 20
-653.684067144
 10
659.827240222
 20
-649.975915007
 10
659.255028134
 20
-645.2875255599999
 10
659.827237014
 20
-639.938404796
 10
661.504871771
 20
-634.293086454
 10
664.17360437
 20
-628.736289652
 10
667.651565094
 20
-623.646700907
 10
671.701736667
 20
-619.371167281
 10
676.04810659
 20
-616.2010593259999
 10
680.394476936
 20
-614.352414661
 10
684.444649747
 20
-613.951215363
 10
687.922612441
 20
-615.0248025019999
  0
LWPOLYLINE
  5
76
100
AcDbEntity
  8
0
  6
ByLayer
 62
    0
370
   -1
100
AcDbPolyline
 90
    4
 70
    0
 43
0
 10
687.922612441
 20
-615.0248025019999
 10
690.59134864
 20
-617.500014358
 10
692.268986423
 20
-621.2081690160001
 10
692.841197441
 20
-625.896561629
  0
LWPOLYLINE
  5
77
100
AcDbEntity
  8
0
  6
ByLayer
 62
    0
370
   -1
100
AcDbPolyline
 90
   10
 70
    0
 43
0
 10
475.732472809
 20
-50.1277835888
 10
475.732470692
 20
-54.0704383916
 10
475.732468637
 20
-58.4788742713
 10
475.732466714
 20
-63.2868929235
 10
475.732464971
 20
-68.31268370719999
 10
475.732463467
 20
-73.420894559
 10
475.732462252
 20
-78.4466864052
 10
475.732461345
 20
-83.2547071052
 10
475.732460805
 20
-87.6631460423
 10
475.732460601
 20
-91.6058047002
  0
LWPOLYLINE
  5
78
100
AcDbEntity
  8
0
  6
ByLayer
 62
    0
370
   -1
100
AcDbPolyline
 90
    7
 70
    0
 43
0
 10
501.132463435
 20
-56.2021039136
 10
497.592214685
 20
-54.4192163213
 10
493.686630453
 20
-52.9125464464
 10
489.478849039
 20
-51.7064513549
 10
485.026340606
 20
-50.8414684594
 10
480.41939065
 20
-50.312395596
 10
475.732475861
 20
-50.127785841
  0
LWPOLYLINE
  5
79
100
AcDbEntity
  8
0
  6
ByLayer
 62
    0
370
   -1
100
AcDbPolyline
 90
    3
 70
    0
 43
0
 10
475.732460601
 20
-91.6058047002
 10
475.732461531
 20
-97.9636241191
 10
475.732464177
 20
-100.196194854
  0
LWPOLYLINE
  5
7A
100
AcDbEntity
  8
0
  6
ByLayer
 62
    0
370
   -1
100
AcDbPolyline
 90
   12
 70
    0
 43
0
 10
1046.99645627
 20
-421.425213534
 10
1047.40691027
 20
-416.779842894
 10
1048.61951197
 20
-411.872843946
 10
1050.57883788
 20
-406.92849723
 10
1053.19533456
 20
-402.17279031
 10
1056.34941175
 20
-397.823088734
 10
1059.89690839
 20
-394.078201067
 10
1063.6756817
 20
-391.109292095
 10
1067.5130181
 20
-389.052059524
 10
1071.23352734
 20
-388.000531749
 10
1074.66715886
 20
-388.002770165
 10
1077.65697424
 20
-389.058672462
  0
LWPOLYLINE
  5
7B
100
AcDbEntity
  8
0
  6
ByLayer
 62
    0
370
   -1
100
AcDbPolyline
 90
   14
 70
    0
 43
0
 10
1077.65697424
 20
-389.058672462
 10
1080.32724642
 20
-391.452613633
 10
1082.10425428
 20
-394.985815972
 10
1082.88472457
 20
-399.452942601
 10
1082.62329919
 20
-404.594380359
 10
1081.33517125
 20
-410.111327569
 10
1079.09520205
 20
-415.683159315
 10
1076.03357046
 20
-420.986060988
 10
1072.32820738
 20
-425.711847218
 10
1068.19445505
 20
-429.585872486
 10
1063.87255212
 20
-432.382992526
 10
1059.61367188
 20
-433.940648889
 10
1055.66532498
 20
-434.168316247
 10
1052.25697498
 20
-433.052763402
  0
LWPOLYLINE
  5
7C
100
AcDbEntity
  8
0
  6
ByLayer
 62
    0
370
   -1
100
AcDbPolyline
 90
    4
 70
    0
 43
0
 10
1052.25697498
 20
-433.052763402
 10
1049.40271167
 20
-430.405477994
 10
1047.60844666
 20
-426.439537183
 10
1046.99645627
 20
-421.425213534
  0
LWPOLYLINE
  5
7D
100
AcDbEntity
  8
0
  6
ByLayer
 62
    0
370
   -1
100
AcDbPolyline
 90
    4
 70
    0
 43
0
 10
1048.16388996
 20
-420.751196319
 10
1048.73610098
 20
-425.439588932
 10
1050.41373876
 20
-429.14774359
 10
1053.08247496
 20
-431.622955447
  0
LWPOLYLINE
  5
7E
100
AcDbEntity
  8
0
  6
ByLayer
 62
    0
370
   -1
100
AcDbPolyline
 90
   13
 70
    0
 43
0
 10
1053.08247496
 20
-431.622955447
 10
1056.56043765
 20
-432.696542586
 10
1060.61061046
 20
-432.295343288
 10
1064.95698081
 20
-430.446698622
 10
1069.30335073
 20
-427.276590667
 10
1073.35352231
 20
-423.001057042
 10
1076.83148303
 20
-417.911468297
 10
1079.50021563
 20
-412.354671494
 10
1081.17785039
 20
-406.709353152
 10
1081.75005927
 20
-401.360232388
 10
1081.17784718
 20
-396.671842941
 10
1079.50020943
 20
-392.963690804
 10
1076.83147427
 20
-390.488480417
  0
LWPOLYLINE
  5
7F
100
AcDbEntity
  8
0
  6
ByLayer
 62
    0
370
   -1
100
AcDbPolyline
 90
   11
 70
    0
 43
0
 10
1076.83147427
 20
-390.488480417
 10
1073.73133248
 20
-389.456311757
 10
1070.14631844
 20
-389.617729349
 10
1066.27454052
 20
-390.963813234
 10
1062.32995373
 20
-393.420178625
 10
1058.53053647
 20
-396.851086421
 10
1055.08624511
 20
-401.066944172
 10
1052.18741165
 20
-405.834782979
 10
1049.99422606
 20
-410.891131392
 10
1048.62788408
 20
-415.956574881
 10
1048.16388996
 20
-420.751196319
  0
LWPOLYLINE
  5
80
100
AcDbEntity
  8
0
  6
ByLayer
 62
    0
370
   -1
100
AcDbPolyline
 90
    2
 70
    0
 43
0
 10
1056.62762656
 20
-379.945279349
 10
1056.62771666
 20
-379.889600183
  0
LWPOLYLINE
  5
81
100
AcDbEntity
  8
0
  6
ByLayer
 62
    0
370
   -1
100
AcDbPolyline
 90
    4
 70
    0
 43
0
 10
1005.84375892
 20
-386.068118926
 10
1006.16746895
 20
-390.476021059
 10
1007.09852173
 20
-394.910541498
 10
1008.61462393
 20
-399.265499197
  0
LWPOLYLINE
  5
82
100
AcDbEntity
  8
0
  6
ByLayer
 62
    0
370
   -1
100
AcDbPolyline
 90
    4
 70
    0
 43
0
 10
1008.61462393
 20
-399.265499197
 10
1010.28198792
 20
-402.71297924
 10
1012.29336253
 20
-405.977814522
 10
1014.61610702
 20
-409.007023086
  0
LWPOLYLINE
  5
83
100
AcDbEntity
  8
0
  6
ByLayer
 62
    0
370
   -1
100
AcDbPolyline
 90
    3
 70
    0
 43
0
 10
1014.6161066
 20
-409.007022857
 10
1018.59248052
 20
-408.61507501
 10
1023.03802262
 20
-407.592851991
  0
LWPOLYLINE
  5
84
100
AcDbEntity
  8
0
  6
ByLayer
 62
    0
370
   -1
100
AcDbPolyline
 90
   11
 70
    0
 43
0
 10
1023.03802262
 20
-407.592851991
 10
1027.72047359
 20
-405.975863304
 10
1032.5147623
 20
-403.886080062
 10
1037.26307816
 20
-401.346257687
 10
1041.79140982
 20
-398.449472969
 10
1045.97649528
 20
-395.323313126
 10
1049.56946967
 20
-392.047358938
 10
1052.55427491
 20
-388.760087469
 10
1054.75908324
 20
-385.576799597
 10
1056.10309513
 20
-382.614153171
 10
1056.62762656
 20
-379.945279349
  0
LWPOLYLINE
  5
85
100
AcDbEntity
  8
0
  6
ByLayer
 62
    0
370
   -1
100
AcDbPolyline
 90
    3
 70
    0
 43
0
 10
1047.49467718
 20
-250.349191303
 10
1050.99221764
 20
-250.072643173
 10
1053.6807113
 20
-249.109241778
  0
LWPOLYLINE
  5
86
100
AcDbEntity
  8
0
  6
ByLayer
 62
    0
370
   -1
100
AcDbPolyline
 90
    2
 70
    0
 43
0
 10
1053.6807113
 20
-249.109241778
 10
1053.696828
 20
-249.099906282
  0
LWPOLYLINE
  5
87
100
AcDbEntity
  8
0
  6
ByLayer
 62
    0
370
   -1
100
AcDbPolyline
 90
    2
 70
    0
 43
0
 10
1038.65208752
 20
-257.785979101
 10
1038.68448494
 20
-257.767300872
  0
LWPOLYLINE
  5
88
100
AcDbEntity
  8
0
  6
ByLayer
 62
    0
370
   -1
100
AcDbPolyline
 90
    4
 70
    0
 43
0
 10
1038.68448494
 20
-257.767300872
 10
1041.83436563
 20
-255.683886295
 10
1044.78842025
 20
-253.196595945
 10
1047.49467892
 20
-250.349188047
  0
LWPOLYLINE
  5
89
100
AcDbEntity
  8
0
  6
ByLayer
 62
    0
370
   -1
100
AcDbPolyline
 90
    8
 70
    0
 43
0
 10
656.180716467
 20
-611.143032272
 10
651.925667915
 20
-612.0005757919999
 10
647.526838408
 20
-612.920212554
 10
643.050273992
 20
-613.888134711
 10
638.563187864
 20
-614.889809433
 10
634.132951196
 20
-615.9101971170001
 10
629.826081597
 20
-616.933977192
 10
625.707244388
 20
-617.945778155
  0
LWPOLYLINE
  5
8A
100
AcDbEntity
  8
0
  6
ByLayer
 62
    0
370
   -1
100
AcDbPolyline
 90
    7
 70
    0
 43
0
 10
625.707244388
 20
-617.945778155
 10
624.978951135
 20
-612.633046888
 10
624.772982802
 20
-607.428435184
 10
625.0953094
 20
-602.482799186
 10
625.96814997
 20
-597.9727879880001
 10
627.332730412
 20
-594.0109603560001
 10
629.149498238
 20
-590.712150225
  0
LWPOLYLINE
  5
8B
100
AcDbEntity
  8
0
  6
ByLayer
 62
    0
370
   -1
100
AcDbPolyline
 90
    2
 70
    0
 43
0
 10
678.960341728
 20
-608.1506219090001
 10
678.907866197
 20
-607.913725963
  0
LWPOLYLINE
  5
8C
100
AcDbEntity
  8
0
  6
ByLayer
 62
    0
370
   -1
100
AcDbPolyline
 90
    6
 70
    0
 43
0
 10
678.907866197
 20
-607.913725963
 10
677.411727905
 20
-607.787301346
 10
674.197751906
 20
-608.070310735
 10
669.4228784540001
 20
-608.748773681
 10
663.318736552
 20
-609.789777962
 10
656.180716467
 20
-611.143032272
  0
LWPOLYLINE
  5
8D
100
AcDbEntity
  8
0
  6
ByLayer
 62
    0
370
   -1
100
AcDbPolyline
 90
    5
 70
    0
 43
0
 10
845.969117676
 20
-366.699836892
 10
842.610192332
 20
-369.648541661
 10
839.120210767
 20
-372.396802811
 10
835.5295688800001
 20
-374.908086228
 10
831.877674909
 20
-377.167074946
  0
LWPOLYLINE
  5
8E
100
AcDbEntity
  8
0
  6
ByLayer
 62
    0
370
   -1
100
AcDbPolyline
 90
    4
 70
    0
 43
0
 10
835.020060416
 20
-357.483359164
 10
839.1647357430001
 20
-361.732455409
 10
842.628822645
 20
-365.12388669
 10
845.176028378
 20
-367.426316259
  0
LWPOLYLINE
  5
8F
100
AcDbEntity
  8
0
  6
ByLayer
 62
    0
370
   -1
100
AcDbPolyline
 90
    2
 70
    0
 43
0
 10
846.8738970639999
 20
-368.509014155
 10
846.899098667
 20
-368.485929181
  0
LWPOLYLINE
  5
90
100
AcDbEntity
  8
0
  6
ByLayer
 62
    0
370
   -1
100
AcDbPolyline
 90
    2
 70
    0
 43
0
 10
846.899098667
 20
-368.485929181
 10
845.969118572
 20
-366.699834126
  0
LWPOLYLINE
  5
91
100
AcDbEntity
  8
0
  6
ByLayer
 62
    0
370
   -1
100
AcDbPolyline
 90
    3
 70
    0
 43
0
 10
969.370709249
 20
-343.296716506
 10
973.769346044
 20
-339.736065407
 10
974.866727918
 20
-336.237429423
  0
LWPOLYLINE
  5
92
100
AcDbEntity
  8
0
  6
ByLayer
 62
    0
370
   -1
100
AcDbPolyline
 90
    8
 70
    0
 43
0
 10
938.663282912
 20
-343.873565205
 10
940.078484894
 20
-345.979809571
 10
943.207516577
 20
-347.477583029
 10
947.729003145
 20
-348.213053111
 10
953.178554317
 20
-348.110681572
 10
958.996460677
 20
-347.180982729
 10
964.585179994
 20
-345.519443566
 10
969.370709249
 20
-343.296716506
  0
LWPOLYLINE
  5
93
100
AcDbEntity
  8
0
  6
ByLayer
 62
    0
370
   -1
100
AcDbPolyline
 90
    3
 70
    0
 43
0
 10
948.584448843
 20
-244.747626098
 10
952.983085638
 20
-241.186974999
 10
954.0804675110001
 20
-237.688339015
  0
LWPOLYLINE
  5
94
100
AcDbEntity
  8
0
  6
ByLayer
 62
    0
370
   -1
100
AcDbPolyline
 90
   10
 70
    0
 43
0
 10
954.0804675110001
 20
-237.688339015
 10
952.463765405
 20
-235.429371229
 10
948.858726545
 20
-233.903383633
 10
943.700171824
 20
-233.294432853
 10
937.610299073
 20
-233.675967339
 10
931.323636822
 20
-235.001968402
 10
925.598449321
 20
-237.112500744
 10
921.125278676
 20
-239.753003016
 10
918.443655285
 20
-242.604991675
 10
917.877022505
 20
-245.324474797
  0
LWPOLYLINE
  5
95
100
AcDbEntity
  8
0
  6
ByLayer
 62
    0
370
   -1
100
AcDbPolyline
 90
    8
 70
    0
 43
0
 10
917.877022505
 20
-245.324474797
 10
919.292224488
 20
-247.430719163
 10
922.42125617
 20
-248.928492621
 10
926.942742738
 20
-249.663962703
 10
932.39229391
 20
-249.561591164
 10
938.210200271
 20
-248.631892321
 10
943.798919588
 20
-246.970353158
 10
948.584448843
 20
-244.747626098
  0
LWPOLYLINE
  5
96
100
AcDbEntity
  8
0
  6
ByLayer
 62
    0
370
   -1
100
AcDbPolyline
 90
    8
 70
    0
 43
0
 10
947.494225808
 20
-244.467304438
 10
943.1225801640001
 20
-246.497795645
 10
938.017209545
 20
-248.015634123
 10
932.702473465
 20
-248.864926579
 10
927.724234826
 20
-248.958444364
 10
923.593795745
 20
-248.286582505
 10
920.735383019
 20
-246.918346211
 10
919.442576884
 20
-244.99426352
  0
LWPOLYLINE
  5
97
100
AcDbEntity
  8
0
  6
ByLayer
 62
    0
370
   -1
100
AcDbPolyline
 90
    9
 70
    0
 43
0
 10
919.442576884
 20
-244.99426352
 10
920.1646679850001
 20
-242.184472879
 10
923.294308958
 20
-239.271452839
 10
928.355040334
 20
-236.698684297
 10
934.576411639
 20
-234.85784794
 10
941.011275486
 20
-234.029194416
 10
946.679982189
 20
-234.338878713
 10
950.719522537
 20
-235.739754203
 10
952.5149131330001
 20
-238.018550292
  0
LWPOLYLINE
  5
98
100
AcDbEntity
  8
0
  6
ByLayer
 62
    0
370
   -1
100
AcDbPolyline
 90
    3
 70
    0
 43
0
 10
952.5149131330001
 20
-238.018550292
 10
951.512439962
 20
-241.214601542
 10
947.494225808
 20
-244.467304438
  0
LWPOLYLINE
  5
99
100
AcDbEntity
  8
0
  6
ByLayer
 62
    0
370
   -1
100
AcDbPolyline
 90
   12
 70
    0
 43
0
 10
1078.50093025
 20
-226.188878977
 10
1078.09047664
 20
-221.54350887
 10
1076.87787611
 20
-216.636510184
 10
1074.91855206
 20
-211.692163382
 10
1072.30205784
 20
-206.936455967
 10
1069.14798356
 20
-202.586753448
 10
1065.60049009
 20
-198.841864375
 10
1061.82172003
 20
-195.872953549
 10
1057.98438675
 20
-193.815718723
 10
1054.26388033
 20
-192.764188367
 10
1050.83025113
 20
-192.76642398
 10
1047.84043743
 20
-193.822323381
  0
LWPOLYLINE
  5
9A
100
AcDbEntity
  8
0
  6
ByLayer
 62
    0
370
   -1
100
AcDbPolyline
 90
    4
 70
    0
 43
0
 10
1073.24041079
 20
-237.816429273
 10
1076.09467445
 20
-235.169145388
 10
1077.88893974
 20
-231.203204352
 10
1078.50093025
 20
-226.188878977
  0
LWPOLYLINE
  5
9B
100
AcDbEntity
  8
0
  6
ByLayer
 62
    0
370
   -1
100
AcDbPolyline
 90
   12
 70
    0
 43
0
 10
817.578439316
 20
-376.832338702
 10
817.1679857079999
 20
-372.186968596
 10
815.9553851749999
 20
-367.27996991
 10
813.99606113
 20
-362.335623108
 10
811.379566908
 20
-357.579915693
 10
808.225492625
 20
-353.230213174
 10
804.677999157
 20
-349.485324101
 10
800.899229097
 20
-346.516413275
 10
797.061895817
 20
-344.459178449
 10
793.341389395
 20
-343.407648093
 10
789.907760194
 20
-343.409883706
 10
786.917946497
 20
-344.465783106
  0
LWPOLYLINE
  5
9C
100
AcDbEntity
  8
0
  6
ByLayer
 62
    0
370
   -1
100
AcDbPolyline
 90
   14
 70
    0
 43
0
 10
786.917946497
 20
-344.465783106
 10
784.24767497
 20
-346.859721513
 10
782.470666982
 20
-350.392921683
 10
781.690195777
 20
-354.860046864
 10
781.951619506
 20
-360.001483978
 10
783.23974517
 20
-365.518431389
 10
785.47971159
 20
-371.090264166
 10
788.541340057
 20
-376.393167641
 10
792.246699855
 20
-381.118956339
 10
796.38044894
 20
-384.9929846
 10
800.702348842
 20
-387.79010798
 10
804.961226446
 20
-389.347767838
 10
808.909571268
 20
-389.575438644
 10
812.317919858
 20
-388.459888998
  0
LWPOLYLINE
  5
9D
100
AcDbEntity
  8
0
  6
ByLayer
 62
    0
370
   -1
100
AcDbPolyline
 90
    4
 70
    0
 43
0
 10
812.317919858
 20
-388.459888998
 10
815.172183514
 20
-385.812605114
 10
816.966448811
 20
-381.846664077
 10
817.578439316
 20
-376.832338702
  0
LINE
  5
9E
100
AcDbEntity
  8
0
  6
ByLayer
 62
    0
370
   -1
100
AcDbLine
 10
13.0104589971
 20
-8.85948664148
 11
4.77240831839
 21
-4.10324604974
  0
LINE
  5
9F
100
AcDbEntity
  8
0
  6
ByLayer
 62
    0
370
   -1
100
AcDbLine
 10
475.732460601
 20
-91.6058047002
 11
130.184135129
 21
-291.107944456
  0
LINE
  5
A0
100
AcDbEntity
  8
0
  6
ByLayer
 62
    0
370
   -1
100
AcDbLine
 10
86.8235987769
 20
-316.142126785
 11
83.2880636694
 21
-318.183366076
  0
LINE
  5
A1
100
AcDbEntity
  8
0
  6
ByLayer
 62
    0
370
   -1
100
AcDbLine
 10
294.359512903
 20
-219.591547354
 11
294.359512903
 21
311.131420949
  0
LINE
  5
A2
100
AcDbEntity
  8
0
  6
ByLayer
 62
    0
370
   -1
100
AcDbLine
 10
676.048100393
 20
-616.201062905
 11
692.841197441
 21
-625.896561629
  0
LINE
  5
A3
100
AcDbEntity
  8
0
  6
ByLayer
 62
    0
370
   -1
100
AcDbLine
 10
475.732460601
 20
-91.6058047002
 11
850.308420062
 21
-307.867327307
  0
LINE
  5
A4
100
AcDbEntity
  8
0
  6
ByLayer
 62
    0
370
   -1
100
AcDbLine
 10
901.1084388100001
 20
-337.196730664
 11
1008.61459831
 21
-399.265438376
  0
LINE
  5
A5
100
AcDbEntity
  8
0
  6
ByLayer
 62
    0
370
   -1
100
AcDbLine
 10
1023.03807589
 20
-407.592836715
 11
1046.99645627
 21
-421.425213534
  0
LINE
  5
A6
100
AcDbEntity
  8
0
  6
ByLayer
 62
    0
370
   -1
100
AcDbLine
 10
1056.62762656
 20
-379.945279349
 11
1056.28027126
 21
-247.608356705
  0
LINE
  5
A7
100
AcDbEntity
  8
0
  6
ByLayer
 62
    0
370
   -1
100
AcDbLine
 10
656.180716467
 20
-611.143032272
 11
812.156390013
 21
-388.550805471
  0
LINE
  5
A8
100
AcDbEntity
  8
0
  6
ByLayer
 62
    0
370
   -1
100
AcDbLine
 10
969.370709249
 20
-343.296716506
 11
948.584448843
 21
-244.747626098
  0
LINE
  5
A9
100
AcDbEntity
  8
0
  6
ByLayer
 62
    0
370
   -1
100
AcDbLine
 10
1078.50093025
 20
-226.188878977
 11
817.578439316
 21
-376.832338702
  0
LINE
  5
AA
100
AcDbEntity
  8
0
  6
ByLayer
 62
    0
370
   -1
100
AcDbLine
 10
262.778041897
 20
-143.124594537
 11
25.82733535
 21
-6.32104565436
  0
LINE
  5
AB
100
AcDbEntity
  8
0
  6
ByLayer
 62
    0
370
   -1
100
AcDbLine
 10
230.478014517
 20
-183.134952539
 11
-24.720810824
 21
-35.7958477688
  0
LINE
  5
AC
100
AcDbEntity
  8
0
  6
ByLayer
 62
    0
370
   -1
100
AcDbLine
 10
78.027544212
 20
-329.810916372
 11
86.8236023525
 21
-324.732516938
  0
LINE
  5
AD
100
AcDbEntity
  8
0
  6
ByLayer
 62
    0
370
   -1
100
AcDbLine
 10
137.623638365
 20
-295.403143485
 11
475.732464177
 21
-100.196194854
  0
LINE
  5
AE
100
AcDbEntity
  8
0
  6
ByLayer
 62
    0
370
   -1
100
AcDbLine
 10
52.6275708505
 20
-285.81681048
 11
255.878071057
 21
-168.470243564
  0
LINE
  5
AF
100
AcDbEntity
  8
0
  6
ByLayer
 62
    0
370
   -1
100
AcDbLine
 10
299.778041897
 20
-143.124619025
 11
484.528539582
 21
-36.4590186092
  0
LINE
  5
B0
100
AcDbEntity
  8
0
  6
ByLayer
 62
    0
370
   -1
100
AcDbLine
 10
262.778041897
 20
318.684011461
 11
262.778041897
 21
-212.038956841
  0
LINE
  5
B1
100
AcDbEntity
  8
0
  6
ByLayer
 62
    0
370
   -1
100
AcDbLine
 10
299.778041897
 20
318.684011461
 11
299.778041897
 21
-212.038956841
  0
LINE
  5
B2
100
AcDbEntity
  8
0
  6
ByLayer
 62
    0
370
   -1
100
AcDbLine
 10
688.748112417
 20
-613.594994546
 11
677.546029073
 21
-607.1274689639999
  0
LINE
  5
B3
100
AcDbEntity
  8
0
  6
ByLayer
 62
    0
370
   -1
100
AcDbLine
 10
634.899930067
 20
-582.505733181
 11
112.223601609
 21
-280.738425997
  0
LINE
  5
B4
100
AcDbEntity
  8
0
  6
ByLayer
 62
    0
370
   -1
100
AcDbLine
 10
663.348113159
 20
-657.589085487
 11
86.8236023505
 21
-324.732516937
  0
LINE
  5
B5
100
AcDbEntity
  8
0
  6
ByLayer
 62
    0
370
   -1
100
AcDbLine
 10
1077.65697424
 20
-389.058672462
 11
1056.61990351
 21
-376.912914487
  0
LINE
  5
B6
100
AcDbEntity
  8
0
  6
ByLayer
 62
    0
370
   -1
100
AcDbLine
 10
1005.74262822
 20
-347.538907042
 11
973.299683707
 21
-328.807965026
  0
LINE
  5
B7
100
AcDbEntity
  8
0
  6
ByLayer
 62
    0
370
   -1
100
AcDbLine
 10
893.668956415
 20
-282.833144978
 11
501.132463433
 21
-56.2021039124
  0
LINE
  5
B8
100
AcDbEntity
  8
0
  6
ByLayer
 62
    0
370
   -1
100
AcDbLine
 10
1052.25697498
 20
-433.052763402
 11
893.66893915
 21
-341.491921789
  0
LINE
  5
B9
100
AcDbEntity
  8
0
  6
ByLayer
 62
    0
370
   -1
100
AcDbLine
 10
842.868920402
 20
-312.162518432
 11
475.732464175
 21
-100.196194853
  0
LINE
  5
BA
100
AcDbEntity
  8
0
  6
ByLayer
 62
    0
370
   -1
100
AcDbLine
 10
1005.55719903
 20
-276.893295161
 11
1005.84375892
 21
-386.068118927
  0
LINE
  5
BB
100
AcDbEntity
  8
0
  6
ByLayer
 62
    0
370
   -1
100
AcDbLine
 10
1056.28050714
 20
-247.608220518
 11
1056.62771666
 21
-379.889600183
  0
LINE
  5
BC
100
AcDbEntity
  8
0
  6
ByLayer
 62
    0
370
   -1
100
AcDbLine
 10
784.521236048
 20
-368.981797568
 11
629.1494982409999
 21
-590.71215022
  0
LINE
  5
BD
100
AcDbEntity
  8
0
  6
ByLayer
 62
    0
370
   -1
100
AcDbLine
 10
846.899098683
 20
-368.485929158
 11
679.063412193
 21
-608.003530483
  0
LINE
  5
BE
100
AcDbEntity
  8
0
  6
ByLayer
 62
    0
370
   -1
100
AcDbLine
 10
917.877022505
 20
-245.324474797
 11
938.663282912
 21
-343.873565205
  0
LINE
  5
BF
100
AcDbEntity
  8
0
  6
ByLayer
 62
    0
370
   -1
100
AcDbLine
 10
954.0804675110001
 20
-237.688339015
 11
974.866727918
 21
-336.237429423
  0
LINE
  5
C0
100
AcDbEntity
  8
0
  6
ByLayer
 62
    0
370
   -1
100
AcDbLine
 10
812.317919858
 20
-388.459888998
 11
836.232256084
 21
-374.652959848
  0
LINE
  5
C1
100
AcDbEntity
  8
0
  6
ByLayer
 62
    0
370
   -1
100
AcDbLine
 10
842.52295162
 20
-371.021030166
 11
846.8738970639999
 21
-368.509014155
  0
LINE
  5
C2
100
AcDbEntity
  8
0
  6
ByLayer
 62
    0
370
   -1
100
AcDbLine
 10
846.88905468
 20
-368.500262913
 11
933.331038954
 21
-318.593029811
  0
LINE
  5
C3
100
AcDbEntity
  8
0
  6
ByLayer
 62
    0
370
   -1
100
AcDbLine
 10
967.0401514180001
 20
-299.131091871
 11
1038.71687918
 21
-257.748571671
  0
LINE
  5
C4
100
AcDbEntity
  8
0
  6
ByLayer
 62
    0
370
   -1
100
AcDbLine
 10
1053.66454941
 20
-249.118542308
 11
1073.24041079
 21
-237.816429273
  0
LINE
  5
C5
100
AcDbEntity
  8
0
  6
ByLayer
 62
    0
370
   -1
100
AcDbLine
 10
786.917946497
 20
-344.465783106
 11
922.301675692
 21
-266.302059912
  0
LINE
  5
C6
100
AcDbEntity
  8
0
  6
ByLayer
 62
    0
370
   -1
100
AcDbLine
 10
956.010788156
 20
-246.840121971
 11
1047.84043743
 21
-193.822323381
  0
ENDBLK
  5
4F
330
4D
100
AcDbEntity
  8
0
100
AcDbBlockEnd
  0
ENDSEC
  0
SECTION
  2
ENTITIES
  0
LWPOLYLINE
  5
C7
100
AcDbEntity
  8
0
  6
ByLayer
 62
    7
370
   -1
100
AcDbPolyline
 90
    6
 70
    0
 43
0
 10
2.54303958341
 20
6.74632136032
 10
5.60887435527
 20
3.9947424931
 10
8.70489387476
 20
0.975521722893
 10
11.8093043942
 20
-1.93276900362
 10
14.9131621511
 20
-4.46213117921
 10
17.9604951966
 20
-6.42911082098
  0
LWPOLYLINE
  5
C8
100
AcDbEntity
  8
0
  6
ByLayer
 62
    7
370
   -1
100
AcDbPolyline
 90
    4
 70
    0
 43
0
 10
25.8273353494
 20
-6.32104565805
 10
22.886560198
 20
-5.63865699299
 10
18.703274123
 20
-6.20093762685
 10
14.1421345882
 20
-8.164960539479999
  0
LINE
  5
C9
100
AcDbEntity
  8
0
  6
ByLayer
 62
    7
370
   -1
100
AcDbLine
 10
14.1421308175
 20
-8.16496271648
 11
14.1421345882
 21
-8.164960539479999
  0
LINE
  5
CA
100
AcDbEntity
  8
0
  6
ByLayer
 62
    7
370
   -1
100
AcDbLine
 10
14.1421270421
 20
-8.16496489621
 11
14.1421308175
 21
-8.16496271648
  0
LWPOLYLINE
  5
CB
100
AcDbEntity
  8
0
  6
ByLayer
 62
    7
370
   -1
100
AcDbPolyline
 90
    7
 70
    0
 43
0
 10
14.1421270421
 20
-8.16496489621
 10
10.7700906964
 20
-10.4756636248
 10
7.41469821727
 20
-13.4642907235
 10
4.06545938362
 20
-16.9793131658
 10
0.711915313717
 20
-20.6794897893
 10
-2.67308109322
 20
-24.0679774207
 10
-6.10002706949
 20
-26.6158500356
  0
LWPOLYLINE
  5
CC
100
AcDbEntity
  8
0
  6
ByLayer
 62
    7
370
   -1
100
AcDbPolyline
 90
    8
 70
    0
 43
0
 10
-6.10002706949
 20
-26.6158500356
 10
-9.8865989758
 20
-28.0434788443
 10
-13.6913144188
 20
-27.9729407104
 10
-17.4500069814
 20
-26.5195805745
 10
-20.9948854963
 20
-23.8298559648
 10
-24.0080278753
 20
-20.0414780143
 10
-26.0316322128
 20
-15.3328247191
 10
-26.5846619731
 20
-10.0705414584
  0
LWPOLYLINE
  5
CD
100
AcDbEntity
  8
0
  6
ByLayer
 62
    7
370
   -1
100
AcDbPolyline
 90
    7
 70
    0
 43
0
 10
-26.5846619731
 20
-10.0705414584
 10
-28.6323164677
 20
-15.5037530907
 10
-29.7661206881
 20
-20.8431701075
 10
-29.9237005582
 20
-25.7950546674
 10
-29.0963871219
 20
-30.0869882875
 10
-27.3296934498
 20
-33.4828584272
 10
-24.720810824
 20
-35.7958477688
  0
LWPOLYLINE
  5
CE
100
AcDbEntity
  8
0
  6
ByLayer
 62
    7
370
   -1
100
AcDbPolyline
 90
    6
 70
    0
 43
0
 10
-1.75034645515
 20
-23.211027233
 10
0.490958904264
 20
-19.5092194106
 10
2.3164858133
 20
-15.6176488002
 10
3.66557021377
 20
-11.6656361282
 10
4.49338070157
 20
-7.78451067009
 10
4.77240831839
 20
-4.10324604974
  0
LWPOLYLINE
  5
CF
100
AcDbEntity
  8
0
  6
ByLayer
 62
    7
370
   -1
100
AcDbPolyline
 90
    4
 70
    0
 43
0
 10
4.77240831839
 20
-4.10324604974
 10
4.34753230209
 20
-0.0142578381128
 10
3.09440336228
 20
3.37722000842
 10
1.07643095197
 20
5.89957565621
  0
LINE
  5
D0
100
AcDbEntity
  8
0
  6
ByLayer
 62
    7
370
   -1
100
AcDbLine
 10
2.54303958341
 20
6.74632136032
 11
1.07643095197
 21
5.89957565621
  0
LWPOLYLINE
  5
D1
100
AcDbEntity
  8
0
  6
ByLayer
 62
    7
370
   -1
100
AcDbPolyline
 90
   11
 70
    0
 43
0
 10
514.75960965
 20
-64.0697401426
 10
513.5328269300001
 20
-59.1707322706
 10
511.564237616
 20
-54.2392090492
 10
508.943407802
 20
-49.499542963
 10
505.789578961
 20
-45.1673774565
 10
502.246242745
 20
-41.439815675
 10
498.474612459
 20
-38.4864527436
 10
494.646288238
 20
-36.4416595957
 10
490.935449656
 20
-35.3984694176
 10
487.510930974
 20
-35.4043448616
 10
484.528539582
 20
-36.4590186092
  0
LWPOLYLINE
  5
D2
100
AcDbEntity
  8
0
  6
ByLayer
 62
    7
370
   -1
100
AcDbPolyline
 90
   12
 70
    0
 43
0
 10
83.2880636694
 20
-318.183366076
 10
82.87761006149999
 20
-313.53799597
 10
81.665009529
 20
-308.630997284
 10
79.70568548369999
 20
-303.686650481
 10
77.089191262
 20
-298.930943067
 10
73.93511697850001
 20
-294.581240548
 10
70.38762351130001
 20
-290.836351475
 10
66.6088534507
 20
-287.867440649
 10
62.7715201705
 20
-285.810205823
 10
59.051013749
 20
-284.758675467
 10
55.6173845482
 20
-284.76091108
 10
52.6275708505
 20
-285.81681048
  0
LWPOLYLINE
  5
D3
100
AcDbEntity
  8
0
  6
ByLayer
 62
    7
370
   -1
100
AcDbPolyline
 90
   14
 70
    0
 43
0
 10
52.6275708505
 20
-285.81681048
 10
49.957299324
 20
-288.210748887
 10
48.180291336
 20
-291.743949057
 10
47.3998201314
 20
-296.211074238
 10
47.6612438598
 20
-301.352511352
 10
48.9493695244
 20
-306.869458763
 10
51.1893359436
 20
-312.44129154
 10
54.2509644112
 20
-317.744195015
 10
57.9563242091
 20
-322.469983713
 10
62.0900732944
 20
-326.344011974
 10
66.4119731957
 20
-329.141135354
 10
70.6708508003
 20
-330.698795212
 10
74.6191956222
 20
-330.926466018
 10
78.027544212
 20
-329.810916372
  0
LWPOLYLINE
  5
D4
100
AcDbEntity
  8
0
  6
ByLayer
 62
    7
370
   -1
100
AcDbPolyline
 90
    4
 70
    0
 43
0
 10
78.027544212
 20
-329.810916372
 10
80.8818078676
 20
-327.163632487
 10
82.6760731649
 20
-323.197691451
 10
83.2880636694
 20
-318.183366076
  0
LWPOLYLINE
  5
D5
100
AcDbEntity
  8
0
  6
ByLayer
 62
    7
370
   -1
100
AcDbPolyline
 90
    3
 70
    0
 43
0
 10
294.359512903
 20
-219.591547354
 10
298.369812045
 20
-216.126389661
 10
299.778041897
 20
-212.038956841
  0
LWPOLYLINE
  5
D6
100
AcDbEntity
  8
0
  6
ByLayer
 62
    7
370
   -1
100
AcDbPolyline
 90
    7
 70
    0
 43
0
 10
268.570152869
 20
-219.801243804
 10
272.406598621
 20
-221.411738631
 10
276.826250278
 20
-222.406069714
 10
281.538561324
 20
-222.71887004
 10
286.233745904
 20
-222.329576213
 10
290.603144053
 20
-221.263780288
 10
294.359512903
 20
-219.591547354
  0
LWPOLYLINE
  5
D7
100
AcDbEntity
  8
0
  6
ByLayer
 62
    7
370
   -1
100
AcDbPolyline
 90
    3
 70
    0
 43
0
 10
294.359512903
 20
311.131420949
 10
298.369812045
 20
314.596578642
 10
299.778041897
 20
318.684011461
  0
LWPOLYLINE
  5
D8
100
AcDbEntity
  8
0
  6
ByLayer
 62
    7
370
   -1
100
AcDbPolyline
 90
   11
 70
    0
 43
0
 10
299.778041897
 20
318.684011461
 10
298.872587448
 20
321.98461342
 10
296.244856293
 20
324.962129462
 10
292.152069064
 20
327.325099572
 10
286.994856293
 20
328.842219772
 10
281.278041897
 20
329.364983765
 10
275.561227501
 20
328.842219772
 10
270.40401473
 20
327.325099572
 10
266.311227501
 20
324.962129462
 10
263.683496346
 20
321.98461342
 10
262.778041897
 20
318.684011461
  0
LWPOLYLINE
  5
D9
100
AcDbEntity
  8
0
  6
ByLayer
 62
    7
370
   -1
100
AcDbPolyline
 90
    9
 70
    0
 43
0
 10
262.778041897
 20
318.684011461
 10
263.574645458
 20
315.583489297
 10
265.895853196
 20
312.749981944
 10
269.541764317
 20
310.427509082
 10
274.198395494
 20
308.816080457
 10
279.46472089
 20
308.054471181
 10
284.887208229
 20
308.208270514
 10
289.998876676
 20
309.264233365
 10
294.359512903
 20
311.131420949
  0
LWPOLYLINE
  5
DA
100
AcDbEntity
  8
0
  6
ByLayer
 62
    7
370
   -1
100
AcDbPolyline
 90
    7
 70
    0
 43
0
 10
86.8236070839
 20
-274.664107925
 10
91.5105230822
 20
-274.848717247
 10
96.1174743039
 20
-275.377789855
 10
100.569984003
 20
-276.242772671
 10
104.777766619
 20
-277.448867865
 10
108.683351938
 20
-278.955538001
 10
112.223601611
 20
-280.738425998
  0
LWPOLYLINE
  5
DB
100
AcDbEntity
  8
0
  6
ByLayer
 62
    7
370
   -1
100
AcDbPolyline
 90
   10
 70
    0
 43
0
 10
86.8235987769
 20
-316.142126785
 10
86.82359898110001
 20
-312.199468649
 10
86.82359952020001
 20
-307.791030334
 10
86.8236004274
 20
-302.983010318
 10
86.823601643
 20
-297.957219155
 10
86.82360314650001
 20
-292.84900893
 10
86.8236048892
 20
-287.823218656
 10
86.8236068123
 20
-283.015200353
 10
86.8236088681
 20
-278.606764597
 10
86.8236109848
 20
-274.664109688
  0
LWPOLYLINE
  5
DC
100
AcDbEntity
  8
0
  6
ByLayer
 62
    7
370
   -1
100
AcDbPolyline
 90
    3
 70
    0
 43
0
 10
86.8236023525
 20
-324.732516938
 10
86.8235997062
 20
-322.499946204
 10
86.8235987769
 20
-316.142126785
  0
LWPOLYLINE
  5
DD
100
AcDbEntity
  8
0
  6
ByLayer
 62
    7
370
   -1
100
AcDbPolyline
 90
    4
 70
    0
 43
0
 10
694.008631134
 20
-625.222544415
 10
693.39664074
 20
-620.208220765
 10
691.6023757310001
 20
-616.242279954
 10
688.748112417
 20
-613.594994546
  0
LWPOLYLINE
  5
DE
100
AcDbEntity
  8
0
  6
ByLayer
 62
    7
370
   -1
100
AcDbPolyline
 90
   14
 70
    0
 43
0
 10
688.748112417
 20
-613.594994546
 10
685.339762418
 20
-612.479441701
 10
681.3914155160001
 20
-612.707109059
 10
677.132535282
 20
-614.264765422
 10
672.8106323539999
 20
-617.061885462
 10
668.676880021
 20
-620.93591073
 10
664.971516944
 20
-625.66169696
 10
661.909885355
 20
-630.964598633
 10
659.669916154
 20
-636.536430379
 10
658.381788209
 20
-642.05337759
 10
658.120362834
 20
-647.194815347
 10
658.900833121
 20
-651.661941976
 10
660.677840975
 20
-655.195144315
 10
663.348113159
 20
-657.589085487
  0
LWPOLYLINE
  5
DF
100
AcDbEntity
  8
0
  6
ByLayer
 62
    7
370
   -1
100
AcDbPolyline
 90
   12
 70
    0
 43
0
 10
663.348113159
 20
-657.589085487
 10
666.337928536
 20
-658.644987784
 10
669.77156006
 20
-658.647226199
 10
673.492069296
 20
-657.595698424
 10
677.329405704
 20
-655.538465853
 10
681.108179013
 20
-652.569556881
 10
684.65567565
 20
-648.824669214
 10
687.809752835
 20
-644.474967638
 10
690.426249515
 20
-639.719260718
 10
692.385575429
 20
-634.7749140019999
 10
693.598177129
 20
-629.867915054
 10
694.008631134
 20
-625.222544415
  0
LWPOLYLINE
  5
E0
100
AcDbEntity
  8
0
  6
ByLayer
 62
    7
370
   -1
100
AcDbPolyline
 90
   10
 70
    0
 43
0
 10
475.732472809
 20
-50.1277835888
 10
475.732470692
 20
-54.0704383916
 10
475.732468637
 20
-58.4788742713
 10
475.732466714
 20
-63.2868929235
 10
475.732464971
 20
-68.31268370719999
 10
475.732463467
 20
-73.420894559
 10
475.732462252
 20
-78.4466864052
 10
475.732461345
 20
-83.2547071052
 10
475.732460805
 20
-87.6631460423
 10
475.732460601
 20
-91.6058047002
  0
LWPOLYLINE
  5
E1
100
AcDbEntity
  8
0
  6
ByLayer
 62
    7
370
   -1
100
AcDbPolyline
 90
    7
 70
    0
 43
0
 10
501.132463435
 20
-56.2021039136
 10
497.592214685
 20
-54.4192163213
 10
493.686630453
 20
-52.9125464464
 10
489.478849039
 20
-51.7064513549
 10
485.026340606
 20
-50.8414684594
 10
480.41939065
 20
-50.312395596
 10
475.732475861
 20
-50.127785841
  0
LWPOLYLINE
  5
E2
100
AcDbEntity
  8
0
  6
ByLayer
 62
    7
370
   -1
100
AcDbPolyline
 90
    3
 70
    0
 43
0
 10
475.732460601
 20
-91.6058047002
 10
475.732461531
 20
-97.9636241191
 10
475.732464177
 20
-100.196194854
  0
LWPOLYLINE
  5
E3
100
AcDbEntity
  8
0
  6
ByLayer
 62
    7
370
   -1
100
AcDbPolyline
 90
   12
 70
    0
 43
0
 10
1046.99645627
 20
-421.425213534
 10
1047.40691027
 20
-416.779842894
 10
1048.61951197
 20
-411.872843946
 10
1050.57883788
 20
-406.92849723
 10
1053.19533456
 20
-402.17279031
 10
1056.34941175
 20
-397.823088734
 10
1059.89690839
 20
-394.078201067
 10
1063.6756817
 20
-391.109292095
 10
1067.5130181
 20
-389.052059524
 10
1071.23352734
 20
-388.000531749
 10
1074.66715886
 20
-388.002770165
 10
1077.65697424
 20
-389.058672462
  0
LWPOLYLINE
  5
E4
100
AcDbEntity
  8
0
  6
ByLayer
 62
    7
370
   -1
100
AcDbPolyline
 90
   14
 70
    0
 43
0
 10
1077.65697424
 20
-389.058672462
 10
1080.32724642
 20
-391.452613633
 10
1082.10425428
 20
-394.985815972
 10
1082.88472457
 20
-399.452942601
 10
1082.62329919
 20
-404.594380359
 10
1081.33517125
 20
-410.111327569
 10
1079.09520205
 20
-415.683159315
 10
1076.03357046
 20
-420.986060988
 10
1072.32820738
 20
-425.711847218
 10
1068.19445505
 20
-429.585872486
 10
1063.87255212
 20
-432.382992526
 10
1059.61367188
 20
-433.940648889
 10
1055.66532498
 20
-434.168316247
 10
1052.25697498
 20
-433.052763402
  0
LWPOLYLINE
  5
E5
100
AcDbEntity
  8
0
  6
ByLayer
 62
    7
370
   -1
100
AcDbPolyline
 90
    4
 70
    0
 43
0
 10
1052.25697498
 20
-433.052763402
 10
1049.40271167
 20
-430.405477994
 10
1047.60844666
 20
-426.439537183
 10
1046.99645627
 20
-421.425213534
  0
LWPOLYLINE
  5
E6
100
AcDbEntity
  8
0
  6
ByLayer
 62
    7
370
   -1
100
AcDbPolyline
 90
    2
 70
    0
 43
0
 10
1056.62762656
 20
-379.945279349
 10
1056.62771666
 20
-379.889600183
  0
LWPOLYLINE
  5
E7
100
AcDbEntity
  8
0
  6
ByLayer
 62
    7
370
   -1
100
AcDbPolyline
 90
    4
 70
    0
 43
0
 10
1005.84375892
 20
-386.068118926
 10
1006.16746895
 20
-390.476021059
 10
1007.09852173
 20
-394.910541498
 10
1008.61462393
 20
-399.265499197
  0
LWPOLYLINE
  5
E8
100
AcDbEntity
  8
0
  6
ByLayer
 62
    7
370
   -1
100
AcDbPolyline
 90
    4
 70
    0
 43
0
 10
1008.61462393
 20
-399.265499197
 10
1010.28198792
 20
-402.71297924
 10
1012.29336253
 20
-405.977814522
 10
1014.61610702
 20
-409.007023086
  0
LWPOLYLINE
  5
E9
100
AcDbEntity
  8
0
  6
ByLayer
 62
    7
370
   -1
100
AcDbPolyline
 90
    3
 70
    0
 43
0
 10
1014.6161066
 20
-409.007022857
 10
1018.59248052
 20
-408.61507501
 10
1023.03802262
 20
-407.592851991
  0
LWPOLYLINE
  5
EA
100
AcDbEntity
  8
0
  6
ByLayer
 62
    7
370
   -1
100
AcDbPolyline
 90
   11
 70
    0
 43
0
 10
1023.03802262
 20
-407.592851991
 10
1027.72047359
 20
-405.975863304
 10
1032.5147623
 20
-403.886080062
 10
1037.26307816
 20
-401.346257687
 10
1041.79140982
 20
-398.449472969
 10
1045.97649528
 20
-395.323313126
 10
1049.56946967
 20
-392.047358938
 10
1052.55427491
 20
-388.760087469
 10
1054.75908324
 20
-385.576799597
 10
1056.10309513
 20
-382.614153171
 10
1056.62762656
 20
-379.945279349
  0
LWPOLYLINE
  5
EB
100
AcDbEntity
  8
0
  6
ByLayer
 62
    7
370
   -1
100
AcDbPolyline
 90
    3
 70
    0
 43
0
 10
1047.49467718
 20
-250.349191303
 10
1050.99221764
 20
-250.072643173
 10
1053.6807113
 20
-249.109241778
  0
LWPOLYLINE
  5
EC
100
AcDbEntity
  8
0
  6
ByLayer
 62
    7
370
   -1
100
AcDbPolyline
 90
    2
 70
    0
 43
0
 10
1053.6807113
 20
-249.109241778
 10
1053.696828
 20
-249.099906282
  0
LWPOLYLINE
  5
ED
100
AcDbEntity
  8
0
  6
ByLayer
 62
    7
370
   -1
100
AcDbPolyline
 90
    2
 70
    0
 43
0
 10
1038.65208752
 20
-257.785979101
 10
1038.68448494
 20
-257.767300872
  0
LWPOLYLINE
  5
EE
100
AcDbEntity
  8
0
  6
ByLayer
 62
    7
370
   -1
100
AcDbPolyline
 90
    4
 70
    0
 43
0
 10
1038.68448494
 20
-257.767300872
 10
1041.83436563
 20
-255.683886295
 10
1044.78842025
 20
-253.196595945
 10
1047.49467892
 20
-250.349188047
  0
LWPOLYLINE
  5
EF
100
AcDbEntity
  8
0
  6
ByLayer
 62
    7
370
   -1
100
AcDbPolyline
 90
    8
 70
    0
 43
0
 10
656.180716467
 20
-611.143032272
 10
651.925667915
 20
-612.0005757919999
 10
647.526838408
 20
-612.920212554
 10
643.050273992
 20
-613.888134711
 10
638.563187864
 20
-614.889809433
 10
634.132951196
 20
-615.9101971170001
 10
629.826081597
 20
-616.933977192
 10
625.707244388
 20
-617.945778155
  0
LWPOLYLINE
  5
F0
100
AcDbEntity
  8
0
  6
ByLayer
 62
    7
370
   -1
100
AcDbPolyline
 90
    7
 70
    0
 43
0
 10
625.707244388
 20
-617.945778155
 10
624.978951135
 20
-612.633046888
 10
624.772982802
 20
-607.428435184
 10
625.0953094
 20
-602.482799186
 10
625.96814997
 20
-597.9727879880001
 10
627.332730412
 20
-594.0109603560001
 10
629.149498238
 20
-590.712150225
  0
LWPOLYLINE
  5
F1
100
AcDbEntity
  8
0
  6
ByLayer
 62
    7
370
   -1
100
AcDbPolyline
 90
    2
 70
    0
 43
0
 10
678.960341728
 20
-608.1506219090001
 10
678.907866197
 20
-607.913725963
  0
LWPOLYLINE
  5
F2
100
AcDbEntity
  8
0
  6
ByLayer
 62
    7
370
   -1
100
AcDbPolyline
 90
    6
 70
    0
 43
0
 10
678.907866197
 20
-607.913725963
 10
677.411727905
 20
-607.787301346
 10
674.197751906
 20
-608.070310735
 10
669.4228784540001
 20
-608.748773681
 10
663.318736552
 20
-609.789777962
 10
656.180716467
 20
-611.143032272
  0
LWPOLYLINE
  5
F3
100
AcDbEntity
  8
0
  6
ByLayer
 62
    7
370
   -1
100
AcDbPolyline
 90
    5
 70
    0
 43
0
 10
845.969117676
 20
-366.699836892
 10
842.610192332
 20
-369.648541661
 10
839.120210767
 20
-372.396802811
 10
835.5295688800001
 20
-374.908086228
 10
831.877674909
 20
-377.167074946
  0
LWPOLYLINE
  5
F4
100
AcDbEntity
  8
0
  6
ByLayer
 62
    7
370
   -1
100
AcDbPolyline
 90
    2
 70
    0
 43
0
 10
846.8738970639999
 20
-368.509014155
 10
846.899098667
 20
-368.485929181
  0
LWPOLYLINE
  5
F5
100
AcDbEntity
  8
0
  6
ByLayer
 62
    7
370
   -1
100
AcDbPolyline
 90
    3
 70
    0
 43
0
 10
969.370709249
 20
-343.296716506
 10
973.769346044
 20
-339.736065407
 10
974.866727918
 20
-336.237429423
  0
LWPOLYLINE
  5
F6
100
AcDbEntity
  8
0
  6
ByLayer
 62
    7
370
   -1
100
AcDbPolyline
 90
    8
 70
    0
 43
0
 10
938.663282912
 20
-343.873565205
 10
940.078484894
 20
-345.979809571
 10
943.207516577
 20
-347.477583029
 10
947.729003145
 20
-348.213053111
 10
953.178554317
 20
-348.110681572
 10
958.996460677
 20
-347.180982729
 10
964.585179994
 20
-345.519443566
 10
969.370709249
 20
-343.296716506
  0
LWPOLYLINE
  5
F7
100
AcDbEntity
  8
0
  6
ByLayer
 62
    7
370
   -1
100
AcDbPolyline
 90
    3
 70
    0
 43
0
 10
948.584448843
 20
-244.747626098
 10
952.983085638
 20
-241.186974999
 10
954.0804675110001
 20
-237.688339015
  0
LWPOLYLINE
  5
F8
100
AcDbEntity
  8
0
  6
ByLayer
 62
    7
370
   -1
100
AcDbPolyline
 90
   10
 70
    0
 43
0
 10
954.0804675110001
 20
-237.688339015
 10
952.463765405
 20
-235.429371229
 10
948.858726545
 20
-233.903383633
 10
943.700171824
 20
-233.294432853
 10
937.610299073
 20
-233.675967339
 10
931.323636822
 20
-235.001968402
 10
925.598449321
 20
-237.112500744
 10
921.125278676
 20
-239.753003016
 10
918.443655285
 20
-242.604991675
 10
917.877022505
 20
-245.324474797
  0
LWPOLYLINE
  5
F9
100
AcDbEntity
  8
0
  6
ByLayer
 62
    7
370
   -1
100
AcDbPolyline
 90
    8
 70
    0
 43
0
 10
917.877022505
 20
-245.324474797
 10
919.292224488
 20
-247.430719163
 10
922.42125617
 20
-248.928492621
 10
926.942742738
 20
-249.663962703
 10
932.39229391
 20
-249.561591164
 10
938.210200271
 20
-248.631892321
 10
943.798919588
 20
-246.970353158
 10
948.584448843
 20
-244.747626098
  0
LWPOLYLINE
  5
FA
100
AcDbEntity
  8
0
  6
ByLayer
 62
    7
370
   -1
100
AcDbPolyline
 90
   12
 70
    0
 43
0
 10
1078.50093025
 20
-226.188878977
 10
1078.09047664
 20
-221.54350887
 10
1076.87787611
 20
-216.636510184
 10
1074.91855206
 20
-211.692163382
 10
1072.30205784
 20
-206.936455967
 10
1069.14798356
 20
-202.586753448
 10
1065.60049009
 20
-198.841864375
 10
1061.82172003
 20
-195.872953549
 10
1057.98438675
 20
-193.815718723
 10
1054.26388033
 20
-192.764188367
 10
1050.83025113
 20
-192.76642398
 10
1047.84043743
 20
-193.822323381
  0
LWPOLYLINE
  5
FB
100
AcDbEntity
  8
0
  6
ByLayer
 62
    7
370
   -1
100
AcDbPolyline
 90
    4
 70
    0
 43
0
 10
1073.24041079
 20
-237.816429273
 10
1076.09467445
 20
-235.169145388
 10
1077.88893974
 20
-231.203204352
 10
1078.50093025
 20
-226.188878977
  0
LWPOLYLINE
  5
FC
100
AcDbEntity
  8
0
  6
ByLayer
 62
    7
370
   -1
100
AcDbPolyline
 90
   12
 70
    0
 43
0
 10
817.578439316
 20
-376.832338702
 10
817.1679857079999
 20
-372.186968596
 10
815.9553851749999
 20
-367.27996991
 10
813.99606113
 20
-362.335623108
 10
811.379566908
 20
-357.579915693
 10
808.225492625
 20
-353.230213174
 10
804.677999157
 20
-349.485324101
 10
800.899229097
 20
-346.516413275
 10
797.061895817
 20
-344.459178449
 10
793.341389395
 20
-343.407648093
 10
789.907760194
 20
-343.409883706
 10
786.917946497
 20
-344.465783106
  0
LWPOLYLINE
  5
FD
100
AcDbEntity
  8
0
  6
ByLayer
 62
    7
370
   -1
100
AcDbPolyline
 90
   14
 70
    0
 43
0
 10
786.917946497
 20
-344.465783106
 10
784.24767497
 20
-346.859721513
 10
782.470666982
 20
-350.392921683
 10
781.690195777
 20
-354.860046864
 10
781.951619506
 20
-360.001483978
 10
783.23974517
 20
-365.518431389
 10
785.47971159
 20
-371.090264166
 10
788.541340057
 20
-376.393167641
 10
792.246699855
 20
-381.118956339
 10
796.38044894
 20
-384.9929846
 10
800.702348842
 20
-387.79010798
 10
804.961226446
 20
-389.347767838
 10
808.909571268
 20
-389.575438644
 10
812.317919858
 20
-388.459888998
  0
LWPOLYLINE
  5
FE
100
AcDbEntity
  8
0
  6
ByLayer
 62
    7
370
   -1
100
AcDbPolyline
 90
    4
 70
    0
 43
0
 10
812.317919858
 20
-388.459888998
 10
815.172183514
 20
-385.812605114
 10
816.966448811
 20
-381.846664077
 10
817.578439316
 20
-376.832338702
  0
LINE
  5
FF
100
AcDbEntity
  8
0
  6
ByLayer
 62
    7
370
   -1
100
AcDbLine
 10
1056.62762656
 20
-379.945279349
 11
1056.28027126
 21
-247.608356705
  0
LINE
  5
100
100
AcDbEntity
  8
0
  6
ByLayer
 62
    7
370
   -1
100
AcDbLine
 10
262.778041897
 20
-143.124594537
 11
25.82733535
 21
-6.32104565436
  0
LINE
  5
101
100
AcDbEntity
  8
0
  6
ByLayer
 62
    7
370
   -1
100
AcDbLine
 10
230.478014517
 20
-183.134952539
 11
-24.720810824
 21
-35.7958477688
  0
LINE
  5
102
100
AcDbEntity
  8
0
  6
ByLayer
 62
    7
370
   -1
100
AcDbLine
 10
78.027544212
 20
-329.810916372
 11
86.8236023525
 21
-324.732516938
  0
LINE
  5
103
100
AcDbEntity
  8
0
  6
ByLayer
 62
    7
370
   -1
100
AcDbLine
 10
137.623638365
 20
-295.403143485
 11
475.732464177
 21
-100.196194854
  0
LINE
  5
104
100
AcDbEntity
  8
0
  6
ByLayer
 62
    7
370
   -1
100
AcDbLine
 10
299.778041897
 20
-143.124619025
 11
484.528539582
 21
-36.4590186092
  0
LINE
  5
105
100
AcDbEntity
  8
0
  6
ByLayer
 62
    7
370
   -1
100
AcDbLine
 10
688.748112417
 20
-613.594994546
 11
677.546029073
 21
-607.1274689639999
  0
LINE
  5
106
100
AcDbEntity
  8
0
  6
ByLayer
 62
    7
370
   -1
100
AcDbLine
 10
634.899930067
 20
-582.505733181
 11
112.223601609
 21
-280.738425997
  0
LINE
  5
107
100
AcDbEntity
  8
0
  6
ByLayer
 62
    7
370
   -1
100
AcDbLine
 10
663.348113159
 20
-657.589085487
 11
86.8236023505
 21
-324.732516937
  0
LINE
  5
108
100
AcDbEntity
  8
0
  6
ByLayer
 62
    7
370
   -1
100
AcDbLine
 10
1077.65697424
 20
-389.058672462
 11
1056.61990351
 21
-376.912914487
  0
LINE
  5
109
100
AcDbEntity
  8
0
  6
ByLayer
 62
    7
370
   -1
100
AcDbLine
 10
1005.74262822
 20
-347.538907042
 11
973.299683707
 21
-328.807965026
  0
LINE
  5
10A
100
AcDbEntity
  8
0
  6
ByLayer
 62
    7
370
   -1
100
AcDbLine
 10
893.668956415
 20
-282.833144978
 11
501.132463433
 21
-56.2021039124
  0
LINE
  5
10B
100
AcDbEntity
  8
0
  6
ByLayer
 62
    7
370
   -1
100
AcDbLine
 10
1052.25697498
 20
-433.052763402
 11
893.66893915
 21
-341.491921789
  0
LINE
  5
10C
100
AcDbEntity
  8
0
  6
ByLayer
 62
    7
370
   -1
100
AcDbLine
 10
842.868920402
 20
-312.162518432
 11
475.732464175
 21
-100.196194853
  0
LINE
  5
10D
100
AcDbEntity
  8
0
  6
ByLayer
 62
    7
370
   -1
100
AcDbLine
 10
1005.55719903
 20
-276.893295161
 11
1005.84375892
 21
-386.068118927
  0
LINE
  5
10E
100
AcDbEntity
  8
0
  6
ByLayer
 62
    7
370
   -1
100
AcDbLine
 10
1056.28050714
 20
-247.608220518
 11
1056.62771666
 21
-379.889600183
  0
LINE
  5
10F
100
AcDbEntity
  8
0
  6
ByLayer
 62
    7
370
   -1
100
AcDbLine
 10
784.521236048
 20
-368.981797568
 11
629.1494982409999
 21
-590.71215022
  0
LINE
  5
110
100
AcDbEntity
  8
0
  6
ByLayer
 62
    7
370
   -1
100
AcDbLine
 10
846.899098683
 20
-368.485929158
 11
679.063412193
 21
-608.003530483
  0
LINE
  5
111
100
AcDbEntity
  8
0
  6
ByLayer
 62
    7
370
   -1
100
AcDbLine
 10
917.877022505
 20
-245.324474797
 11
938.663282912
 21
-343.873565205
  0
LINE
  5
112
100
AcDbEntity
  8
0
  6
ByLayer
 62
    7
370
   -1
100
AcDbLine
 10
954.0804675110001
 20
-237.688339015
 11
974.866727918
 21
-336.237429423
  0
LINE
  5
113
100
AcDbEntity
  8
0
  6
ByLayer
 62
    7
370
   -1
100
AcDbLine
 10
812.317919858
 20
-388.459888998
 11
836.232256084
 21
-374.652959848
  0
LINE
  5
114
100
AcDbEntity
  8
0
  6
ByLayer
 62
    7
370
   -1
100
AcDbLine
 10
846.88905468
 20
-368.500262913
 11
933.331038954
 21
-318.593029811
  0
LINE
  5
115
100
AcDbEntity
  8
0
  6
ByLayer
 62
    7
370
   -1
100
AcDbLine
 10
967.0401514180001
 20
-299.131091871
 11
1038.71687918
 21
-257.748571671
  0
LINE
  5
116
100
AcDbEntity
  8
0
  6
ByLayer
 62
    7
370
   -1
100
AcDbLine
 10
1053.66454941
 20
-249.118542308
 11
1073.24041079
 21
-237.816429273
  0
LINE
  5
117
100
AcDbEntity
  8
0
  6
ByLayer
 62
    7
370
   -1
100
AcDbLine
 10
786.917946497
 20
-344.465783106
 11
922.301675692
 21
-266.302059912
  0
LINE
  5
118
100
AcDbEntity
  8
0
  6
ByLayer
 62
    7
370
   -1
100
AcDbLine
 10
956.010788156
 20
-246.840121971
 11
1047.84043743
 21
-193.822323381
  0
LINE
  5
119
100
AcDbEntity
  8
0
  6
ByLayer
 62
    7
370
   -1
100
AcDbLine
 10
52.6275708505
 20
-285.81681048
 11
263.6723024158137
 21
-163.9702482834149
  0
LINE
  5
11A
100
AcDbEntity
  8
0
  6
ByLayer
 62
    7
370
   -1
100
AcDbLine
 10
262.778041897
 20
318.684011461
 11
262.778041897
 21
-164.4865491127102
  0
SPLINE
  5
11B
100
AcDbEntity
  8
0
  6
ByLayer
 62
  256
370
   -1
100
AcDbSpline
210
0
220
0
230
0
 70
    8
 71
    2
 72
    7
 73
    4
 74
    0
 42
1e-07
 43
1e-07
 40
0
 40
0
 40
0
 40
0.5
 40
1
 40
1
 40
1
 10
262.7660991692946
 20
-164.4800675676252
 30
0
 10
270.3360000000175
 20
-168.1920000000109
 30
0
 10
293.1200000000189
 20
-171.6480000000111
 30
0
 10
300.0320000000188
 20
-163.4560000000102
 30
0
  0
LINE
  5
11C
100
AcDbEntity
  8
0
  6
ByLayer
 62
    7
370
   -1
100
AcDbLine
 10
299.778041897
 20
318.684011461
 11
299.778041897
 21
-163.7456281600113
  0
LINE
  5
11D
100
AcDbEntity
  8
0
  6
ByLayer
 62
  256
370
   -1
100
AcDbLine
 10
299.778041897
 20
-212.038956841
 11
299.778041897
 21
-201.7833858683736
  0
ENDSEC
  0
SECTION
  2
OBJECTS
  0
DICTIONARY
  5
C
330
0
100
AcDbDictionary
281
    1
  3
ACAD_GROUP
350
D
  0
DICTIONARY
  5
D
330
C
100
AcDbDictionary
281
    1
  0
ENDSEC
  0
EOF
