  0
SECTION
  2
HEADER
  9
$ACADVER
  1
AC1014
  9
$HANDSEED
  5
FFFF
  9
$MEASUREMENT
 70
     1
  0
ENDSEC
  0
SECTION
  2
TABLES
  0
TABLE
  2
VPORT
  5
8
330
0
100
AcDbSymbolTable
 70
     4
  0
VPORT
  5
2E
330
8
100
AcDbSymbolTableRecord
100
AcDbViewportTableRecord
  2
*ACTIVE
 70
     0
 10
0.0
 20
0.0
 11
1.0
 21
1.0
 12
210.0
 22
148.5
 13
0.0
 23
0.0
 14
10.0
 24
10.0
 15
10.0
 25
10.0
 16
0.0
 26
0.0
 36
1.0
 17
0.0
 27
0.0
 37
0.0
 40
341.0
 41
1.24
 42
50.0
 43
0.0
 44
0.0
 50
0.0
 51
0.0
 71
     0
 72
   100
 73
     1
 74
     3
 75
     0
 76
     0
 77
     0
 78
     0
  0
ENDTAB
  0
TABLE
  2
LTYPE
  5
5
330
0
100
AcDbSymbolTable
 70
     1
  0
LTYPE
  5
14
330
5
100
AcDbSymbolTableRecord
100
AcDbLinetypeTableRecord
  2
BYBLOCK
 70
     0
  3

 72
    65
 73
     0
 40
0.0
  0
LTYPE
  5
15
330
5
100
AcDbSymbolTableRecord
100
AcDbLinetypeTableRecord
  2
BYLAYER
 70
     0
  3

 72
    65
 73
     0
 40
0.0
  0
LTYPE
  5
16
330
5
100
AcDbSymbolTableRecord
100
AcDbLinetypeTableRecord
  2
CONTINUOUS
 70
     0
  3
Solid line
 72
    65
 73
     0
 40
0.0
  0
ENDTAB
  0
TABLE
  2
LAYER
  5
2
100
AcDbSymbolTable
 70
1
  0
LAYER
  5
50
100
AcDbSymbolTableRecord
100
AcDbLayerTableRecord
  2
0
 70
0
  6
CONTINUOUS
  0
ENDTAB
  0
TABLE
  2
STYLE
  5
3
330
0
100
AcDbSymbolTable
 70
     1
  0
STYLE
  5
11
330
3
100
AcDbSymbolTableRecord
100
AcDbTextStyleTableRecord
  2
STANDARD
 70
     0
 40
0.0
 41
1.0
 50
0.0
 71
     0
 42
2.5
  3
txt
  4

  0
ENDTAB
  0
TABLE
  2
VIEW
  5
6
330
0
100
AcDbSymbolTable
 70
     0
  0
ENDTAB
  0
TABLE
  2
UCS
  5
7
330
0
100
AcDbSymbolTable
 70
     0
  0
ENDTAB
  0
TABLE
  2
APPID
  5
9
330
0
100
AcDbSymbolTable
 70
     2
  0
APPID
  5
12
330
9
100
AcDbSymbolTableRecord
100
AcDbRegAppTableRecord
  2
ACAD
 70
     0
  0
ENDTAB
  0
TABLE
  2
DIMSTYLE
  5
A
330
0
100
AcDbSymbolTable
 70
     1
  0
DIMSTYLE
105
27
330
A
100
AcDbSymbolTableRecord
100
AcDbDimStyleTableRecord
  2
ISO-25
 70
     0
  3

  4

  5

  6

  7

 40
1.0
 41
2.5
 42
0.625
 43
3.75
 44
1.25
 45
0.0
 46
0.0
 47
0.0
 48
0.0
140
2.5
141
2.5
142
0.0
143
0.03937007874016
144
1.0
145
0.0
146
1.0
147
0.625
 71
     0
 72
     0
 73
     0
 74
     0
 75
     0
 76
     0
 77
     1
 78
     8
170
     0
171
     3
172
     1
173
     0
174
     0
175
     0
176
     0
177
     0
178
     0
270
     2
271
     2
272
     2
273
     2
274
     3
340
11
275
     0
280
     0
281
     0
282
     0
283
     0
284
     8
285
     0
286
     0
287
     3
288
     0
  0
ENDTAB
  0
TABLE
  2
BLOCK_RECORD
  5
1
330
0
100
AcDbSymbolTable
 70
     1
  0
BLOCK_RECORD
  5
1F
330
1
100
AcDbSymbolTableRecord
100
AcDbBlockTableRecord
  2
*MODEL_SPACE
  0
BLOCK_RECORD
  5
1B
330
1
100
AcDbSymbolTableRecord
100
AcDbBlockTableRecord
  2
*PAPER_SPACE
  0
ENDTAB
  0
ENDSEC
  0
SECTION
  2
BLOCKS
  0
BLOCK
  5
20
330
1F
100
AcDbEntity
  8
0
100
AcDbBlockBegin
  2
*MODEL_SPACE
 70
     0
 10
0.0
 20
0.0
 30
0.0
  3
*MODEL_SPACE
  1

  0
ENDBLK
  5
21
330
1F
100
AcDbEntity
  8
0
100
AcDbBlockEnd
  0
BLOCK
  5
1C
330
1B
100
AcDbEntity
 67
     1
  8
0
100
AcDbBlockBegin
  2
*PAPER_SPACE
  1

  0
ENDBLK
  5
1D
330
1B
100
AcDbEntity
 67
     1
  8
0
100
AcDbBlockEnd
  0
ENDSEC
  0
SECTION
  2
ENTITIES
  0
LINE
  5
100
100
AcDbEntity
  8
0
 62
7
100
AcDbLine
 10
7.217832
 20
60.865034
 30
0.0
 11
7.217832
 21
68.033479
 31
0.0
  0
LINE
  5
101
100
AcDbEntity
  8
0
 62
7
100
AcDbLine
 10
0.049388
 20
60.865034
 30
0.0
 11
7.217832
 21
60.865034
 31
0.0
  0
LINE
  5
102
100
AcDbEntity
  8
0
 62
7
100
AcDbLine
 10
0.049388
 20
64.001229
 30
0.0
 11
7.217832
 21
64.001229
 31
0.0
  0
LINE
  5
103
100
AcDbEntity
  8
0
 62
7
100
AcDbLine
 10
0.049388
 20
65.345312
 30
0.0
 11
7.217832
 21
65.345312
 31
0.0
  0
SPLINE
  5
104
100
AcDbEntity
  8
0
 62
7
100
AcDbSpline
 70
8
 71
3
 72
8
 73
4
 74
0
 40
0
 40
0
 40
0
 40
0
 40
1
 40
1
 40
1
 40
1
 10
5.425721
 20
65.345312
 30
0.0
 10
5.447840
 20
65.345312
 30
0.0
 10
5.469960
 20
65.345312
 30
0.0
 10
5.492080
 20
65.345312
 30
0.0
  0
SPLINE
  5
105
100
AcDbEntity
  8
0
 62
7
100
AcDbSpline
 70
8
 71
3
 72
8
 73
4
 74
0
 40
0
 40
0
 40
0
 40
0
 40
1
 40
1
 40
1
 40
1
 10
5.492080
 20
65.345312
 30
0.0
 10
5.536071
 20
65.345312
 30
0.0
 10
5.579200
 20
65.345312
 30
0.0
 10
5.621468
 20
65.345312
 30
0.0
  0
SPLINE
  5
106
100
AcDbEntity
  8
0
 62
7
100
AcDbSpline
 70
8
 71
3
 72
8
 73
4
 74
0
 40
0
 40
0
 40
0
 40
0
 40
1
 40
1
 40
1
 40
1
 10
5.621468
 20
65.345312
 30
0.0
 10
5.641935
 20
65.345312
 30
0.0
 10
5.662402
 20
65.345312
 30
0.0
 10
5.682871
 20
65.345312
 30
0.0
  0
SPLINE
  5
107
100
AcDbEntity
  8
0
 62
7
100
AcDbSpline
 70
8
 71
3
 72
8
 73
4
 74
0
 40
0
 40
0
 40
0
 40
0
 40
1
 40
1
 40
1
 40
1
 10
5.682871
 20
65.345312
 30
0.0
 10
5.702260
 20
65.345312
 30
0.0
 10
5.721649
 20
65.345312
 30
0.0
 10
5.741040
 20
65.345312
 30
0.0
  0
SPLINE
  5
108
100
AcDbEntity
  8
0
 62
7
100
AcDbSpline
 70
8
 71
3
 72
8
 73
4
 74
0
 40
0
 40
0
 40
0
 40
0
 40
1
 40
1
 40
1
 40
1
 10
5.741040
 20
65.345312
 30
0.0
 10
5.759102
 20
65.345312
 30
0.0
 10
5.777170
 20
65.345312
 30
0.0
 10
5.795243
 20
65.345312
 30
0.0
  0
SPLINE
  5
109
100
AcDbEntity
  8
0
 62
7
100
AcDbSpline
 70
8
 71
3
 72
8
 73
4
 74
0
 40
0
 40
0
 40
0
 40
0
 40
1
 40
1
 40
1
 40
1
 10
5.795243
 20
65.345312
 30
0.0
 10
5.811763
 20
65.345312
 30
0.0
 10
5.828281
 20
65.345312
 30
0.0
 10
5.844799
 20
65.345312
 30
0.0
  0
SPLINE
  5
10a
100
AcDbEntity
  8
0
 62
7
100
AcDbSpline
 70
8
 71
3
 72
8
 73
4
 74
0
 40
0
 40
0
 40
0
 40
0
 40
1
 40
1
 40
1
 40
1
 10
5.844799
 20
65.345312
 30
0.0
 10
5.859568
 20
65.345312
 30
0.0
 10
5.874331
 20
65.345312
 30
0.0
 10
5.889088
 20
65.345312
 30
0.0
  0
SPLINE
  5
10b
100
AcDbEntity
  8
0
 62
7
100
AcDbSpline
 70
8
 71
3
 72
8
 73
4
 74
0
 40
0
 40
0
 40
0
 40
0
 40
1
 40
1
 40
1
 40
1
 10
5.889088
 20
65.345312
 30
0.0
 10
5.901901
 20
65.345312
 30
0.0
 10
5.914720
 20
65.345312
 30
0.0
 10
5.927546
 20
65.345312
 30
0.0
  0
SPLINE
  5
10c
100
AcDbEntity
  8
0
 62
7
100
AcDbSpline
 70
8
 71
3
 72
8
 73
4
 74
0
 40
0
 40
0
 40
0
 40
0
 40
1
 40
1
 40
1
 40
1
 10
5.927546
 20
65.345312
 30
0.0
 10
5.938271
 20
65.345312
 30
0.0
 10
5.948987
 20
65.345312
 30
0.0
 10
5.959694
 20
65.345312
 30
0.0
  0
SPLINE
  5
10d
100
AcDbEntity
  8
0
 62
7
100
AcDbSpline
 70
8
 71
3
 72
8
 73
4
 74
0
 40
0
 40
0
 40
0
 40
0
 40
1
 40
1
 40
1
 40
1
 10
5.959694
 20
65.345312
 30
0.0
 10
5.968180
 20
65.345312
 30
0.0
 10
5.976656
 20
65.345312
 30
0.0
 10
5.985123
 20
65.345312
 30
0.0
  0
SPLINE
  5
10e
100
AcDbEntity
  8
0
 62
7
100
AcDbSpline
 70
8
 71
3
 72
8
 73
4
 74
0
 40
0
 40
0
 40
0
 40
0
 40
1
 40
1
 40
1
 40
1
 10
5.985123
 20
65.345312
 30
0.0
 10
5.991256
 20
65.345312
 30
0.0
 10
5.997390
 20
65.345312
 30
0.0
 10
6.003523
 20
65.345312
 30
0.0
  0
SPLINE
  5
10f
100
AcDbEntity
  8
0
 62
7
100
AcDbSpline
 70
8
 71
3
 72
8
 73
4
 74
0
 40
0
 40
0
 40
0
 40
0
 40
1
 40
1
 40
1
 40
1
 10
6.003523
 20
65.345312
 30
0.0
 10
6.007230
 20
65.345312
 30
0.0
 10
6.010946
 20
65.345312
 30
0.0
 10
6.014671
 20
65.345312
 30
0.0
  0
SPLINE
  5
110
100
AcDbEntity
  8
0
 62
7
100
AcDbSpline
 70
8
 71
3
 72
8
 73
4
 74
0
 40
0
 40
0
 40
0
 40
0
 40
1
 40
1
 40
1
 40
1
 10
6.014671
 20
65.345312
 30
0.0
 10
6.015988
 20
65.345312
 30
0.0
 10
6.017230
 20
65.345312
 30
0.0
 10
6.018397
 20
65.345312
 30
0.0
  0
LINE
  5
111
100
AcDbEntity
  8
0
 62
7
100
AcDbLine
 10
6.018388
 20
65.345312
 30
0.0
 11
6.003543
 21
65.345312
 31
0.0
  0
LINE
  5
112
100
AcDbEntity
  8
0
 62
7
100
AcDbLine
 10
6.003543
 20
65.345312
 30
0.0
 11
5.959708
 21
65.345312
 31
0.0
  0
LINE
  5
113
100
AcDbEntity
  8
0
 62
7
100
AcDbLine
 10
5.959708
 20
65.345312
 30
0.0
 11
5.889102
 21
65.345312
 31
0.0
  0
LINE
  5
114
100
AcDbEntity
  8
0
 62
7
100
AcDbLine
 10
5.889102
 20
65.345312
 30
0.0
 11
5.795258
 21
65.345312
 31
0.0
  0
LINE
  5
115
100
AcDbEntity
  8
0
 62
7
100
AcDbLine
 10
5.795258
 20
65.345312
 30
0.0
 11
5.682885
 21
65.345312
 31
0.0
  0
LINE
  5
116
100
AcDbEntity
  8
0
 62
7
100
AcDbLine
 10
5.682885
 20
65.345312
 30
0.0
 11
5.557615
 21
65.345312
 31
0.0
  0
LINE
  5
117
100
AcDbEntity
  8
0
 62
7
100
AcDbLine
 10
5.557615
 20
65.345312
 30
0.0
 11
5.425735
 21
65.345312
 31
0.0
  0
LINE
  5
118
100
AcDbEntity
  8
0
 62
7
100
AcDbLine
 10
5.425735
 20
65.345312
 30
0.0
 11
5.293856
 21
65.345312
 31
0.0
  0
LINE
  5
119
100
AcDbEntity
  8
0
 62
7
100
AcDbLine
 10
5.293856
 20
65.345312
 30
0.0
 11
5.168586
 21
65.345312
 31
0.0
  0
LINE
  5
11a
100
AcDbEntity
  8
0
 62
7
100
AcDbLine
 10
5.168586
 20
65.345312
 30
0.0
 11
5.056213
 21
65.345312
 31
0.0
  0
LINE
  5
11b
100
AcDbEntity
  8
0
 62
7
100
AcDbLine
 10
5.056213
 20
65.345312
 30
0.0
 11
4.962369
 21
65.345312
 31
0.0
  0
LINE
  5
11c
100
AcDbEntity
  8
0
 62
7
100
AcDbLine
 10
4.962369
 20
65.345312
 30
0.0
 11
4.891763
 21
65.345312
 31
0.0
  0
LINE
  5
11d
100
AcDbEntity
  8
0
 62
7
100
AcDbLine
 10
4.891763
 20
65.345312
 30
0.0
 11
4.847928
 21
65.345312
 31
0.0
  0
LINE
  5
11e
100
AcDbEntity
  8
0
 62
7
100
AcDbLine
 10
4.847928
 20
65.345312
 30
0.0
 11
4.833083
 21
65.345312
 31
0.0
  0
SPLINE
  5
11f
100
AcDbEntity
  8
0
 62
7
100
AcDbSpline
 70
8
 71
3
 72
8
 73
4
 74
0
 40
0
 40
0
 40
0
 40
0
 40
1
 40
1
 40
1
 40
1
 10
4.833055
 20
65.345312
 30
0.0
 10
4.834372
 20
65.345312
 30
0.0
 10
4.835614
 20
65.345312
 30
0.0
 10
4.836780
 20
65.345312
 30
0.0
  0
SPLINE
  5
120
100
AcDbEntity
  8
0
 62
7
100
AcDbSpline
 70
8
 71
3
 72
8
 73
4
 74
0
 40
0
 40
0
 40
0
 40
0
 40
1
 40
1
 40
1
 40
1
 10
4.836780
 20
65.345312
 30
0.0
 10
4.840487
 20
65.345312
 30
0.0
 10
4.844193
 20
65.345312
 30
0.0
 10
4.847900
 20
65.345312
 30
0.0
  0
SPLINE
  5
121
100
AcDbEntity
  8
0
 62
7
100
AcDbSpline
 70
8
 71
3
 72
8
 73
4
 74
0
 40
0
 40
0
 40
0
 40
0
 40
1
 40
1
 40
1
 40
1
 10
4.847900
 20
65.345312
 30
0.0
 10
4.854033
 20
65.345312
 30
0.0
 10
4.860167
 20
65.345312
 30
0.0
 10
4.866300
 20
65.345312
 30
0.0
  0
SPLINE
  5
122
100
AcDbEntity
  8
0
 62
7
100
AcDbSpline
 70
8
 71
3
 72
8
 73
4
 74
0
 40
0
 40
0
 40
0
 40
0
 40
1
 40
1
 40
1
 40
1
 10
4.866300
 20
65.345312
 30
0.0
 10
4.874786
 20
65.345312
 30
0.0
 10
4.883262
 20
65.345312
 30
0.0
 10
4.891729
 20
65.345312
 30
0.0
  0
SPLINE
  5
123
100
AcDbEntity
  8
0
 62
7
100
AcDbSpline
 70
8
 71
3
 72
8
 73
4
 74
0
 40
0
 40
0
 40
0
 40
0
 40
1
 40
1
 40
1
 40
1
 10
4.891729
 20
65.345312
 30
0.0
 10
4.902453
 20
65.345312
 30
0.0
 10
4.913169
 20
65.345312
 30
0.0
 10
4.923877
 20
65.345312
 30
0.0
  0
SPLINE
  5
124
100
AcDbEntity
  8
0
 62
7
100
AcDbSpline
 70
8
 71
3
 72
8
 73
4
 74
0
 40
0
 40
0
 40
0
 40
0
 40
1
 40
1
 40
1
 40
1
 10
4.923877
 20
65.345312
 30
0.0
 10
4.936690
 20
65.345312
 30
0.0
 10
4.949509
 20
65.345312
 30
0.0
 10
4.962335
 20
65.345312
 30
0.0
  0
SPLINE
  5
125
100
AcDbEntity
  8
0
 62
7
100
AcDbSpline
 70
8
 71
3
 72
8
 73
4
 74
0
 40
0
 40
0
 40
0
 40
0
 40
1
 40
1
 40
1
 40
1
 10
4.962335
 20
65.345312
 30
0.0
 10
4.977105
 20
65.345312
 30
0.0
 10
4.991868
 20
65.345312
 30
0.0
 10
5.006624
 20
65.345312
 30
0.0
  0
SPLINE
  5
126
100
AcDbEntity
  8
0
 62
7
100
AcDbSpline
 70
8
 71
3
 72
8
 73
4
 74
0
 40
0
 40
0
 40
0
 40
0
 40
1
 40
1
 40
1
 40
1
 10
5.006624
 20
65.345312
 30
0.0
 10
5.023144
 20
65.345312
 30
0.0
 10
5.039662
 20
65.345312
 30
0.0
 10
5.056180
 20
65.345312
 30
0.0
  0
SPLINE
  5
127
100
AcDbEntity
  8
0
 62
7
100
AcDbSpline
 70
8
 71
3
 72
8
 73
4
 74
0
 40
0
 40
0
 40
0
 40
0
 40
1
 40
1
 40
1
 40
1
 10
5.056180
 20
65.345312
 30
0.0
 10
5.074242
 20
65.345312
 30
0.0
 10
5.092310
 20
65.345312
 30
0.0
 10
5.110383
 20
65.345312
 30
0.0
  0
SPLINE
  5
128
100
AcDbEntity
  8
0
 62
7
100
AcDbSpline
 70
8
 71
3
 72
8
 73
4
 74
0
 40
0
 40
0
 40
0
 40
0
 40
1
 40
1
 40
1
 40
1
 10
5.110383
 20
65.345312
 30
0.0
 10
5.129774
 20
65.345312
 30
0.0
 10
5.149163
 20
65.345312
 30
0.0
 10
5.168552
 20
65.345312
 30
0.0
  0
SPLINE
  5
129
100
AcDbEntity
  8
0
 62
7
100
AcDbSpline
 70
8
 71
3
 72
8
 73
4
 74
0
 40
0
 40
0
 40
0
 40
0
 40
1
 40
1
 40
1
 40
1
 10
5.168552
 20
65.345312
 30
0.0
 10
5.189021
 20
65.345312
 30
0.0
 10
5.209488
 20
65.345312
 30
0.0
 10
5.229955
 20
65.345312
 30
0.0
  0
SPLINE
  5
12a
100
AcDbEntity
  8
0
 62
7
100
AcDbSpline
 70
8
 71
3
 72
8
 73
4
 74
0
 40
0
 40
0
 40
0
 40
0
 40
1
 40
1
 40
1
 40
1
 10
5.229955
 20
65.345312
 30
0.0
 10
5.251244
 20
65.345312
 30
0.0
 10
5.272533
 20
65.345312
 30
0.0
 10
5.293822
 20
65.345312
 30
0.0
  0
SPLINE
  5
12b
100
AcDbEntity
  8
0
 62
7
100
AcDbSpline
 70
8
 71
3
 72
8
 73
4
 74
0
 40
0
 40
0
 40
0
 40
0
 40
1
 40
1
 40
1
 40
1
 10
5.293822
 20
65.345312
 30
0.0
 10
5.337348
 20
65.345312
 30
0.0
 10
5.381308
 20
65.345312
 30
0.0
 10
5.425702
 20
65.345312
 30
0.0
  0
SPLINE
  5
12c
100
AcDbEntity
  8
0
 62
7
100
AcDbSpline
 70
8
 71
3
 72
8
 73
4
 74
0
 40
0
 40
0
 40
0
 40
0
 40
1
 40
1
 40
1
 40
1
 10
1.841499
 20
65.345312
 30
0.0
 10
1.863618
 20
65.345312
 30
0.0
 10
1.885738
 20
65.345312
 30
0.0
 10
1.907858
 20
65.345312
 30
0.0
  0
SPLINE
  5
12d
100
AcDbEntity
  8
0
 62
7
100
AcDbSpline
 70
8
 71
3
 72
8
 73
4
 74
0
 40
0
 40
0
 40
0
 40
0
 40
1
 40
1
 40
1
 40
1
 10
1.907858
 20
65.345312
 30
0.0
 10
1.951849
 20
65.345312
 30
0.0
 10
1.994978
 20
65.345312
 30
0.0
 10
2.037246
 20
65.345312
 30
0.0
  0
SPLINE
  5
12e
100
AcDbEntity
  8
0
 62
7
100
AcDbSpline
 70
8
 71
3
 72
8
 73
4
 74
0
 40
0
 40
0
 40
0
 40
0
 40
1
 40
1
 40
1
 40
1
 10
2.037246
 20
65.345312
 30
0.0
 10
2.057712
 20
65.345312
 30
0.0
 10
2.078180
 20
65.345312
 30
0.0
 10
2.098649
 20
65.345312
 30
0.0
  0
SPLINE
  5
12f
100
AcDbEntity
  8
0
 62
7
100
AcDbSpline
 70
8
 71
3
 72
8
 73
4
 74
0
 40
0
 40
0
 40
0
 40
0
 40
1
 40
1
 40
1
 40
1
 10
2.098649
 20
65.345312
 30
0.0
 10
2.118037
 20
65.345312
 30
0.0
 10
2.137427
 20
65.345312
 30
0.0
 10
2.156818
 20
65.345312
 30
0.0
  0
SPLINE
  5
130
100
AcDbEntity
  8
0
 62
7
100
AcDbSpline
 70
8
 71
3
 72
8
 73
4
 74
0
 40
0
 40
0
 40
0
 40
0
 40
1
 40
1
 40
1
 40
1
 10
2.156818
 20
65.345312
 30
0.0
 10
2.174880
 20
65.345312
 30
0.0
 10
2.192948
 20
65.345312
 30
0.0
 10
2.211021
 20
65.345312
 30
0.0
  0
SPLINE
  5
131
100
AcDbEntity
  8
0
 62
7
100
AcDbSpline
 70
8
 71
3
 72
8
 73
4
 74
0
 40
0
 40
0
 40
0
 40
0
 40
1
 40
1
 40
1
 40
1
 10
2.211021
 20
65.345312
 30
0.0
 10
2.227541
 20
65.345312
 30
0.0
 10
2.244059
 20
65.345312
 30
0.0
 10
2.260577
 20
65.345312
 30
0.0
  0
SPLINE
  5
132
100
AcDbEntity
  8
0
 62
7
100
AcDbSpline
 70
8
 71
3
 72
8
 73
4
 74
0
 40
0
 40
0
 40
0
 40
0
 40
1
 40
1
 40
1
 40
1
 10
2.260577
 20
65.345312
 30
0.0
 10
2.275346
 20
65.345312
 30
0.0
 10
2.290109
 20
65.345312
 30
0.0
 10
2.304866
 20
65.345312
 30
0.0
  0
SPLINE
  5
133
100
AcDbEntity
  8
0
 62
7
100
AcDbSpline
 70
8
 71
3
 72
8
 73
4
 74
0
 40
0
 40
0
 40
0
 40
0
 40
1
 40
1
 40
1
 40
1
 10
2.304866
 20
65.345312
 30
0.0
 10
2.317679
 20
65.345312
 30
0.0
 10
2.330498
 20
65.345312
 30
0.0
 10
2.343324
 20
65.345312
 30
0.0
  0
SPLINE
  5
134
100
AcDbEntity
  8
0
 62
7
100
AcDbSpline
 70
8
 71
3
 72
8
 73
4
 74
0
 40
0
 40
0
 40
0
 40
0
 40
1
 40
1
 40
1
 40
1
 10
2.343324
 20
65.345312
 30
0.0
 10
2.354049
 20
65.345312
 30
0.0
 10
2.364765
 20
65.345312
 30
0.0
 10
2.375472
 20
65.345312
 30
0.0
  0
SPLINE
  5
135
100
AcDbEntity
  8
0
 62
7
100
AcDbSpline
 70
8
 71
3
 72
8
 73
4
 74
0
 40
0
 40
0
 40
0
 40
0
 40
1
 40
1
 40
1
 40
1
 10
2.375472
 20
65.345312
 30
0.0
 10
2.383958
 20
65.345312
 30
0.0
 10
2.392434
 20
65.345312
 30
0.0
 10
2.400900
 20
65.345312
 30
0.0
  0
SPLINE
  5
136
100
AcDbEntity
  8
0
 62
7
100
AcDbSpline
 70
8
 71
3
 72
8
 73
4
 74
0
 40
0
 40
0
 40
0
 40
0
 40
1
 40
1
 40
1
 40
1
 10
2.400900
 20
65.345312
 30
0.0
 10
2.407034
 20
65.345312
 30
0.0
 10
2.413168
 20
65.345312
 30
0.0
 10
2.419301
 20
65.345312
 30
0.0
  0
SPLINE
  5
137
100
AcDbEntity
  8
0
 62
7
100
AcDbSpline
 70
8
 71
3
 72
8
 73
4
 74
0
 40
0
 40
0
 40
0
 40
0
 40
1
 40
1
 40
1
 40
1
 10
2.419301
 20
65.345312
 30
0.0
 10
2.423008
 20
65.345312
 30
0.0
 10
2.426714
 20
65.345312
 30
0.0
 10
2.430421
 20
65.345312
 30
0.0
  0
SPLINE
  5
138
100
AcDbEntity
  8
0
 62
7
100
AcDbSpline
 70
8
 71
3
 72
8
 73
4
 74
0
 40
0
 40
0
 40
0
 40
0
 40
1
 40
1
 40
1
 40
1
 10
2.430421
 20
65.345312
 30
0.0
 10
2.431738
 20
65.345312
 30
0.0
 10
2.432980
 20
65.345312
 30
0.0
 10
2.434146
 20
65.345312
 30
0.0
  0
LINE
  5
139
100
AcDbEntity
  8
0
 62
7
100
AcDbLine
 10
2.434166
 20
65.345312
 30
0.0
 11
2.419321
 21
65.345312
 31
0.0
  0
LINE
  5
13a
100
AcDbEntity
  8
0
 62
7
100
AcDbLine
 10
2.419321
 20
65.345312
 30
0.0
 11
2.375486
 21
65.345312
 31
0.0
  0
LINE
  5
13b
100
AcDbEntity
  8
0
 62
7
100
AcDbLine
 10
2.375486
 20
65.345312
 30
0.0
 11
2.304880
 21
65.345312
 31
0.0
  0
LINE
  5
13c
100
AcDbEntity
  8
0
 62
7
100
AcDbLine
 10
2.304880
 20
65.345312
 30
0.0
 11
2.211035
 21
65.345312
 31
0.0
  0
LINE
  5
13d
100
AcDbEntity
  8
0
 62
7
100
AcDbLine
 10
2.211035
 20
65.345312
 30
0.0
 11
2.098663
 21
65.345312
 31
0.0
  0
LINE
  5
13e
100
AcDbEntity
  8
0
 62
7
100
AcDbLine
 10
2.098663
 20
65.345312
 30
0.0
 11
1.973393
 21
65.345312
 31
0.0
  0
LINE
  5
13f
100
AcDbEntity
  8
0
 62
7
100
AcDbLine
 10
1.973393
 20
65.345312
 30
0.0
 11
1.841513
 21
65.345312
 31
0.0
  0
LINE
  5
140
100
AcDbEntity
  8
0
 62
7
100
AcDbLine
 10
1.841513
 20
65.345312
 30
0.0
 11
1.709634
 21
65.345312
 31
0.0
  0
LINE
  5
141
100
AcDbEntity
  8
0
 62
7
100
AcDbLine
 10
1.709634
 20
65.345312
 30
0.0
 11
1.584364
 21
65.345312
 31
0.0
  0
LINE
  5
142
100
AcDbEntity
  8
0
 62
7
100
AcDbLine
 10
1.584364
 20
65.345312
 30
0.0
 11
1.471991
 21
65.345312
 31
0.0
  0
LINE
  5
143
100
AcDbEntity
  8
0
 62
7
100
AcDbLine
 10
1.471991
 20
65.345312
 30
0.0
 11
1.378147
 21
65.345312
 31
0.0
  0
LINE
  5
144
100
AcDbEntity
  8
0
 62
7
100
AcDbLine
 10
1.378147
 20
65.345312
 30
0.0
 11
1.307540
 21
65.345312
 31
0.0
  0
LINE
  5
145
100
AcDbEntity
  8
0
 62
7
100
AcDbLine
 10
1.307540
 20
65.345312
 30
0.0
 11
1.263706
 21
65.345312
 31
0.0
  0
LINE
  5
146
100
AcDbEntity
  8
0
 62
7
100
AcDbLine
 10
1.263706
 20
65.345312
 30
0.0
 11
1.248861
 21
65.345312
 31
0.0
  0
SPLINE
  5
147
100
AcDbEntity
  8
0
 62
7
100
AcDbSpline
 70
8
 71
3
 72
8
 73
4
 74
0
 40
0
 40
0
 40
0
 40
0
 40
1
 40
1
 40
1
 40
1
 10
1.248833
 20
65.345312
 30
0.0
 10
1.250150
 20
65.345312
 30
0.0
 10
1.251391
 20
65.345312
 30
0.0
 10
1.252558
 20
65.345312
 30
0.0
  0
SPLINE
  5
148
100
AcDbEntity
  8
0
 62
7
100
AcDbSpline
 70
8
 71
3
 72
8
 73
4
 74
0
 40
0
 40
0
 40
0
 40
0
 40
1
 40
1
 40
1
 40
1
 10
1.252558
 20
65.345312
 30
0.0
 10
1.256264
 20
65.345312
 30
0.0
 10
1.259980
 20
65.345312
 30
0.0
 10
1.263706
 20
65.345312
 30
0.0
  0
SPLINE
  5
149
100
AcDbEntity
  8
0
 62
7
100
AcDbSpline
 70
8
 71
3
 72
8
 73
4
 74
0
 40
0
 40
0
 40
0
 40
0
 40
1
 40
1
 40
1
 40
1
 10
1.263706
 20
65.345312
 30
0.0
 10
1.269839
 20
65.345312
 30
0.0
 10
1.275973
 20
65.345312
 30
0.0
 10
1.282107
 20
65.345312
 30
0.0
  0
SPLINE
  5
14a
100
AcDbEntity
  8
0
 62
7
100
AcDbSpline
 70
8
 71
3
 72
8
 73
4
 74
0
 40
0
 40
0
 40
0
 40
0
 40
1
 40
1
 40
1
 40
1
 10
1.282107
 20
65.345312
 30
0.0
 10
1.290592
 20
65.345312
 30
0.0
 10
1.299068
 20
65.345312
 30
0.0
 10
1.307535
 20
65.345312
 30
0.0
  0
SPLINE
  5
14b
100
AcDbEntity
  8
0
 62
7
100
AcDbSpline
 70
8
 71
3
 72
8
 73
4
 74
0
 40
0
 40
0
 40
0
 40
0
 40
1
 40
1
 40
1
 40
1
 10
1.307535
 20
65.345312
 30
0.0
 10
1.318259
 20
65.345312
 30
0.0
 10
1.328975
 20
65.345312
 30
0.0
 10
1.339683
 20
65.345312
 30
0.0
  0
SPLINE
  5
14c
100
AcDbEntity
  8
0
 62
7
100
AcDbSpline
 70
8
 71
3
 72
8
 73
4
 74
0
 40
0
 40
0
 40
0
 40
0
 40
1
 40
1
 40
1
 40
1
 10
1.339683
 20
65.345312
 30
0.0
 10
1.352496
 20
65.345312
 30
0.0
 10
1.365315
 20
65.345312
 30
0.0
 10
1.378141
 20
65.345312
 30
0.0
  0
SPLINE
  5
14d
100
AcDbEntity
  8
0
 62
7
100
AcDbSpline
 70
8
 71
3
 72
8
 73
4
 74
0
 40
0
 40
0
 40
0
 40
0
 40
1
 40
1
 40
1
 40
1
 10
1.378141
 20
65.345312
 30
0.0
 10
1.392911
 20
65.345312
 30
0.0
 10
1.407674
 20
65.345312
 30
0.0
 10
1.422430
 20
65.345312
 30
0.0
  0
SPLINE
  5
14e
100
AcDbEntity
  8
0
 62
7
100
AcDbSpline
 70
8
 71
3
 72
8
 73
4
 74
0
 40
0
 40
0
 40
0
 40
0
 40
1
 40
1
 40
1
 40
1
 10
1.422430
 20
65.345312
 30
0.0
 10
1.438950
 20
65.345312
 30
0.0
 10
1.455468
 20
65.345312
 30
0.0
 10
1.471986
 20
65.345312
 30
0.0
  0
SPLINE
  5
14f
100
AcDbEntity
  8
0
 62
7
100
AcDbSpline
 70
8
 71
3
 72
8
 73
4
 74
0
 40
0
 40
0
 40
0
 40
0
 40
1
 40
1
 40
1
 40
1
 10
1.471986
 20
65.345312
 30
0.0
 10
1.490048
 20
65.345312
 30
0.0
 10
1.508116
 20
65.345312
 30
0.0
 10
1.526189
 20
65.345312
 30
0.0
  0
SPLINE
  5
150
100
AcDbEntity
  8
0
 62
7
100
AcDbSpline
 70
8
 71
3
 72
8
 73
4
 74
0
 40
0
 40
0
 40
0
 40
0
 40
1
 40
1
 40
1
 40
1
 10
1.526189
 20
65.345312
 30
0.0
 10
1.545580
 20
65.345312
 30
0.0
 10
1.564969
 20
65.345312
 30
0.0
 10
1.584358
 20
65.345312
 30
0.0
  0
SPLINE
  5
151
100
AcDbEntity
  8
0
 62
7
100
AcDbSpline
 70
8
 71
3
 72
8
 73
4
 74
0
 40
0
 40
0
 40
0
 40
0
 40
1
 40
1
 40
1
 40
1
 10
1.584358
 20
65.345312
 30
0.0
 10
1.604827
 20
65.345312
 30
0.0
 10
1.625294
 20
65.345312
 30
0.0
 10
1.645761
 20
65.345312
 30
0.0
  0
SPLINE
  5
152
100
AcDbEntity
  8
0
 62
7
100
AcDbSpline
 70
8
 71
3
 72
8
 73
4
 74
0
 40
0
 40
0
 40
0
 40
0
 40
1
 40
1
 40
1
 40
1
 10
1.645761
 20
65.345312
 30
0.0
 10
1.667050
 20
65.345312
 30
0.0
 10
1.688339
 20
65.345312
 30
0.0
 10
1.709628
 20
65.345312
 30
0.0
  0
SPLINE
  5
153
100
AcDbEntity
  8
0
 62
7
100
AcDbSpline
 70
8
 71
3
 72
8
 73
4
 74
0
 40
0
 40
0
 40
0
 40
0
 40
1
 40
1
 40
1
 40
1
 10
1.709628
 20
65.345312
 30
0.0
 10
1.753154
 20
65.345312
 30
0.0
 10
1.797114
 20
65.345312
 30
0.0
 10
1.841508
 20
65.345312
 30
0.0
  0
LINE
  5
154
100
AcDbEntity
  8
0
 62
7
100
AcDbLine
 10
0.049388
 20
68.033479
 30
0.0
 11
7.217832
 21
68.033479
 31
0.0
  0
SPLINE
  5
155
100
AcDbEntity
  8
0
 62
7
100
AcDbSpline
 70
8
 71
3
 72
8
 73
4
 74
0
 40
0
 40
0
 40
0
 40
0
 40
1
 40
1
 40
1
 40
1
 10
5.425721
 20
68.033479
 30
0.0
 10
5.447840
 20
68.033479
 30
0.0
 10
5.469960
 20
68.033479
 30
0.0
 10
5.492080
 20
68.033479
 30
0.0
  0
SPLINE
  5
156
100
AcDbEntity
  8
0
 62
7
100
AcDbSpline
 70
8
 71
3
 72
8
 73
4
 74
0
 40
0
 40
0
 40
0
 40
0
 40
1
 40
1
 40
1
 40
1
 10
5.492080
 20
68.033479
 30
0.0
 10
5.536071
 20
68.033479
 30
0.0
 10
5.579200
 20
68.033479
 30
0.0
 10
5.621468
 20
68.033479
 30
0.0
  0
SPLINE
  5
157
100
AcDbEntity
  8
0
 62
7
100
AcDbSpline
 70
8
 71
3
 72
8
 73
4
 74
0
 40
0
 40
0
 40
0
 40
0
 40
1
 40
1
 40
1
 40
1
 10
5.621468
 20
68.033479
 30
0.0
 10
5.641935
 20
68.033479
 30
0.0
 10
5.662402
 20
68.033479
 30
0.0
 10
5.682871
 20
68.033479
 30
0.0
  0
SPLINE
  5
158
100
AcDbEntity
  8
0
 62
7
100
AcDbSpline
 70
8
 71
3
 72
8
 73
4
 74
0
 40
0
 40
0
 40
0
 40
0
 40
1
 40
1
 40
1
 40
1
 10
5.682871
 20
68.033479
 30
0.0
 10
5.702260
 20
68.033479
 30
0.0
 10
5.721649
 20
68.033479
 30
0.0
 10
5.741040
 20
68.033479
 30
0.0
  0
SPLINE
  5
159
100
AcDbEntity
  8
0
 62
7
100
AcDbSpline
 70
8
 71
3
 72
8
 73
4
 74
0
 40
0
 40
0
 40
0
 40
0
 40
1
 40
1
 40
1
 40
1
 10
5.741040
 20
68.033479
 30
0.0
 10
5.759102
 20
68.033479
 30
0.0
 10
5.777170
 20
68.033479
 30
0.0
 10
5.795243
 20
68.033479
 30
0.0
  0
SPLINE
  5
15a
100
AcDbEntity
  8
0
 62
7
100
AcDbSpline
 70
8
 71
3
 72
8
 73
4
 74
0
 40
0
 40
0
 40
0
 40
0
 40
1
 40
1
 40
1
 40
1
 10
5.795243
 20
68.033479
 30
0.0
 10
5.811763
 20
68.033479
 30
0.0
 10
5.828281
 20
68.033479
 30
0.0
 10
5.844799
 20
68.033479
 30
0.0
  0
SPLINE
  5
15b
100
AcDbEntity
  8
0
 62
7
100
AcDbSpline
 70
8
 71
3
 72
8
 73
4
 74
0
 40
0
 40
0
 40
0
 40
0
 40
1
 40
1
 40
1
 40
1
 10
5.844799
 20
68.033479
 30
0.0
 10
5.859568
 20
68.033479
 30
0.0
 10
5.874331
 20
68.033479
 30
0.0
 10
5.889088
 20
68.033479
 30
0.0
  0
SPLINE
  5
15c
100
AcDbEntity
  8
0
 62
7
100
AcDbSpline
 70
8
 71
3
 72
8
 73
4
 74
0
 40
0
 40
0
 40
0
 40
0
 40
1
 40
1
 40
1
 40
1
 10
5.889088
 20
68.033479
 30
0.0
 10
5.901901
 20
68.033479
 30
0.0
 10
5.914720
 20
68.033479
 30
0.0
 10
5.927546
 20
68.033479
 30
0.0
  0
SPLINE
  5
15d
100
AcDbEntity
  8
0
 62
7
100
AcDbSpline
 70
8
 71
3
 72
8
 73
4
 74
0
 40
0
 40
0
 40
0
 40
0
 40
1
 40
1
 40
1
 40
1
 10
5.927546
 20
68.033479
 30
0.0
 10
5.938271
 20
68.033479
 30
0.0
 10
5.948987
 20
68.033479
 30
0.0
 10
5.959694
 20
68.033479
 30
0.0
  0
SPLINE
  5
15e
100
AcDbEntity
  8
0
 62
7
100
AcDbSpline
 70
8
 71
3
 72
8
 73
4
 74
0
 40
0
 40
0
 40
0
 40
0
 40
1
 40
1
 40
1
 40
1
 10
5.959694
 20
68.033479
 30
0.0
 10
5.968180
 20
68.033479
 30
0.0
 10
5.976656
 20
68.033479
 30
0.0
 10
5.985123
 20
68.033479
 30
0.0
  0
SPLINE
  5
15f
100
AcDbEntity
  8
0
 62
7
100
AcDbSpline
 70
8
 71
3
 72
8
 73
4
 74
0
 40
0
 40
0
 40
0
 40
0
 40
1
 40
1
 40
1
 40
1
 10
5.985123
 20
68.033479
 30
0.0
 10
5.991256
 20
68.033479
 30
0.0
 10
5.997390
 20
68.033479
 30
0.0
 10
6.003523
 20
68.033479
 30
0.0
  0
SPLINE
  5
160
100
AcDbEntity
  8
0
 62
7
100
AcDbSpline
 70
8
 71
3
 72
8
 73
4
 74
0
 40
0
 40
0
 40
0
 40
0
 40
1
 40
1
 40
1
 40
1
 10
6.003523
 20
68.033479
 30
0.0
 10
6.007230
 20
68.033479
 30
0.0
 10
6.010946
 20
68.033479
 30
0.0
 10
6.014671
 20
68.033479
 30
0.0
  0
SPLINE
  5
161
100
AcDbEntity
  8
0
 62
7
100
AcDbSpline
 70
8
 71
3
 72
8
 73
4
 74
0
 40
0
 40
0
 40
0
 40
0
 40
1
 40
1
 40
1
 40
1
 10
6.014671
 20
68.033479
 30
0.0
 10
6.015988
 20
68.033479
 30
0.0
 10
6.017230
 20
68.033479
 30
0.0
 10
6.018397
 20
68.033479
 30
0.0
  0
LINE
  5
162
100
AcDbEntity
  8
0
 62
7
100
AcDbLine
 10
6.018388
 20
68.033479
 30
0.0
 11
6.003543
 21
68.033479
 31
0.0
  0
LINE
  5
163
100
AcDbEntity
  8
0
 62
7
100
AcDbLine
 10
6.003543
 20
68.033479
 30
0.0
 11
5.959708
 21
68.033479
 31
0.0
  0
LINE
  5
164
100
AcDbEntity
  8
0
 62
7
100
AcDbLine
 10
5.959708
 20
68.033479
 30
0.0
 11
5.889102
 21
68.033479
 31
0.0
  0
LINE
  5
165
100
AcDbEntity
  8
0
 62
7
100
AcDbLine
 10
5.889102
 20
68.033479
 30
0.0
 11
5.795258
 21
68.033479
 31
0.0
  0
LINE
  5
166
100
AcDbEntity
  8
0
 62
7
100
AcDbLine
 10
5.795258
 20
68.033479
 30
0.0
 11
5.682885
 21
68.033479
 31
0.0
  0
LINE
  5
167
100
AcDbEntity
  8
0
 62
7
100
AcDbLine
 10
5.682885
 20
68.033479
 30
0.0
 11
5.557615
 21
68.033479
 31
0.0
  0
LINE
  5
168
100
AcDbEntity
  8
0
 62
7
100
AcDbLine
 10
5.557615
 20
68.033479
 30
0.0
 11
5.425735
 21
68.033479
 31
0.0
  0
LINE
  5
169
100
AcDbEntity
  8
0
 62
7
100
AcDbLine
 10
5.425735
 20
68.033479
 30
0.0
 11
5.293856
 21
68.033479
 31
0.0
  0
LINE
  5
16a
100
AcDbEntity
  8
0
 62
7
100
AcDbLine
 10
5.293856
 20
68.033479
 30
0.0
 11
5.168586
 21
68.033479
 31
0.0
  0
LINE
  5
16b
100
AcDbEntity
  8
0
 62
7
100
AcDbLine
 10
5.168586
 20
68.033479
 30
0.0
 11
5.056213
 21
68.033479
 31
0.0
  0
LINE
  5
16c
100
AcDbEntity
  8
0
 62
7
100
AcDbLine
 10
5.056213
 20
68.033479
 30
0.0
 11
4.962369
 21
68.033479
 31
0.0
  0
LINE
  5
16d
100
AcDbEntity
  8
0
 62
7
100
AcDbLine
 10
4.962369
 20
68.033479
 30
0.0
 11
4.891763
 21
68.033479
 31
0.0
  0
LINE
  5
16e
100
AcDbEntity
  8
0
 62
7
100
AcDbLine
 10
4.891763
 20
68.033479
 30
0.0
 11
4.847928
 21
68.033479
 31
0.0
  0
LINE
  5
16f
100
AcDbEntity
  8
0
 62
7
100
AcDbLine
 10
4.847928
 20
68.033479
 30
0.0
 11
4.833083
 21
68.033479
 31
0.0
  0
SPLINE
  5
170
100
AcDbEntity
  8
0
 62
7
100
AcDbSpline
 70
8
 71
3
 72
8
 73
4
 74
0
 40
0
 40
0
 40
0
 40
0
 40
1
 40
1
 40
1
 40
1
 10
4.833055
 20
68.033479
 30
0.0
 10
4.834372
 20
68.033479
 30
0.0
 10
4.835614
 20
68.033479
 30
0.0
 10
4.836780
 20
68.033479
 30
0.0
  0
SPLINE
  5
171
100
AcDbEntity
  8
0
 62
7
100
AcDbSpline
 70
8
 71
3
 72
8
 73
4
 74
0
 40
0
 40
0
 40
0
 40
0
 40
1
 40
1
 40
1
 40
1
 10
4.836780
 20
68.033479
 30
0.0
 10
4.840487
 20
68.033479
 30
0.0
 10
4.844193
 20
68.033479
 30
0.0
 10
4.847900
 20
68.033479
 30
0.0
  0
SPLINE
  5
172
100
AcDbEntity
  8
0
 62
7
100
AcDbSpline
 70
8
 71
3
 72
8
 73
4
 74
0
 40
0
 40
0
 40
0
 40
0
 40
1
 40
1
 40
1
 40
1
 10
4.847900
 20
68.033479
 30
0.0
 10
4.854033
 20
68.033479
 30
0.0
 10
4.860167
 20
68.033479
 30
0.0
 10
4.866300
 20
68.033479
 30
0.0
  0
SPLINE
  5
173
100
AcDbEntity
  8
0
 62
7
100
AcDbSpline
 70
8
 71
3
 72
8
 73
4
 74
0
 40
0
 40
0
 40
0
 40
0
 40
1
 40
1
 40
1
 40
1
 10
4.866300
 20
68.033479
 30
0.0
 10
4.874786
 20
68.033479
 30
0.0
 10
4.883262
 20
68.033479
 30
0.0
 10
4.891729
 20
68.033479
 30
0.0
  0
SPLINE
  5
174
100
AcDbEntity
  8
0
 62
7
100
AcDbSpline
 70
8
 71
3
 72
8
 73
4
 74
0
 40
0
 40
0
 40
0
 40
0
 40
1
 40
1
 40
1
 40
1
 10
4.891729
 20
68.033479
 30
0.0
 10
4.902453
 20
68.033479
 30
0.0
 10
4.913169
 20
68.033479
 30
0.0
 10
4.923877
 20
68.033479
 30
0.0
  0
SPLINE
  5
175
100
AcDbEntity
  8
0
 62
7
100
AcDbSpline
 70
8
 71
3
 72
8
 73
4
 74
0
 40
0
 40
0
 40
0
 40
0
 40
1
 40
1
 40
1
 40
1
 10
4.923877
 20
68.033479
 30
0.0
 10
4.936690
 20
68.033479
 30
0.0
 10
4.949509
 20
68.033479
 30
0.0
 10
4.962335
 20
68.033479
 30
0.0
  0
SPLINE
  5
176
100
AcDbEntity
  8
0
 62
7
100
AcDbSpline
 70
8
 71
3
 72
8
 73
4
 74
0
 40
0
 40
0
 40
0
 40
0
 40
1
 40
1
 40
1
 40
1
 10
4.962335
 20
68.033479
 30
0.0
 10
4.977105
 20
68.033479
 30
0.0
 10
4.991868
 20
68.033479
 30
0.0
 10
5.006624
 20
68.033479
 30
0.0
  0
SPLINE
  5
177
100
AcDbEntity
  8
0
 62
7
100
AcDbSpline
 70
8
 71
3
 72
8
 73
4
 74
0
 40
0
 40
0
 40
0
 40
0
 40
1
 40
1
 40
1
 40
1
 10
5.006624
 20
68.033479
 30
0.0
 10
5.023144
 20
68.033479
 30
0.0
 10
5.039662
 20
68.033479
 30
0.0
 10
5.056180
 20
68.033479
 30
0.0
  0
SPLINE
  5
178
100
AcDbEntity
  8
0
 62
7
100
AcDbSpline
 70
8
 71
3
 72
8
 73
4
 74
0
 40
0
 40
0
 40
0
 40
0
 40
1
 40
1
 40
1
 40
1
 10
5.056180
 20
68.033479
 30
0.0
 10
5.074242
 20
68.033479
 30
0.0
 10
5.092310
 20
68.033479
 30
0.0
 10
5.110383
 20
68.033479
 30
0.0
  0
SPLINE
  5
179
100
AcDbEntity
  8
0
 62
7
100
AcDbSpline
 70
8
 71
3
 72
8
 73
4
 74
0
 40
0
 40
0
 40
0
 40
0
 40
1
 40
1
 40
1
 40
1
 10
5.110383
 20
68.033479
 30
0.0
 10
5.129774
 20
68.033479
 30
0.0
 10
5.149163
 20
68.033479
 30
0.0
 10
5.168552
 20
68.033479
 30
0.0
  0
SPLINE
  5
17a
100
AcDbEntity
  8
0
 62
7
100
AcDbSpline
 70
8
 71
3
 72
8
 73
4
 74
0
 40
0
 40
0
 40
0
 40
0
 40
1
 40
1
 40
1
 40
1
 10
5.168552
 20
68.033479
 30
0.0
 10
5.189021
 20
68.033479
 30
0.0
 10
5.209488
 20
68.033479
 30
0.0
 10
5.229955
 20
68.033479
 30
0.0
  0
SPLINE
  5
17b
100
AcDbEntity
  8
0
 62
7
100
AcDbSpline
 70
8
 71
3
 72
8
 73
4
 74
0
 40
0
 40
0
 40
0
 40
0
 40
1
 40
1
 40
1
 40
1
 10
5.229955
 20
68.033479
 30
0.0
 10
5.251244
 20
68.033479
 30
0.0
 10
5.272533
 20
68.033479
 30
0.0
 10
5.293822
 20
68.033479
 30
0.0
  0
SPLINE
  5
17c
100
AcDbEntity
  8
0
 62
7
100
AcDbSpline
 70
8
 71
3
 72
8
 73
4
 74
0
 40
0
 40
0
 40
0
 40
0
 40
1
 40
1
 40
1
 40
1
 10
5.293822
 20
68.033479
 30
0.0
 10
5.337348
 20
68.033479
 30
0.0
 10
5.381308
 20
68.033479
 30
0.0
 10
5.425702
 20
68.033479
 30
0.0
  0
SPLINE
  5
17d
100
AcDbEntity
  8
0
 62
7
100
AcDbSpline
 70
8
 71
3
 72
8
 73
4
 74
0
 40
0
 40
0
 40
0
 40
0
 40
1
 40
1
 40
1
 40
1
 10
1.841499
 20
68.033479
 30
0.0
 10
1.863618
 20
68.033479
 30
0.0
 10
1.885738
 20
68.033479
 30
0.0
 10
1.907858
 20
68.033479
 30
0.0
  0
SPLINE
  5
17e
100
AcDbEntity
  8
0
 62
7
100
AcDbSpline
 70
8
 71
3
 72
8
 73
4
 74
0
 40
0
 40
0
 40
0
 40
0
 40
1
 40
1
 40
1
 40
1
 10
1.907858
 20
68.033479
 30
0.0
 10
1.951849
 20
68.033479
 30
0.0
 10
1.994978
 20
68.033479
 30
0.0
 10
2.037246
 20
68.033479
 30
0.0
  0
SPLINE
  5
17f
100
AcDbEntity
  8
0
 62
7
100
AcDbSpline
 70
8
 71
3
 72
8
 73
4
 74
0
 40
0
 40
0
 40
0
 40
0
 40
1
 40
1
 40
1
 40
1
 10
2.037246
 20
68.033479
 30
0.0
 10
2.057712
 20
68.033479
 30
0.0
 10
2.078180
 20
68.033479
 30
0.0
 10
2.098649
 20
68.033479
 30
0.0
  0
SPLINE
  5
180
100
AcDbEntity
  8
0
 62
7
100
AcDbSpline
 70
8
 71
3
 72
8
 73
4
 74
0
 40
0
 40
0
 40
0
 40
0
 40
1
 40
1
 40
1
 40
1
 10
2.098649
 20
68.033479
 30
0.0
 10
2.118037
 20
68.033479
 30
0.0
 10
2.137427
 20
68.033479
 30
0.0
 10
2.156818
 20
68.033479
 30
0.0
  0
SPLINE
  5
181
100
AcDbEntity
  8
0
 62
7
100
AcDbSpline
 70
8
 71
3
 72
8
 73
4
 74
0
 40
0
 40
0
 40
0
 40
0
 40
1
 40
1
 40
1
 40
1
 10
2.156818
 20
68.033479
 30
0.0
 10
2.174880
 20
68.033479
 30
0.0
 10
2.192948
 20
68.033479
 30
0.0
 10
2.211021
 20
68.033479
 30
0.0
  0
SPLINE
  5
182
100
AcDbEntity
  8
0
 62
7
100
AcDbSpline
 70
8
 71
3
 72
8
 73
4
 74
0
 40
0
 40
0
 40
0
 40
0
 40
1
 40
1
 40
1
 40
1
 10
2.211021
 20
68.033479
 30
0.0
 10
2.227541
 20
68.033479
 30
0.0
 10
2.244059
 20
68.033479
 30
0.0
 10
2.260577
 20
68.033479
 30
0.0
  0
SPLINE
  5
183
100
AcDbEntity
  8
0
 62
7
100
AcDbSpline
 70
8
 71
3
 72
8
 73
4
 74
0
 40
0
 40
0
 40
0
 40
0
 40
1
 40
1
 40
1
 40
1
 10
2.260577
 20
68.033479
 30
0.0
 10
2.275346
 20
68.033479
 30
0.0
 10
2.290109
 20
68.033479
 30
0.0
 10
2.304866
 20
68.033479
 30
0.0
  0
SPLINE
  5
184
100
AcDbEntity
  8
0
 62
7
100
AcDbSpline
 70
8
 71
3
 72
8
 73
4
 74
0
 40
0
 40
0
 40
0
 40
0
 40
1
 40
1
 40
1
 40
1
 10
2.304866
 20
68.033479
 30
0.0
 10
2.317679
 20
68.033479
 30
0.0
 10
2.330498
 20
68.033479
 30
0.0
 10
2.343324
 20
68.033479
 30
0.0
  0
SPLINE
  5
185
100
AcDbEntity
  8
0
 62
7
100
AcDbSpline
 70
8
 71
3
 72
8
 73
4
 74
0
 40
0
 40
0
 40
0
 40
0
 40
1
 40
1
 40
1
 40
1
 10
2.343324
 20
68.033479
 30
0.0
 10
2.354049
 20
68.033479
 30
0.0
 10
2.364765
 20
68.033479
 30
0.0
 10
2.375472
 20
68.033479
 30
0.0
  0
SPLINE
  5
186
100
AcDbEntity
  8
0
 62
7
100
AcDbSpline
 70
8
 71
3
 72
8
 73
4
 74
0
 40
0
 40
0
 40
0
 40
0
 40
1
 40
1
 40
1
 40
1
 10
2.375472
 20
68.033479
 30
0.0
 10
2.383958
 20
68.033479
 30
0.0
 10
2.392434
 20
68.033479
 30
0.0
 10
2.400900
 20
68.033479
 30
0.0
  0
SPLINE
  5
187
100
AcDbEntity
  8
0
 62
7
100
AcDbSpline
 70
8
 71
3
 72
8
 73
4
 74
0
 40
0
 40
0
 40
0
 40
0
 40
1
 40
1
 40
1
 40
1
 10
2.400900
 20
68.033479
 30
0.0
 10
2.407034
 20
68.033479
 30
0.0
 10
2.413168
 20
68.033479
 30
0.0
 10
2.419301
 20
68.033479
 30
0.0
  0
SPLINE
  5
188
100
AcDbEntity
  8
0
 62
7
100
AcDbSpline
 70
8
 71
3
 72
8
 73
4
 74
0
 40
0
 40
0
 40
0
 40
0
 40
1
 40
1
 40
1
 40
1
 10
2.419301
 20
68.033479
 30
0.0
 10
2.423008
 20
68.033479
 30
0.0
 10
2.426714
 20
68.033479
 30
0.0
 10
2.430421
 20
68.033479
 30
0.0
  0
SPLINE
  5
189
100
AcDbEntity
  8
0
 62
7
100
AcDbSpline
 70
8
 71
3
 72
8
 73
4
 74
0
 40
0
 40
0
 40
0
 40
0
 40
1
 40
1
 40
1
 40
1
 10
2.430421
 20
68.033479
 30
0.0
 10
2.431738
 20
68.033479
 30
0.0
 10
2.432980
 20
68.033479
 30
0.0
 10
2.434146
 20
68.033479
 30
0.0
  0
LINE
  5
18a
100
AcDbEntity
  8
0
 62
7
100
AcDbLine
 10
2.434166
 20
68.033479
 30
0.0
 11
2.419321
 21
68.033479
 31
0.0
  0
LINE
  5
18b
100
AcDbEntity
  8
0
 62
7
100
AcDbLine
 10
2.419321
 20
68.033479
 30
0.0
 11
2.375486
 21
68.033479
 31
0.0
  0
LINE
  5
18c
100
AcDbEntity
  8
0
 62
7
100
AcDbLine
 10
2.375486
 20
68.033479
 30
0.0
 11
2.304880
 21
68.033479
 31
0.0
  0
LINE
  5
18d
100
AcDbEntity
  8
0
 62
7
100
AcDbLine
 10
2.304880
 20
68.033479
 30
0.0
 11
2.211035
 21
68.033479
 31
0.0
  0
LINE
  5
18e
100
AcDbEntity
  8
0
 62
7
100
AcDbLine
 10
2.211035
 20
68.033479
 30
0.0
 11
2.098663
 21
68.033479
 31
0.0
  0
LINE
  5
18f
100
AcDbEntity
  8
0
 62
7
100
AcDbLine
 10
2.098663
 20
68.033479
 30
0.0
 11
1.973393
 21
68.033479
 31
0.0
  0
LINE
  5
190
100
AcDbEntity
  8
0
 62
7
100
AcDbLine
 10
1.973393
 20
68.033479
 30
0.0
 11
1.841513
 21
68.033479
 31
0.0
  0
LINE
  5
191
100
AcDbEntity
  8
0
 62
7
100
AcDbLine
 10
1.841513
 20
68.033479
 30
0.0
 11
1.709634
 21
68.033479
 31
0.0
  0
LINE
  5
192
100
AcDbEntity
  8
0
 62
7
100
AcDbLine
 10
1.709634
 20
68.033479
 30
0.0
 11
1.584364
 21
68.033479
 31
0.0
  0
LINE
  5
193
100
AcDbEntity
  8
0
 62
7
100
AcDbLine
 10
1.584364
 20
68.033479
 30
0.0
 11
1.471991
 21
68.033479
 31
0.0
  0
LINE
  5
194
100
AcDbEntity
  8
0
 62
7
100
AcDbLine
 10
1.471991
 20
68.033479
 30
0.0
 11
1.378147
 21
68.033479
 31
0.0
  0
LINE
  5
195
100
AcDbEntity
  8
0
 62
7
100
AcDbLine
 10
1.378147
 20
68.033479
 30
0.0
 11
1.307540
 21
68.033479
 31
0.0
  0
LINE
  5
196
100
AcDbEntity
  8
0
 62
7
100
AcDbLine
 10
1.307540
 20
68.033479
 30
0.0
 11
1.263706
 21
68.033479
 31
0.0
  0
LINE
  5
197
100
AcDbEntity
  8
0
 62
7
100
AcDbLine
 10
1.263706
 20
68.033479
 30
0.0
 11
1.248861
 21
68.033479
 31
0.0
  0
SPLINE
  5
198
100
AcDbEntity
  8
0
 62
7
100
AcDbSpline
 70
8
 71
3
 72
8
 73
4
 74
0
 40
0
 40
0
 40
0
 40
0
 40
1
 40
1
 40
1
 40
1
 10
1.248833
 20
68.033479
 30
0.0
 10
1.250150
 20
68.033479
 30
0.0
 10
1.251391
 20
68.033479
 30
0.0
 10
1.252558
 20
68.033479
 30
0.0
  0
SPLINE
  5
199
100
AcDbEntity
  8
0
 62
7
100
AcDbSpline
 70
8
 71
3
 72
8
 73
4
 74
0
 40
0
 40
0
 40
0
 40
0
 40
1
 40
1
 40
1
 40
1
 10
1.252558
 20
68.033479
 30
0.0
 10
1.256264
 20
68.033479
 30
0.0
 10
1.259980
 20
68.033479
 30
0.0
 10
1.263706
 20
68.033479
 30
0.0
  0
SPLINE
  5
19a
100
AcDbEntity
  8
0
 62
7
100
AcDbSpline
 70
8
 71
3
 72
8
 73
4
 74
0
 40
0
 40
0
 40
0
 40
0
 40
1
 40
1
 40
1
 40
1
 10
1.263706
 20
68.033479
 30
0.0
 10
1.269839
 20
68.033479
 30
0.0
 10
1.275973
 20
68.033479
 30
0.0
 10
1.282107
 20
68.033479
 30
0.0
  0
SPLINE
  5
19b
100
AcDbEntity
  8
0
 62
7
100
AcDbSpline
 70
8
 71
3
 72
8
 73
4
 74
0
 40
0
 40
0
 40
0
 40
0
 40
1
 40
1
 40
1
 40
1
 10
1.282107
 20
68.033479
 30
0.0
 10
1.290592
 20
68.033479
 30
0.0
 10
1.299068
 20
68.033479
 30
0.0
 10
1.307535
 20
68.033479
 30
0.0
  0
SPLINE
  5
19c
100
AcDbEntity
  8
0
 62
7
100
AcDbSpline
 70
8
 71
3
 72
8
 73
4
 74
0
 40
0
 40
0
 40
0
 40
0
 40
1
 40
1
 40
1
 40
1
 10
1.307535
 20
68.033479
 30
0.0
 10
1.318259
 20
68.033479
 30
0.0
 10
1.328975
 20
68.033479
 30
0.0
 10
1.339683
 20
68.033479
 30
0.0
  0
SPLINE
  5
19d
100
AcDbEntity
  8
0
 62
7
100
AcDbSpline
 70
8
 71
3
 72
8
 73
4
 74
0
 40
0
 40
0
 40
0
 40
0
 40
1
 40
1
 40
1
 40
1
 10
1.339683
 20
68.033479
 30
0.0
 10
1.352496
 20
68.033479
 30
0.0
 10
1.365315
 20
68.033479
 30
0.0
 10
1.378141
 20
68.033479
 30
0.0
  0
SPLINE
  5
19e
100
AcDbEntity
  8
0
 62
7
100
AcDbSpline
 70
8
 71
3
 72
8
 73
4
 74
0
 40
0
 40
0
 40
0
 40
0
 40
1
 40
1
 40
1
 40
1
 10
1.378141
 20
68.033479
 30
0.0
 10
1.392911
 20
68.033479
 30
0.0
 10
1.407674
 20
68.033479
 30
0.0
 10
1.422430
 20
68.033479
 30
0.0
  0
SPLINE
  5
19f
100
AcDbEntity
  8
0
 62
7
100
AcDbSpline
 70
8
 71
3
 72
8
 73
4
 74
0
 40
0
 40
0
 40
0
 40
0
 40
1
 40
1
 40
1
 40
1
 10
1.422430
 20
68.033479
 30
0.0
 10
1.438950
 20
68.033479
 30
0.0
 10
1.455468
 20
68.033479
 30
0.0
 10
1.471986
 20
68.033479
 30
0.0
  0
SPLINE
  5
1a0
100
AcDbEntity
  8
0
 62
7
100
AcDbSpline
 70
8
 71
3
 72
8
 73
4
 74
0
 40
0
 40
0
 40
0
 40
0
 40
1
 40
1
 40
1
 40
1
 10
1.471986
 20
68.033479
 30
0.0
 10
1.490048
 20
68.033479
 30
0.0
 10
1.508116
 20
68.033479
 30
0.0
 10
1.526189
 20
68.033479
 30
0.0
  0
SPLINE
  5
1a1
100
AcDbEntity
  8
0
 62
7
100
AcDbSpline
 70
8
 71
3
 72
8
 73
4
 74
0
 40
0
 40
0
 40
0
 40
0
 40
1
 40
1
 40
1
 40
1
 10
1.526189
 20
68.033479
 30
0.0
 10
1.545580
 20
68.033479
 30
0.0
 10
1.564969
 20
68.033479
 30
0.0
 10
1.584358
 20
68.033479
 30
0.0
  0
SPLINE
  5
1a2
100
AcDbEntity
  8
0
 62
7
100
AcDbSpline
 70
8
 71
3
 72
8
 73
4
 74
0
 40
0
 40
0
 40
0
 40
0
 40
1
 40
1
 40
1
 40
1
 10
1.584358
 20
68.033479
 30
0.0
 10
1.604827
 20
68.033479
 30
0.0
 10
1.625294
 20
68.033479
 30
0.0
 10
1.645761
 20
68.033479
 30
0.0
  0
SPLINE
  5
1a3
100
AcDbEntity
  8
0
 62
7
100
AcDbSpline
 70
8
 71
3
 72
8
 73
4
 74
0
 40
0
 40
0
 40
0
 40
0
 40
1
 40
1
 40
1
 40
1
 10
1.645761
 20
68.033479
 30
0.0
 10
1.667050
 20
68.033479
 30
0.0
 10
1.688339
 20
68.033479
 30
0.0
 10
1.709628
 20
68.033479
 30
0.0
  0
SPLINE
  5
1a4
100
AcDbEntity
  8
0
 62
7
100
AcDbSpline
 70
8
 71
3
 72
8
 73
4
 74
0
 40
0
 40
0
 40
0
 40
0
 40
1
 40
1
 40
1
 40
1
 10
1.709628
 20
68.033479
 30
0.0
 10
1.753154
 20
68.033479
 30
0.0
 10
1.797114
 20
68.033479
 30
0.0
 10
1.841508
 20
68.033479
 30
0.0
  0
LINE
  5
1a5
100
AcDbEntity
  8
0
 62
7
100
AcDbLine
 10
0.049388
 20
60.865034
 30
0.0
 11
0.049388
 21
68.033479
 31
0.0
  0
SPLINE
  5
1a6
100
AcDbEntity
  8
0
 62
7
100
AcDbSpline
 70
8
 71
3
 72
8
 73
4
 74
0
 40
0
 40
0
 40
0
 40
0
 40
1
 40
1
 40
1
 40
1
 10
3.633610
 20
66.495368
 30
0.0
 10
2.503574
 20
66.495368
 30
0.0
 10
1.587499
 20
65.579292
 30
0.0
 10
1.587499
 20
64.449256
 30
0.0
  0
SPLINE
  5
1a7
100
AcDbEntity
  8
0
 62
7
100
AcDbSpline
 70
8
 71
3
 72
8
 73
4
 74
0
 40
0
 40
0
 40
0
 40
0
 40
1
 40
1
 40
1
 40
1
 10
1.587499
 20
64.449256
 30
0.0
 10
1.587499
 20
63.319221
 30
0.0
 10
2.503574
 20
62.403145
 30
0.0
 10
3.633610
 20
62.403145
 30
0.0
  0
SPLINE
  5
1a8
100
AcDbEntity
  8
0
 62
7
100
AcDbSpline
 70
8
 71
3
 72
8
 73
4
 74
0
 40
0
 40
0
 40
0
 40
0
 40
1
 40
1
 40
1
 40
1
 10
3.633610
 20
62.403145
 30
0.0
 10
4.763646
 20
62.403145
 30
0.0
 10
5.679721
 20
63.319221
 30
0.0
 10
5.679721
 20
64.449256
 30
0.0
  0
SPLINE
  5
1a9
100
AcDbEntity
  8
0
 62
7
100
AcDbSpline
 70
8
 71
3
 72
8
 73
4
 74
0
 40
0
 40
0
 40
0
 40
0
 40
1
 40
1
 40
1
 40
1
 10
5.679721
 20
64.449256
 30
0.0
 10
5.679721
 20
65.579292
 30
0.0
 10
4.763646
 20
66.495368
 30
0.0
 10
3.633610
 20
66.495368
 30
0.0
  0
LINE
  5
1aa
100
AcDbEntity
  8
0
 62
7
100
AcDbLine
 10
3.633610
 20
66.495368
 30
0.0
 11
3.633610
 21
66.495368
 31
0.0
  0
SPLINE
  5
1ab
100
AcDbEntity
  8
0
 62
7
100
AcDbSpline
 70
8
 71
3
 72
8
 73
4
 74
0
 40
0
 40
0
 40
0
 40
0
 40
1
 40
1
 40
1
 40
1
 10
3.633610
 20
66.495368
 30
0.0
 10
2.503574
 20
66.495368
 30
0.0
 10
1.587499
 20
65.579292
 30
0.0
 10
1.587499
 20
64.449256
 30
0.0
  0
SPLINE
  5
1ac
100
AcDbEntity
  8
0
 62
7
100
AcDbSpline
 70
8
 71
3
 72
8
 73
4
 74
0
 40
0
 40
0
 40
0
 40
0
 40
1
 40
1
 40
1
 40
1
 10
1.587499
 20
64.449256
 30
0.0
 10
1.587499
 20
63.319221
 30
0.0
 10
2.503574
 20
62.403145
 30
0.0
 10
3.633610
 20
62.403145
 30
0.0
  0
SPLINE
  5
1ad
100
AcDbEntity
  8
0
 62
7
100
AcDbSpline
 70
8
 71
3
 72
8
 73
4
 74
0
 40
0
 40
0
 40
0
 40
0
 40
1
 40
1
 40
1
 40
1
 10
3.633610
 20
62.403145
 30
0.0
 10
4.763646
 20
62.403145
 30
0.0
 10
5.679721
 20
63.319221
 30
0.0
 10
5.679721
 20
64.449256
 30
0.0
  0
SPLINE
  5
1ae
100
AcDbEntity
  8
0
 62
7
100
AcDbSpline
 70
8
 71
3
 72
8
 73
4
 74
0
 40
0
 40
0
 40
0
 40
0
 40
1
 40
1
 40
1
 40
1
 10
5.679721
 20
64.449256
 30
0.0
 10
5.679721
 20
65.579292
 30
0.0
 10
4.763646
 20
66.495368
 30
0.0
 10
3.633610
 20
66.495368
 30
0.0
  0
LINE
  5
1af
100
AcDbEntity
  8
0
 62
7
100
AcDbLine
 10
3.633610
 20
66.495368
 30
0.0
 11
3.633610
 21
66.495368
 31
0.0
  0
LINE
  5
1b0
100
AcDbEntity
  8
0
 62
7
100
AcDbLine
 10
6.018388
 20
65.345312
 30
0.0
 11
6.018388
 21
68.033479
 31
0.0
  0
LINE
  5
1b1
100
AcDbEntity
  8
0
 62
7
100
AcDbLine
 10
4.833055
 20
65.345312
 30
0.0
 11
4.833055
 21
68.033479
 31
0.0
  0
LINE
  5
1b2
100
AcDbEntity
  8
0
 62
7
100
AcDbLine
 10
2.434166
 20
65.345312
 30
0.0
 11
2.434166
 21
68.033479
 31
0.0
  0
LINE
  5
1b3
100
AcDbEntity
  8
0
 62
7
100
AcDbLine
 10
1.248833
 20
65.345312
 30
0.0
 11
1.248833
 21
68.033479
 31
0.0
  0
LINE
  5
1b4
100
AcDbEntity
  8
0
 62
7
100
AcDbLine
 10
7.217832
 20
60.865034
 30
0.0
 11
7.217832
 21
64.001229
 31
0.0
  0
LINE
  5
1b5
100
AcDbEntity
  8
0
 62
7
100
AcDbLine
 10
7.217832
 20
65.345312
 30
0.0
 11
7.217832
 21
64.001229
 31
0.0
  0
LINE
  5
1b6
100
AcDbEntity
  8
0
 62
7
100
AcDbLine
 10
7.217832
 20
65.345312
 30
0.0
 11
7.217832
 21
68.033479
 31
0.0
  0
LINE
  5
1b7
100
AcDbEntity
  8
0
 62
7
100
AcDbLine
 10
7.217832
 20
60.865034
 30
0.0
 11
0.049388
 21
60.865034
 31
0.0
  0
LINE
  5
1b8
100
AcDbEntity
  8
0
 62
7
100
AcDbLine
 10
0.049388
 20
60.865034
 30
0.0
 11
0.049388
 21
64.001229
 31
0.0
  0
LINE
  5
1b9
100
AcDbEntity
  8
0
 62
7
100
AcDbLine
 10
7.217832
 20
64.001229
 30
0.0
 11
0.049388
 21
64.001229
 31
0.0
  0
LINE
  5
1ba
100
AcDbEntity
  8
0
 62
7
100
AcDbLine
 10
0.049388
 20
64.001229
 30
0.0
 11
0.049388
 21
65.345312
 31
0.0
  0
LINE
  5
1bb
100
AcDbEntity
  8
0
 62
7
100
AcDbLine
 10
0.049388
 20
65.345312
 30
0.0
 11
7.217832
 21
65.345312
 31
0.0
  0
LINE
  5
1bc
100
AcDbEntity
  8
0
 62
7
100
AcDbLine
 10
0.049388
 20
65.345312
 30
0.0
 11
0.049388
 21
68.033479
 31
0.0
  0
LINE
  5
1bd
100
AcDbEntity
  8
0
 62
7
100
AcDbLine
 10
7.217832
 20
68.033479
 30
0.0
 11
0.049388
 21
68.033479
 31
0.0
  0
LINE
  5
1be
100
AcDbEntity
  8
0
 62
7
100
AcDbLine
 10
21.026046
 20
78.825273
 30
0.0
 11
26.094912
 21
75.898763
 31
0.0
  0
LINE
  5
1bf
100
AcDbEntity
  8
0
 62
7
100
AcDbLine
 10
15.039204
 20
75.368762
 30
0.0
 11
21.026046
 21
78.825273
 31
0.0
  0
LINE
  5
1c0
100
AcDbEntity
  8
0
 62
7
100
AcDbLine
 10
15.989621
 20
78.478197
 30
0.0
 11
16.535924
 21
78.793599
 31
0.0
  0
LINE
  5
1c1
100
AcDbEntity
  8
0
 62
7
100
AcDbLine
 10
16.535924
 20
78.793599
 30
0.0
 11
20.654370
 21
76.415813
 31
0.0
  0
LINE
  5
1c2
100
AcDbEntity
  8
0
 62
7
100
AcDbLine
 10
16.535924
 20
78.793599
 30
0.0
 11
16.535918
 21
79.891041
 31
0.0
  0
LINE
  5
1c3
100
AcDbEntity
  8
0
 62
7
100
AcDbLine
 10
16.535918
 20
79.891041
 30
0.0
 11
21.604779
 21
76.964534
 31
0.0
  0
LINE
  5
1c4
100
AcDbEntity
  8
0
 62
7
100
AcDbLine
 10
16.535918
 20
79.891041
 30
0.0
 11
15.039226
 21
79.026907
 31
0.0
  0
SPLINE
  5
1c5
100
AcDbEntity
  8
0
 62
7
100
AcDbSpline
 70
8
 71
3
 72
8
 73
4
 74
0
 40
0
 40
0
 40
0
 40
0
 40
1
 40
1
 40
1
 40
1
 10
19.170130
 20
77.022135
 30
0.0
 10
19.339630
 20
76.924275
 30
0.0
 10
19.594542
 20
76.895001
 30
0.0
 10
19.816004
 20
76.947962
 30
0.0
  0
SPLINE
  5
1c6
100
AcDbEntity
  8
0
 62
7
100
AcDbSpline
 70
8
 71
3
 72
8
 73
4
 74
0
 40
0
 40
0
 40
0
 40
0
 40
1
 40
1
 40
1
 40
1
 10
19.816004
 20
76.947962
 30
0.0
 10
20.037466
 20
77.000922
 30
0.0
 10
20.181865
 20
77.125689
 30
0.0
 10
20.181871
 20
77.264085
 30
0.0
  0
SPLINE
  5
1c7
100
AcDbEntity
  8
0
 62
7
100
AcDbSpline
 70
8
 71
3
 72
8
 73
4
 74
0
 40
0
 40
0
 40
0
 40
0
 40
1
 40
1
 40
1
 40
1
 10
20.181871
 20
77.264085
 30
0.0
 10
20.182116
 20
77.386427
 30
0.0
 10
20.069208
 20
77.499537
 30
0.0
 10
19.885736
 20
77.560749
 30
0.0
  0
SPLINE
  5
1c8
100
AcDbEntity
  8
0
 62
7
100
AcDbSpline
 70
8
 71
3
 72
8
 73
4
 74
0
 40
0
 40
0
 40
0
 40
0
 40
1
 40
1
 40
1
 40
1
 10
19.885736
 20
77.560749
 30
0.0
 10
19.702264
 20
77.621961
 30
0.0
 10
19.476146
 20
77.621961
 30
0.0
 10
19.292674
 20
77.560749
 30
0.0
  0
SPLINE
  5
1c9
100
AcDbEntity
  8
0
 62
7
100
AcDbSpline
 70
8
 71
3
 72
8
 73
4
 74
0
 40
0
 40
0
 40
0
 40
0
 40
1
 40
1
 40
1
 40
1
 10
19.292674
 20
77.560749
 30
0.0
 10
19.109202
 20
77.499537
 30
0.0
 10
18.996293
 20
77.386428
 30
0.0
 10
18.996538
 20
77.264086
 30
0.0
  0
SPLINE
  5
1ca
100
AcDbEntity
  8
0
 62
7
100
AcDbSpline
 70
8
 71
3
 72
8
 73
4
 74
0
 40
0
 40
0
 40
0
 40
0
 40
1
 40
1
 40
1
 40
1
 10
18.996538
 20
77.264086
 30
0.0
 10
18.996541
 20
77.173336
 30
0.0
 10
19.058984
 20
77.086304
 30
0.0
 10
19.170130
 20
77.022135
 30
0.0
  0
SPLINE
  5
1cb
100
AcDbEntity
  8
0
 62
7
100
AcDbSpline
 70
8
 71
3
 72
8
 73
4
 74
0
 40
0
 40
0
 40
0
 40
0
 40
1
 40
1
 40
1
 40
1
 10
16.635695
 20
78.485391
 30
0.0
 10
16.805194
 20
78.387528
 30
0.0
 10
17.060108
 20
78.358251
 30
0.0
 10
17.281573
 20
78.411211
 30
0.0
  0
SPLINE
  5
1cc
100
AcDbEntity
  8
0
 62
7
100
AcDbSpline
 70
8
 71
3
 72
8
 73
4
 74
0
 40
0
 40
0
 40
0
 40
0
 40
1
 40
1
 40
1
 40
1
 10
17.281573
 20
78.411211
 30
0.0
 10
17.503038
 20
78.464172
 30
0.0
 10
17.647440
 20
78.588940
 30
0.0
 10
17.647445
 20
78.727337
 30
0.0
  0
SPLINE
  5
1cd
100
AcDbEntity
  8
0
 62
7
100
AcDbSpline
 70
8
 71
3
 72
8
 73
4
 74
0
 40
0
 40
0
 40
0
 40
0
 40
1
 40
1
 40
1
 40
1
 10
17.647445
 20
78.727337
 30
0.0
 10
17.647445
 20
78.849585
 30
0.0
 10
17.534483
 20
78.962547
 30
0.0
 10
17.351111
 20
79.023671
 30
0.0
  0
SPLINE
  5
1ce
100
AcDbEntity
  8
0
 62
7
100
AcDbSpline
 70
8
 71
3
 72
8
 73
4
 74
0
 40
0
 40
0
 40
0
 40
0
 40
1
 40
1
 40
1
 40
1
 10
17.351111
 20
79.023671
 30
0.0
 10
17.167739
 20
79.084795
 30
0.0
 10
16.941816
 20
79.084795
 30
0.0
 10
16.758444
 20
79.023670
 30
0.0
  0
SPLINE
  5
1cf
100
AcDbEntity
  8
0
 62
7
100
AcDbSpline
 70
8
 71
3
 72
8
 73
4
 74
0
 40
0
 40
0
 40
0
 40
0
 40
1
 40
1
 40
1
 40
1
 10
16.758444
 20
79.023670
 30
0.0
 10
16.575073
 20
78.962546
 30
0.0
 10
16.462111
 20
78.849584
 30
0.0
 10
16.462112
 20
78.727336
 30
0.0
  0
SPLINE
  5
1d0
100
AcDbEntity
  8
0
 62
7
100
AcDbSpline
 70
8
 71
3
 72
8
 73
4
 74
0
 40
0
 40
0
 40
0
 40
0
 40
1
 40
1
 40
1
 40
1
 10
16.462112
 20
78.727336
 30
0.0
 10
16.462116
 20
78.636589
 30
0.0
 10
16.524555
 20
78.549559
 30
0.0
 10
16.635695
 20
78.485391
 30
0.0
  0
LINE
  5
1d1
100
AcDbEntity
  8
0
 62
7
100
AcDbLine
 10
21.026046
 20
78.825273
 30
0.0
 11
21.026037
 21
84.678291
 31
0.0
  0
SPLINE
  5
1d2
100
AcDbEntity
  8
0
 62
7
100
AcDbSpline
 70
8
 71
3
 72
8
 73
4
 74
0
 40
0
 40
0
 40
0
 40
0
 40
1
 40
1
 40
1
 40
1
 10
22.113657
 20
81.123848
 30
0.0
 10
22.113657
 20
81.566930
 30
0.0
 10
22.266089
 20
81.903857
 30
0.0
 10
22.537419
 20
82.060511
 30
0.0
  0
SPLINE
  5
1d3
100
AcDbEntity
  8
0
 62
7
100
AcDbSpline
 70
8
 71
3
 72
8
 73
4
 74
0
 40
0
 40
0
 40
0
 40
0
 40
1
 40
1
 40
1
 40
1
 10
22.537419
 20
82.060511
 30
0.0
 10
23.102556
 20
82.385852
 30
0.0
 10
24.018062
 20
81.856904
 30
0.0
 10
24.582792
 20
80.878763
 30
0.0
  0
SPLINE
  5
1d4
100
AcDbEntity
  8
0
 62
7
100
AcDbSpline
 70
8
 71
3
 72
8
 73
4
 74
0
 40
0
 40
0
 40
0
 40
0
 40
1
 40
1
 40
1
 40
1
 10
24.582792
 20
80.878763
 30
0.0
 10
25.147522
 20
79.900622
 30
0.0
 10
25.147853
 20
78.843296
 30
0.0
 10
24.583530
 20
78.516543
 30
0.0
  0
SPLINE
  5
1d5
100
AcDbEntity
  8
0
 62
7
100
AcDbSpline
 70
8
 71
3
 72
8
 73
4
 74
0
 40
0
 40
0
 40
0
 40
0
 40
1
 40
1
 40
1
 40
1
 10
24.583530
 20
78.516543
 30
0.0
 10
24.169743
 20
78.277644
 30
0.0
 10
23.547441
 20
78.493998
 30
0.0
 10
23.006802
 20
79.064720
 30
0.0
  0
SPLINE
  5
1d6
100
AcDbEntity
  8
0
 62
7
100
AcDbSpline
 70
8
 71
3
 72
8
 73
4
 74
0
 40
0
 40
0
 40
0
 40
0
 40
1
 40
1
 40
1
 40
1
 10
23.006802
 20
79.064720
 30
0.0
 10
22.466163
 20
79.635441
 30
0.0
 10
22.113657
 20
80.448137
 30
0.0
 10
22.113657
 20
81.123848
 30
0.0
  0
SPLINE
  5
1d7
100
AcDbEntity
  8
0
 62
7
100
AcDbSpline
 70
8
 71
3
 72
8
 73
4
 74
0
 40
0
 40
0
 40
0
 40
0
 40
1
 40
1
 40
1
 40
1
 10
18.721123
 20
79.165165
 30
0.0
 10
18.721122
 20
79.608243
 30
0.0
 10
18.873552
 20
79.945170
 30
0.0
 10
19.144879
 20
80.101825
 30
0.0
  0
SPLINE
  5
1d8
100
AcDbEntity
  8
0
 62
7
100
AcDbSpline
 70
8
 71
3
 72
8
 73
4
 74
0
 40
0
 40
0
 40
0
 40
0
 40
1
 40
1
 40
1
 40
1
 10
19.144879
 20
80.101825
 30
0.0
 10
19.710147
 20
80.426202
 30
0.0
 10
20.625023
 20
79.897196
 30
0.0
 10
21.189434
 20
78.919609
 30
0.0
  0
SPLINE
  5
1d9
100
AcDbEntity
  8
0
 62
7
100
AcDbSpline
 70
8
 71
3
 72
8
 73
4
 74
0
 40
0
 40
0
 40
0
 40
0
 40
1
 40
1
 40
1
 40
1
 10
21.189434
 20
78.919609
 30
0.0
 10
21.753845
 20
77.942021
 30
0.0
 10
21.754542
 20
76.885212
 30
0.0
 10
21.190991
 20
76.557862
 30
0.0
  0
SPLINE
  5
1da
100
AcDbEntity
  8
0
 62
7
100
AcDbSpline
 70
8
 71
3
 72
8
 73
4
 74
0
 40
0
 40
0
 40
0
 40
0
 40
1
 40
1
 40
1
 40
1
 10
21.190991
 20
76.557862
 30
0.0
 10
20.777202
 20
76.318968
 30
0.0
 10
20.154903
 20
76.535323
 30
0.0
 10
19.614266
 20
77.106043
 30
0.0
  0
SPLINE
  5
1db
100
AcDbEntity
  8
0
 62
7
100
AcDbSpline
 70
8
 71
3
 72
8
 73
4
 74
0
 40
0
 40
0
 40
0
 40
0
 40
1
 40
1
 40
1
 40
1
 10
19.614266
 20
77.106043
 30
0.0
 10
19.073630
 20
77.676763
 30
0.0
 10
18.721125
 20
78.489455
 30
0.0
 10
18.721123
 20
79.165165
 30
0.0
  0
LINE
  5
1dc
100
AcDbEntity
  8
0
 62
7
100
AcDbLine
 10
20.181871
 20
77.264085
 30
0.0
 11
20.181874
 21
79.458965
 31
0.0
  0
LINE
  5
1dd
100
AcDbEntity
  8
0
 62
7
100
AcDbLine
 10
18.996538
 20
77.264086
 30
0.0
 11
18.996532
 21
79.458970
 31
0.0
  0
LINE
  5
1de
100
AcDbEntity
  8
0
 62
7
100
AcDbLine
 10
17.647445
 20
78.727337
 30
0.0
 11
17.647437
 21
80.922223
 31
0.0
  0
LINE
  5
1df
100
AcDbEntity
  8
0
 62
7
100
AcDbLine
 10
16.462112
 20
78.727336
 30
0.0
 11
16.462106
 21
80.922222
 31
0.0
  0
LINE
  5
1e0
100
AcDbEntity
  8
0
 62
7
100
AcDbLine
 10
21.190991
 20
76.557862
 30
0.0
 11
24.583530
 21
78.516543
 31
0.0
  0
LINE
  5
1e1
100
AcDbEntity
  8
0
 62
7
100
AcDbLine
 10
19.144879
 20
80.101825
 30
0.0
 11
22.537419
 21
82.060511
 31
0.0
  0
LINE
  5
1e2
100
AcDbEntity
  8
0
 62
7
100
AcDbLine
 10
26.094912
 20
75.898763
 30
0.0
 11
20.108059
 21
72.442257
 31
0.0
  0
LINE
  5
1e3
100
AcDbEntity
  8
0
 62
7
100
AcDbLine
 10
20.108059
 20
72.442257
 30
0.0
 11
20.108070
 21
75.002968
 31
0.0
  0
LINE
  5
1e4
100
AcDbEntity
  8
0
 62
7
100
AcDbLine
 10
21.604779
 20
75.867094
 30
0.0
 11
20.108070
 21
75.002968
 31
0.0
  0
LINE
  5
1e5
100
AcDbEntity
  8
0
 62
7
100
AcDbLine
 10
21.604779
 20
76.964534
 30
0.0
 11
21.604779
 21
75.867094
 31
0.0
  0
LINE
  5
1e6
100
AcDbEntity
  8
0
 62
7
100
AcDbLine
 10
20.108070
 20
76.100408
 30
0.0
 11
21.604779
 21
76.964534
 31
0.0
  0
LINE
  5
1e7
100
AcDbEntity
  8
0
 62
7
100
AcDbLine
 10
20.108070
 20
76.100408
 30
0.0
 11
20.108070
 21
78.295290
 31
0.0
  0
LINE
  5
1e8
100
AcDbEntity
  8
0
 62
7
100
AcDbLine
 10
26.094904
 20
81.751781
 30
0.0
 11
20.108070
 21
78.295290
 31
0.0
  0
LINE
  5
1e9
100
AcDbEntity
  8
0
 62
7
100
AcDbLine
 10
26.094912
 20
75.898763
 30
0.0
 11
26.094904
 21
81.751781
 31
0.0
  0
LINE
  5
1ea
100
AcDbEntity
  8
0
 62
7
100
AcDbLine
 10
20.108059
 20
72.442257
 30
0.0
 11
15.039204
 21
75.368762
 31
0.0
  0
LINE
  5
1eb
100
AcDbEntity
  8
0
 62
7
100
AcDbLine
 10
15.039204
 20
75.368762
 30
0.0
 11
15.039204
 21
77.929478
 31
0.0
  0
LINE
  5
1ec
100
AcDbEntity
  8
0
 62
7
100
AcDbLine
 10
20.108070
 20
75.002968
 30
0.0
 11
15.039204
 21
77.929478
 31
0.0
  0
LINE
  5
1ed
100
AcDbEntity
  8
0
 62
7
100
AcDbLine
 10
15.039204
 20
77.929478
 30
0.0
 11
15.989621
 21
78.478197
 31
0.0
  0
LINE
  5
1ee
100
AcDbEntity
  8
0
 62
7
100
AcDbLine
 10
20.654370
 20
76.415813
 30
0.0
 11
21.604779
 21
75.867094
 31
0.0
  0
LINE
  5
1ef
100
AcDbEntity
  8
0
 62
7
100
AcDbLine
 10
15.039226
 20
79.026907
 30
0.0
 11
20.108070
 21
76.100408
 31
0.0
  0
LINE
  5
1f0
100
AcDbEntity
  8
0
 62
7
100
AcDbLine
 10
15.039226
 20
79.026907
 30
0.0
 11
15.039218
 21
81.221793
 31
0.0
  0
LINE
  5
1f1
100
AcDbEntity
  8
0
 62
7
100
AcDbLine
 10
20.108070
 20
78.295290
 30
0.0
 11
15.039218
 21
81.221793
 31
0.0
  0
LINE
  5
1f2
100
AcDbEntity
  8
0
 62
7
100
AcDbLine
 10
21.026037
 20
84.678291
 30
0.0
 11
26.094904
 21
81.751781
 31
0.0
  0
LINE
  5
1f3
100
AcDbEntity
  8
0
 62
7
100
AcDbLine
 10
15.039218
 20
81.221793
 30
0.0
 11
21.026037
 21
84.678291
 31
0.0
  0
SPLINE
  5
1f4
100
AcDbEntity
  8
0
 62
7
100
AcDbSpline
 70
8
 71
3
 72
8
 73
4
 74
0
 40
0
 40
0
 40
0
 40
0
 40
1
 40
1
 40
1
 40
1
 10
19.170141
 20
79.217011
 30
0.0
 10
19.339643
 20
79.119154
 30
0.0
 10
19.594553
 20
79.089882
 30
0.0
 10
19.816012
 20
79.142844
 30
0.0
  0
SPLINE
  5
1f5
100
AcDbEntity
  8
0
 62
7
100
AcDbSpline
 70
8
 71
3
 72
8
 73
4
 74
0
 40
0
 40
0
 40
0
 40
0
 40
1
 40
1
 40
1
 40
1
 10
19.816012
 20
79.142844
 30
0.0
 10
20.037471
 20
79.195805
 30
0.0
 10
20.181868
 20
79.320571
 30
0.0
 10
20.181874
 20
79.458965
 30
0.0
  0
SPLINE
  5
1f6
100
AcDbEntity
  8
0
 62
7
100
AcDbSpline
 70
8
 71
3
 72
8
 73
4
 74
0
 40
0
 40
0
 40
0
 40
0
 40
1
 40
1
 40
1
 40
1
 10
20.181874
 20
79.458965
 30
0.0
 10
20.181875
 20
79.581214
 30
0.0
 10
20.068914
 20
79.694178
 30
0.0
 10
19.885542
 20
79.755303
 30
0.0
  0
SPLINE
  5
1f7
100
AcDbEntity
  8
0
 62
7
100
AcDbSpline
 70
8
 71
3
 72
8
 73
4
 74
0
 40
0
 40
0
 40
0
 40
0
 40
1
 40
1
 40
1
 40
1
 10
19.885542
 20
79.755303
 30
0.0
 10
19.702170
 20
79.816428
 30
0.0
 10
19.476245
 20
79.816429
 30
0.0
 10
19.292871
 20
79.755305
 30
0.0
  0
SPLINE
  5
1f8
100
AcDbEntity
  8
0
 62
7
100
AcDbSpline
 70
8
 71
3
 72
8
 73
4
 74
0
 40
0
 40
0
 40
0
 40
0
 40
1
 40
1
 40
1
 40
1
 10
19.292871
 20
79.755305
 30
0.0
 10
19.109497
 20
79.694181
 30
0.0
 10
18.996534
 20
79.581219
 30
0.0
 10
18.996532
 20
79.458970
 30
0.0
  0
SPLINE
  5
1f9
100
AcDbEntity
  8
0
 62
7
100
AcDbSpline
 70
8
 71
3
 72
8
 73
4
 74
0
 40
0
 40
0
 40
0
 40
0
 40
1
 40
1
 40
1
 40
1
 10
18.996532
 20
79.458970
 30
0.0
 10
18.996536
 20
79.368216
 30
0.0
 10
19.058986
 20
79.281181
 30
0.0
 10
19.170141
 20
79.217011
 30
0.0
  0
SPLINE
  5
1fa
100
AcDbEntity
  8
0
 62
7
100
AcDbSpline
 70
8
 71
3
 72
8
 73
4
 74
0
 40
0
 40
0
 40
0
 40
0
 40
1
 40
1
 40
1
 40
1
 10
16.635712
 20
80.680263
 30
0.0
 10
16.805217
 20
80.582409
 30
0.0
 10
17.060125
 20
80.553139
 30
0.0
 10
17.281581
 20
80.606102
 30
0.0
  0
SPLINE
  5
1fb
100
AcDbEntity
  8
0
 62
7
100
AcDbSpline
 70
8
 71
3
 72
8
 73
4
 74
0
 40
0
 40
0
 40
0
 40
0
 40
1
 40
1
 40
1
 40
1
 10
17.281581
 20
80.606102
 30
0.0
 10
17.503036
 20
80.659064
 30
0.0
 10
17.647431
 20
80.783829
 30
0.0
 10
17.647437
 20
80.922223
 30
0.0
  0
SPLINE
  5
1fc
100
AcDbEntity
  8
0
 62
7
100
AcDbSpline
 70
8
 71
3
 72
8
 73
4
 74
0
 40
0
 40
0
 40
0
 40
0
 40
1
 40
1
 40
1
 40
1
 10
17.647437
 20
80.922223
 30
0.0
 10
17.646723
 20
81.110910
 30
0.0
 10
17.381586
 20
81.263653
 30
0.0
 10
17.054770
 20
81.263653
 30
0.0
  0
SPLINE
  5
1fd
100
AcDbEntity
  8
0
 62
7
100
AcDbSpline
 70
8
 71
3
 72
8
 73
4
 74
0
 40
0
 40
0
 40
0
 40
0
 40
1
 40
1
 40
1
 40
1
 10
17.054770
 20
81.263653
 30
0.0
 10
16.727955
 20
81.263653
 30
0.0
 10
16.462819
 20
81.110909
 30
0.0
 10
16.462106
 20
80.922222
 30
0.0
  0
SPLINE
  5
1fe
100
AcDbEntity
  8
0
 62
7
100
AcDbSpline
 70
8
 71
3
 72
8
 73
4
 74
0
 40
0
 40
0
 40
0
 40
0
 40
1
 40
1
 40
1
 40
1
 10
16.462106
 20
80.922222
 30
0.0
 10
16.462110
 20
80.831468
 30
0.0
 10
16.524558
 20
80.744432
 30
0.0
 10
16.635712
 20
80.680263
 30
0.0
  0
LINE
  5
1ff
100
AcDbEntity
  8
0
 62
7
100
AcDbLine
 10
16.333610
 20
60.865034
 30
0.0
 11
24.800277
 21
60.865034
 31
0.0
  0
LINE
  5
200
100
AcDbEntity
  8
0
 62
7
100
AcDbLine
 10
16.333610
 20
60.865034
 30
0.0
 11
16.333610
 21
64.001229
 31
0.0
  0
LINE
  5
201
100
AcDbEntity
  8
0
 62
7
100
AcDbLine
 10
16.333610
 20
64.001229
 30
0.0
 11
18.450277
 21
64.001229
 31
0.0
  0
LINE
  5
202
100
AcDbEntity
  8
0
 62
7
100
AcDbLine
 10
18.450277
 20
64.001229
 30
0.0
 11
18.450277
 21
65.345312
 31
0.0
  0
LINE
  5
203
100
AcDbEntity
  8
0
 62
7
100
AcDbLine
 10
18.450277
 20
65.345312
 30
0.0
 11
16.333610
 21
65.345312
 31
0.0
  0
LINE
  5
204
100
AcDbEntity
  8
0
 62
7
100
AcDbLine
 10
16.799277
 20
65.345312
 30
0.0
 11
16.814150
 21
65.345312
 31
0.0
  0
LINE
  5
205
100
AcDbEntity
  8
0
 62
7
100
AcDbLine
 10
16.814150
 20
65.345312
 30
0.0
 11
16.857979
 21
65.345312
 31
0.0
  0
LINE
  5
206
100
AcDbEntity
  8
0
 62
7
100
AcDbLine
 10
16.857979
 20
65.345312
 30
0.0
 11
16.928591
 21
65.345312
 31
0.0
  0
LINE
  5
207
100
AcDbEntity
  8
0
 62
7
100
AcDbLine
 10
16.928591
 20
65.345312
 30
0.0
 11
17.022430
 21
65.345312
 31
0.0
  0
LINE
  5
208
100
AcDbEntity
  8
0
 62
7
100
AcDbLine
 10
17.022430
 20
65.345312
 30
0.0
 11
17.134783
 21
65.345312
 31
0.0
  0
LINE
  5
209
100
AcDbEntity
  8
0
 62
7
100
AcDbLine
 10
17.134783
 20
65.345312
 30
0.0
 11
17.260061
 21
65.345312
 31
0.0
  0
LINE
  5
20a
100
AcDbEntity
  8
0
 62
7
100
AcDbLine
 10
17.260061
 20
65.345312
 30
0.0
 11
17.391944
 21
65.345312
 31
0.0
  0
LINE
  5
20b
100
AcDbEntity
  8
0
 62
7
100
AcDbLine
 10
17.391944
 20
65.345312
 30
0.0
 11
17.523826
 21
65.345312
 31
0.0
  0
LINE
  5
20c
100
AcDbEntity
  8
0
 62
7
100
AcDbLine
 10
17.523826
 20
65.345312
 30
0.0
 11
17.649104
 21
65.345312
 31
0.0
  0
LINE
  5
20d
100
AcDbEntity
  8
0
 62
7
100
AcDbLine
 10
17.649104
 20
65.345312
 30
0.0
 11
17.761457
 21
65.345312
 31
0.0
  0
LINE
  5
20e
100
AcDbEntity
  8
0
 62
7
100
AcDbLine
 10
17.761457
 20
65.345312
 30
0.0
 11
17.855296
 21
65.345312
 31
0.0
  0
LINE
  5
20f
100
AcDbEntity
  8
0
 62
7
100
AcDbLine
 10
17.855296
 20
65.345312
 30
0.0
 11
17.925908
 21
65.345312
 31
0.0
  0
LINE
  5
210
100
AcDbEntity
  8
0
 62
7
100
AcDbLine
 10
17.925908
 20
65.345312
 30
0.0
 11
17.969737
 21
65.345312
 31
0.0
  0
LINE
  5
211
100
AcDbEntity
  8
0
 62
7
100
AcDbLine
 10
17.969737
 20
65.345312
 30
0.0
 11
17.984610
 21
65.345312
 31
0.0
  0
LINE
  5
212
100
AcDbEntity
  8
0
 62
7
100
AcDbLine
 10
17.984610
 20
65.345312
 30
0.0
 11
17.969737
 21
65.345312
 31
0.0
  0
LINE
  5
213
100
AcDbEntity
  8
0
 62
7
100
AcDbLine
 10
17.969737
 20
65.345312
 30
0.0
 11
17.925908
 21
65.345312
 31
0.0
  0
LINE
  5
214
100
AcDbEntity
  8
0
 62
7
100
AcDbLine
 10
17.925908
 20
65.345312
 30
0.0
 11
17.855296
 21
65.345312
 31
0.0
  0
LINE
  5
215
100
AcDbEntity
  8
0
 62
7
100
AcDbLine
 10
17.855296
 20
65.345312
 30
0.0
 11
17.761457
 21
65.345312
 31
0.0
  0
LINE
  5
216
100
AcDbEntity
  8
0
 62
7
100
AcDbLine
 10
17.761457
 20
65.345312
 30
0.0
 11
17.649104
 21
65.345312
 31
0.0
  0
LINE
  5
217
100
AcDbEntity
  8
0
 62
7
100
AcDbLine
 10
17.649104
 20
65.345312
 30
0.0
 11
17.523826
 21
65.345312
 31
0.0
  0
LINE
  5
218
100
AcDbEntity
  8
0
 62
7
100
AcDbLine
 10
17.523826
 20
65.345312
 30
0.0
 11
17.391944
 21
65.345312
 31
0.0
  0
LINE
  5
219
100
AcDbEntity
  8
0
 62
7
100
AcDbLine
 10
17.391944
 20
65.345312
 30
0.0
 11
17.260061
 21
65.345312
 31
0.0
  0
LINE
  5
21a
100
AcDbEntity
  8
0
 62
7
100
AcDbLine
 10
17.260061
 20
65.345312
 30
0.0
 11
17.134783
 21
65.345312
 31
0.0
  0
LINE
  5
21b
100
AcDbEntity
  8
0
 62
7
100
AcDbLine
 10
17.134783
 20
65.345312
 30
0.0
 11
17.022430
 21
65.345312
 31
0.0
  0
LINE
  5
21c
100
AcDbEntity
  8
0
 62
7
100
AcDbLine
 10
17.022430
 20
65.345312
 30
0.0
 11
16.928591
 21
65.345312
 31
0.0
  0
LINE
  5
21d
100
AcDbEntity
  8
0
 62
7
100
AcDbLine
 10
16.928591
 20
65.345312
 30
0.0
 11
16.857979
 21
65.345312
 31
0.0
  0
LINE
  5
21e
100
AcDbEntity
  8
0
 62
7
100
AcDbLine
 10
16.857979
 20
65.345312
 30
0.0
 11
16.814150
 21
65.345312
 31
0.0
  0
LINE
  5
21f
100
AcDbEntity
  8
0
 62
7
100
AcDbLine
 10
16.814150
 20
65.345312
 30
0.0
 11
16.799277
 21
65.345312
 31
0.0
  0
LINE
  5
220
100
AcDbEntity
  8
0
 62
7
100
AcDbLine
 10
16.799277
 20
65.345312
 30
0.0
 11
16.814150
 21
65.345312
 31
0.0
  0
LINE
  5
221
100
AcDbEntity
  8
0
 62
7
100
AcDbLine
 10
16.814150
 20
65.345312
 30
0.0
 11
16.857979
 21
65.345312
 31
0.0
  0
LINE
  5
222
100
AcDbEntity
  8
0
 62
7
100
AcDbLine
 10
16.857979
 20
65.345312
 30
0.0
 11
16.928591
 21
65.345312
 31
0.0
  0
LINE
  5
223
100
AcDbEntity
  8
0
 62
7
100
AcDbLine
 10
16.928591
 20
65.345312
 30
0.0
 11
17.022430
 21
65.345312
 31
0.0
  0
LINE
  5
224
100
AcDbEntity
  8
0
 62
7
100
AcDbLine
 10
17.022430
 20
65.345312
 30
0.0
 11
17.134783
 21
65.345312
 31
0.0
  0
LINE
  5
225
100
AcDbEntity
  8
0
 62
7
100
AcDbLine
 10
17.134783
 20
65.345312
 30
0.0
 11
17.260061
 21
65.345312
 31
0.0
  0
LINE
  5
226
100
AcDbEntity
  8
0
 62
7
100
AcDbLine
 10
17.260061
 20
65.345312
 30
0.0
 11
17.391944
 21
65.345312
 31
0.0
  0
LINE
  5
227
100
AcDbEntity
  8
0
 62
7
100
AcDbLine
 10
17.391944
 20
65.345312
 30
0.0
 11
17.523826
 21
65.345312
 31
0.0
  0
LINE
  5
228
100
AcDbEntity
  8
0
 62
7
100
AcDbLine
 10
17.523826
 20
65.345312
 30
0.0
 11
17.649104
 21
65.345312
 31
0.0
  0
LINE
  5
229
100
AcDbEntity
  8
0
 62
7
100
AcDbLine
 10
17.649104
 20
65.345312
 30
0.0
 11
17.761457
 21
65.345312
 31
0.0
  0
LINE
  5
22a
100
AcDbEntity
  8
0
 62
7
100
AcDbLine
 10
17.761457
 20
65.345312
 30
0.0
 11
17.855296
 21
65.345312
 31
0.0
  0
LINE
  5
22b
100
AcDbEntity
  8
0
 62
7
100
AcDbLine
 10
17.855296
 20
65.345312
 30
0.0
 11
17.925908
 21
65.345312
 31
0.0
  0
LINE
  5
22c
100
AcDbEntity
  8
0
 62
7
100
AcDbLine
 10
17.925908
 20
65.345312
 30
0.0
 11
17.969737
 21
65.345312
 31
0.0
  0
LINE
  5
22d
100
AcDbEntity
  8
0
 62
7
100
AcDbLine
 10
17.969737
 20
65.345312
 30
0.0
 11
17.984610
 21
65.345312
 31
0.0
  0
LINE
  5
22e
100
AcDbEntity
  8
0
 62
7
100
AcDbLine
 10
17.984610
 20
65.345312
 30
0.0
 11
17.969737
 21
65.345312
 31
0.0
  0
LINE
  5
22f
100
AcDbEntity
  8
0
 62
7
100
AcDbLine
 10
17.969737
 20
65.345312
 30
0.0
 11
17.925908
 21
65.345312
 31
0.0
  0
LINE
  5
230
100
AcDbEntity
  8
0
 62
7
100
AcDbLine
 10
17.925908
 20
65.345312
 30
0.0
 11
17.855296
 21
65.345312
 31
0.0
  0
LINE
  5
231
100
AcDbEntity
  8
0
 62
7
100
AcDbLine
 10
17.855296
 20
65.345312
 30
0.0
 11
17.761457
 21
65.345312
 31
0.0
  0
LINE
  5
232
100
AcDbEntity
  8
0
 62
7
100
AcDbLine
 10
17.761457
 20
65.345312
 30
0.0
 11
17.649104
 21
65.345312
 31
0.0
  0
LINE
  5
233
100
AcDbEntity
  8
0
 62
7
100
AcDbLine
 10
17.649104
 20
65.345312
 30
0.0
 11
17.523826
 21
65.345312
 31
0.0
  0
LINE
  5
234
100
AcDbEntity
  8
0
 62
7
100
AcDbLine
 10
17.523826
 20
65.345312
 30
0.0
 11
17.391944
 21
65.345312
 31
0.0
  0
LINE
  5
235
100
AcDbEntity
  8
0
 62
7
100
AcDbLine
 10
17.391944
 20
65.345312
 30
0.0
 11
17.260061
 21
65.345312
 31
0.0
  0
LINE
  5
236
100
AcDbEntity
  8
0
 62
7
100
AcDbLine
 10
17.260061
 20
65.345312
 30
0.0
 11
17.134783
 21
65.345312
 31
0.0
  0
LINE
  5
237
100
AcDbEntity
  8
0
 62
7
100
AcDbLine
 10
17.134783
 20
65.345312
 30
0.0
 11
17.022430
 21
65.345312
 31
0.0
  0
LINE
  5
238
100
AcDbEntity
  8
0
 62
7
100
AcDbLine
 10
17.022430
 20
65.345312
 30
0.0
 11
16.928591
 21
65.345312
 31
0.0
  0
LINE
  5
239
100
AcDbEntity
  8
0
 62
7
100
AcDbLine
 10
16.928591
 20
65.345312
 30
0.0
 11
16.857979
 21
65.345312
 31
0.0
  0
LINE
  5
23a
100
AcDbEntity
  8
0
 62
7
100
AcDbLine
 10
16.857979
 20
65.345312
 30
0.0
 11
16.814150
 21
65.345312
 31
0.0
  0
LINE
  5
23b
100
AcDbEntity
  8
0
 62
7
100
AcDbLine
 10
16.814150
 20
65.345312
 30
0.0
 11
16.799277
 21
65.345312
 31
0.0
  0
LINE
  5
23c
100
AcDbEntity
  8
0
 62
7
100
AcDbLine
 10
16.333610
 20
65.345312
 30
0.0
 11
16.333610
 21
68.033479
 31
0.0
  0
LINE
  5
23d
100
AcDbEntity
  8
0
 62
7
100
AcDbLine
 10
16.333610
 20
68.033479
 30
0.0
 11
24.800277
 21
68.033479
 31
0.0
  0
LINE
  5
23e
100
AcDbEntity
  8
0
 62
7
100
AcDbLine
 10
16.799277
 20
68.033479
 30
0.0
 11
16.814150
 21
68.033479
 31
0.0
  0
LINE
  5
23f
100
AcDbEntity
  8
0
 62
7
100
AcDbLine
 10
16.814150
 20
68.033479
 30
0.0
 11
16.857979
 21
68.033479
 31
0.0
  0
LINE
  5
240
100
AcDbEntity
  8
0
 62
7
100
AcDbLine
 10
16.857979
 20
68.033479
 30
0.0
 11
16.928591
 21
68.033479
 31
0.0
  0
LINE
  5
241
100
AcDbEntity
  8
0
 62
7
100
AcDbLine
 10
16.928591
 20
68.033479
 30
0.0
 11
17.022430
 21
68.033479
 31
0.0
  0
LINE
  5
242
100
AcDbEntity
  8
0
 62
7
100
AcDbLine
 10
17.022430
 20
68.033479
 30
0.0
 11
17.134783
 21
68.033479
 31
0.0
  0
LINE
  5
243
100
AcDbEntity
  8
0
 62
7
100
AcDbLine
 10
17.134783
 20
68.033479
 30
0.0
 11
17.260061
 21
68.033479
 31
0.0
  0
LINE
  5
244
100
AcDbEntity
  8
0
 62
7
100
AcDbLine
 10
17.260061
 20
68.033479
 30
0.0
 11
17.391944
 21
68.033479
 31
0.0
  0
LINE
  5
245
100
AcDbEntity
  8
0
 62
7
100
AcDbLine
 10
17.391944
 20
68.033479
 30
0.0
 11
17.523826
 21
68.033479
 31
0.0
  0
LINE
  5
246
100
AcDbEntity
  8
0
 62
7
100
AcDbLine
 10
17.523826
 20
68.033479
 30
0.0
 11
17.649104
 21
68.033479
 31
0.0
  0
LINE
  5
247
100
AcDbEntity
  8
0
 62
7
100
AcDbLine
 10
17.649104
 20
68.033479
 30
0.0
 11
17.761457
 21
68.033479
 31
0.0
  0
LINE
  5
248
100
AcDbEntity
  8
0
 62
7
100
AcDbLine
 10
17.761457
 20
68.033479
 30
0.0
 11
17.855296
 21
68.033479
 31
0.0
  0
LINE
  5
249
100
AcDbEntity
  8
0
 62
7
100
AcDbLine
 10
17.855296
 20
68.033479
 30
0.0
 11
17.925908
 21
68.033479
 31
0.0
  0
LINE
  5
24a
100
AcDbEntity
  8
0
 62
7
100
AcDbLine
 10
17.925908
 20
68.033479
 30
0.0
 11
17.969737
 21
68.033479
 31
0.0
  0
LINE
  5
24b
100
AcDbEntity
  8
0
 62
7
100
AcDbLine
 10
17.969737
 20
68.033479
 30
0.0
 11
17.984610
 21
68.033479
 31
0.0
  0
LINE
  5
24c
100
AcDbEntity
  8
0
 62
7
100
AcDbLine
 10
17.984610
 20
68.033479
 30
0.0
 11
17.969737
 21
68.033479
 31
0.0
  0
LINE
  5
24d
100
AcDbEntity
  8
0
 62
7
100
AcDbLine
 10
17.969737
 20
68.033479
 30
0.0
 11
17.925908
 21
68.033479
 31
0.0
  0
LINE
  5
24e
100
AcDbEntity
  8
0
 62
7
100
AcDbLine
 10
17.925908
 20
68.033479
 30
0.0
 11
17.855296
 21
68.033479
 31
0.0
  0
LINE
  5
24f
100
AcDbEntity
  8
0
 62
7
100
AcDbLine
 10
17.855296
 20
68.033479
 30
0.0
 11
17.761457
 21
68.033479
 31
0.0
  0
LINE
  5
250
100
AcDbEntity
  8
0
 62
7
100
AcDbLine
 10
17.761457
 20
68.033479
 30
0.0
 11
17.649104
 21
68.033479
 31
0.0
  0
LINE
  5
251
100
AcDbEntity
  8
0
 62
7
100
AcDbLine
 10
17.649104
 20
68.033479
 30
0.0
 11
17.523826
 21
68.033479
 31
0.0
  0
LINE
  5
252
100
AcDbEntity
  8
0
 62
7
100
AcDbLine
 10
17.523826
 20
68.033479
 30
0.0
 11
17.391944
 21
68.033479
 31
0.0
  0
LINE
  5
253
100
AcDbEntity
  8
0
 62
7
100
AcDbLine
 10
17.391944
 20
68.033479
 30
0.0
 11
17.260061
 21
68.033479
 31
0.0
  0
LINE
  5
254
100
AcDbEntity
  8
0
 62
7
100
AcDbLine
 10
17.260061
 20
68.033479
 30
0.0
 11
17.134783
 21
68.033479
 31
0.0
  0
LINE
  5
255
100
AcDbEntity
  8
0
 62
7
100
AcDbLine
 10
17.134783
 20
68.033479
 30
0.0
 11
17.022430
 21
68.033479
 31
0.0
  0
LINE
  5
256
100
AcDbEntity
  8
0
 62
7
100
AcDbLine
 10
17.022430
 20
68.033479
 30
0.0
 11
16.928591
 21
68.033479
 31
0.0
  0
LINE
  5
257
100
AcDbEntity
  8
0
 62
7
100
AcDbLine
 10
16.928591
 20
68.033479
 30
0.0
 11
16.857979
 21
68.033479
 31
0.0
  0
LINE
  5
258
100
AcDbEntity
  8
0
 62
7
100
AcDbLine
 10
16.857979
 20
68.033479
 30
0.0
 11
16.814150
 21
68.033479
 31
0.0
  0
LINE
  5
259
100
AcDbEntity
  8
0
 62
7
100
AcDbLine
 10
16.814150
 20
68.033479
 30
0.0
 11
16.799277
 21
68.033479
 31
0.0
  0
LINE
  5
25a
100
AcDbEntity
  8
0
 62
7
100
AcDbLine
 10
16.799277
 20
68.033479
 30
0.0
 11
16.814150
 21
68.033479
 31
0.0
  0
LINE
  5
25b
100
AcDbEntity
  8
0
 62
7
100
AcDbLine
 10
16.814150
 20
68.033479
 30
0.0
 11
16.857979
 21
68.033479
 31
0.0
  0
LINE
  5
25c
100
AcDbEntity
  8
0
 62
7
100
AcDbLine
 10
16.857979
 20
68.033479
 30
0.0
 11
16.928591
 21
68.033479
 31
0.0
  0
LINE
  5
25d
100
AcDbEntity
  8
0
 62
7
100
AcDbLine
 10
16.928591
 20
68.033479
 30
0.0
 11
17.022430
 21
68.033479
 31
0.0
  0
LINE
  5
25e
100
AcDbEntity
  8
0
 62
7
100
AcDbLine
 10
17.022430
 20
68.033479
 30
0.0
 11
17.134783
 21
68.033479
 31
0.0
  0
LINE
  5
25f
100
AcDbEntity
  8
0
 62
7
100
AcDbLine
 10
17.134783
 20
68.033479
 30
0.0
 11
17.260061
 21
68.033479
 31
0.0
  0
LINE
  5
260
100
AcDbEntity
  8
0
 62
7
100
AcDbLine
 10
17.260061
 20
68.033479
 30
0.0
 11
17.391944
 21
68.033479
 31
0.0
  0
LINE
  5
261
100
AcDbEntity
  8
0
 62
7
100
AcDbLine
 10
17.391944
 20
68.033479
 30
0.0
 11
17.523826
 21
68.033479
 31
0.0
  0
LINE
  5
262
100
AcDbEntity
  8
0
 62
7
100
AcDbLine
 10
17.523826
 20
68.033479
 30
0.0
 11
17.649104
 21
68.033479
 31
0.0
  0
LINE
  5
263
100
AcDbEntity
  8
0
 62
7
100
AcDbLine
 10
17.649104
 20
68.033479
 30
0.0
 11
17.761457
 21
68.033479
 31
0.0
  0
LINE
  5
264
100
AcDbEntity
  8
0
 62
7
100
AcDbLine
 10
17.761457
 20
68.033479
 30
0.0
 11
17.855296
 21
68.033479
 31
0.0
  0
LINE
  5
265
100
AcDbEntity
  8
0
 62
7
100
AcDbLine
 10
17.855296
 20
68.033479
 30
0.0
 11
17.925908
 21
68.033479
 31
0.0
  0
LINE
  5
266
100
AcDbEntity
  8
0
 62
7
100
AcDbLine
 10
17.925908
 20
68.033479
 30
0.0
 11
17.969737
 21
68.033479
 31
0.0
  0
LINE
  5
267
100
AcDbEntity
  8
0
 62
7
100
AcDbLine
 10
17.969737
 20
68.033479
 30
0.0
 11
17.984610
 21
68.033479
 31
0.0
  0
LINE
  5
268
100
AcDbEntity
  8
0
 62
7
100
AcDbLine
 10
17.984610
 20
68.033479
 30
0.0
 11
17.969737
 21
68.033479
 31
0.0
  0
LINE
  5
269
100
AcDbEntity
  8
0
 62
7
100
AcDbLine
 10
17.969737
 20
68.033479
 30
0.0
 11
17.925908
 21
68.033479
 31
0.0
  0
LINE
  5
26a
100
AcDbEntity
  8
0
 62
7
100
AcDbLine
 10
17.925908
 20
68.033479
 30
0.0
 11
17.855296
 21
68.033479
 31
0.0
  0
LINE
  5
26b
100
AcDbEntity
  8
0
 62
7
100
AcDbLine
 10
17.855296
 20
68.033479
 30
0.0
 11
17.761457
 21
68.033479
 31
0.0
  0
LINE
  5
26c
100
AcDbEntity
  8
0
 62
7
100
AcDbLine
 10
17.761457
 20
68.033479
 30
0.0
 11
17.649104
 21
68.033479
 31
0.0
  0
LINE
  5
26d
100
AcDbEntity
  8
0
 62
7
100
AcDbLine
 10
17.649104
 20
68.033479
 30
0.0
 11
17.523826
 21
68.033479
 31
0.0
  0
LINE
  5
26e
100
AcDbEntity
  8
0
 62
7
100
AcDbLine
 10
17.523826
 20
68.033479
 30
0.0
 11
17.391944
 21
68.033479
 31
0.0
  0
LINE
  5
26f
100
AcDbEntity
  8
0
 62
7
100
AcDbLine
 10
17.391944
 20
68.033479
 30
0.0
 11
17.260061
 21
68.033479
 31
0.0
  0
LINE
  5
270
100
AcDbEntity
  8
0
 62
7
100
AcDbLine
 10
17.260061
 20
68.033479
 30
0.0
 11
17.134783
 21
68.033479
 31
0.0
  0
LINE
  5
271
100
AcDbEntity
  8
0
 62
7
100
AcDbLine
 10
17.134783
 20
68.033479
 30
0.0
 11
17.022430
 21
68.033479
 31
0.0
  0
LINE
  5
272
100
AcDbEntity
  8
0
 62
7
100
AcDbLine
 10
17.022430
 20
68.033479
 30
0.0
 11
16.928591
 21
68.033479
 31
0.0
  0
LINE
  5
273
100
AcDbEntity
  8
0
 62
7
100
AcDbLine
 10
16.928591
 20
68.033479
 30
0.0
 11
16.857979
 21
68.033479
 31
0.0
  0
LINE
  5
274
100
AcDbEntity
  8
0
 62
7
100
AcDbLine
 10
16.857979
 20
68.033479
 30
0.0
 11
16.814150
 21
68.033479
 31
0.0
  0
LINE
  5
275
100
AcDbEntity
  8
0
 62
7
100
AcDbLine
 10
16.814150
 20
68.033479
 30
0.0
 11
16.799277
 21
68.033479
 31
0.0
  0
LINE
  5
276
100
AcDbEntity
  8
0
 62
7
100
AcDbLine
 10
24.800277
 20
60.865034
 30
0.0
 11
24.800277
 21
68.033479
 31
0.0
  0
LINE
  5
277
100
AcDbEntity
  8
0
 62
7
100
AcDbLine
 10
24.800277
 20
64.449256
 30
0.0
 11
24.800277
 21
64.678347
 31
0.0
  0
LINE
  5
278
100
AcDbEntity
  8
0
 62
7
100
AcDbLine
 10
24.800277
 20
64.678347
 30
0.0
 11
24.800277
 21
64.904560
 31
0.0
  0
LINE
  5
279
100
AcDbEntity
  8
0
 62
7
100
AcDbLine
 10
24.800277
 20
64.904560
 30
0.0
 11
24.800277
 21
65.125043
 31
0.0
  0
LINE
  5
27a
100
AcDbEntity
  8
0
 62
7
100
AcDbLine
 10
24.800277
 20
65.125043
 30
0.0
 11
24.800277
 21
65.337032
 31
0.0
  0
LINE
  5
27b
100
AcDbEntity
  8
0
 62
7
100
AcDbLine
 10
24.800277
 20
65.337032
 30
0.0
 11
24.800277
 21
65.537852
 31
0.0
  0
LINE
  5
27c
100
AcDbEntity
  8
0
 62
7
100
AcDbLine
 10
24.800277
 20
65.537852
 30
0.0
 11
24.800277
 21
65.724986
 31
0.0
  0
LINE
  5
27d
100
AcDbEntity
  8
0
 62
7
100
AcDbLine
 10
24.800277
 20
65.724986
 30
0.0
 11
24.800277
 21
65.896074
 31
0.0
  0
LINE
  5
27e
100
AcDbEntity
  8
0
 62
7
100
AcDbLine
 10
24.800277
 20
65.896074
 30
0.0
 11
24.800277
 21
66.048971
 31
0.0
  0
LINE
  5
27f
100
AcDbEntity
  8
0
 62
7
100
AcDbLine
 10
24.800277
 20
66.048971
 30
0.0
 11
24.800277
 21
66.181748
 31
0.0
  0
LINE
  5
280
100
AcDbEntity
  8
0
 62
7
100
AcDbLine
 10
24.800277
 20
66.181748
 30
0.0
 11
24.800277
 21
66.292738
 31
0.0
  0
LINE
  5
281
100
AcDbEntity
  8
0
 62
7
100
AcDbLine
 10
24.800277
 20
66.292738
 30
0.0
 11
24.800277
 21
66.380545
 31
0.0
  0
LINE
  5
282
100
AcDbEntity
  8
0
 62
7
100
AcDbLine
 10
24.800277
 20
66.380545
 30
0.0
 11
24.800277
 21
66.444068
 31
0.0
  0
LINE
  5
283
100
AcDbEntity
  8
0
 62
7
100
AcDbLine
 10
24.800277
 20
66.444068
 30
0.0
 11
24.800277
 21
66.482501
 31
0.0
  0
LINE
  5
284
100
AcDbEntity
  8
0
 62
7
100
AcDbLine
 10
24.800277
 20
66.482501
 30
0.0
 11
24.800277
 21
66.495370
 31
0.0
  0
LINE
  5
285
100
AcDbEntity
  8
0
 62
7
100
AcDbLine
 10
24.800277
 20
66.495368
 30
0.0
 11
24.800277
 21
66.444068
 31
0.0
  0
LINE
  5
286
100
AcDbEntity
  8
0
 62
7
100
AcDbLine
 10
24.800277
 20
66.444068
 30
0.0
 11
24.800277
 21
66.292738
 31
0.0
  0
LINE
  5
287
100
AcDbEntity
  8
0
 62
7
100
AcDbLine
 10
24.800277
 20
66.292738
 30
0.0
 11
24.800277
 21
66.048971
 31
0.0
  0
LINE
  5
288
100
AcDbEntity
  8
0
 62
7
100
AcDbLine
 10
24.800277
 20
66.048971
 30
0.0
 11
24.800277
 21
65.724986
 31
0.0
  0
LINE
  5
289
100
AcDbEntity
  8
0
 62
7
100
AcDbLine
 10
24.800277
 20
65.724986
 30
0.0
 11
24.800277
 21
65.337032
 31
0.0
  0
LINE
  5
28a
100
AcDbEntity
  8
0
 62
7
100
AcDbLine
 10
24.800277
 20
65.337032
 30
0.0
 11
24.800277
 21
64.904560
 31
0.0
  0
LINE
  5
28b
100
AcDbEntity
  8
0
 62
7
100
AcDbLine
 10
24.800277
 20
64.904560
 30
0.0
 11
24.800277
 21
64.449256
 31
0.0
  0
LINE
  5
28c
100
AcDbEntity
  8
0
 62
7
100
AcDbLine
 10
24.800277
 20
64.449256
 30
0.0
 11
24.800277
 21
63.993953
 31
0.0
  0
LINE
  5
28d
100
AcDbEntity
  8
0
 62
7
100
AcDbLine
 10
24.800277
 20
63.993953
 30
0.0
 11
24.800277
 21
63.561481
 31
0.0
  0
LINE
  5
28e
100
AcDbEntity
  8
0
 62
7
100
AcDbLine
 10
24.800277
 20
63.561481
 30
0.0
 11
24.800277
 21
63.173527
 31
0.0
  0
LINE
  5
28f
100
AcDbEntity
  8
0
 62
7
100
AcDbLine
 10
24.800277
 20
63.173527
 30
0.0
 11
24.800277
 21
62.849542
 31
0.0
  0
LINE
  5
290
100
AcDbEntity
  8
0
 62
7
100
AcDbLine
 10
24.800277
 20
62.849542
 30
0.0
 11
24.800277
 21
62.605775
 31
0.0
  0
LINE
  5
291
100
AcDbEntity
  8
0
 62
7
100
AcDbLine
 10
24.800277
 20
62.605775
 30
0.0
 11
24.800277
 21
62.454445
 31
0.0
  0
LINE
  5
292
100
AcDbEntity
  8
0
 62
7
100
AcDbLine
 10
24.800277
 20
62.454445
 30
0.0
 11
24.800277
 21
62.403145
 31
0.0
  0
LINE
  5
293
100
AcDbEntity
  8
0
 62
7
100
AcDbLine
 10
24.800277
 20
62.403145
 30
0.0
 11
24.800277
 21
62.416015
 31
0.0
  0
LINE
  5
294
100
AcDbEntity
  8
0
 62
7
100
AcDbLine
 10
24.800277
 20
62.416015
 30
0.0
 11
24.800277
 21
62.454448
 31
0.0
  0
LINE
  5
295
100
AcDbEntity
  8
0
 62
7
100
AcDbLine
 10
24.800277
 20
62.454448
 30
0.0
 11
24.800277
 21
62.517970
 31
0.0
  0
LINE
  5
296
100
AcDbEntity
  8
0
 62
7
100
AcDbLine
 10
24.800277
 20
62.517970
 30
0.0
 11
24.800277
 21
62.605778
 31
0.0
  0
LINE
  5
297
100
AcDbEntity
  8
0
 62
7
100
AcDbLine
 10
24.800277
 20
62.605778
 30
0.0
 11
24.800277
 21
62.716768
 31
0.0
  0
LINE
  5
298
100
AcDbEntity
  8
0
 62
7
100
AcDbLine
 10
24.800277
 20
62.716768
 30
0.0
 11
24.800277
 21
62.849545
 31
0.0
  0
LINE
  5
299
100
AcDbEntity
  8
0
 62
7
100
AcDbLine
 10
24.800277
 20
62.849545
 30
0.0
 11
24.800277
 21
63.002441
 31
0.0
  0
LINE
  5
29a
100
AcDbEntity
  8
0
 62
7
100
AcDbLine
 10
24.800277
 20
63.002441
 30
0.0
 11
24.800277
 21
63.173530
 31
0.0
  0
LINE
  5
29b
100
AcDbEntity
  8
0
 62
7
100
AcDbLine
 10
24.800277
 20
63.173530
 30
0.0
 11
24.800277
 21
63.360663
 31
0.0
  0
LINE
  5
29c
100
AcDbEntity
  8
0
 62
7
100
AcDbLine
 10
24.800277
 20
63.360663
 30
0.0
 11
24.800277
 21
63.561484
 31
0.0
  0
LINE
  5
29d
100
AcDbEntity
  8
0
 62
7
100
AcDbLine
 10
24.800277
 20
63.561484
 30
0.0
 11
24.800277
 21
63.773472
 31
0.0
  0
LINE
  5
29e
100
AcDbEntity
  8
0
 62
7
100
AcDbLine
 10
24.800277
 20
63.773472
 30
0.0
 11
24.800277
 21
63.993956
 31
0.0
  0
LINE
  5
29f
100
AcDbEntity
  8
0
 62
7
100
AcDbLine
 10
24.800277
 20
63.993956
 30
0.0
 11
24.800277
 21
64.220168
 31
0.0
  0
LINE
  5
2a0
100
AcDbEntity
  8
0
 62
7
100
AcDbLine
 10
24.800277
 20
64.220168
 30
0.0
 11
24.800277
 21
64.449259
 31
0.0
  0
LINE
  5
2a1
100
AcDbEntity
  8
0
 62
7
100
AcDbLine
 10
16.799277
 20
68.033479
 30
0.0
 11
16.799277
 21
65.345312
 31
0.0
  0
LINE
  5
2a2
100
AcDbEntity
  8
0
 62
7
100
AcDbLine
 10
16.799277
 20
68.033479
 30
0.0
 11
16.799277
 21
65.345312
 31
0.0
  0
LINE
  5
2a3
100
AcDbEntity
  8
0
 62
7
100
AcDbLine
 10
20.002499
 20
64.449256
 30
0.0
 11
20.002499
 21
64.678347
 31
0.0
  0
LINE
  5
2a4
100
AcDbEntity
  8
0
 62
7
100
AcDbLine
 10
20.002499
 20
64.678347
 30
0.0
 11
20.002499
 21
64.904560
 31
0.0
  0
LINE
  5
2a5
100
AcDbEntity
  8
0
 62
7
100
AcDbLine
 10
20.002499
 20
64.904560
 30
0.0
 11
20.002499
 21
65.125043
 31
0.0
  0
LINE
  5
2a6
100
AcDbEntity
  8
0
 62
7
100
AcDbLine
 10
20.002499
 20
65.125043
 30
0.0
 11
20.002499
 21
65.337032
 31
0.0
  0
LINE
  5
2a7
100
AcDbEntity
  8
0
 62
7
100
AcDbLine
 10
20.002499
 20
65.337032
 30
0.0
 11
20.002499
 21
65.537852
 31
0.0
  0
LINE
  5
2a8
100
AcDbEntity
  8
0
 62
7
100
AcDbLine
 10
20.002499
 20
65.537852
 30
0.0
 11
20.002499
 21
65.724986
 31
0.0
  0
LINE
  5
2a9
100
AcDbEntity
  8
0
 62
7
100
AcDbLine
 10
20.002499
 20
65.724986
 30
0.0
 11
20.002499
 21
65.896074
 31
0.0
  0
LINE
  5
2aa
100
AcDbEntity
  8
0
 62
7
100
AcDbLine
 10
20.002499
 20
65.896074
 30
0.0
 11
20.002499
 21
66.048971
 31
0.0
  0
LINE
  5
2ab
100
AcDbEntity
  8
0
 62
7
100
AcDbLine
 10
20.002499
 20
66.048971
 30
0.0
 11
20.002499
 21
66.181748
 31
0.0
  0
LINE
  5
2ac
100
AcDbEntity
  8
0
 62
7
100
AcDbLine
 10
20.002499
 20
66.181748
 30
0.0
 11
20.002499
 21
66.292738
 31
0.0
  0
LINE
  5
2ad
100
AcDbEntity
  8
0
 62
7
100
AcDbLine
 10
20.002499
 20
66.292738
 30
0.0
 11
20.002499
 21
66.380545
 31
0.0
  0
LINE
  5
2ae
100
AcDbEntity
  8
0
 62
7
100
AcDbLine
 10
20.002499
 20
66.380545
 30
0.0
 11
20.002499
 21
66.444068
 31
0.0
  0
LINE
  5
2af
100
AcDbEntity
  8
0
 62
7
100
AcDbLine
 10
20.002499
 20
66.444068
 30
0.0
 11
20.002499
 21
66.482501
 31
0.0
  0
LINE
  5
2b0
100
AcDbEntity
  8
0
 62
7
100
AcDbLine
 10
20.002499
 20
66.482501
 30
0.0
 11
20.002499
 21
66.495370
 31
0.0
  0
LINE
  5
2b1
100
AcDbEntity
  8
0
 62
7
100
AcDbLine
 10
20.002499
 20
66.495368
 30
0.0
 11
20.002499
 21
66.444068
 31
0.0
  0
LINE
  5
2b2
100
AcDbEntity
  8
0
 62
7
100
AcDbLine
 10
20.002499
 20
66.444068
 30
0.0
 11
20.002499
 21
66.292738
 31
0.0
  0
LINE
  5
2b3
100
AcDbEntity
  8
0
 62
7
100
AcDbLine
 10
20.002499
 20
66.292738
 30
0.0
 11
20.002499
 21
66.048971
 31
0.0
  0
LINE
  5
2b4
100
AcDbEntity
  8
0
 62
7
100
AcDbLine
 10
20.002499
 20
66.048971
 30
0.0
 11
20.002499
 21
65.724986
 31
0.0
  0
LINE
  5
2b5
100
AcDbEntity
  8
0
 62
7
100
AcDbLine
 10
20.002499
 20
65.724986
 30
0.0
 11
20.002499
 21
65.337032
 31
0.0
  0
LINE
  5
2b6
100
AcDbEntity
  8
0
 62
7
100
AcDbLine
 10
20.002499
 20
65.337032
 30
0.0
 11
20.002499
 21
64.904560
 31
0.0
  0
LINE
  5
2b7
100
AcDbEntity
  8
0
 62
7
100
AcDbLine
 10
20.002499
 20
64.904560
 30
0.0
 11
20.002499
 21
64.449256
 31
0.0
  0
LINE
  5
2b8
100
AcDbEntity
  8
0
 62
7
100
AcDbLine
 10
20.002499
 20
64.449256
 30
0.0
 11
20.002499
 21
63.993953
 31
0.0
  0
LINE
  5
2b9
100
AcDbEntity
  8
0
 62
7
100
AcDbLine
 10
20.002499
 20
63.993953
 30
0.0
 11
20.002499
 21
63.561481
 31
0.0
  0
LINE
  5
2ba
100
AcDbEntity
  8
0
 62
7
100
AcDbLine
 10
20.002499
 20
63.561481
 30
0.0
 11
20.002499
 21
63.173527
 31
0.0
  0
LINE
  5
2bb
100
AcDbEntity
  8
0
 62
7
100
AcDbLine
 10
20.002499
 20
63.173527
 30
0.0
 11
20.002499
 21
62.849542
 31
0.0
  0
LINE
  5
2bc
100
AcDbEntity
  8
0
 62
7
100
AcDbLine
 10
20.002499
 20
62.849542
 30
0.0
 11
20.002499
 21
62.605775
 31
0.0
  0
LINE
  5
2bd
100
AcDbEntity
  8
0
 62
7
100
AcDbLine
 10
20.002499
 20
62.605775
 30
0.0
 11
20.002499
 21
62.454445
 31
0.0
  0
LINE
  5
2be
100
AcDbEntity
  8
0
 62
7
100
AcDbLine
 10
20.002499
 20
62.454445
 30
0.0
 11
20.002499
 21
62.403145
 31
0.0
  0
LINE
  5
2bf
100
AcDbEntity
  8
0
 62
7
100
AcDbLine
 10
20.002499
 20
62.403145
 30
0.0
 11
20.002499
 21
62.416015
 31
0.0
  0
LINE
  5
2c0
100
AcDbEntity
  8
0
 62
7
100
AcDbLine
 10
20.002499
 20
62.416015
 30
0.0
 11
20.002499
 21
62.454448
 31
0.0
  0
LINE
  5
2c1
100
AcDbEntity
  8
0
 62
7
100
AcDbLine
 10
20.002499
 20
62.454448
 30
0.0
 11
20.002499
 21
62.517970
 31
0.0
  0
LINE
  5
2c2
100
AcDbEntity
  8
0
 62
7
100
AcDbLine
 10
20.002499
 20
62.517970
 30
0.0
 11
20.002499
 21
62.605778
 31
0.0
  0
LINE
  5
2c3
100
AcDbEntity
  8
0
 62
7
100
AcDbLine
 10
20.002499
 20
62.605778
 30
0.0
 11
20.002499
 21
62.716768
 31
0.0
  0
LINE
  5
2c4
100
AcDbEntity
  8
0
 62
7
100
AcDbLine
 10
20.002499
 20
62.716768
 30
0.0
 11
20.002499
 21
62.849545
 31
0.0
  0
LINE
  5
2c5
100
AcDbEntity
  8
0
 62
7
100
AcDbLine
 10
20.002499
 20
62.849545
 30
0.0
 11
20.002499
 21
63.002441
 31
0.0
  0
LINE
  5
2c6
100
AcDbEntity
  8
0
 62
7
100
AcDbLine
 10
20.002499
 20
63.002441
 30
0.0
 11
20.002499
 21
63.173530
 31
0.0
  0
LINE
  5
2c7
100
AcDbEntity
  8
0
 62
7
100
AcDbLine
 10
20.002499
 20
63.173530
 30
0.0
 11
20.002499
 21
63.360663
 31
0.0
  0
LINE
  5
2c8
100
AcDbEntity
  8
0
 62
7
100
AcDbLine
 10
20.002499
 20
63.360663
 30
0.0
 11
20.002499
 21
63.561484
 31
0.0
  0
LINE
  5
2c9
100
AcDbEntity
  8
0
 62
7
100
AcDbLine
 10
20.002499
 20
63.561484
 30
0.0
 11
20.002499
 21
63.773472
 31
0.0
  0
LINE
  5
2ca
100
AcDbEntity
  8
0
 62
7
100
AcDbLine
 10
20.002499
 20
63.773472
 30
0.0
 11
20.002499
 21
63.993956
 31
0.0
  0
LINE
  5
2cb
100
AcDbEntity
  8
0
 62
7
100
AcDbLine
 10
20.002499
 20
63.993956
 30
0.0
 11
20.002499
 21
64.220168
 31
0.0
  0
LINE
  5
2cc
100
AcDbEntity
  8
0
 62
7
100
AcDbLine
 10
20.002499
 20
64.220168
 30
0.0
 11
20.002499
 21
64.449259
 31
0.0
  0
LINE
  5
2cd
100
AcDbEntity
  8
0
 62
7
100
AcDbLine
 10
17.984610
 20
65.345312
 30
0.0
 11
17.984610
 21
68.033479
 31
0.0
  0
LINE
  5
2ce
100
AcDbEntity
  8
0
 62
7
100
AcDbLine
 10
17.984610
 20
65.345312
 30
0.0
 11
17.984610
 21
68.033479
 31
0.0
  0
LINE
  5
2cf
100
AcDbEntity
  8
0
 62
7
100
AcDbLine
 10
20.002499
 20
62.403145
 30
0.0
 11
24.800277
 21
62.403145
 31
0.0
  0
LINE
  5
2d0
100
AcDbEntity
  8
0
 62
7
100
AcDbLine
 10
20.002499
 20
66.495368
 30
0.0
 11
24.800277
 21
66.495368
 31
0.0
  0
LINE
  5
2d1
100
AcDbEntity
  8
0
 62
7
100
AcDbLine
 10
24.800277
 20
60.865034
 30
0.0
 11
16.333610
 21
60.865034
 31
0.0
  0
LINE
  5
2d2
100
AcDbEntity
  8
0
 62
7
100
AcDbLine
 10
16.333610
 20
60.865034
 30
0.0
 11
16.333610
 21
64.001229
 31
0.0
  0
LINE
  5
2d3
100
AcDbEntity
  8
0
 62
7
100
AcDbLine
 10
18.450277
 20
64.001229
 30
0.0
 11
16.333610
 21
64.001229
 31
0.0
  0
LINE
  5
2d4
100
AcDbEntity
  8
0
 62
7
100
AcDbLine
 10
18.450277
 20
65.345312
 30
0.0
 11
18.450277
 21
64.001229
 31
0.0
  0
LINE
  5
2d5
100
AcDbEntity
  8
0
 62
7
100
AcDbLine
 10
16.333610
 20
65.345312
 30
0.0
 11
18.450277
 21
65.345312
 31
0.0
  0
LINE
  5
2d6
100
AcDbEntity
  8
0
 62
7
100
AcDbLine
 10
16.333610
 20
65.345312
 30
0.0
 11
16.333610
 21
68.033479
 31
0.0
  0
LINE
  5
2d7
100
AcDbEntity
  8
0
 62
7
100
AcDbLine
 10
24.800277
 20
68.033479
 30
0.0
 11
16.333610
 21
68.033479
 31
0.0
  0
LINE
  5
2d8
100
AcDbEntity
  8
0
 62
7
100
AcDbLine
 10
24.800277
 20
60.865034
 30
0.0
 11
24.800277
 21
68.033479
 31
0.0
  0
LINE
  5
2d9
100
AcDbEntity
  8
0
 62
7
100
AcDbLine
 10
7.217832
 20
82.793616
 30
0.0
 11
7.217832
 21
74.326950
 31
0.0
  0
LINE
  5
2da
100
AcDbEntity
  8
0
 62
7
100
AcDbLine
 10
7.217832
 20
76.443616
 30
0.0
 11
7.217832
 21
74.326950
 31
0.0
  0
LINE
  5
2db
100
AcDbEntity
  8
0
 62
7
100
AcDbLine
 10
7.217832
 20
74.326950
 30
0.0
 11
7.217832
 21
76.443616
 31
0.0
  0
LINE
  5
2dc
100
AcDbEntity
  8
0
 62
7
100
AcDbLine
 10
0.049388
 20
82.793616
 30
0.0
 11
7.217832
 21
82.793616
 31
0.0
  0
LINE
  5
2dd
100
AcDbEntity
  8
0
 62
7
100
AcDbLine
 10
7.217832
 20
74.326950
 30
0.0
 11
0.049388
 21
74.326950
 31
0.0
  0
LINE
  5
2de
100
AcDbEntity
  8
0
 62
7
100
AcDbLine
 10
0.049388
 20
74.326950
 30
0.0
 11
0.049388
 21
82.793616
 31
0.0
  0
LINE
  5
2df
100
AcDbEntity
  8
0
 62
7
100
AcDbLine
 10
7.217832
 20
74.326950
 30
0.0
 11
0.049388
 21
74.326950
 31
0.0
  0
LINE
  5
2e0
100
AcDbEntity
  8
0
 62
7
100
AcDbLine
 10
0.049388
 20
74.326950
 30
0.0
 11
0.049388
 21
76.443616
 31
0.0
  0
LINE
  5
2e1
100
AcDbEntity
  8
0
 62
7
100
AcDbLine
 10
0.049388
 20
76.443616
 30
0.0
 11
7.217832
 21
76.443616
 31
0.0
  0
LINE
  5
2e2
100
AcDbEntity
  8
0
 62
7
100
AcDbLine
 10
0.049388
 20
76.443616
 30
0.0
 11
7.217832
 21
76.443616
 31
0.0
  0
LINE
  5
2e3
100
AcDbEntity
  8
0
 62
7
100
AcDbLine
 10
0.049388
 20
76.443616
 30
0.0
 11
0.049388
 21
74.326950
 31
0.0
  0
LINE
  5
2e4
100
AcDbEntity
  8
0
 62
7
100
AcDbLine
 10
0.049388
 20
74.326950
 30
0.0
 11
7.217832
 21
74.326950
 31
0.0
  0
SPLINE
  5
2e5
100
AcDbEntity
  8
0
 62
7
100
AcDbSpline
 70
8
 71
3
 72
8
 73
4
 74
0
 40
0
 40
0
 40
0
 40
0
 40
1
 40
1
 40
1
 40
1
 10
5.425721
 20
74.792616
 30
0.0
 10
5.753042
 20
74.792616
 30
0.0
 10
6.018388
 20
75.057962
 30
0.0
 10
6.018388
 20
75.385283
 30
0.0
  0
SPLINE
  5
2e6
100
AcDbEntity
  8
0
 62
7
100
AcDbSpline
 70
8
 71
3
 72
8
 73
4
 74
0
 40
0
 40
0
 40
0
 40
0
 40
1
 40
1
 40
1
 40
1
 10
6.018388
 20
75.385283
 30
0.0
 10
6.018388
 20
75.712604
 30
0.0
 10
5.753042
 20
75.977950
 30
0.0
 10
5.425721
 20
75.977950
 30
0.0
  0
SPLINE
  5
2e7
100
AcDbEntity
  8
0
 62
7
100
AcDbSpline
 70
8
 71
3
 72
8
 73
4
 74
0
 40
0
 40
0
 40
0
 40
0
 40
1
 40
1
 40
1
 40
1
 10
5.425721
 20
75.977950
 30
0.0
 10
5.098401
 20
75.977950
 30
0.0
 10
4.833055
 20
75.712604
 30
0.0
 10
4.833055
 20
75.385283
 30
0.0
  0
SPLINE
  5
2e8
100
AcDbEntity
  8
0
 62
7
100
AcDbSpline
 70
8
 71
3
 72
8
 73
4
 74
0
 40
0
 40
0
 40
0
 40
0
 40
1
 40
1
 40
1
 40
1
 10
4.833055
 20
75.385283
 30
0.0
 10
4.833055
 20
75.057962
 30
0.0
 10
5.098401
 20
74.792616
 30
0.0
 10
5.425721
 20
74.792616
 30
0.0
  0
LINE
  5
2e9
100
AcDbEntity
  8
0
 62
7
100
AcDbLine
 10
5.425721
 20
74.792616
 30
0.0
 11
5.425721
 21
74.792616
 31
0.0
  0
SPLINE
  5
2ea
100
AcDbEntity
  8
0
 62
7
100
AcDbSpline
 70
8
 71
3
 72
8
 73
4
 74
0
 40
0
 40
0
 40
0
 40
0
 40
1
 40
1
 40
1
 40
1
 10
1.841499
 20
74.792616
 30
0.0
 10
2.168820
 20
74.792616
 30
0.0
 10
2.434166
 20
75.057962
 30
0.0
 10
2.434166
 20
75.385283
 30
0.0
  0
SPLINE
  5
2eb
100
AcDbEntity
  8
0
 62
7
100
AcDbSpline
 70
8
 71
3
 72
8
 73
4
 74
0
 40
0
 40
0
 40
0
 40
0
 40
1
 40
1
 40
1
 40
1
 10
2.434166
 20
75.385283
 30
0.0
 10
2.434166
 20
75.712604
 30
0.0
 10
2.168820
 20
75.977950
 30
0.0
 10
1.841499
 20
75.977950
 30
0.0
  0
SPLINE
  5
2ec
100
AcDbEntity
  8
0
 62
7
100
AcDbSpline
 70
8
 71
3
 72
8
 73
4
 74
0
 40
0
 40
0
 40
0
 40
0
 40
1
 40
1
 40
1
 40
1
 10
1.841499
 20
75.977950
 30
0.0
 10
1.514178
 20
75.977950
 30
0.0
 10
1.248833
 20
75.712604
 30
0.0
 10
1.248833
 20
75.385283
 30
0.0
  0
SPLINE
  5
2ed
100
AcDbEntity
  8
0
 62
7
100
AcDbSpline
 70
8
 71
3
 72
8
 73
4
 74
0
 40
0
 40
0
 40
0
 40
0
 40
1
 40
1
 40
1
 40
1
 10
1.248833
 20
75.385283
 30
0.0
 10
1.248833
 20
75.057962
 30
0.0
 10
1.514178
 20
74.792616
 30
0.0
 10
1.841499
 20
74.792616
 30
0.0
  0
LINE
  5
2ee
100
AcDbEntity
  8
0
 62
7
100
AcDbLine
 10
1.841499
 20
74.792616
 30
0.0
 11
1.841499
 21
74.792616
 31
0.0
  0
LINE
  5
2ef
100
AcDbEntity
  8
0
 62
7
100
AcDbLine
 10
1.587499
 20
82.793616
 30
0.0
 11
1.638799
 21
82.793616
 31
0.0
  0
LINE
  5
2f0
100
AcDbEntity
  8
0
 62
7
100
AcDbLine
 10
1.638799
 20
82.793616
 30
0.0
 11
1.790129
 21
82.793616
 31
0.0
  0
LINE
  5
2f1
100
AcDbEntity
  8
0
 62
7
100
AcDbLine
 10
1.790129
 20
82.793616
 30
0.0
 11
2.033896
 21
82.793616
 31
0.0
  0
LINE
  5
2f2
100
AcDbEntity
  8
0
 62
7
100
AcDbLine
 10
2.033896
 20
82.793616
 30
0.0
 11
2.357881
 21
82.793616
 31
0.0
  0
LINE
  5
2f3
100
AcDbEntity
  8
0
 62
7
100
AcDbLine
 10
2.357881
 20
82.793616
 30
0.0
 11
2.745835
 21
82.793616
 31
0.0
  0
LINE
  5
2f4
100
AcDbEntity
  8
0
 62
7
100
AcDbLine
 10
2.745835
 20
82.793616
 30
0.0
 11
3.178307
 21
82.793616
 31
0.0
  0
LINE
  5
2f5
100
AcDbEntity
  8
0
 62
7
100
AcDbLine
 10
3.178307
 20
82.793616
 30
0.0
 11
3.633610
 21
82.793616
 31
0.0
  0
LINE
  5
2f6
100
AcDbEntity
  8
0
 62
7
100
AcDbLine
 10
3.633610
 20
82.793616
 30
0.0
 11
4.088914
 21
82.793616
 31
0.0
  0
LINE
  5
2f7
100
AcDbEntity
  8
0
 62
7
100
AcDbLine
 10
4.088914
 20
82.793616
 30
0.0
 11
4.521385
 21
82.793616
 31
0.0
  0
LINE
  5
2f8
100
AcDbEntity
  8
0
 62
7
100
AcDbLine
 10
4.521385
 20
82.793616
 30
0.0
 11
4.909339
 21
82.793616
 31
0.0
  0
LINE
  5
2f9
100
AcDbEntity
  8
0
 62
7
100
AcDbLine
 10
4.909339
 20
82.793616
 30
0.0
 11
5.233325
 21
82.793616
 31
0.0
  0
LINE
  5
2fa
100
AcDbEntity
  8
0
 62
7
100
AcDbLine
 10
5.233325
 20
82.793616
 30
0.0
 11
5.477091
 21
82.793616
 31
0.0
  0
LINE
  5
2fb
100
AcDbEntity
  8
0
 62
7
100
AcDbLine
 10
5.477091
 20
82.793616
 30
0.0
 11
5.628422
 21
82.793616
 31
0.0
  0
LINE
  5
2fc
100
AcDbEntity
  8
0
 62
7
100
AcDbLine
 10
5.628422
 20
82.793616
 30
0.0
 11
5.679721
 21
82.793616
 31
0.0
  0
LINE
  5
2fd
100
AcDbEntity
  8
0
 62
7
100
AcDbLine
 10
5.679721
 20
82.793616
 30
0.0
 11
5.628422
 21
82.793616
 31
0.0
  0
LINE
  5
2fe
100
AcDbEntity
  8
0
 62
7
100
AcDbLine
 10
5.628422
 20
82.793616
 30
0.0
 11
5.477091
 21
82.793616
 31
0.0
  0
LINE
  5
2ff
100
AcDbEntity
  8
0
 62
7
100
AcDbLine
 10
5.477091
 20
82.793616
 30
0.0
 11
5.233325
 21
82.793616
 31
0.0
  0
LINE
  5
300
100
AcDbEntity
  8
0
 62
7
100
AcDbLine
 10
5.233325
 20
82.793616
 30
0.0
 11
4.909339
 21
82.793616
 31
0.0
  0
LINE
  5
301
100
AcDbEntity
  8
0
 62
7
100
AcDbLine
 10
4.909339
 20
82.793616
 30
0.0
 11
4.521385
 21
82.793616
 31
0.0
  0
LINE
  5
302
100
AcDbEntity
  8
0
 62
7
100
AcDbLine
 10
4.521385
 20
82.793616
 30
0.0
 11
4.088914
 21
82.793616
 31
0.0
  0
LINE
  5
303
100
AcDbEntity
  8
0
 62
7
100
AcDbLine
 10
4.088914
 20
82.793616
 30
0.0
 11
3.633610
 21
82.793616
 31
0.0
  0
LINE
  5
304
100
AcDbEntity
  8
0
 62
7
100
AcDbLine
 10
3.633610
 20
82.793616
 30
0.0
 11
3.178307
 21
82.793616
 31
0.0
  0
LINE
  5
305
100
AcDbEntity
  8
0
 62
7
100
AcDbLine
 10
3.178307
 20
82.793616
 30
0.0
 11
2.745835
 21
82.793616
 31
0.0
  0
LINE
  5
306
100
AcDbEntity
  8
0
 62
7
100
AcDbLine
 10
2.745835
 20
82.793616
 30
0.0
 11
2.357881
 21
82.793616
 31
0.0
  0
LINE
  5
307
100
AcDbEntity
  8
0
 62
7
100
AcDbLine
 10
2.357881
 20
82.793616
 30
0.0
 11
2.033896
 21
82.793616
 31
0.0
  0
LINE
  5
308
100
AcDbEntity
  8
0
 62
7
100
AcDbLine
 10
2.033896
 20
82.793616
 30
0.0
 11
1.790129
 21
82.793616
 31
0.0
  0
LINE
  5
309
100
AcDbEntity
  8
0
 62
7
100
AcDbLine
 10
1.790129
 20
82.793616
 30
0.0
 11
1.638799
 21
82.793616
 31
0.0
  0
LINE
  5
30a
100
AcDbEntity
  8
0
 62
7
100
AcDbLine
 10
1.638799
 20
82.793616
 30
0.0
 11
1.587499
 21
82.793616
 31
0.0
  0
LINE
  5
30b
100
AcDbEntity
  8
0
 62
7
100
AcDbLine
 10
1.587499
 20
82.793616
 30
0.0
 11
1.587499
 21
77.995838
 31
0.0
  0
LINE
  5
30c
100
AcDbEntity
  8
0
 62
7
100
AcDbLine
 10
1.587499
 20
77.995838
 30
0.0
 11
1.638799
 21
77.995838
 31
0.0
  0
LINE
  5
30d
100
AcDbEntity
  8
0
 62
7
100
AcDbLine
 10
1.638799
 20
77.995838
 30
0.0
 11
1.790129
 21
77.995838
 31
0.0
  0
LINE
  5
30e
100
AcDbEntity
  8
0
 62
7
100
AcDbLine
 10
1.790129
 20
77.995838
 30
0.0
 11
2.033896
 21
77.995838
 31
0.0
  0
LINE
  5
30f
100
AcDbEntity
  8
0
 62
7
100
AcDbLine
 10
2.033896
 20
77.995838
 30
0.0
 11
2.357881
 21
77.995838
 31
0.0
  0
LINE
  5
310
100
AcDbEntity
  8
0
 62
7
100
AcDbLine
 10
2.357881
 20
77.995838
 30
0.0
 11
2.745835
 21
77.995838
 31
0.0
  0
LINE
  5
311
100
AcDbEntity
  8
0
 62
7
100
AcDbLine
 10
2.745835
 20
77.995838
 30
0.0
 11
3.178307
 21
77.995838
 31
0.0
  0
LINE
  5
312
100
AcDbEntity
  8
0
 62
7
100
AcDbLine
 10
3.178307
 20
77.995838
 30
0.0
 11
3.633610
 21
77.995838
 31
0.0
  0
LINE
  5
313
100
AcDbEntity
  8
0
 62
7
100
AcDbLine
 10
3.633610
 20
77.995838
 30
0.0
 11
4.088914
 21
77.995838
 31
0.0
  0
LINE
  5
314
100
AcDbEntity
  8
0
 62
7
100
AcDbLine
 10
4.088914
 20
77.995838
 30
0.0
 11
4.521385
 21
77.995838
 31
0.0
  0
LINE
  5
315
100
AcDbEntity
  8
0
 62
7
100
AcDbLine
 10
4.521385
 20
77.995838
 30
0.0
 11
4.909339
 21
77.995838
 31
0.0
  0
LINE
  5
316
100
AcDbEntity
  8
0
 62
7
100
AcDbLine
 10
4.909339
 20
77.995838
 30
0.0
 11
5.233325
 21
77.995838
 31
0.0
  0
LINE
  5
317
100
AcDbEntity
  8
0
 62
7
100
AcDbLine
 10
5.233325
 20
77.995838
 30
0.0
 11
5.477091
 21
77.995838
 31
0.0
  0
LINE
  5
318
100
AcDbEntity
  8
0
 62
7
100
AcDbLine
 10
5.477091
 20
77.995838
 30
0.0
 11
5.628422
 21
77.995838
 31
0.0
  0
LINE
  5
319
100
AcDbEntity
  8
0
 62
7
100
AcDbLine
 10
5.628422
 20
77.995838
 30
0.0
 11
5.679721
 21
77.995838
 31
0.0
  0
LINE
  5
31a
100
AcDbEntity
  8
0
 62
7
100
AcDbLine
 10
5.679721
 20
77.995838
 30
0.0
 11
5.628422
 21
77.995838
 31
0.0
  0
LINE
  5
31b
100
AcDbEntity
  8
0
 62
7
100
AcDbLine
 10
5.628422
 20
77.995838
 30
0.0
 11
5.477091
 21
77.995838
 31
0.0
  0
LINE
  5
31c
100
AcDbEntity
  8
0
 62
7
100
AcDbLine
 10
5.477091
 20
77.995838
 30
0.0
 11
5.233325
 21
77.995838
 31
0.0
  0
LINE
  5
31d
100
AcDbEntity
  8
0
 62
7
100
AcDbLine
 10
5.233325
 20
77.995838
 30
0.0
 11
4.909339
 21
77.995838
 31
0.0
  0
LINE
  5
31e
100
AcDbEntity
  8
0
 62
7
100
AcDbLine
 10
4.909339
 20
77.995838
 30
0.0
 11
4.521385
 21
77.995838
 31
0.0
  0
LINE
  5
31f
100
AcDbEntity
  8
0
 62
7
100
AcDbLine
 10
4.521385
 20
77.995838
 30
0.0
 11
4.088914
 21
77.995838
 31
0.0
  0
LINE
  5
320
100
AcDbEntity
  8
0
 62
7
100
AcDbLine
 10
4.088914
 20
77.995838
 30
0.0
 11
3.633610
 21
77.995838
 31
0.0
  0
LINE
  5
321
100
AcDbEntity
  8
0
 62
7
100
AcDbLine
 10
3.633610
 20
77.995838
 30
0.0
 11
3.178307
 21
77.995838
 31
0.0
  0
LINE
  5
322
100
AcDbEntity
  8
0
 62
7
100
AcDbLine
 10
3.178307
 20
77.995838
 30
0.0
 11
2.745835
 21
77.995838
 31
0.0
  0
LINE
  5
323
100
AcDbEntity
  8
0
 62
7
100
AcDbLine
 10
2.745835
 20
77.995838
 30
0.0
 11
2.357881
 21
77.995838
 31
0.0
  0
LINE
  5
324
100
AcDbEntity
  8
0
 62
7
100
AcDbLine
 10
2.357881
 20
77.995838
 30
0.0
 11
2.033896
 21
77.995838
 31
0.0
  0
LINE
  5
325
100
AcDbEntity
  8
0
 62
7
100
AcDbLine
 10
2.033896
 20
77.995838
 30
0.0
 11
1.790129
 21
77.995838
 31
0.0
  0
LINE
  5
326
100
AcDbEntity
  8
0
 62
7
100
AcDbLine
 10
1.790129
 20
77.995838
 30
0.0
 11
1.638799
 21
77.995838
 31
0.0
  0
LINE
  5
327
100
AcDbEntity
  8
0
 62
7
100
AcDbLine
 10
1.638799
 20
77.995838
 30
0.0
 11
1.587499
 21
77.995838
 31
0.0
  0
LINE
  5
328
100
AcDbEntity
  8
0
 62
7
100
AcDbLine
 10
5.679721
 20
77.995838
 30
0.0
 11
5.679721
 21
82.793616
 31
0.0
  0
LINE
  5
329
100
AcDbEntity
  8
0
 62
7
100
AcDbLine
 10
7.217832
 20
82.793616
 30
0.0
 11
7.217832
 21
74.326950
 31
0.0
  0
LINE
  5
32a
100
AcDbEntity
  8
0
 62
7
100
AcDbLine
 10
0.049388
 20
82.793616
 30
0.0
 11
7.217832
 21
82.793616
 31
0.0
  0
LINE
  5
32b
100
AcDbEntity
  8
0
 62
7
100
AcDbLine
 10
0.049388
 20
74.326950
 30
0.0
 11
0.049388
 21
82.793616
 31
0.0
  0
ENDSEC
  0
SECTION
  2
OBJECTS
  0
DICTIONARY
  5
C
330
0
100
AcDbDictionary
  3
ACAD_GROUP
350
D
  3
ACAD_MLINESTYLE
350
17
  0
DICTIONARY
  5
D
330
C
100
AcDbDictionary
  0
DICTIONARY
  5
1A
330
C
100
AcDbDictionary
  0
DICTIONARY
  5
17
330
C
100
AcDbDictionary
  3
STANDARD
350
18
  0
DICTIONARY
  5
19
330
C
100
AcDbDictionary
  0
ENDSEC
  0
EOF
