999
dxfrw 0.5.11
0
SECTION
2
HEADER
9
$ACADVER
1
AC1021
9
$HANDSEED
5
20000
9
$DWGCODEPAGE
3
ANSI_1252
9
$INSBASE
10
0
20
0
30
0
9
$EXTMIN
10
0.5
20
0.5
30
0
9
$EXTMAX
10
21.5
20
16.5
30
0
9
$LIMMIN
10
0
20
0
9
$LIMMAX
10
22
20
17
9
$ORTHOMODE
70
0
9
$LTSCALE
40
2
9
$TEXTSTYLE
7
STANDARD
9
$CLAYER
8
0
9
$DIMASZ
40
0.2426757812
9
$DIMLFAC
40
1
9
$DIMSCALE
40
1
9
$DIMEXO
40
0.25
9
$DIMEXE
40
0.125
9
$DIMTXT
40
0.3333333333
9
$DIMTSZ
40
0
9
$DIMAUNIT
70
0
9
$DIMADEC
70
2
9
$DIMLUNIT
70
2
9
$DIMSTYLE
2
Standard
9
$DIMGAP
40
0.5
9
$DIMTIH
70
1
9
$LUNITS
70
2
9
$LUPREC
70
8
9
$AUNITS
70
0
9
$AUPREC
70
2
9
$SPLINESEGS
70
8
9
$GRIDMODE
70
0
9
$SNAPSTYLE
70
0
9
$PINSBASE
10
0
20
0
30
0
9
$PLIMMIN
10
0
20
0
9
$PLIMMAX
10
12
20
9
9
$INSUNITS
70
1
9
$PSVPSCALE
40
0
0
ENDSEC
0
SECTION
2
CLASSES
0
ENDSEC
0
SECTION
2
TABLES
0
TABLE
2
VPORT
5
8
330
0
100
AcDbSymbolTable
70
1
0
VPORT
5
31
330
2
100
AcDbSymbolTableRecord
100
AcDbViewportTableRecord
2
*ACTIVE
70
0
10
0
20
0
11
1
21
1
12
17.5124446903
22
6.76991150443
13
0
23
0
14
10
24
10
15
10
25
10
16
0
26
0
36
1
17
0
27
0
37
0
40
17.8650442478
41
2.65789473684
42
50
43
0
44
0
50
0
51
0
71
0
72
100
73
1
74
3
75
0
76
0
77
0
78
0
281
0
65
1
110
0
120
0
130
0
111
1
121
0
131
0
112
0
122
1
132
0
79
0
146
0
348
10020
60
7
61
5
292
1
282
1
141
0
142
0
63
250
421
3358443
0
ENDTAB
0
TABLE
2
LTYPE
5
5
330
0
100
AcDbSymbolTable
70
4
0
LTYPE
5
14
330
5
100
AcDbSymbolTableRecord
100
AcDbLinetypeTableRecord
2
ByBlock
70
0
3

72
65
73
0
40
0
0
LTYPE
5
15
330
5
100
AcDbSymbolTableRecord
100
AcDbLinetypeTableRecord
2
ByLayer
70
0
3

72
65
73
0
40
0
0
LTYPE
5
16
330
5
100
AcDbSymbolTableRecord
100
AcDbLinetypeTableRecord
2
Continuous
70
0
3
Solid line
72
65
73
0
40
0
0
LTYPE
5
32
330
5
100
AcDbSymbolTableRecord
100
AcDbLinetypeTableRecord
2
DOT
70
0
3
Dot . . . . . . . . . . . . . . . . . . . . . .
72
65
73
2
40
6.35
49
0
74
0
49
-6.35
74
0
0
LTYPE
5
33
330
5
100
AcDbSymbolTableRecord
100
AcDbLinetypeTableRecord
2
DOT2
70
0
3
Dot (.5x) .....................................
72
65
73
2
40
3.175
49
0
74
0
49
-3.175
74
0
0
LTYPE
5
34
330
5
100
AcDbSymbolTableRecord
100
AcDbLinetypeTableRecord
2
DOTX2
70
0
3
Dot (2x) .  .  .  .  .  .  .  .  .  .  .  .  .
72
65
73
2
40
12.7
49
0
74
0
49
-12.7
74
0
0
LTYPE
5
35
330
5
100
AcDbSymbolTableRecord
100
AcDbLinetypeTableRecord
2
DASHED
70
0
3
Dot . . . . . . . . . . . . . . . . . . . . . .
72
65
73
2
40
19.05
49
12.7
74
0
49
-6.35
74
0
0
LTYPE
5
36
330
5
100
AcDbSymbolTableRecord
100
AcDbLinetypeTableRecord
2
DASHED2
70
0
3
Dashed (.5x) _ _ _ _ _ _ _ _ _ _ _ _ _ _ _ _ _
72
65
73
2
40
9.525
49
6.35
74
0
49
-3.175
74
0
0
LTYPE
5
37
330
5
100
AcDbSymbolTableRecord
100
AcDbLinetypeTableRecord
2
DASHEDX2
70
0
3
Dashed (2x) ____  ____  ____  ____  ____  ___
72
65
73
2
40
38.1
49
25.4
74
0
49
-12.7
74
0
0
LTYPE
5
38
330
5
100
AcDbSymbolTableRecord
100
AcDbLinetypeTableRecord
2
DASHDOT
70
0
3
Dash dot __ . __ . __ . __ . __ . __ . __ . __
72
65
73
4
40
25.4
49
12.7
74
0
49
-6.35
74
0
49
0
74
0
49
-6.35
74
0
0
LTYPE
5
39
330
5
100
AcDbSymbolTableRecord
100
AcDbLinetypeTableRecord
2
DASHDOT2
70
0
3
Dash dot (.5x) _._._._._._._._._._._._._._._.
72
65
73
4
40
12.7
49
6.35
74
0
49
-3.175
74
0
49
0
74
0
49
-3.175
74
0
0
LTYPE
5
3A
330
5
100
AcDbSymbolTableRecord
100
AcDbLinetypeTableRecord
2
DASHDOTX2
70
0
3
Dash dot (2x) ____  .  ____  .  ____  .  ___
72
65
73
4
40
50.8
49
25.4
74
0
49
-12.7
74
0
49
0
74
0
49
-12.7
74
0
0
LTYPE
5
3B
330
5
100
AcDbSymbolTableRecord
100
AcDbLinetypeTableRecord
2
DIVIDE
70
0
3
Divide ____ . . ____ . . ____ . . ____ . . ____
72
65
73
6
40
31.75
49
12.7
74
0
49
-6.35
74
0
49
0
74
0
49
-6.35
74
0
49
0
74
0
49
-6.35
74
0
0
LTYPE
5
3C
330
5
100
AcDbSymbolTableRecord
100
AcDbLinetypeTableRecord
2
DIVIDE2
70
0
3
Divide (.5x) __..__..__..__..__..__..__..__.._
72
65
73
6
40
15.875
49
6.35
74
0
49
-3.175
74
0
49
0
74
0
49
-3.175
74
0
49
0
74
0
49
-3.175
74
0
0
LTYPE
5
3D
330
5
100
AcDbSymbolTableRecord
100
AcDbLinetypeTableRecord
2
DIVIDEX2
70
0
3
Divide (2x) ________  .  .  ________  .  .  _
72
65
73
6
40
63.5
49
25.4
74
0
49
-12.7
74
0
49
0
74
0
49
-12.7
74
0
49
0
74
0
49
-12.7
74
0
0
LTYPE
5
3E
330
5
100
AcDbSymbolTableRecord
100
AcDbLinetypeTableRecord
2
BORDER
70
0
3
Border __ __ . __ __ . __ __ . __ __ . __ __ .
72
65
73
6
40
44.45
49
12.7
74
0
49
-6.35
74
0
49
12.7
74
0
49
-6.35
74
0
49
0
74
0
49
-6.35
74
0
0
LTYPE
5
3F
330
5
100
AcDbSymbolTableRecord
100
AcDbLinetypeTableRecord
2
BORDER2
70
0
3
Border (.5x) __.__.__.__.__.__.__.__.__.__.__.
72
65
73
6
40
22.225
49
6.35
74
0
49
-3.175
74
0
49
6.35
74
0
49
-3.175
74
0
49
0
74
0
49
-3.175
74
0
0
LTYPE
5
40
330
5
100
AcDbSymbolTableRecord
100
AcDbLinetypeTableRecord
2
BORDERX2
70
0
3
Border (2x) ____  ____  .  ____  ____  .  ___
72
65
73
6
40
88.9
49
25.4
74
0
49
-12.7
74
0
49
25.4
74
0
49
-12.7
74
0
49
0
74
0
49
-12.7
74
0
0
LTYPE
5
41
330
5
100
AcDbSymbolTableRecord
100
AcDbLinetypeTableRecord
2
CENTER
70
0
3
Center ____ _ ____ _ ____ _ ____ _ ____ _ ____
72
65
73
4
40
50.8
49
31.75
74
0
49
-6.35
74
0
49
6.35
74
0
49
-6.35
74
0
0
LTYPE
5
42
330
5
100
AcDbSymbolTableRecord
100
AcDbLinetypeTableRecord
2
CENTER2
70
0
3
Center (.5x) ___ _ ___ _ ___ _ ___ _ ___ _ ___
72
65
73
4
40
28.575
49
19.05
74
0
49
-3.175
74
0
49
3.175
74
0
49
-3.175
74
0
0
LTYPE
5
43
330
5
100
AcDbSymbolTableRecord
100
AcDbLinetypeTableRecord
2
CENTERX2
70
0
3
Center (2x) ________  __  ________  __  _____
72
65
73
4
40
101.6
49
63.5
74
0
49
-12.7
74
0
49
12.7
74
0
49
-12.7
74
0
0
ENDTAB
0
TABLE
2
LAYER
5
2
330
0
100
AcDbSymbolTable
70
1
0
LAYER
5
10
330
2
100
AcDbSymbolTableRecord
100
AcDbLayerTableRecord
2
0
70
0
62
7
6
CONTINUOUS
370
-3
390
F
0
ENDTAB
0
TABLE
2
STYLE
5
3
330
0
100
AcDbSymbolTable
70
3
0
STYLE
5
44
330
2
100
AcDbSymbolTableRecord
100
AcDbTextStyleTableRecord
2
sldtextstyle0
70
0
40
0
41
1
50
0
71
0
42
1
3
sldtextstyle0
4

0
STYLE
5
45
330
2
100
AcDbSymbolTableRecord
100
AcDbTextStyleTableRecord
2
Standard
70
0
40
0
41
1
50
0
71
0
42
1
3
txt
4

0
ENDTAB
0
TABLE
2
VIEW
5
6
330
0
100
AcDbSymbolTable
70
0
0
ENDTAB
0
TABLE
2
UCS
5
7
330
0
100
AcDbSymbolTable
70
0
0
ENDTAB
0
TABLE
2
APPID
5
9
330
0
100
AcDbSymbolTable
70
1
0
APPID
5
12
330
9
100
AcDbSymbolTableRecord
100
AcDbRegAppTableRecord
2
ACAD
70
0
0
ENDTAB
0
TABLE
2
DIMSTYLE
5
A
330
0
100
AcDbSymbolTable
70
1
100
AcDbDimStyleTable
71
1
0
DIMSTYLE
105
46
330
A
100
AcDbSymbolTableRecord
100
AcDbDimStyleTableRecord
2
Standard
70
0
40
1
41
0.2426757812
42
0.25
43
0.38
44
0.125
45
0
46
0
47
0
48
0
140
0.3333333333
141
0.09
142
0
143
25.4
144
1
145
0
146
1
147
0.5
148
0
71
0
72
0
73
0
74
1
75
0
76
0
77
0
78
0
79
0
170
0
171
2
172
0
173
0
174
0
175
0
176
0
177
0
178
0
179
0
271
4
272
4
273
2
274
2
275
0
276
0
277
2
278
46
279
0
280
0
281
0
282
0
283
1
284
0
285
0
286
0
288
0
289
3
340
Standard
341

371
-2
372
-2
0
ENDTAB
0
TABLE
2
BLOCK_RECORD
5
1
330
0
100
AcDbSymbolTable
70
2
0
BLOCK_RECORD
5
1F
330
1
100
AcDbSymbolTableRecord
100
AcDbBlockTableRecord
2
*Model_Space
70
0
280
1
281
0
0
BLOCK_RECORD
5
1E
330
1
100
AcDbSymbolTableRecord
100
AcDbBlockTableRecord
2
*Paper_Space
70
0
280
1
281
0
0
BLOCK_RECORD
5
47
330
1
100
AcDbSymbolTableRecord
100
AcDbBlockTableRecord
2
Part Number Tag
70
0
280
1
281
0
0
BLOCK_RECORD
5
4A
330
1
100
AcDbSymbolTableRecord
100
AcDbBlockTableRecord
2
Shortened Dimensions Statement
70
0
280
1
281
0
0
BLOCK_RECORD
5
4D
330
1
100
AcDbSymbolTableRecord
100
AcDbBlockTableRecord
2
Internet
70
0
280
1
281
0
0
BLOCK_RECORD
5
50
330
1
100
AcDbSymbolTableRecord
100
AcDbBlockTableRecord
2
_D
70
0
280
1
281
0
0
BLOCK_RECORD
5
53
330
1
100
AcDbSymbolTableRecord
100
AcDbBlockTableRecord
2
_D_1
70
0
280
1
281
0
0
BLOCK_RECORD
5
56
330
1
100
AcDbSymbolTableRecord
100
AcDbBlockTableRecord
2
_D_2
70
0
280
1
281
0
0
BLOCK_RECORD
5
59
330
1
100
AcDbSymbolTableRecord
100
AcDbBlockTableRecord
2
_D_3
70
0
280
1
281
0
0
BLOCK_RECORD
5
5C
330
1
100
AcDbSymbolTableRecord
100
AcDbBlockTableRecord
2
_D_4
70
0
280
1
281
0
0
BLOCK_RECORD
5
5F
330
1
100
AcDbSymbolTableRecord
100
AcDbBlockTableRecord
2
_D_5
70
0
280
1
281
0
0
BLOCK_RECORD
5
62
330
1
100
AcDbSymbolTableRecord
100
AcDbBlockTableRecord
2
_D_6
70
0
280
1
281
0
0
BLOCK_RECORD
5
65
330
1
100
AcDbSymbolTableRecord
100
AcDbBlockTableRecord
2
_D_7
70
0
280
1
281
0
0
BLOCK_RECORD
5
68
330
1
100
AcDbSymbolTableRecord
100
AcDbBlockTableRecord
2
_D_8
70
0
280
1
281
0
0
BLOCK_RECORD
5
6B
330
1
100
AcDbSymbolTableRecord
100
AcDbBlockTableRecord
2
_D_9
70
0
280
1
281
0
0
BLOCK_RECORD
5
6E
330
1
100
AcDbSymbolTableRecord
100
AcDbBlockTableRecord
2
_D_10
70
0
280
1
281
0
0
ENDTAB
0
ENDSEC
0
SECTION
2
BLOCKS
0
BLOCK
5
20
330
1F
100
AcDbEntity
8
0
100
AcDbBlockBegin
2
*Model_Space
70
0
10
0
20
0
30
0
3
*Model_Space
1

0
ENDBLK
5
21
330
1F
100
AcDbEntity
8
0
100
AcDbBlockEnd
0
BLOCK
5
1C
330
1B
100
AcDbEntity
8
0
100
AcDbBlockBegin
2
*Paper_Space
70
0
10
0
20
0
30
0
3
*Paper_Space
1

0
ENDBLK
5
1D
330
1F
100
AcDbEntity
8
0
100
AcDbBlockEnd
0
BLOCK
5
48
330
47
100
AcDbEntity
8
0
100
AcDbBlockBegin
2
Part Number Tag
70
0
10
0
20
0
3
Part Number Tag
1

0
MTEXT
5
71
100
AcDbEntity
8
0
6
CONTINUOUS
62
7
370
0
100
AcDbMText
10
0.0118155692
20
0.0007531706
30
0
40
0.1666666667
41
0.8333333335
71
2
72
1
1
NUMBER
7
sldtextstyle0
210
0
220
0
230
1
50
0
73
1
44
1
0
MTEXT
5
72
100
AcDbEntity
8
0
6
CONTINUOUS
62
7
370
0
100
AcDbMText
10
0.0001236844
20
0.2225804243
30
0
40
0.1666666667
41
0.555555555667
71
2
72
1
1
PART
7
sldtextstyle0
210
0
220
0
230
1
50
0
73
1
44
1
0
ENDBLK
5
49
330
47
100
AcDbEntity
8
0
100
AcDbBlockEnd
0
BLOCK
5
4B
330
4A
100
AcDbEntity
8
0
100
AcDbBlockBegin
2
Shortened Dimensions Statement
70
0
10
0
20
0
3
Shortened Dimensions Statement
1

0
MTEXT
5
73
100
AcDbEntity
8
0
6
CONTINUOUS
62
7
370
0
100
AcDbMText
10
0.0763941398
20
0.0656197544
30
0
40
0.125
41
5.06944457302
71
2
72
1
1
Information in this drawing is provided for reference only.
7
sldtextstyle0
210
0
220
0
230
1
50
0
73
1
44
1
0
ENDBLK
5
4C
330
4A
100
AcDbEntity
8
0
100
AcDbBlockEnd
0
BLOCK
5
4E
330
4D
100
AcDbEntity
8
0
100
AcDbBlockBegin
2
Internet
70
0
10
0
20
0
3
Internet
1

0
MTEXT
5
74
100
AcDbEntity
8
0
6
CONTINUOUS
62
7
370
0
100
AcDbMText
10
0.0327363528
20
0.2025501713
30
0
40
0.1666666667
41
2.81481490109
71
2
72
1
1
http://www.mcmaster.com
7
sldtextstyle0
210
0
220
0
230
1
50
0
73
1
44
1
0
ENDBLK
5
4F
330
4D
100
AcDbEntity
8
0
100
AcDbBlockEnd
0
BLOCK
5
51
330
50
100
AcDbEntity
8
0
100
AcDbBlockBegin
2
_D
70
0
10
0
20
0
3
_D
1

0
SOLID
5
75
100
AcDbEntity
8
0
6
CONTINUOUS
62
7
370
0
100
AcDbTrace
10
14.734998381
20
4.7392060695
30
0
11
14.7723331165
21
4.9818818507
31
0
12
14.6976636454
22
4.9818818507
32
0
13
14.6976636454
23
4.9818818507
33
0
0
SOLID
5
76
100
AcDbEntity
8
0
6
CONTINUOUS
62
7
370
0
100
AcDbTrace
10
14.734998381
20
7.2392060695
30
0
11
14.6976636454
21
6.9965302882
31
0
12
14.7723331165
22
6.9965302882
32
0
13
14.7723331165
23
6.9965302882
33
0
0
LINE
5
77
100
AcDbEntity
8
0
6
CONTINUOUS
62
7
370
0
100
AcDbLine
10
12.0337397195
20
4.7392060695
11
14.859998381
21
4.7392060695
0
LINE
5
78
100
AcDbEntity
8
0
6
CONTINUOUS
62
7
370
0
100
AcDbLine
10
12.0337397195
20
7.2392060695
11
14.859998381
21
7.2392060695
0
LINE
5
79
100
AcDbEntity
8
0
6
CONTINUOUS
62
7
370
0
100
AcDbLine
10
14.734998381
20
4.7392060695
11
14.734998381
21
5.6165208781
0
LINE
5
7A
100
AcDbEntity
8
0
6
CONTINUOUS
62
7
370
0
100
AcDbLine
10
14.734998381
20
7.2392060695
11
14.734998381
21
6.3618912609
0
MTEXT
5
7B
100
AcDbEntity
8
0
6
CONTINUOUS
62
7
370
0
100
AcDbMText
10
13.60166512
20
6.3114730044
30
0
40
0.25
41
0.472222222222
71
1
72
1
1
For 
7
sldtextstyle0
210
0
220
0
230
1
50
0
73
1
44
1
0
MTEXT
5
7C
100
AcDbEntity
8
0
6
CONTINUOUS
62
7
370
0
100
AcDbMText
10
14.1942577176
20
6.3114730044
30
0
40
0.25
41
1.00694444444
71
1
72
1
1
2 1/2"
7
sldtextstyle0
210
0
220
0
230
1
50
0
73
1
44
1
0
MTEXT
5
7D
100
AcDbEntity
8
0
6
CONTINUOUS
62
7
370
0
100
AcDbMText
10
15.0535169347
20
6.3114730044
30
0
40
0.25
41
0.638888888889
71
1
72
1
1
 Max.
7
sldtextstyle0
210
0
220
0
230
1
50
0
73
1
44
1
0
MTEXT
5
7E
100
AcDbEntity
8
0
6
CONTINUOUS
62
7
370
0
100
AcDbMText
10
13.6053687772
20
5.9387878131
30
0
40
0.25
41
2.38194444444
71
1
72
1
1
Workpiece Dia.
7
sldtextstyle0
210
0
220
0
230
1
50
0
73
1
44
1
0
ENDBLK
5
52
330
50
100
AcDbEntity
8
0
100
AcDbBlockEnd
0
BLOCK
5
54
330
53
100
AcDbEntity
8
0
100
AcDbBlockBegin
2
_D_1
70
0
10
0
20
0
3
_D_1
1

0
ARC
5
7F
100
AcDbEntity
8
0
6
CONTINUOUS
62
7
370
0
100
AcDbCircle
10
11.7837397195
20
4.2214391165
40
1.26678304789
100
AcDbArc
50
45
51
78.5324945625
0
ARC
5
80
100
AcDbEntity
8
0
6
CONTINUOUS
62
7
370
0
100
AcDbCircle
10
11.7837397195
20
4.2214391165
40
1.26678304789
100
AcDbArc
50
101.467505437
51
135
0
SOLID
5
81
100
AcDbEntity
8
0
6
CONTINUOUS
62
7
370
0
100
AcDbTrace
10
12.679490603
20
5.11719
30
0
11
12.5162322357
21
5.300580629
31
0
12
12.4686585607
22
5.2430282583
32
0
13
12.4686585607
23
5.2430282583
33
0
0
SOLID
5
82
100
AcDbEntity
8
0
6
CONTINUOUS
62
7
370
0
100
AcDbTrace
10
10.8879888361
20
5.11719
30
0
11
11.0988208783
21
5.2430282583
31
0
12
11.0512472033
22
5.300580629
32
0
13
11.0512472033
23
5.300580629
33
0
0
MTEXT
5
83
100
AcDbEntity
8
0
6
CONTINUOUS
62
7
370
0
100
AcDbMText
10
11.5318878573
20
5.6241465037
30
0
40
0.25
41
0.472222222222
71
1
72
1
1
90%%D
7
sldtextstyle0
210
0
220
0
230
1
50
0
73
1
44
1
0
ENDBLK
5
55
330
53
100
AcDbEntity
8
0
100
AcDbBlockEnd
0
BLOCK
5
57
330
56
100
AcDbEntity
8
0
100
AcDbBlockBegin
2
_D_2
70
0
10
0
20
0
3
_D_2
1

0
SOLID
5
84
100
AcDbEntity
8
0
6
CONTINUOUS
62
7
370
0
100
AcDbTrace
10
10.5337397195
20
8.0312639623
30
0
11
10.7764155008
21
7.9939292268
31
0
12
10.7764155008
22
8.0685986979
32
0
13
10.7764155008
23
8.0685986979
33
0
0
SOLID
5
85
100
AcDbEntity
8
0
6
CONTINUOUS
62
7
370
0
100
AcDbTrace
10
13.0337397195
20
8.0312639623
30
0
11
12.7910639383
21
8.0685986979
31
0
12
12.7910639383
22
7.9939292268
32
0
13
12.7910639383
23
7.9939292268
33
0
0
LINE
5
86
100
AcDbEntity
8
0
6
CONTINUOUS
62
7
370
0
100
AcDbLine
10
10.5337397195
20
5.6362427132
11
10.5337397195
21
8.1562639623
0
LINE
5
87
100
AcDbEntity
8
0
6
CONTINUOUS
62
7
370
0
100
AcDbLine
10
13.0337397195
20
5.6362427132
11
13.0337397195
21
8.1562639623
0
LINE
5
88
100
AcDbEntity
8
0
6
CONTINUOUS
62
7
370
0
100
AcDbLine
10
10.5337397195
20
8.0312639623
11
11.3541100926
21
8.0312639623
0
LINE
5
89
100
AcDbEntity
8
0
6
CONTINUOUS
62
7
370
0
100
AcDbLine
10
13.0337397195
20
8.0312639623
11
12.2133693464
21
8.0312639623
0
MTEXT
5
8A
100
AcDbEntity
8
0
6
CONTINUOUS
62
7
370
0
100
AcDbMText
10
11.3541100926
20
8.1671883016
30
0
40
0.25
41
1.00694444444
71
1
72
1
1
2 1/2"
7
sldtextstyle0
210
0
220
0
230
1
50
0
73
1
44
1
0
ENDBLK
5
58
330
56
100
AcDbEntity
8
0
100
AcDbBlockEnd
0
BLOCK
5
5A
330
59
100
AcDbEntity
8
0
100
AcDbBlockBegin
2
_D_3
70
0
10
0
20
0
3
_D_3
1

0
SOLID
5
8B
100
AcDbEntity
8
0
6
CONTINUOUS
62
7
370
0
100
AcDbTrace
10
11.5687397195
20
2.8847675417
30
0
11
11.3260639383
21
2.9221022773
31
0
12
11.3260639383
22
2.8474328061
32
0
13
11.3260639383
23
2.8474328061
33
0
0
SOLID
5
8C
100
AcDbEntity
8
0
6
CONTINUOUS
62
7
370
0
100
AcDbTrace
10
11.9987397195
20
2.8847675417
30
0
11
12.2414155008
21
2.8474328061
31
0
12
12.2414155008
22
2.9221022773
32
0
13
12.2414155008
23
2.9221022773
33
0
0
LINE
5
8D
100
AcDbEntity
8
0
6
CONTINUOUS
62
7
370
0
100
AcDbLine
10
11.5687397195
20
3.9364391165
11
11.5687397195
21
2.7597675417
0
LINE
5
8E
100
AcDbEntity
8
0
6
CONTINUOUS
62
7
370
0
100
AcDbLine
10
11.9987397195
20
3.9364391165
11
11.9987397195
21
2.7597675417
0
LINE
5
8F
100
AcDbEntity
8
0
6
CONTINUOUS
62
7
370
0
100
AcDbLine
10
11.5687397195
20
2.8847675417
11
11.1020555248
21
2.8847675417
0
LINE
5
90
100
AcDbEntity
8
0
6
CONTINUOUS
62
7
370
0
100
AcDbLine
10
11.9987397195
20
2.8847675417
11
12.5420690666
21
2.8847675417
0
MTEXT
5
91
100
AcDbEntity
8
0
6
CONTINUOUS
62
7
370
0
100
AcDbMText
10
12.5420690666
20
3.020691881
30
0
40
0.25
41
0.819444444444
71
1
72
1
1
7/16"
7
sldtextstyle0
210
0
220
0
230
1
50
0
73
1
44
1
0
ENDBLK
5
5B
330
59
100
AcDbEntity
8
0
100
AcDbBlockEnd
0
BLOCK
5
5D
330
5C
100
AcDbEntity
8
0
100
AcDbBlockBegin
2
_D_4
70
0
10
0
20
0
3
_D_4
1

0
SOLID
5
92
100
AcDbEntity
8
0
6
CONTINUOUS
62
7
370
0
100
AcDbTrace
10
8.5638971998
20
5.3971691798
30
0
11
8.5265624642
21
5.1544933985
31
0
12
8.6012319354
22
5.1544933985
32
0
13
8.6012319354
23
5.1544933985
33
0
0
SOLID
5
93
100
AcDbEntity
8
0
6
CONTINUOUS
62
7
370
0
100
AcDbTrace
10
8.5638971998
20
4.0623091165
30
0
11
8.6012319354
21
4.3049848978
31
0
12
8.5265624642
22
4.3049848978
32
0
13
8.5265624642
23
4.3049848978
33
0
0
LINE
5
94
100
AcDbEntity
8
0
6
CONTINUOUS
62
7
370
0
100
AcDbLine
10
10.3244038806
20
5.3971691798
11
8.4388971998
21
5.3971691798
0
LINE
5
95
100
AcDbEntity
8
0
6
CONTINUOUS
62
7
370
0
100
AcDbLine
10
11.5337397195
20
4.0623091165
11
8.4388971998
21
4.0623091165
0
LINE
5
96
100
AcDbEntity
8
0
6
CONTINUOUS
62
7
370
0
100
AcDbLine
10
8.5638971998
20
5.3971691798
11
8.5638971998
21
4.9160817438
0
LINE
5
97
100
AcDbEntity
8
0
6
CONTINUOUS
62
7
370
0
100
AcDbLine
10
8.5638971998
20
4.0623091165
11
8.5638971998
21
4.5433965525
0
MTEXT
5
98
100
AcDbEntity
8
0
6
CONTINUOUS
62
7
370
0
100
AcDbMText
10
8.1342675729
20
4.8656634874
30
0
40
0.25
41
0.979166666667
71
1
72
1
1
1 1/4"
7
sldtextstyle0
210
0
220
0
230
1
50
0
73
1
44
1
0
ENDBLK
5
5E
330
5C
100
AcDbEntity
8
0
100
AcDbBlockEnd
0
BLOCK
5
60
330
5F
100
AcDbEntity
8
0
100
AcDbBlockBegin
2
_D_5
70
0
10
0
20
0
3
_D_5
1

0
SOLID
5
99
100
AcDbEntity
8
0
6
CONTINUOUS
62
7
370
0
100
AcDbTrace
10
7.3269232074
20
5.3971691798
30
0
11
7.2895884718
21
5.1544933985
31
0
12
7.3642579429
22
5.1544933985
32
0
13
7.3642579429
23
5.1544933985
33
0
0
SOLID
5
9A
100
AcDbEntity
8
0
6
CONTINUOUS
62
7
370
0
100
AcDbTrace
10
7.3269232074
20
3.6721691165
30
0
11
7.3642579429
21
3.9148448978
31
0
12
7.2895884718
22
3.9148448978
32
0
13
7.2895884718
23
3.9148448978
33
0
0
LINE
5
9B
100
AcDbEntity
8
0
6
CONTINUOUS
62
7
370
0
100
AcDbLine
10
10.3244038806
20
5.3971691798
11
7.2019232074
21
5.3971691798
0
LINE
5
9C
100
AcDbEntity
8
0
6
CONTINUOUS
62
7
370
0
100
AcDbLine
10
9.5737397195
20
3.6721691165
11
7.2019232074
21
3.6721691165
0
LINE
5
9D
100
AcDbEntity
8
0
6
CONTINUOUS
62
7
370
0
100
AcDbLine
10
7.3269232074
20
5.3971691798
11
7.3269232074
21
4.7210117438
0
LINE
5
9E
100
AcDbEntity
8
0
6
CONTINUOUS
62
7
370
0
100
AcDbLine
10
7.3269232074
20
3.6721691165
11
7.3269232074
21
4.3483265525
0
MTEXT
5
9F
100
AcDbEntity
8
0
6
CONTINUOUS
62
7
370
0
100
AcDbMText
10
6.8972935805
20
4.6705934874
30
0
40
0.25
41
1.03472222222
71
1
72
1
1
1 3/4"
7
sldtextstyle0
210
0
220
0
230
1
50
0
73
1
44
1
0
ENDBLK
5
61
330
5F
100
AcDbEntity
8
0
100
AcDbBlockEnd
0
BLOCK
5
63
330
62
100
AcDbEntity
8
0
100
AcDbBlockBegin
2
_D_6
70
0
10
0
20
0
3
_D_6
1

0
SOLID
5
A0
100
AcDbEntity
8
0
6
CONTINUOUS
62
7
370
0
100
AcDbTrace
10
7.311406125
20
13.9862039126
30
0
11
7.2740713894
21
13.7435281313
31
0
12
7.3487408606
22
13.7435281313
32
0
13
7.3487408606
23
13.7435281313
33
0
0
SOLID
5
A1
100
AcDbEntity
8
0
6
CONTINUOUS
62
7
370
0
100
AcDbTrace
10
7.311406125
20
8.9862039126
30
0
11
7.3487408606
21
9.2288796938
31
0
12
7.2740713894
22
9.2288796938
32
0
13
7.2740713894
23
9.2288796938
33
0
0
LINE
5
A2
100
AcDbEntity
8
0
6
CONTINUOUS
62
7
370
0
100
AcDbLine
10
9.5737397195
20
13.9862039126
11
7.186406125
21
13.9862039126
0
LINE
5
A3
100
AcDbEntity
8
0
6
CONTINUOUS
62
7
370
0
100
AcDbLine
10
9.5737397195
20
8.9862039126
11
7.186406125
21
8.9862039126
0
LINE
5
A4
100
AcDbEntity
8
0
6
CONTINUOUS
62
7
370
0
100
AcDbLine
10
7.311406125
20
13.9862039126
11
7.311406125
21
11.6725465083
0
LINE
5
A5
100
AcDbEntity
8
0
6
CONTINUOUS
62
7
370
0
100
AcDbLine
10
7.311406125
20
8.9862039126
11
7.311406125
21
11.2998613169
0
MTEXT
5
A6
100
AcDbEntity
8
0
6
CONTINUOUS
62
7
370
0
100
AcDbMText
10
7.1595542726
20
11.6221282518
30
0
40
0.25
41
0.291666666667
71
1
72
1
1
5"
7
sldtextstyle0
210
0
220
0
230
1
50
0
73
1
44
1
0
ENDBLK
5
64
330
62
100
AcDbEntity
8
0
100
AcDbBlockEnd
0
BLOCK
5
66
330
65
100
AcDbEntity
8
0
100
AcDbBlockBegin
2
_D_7
70
0
10
0
20
0
3
_D_7
1

0
SOLID
5
A7
100
AcDbEntity
8
0
6
CONTINUOUS
62
7
370
0
100
AcDbTrace
10
8.5638971998
20
13.2912039126
30
0
11
8.5265624642
21
13.0485281313
31
0
12
8.6012319354
22
13.0485281313
32
0
13
8.6012319354
23
13.0485281313
33
0
0
SOLID
5
A8
100
AcDbEntity
8
0
6
CONTINUOUS
62
7
370
0
100
AcDbTrace
10
8.5638971998
20
9.6812039126
30
0
11
8.6012319354
21
9.9238796938
31
0
12
8.5265624642
22
9.9238796938
32
0
13
8.5265624642
23
9.9238796938
33
0
0
LINE
5
A9
100
AcDbEntity
8
0
6
CONTINUOUS
62
7
370
0
100
AcDbLine
10
10.0787397195
20
13.2912039126
11
8.4388971998
21
13.2912039126
0
LINE
5
AA
100
AcDbEntity
8
0
6
CONTINUOUS
62
7
370
0
100
AcDbLine
10
10.0787397195
20
9.6812039126
11
8.4388971998
21
9.6812039126
0
LINE
5
AB
100
AcDbEntity
8
0
6
CONTINUOUS
62
7
370
0
100
AcDbLine
10
8.5638971998
20
13.2912039126
11
8.5638971998
21
11.6725465083
0
LINE
5
AC
100
AcDbEntity
8
0
6
CONTINUOUS
62
7
370
0
100
AcDbLine
10
8.5638971998
20
9.6812039126
11
8.5638971998
21
11.2998613169
0
MTEXT
5
AD
100
AcDbEntity
8
0
6
CONTINUOUS
62
7
370
0
100
AcDbMText
10
8.1342675729
20
11.6221282518
30
0
40
0.25
41
1.0625
71
1
72
1
1
3 5/8"
7
sldtextstyle0
210
0
220
0
230
1
50
0
73
1
44
1
0
ENDBLK
5
67
330
65
100
AcDbEntity
8
0
100
AcDbBlockEnd
0
BLOCK
5
69
330
68
100
AcDbEntity
8
0
100
AcDbBlockBegin
2
_D_8
70
0
10
0
20
0
3
_D_8
1

0
SOLID
5
AE
100
AcDbEntity
8
0
6
CONTINUOUS
62
7
370
0
100
AcDbTrace
10
9.8237397195
20
15.7184873771
30
0
11
10.0664155008
21
15.6811526416
31
0
12
10.0664155008
22
15.7558221127
32
0
13
10.0664155008
23
15.7558221127
33
0
0
SOLID
5
AF
100
AcDbEntity
8
0
6
CONTINUOUS
62
7
370
0
100
AcDbTrace
10
13.7437397195
20
15.7184873771
30
0
11
13.5010639383
21
15.7558221127
31
0
12
13.5010639383
22
15.6811526416
32
0
13
13.5010639383
23
15.6811526416
33
0
0
LINE
5
B0
100
AcDbEntity
8
0
6
CONTINUOUS
62
7
370
0
100
AcDbLine
10
9.8237397195
20
14.2362039126
11
9.8237397195
21
15.8434873771
0
LINE
5
B1
100
AcDbEntity
8
0
6
CONTINUOUS
62
7
370
0
100
AcDbLine
10
13.7437397195
20
14.2362039126
11
13.7437397195
21
15.8434873771
0
LINE
5
B2
100
AcDbEntity
8
0
6
CONTINUOUS
62
7
370
0
100
AcDbLine
10
9.8237397195
20
15.7184873771
11
11.631887867
21
15.7184873771
0
LINE
5
B3
100
AcDbEntity
8
0
6
CONTINUOUS
62
7
370
0
100
AcDbLine
10
13.7437397195
20
15.7184873771
11
11.935591572
21
15.7184873771
0
MTEXT
5
B4
100
AcDbEntity
8
0
6
CONTINUOUS
62
7
370
0
100
AcDbMText
10
11.631887867
20
15.8544117164
30
0
40
0.25
41
0.319444444444
71
1
72
1
1
4"
7
sldtextstyle0
210
0
220
0
230
1
50
0
73
1
44
1
0
ENDBLK
5
6A
330
68
100
AcDbEntity
8
0
100
AcDbBlockEnd
0
BLOCK
5
6C
330
6B
100
AcDbEntity
8
0
100
AcDbBlockBegin
2
_D_9
70
0
10
0
20
0
3
_D_9
1

0
SOLID
5
B5
100
AcDbEntity
8
0
6
CONTINUOUS
62
7
370
0
100
AcDbTrace
10
10.3287397195
20
14.7736054874
30
0
11
10.5714155008
21
14.7362707518
31
0
12
10.5714155008
22
14.8109402229
32
0
13
10.5714155008
23
14.8109402229
33
0
0
SOLID
5
B6
100
AcDbEntity
8
0
6
CONTINUOUS
62
7
370
0
100
AcDbTrace
10
13.2387397195
20
14.7736054874
30
0
11
12.9960639383
21
14.8109402229
31
0
12
12.9960639383
22
14.7362707518
32
0
13
12.9960639383
23
14.7362707518
33
0
0
LINE
5
B7
100
AcDbEntity
8
0
6
CONTINUOUS
62
7
370
0
100
AcDbLine
10
10.3287397195
20
13.3934948727
11
10.3287397195
21
14.8986054874
0
LINE
5
B8
100
AcDbEntity
8
0
6
CONTINUOUS
62
7
370
0
100
AcDbLine
10
13.2387397195
20
13.3872098864
11
13.2387397195
21
14.8986054874
0
LINE
5
B9
100
AcDbEntity
8
0
6
CONTINUOUS
62
7
370
0
100
AcDbLine
10
10.3287397195
20
14.7736054874
11
11.1689248852
21
14.7736054874
0
LINE
5
BA
100
AcDbEntity
8
0
6
CONTINUOUS
62
7
370
0
100
AcDbLine
10
13.2387397195
20
14.7736054874
11
12.3985545538
21
14.7736054874
0
MTEXT
5
BB
100
AcDbEntity
8
0
6
CONTINUOUS
62
7
370
0
100
AcDbMText
10
11.1689248852
20
14.9095298266
30
0
40
0.25
41
1.34027777778
71
1
72
1
1
2 15/16"
7
sldtextstyle0
210
0
220
0
230
1
50
0
73
1
44
1
0
ENDBLK
5
6D
330
6B
100
AcDbEntity
8
0
100
AcDbBlockEnd
0
BLOCK
5
6F
330
6E
100
AcDbEntity
8
0
100
AcDbBlockBegin
2
_D_10
70
0
10
0
20
0
3
_D_10
1

0
SOLID
5
BC
100
AcDbEntity
8
0
6
CONTINUOUS
62
7
370
0
100
AcDbTrace
10
14.5311412943
20
9.8762039126
30
0
11
14.5684760299
21
10.1188796938
31
0
12
14.4938065587
22
10.1188796938
32
0
13
14.4938065587
23
10.1188796938
33
0
0
SOLID
5
BD
100
AcDbEntity
8
0
6
CONTINUOUS
62
7
370
0
100
AcDbTrace
10
14.5311412943
20
9.4862039126
30
0
11
14.4938065587
21
9.2435281313
31
0
12
14.5684760299
22
9.2435281313
32
0
13
14.5684760299
23
9.2435281313
33
0
0
LINE
5
BE
100
AcDbEntity
8
0
6
CONTINUOUS
62
7
370
0
100
AcDbLine
10
13.9937397195
20
9.8762039126
11
14.6561412943
21
9.8762039126
0
LINE
5
BF
100
AcDbEntity
8
0
6
CONTINUOUS
62
7
370
0
100
AcDbLine
10
13.9937397195
20
9.4862039126
11
14.6561412943
21
9.4862039126
0
LINE
5
C0
100
AcDbEntity
8
0
6
CONTINUOUS
62
7
370
0
100
AcDbLine
10
14.5311412943
20
9.8762039126
11
14.5311412943
21
10.3428881073
0
LINE
5
C1
100
AcDbEntity
8
0
6
CONTINUOUS
62
7
370
0
100
AcDbLine
10
14.5311412943
20
9.4862039126
11
14.5311412943
21
9.0195197179
0
MTEXT
5
C2
100
AcDbEntity
8
0
6
CONTINUOUS
62
7
370
0
100
AcDbMText
10
14.240400573
20
9.8171282518
30
0
40
0.25
41
0.680555555556
71
1
72
1
1
3/8"
7
sldtextstyle0
210
0
220
0
230
1
50
0
73
1
44
1
0
ENDBLK
5
70
330
6E
100
AcDbEntity
8
0
100
AcDbBlockEnd
0
ENDSEC
0
SECTION
2
ENTITIES
0
LINE
5
C3
100
AcDbEntity
8
0
6
CONTINUOUS
62
7
370
15
100
AcDbLine
10
11.0587397195
20
3.9021691165
11
9.9387397195
21
3.9021691165
0
ARC
5
C4
100
AcDbEntity
8
0
6
CONTINUOUS
62
7
370
15
100
AcDbCircle
10
11.0587397195
20
4.0271691165
40
0.125
100
AcDbArc
50
270
51
0
0
LINE
5
C5
100
AcDbEntity
8
0
6
CONTINUOUS
62
7
370
15
100
AcDbLine
10
11.1837397195
20
4.3582391165
11
11.1837397195
21
4.0271691165
0
LINE
5
C6
100
AcDbEntity
8
0
6
CONTINUOUS
62
7
370
15
100
AcDbLine
10
11.5687397195
20
4.1864391165
11
11.5687397195
21
4.4364391165
0
LINE
5
C7
100
AcDbEntity
8
0
6
CONTINUOUS
62
7
370
15
100
AcDbLine
10
11.5687397195
20
4.4364391165
11
10.6317725281
21
5.3734063079
0
LINE
5
C8
100
AcDbEntity
8
0
6
CONTINUOUS
62
7
370
15
100
AcDbLine
10
11.9987397195
20
4.1864391165
11
11.7837397195
21
4.0623091165
0
LINE
5
C9
100
AcDbEntity
8
0
6
CONTINUOUS
62
7
370
15
100
AcDbLine
10
11.9987397195
20
4.4364391165
11
11.9987397195
21
4.1864391165
0
LINE
5
CA
100
AcDbEntity
8
0
6
CONTINUOUS
62
7
370
15
100
AcDbLine
10
12.9357069109
20
5.3734063079
11
11.9987397195
21
4.4364391165
0
ARC
5
CB
100
AcDbEntity
8
0
6
CONTINUOUS
62
7
370
15
100
AcDbCircle
10
12.9930755584
20
5.3160376605
40
0.0811315192986
100
AcDbArc
50
321.27263
51
135
0
LINE
5
CC
100
AcDbEntity
8
0
6
CONTINUOUS
62
7
370
15
100
AcDbLine
10
12.4264595451
20
4.4797944906
11
13.0563688238
21
5.2652805331
0
ARC
5
CD
100
AcDbEntity
8
0
6
CONTINUOUS
62
7
370
15
100
AcDbCircle
10
12.5780370071
20
4.3582391165
40
0.194297287576
100
AcDbArc
50
141.27263
51
180
0
LINE
5
CE
100
AcDbEntity
8
0
6
CONTINUOUS
62
7
370
15
100
AcDbLine
10
12.3837397195
20
4.0271691165
11
12.3837397195
21
4.3582391165
0
ARC
5
CF
100
AcDbEntity
8
0
6
CONTINUOUS
62
7
370
15
100
AcDbCircle
10
12.5087397195
20
4.0271691165
40
0.125
100
AcDbArc
50
180
51
270
0
LINE
5
D0
100
AcDbEntity
8
0
6
CONTINUOUS
62
7
370
15
100
AcDbLine
10
13.6287397195
20
3.9021691165
11
12.5087397195
21
3.9021691165
0
LINE
5
D1
100
AcDbEntity
8
0
6
CONTINUOUS
62
7
370
15
100
AcDbLine
10
11.7837397195
20
4.0623091165
11
11.5687397195
21
4.1864391165
0
LINE
5
D2
100
AcDbEntity
8
0
6
CONTINUOUS
62
7
370
15
100
AcDbLine
10
11.8087397195
20
3.6721691165
11
13.6287397195
21
3.6721691165
0
LINE
5
D3
100
AcDbEntity
8
0
6
CONTINUOUS
62
7
370
15
100
AcDbLine
10
11.7837397195
20
3.6971691165
11
11.8087397195
21
3.6721691165
0
LINE
5
D4
100
AcDbEntity
8
0
6
CONTINUOUS
62
7
370
15
100
AcDbLine
10
11.7587397195
20
3.6721691165
11
11.7837397195
21
3.6971691165
0
LINE
5
D5
100
AcDbEntity
8
0
6
CONTINUOUS
62
7
370
15
100
AcDbLine
10
9.9387397195
20
3.6721691165
11
11.7587397195
21
3.6721691165
0
ARC
5
D6
100
AcDbEntity
8
0
6
CONTINUOUS
62
7
370
15
100
AcDbCircle
10
9.9387397195
20
3.7871691165
40
0.115
100
AcDbArc
50
90
51
270
0
ARC
5
D7
100
AcDbEntity
8
0
6
CONTINUOUS
62
7
370
15
100
AcDbCircle
10
10.9894424319
20
4.3582391165
40
0.194297287576
100
AcDbArc
50
0
51
38.72737
0
LINE
5
D8
100
AcDbEntity
8
0
6
CONTINUOUS
62
7
370
15
100
AcDbLine
10
10.5111106153
20
5.2652805331
11
11.1410198939
21
4.4797944906
0
ARC
5
D9
100
AcDbEntity
8
0
6
CONTINUOUS
62
7
370
15
100
AcDbCircle
10
10.5744038806
20
5.3160376605
40
0.0811315192986
100
AcDbArc
50
45
51
218.72737
0
ARC
5
DA
100
AcDbEntity
8
0
6
CONTINUOUS
62
7
370
15
100
AcDbCircle
10
13.6287397195
20
3.7871691165
40
0.115
100
AcDbArc
50
270
51
90
0
ENDSEC
0
SECTION
2
OBJECTS
0
DICTIONARY
5
C
330
0
100
AcDbDictionary
281
1
3
ACAD_GROUP
350
D
0
DICTIONARY
5
D
330
C
100
AcDbDictionary
281
1
0
ENDSEC
0
EOF
