999
dxfrw 0.6.3
  0
SECTION
  2
HEADER
  9
$ACADVER
  1
AC1021
  9
$DWGCODEPAGE
  3
ANSI_1252
  9
$INSBASE
 10
0
 20
0
 30
0
  9
$EXTMIN
 10
-112.719778122774
 20
-84
 30
0
  9
$EXTMAX
 10
82.2125640115127
 20
509
 30
0
  9
$LIMMIN
 10
0
 20
0
  9
$LIMMAX
 10
420
 20
297
  9
$ORTHOMODE
 70
    0
  9
$REGENMODE
 70
    1
  9
$FILLMODE
 70
    1
  9
$QTEXTMODE
 70
    0
  9
$MIRRTEXT
 70
    0
  9
$LTSCALE
 40
1
  9
$ATTMODE
 70
    0
  9
$TEXTSIZE
 40
2.5
  9
$TRACEWID
 40
15.68
  9
$TEXTSTYLE
  7
STANDARD
  9
$CLAYER
  8
Frame
  9
$CELTYPE
  6
BYLAYER
  9
$CECOLOR
 62
  256
  9
$CELTSCALE
 40
1
  9
$DISPSILH
 70
    0
  9
$DIMSCALE
 40
1
  9
$DIMASZ
 40
2.5
  9
$DIMEXO
 40
0.625
  9
$DIMDLI
 40
3.75
  9
$DIMRND
 40
0
  9
$DIMDLE
 40
0
  9
$DIMEXE
 40
1.25
  9
$DIMTP
 40
0
  9
$DIMTM
 40
0
  9
$DIMTXT
 40
2.5
  9
$DIMCEN
 40
2.5
  9
$DIMTSZ
 40
0
  9
$DIMTOL
 70
    0
  9
$DIMLIM
 70
    0
  9
$DIMTIH
 70
    0
  9
$DIMTOH
 70
    0
  9
$DIMSE1
 70
    0
  9
$DIMSE2
 70
    0
  9
$DIMTAD
 70
    1
  9
$DIMZIN
 70
    8
  9
$DIMBLK
  1

  9
$DIMASO
 70
    1
  9
$DIMSHO
 70
    1
  9
$DIMPOST
  1

  9
$DIMAPOST
  1

  9
$DIMALT
 70
    0
  9
$DIMALTD
 70
    3
  9
$DIMALTF
 40
0.03937
  9
$DIMLFAC
 40
1
  9
$DIMTOFL
 70
    1
  9
$DIMTVP
 40
0
  9
$DIMTIX
 70
    0
  9
$DIMSOXD
 70
    0
  9
$DIMSAH
 70
    0
  9
$DIMBLK1
  1

  9
$DIMBLK2
  1

  9
$DIMSTYLE
  2
STANDARD
  9
$DIMCLRD
 70
    0
  9
$DIMCLRE
 70
    0
  9
$DIMCLRT
 70
    0
  9
$DIMTFAC
 40
1
  9
$DIMGAP
 40
1
  9
$DIMJUST
 70
    0
  9
$DIMSD1
 70
    0
  9
$DIMSD2
 70
    0
  9
$DIMTOLJ
 70
    0
  9
$DIMTZIN
 70
    8
  9
$DIMALTZ
 70
    0
  9
$DIMALTTZ
 70
    0
  9
$DIMUPT
 70
    0
  9
$DIMDEC
 70
    1
  9
$DIMTDEC
 70
    2
  9
$DIMALTU
 70
    2
  9
$DIMALTTD
 70
    3
  9
$DIMTXSTY
  7
standard
  9
$DIMAUNIT
 70
    0
  9
$DIMADEC
 70
    0
  9
$DIMALTRND
 40
0
  9
$DIMAZIN
 70
    0
  9
$DIMDSEP
 70
    0
  9
$DIMATFIT
 70
    3
  9
$DIMFRAC
 70
    0
  9
$DIMLDRBLK
  1
STANDARD
  9
$DIMLUNIT
 70
    2
  9
$DIMLWD
 70
   -2
  9
$DIMLWE
 70
   -2
  9
$DIMTMOVE
 70
    0
  9
$DIMFXL
 40
1
  9
$DIMFXLON
 70
    0
  9
$DIMJOGANG
 40
0.7854
  9
$DIMTFILL
 70
    0
  9
$DIMTFILLCLR
 70
    0
  9
$DIMARCSYM
 70
    0
  9
$DIMLTYPE
  6

  9
$DIMLTEX1
  6

  9
$DIMLTEX2
  6

  9
$LUNITS
 70
    2
  9
$LUPREC
 70
    4
  9
$SKETCHINC
 40
1
  9
$FILLETRAD
 40
0
  9
$AUNITS
 70
    0
  9
$AUPREC
 70
    2
  9
$MENU
  1
.
  9
$ELEVATION
 40
0
  9
$PELEVATION
 40
0
  9
$THICKNESS
 40
0
  9
$LIMCHECK
 70
    0
  9
$CHAMFERA
 40
0
  9
$CHAMFERB
 40
0
  9
$CHAMFERC
 40
0
  9
$CHAMFERD
 40
0
  9
$SKPOLY
 70
    0
  9
$USRTIMER
 70
    1
  9
$ANGBASE
 50
0
  9
$ANGDIR
 70
    0
  9
$PDMODE
 70
   34
  9
$PDSIZE
 40
0
  9
$PLINEWID
 40
0
  9
$SPLFRAME
 70
    0
  9
$SPLINETYPE
 70
    2
  9
$SPLINESEGS
 70
    8
  9
$HANDSEED
  5
20000
  9
$SURFTAB1
 70
    6
  9
$SURFTAB2
 70
    6
  9
$SURFTYPE
 70
    6
  9
$SURFU
 70
    6
  9
$SURFV
 70
    6
  9
$UCSBASE
  2

  9
$UCSNAME
  2

  9
$UCSORG
 10
0
 20
0
 30
0
  9
$UCSXDIR
 10
1
 20
0
 30
0
  9
$UCSYDIR
 10
0
 20
1
 30
0
  9
$UCSORTHOREF
  2

  9
$UCSORTHOVIEW
 70
    0
  9
$UCSORGTOP
 10
0
 20
0
 30
0
  9
$UCSORGBOTTOM
 10
0
 20
0
 30
0
  9
$UCSORGLEFT
 10
0
 20
0
 30
0
  9
$UCSORGRIGHT
 10
0
 20
0
 30
0
  9
$UCSORGFRONT
 10
0
 20
0
 30
0
  9
$UCSORGBACK
 10
0
 20
0
 30
0
  9
$PUCSBASE
  2

  9
$PUCSNAME
  2

  9
$PUCSORG
 10
0
 20
0
 30
0
  9
$PUCSXDIR
 10
1
 20
0
 30
0
  9
$PUCSYDIR
 10
0
 20
1
 30
0
  9
$PUCSORTHOREF
  2

  9
$PUCSORTHOVIEW
 70
    0
  9
$PUCSORGTOP
 10
0
 20
0
 30
0
  9
$PUCSORGBOTTOM
 10
0
 20
0
 30
0
  9
$PUCSORGLEFT
 10
0
 20
0
 30
0
  9
$PUCSORGRIGHT
 10
0
 20
0
 30
0
  9
$PUCSORGFRONT
 10
0
 20
0
 30
0
  9
$PUCSORGBACK
 10
0
 20
0
 30
0
  9
$USERI1
 70
    0
  9
$USERI2
 70
    0
  9
$USERI3
 70
    0
  9
$USERI4
 70
    0
  9
$USERI5
 70
    0
  9
$USERR1
 40
0
  9
$USERR2
 40
0
  9
$USERR3
 40
0
  9
$USERR4
 40
0
  9
$USERR5
 40
0
  9
$WORLDVIEW
 70
    1
  9
$SHADEDGE
 70
    3
  9
$SHADEDIF
 70
   70
  9
$TILEMODE
 70
    1
  9
$MAXACTVP
 70
   64
  9
$PINSBASE
 10
225.2536070556307
 20
84.5
 30
0
  9
$PLIMCHECK
 70
    0
  9
$PEXTMIN
 10
0
 20
0
 30
0
  9
$PEXTMAX
 10
0
 20
0
 30
0
  9
$GRIDMODE
 70
    1
  9
$SNAPSTYLE
 70
    0
  9
$GRIDUNIT
 10
0
 20
0
  9
$PLIMMIN
 10
0
 20
0
  9
$PLIMMAX
 10
420
 20
594
  9
$UNITMODE
 70
    0
  9
$VISRETAIN
 70
    1
  9
$PLINEGEN
 70
    0
  9
$PSLTSCALE
 70
    1
  9
$TREEDEPTH
 70
 3020
  9
$CMLSTYLE
  2
Standard
  9
$CMLJUST
 70
    0
  9
$CMLSCALE
 40
20
  9
$PROXYGRAPHICS
 70
    1
  9
$MEASUREMENT
 70
    1
  9
$CELWEIGHT
370
   -1
  9
$ENDCAPS
280
    0
  9
$JOINSTYLE
280
    0
  9
$LWDISPLAY
290
    0
  9
$INSUNITS
 70
    0
  9
$HYPERLINKBASE
  1

  9
$STYLESHEET
  1

  9
$XEDIT
290
    1
  9
$CEPSNTYPE
380
    0
  9
$PSTYLEMODE
290
    1
  9
$EXTNAMES
290
    1
  9
$PSVPSCALE
 40
1
  9
$OLESTARTUP
290
    0
  9
$SORTENTS
280
  127
  9
$INDEXCTL
280
    0
  9
$HIDETEXT
280
    1
  9
$XCLIPFRAME
290
    0
  9
$HALOGAP
280
    0
  9
$OBSCOLOR
 70
  257
  9
$OBSLTYPE
280
    0
  9
$INTERSECTIONDISPLAY
280
    0
  9
$INTERSECTIONCOLOR
 70
  257
  9
$DIMASSOC
280
    1
  9
$PROJECTNAME
  1

  9
$CAMERADISPLAY
290
    0
  9
$LENSLENGTH
 40
50
  9
$CAMERAHEIGHT
 40
0
  9
$STEPSPERSEC
 40
2
  9
$STEPSIZE
 40
50
  9
$3DDWFPREC
 40
2
  9
$PSOLWIDTH
 40
5
  9
$PSOLHEIGHT
 40
80
  9
$LOFTANG1
 40
1.570796326794897
  9
$LOFTANG2
 40
1.570796326794897
  9
$LOFTMAG1
 40
0
  9
$LOFTMAG2
 40
0
  9
$LOFTPARAM
 70
    7
  9
$LOFTNORMALS
280
    1
  9
$LATITUDE
 40
1
  9
$LONGITUDE
 40
1
  9
$NORTHDIRECTION
 40
0
  9
$TIMEZONE
 70
-8000
  9
$LIGHTGLYPHDISPLAY
280
    1
  9
$TILEMODELIGHTSYNCH
280
    1
  9
$SOLIDHIST
280
    1
  9
$SHOWHIST
280
    1
  9
$DWFFRAME
280
    2
  9
$DGNFRAME
280
    0
  9
$REALWORLDSCALE
290
    1
  9
$INTERFERECOLOR
 62
    1
  9
$CSHADOW
280
    0
  9
$SHADOWPLANELOCATION
 40
0
  0
ENDSEC
  0
SECTION
  2
CLASSES
  0
ENDSEC
  0
SECTION
  2
TABLES
  0
TABLE
  2
VPORT
  5
8
330
0
100
AcDbSymbolTable
 70
    1
  0
VPORT
  5
31
330
2
100
AcDbSymbolTableRecord
100
AcDbViewportTableRecord
  2
*ACTIVE
 70
    0
 10
0
 20
0
 11
1
 21
1
 12
225.282575365023
 22
274.7493842414699
 13
0
 23
0
 14
10
 24
10
 15
10
 25
10
 16
0
 26
0
 36
1
 17
0
 27
0
 37
0
 40
671.0798409021586
 41
1.635879218472469
 42
50
 43
0
 44
0
 50
0
 51
0
 71
    0
 72
  100
 73
    1
 74
    3
 75
    0
 76
    1
 77
    0
 78
    0
281
    0
 65
    1
110
0
120
0
130
0
111
1
121
0
131
0
112
0
122
1
132
0
 79
    0
146
0
348
10020
 60
    7
 61
    5
292
1
282
    1
141
0
142
0
 63
  250
421
3358443
  0
ENDTAB
  0
TABLE
  2
LTYPE
  5
5
330
0
100
AcDbSymbolTable
 70
    4
  0
LTYPE
  5
14
330
5
100
AcDbSymbolTableRecord
100
AcDbLinetypeTableRecord
  2
ByBlock
 70
    0
  3

 72
   65
 73
    0
 40
0
  0
LTYPE
  5
15
330
5
100
AcDbSymbolTableRecord
100
AcDbLinetypeTableRecord
  2
ByLayer
 70
    0
  3

 72
   65
 73
    0
 40
0
  0
LTYPE
  5
16
330
5
100
AcDbSymbolTableRecord
100
AcDbLinetypeTableRecord
  2
Continuous
 70
    0
  3
Solid line
 72
   65
 73
    0
 40
0
  0
LTYPE
  5
32
330
5
100
AcDbSymbolTableRecord
100
AcDbLinetypeTableRecord
  2
DOT
 70
    0
  3
Dot . . . . . . . . . . . . . . . . . . . . . .
 72
   65
 73
    2
 40
6.35
 49
0
 74
    0
 49
-6.35
 74
    0
  0
LTYPE
  5
33
330
5
100
AcDbSymbolTableRecord
100
AcDbLinetypeTableRecord
  2
DOTTINY
 70
    0
  3
Dot (.15x) .....................................
 72
   65
 73
    2
 40
0.9525
 49
0
 74
    0
 49
-0.9525
 74
    0
  0
LTYPE
  5
34
330
5
100
AcDbSymbolTableRecord
100
AcDbLinetypeTableRecord
  2
DOT2
 70
    0
  3
Dot (.5x) .....................................
 72
   65
 73
    2
 40
3.175
 49
0
 74
    0
 49
-3.175
 74
    0
  0
LTYPE
  5
35
330
5
100
AcDbSymbolTableRecord
100
AcDbLinetypeTableRecord
  2
DOTX2
 70
    0
  3
Dot (2x) .  .  .  .  .  .  .  .  .  .  .  .  .
 72
   65
 73
    2
 40
12.7
 49
0
 74
    0
 49
-12.7
 74
    0
  0
LTYPE
  5
36
330
5
100
AcDbSymbolTableRecord
100
AcDbLinetypeTableRecord
  2
DASHED
 70
    0
  3
Dashed _ _ _ _ _ _ _ _ _ _ _ _ _ _ _ _ _
 72
   65
 73
    2
 40
19.05
 49
12.7
 74
    0
 49
-6.35
 74
    0
  0
LTYPE
  5
37
330
5
100
AcDbSymbolTableRecord
100
AcDbLinetypeTableRecord
  2
DASHEDTINY
 70
    0
  3
Dashed (.15x) _ _ _ _ _ _ _ _ _ _ _ _ _ _ _ _ _
 72
   65
 73
    2
 40
2.8575
 49
1.905
 74
    0
 49
-0.9525
 74
    0
  0
LTYPE
  5
38
330
5
100
AcDbSymbolTableRecord
100
AcDbLinetypeTableRecord
  2
DASHED2
 70
    0
  3
Dashed (.5x) _ _ _ _ _ _ _ _ _ _ _ _ _ _ _ _ _
 72
   65
 73
    2
 40
9.524999999999999
 49
6.35
 74
    0
 49
-3.175
 74
    0
  0
LTYPE
  5
39
330
5
100
AcDbSymbolTableRecord
100
AcDbLinetypeTableRecord
  2
DASHEDX2
 70
    0
  3
Dashed (2x) ____  ____  ____  ____  ____  ___
 72
   65
 73
    2
 40
38.09999999999999
 49
25.4
 74
    0
 49
-12.7
 74
    0
  0
LTYPE
  5
3A
330
5
100
AcDbSymbolTableRecord
100
AcDbLinetypeTableRecord
  2
DASHDOT
 70
    0
  3
Dash dot __ . __ . __ . __ . __ . __ . __ . __
 72
   65
 73
    4
 40
25.4
 49
12.7
 74
    0
 49
-6.35
 74
    0
 49
0
 74
    0
 49
-6.35
 74
    0
  0
LTYPE
  5
3B
330
5
100
AcDbSymbolTableRecord
100
AcDbLinetypeTableRecord
  2
DASHDOTTINY
 70
    0
  3
Dash dot (.15x) _._._._._._._._._._._._._._._.
 72
   65
 73
    4
 40
3.81
 49
1.905
 74
    0
 49
-0.9525
 74
    0
 49
0
 74
    0
 49
-0.9525
 74
    0
  0
LTYPE
  5
3C
330
5
100
AcDbSymbolTableRecord
100
AcDbLinetypeTableRecord
  2
DASHDOT2
 70
    0
  3
Dash dot (.5x) _._._._._._._._._._._._._._._.
 72
   65
 73
    4
 40
12.7
 49
6.35
 74
    0
 49
-3.175
 74
    0
 49
0
 74
    0
 49
-3.175
 74
    0
  0
LTYPE
  5
3D
330
5
100
AcDbSymbolTableRecord
100
AcDbLinetypeTableRecord
  2
DASHDOTX2
 70
    0
  3
Dash dot (2x) ____  .  ____  .  ____  .  ___
 72
   65
 73
    4
 40
50.8
 49
25.4
 74
    0
 49
-12.7
 74
    0
 49
0
 74
    0
 49
-12.7
 74
    0
  0
LTYPE
  5
3E
330
5
100
AcDbSymbolTableRecord
100
AcDbLinetypeTableRecord
  2
DIVIDE
 70
    0
  3
Divide ____ . . ____ . . ____ . . ____ . . ____
 72
   65
 73
    6
 40
31.75
 49
12.7
 74
    0
 49
-6.35
 74
    0
 49
0
 74
    0
 49
-6.35
 74
    0
 49
0
 74
    0
 49
-6.35
 74
    0
  0
LTYPE
  5
3F
330
5
100
AcDbSymbolTableRecord
100
AcDbLinetypeTableRecord
  2
DIVIDETINY
 70
    0
  3
Divide (.15x) __..__..__..__..__..__..__..__.._
 72
   65
 73
    6
 40
4.7625
 49
1.905
 74
    0
 49
-0.9525
 74
    0
 49
0
 74
    0
 49
-0.9525
 74
    0
 49
0
 74
    0
 49
-0.9525
 74
    0
  0
LTYPE
  5
40
330
5
100
AcDbSymbolTableRecord
100
AcDbLinetypeTableRecord
  2
DIVIDE2
 70
    0
  3
Divide (.5x) __..__..__..__..__..__..__..__.._
 72
   65
 73
    6
 40
15.875
 49
6.35
 74
    0
 49
-3.175
 74
    0
 49
0
 74
    0
 49
-3.175
 74
    0
 49
0
 74
    0
 49
-3.175
 74
    0
  0
LTYPE
  5
41
330
5
100
AcDbSymbolTableRecord
100
AcDbLinetypeTableRecord
  2
DIVIDEX2
 70
    0
  3
Divide (2x) ________  .  .  ________  .  .  _
 72
   65
 73
    6
 40
63.5
 49
25.4
 74
    0
 49
-12.7
 74
    0
 49
0
 74
    0
 49
-12.7
 74
    0
 49
0
 74
    0
 49
-12.7
 74
    0
  0
LTYPE
  5
42
330
5
100
AcDbSymbolTableRecord
100
AcDbLinetypeTableRecord
  2
BORDER
 70
    0
  3
Border __ __ . __ __ . __ __ . __ __ . __ __ .
 72
   65
 73
    6
 40
44.45
 49
12.7
 74
    0
 49
-6.35
 74
    0
 49
12.7
 74
    0
 49
-6.35
 74
    0
 49
0
 74
    0
 49
-6.35
 74
    0
  0
LTYPE
  5
43
330
5
100
AcDbSymbolTableRecord
100
AcDbLinetypeTableRecord
  2
BORDERTINY
 70
    0
  3
Border (.15x) __.__.__.__.__.__.__.__.__.__.__.
 72
   65
 73
    6
 40
6.6675
 49
1.905
 74
    0
 49
-0.9525
 74
    0
 49
1.905
 74
    0
 49
-0.9525
 74
    0
 49
0
 74
    0
 49
-0.9525
 74
    0
  0
LTYPE
  5
44
330
5
100
AcDbSymbolTableRecord
100
AcDbLinetypeTableRecord
  2
BORDER2
 70
    0
  3
Border (.5x) __.__.__.__.__.__.__.__.__.__.__.
 72
   65
 73
    6
 40
22.225
 49
6.35
 74
    0
 49
-3.175
 74
    0
 49
6.35
 74
    0
 49
-3.175
 74
    0
 49
0
 74
    0
 49
-3.175
 74
    0
  0
LTYPE
  5
45
330
5
100
AcDbSymbolTableRecord
100
AcDbLinetypeTableRecord
  2
BORDERX2
 70
    0
  3
Border (2x) ____  ____  .  ____  ____  .  ___
 72
   65
 73
    6
 40
88.89999999999999
 49
25.4
 74
    0
 49
-12.7
 74
    0
 49
25.4
 74
    0
 49
-12.7
 74
    0
 49
0
 74
    0
 49
-12.7
 74
    0
  0
LTYPE
  5
46
330
5
100
AcDbSymbolTableRecord
100
AcDbLinetypeTableRecord
  2
CENTER
 70
    0
  3
Center ____ _ ____ _ ____ _ ____ _ ____ _ ____
 72
   65
 73
    4
 40
50.8
 49
31.75
 74
    0
 49
-6.35
 74
    0
 49
6.35
 74
    0
 49
-6.35
 74
    0
  0
LTYPE
  5
47
330
5
100
AcDbSymbolTableRecord
100
AcDbLinetypeTableRecord
  2
CENTERTINY
 70
    0
  3
Center (.15x) ___ _ ___ _ ___ _ ___ _ ___ _ ___
 72
   65
 73
    4
 40
7.619999999999999
 49
4.7625
 74
    0
 49
-0.9525
 74
    0
 49
0.9525
 74
    0
 49
-0.9525
 74
    0
  0
LTYPE
  5
48
330
5
100
AcDbSymbolTableRecord
100
AcDbLinetypeTableRecord
  2
CENTER2
 70
    0
  3
Center (.5x) ___ _ ___ _ ___ _ ___ _ ___ _ ___
 72
   65
 73
    4
 40
28.575
 49
19.05
 74
    0
 49
-3.175
 74
    0
 49
3.175
 74
    0
 49
-3.175
 74
    0
  0
LTYPE
  5
49
330
5
100
AcDbSymbolTableRecord
100
AcDbLinetypeTableRecord
  2
CENTERX2
 70
    0
  3
Center (2x) ________  __  ________  __  _____
 72
   65
 73
    4
 40
101.6
 49
63.5
 74
    0
 49
-12.7
 74
    0
 49
12.7
 74
    0
 49
-12.7
 74
    0
  0
ENDTAB
  0
TABLE
  2
LAYER
  5
2
330
0
100
AcDbSymbolTable
 70
    1
  0
LAYER
  5
10
330
2
100
AcDbSymbolTableRecord
100
AcDbLayerTableRecord
  2
0
 70
    0
 62
    7
  6
CONTINUOUS
370
   70
390
F
  0
LAYER
  5
4A
330
2
100
AcDbSymbolTableRecord
100
AcDbLayerTableRecord
  2
Construction
 70
    1
 62
    7
  6
CONTINUOUS
290
0
370
    0
390
F
  0
LAYER
  5
4B
330
2
100
AcDbSymbolTableRecord
100
AcDbLayerTableRecord
  2
Dimensions
 70
    0
 62
    7
  6
CONTINUOUS
370
   35
390
F
  0
LAYER
  5
4C
330
2
100
AcDbSymbolTableRecord
100
AcDbLayerTableRecord
  2
Frame
 70
    1
 62
    7
  6
CONTINUOUS
290
0
370
    0
390
F
  0
LAYER
  5
4D
330
2
100
AcDbSymbolTableRecord
100
AcDbLayerTableRecord
  2
Phantom
 70
    0
 62
    7
  6
DASHDOT2
370
   35
390
F
  0
ENDTAB
  0
TABLE
  2
STYLE
  5
3
330
0
100
AcDbSymbolTable
 70
    3
  0
STYLE
  5
4E
330
2
100
AcDbSymbolTableRecord
100
AcDbTextStyleTableRecord
  2
iso
 70
    0
 40
0
 41
1
 50
0
 71
    0
 42
1
  3
iso
  4

  0
STYLE
  5
4F
330
2
100
AcDbSymbolTableRecord
100
AcDbTextStyleTableRecord
  2
Standard
 70
    0
 40
0
 41
1
 50
0
 71
    0
 42
1
  3
txt
  4

  0
ENDTAB
  0
TABLE
  2
VIEW
  5
6
330
0
100
AcDbSymbolTable
 70
    0
  0
ENDTAB
  0
TABLE
  2
UCS
  5
7
330
0
100
AcDbSymbolTable
 70
    0
  0
ENDTAB
  0
TABLE
  2
APPID
  5
9
330
0
100
AcDbSymbolTable
 70
    1
  0
APPID
  5
12
330
9
100
AcDbSymbolTableRecord
100
AcDbRegAppTableRecord
  2
ACAD
 70
    0
  0
APPID
  5
50
330
9
100
AcDbSymbolTableRecord
100
AcDbRegAppTableRecord
  2
LibreCad
 70
    0
  0
ENDTAB
  0
TABLE
  2
DIMSTYLE
  5
A
330
0
100
AcDbSymbolTable
 70
    1
100
AcDbDimStyleTable
 71
    1
  0
DIMSTYLE
105
51
330
A
100
AcDbSymbolTableRecord
100
AcDbDimStyleTableRecord
  2
Standard
 70
    0
 40
1
 41
2.5
 42
0.625
 43
0.38
 44
1.25
 45
0
 46
0
 47
0
 48
0
 49
1
140
2.5
141
0.09
142
0
143
25.4
144
1
145
0
146
1
147
1
148
0
 71
    0
 72
    0
 73
    0
 74
    1
 75
    0
 76
    0
 77
    0
 78
    8
 79
    0
170
    0
171
    2
172
    0
173
    0
174
    0
175
    0
176
    0
177
    0
178
    0
179
    0
271
    1
272
    4
273
    2
274
    2
275
    0
276
    0
277
    2
278
    0
279
    0
280
    0
281
    0
282
    0
283
    1
284
    0
285
    0
286
    0
288
    0
289
    3
340
standard
341

371
   -2
372
   -2
  0
ENDTAB
  0
TABLE
  2
BLOCK_RECORD
  5
1
330
0
100
AcDbSymbolTable
 70
    2
  0
BLOCK_RECORD
  5
1F
330
1
100
AcDbSymbolTableRecord
100
AcDbBlockTableRecord
  2
*Model_Space
 70
    0
280
    1
281
    0
  0
BLOCK_RECORD
  5
1E
330
1
100
AcDbSymbolTableRecord
100
AcDbBlockTableRecord
  2
*Paper_Space
 70
    0
280
    1
281
    0
  0
BLOCK_RECORD
  5
52
330
1
100
AcDbSymbolTableRecord
100
AcDbBlockTableRecord
  2
*D1
 70
    0
280
    1
281
    0
  0
BLOCK_RECORD
  5
55
330
1
100
AcDbSymbolTableRecord
100
AcDbBlockTableRecord
  2
*D2
 70
    0
280
    1
281
    0
  0
BLOCK_RECORD
  5
58
330
1
100
AcDbSymbolTableRecord
100
AcDbBlockTableRecord
  2
*D7
 70
    0
280
    1
281
    0
  0
BLOCK_RECORD
  5
5B
330
1
100
AcDbSymbolTableRecord
100
AcDbBlockTableRecord
  2
*D8
 70
    0
280
    1
281
    0
  0
BLOCK_RECORD
  5
5E
330
1
100
AcDbSymbolTableRecord
100
AcDbBlockTableRecord
  2
*D3
 70
    0
280
    1
281
    0
  0
BLOCK_RECORD
  5
61
330
1
100
AcDbSymbolTableRecord
100
AcDbBlockTableRecord
  2
*D4
 70
    0
280
    1
281
    0
  0
BLOCK_RECORD
  5
64
330
1
100
AcDbSymbolTableRecord
100
AcDbBlockTableRecord
  2
*D5
 70
    0
280
    1
281
    0
  0
BLOCK_RECORD
  5
67
330
1
100
AcDbSymbolTableRecord
100
AcDbBlockTableRecord
  2
*D9
 70
    0
280
    1
281
    0
  0
BLOCK_RECORD
  5
6A
330
1
100
AcDbSymbolTableRecord
100
AcDbBlockTableRecord
  2
*D6
 70
    0
280
    1
281
    0
  0
ENDTAB
  0
ENDSEC
  0
SECTION
  2
BLOCKS
  0
BLOCK
  5
20
330
1F
100
AcDbEntity
  8
0
100
AcDbBlockBegin
  2
*Model_Space
 70
    0
 10
0
 20
0
 30
0
  3
*Model_Space
  1

  0
ENDBLK
  5
21
330
1F
100
AcDbEntity
  8
0
100
AcDbBlockEnd
  0
BLOCK
  5
1C
330
1B
100
AcDbEntity
  8
0
100
AcDbBlockBegin
  2
*Paper_Space
 70
    0
 10
0
 20
0
 30
0
  3
*Paper_Space
  1

  0
ENDBLK
  5
1D
330
1F
100
AcDbEntity
  8
0
100
AcDbBlockEnd
  0
BLOCK
  5
53
330
52
100
AcDbEntity
  8
0
100
AcDbBlockBegin
  2
*D1
 70
    1
 10
0
 20
0
  3
*D1
  1

  0
LINE
  5
6D
100
AcDbEntity
  8
Dimensions
  6
ByBlock
 62
    0
370
   -2
100
AcDbLine
 10
-37.01613545533952
 20
109.6982606503027
 11
-36.7750454184095
 21
108.9927612303483
  0
LINE
  5
6E
100
AcDbEntity
  8
Dimensions
  6
ByBlock
 62
    0
370
   -2
100
AcDbLine
 10
-29.84205551663261
 20
112.1498561420097
 11
-29.60096547970258
 21
111.4443567220553
  0
LINE
  5
6F
100
AcDbEntity
  8
Dimensions
  6
ByBlock
 62
    0
370
   -2
100
AcDbLine
 10
-37.17925720426976
 20
110.1756022307248
 11
-30.00517726556284
 21
112.6271977224318
  0
MTEXT
  5
70
100
AcDbEntity
  8
Dimensions
  6
CONTINUOUS
 62
    0
370
   -2
100
AcDbMText
 10
-34.31979844946482
 20
113.530513777256
 30
0
 40
2.5
 41
3.888888888889044
 71
    5
 72
    1
  1
7.6
  7
standard
210
0
220
0
230
1
 50
18.86681655097184
 73
    2
 44
1
  0
SOLID
  5
71
100
AcDbEntity
  8
Dimensions
  6
ByBlock
 62
    0
370
   -2
100
AcDbTrace
 10
-37.17925720426976
 20
110.1756022307248
 30
0
 11
-34.94818893547247
 21
111.3779446512785
 31
0
 12
-34.67896147156112
 22
110.5901069536123
 32
0
 13
-34.67896147156112
 23
110.5901069536123
 33
0
  0
SOLID
  5
72
100
AcDbEntity
  8
Dimensions
  6
ByBlock
 62
    0
370
   -2
100
AcDbTrace
 10
-30.00517726556284
 20
112.6271977224318
 30
0
 11
-32.23624553436013
 21
111.4248553018781
 31
0
 12
-32.50547299827149
 22
112.2126929995444
 32
0
 13
-32.50547299827149
 23
112.2126929995444
 33
0
  0
ENDBLK
  5
54
330
52
100
AcDbEntity
  8
0
100
AcDbBlockEnd
  0
BLOCK
  5
56
330
55
100
AcDbEntity
  8
0
100
AcDbBlockBegin
  2
*D2
 70
    1
 10
0
 20
0
  3
*D2
  1

  0
LINE
  5
73
100
AcDbEntity
  8
Dimensions
  6
ByBlock
 62
    0
370
   -2
100
AcDbLine
 10
-48.99055370936296
 20
89.53102304603078
 11
-50.33697755875544
 21
93.73692087945631
  0
LINE
  5
74
100
AcDbEntity
  8
Dimensions
  6
ByBlock
 62
    0
370
   -2
100
AcDbLine
 10
-46.13338708841517
 20
90.44568085097301
 11
-47.47981093780764
 21
94.65157868439853
  0
LINE
  5
75
100
AcDbEntity
  8
Dimensions
  6
ByBlock
 62
    0
370
   -2
100
AcDbLine
 10
-54.71781450827584
 20
91.02200511249102
 11
-42.33675915083538
 21
94.98552226724064
  0
MTEXT
  5
76
100
AcDbEntity
  8
Dimensions
  6
CONTINUOUS
 62
    0
370
   -2
100
AcDbMText
 10
-49.21328018326228
 20
95.14663865557667
 30
0
 40
2.5
 41
1.111111111111266
 71
    5
 72
    1
  1
3
  7
standard
210
0
220
0
230
1
 50
17.75130161565719
 73
    2
 44
1
  0
SOLID
  5
77
100
AcDbEntity
  8
Dimensions
  6
ByBlock
 62
    0
370
   -2
100
AcDbTrace
 10
-49.95587014002951
 20
92.54643478739472
 30
0
 11
-52.20992298704947
 21
91.38775507360911
 31
0
 12
-52.46376166125589
 22
92.1806848262766
 32
0
 13
-52.46376166125589
 23
92.1806848262766
 33
0
  0
SOLID
  5
78
100
AcDbEntity
  8
Dimensions
  6
ByBlock
 62
    0
370
   -2
100
AcDbTrace
 10
-47.09870351908172
 20
93.46109259233694
 30
0
 11
-44.84465067206176
 21
94.61977230612254
 31
0
 12
-44.59081199785534
 22
93.82684255345505
 32
0
 13
-44.59081199785534
 23
93.82684255345505
 33
0
  0
ENDBLK
  5
57
330
55
100
AcDbEntity
  8
0
100
AcDbBlockEnd
  0
BLOCK
  5
59
330
58
100
AcDbEntity
  8
0
100
AcDbBlockBegin
  2
*D7
 70
    1
 10
0
 20
0
  3
*D7
  1

  0
LINE
  5
79
100
AcDbEntity
  8
Dimensions
  6
CONTINUOUS
 62
    7
370
    0
100
AcDbLine
 10
-70.90254036612592
 20
321.2792874177163
 11
-103.3106219047629
 21
317.5747433552023
  0
SOLID
  5
7A
100
AcDbEntity
  8
Dimensions
  6
CONTINUOUS
 62
    7
370
    0
100
AcDbTrace
 10
-70.90254036612592
 20
321.2792874177163
 30
0
 11
-73.33908812768992
 21
320.5817718824667
 31
0
 12
-73.43364276698952
 22
321.4089545015873
 32
0
 13
-73.43364276698952
 23
321.4089545015873
 33
0
  0
ENDBLK
  5
5A
330
58
100
AcDbEntity
  8
0
100
AcDbBlockEnd
  0
BLOCK
  5
5C
330
5B
100
AcDbEntity
  8
0
100
AcDbBlockBegin
  2
*D8
 70
    1
 10
0
 20
0
  3
*D8
  1

  0
LINE
  5
7B
100
AcDbEntity
  8
Dimensions
  6
CONTINUOUS
 62
    7
370
    0
100
AcDbLine
 10
-54.15565587127948
 20
286.3201801216378
 11
-26.67484303935729
 21
298.4654693732965
  0
SOLID
  5
7C
100
AcDbEntity
  8
Dimensions
  6
CONTINUOUS
 62
    7
370
    0
100
AcDbTrace
 10
-54.15565587127948
 20
286.3201801216378
 30
0
 11
-52.03729688559429
 21
287.7115277144642
 31
0
 12
-51.70074208449806
 22
286.950014398069
 32
0
 13
-51.70074208449806
 23
286.950014398069
 33
0
  0
ENDBLK
  5
5D
330
5B
100
AcDbEntity
  8
0
100
AcDbBlockEnd
  0
BLOCK
  5
5F
330
5E
100
AcDbEntity
  8
0
100
AcDbBlockBegin
  2
*D3
 70
    1
 10
0
 20
0
  3
*D3
  1

  0
LINE
  5
7D
100
AcDbEntity
  8
Dimensions
  6
ByBlock
 62
    0
370
   -2
100
AcDbLine
 10
-36.5
 20
-40.30914292774233
 11
36.5
 21
-40.30914292774233
  0
MTEXT
  5
7E
100
AcDbEntity
  8
Dimensions
  6
CONTINUOUS
 62
    0
370
   -2
100
AcDbMText
 10
1.377727649040772e-16
 20
-38.05914292774233
 30
0
 40
2.5
 41
28.61111211905185
 71
    5
 72
    1
  1
73 (MTB, english)
  7
standard
210
0
220
0
230
1
 50
0
 73
    2
 44
1
  0
SOLID
  5
7F
100
AcDbEntity
  8
Dimensions
  6
ByBlock
 62
    0
370
   -2
100
AcDbTrace
 10
-36.5
 20
-40.30914292774233
 30
0
 11
-34
 21
-39.89285826996949
 31
0
 12
-34
 22
-40.72542758551517
 32
0
 13
-34
 23
-40.72542758551517
 33
0
  0
SOLID
  5
80
100
AcDbEntity
  8
Dimensions
  6
ByBlock
 62
    0
370
   -2
100
AcDbTrace
 10
36.5
 20
-40.30914292774233
 30
0
 11
34
 21
-40.72542758551517
 31
0
 12
34
 22
-39.89285826996949
 32
0
 13
34
 23
-39.89285826996949
 33
0
  0
LINE
  5
81
100
AcDbEntity
  8
Dimensions
  6
ByBlock
 62
    0
370
   -2
100
AcDbLine
 10
-36.5
 20
-22.85
 11
-36.5
 21
-41.55914292774233
  0
LINE
  5
82
100
AcDbEntity
  8
Dimensions
  6
ByBlock
 62
    0
370
   -2
100
AcDbLine
 10
36.5
 20
-22.85
 11
36.5
 21
-41.55914292774233
  0
ENDBLK
  5
60
330
5E
100
AcDbEntity
  8
0
100
AcDbBlockEnd
  0
BLOCK
  5
62
330
61
100
AcDbEntity
  8
0
100
AcDbBlockBegin
  2
*D4
 70
    1
 10
0
 20
0
  3
*D4
  1

  0
LINE
  5
83
100
AcDbEntity
  8
Dimensions
  6
ByBlock
 62
    0
370
   -2
100
AcDbLine
 10
-46
 20
-54.04678805109846
 11
46
 21
-54.04678805109846
  0
MTEXT
  5
84
100
AcDbEntity
  8
Dimensions
  6
CONTINUOUS
 62
    0
370
   -2
100
AcDbMText
 10
1.377727649040772e-16
 20
-51.79678805109846
 30
0
 40
2.5
 41
31.11111083333364
 71
    5
 72
    1
  1
92 (MTB, BB86/92)
  7
standard
210
0
220
0
230
1
 50
0
 73
    2
 44
1
  0
SOLID
  5
85
100
AcDbEntity
  8
Dimensions
  6
ByBlock
 62
    0
370
   -2
100
AcDbTrace
 10
-46
 20
-54.04678805109846
 30
0
 11
-43.5
 21
-53.63050339332562
 31
0
 12
-43.5
 22
-54.4630727088713
 32
0
 13
-43.5
 23
-54.4630727088713
 33
0
  0
SOLID
  5
86
100
AcDbEntity
  8
Dimensions
  6
ByBlock
 62
    0
370
   -2
100
AcDbTrace
 10
46
 20
-54.04678805109846
 30
0
 11
43.5
 21
-54.4630727088713
 31
0
 12
43.5
 22
-53.63050339332562
 32
0
 13
43.5
 23
-53.63050339332562
 33
0
  0
LINE
  5
87
100
AcDbEntity
  8
Dimensions
  6
ByBlock
 62
    0
370
   -2
100
AcDbLine
 10
-46
 20
-30.625
 11
-46
 21
-55.29678805109846
  0
LINE
  5
88
100
AcDbEntity
  8
Dimensions
  6
ByBlock
 62
    0
370
   -2
100
AcDbLine
 10
46
 20
-22.85
 11
46
 21
-55.29678805109846
  0
ENDBLK
  5
63
330
61
100
AcDbEntity
  8
0
100
AcDbBlockEnd
  0
BLOCK
  5
65
330
64
100
AcDbEntity
  8
0
100
AcDbBlockBegin
  2
*D5
 70
    1
 10
0
 20
0
  3
*D5
  1

  0
LINE
  5
89
100
AcDbEntity
  8
Dimensions
  6
CONTINUOUS
 62
    7
370
    0
100
AcDbLine
 10
-36.08605464836097
 20
53.75352998904563
 11
-59.29818859329503
 21
47.9656458843542
  0
SOLID
  5
8A
100
AcDbEntity
  8
Dimensions
  6
CONTINUOUS
 62
    7
370
    0
100
AcDbTrace
 10
-36.08605464836097
 20
53.75352998904563
 30
0
 11
-38.41106721576121
 21
52.74476367431857
 31
0
 12
-38.61249867792413
 22
53.55259845398525
 32
0
 13
-38.61249867792413
 23
53.55259845398525
 33
0
  0
ENDBLK
  5
66
330
64
100
AcDbEntity
  8
0
100
AcDbBlockEnd
  0
BLOCK
  5
68
330
67
100
AcDbEntity
  8
0
100
AcDbBlockBegin
  2
*D9
 70
    1
 10
0
 20
0
  3
*D9
  1

  0
LINE
  5
8B
100
AcDbEntity
  8
Dimensions
  6
CONTINUOUS
 62
    7
370
    0
100
AcDbLine
 10
54.15565587127948
 20
286.3201801216378
 11
26.67484303935729
 21
298.4654693732965
  0
SOLID
  5
8C
100
AcDbEntity
  8
Dimensions
  6
CONTINUOUS
 62
    7
370
    0
100
AcDbTrace
 10
54.15565587127948
 20
286.3201801216378
 30
0
 11
51.70074208449806
 21
286.950014398069
 31
0
 12
52.03729688559429
 22
287.7115277144642
 32
0
 13
52.03729688559429
 23
287.7115277144642
 33
0
  0
ENDBLK
  5
69
330
67
100
AcDbEntity
  8
0
100
AcDbBlockEnd
  0
BLOCK
  5
6B
330
6A
100
AcDbEntity
  8
0
100
AcDbBlockBegin
  2
*D6
 70
    1
 10
0
 20
0
  3
*D6
  1

  0
LINE
  5
8D
100
AcDbEntity
  8
Dimensions
  6
CONTINUOUS
 62
    7
370
    0
100
AcDbLine
 10
-46.09111084638732
 20
145.9363520503235
 11
-34.78827064139975
 21
153.911742837708
  0
SOLID
  5
8E
100
AcDbEntity
  8
Dimensions
  6
CONTINUOUS
 62
    7
370
    0
100
AcDbTrace
 10
-46.09111084638732
 20
145.9363520503235
 30
0
 11
-44.28843098977702
 21
147.7178228614423
 31
0
 12
-43.80842617357627
 22
147.0375530314394
 32
0
 13
-43.80842617357627
 23
147.0375530314394
 33
0
  0
ENDBLK
  5
6C
330
6A
100
AcDbEntity
  8
0
100
AcDbBlockEnd
  0
ENDSEC
  0
SECTION
  2
ENTITIES
  0
LINE
  5
8F
100
AcDbEntity
  8
0
  6
ByLayer
 62
  256
370
   -1
100
AcDbLine
 10
-88
 20
180
 11
-70
 21
180
  0
LINE
  5
90
100
AcDbEntity
  8
0
  6
ByLayer
 62
  256
370
   -1
100
AcDbLine
 10
-67.5
 20
429
 11
67.5
 21
429
  0
LINE
  5
91
100
AcDbEntity
  8
Construction
  6
ByLayer
 62
  256
370
   -1
100
AcDbLine
 10
-37.21824134826966
 20
110.2896811504909
 11
-30.04416140956274
 21
112.7412766421979
  0
LINE
  5
92
100
AcDbEntity
  8
0
  6
ByLayer
 62
  256
370
   -1
100
AcDbLine
 10
-67.5
 20
423
 11
67.50000000000001
 21
423
  0
LINE
  5
93
100
AcDbEntity
  8
0
  6
ByLayer
 62
  256
370
   -1
100
AcDbLine
 10
-67.5
 20
435
 11
67.5
 21
435
  0
ARC
  5
94
100
AcDbEntity
  8
0
  6
ByLayer
 62
  256
370
   -1
100
AcDbCircle
 10
0
 20
123.0082560030489
 40
31.75
100
AcDbArc
 50
0
 51
90
  0
ARC
  5
95
100
AcDbEntity
  8
0
  6
ByLayer
 62
  256
370
   -1
100
AcDbCircle
 10
1.944126793646428e-15
 20
123.0082560030489
 40
31.74999999999999
100
AcDbArc
 50
90
 51
180
  0
ARC
  5
96
100
AcDbEntity
  8
0
  6
ByLayer
 62
  256
370
   -1
100
AcDbCircle
 10
7.105427357601002e-15
 20
123.0082560030489
 40
31.75000000000001
100
AcDbArc
 50
180
 51
-90.00000000000003
  0
ARC
  5
97
100
AcDbEntity
  8
0
  6
ByLayer
 62
  256
370
   -1
100
AcDbCircle
 10
-2.004323509614126e-14
 20
123.0082560030489
 40
31.74999999999999
100
AcDbArc
 50
-89.99999999999997
 51
0
  0
ARC
  5
98
100
AcDbEntity
  8
0
  6
ByLayer
 62
  256
370
   -1
100
AcDbCircle
 10
-247.8209801828741
 20
13.64653173569565
 40
215.5000000000001
100
AcDbArc
 50
2.751301615657035
 51
17.75130161565701
  0
ARC
  5
99
100
AcDbEntity
  8
0
  6
ByLayer
 62
  256
370
   -1
100
AcDbCircle
 10
-247.8209801828741
 20
13.64653173569565
 40
230.0000000000001
100
AcDbArc
 50
2.751301615657036
 51
17.75130161565701
  0
ARC
  5
9A
100
AcDbEntity
  8
0
  6
ByLayer
 62
  256
370
   -1
100
AcDbCircle
 10
166.7035471166352
 20
179.9757930328022
 40
215.4999999999986
100
AcDbArc
 50
-177.248698384343
 51
-162.248698384343
  0
ARC
  5
9B
100
AcDbEntity
  8
0
  6
ByLayer
 62
  256
370
   -1
100
AcDbCircle
 10
166.7035471166366
 20
179.9757930328026
 40
230.0000000000001
100
AcDbArc
 50
-177.248698384343
 51
-162.248698384343
  0
ARC
  5
9C
100
AcDbEntity
  8
0
  6
ByLayer
 62
  256
370
   -1
100
AcDbCircle
 10
-284.8834115851595
 20
295.9763735764625
 40
230.000000000002
100
AcDbArc
 50
2.530347966961961
 51
9.972255264351968
  0
ARC
  5
9D
100
AcDbEntity
  8
0
  6
ByLayer
 62
  256
370
   -1
100
AcDbCircle
 10
-299.3258307077202
 20
294.3943394073455
 40
230.0000000000013
100
AcDbArc
 50
2.751301615657045
 51
9.751301615657018
  0
LINE
  5
9E
100
AcDbEntity
  8
Construction
  6
ByLayer
 62
  256
370
   -1
100
AcDbLine
 10
-45.9428333790522
 20
89.85043780494222
 11
-48.8
 21
88.93577999999999
  0
LINE
  5
9F
100
AcDbEntity
  8
0
  6
ByLayer
 62
  256
370
   -1
100
AcDbLine
 10
-48.8
 20
88.93577999999999
 11
-51.2
 21
88.93577999999999
  0
LINE
  5
A0
100
AcDbEntity
  8
0
  6
ByLayer
 62
  256
370
   -1
100
AcDbLine
 10
46
 20
22.225
 11
-46
 21
22.225
  0
LINE
  5
A1
100
AcDbEntity
  8
0
  6
ByLayer
 62
  256
370
   -1
100
AcDbLine
 10
-46
 20
22.225
 11
-46
 21
-22.225
  0
LINE
  5
A2
100
AcDbEntity
  8
0
  6
ByLayer
 62
  256
370
   -1
100
AcDbLine
 10
-46
 20
-22.225
 11
46
 21
-22.225
  0
LINE
  5
A3
100
AcDbEntity
  8
0
  6
ByLayer
 62
  256
370
   -1
100
AcDbLine
 10
46
 20
-22.225
 11
46
 21
22.225
  0
LINE
  5
A4
100
AcDbEntity
  8
0
  6
ByLayer
 62
  256
370
   -1
100
AcDbLine
 10
17.5
 20
149.5000000000001
 11
17.5
 21
184.5000000000001
  0
LINE
  5
A5
100
AcDbEntity
  8
0
  6
ByLayer
 62
  256
370
   -1
100
AcDbLine
 10
17.5
 20
184.5000000000001
 11
-17.5
 21
184.5000000000001
  0
LINE
  5
A6
100
AcDbEntity
  8
0
  6
ByLayer
 62
  256
370
   -1
100
AcDbLine
 10
-17.5
 20
184.5000000000001
 11
-17.5
 21
149.5000000000001
  0
LINE
  5
A7
100
AcDbEntity
  8
0
  6
ByLayer
 62
  256
370
   -1
100
AcDbLine
 10
-17.5
 20
149.5000000000001
 11
17.5
 21
149.5000000000001
  0
LINE
  5
A8
100
AcDbEntity
  8
0
  6
ByLayer
 62
  256
370
   -1
100
AcDbLine
 10
-32.56938783343758
 20
23.99070840820227
 11
-31.55994020518528
 21
2.985149797415598
  0
LINE
  5
A9
100
AcDbEntity
  8
0
  6
ByLayer
 62
  256
370
   -1
100
AcDbLine
 10
-31.55994020518528
 20
2.985149797415598
 11
-17.07665440905149
 21
3.681161684892842
  0
LINE
  5
AA
100
AcDbEntity
  8
0
  6
ByLayer
 62
  256
370
   -1
100
AcDbLine
 10
-17.07665440905149
 20
3.681161684892842
 11
-18.08610203730379
 21
24.68672029567951
  0
LINE
  5
AB
100
AcDbEntity
  8
0
  6
ByLayer
 62
  256
370
   -1
100
AcDbLine
 10
-18.08610203730379
 20
24.68672029567951
 11
-32.56938783343758
 21
23.99070840820227
  0
LINE
  5
AC
100
AcDbEntity
  8
0
  6
ByLayer
 62
  256
370
   -1
100
AcDbLine
 10
-28.77153924354246
 20
83.77029678126557
 11
-38.53625515478068
 21
114.2728740444534
  0
LINE
  5
AD
100
AcDbEntity
  8
0
  6
ByLayer
 62
  256
370
   -1
100
AcDbLine
 10
-38.53625515478068
 20
114.2728740444534
 11
-52.34589382269505
 21
109.8520279872327
  0
LINE
  5
AE
100
AcDbEntity
  8
0
  6
ByLayer
 62
  256
370
   -1
100
AcDbLine
 10
-52.34589382269505
 20
109.8520279872327
 11
-42.58117791145683
 21
79.34945072404486
  0
LINE
  5
AF
100
AcDbEntity
  8
0
  6
ByLayer
 62
  256
370
   -1
100
AcDbLine
 10
-42.58117791145683
 20
79.34945072404486
 11
-28.77153924354246
 21
83.77029678126557
  0
LINE
  5
B0
100
AcDbEntity
  8
0
  6
ByLayer
 62
  256
370
   -1
100
AcDbLine
 10
-82.2125640115127
 20
440
 11
-82.2125640115127
 21
389
  0
LINE
  5
B1
100
AcDbEntity
  8
0
  6
ByLayer
 62
  256
370
   -1
100
AcDbLine
 10
-82.2125640115127
 20
389
 11
-67.5
 21
389
  0
LINE
  5
B2
100
AcDbEntity
  8
0
  6
ByLayer
 62
  256
370
   -1
100
AcDbLine
 10
-67.5
 20
389
 11
-67.5
 21
440
  0
LINE
  5
B3
100
AcDbEntity
  8
0
  6
ByLayer
 62
  256
370
   -1
100
AcDbLine
 10
-67.5
 20
440
 11
-82.2125640115127
 21
440
  0
LINE
  5
B4
100
AcDbEntity
  8
0
  6
ByLayer
 62
  256
370
   -1
100
AcDbLine
 10
-46
 20
22.225
 11
-46
 21
30
  0
LINE
  5
B5
100
AcDbEntity
  8
0
  6
ByLayer
 62
  256
370
   -1
100
AcDbLine
 10
-46
 20
30
 11
-60.99784310104735
 21
81.97249535999998
  0
LINE
  5
B6
100
AcDbEntity
  8
0
  6
ByLayer
 62
  256
370
   -1
100
AcDbLine
 10
-60.99784310104735
 20
81.97249535999998
 11
-70
 21
167
  0
LINE
  5
B7
100
AcDbEntity
  8
0
  6
ByLayer
 62
  256
370
   -1
100
AcDbLine
 10
-70
 20
167
 11
-70
 21
192
  0
LINE
  5
B8
100
AcDbEntity
  8
0
  6
ByLayer
 62
  256
370
   -1
100
AcDbLine
 10
-70
 20
192
 11
-88
 21
192
  0
LINE
  5
B9
100
AcDbEntity
  8
0
  6
ByLayer
 62
  256
370
   -1
100
AcDbLine
 10
-88
 20
192
 11
-88
 21
167
  0
LINE
  5
BA
100
AcDbEntity
  8
0
  6
ByLayer
 62
  256
370
   -1
100
AcDbLine
 10
-88
 20
167
 11
-85.05160310104729
 21
81.97249535999998
  0
LINE
  5
BB
100
AcDbEntity
  8
0
  6
ByLayer
 62
  256
370
   -1
100
AcDbLine
 10
-85.05160310104729
 20
81.97249535999998
 11
-74
 21
30
  0
LINE
  5
BC
100
AcDbEntity
  8
0
  6
ByLayer
 62
  256
370
   -1
100
AcDbLine
 10
-74
 20
30
 11
-74
 21
-30
  0
LINE
  5
BD
100
AcDbEntity
  8
0
  6
ByLayer
 62
  256
370
   -1
100
AcDbLine
 10
-74
 20
-30
 11
-46
 21
-30
  0
LINE
  5
BE
100
AcDbEntity
  8
0
  6
ByLayer
 62
  256
370
   -1
100
AcDbLine
 10
-46
 20
-30
 11
-46
 21
-22.225
  0
LINE
  5
BF
100
AcDbEntity
  8
0
  6
ByLayer
 62
  256
370
   -1
100
AcDbLine
 10
-63.03133102893371
 20
168.9356044728189
 11
-69.59095256214867
 21
305.4345279673295
  0
LINE
  5
C0
100
AcDbEntity
  8
0
  6
ByLayer
 62
  256
370
   -1
100
AcDbLine
 10
-69.59095256214867
 20
305.4345279673295
 11
-55.10766676601489
 21
306.1305398548067
  0
LINE
  5
C1
100
AcDbEntity
  8
0
  6
ByLayer
 62
  256
370
   -1
100
AcDbLine
 10
-55.10766676601489
 20
306.1305398548067
 11
-48.54804523279992
 21
169.6316163602958
  0
LINE
  5
C2
100
AcDbEntity
  8
0
  6
ByLayer
 62
  256
370
   -1
100
AcDbLine
 10
-48.54804523279992
 20
169.6316163602958
 11
-63.03133102893371
 21
168.9356044728189
  0
LINE
  5
C3
100
AcDbEntity
  8
0
  6
ByLayer
 62
  256
370
   -1
100
AcDbLine
 10
-82.2125640115127
 20
389
 11
-72.64882203741935
 21
333.3498748328144
  0
LINE
  5
C4
100
AcDbEntity
  8
0
  6
ByLayer
 62
  256
370
   -1
100
AcDbLine
 10
-72.64882203741935
 20
333.3498748328144
 11
-58.35831496907438
 21
335.8057672835504
  0
LINE
  5
C5
100
AcDbEntity
  8
0
  6
ByLayer
 62
  256
370
   -1
100
AcDbLine
 10
-58.35831496907438
 20
335.8057672835504
 11
-67.5
 21
389
  0
LINE
  5
C6
100
AcDbEntity
  8
0
  6
ByLayer
 62
  256
370
   -1
100
AcDbLine
 10
52.25
 20
349
 11
52.25
 21
509
  0
LINE
  5
C7
100
AcDbEntity
  8
0
  6
ByLayer
 62
  256
370
   -1
100
AcDbLine
 10
52.25
 20
509
 11
54.25
 21
509
  0
LINE
  5
C8
100
AcDbEntity
  8
0
  6
ByLayer
 62
  256
370
   -1
100
AcDbLine
 10
54.25
 20
509
 11
54.25
 21
349
  0
LINE
  5
C9
100
AcDbEntity
  8
0
  6
ByLayer
 62
  256
370
   -1
100
AcDbLine
 10
54.25
 20
349
 11
52.25
 21
349
  0
ARC
  5
CA
100
AcDbEntity
  8
0
  6
ByLayer
 62
  256
370
   -1
100
AcDbCircle
 10
247.8209801828741
 20
13.64653173569564
 40
215.5000000000001
100
AcDbArc
 50
162.248698384343
 51
177.248698384343
  0
ARC
  5
CB
100
AcDbEntity
  8
0
  6
ByLayer
 62
  256
370
   -1
100
AcDbCircle
 10
247.8209801828741
 20
13.64653173569564
 40
230.0000000000001
100
AcDbArc
 50
162.248698384343
 51
177.248698384343
  0
ARC
  5
CC
100
AcDbEntity
  8
0
  6
ByLayer
 62
  256
370
   -1
100
AcDbCircle
 10
-166.7035471166352
 20
179.9757930328022
 40
215.4999999999986
100
AcDbArc
 50
342.248698384343
 51
357.248698384343
  0
ARC
  5
CD
100
AcDbEntity
  8
0
  6
ByLayer
 62
  256
370
   -1
100
AcDbCircle
 10
-166.7035471166366
 20
179.9757930328026
 40
230.0000000000001
100
AcDbArc
 50
342.248698384343
 51
357.248698384343
  0
ARC
  5
CE
100
AcDbEntity
  8
0
  6
ByLayer
 62
  256
370
   -1
100
AcDbCircle
 10
284.8834115851595
 20
295.9763735764625
 40
230.000000000002
100
AcDbArc
 50
170.027744735648
 51
177.469652033038
  0
ARC
  5
CF
100
AcDbEntity
  8
0
  6
ByLayer
 62
  256
370
   -1
100
AcDbCircle
 10
299.3258307077202
 20
294.3943394073455
 40
230.0000000000013
100
AcDbArc
 50
170.248698384343
 51
177.2486983843429
  0
LINE
  5
D0
100
AcDbEntity
  8
0
  6
ByLayer
 62
  256
370
   -1
100
AcDbLine
 10
32.56938783343758
 20
23.99070840820226
 11
31.55994020518528
 21
2.985149797415663
  0
LINE
  5
D1
100
AcDbEntity
  8
0
  6
ByLayer
 62
  256
370
   -1
100
AcDbLine
 10
31.55994020518528
 20
2.985149797415663
 11
17.07665440905149
 21
3.681161684892871
  0
LINE
  5
D2
100
AcDbEntity
  8
0
  6
ByLayer
 62
  256
370
   -1
100
AcDbLine
 10
17.07665440905149
 20
3.681161684892871
 11
18.08610203730379
 21
24.68672029567947
  0
LINE
  5
D3
100
AcDbEntity
  8
0
  6
ByLayer
 62
  256
370
   -1
100
AcDbLine
 10
18.08610203730379
 20
24.68672029567947
 11
32.56938783343758
 21
23.99070840820226
  0
LINE
  5
D4
100
AcDbEntity
  8
0
  6
ByLayer
 62
  256
370
   -1
100
AcDbLine
 10
28.77153924354246
 20
83.7702967812656
 11
38.53625515478068
 21
114.2728740444534
  0
LINE
  5
D5
100
AcDbEntity
  8
0
  6
ByLayer
 62
  256
370
   -1
100
AcDbLine
 10
38.53625515478068
 20
114.2728740444534
 11
52.34589382269505
 21
109.8520279872327
  0
LINE
  5
D6
100
AcDbEntity
  8
0
  6
ByLayer
 62
  256
370
   -1
100
AcDbLine
 10
52.34589382269505
 20
109.8520279872327
 11
42.58117791145683
 21
79.34945072404486
  0
LINE
  5
D7
100
AcDbEntity
  8
0
  6
ByLayer
 62
  256
370
   -1
100
AcDbLine
 10
42.58117791145683
 20
79.34945072404486
 11
28.77153924354246
 21
83.7702967812656
  0
LINE
  5
D8
100
AcDbEntity
  8
0
  6
ByLayer
 62
  256
370
   -1
100
AcDbLine
 10
82.2125640115127
 20
440
 11
82.2125640115127
 21
389
  0
LINE
  5
D9
100
AcDbEntity
  8
0
  6
ByLayer
 62
  256
370
   -1
100
AcDbLine
 10
82.2125640115127
 20
389
 11
67.5
 21
389
  0
LINE
  5
DA
100
AcDbEntity
  8
0
  6
ByLayer
 62
  256
370
   -1
100
AcDbLine
 10
67.5
 20
389
 11
67.5
 21
440
  0
LINE
  5
DB
100
AcDbEntity
  8
0
  6
ByLayer
 62
  256
370
   -1
100
AcDbLine
 10
67.5
 20
440
 11
82.2125640115127
 21
440
  0
LINE
  5
DC
100
AcDbEntity
  8
0
  6
ByLayer
 62
  256
370
   -1
100
AcDbLine
 10
63.03133102893371
 20
168.9356044728189
 11
69.59095256214867
 21
305.4345279673295
  0
LINE
  5
DD
100
AcDbEntity
  8
0
  6
ByLayer
 62
  256
370
   -1
100
AcDbLine
 10
69.59095256214867
 20
305.4345279673295
 11
55.10766676601489
 21
306.1305398548067
  0
LINE
  5
DE
100
AcDbEntity
  8
0
  6
ByLayer
 62
  256
370
   -1
100
AcDbLine
 10
55.10766676601489
 20
306.1305398548067
 11
48.54804523279992
 21
169.6316163602958
  0
LINE
  5
DF
100
AcDbEntity
  8
0
  6
ByLayer
 62
  256
370
   -1
100
AcDbLine
 10
48.54804523279992
 20
169.6316163602958
 11
63.03133102893371
 21
168.9356044728189
  0
LINE
  5
E0
100
AcDbEntity
  8
0
  6
ByLayer
 62
  256
370
   -1
100
AcDbLine
 10
82.2125640115127
 20
389
 11
72.64882203741935
 21
333.3498748328144
  0
LINE
  5
E1
100
AcDbEntity
  8
0
  6
ByLayer
 62
  256
370
   -1
100
AcDbLine
 10
72.64882203741935
 20
333.3498748328144
 11
58.35831496907438
 21
335.8057672835504
  0
LINE
  5
E2
100
AcDbEntity
  8
0
  6
ByLayer
 62
  256
370
   -1
100
AcDbLine
 10
58.35831496907438
 20
335.8057672835504
 11
67.5
 21
389
  0
DIMENSION
  5
E3
100
AcDbEntity
  8
Dimensions
  6
ByLayer
 62
  256
370
   -1
100
AcDbDimension
  2
*D1
 10
-30.00517726556284
 20
112.6271977224318
 30
0
 11
-34.31979844946482
 21
113.530513777256
 31
0
 70
   33
 71
    5
  3
Standard
 53
0
210
0
220
0
230
1
100
AcDbAlignedDimension
 13
-37.21824134826966
 23
110.2896811504909
 33
0
 14
-30.04416140956274
 24
112.7412766421979
 34
0
  0
DIMENSION
  5
E4
100
AcDbEntity
  8
Dimensions
  6
ByLayer
 62
  256
370
   -1
100
AcDbDimension
  2
*D2
 10
-47.09870351908172
 20
93.46109259233694
 30
0
 11
-49.21328018326228
 21
95.14663865557667
 31
0
 70
   33
 71
    5
  3
Standard
 53
0
210
0
220
0
230
1
100
AcDbAlignedDimension
 13
-48.8
 23
88.93577999999999
 33
0
 14
-45.9428333790522
 24
89.85043780494222
 34
0
  0
LINE
  5
E5
100
AcDbEntity
  8
Phantom
  6
ByLayer
 62
  256
370
   -1
100
AcDbLine
 10
-36.5
 20
-22.225
 11
-36.5
 21
22.225
  0
LINE
  5
E6
100
AcDbEntity
  8
Phantom
  6
ByLayer
 62
  256
370
   -1
100
AcDbLine
 10
36.5
 20
-22.225
 11
36.5
 21
22.225
  0
DIMENSION
  5
E7
100
AcDbEntity
  8
Dimensions
  6
ByLayer
 62
  256
370
   -1
100
AcDbDimension
  2
*D3
 10
36.5
 20
-40.30914292774233
 30
0
 11
1.377727649040772e-16
 21
-38.05914292774233
 31
0
 70
   32
  1
<> (MTB, english)
 71
    5
  3
Standard
 53
0
210
0
220
0
230
1
100
AcDbAlignedDimension
 13
-36.5
 23
-22.225
 33
0
 14
36.5
 24
-22.225
 34
0
100
AcDbRotatedDimension
  0
DIMENSION
  5
E8
100
AcDbEntity
  8
Dimensions
  6
ByLayer
 62
  256
370
   -1
100
AcDbDimension
  2
*D4
 10
46
 20
-54.04678805109846
 30
0
 11
1.377727649040772e-16
 21
-51.79678805109846
 31
0
 70
   32
  1
<> (MTB, BB86/92)
 71
    5
  3
Standard
 53
0
210
0
220
0
230
1
100
AcDbAlignedDimension
 13
-46
 23
-30
 33
0
 14
46
 24
-22.225
 34
0
100
AcDbRotatedDimension
  0
MTEXT
  5
E9
100
AcDbEntity
  8
Dimensions
  6
ByLayer
 62
  256
370
   -1
100
AcDbMText
 10
-52.89818906049633
 20
139.1658450552125
 30
0
 40
2.5
 41
4.166666666666822
 71
    5
 72
    1
  1
15%%D
  7
iso
210
0
220
0
230
1
 50
0
 73
    2
 44
1
  0
MTEXT
  5
EA
100
AcDbEntity
  8
Dimensions
  6
ByLayer
 62
  256
370
   -1
100
AcDbMText
 10
-27.74544214722017
 20
53.57939132866304
 30
0
 40
2.5
 41
4.166666666666822
 71
    5
 72
    1
  1
15%%D
  7
iso
210
0
220
0
230
1
 50
0
 73
    2
 44
1
  0
MTEXT
  5
EB
100
AcDbEntity
  8
Dimensions
  6
ByLayer
 62
  256
370
   -1
100
AcDbMText
 10
-63.92703700600494
 20
320.6037764998126
 30
0
 40
2.5
 41
2.777777777777778
 71
    5
 72
    1
  1
7%%D
  7
iso
210
0
220
0
230
1
 50
0
 73
    2
 44
1
  0
MTEXT
  5
EC
100
AcDbEntity
  8
Dimensions
  6
ByLayer
 62
  256
370
   -1
100
AcDbMText
 10
-109.1086670116629
 20
317.5747433552023
 30
0
 40
2.5
 41
7.222222222222378
 71
    5
 72
    1
  1
R230
  7
iso
210
0
220
0
230
1
 50
0
 73
    2
 44
1
  0
MTEXT
  5
ED
100
AcDbEntity
  8
Dimensions
  6
ByLayer
 62
  256
370
   -1
100
AcDbMText
 10
-29.25377303935888
 20
153.911742837708
 30
0
 40
2.5
 41
7.222222222222378
 71
    5
 72
    1
  1
R230
  7
iso
210
0
220
0
230
1
 50
0
 73
    2
 44
1
  0
MTEXT
  5
EE
100
AcDbEntity
  8
Dimensions
  6
ByLayer
 62
  256
370
   -1
100
AcDbMText
 10
-65.35978120505408
 20
47.9656458843542
 30
0
 40
2.5
 41
7.222222222222378
 71
    5
 72
    1
  1
R230
  7
iso
210
0
220
0
230
1
 50
0
 73
    2
 44
1
  0
LEADER
  5
EF
100
AcDbEntity
  8
Dimensions
  6
ByLayer
 62
  256
370
   -1
100
AcDbLeader
  3
Standard
 71
    1
 72
    0
 73
    3
 74
    0
 75
    0
 40
1
 41
10
 76
2
 76
2
 10
-36.08605464836097
 20
53.75352998904563
 30
0
 10
-59.29818859329503
 20
47.9656458843542
 30
0
  0
LEADER
  5
F0
100
AcDbEntity
  8
Dimensions
  6
ByLayer
 62
  256
370
   -1
100
AcDbLeader
  3
Standard
 71
    1
 72
    0
 73
    3
 74
    0
 75
    0
 40
1
 41
10
 76
2
 76
2
 10
-46.09111084638732
 20
145.9363520503235
 30
0
 10
-34.78827064139975
 20
153.911742837708
 30
0
  0
LEADER
  5
F1
100
AcDbEntity
  8
Dimensions
  6
ByLayer
 62
  256
370
   -1
100
AcDbLeader
  3
Standard
 71
    1
 72
    0
 73
    3
 74
    0
 75
    0
 40
1
 41
10
 76
2
 76
2
 10
-70.90254036612592
 20
321.2792874177163
 30
0
 10
-103.3106219047629
 20
317.5747433552023
 30
0
  0
LEADER
  5
F2
100
AcDbEntity
  8
Dimensions
  6
ByLayer
 62
  256
370
   -1
100
AcDbLeader
  3
Standard
 71
    1
 72
    0
 73
    3
 74
    0
 75
    0
 40
1
 41
10
 76
2
 76
2
 10
-54.15565587127948
 20
286.3201801216378
 30
0
 10
-26.67484303935729
 20
298.4654693732965
 30
0
  0
LEADER
  5
F3
100
AcDbEntity
  8
Dimensions
  6
ByLayer
 62
  256
370
   -1
100
AcDbLeader
  3
Standard
 71
    1
 72
    0
 73
    3
 74
    0
 75
    0
 40
1
 41
10
 76
2
 76
2
 10
54.15565587127948
 20
286.3201801216378
 30
0
 10
26.67484303935729
 20
298.4654693732965
 30
0
  0
LINE
  5
F4
100
AcDbEntity
  8
Frame
  6
ByLayer
 62
  256
370
   -1
100
AcDbLine
 10
-210
 20
510
 11
210
 21
510
  0
LINE
  5
F5
100
AcDbEntity
  8
Frame
  6
ByLayer
 62
  256
370
   -1
100
AcDbLine
 10
-210
 20
-84
 11
210
 21
-84
  0
LINE
  5
F6
100
AcDbEntity
  8
0
  6
ByLayer
 62
  256
370
   -1
100
AcDbLine
 10
-48.8
 20
-84
 11
-48.8
 21
88.93577999999999
  0
LINE
  5
F7
100
AcDbEntity
  8
0
  6
ByLayer
 62
  256
370
   -1
100
AcDbLine
 10
-51.2
 20
88.93577999999999
 11
-51.2
 21
-84
  0
MTEXT
  5
F8
100
AcDbEntity
  8
Dimensions
  6
ByLayer
 62
  256
370
   -1
100
AcDbMText
 10
0
 20
300
 30
0
 40
2.5
 41
75.27778163493309
 71
    5
 72
    1
  1
Columbus Zona 29'er triple-bend chainstays\PZON114OV47029
  7
iso
210
0
220
0
230
1
 50
0
 73
    2
 44
1
  0
ENDSEC
  0
SECTION
  2
OBJECTS
  0
DICTIONARY
  5
C
330
0
100
AcDbDictionary
281
    1
  3
ACAD_GROUP
350
D
  0
DICTIONARY
  5
D
330
C
100
AcDbDictionary
281
    1
  0
ENDSEC
  0
EOF
