999
dxfrw 0.6.3
  0
SECTION
  2
HEADER
  9
$ACADVER
  1
AC1021
  9
$DWGCODEPAGE
  3
ANSI_1252
  9
$INSBASE
 10
0
 20
0
 30
0
  9
$EXTMIN
 10
-210
 20
-211.9440360030488
 30
0
  9
$EXTMAX
 10
210
 20
385.9917439969511
 30
0
  9
$LIMMIN
 10
0
 20
0
  9
$LIMMAX
 10
420
 20
297
  9
$ORTHOMODE
 70
    0
  9
$REGENMODE
 70
    1
  9
$FILLMODE
 70
    1
  9
$QTEXTMODE
 70
    0
  9
$MIRRTEXT
 70
    0
  9
$LTSCALE
 40
1
  9
$ATTMODE
 70
    0
  9
$TEXTSIZE
 40
2.5
  9
$TRACEWID
 40
15.68
  9
$TEXTSTYLE
  7
STANDARD
  9
$CLAYER
  8
center
  9
$CELTYPE
  6
BYLAYER
  9
$CECOLOR
 62
  256
  9
$CELTSCALE
 40
1
  9
$DISPSILH
 70
    0
  9
$DIMSCALE
 40
1
  9
$DIMASZ
 40
2.5
  9
$DIMEXO
 40
1.5
  9
$DIMDLI
 40
3.75
  9
$DIMRND
 40
0
  9
$DIMDLE
 40
0
  9
$DIMEXE
 40
1.25
  9
$DIMTP
 40
0
  9
$DIMTM
 40
0
  9
$DIMTXT
 40
2.5
  9
$DIMCEN
 40
2.5
  9
$DIMTSZ
 40
0
  9
$DIMTOL
 70
    0
  9
$DIMLIM
 70
    0
  9
$DIMTIH
 70
    0
  9
$DIMTOH
 70
    0
  9
$DIMSE1
 70
    0
  9
$DIMSE2
 70
    0
  9
$DIMTAD
 70
    1
  9
$DIMZIN
 70
    8
  9
$DIMBLK
  1

  9
$DIMASO
 70
    1
  9
$DIMSHO
 70
    1
  9
$DIMPOST
  1

  9
$DIMAPOST
  1

  9
$DIMALT
 70
    0
  9
$DIMALTD
 70
    3
  9
$DIMALTF
 40
0.03937
  9
$DIMLFAC
 40
1
  9
$DIMTOFL
 70
    1
  9
$DIMTVP
 40
0
  9
$DIMTIX
 70
    0
  9
$DIMSOXD
 70
    0
  9
$DIMSAH
 70
    0
  9
$DIMBLK1
  1

  9
$DIMBLK2
  1

  9
$DIMSTYLE
  2
STANDARD
  9
$DIMCLRD
 70
    0
  9
$DIMCLRE
 70
    0
  9
$DIMCLRT
 70
    0
  9
$DIMTFAC
 40
1
  9
$DIMGAP
 40
1
  9
$DIMJUST
 70
    0
  9
$DIMSD1
 70
    0
  9
$DIMSD2
 70
    0
  9
$DIMTOLJ
 70
    0
  9
$DIMTZIN
 70
    8
  9
$DIMALTZ
 70
    0
  9
$DIMALTTZ
 70
    0
  9
$DIMUPT
 70
    0
  9
$DIMDEC
 70
    1
  9
$DIMTDEC
 70
    2
  9
$DIMALTU
 70
    2
  9
$DIMALTTD
 70
    3
  9
$DIMTXSTY
  7
standard
  9
$DIMAUNIT
 70
    0
  9
$DIMADEC
 70
    0
  9
$DIMALTRND
 40
0
  9
$DIMAZIN
 70
    0
  9
$DIMDSEP
 70
    0
  9
$DIMATFIT
 70
    3
  9
$DIMFRAC
 70
    0
  9
$DIMLDRBLK
  1
STANDARD
  9
$DIMLUNIT
 70
    2
  9
$DIMLWD
 70
   -2
  9
$DIMLWE
 70
   -2
  9
$DIMTMOVE
 70
    0
  9
$DIMFXL
 40
1
  9
$DIMFXLON
 70
    0
  9
$DIMJOGANG
 40
0.7854
  9
$DIMTFILL
 70
    0
  9
$DIMTFILLCLR
 70
    0
  9
$DIMARCSYM
 70
    0
  9
$DIMLTYPE
  6

  9
$DIMLTEX1
  6

  9
$DIMLTEX2
  6

  9
$LUNITS
 70
    2
  9
$LUPREC
 70
    4
  9
$SKETCHINC
 40
1
  9
$FILLETRAD
 40
0
  9
$AUNITS
 70
    0
  9
$AUPREC
 70
    2
  9
$MENU
  1
.
  9
$ELEVATION
 40
0
  9
$PELEVATION
 40
0
  9
$THICKNESS
 40
0
  9
$LIMCHECK
 70
    0
  9
$CHAMFERA
 40
0
  9
$CHAMFERB
 40
0
  9
$CHAMFERC
 40
0
  9
$CHAMFERD
 40
0
  9
$SKPOLY
 70
    0
  9
$USRTIMER
 70
    1
  9
$ANGBASE
 50
0
  9
$ANGDIR
 70
    0
  9
$PDMODE
 70
   34
  9
$PDSIZE
 40
0
  9
$PLINEWID
 40
0
  9
$SPLFRAME
 70
    0
  9
$SPLINETYPE
 70
    2
  9
$SPLINESEGS
 70
    8
  9
$HANDSEED
  5
20000
  9
$SURFTAB1
 70
    6
  9
$SURFTAB2
 70
    6
  9
$SURFTYPE
 70
    6
  9
$SURFU
 70
    6
  9
$SURFV
 70
    6
  9
$UCSBASE
  2

  9
$UCSNAME
  2

  9
$UCSORG
 10
0
 20
0
 30
0
  9
$UCSXDIR
 10
1
 20
0
 30
0
  9
$UCSYDIR
 10
0
 20
1
 30
0
  9
$UCSORTHOREF
  2

  9
$UCSORTHOVIEW
 70
    0
  9
$UCSORGTOP
 10
0
 20
0
 30
0
  9
$UCSORGBOTTOM
 10
0
 20
0
 30
0
  9
$UCSORGLEFT
 10
0
 20
0
 30
0
  9
$UCSORGRIGHT
 10
0
 20
0
 30
0
  9
$UCSORGFRONT
 10
0
 20
0
 30
0
  9
$UCSORGBACK
 10
0
 20
0
 30
0
  9
$PUCSBASE
  2

  9
$PUCSNAME
  2

  9
$PUCSORG
 10
0
 20
0
 30
0
  9
$PUCSXDIR
 10
1
 20
0
 30
0
  9
$PUCSYDIR
 10
0
 20
1
 30
0
  9
$PUCSORTHOREF
  2

  9
$PUCSORTHOVIEW
 70
    0
  9
$PUCSORGTOP
 10
0
 20
0
 30
0
  9
$PUCSORGBOTTOM
 10
0
 20
0
 30
0
  9
$PUCSORGLEFT
 10
0
 20
0
 30
0
  9
$PUCSORGRIGHT
 10
0
 20
0
 30
0
  9
$PUCSORGFRONT
 10
0
 20
0
 30
0
  9
$PUCSORGBACK
 10
0
 20
0
 30
0
  9
$USERI1
 70
    0
  9
$USERI2
 70
    0
  9
$USERI3
 70
    0
  9
$USERI4
 70
    0
  9
$USERI5
 70
    0
  9
$USERR1
 40
0
  9
$USERR2
 40
0
  9
$USERR3
 40
0
  9
$USERR4
 40
0
  9
$USERR5
 40
0
  9
$WORLDVIEW
 70
    1
  9
$SHADEDGE
 70
    3
  9
$SHADEDIF
 70
   70
  9
$TILEMODE
 70
    1
  9
$MAXACTVP
 70
   64
  9
$PINSBASE
 10
210
 20
209.9761460030489
 30
0
  9
$PLIMCHECK
 70
    0
  9
$PEXTMIN
 10
0
 20
0
 30
0
  9
$PEXTMAX
 10
0
 20
0
 30
0
  9
$GRIDMODE
 70
    0
  9
$SNAPSTYLE
 70
    0
  9
$GRIDUNIT
 10
0
 20
0
  9
$PLIMMIN
 10
0
 20
0
  9
$PLIMMAX
 10
420
 20
594
  9
$UNITMODE
 70
    0
  9
$VISRETAIN
 70
    1
  9
$PLINEGEN
 70
    0
  9
$PSLTSCALE
 70
    1
  9
$TREEDEPTH
 70
 3020
  9
$CMLSTYLE
  2
Standard
  9
$CMLJUST
 70
    0
  9
$CMLSCALE
 40
20
  9
$PROXYGRAPHICS
 70
    1
  9
$MEASUREMENT
 70
    1
  9
$CELWEIGHT
370
   -1
  9
$ENDCAPS
280
    0
  9
$JOINSTYLE
280
    0
  9
$LWDISPLAY
290
    0
  9
$INSUNITS
 70
    0
  9
$HYPERLINKBASE
  1

  9
$STYLESHEET
  1

  9
$XEDIT
290
    1
  9
$CEPSNTYPE
380
    0
  9
$PSTYLEMODE
290
    1
  9
$EXTNAMES
290
    1
  9
$PSVPSCALE
 40
1
  9
$OLESTARTUP
290
    0
  9
$SORTENTS
280
  127
  9
$INDEXCTL
280
    0
  9
$HIDETEXT
280
    1
  9
$XCLIPFRAME
290
    0
  9
$HALOGAP
280
    0
  9
$OBSCOLOR
 70
  257
  9
$OBSLTYPE
280
    0
  9
$INTERSECTIONDISPLAY
280
    0
  9
$INTERSECTIONCOLOR
 70
  257
  9
$DIMASSOC
280
    1
  9
$PROJECTNAME
  1

  9
$CAMERADISPLAY
290
    0
  9
$LENSLENGTH
 40
50
  9
$CAMERAHEIGHT
 40
0
  9
$STEPSPERSEC
 40
2
  9
$STEPSIZE
 40
50
  9
$3DDWFPREC
 40
2
  9
$PSOLWIDTH
 40
5
  9
$PSOLHEIGHT
 40
80
  9
$LOFTANG1
 40
1.570796326794897
  9
$LOFTANG2
 40
1.570796326794897
  9
$LOFTMAG1
 40
0
  9
$LOFTMAG2
 40
0
  9
$LOFTPARAM
 70
    7
  9
$LOFTNORMALS
280
    1
  9
$LATITUDE
 40
1
  9
$LONGITUDE
 40
1
  9
$NORTHDIRECTION
 40
0
  9
$TIMEZONE
 70
-8000
  9
$LIGHTGLYPHDISPLAY
280
    1
  9
$TILEMODELIGHTSYNCH
280
    1
  9
$SOLIDHIST
280
    1
  9
$SHOWHIST
280
    1
  9
$DWFFRAME
280
    2
  9
$DGNFRAME
280
    0
  9
$REALWORLDSCALE
290
    1
  9
$INTERFERECOLOR
 62
    1
  9
$CSHADOW
280
    0
  9
$SHADOWPLANELOCATION
 40
0
  0
ENDSEC
  0
SECTION
  2
CLASSES
  0
ENDSEC
  0
SECTION
  2
TABLES
  0
TABLE
  2
VPORT
  5
8
330
0
100
AcDbSymbolTable
 70
    1
  0
VPORT
  5
31
330
2
100
AcDbSymbolTableRecord
100
AcDbViewportTableRecord
  2
*ACTIVE
 70
    0
 10
0
 20
0
 11
1
 21
1
 12
116.9340186439582
 22
98.1968168434426
 13
0
 23
0
 14
10
 24
10
 15
10
 25
10
 16
0
 26
0
 36
1
 17
0
 27
0
 37
0
 40
368.4983020768058
 41
1.71939736346516
 42
50
 43
0
 44
0
 50
0
 51
0
 71
    0
 72
  100
 73
    1
 74
    3
 75
    0
 76
    0
 77
    0
 78
    0
281
    0
 65
    1
110
0
120
0
130
0
111
1
121
0
131
0
112
0
122
1
132
0
 79
    0
146
0
348
10020
 60
    7
 61
    5
292
1
282
    1
141
0
142
0
 63
  250
421
3358443
  0
ENDTAB
  0
TABLE
  2
LTYPE
  5
5
330
0
100
AcDbSymbolTable
 70
    4
  0
LTYPE
  5
14
330
5
100
AcDbSymbolTableRecord
100
AcDbLinetypeTableRecord
  2
ByBlock
 70
    0
  3

 72
   65
 73
    0
 40
0
  0
LTYPE
  5
15
330
5
100
AcDbSymbolTableRecord
100
AcDbLinetypeTableRecord
  2
ByLayer
 70
    0
  3

 72
   65
 73
    0
 40
0
  0
LTYPE
  5
16
330
5
100
AcDbSymbolTableRecord
100
AcDbLinetypeTableRecord
  2
Continuous
 70
    0
  3
Solid line
 72
   65
 73
    0
 40
0
  0
LTYPE
  5
32
330
5
100
AcDbSymbolTableRecord
100
AcDbLinetypeTableRecord
  2
DOT
 70
    0
  3
Dot . . . . . . . . . . . . . . . . . . . . . .
 72
   65
 73
    2
 40
6.35
 49
0
 74
    0
 49
-6.35
 74
    0
  0
LTYPE
  5
33
330
5
100
AcDbSymbolTableRecord
100
AcDbLinetypeTableRecord
  2
DOTTINY
 70
    0
  3
Dot (.15x) .....................................
 72
   65
 73
    2
 40
0.9525
 49
0
 74
    0
 49
-0.9525
 74
    0
  0
LTYPE
  5
34
330
5
100
AcDbSymbolTableRecord
100
AcDbLinetypeTableRecord
  2
DOT2
 70
    0
  3
Dot (.5x) .....................................
 72
   65
 73
    2
 40
3.175
 49
0
 74
    0
 49
-3.175
 74
    0
  0
LTYPE
  5
35
330
5
100
AcDbSymbolTableRecord
100
AcDbLinetypeTableRecord
  2
DOTX2
 70
    0
  3
Dot (2x) .  .  .  .  .  .  .  .  .  .  .  .  .
 72
   65
 73
    2
 40
12.7
 49
0
 74
    0
 49
-12.7
 74
    0
  0
LTYPE
  5
36
330
5
100
AcDbSymbolTableRecord
100
AcDbLinetypeTableRecord
  2
DASHED
 70
    0
  3
Dashed _ _ _ _ _ _ _ _ _ _ _ _ _ _ _ _ _
 72
   65
 73
    2
 40
19.05
 49
12.7
 74
    0
 49
-6.35
 74
    0
  0
LTYPE
  5
37
330
5
100
AcDbSymbolTableRecord
100
AcDbLinetypeTableRecord
  2
DASHEDTINY
 70
    0
  3
Dashed (.15x) _ _ _ _ _ _ _ _ _ _ _ _ _ _ _ _ _
 72
   65
 73
    2
 40
2.8575
 49
1.905
 74
    0
 49
-0.9525
 74
    0
  0
LTYPE
  5
38
330
5
100
AcDbSymbolTableRecord
100
AcDbLinetypeTableRecord
  2
DASHED2
 70
    0
  3
Dashed (.5x) _ _ _ _ _ _ _ _ _ _ _ _ _ _ _ _ _
 72
   65
 73
    2
 40
9.524999999999999
 49
6.35
 74
    0
 49
-3.175
 74
    0
  0
LTYPE
  5
39
330
5
100
AcDbSymbolTableRecord
100
AcDbLinetypeTableRecord
  2
DASHEDX2
 70
    0
  3
Dashed (2x) ____  ____  ____  ____  ____  ___
 72
   65
 73
    2
 40
38.09999999999999
 49
25.4
 74
    0
 49
-12.7
 74
    0
  0
LTYPE
  5
3A
330
5
100
AcDbSymbolTableRecord
100
AcDbLinetypeTableRecord
  2
DASHDOT
 70
    0
  3
Dash dot __ . __ . __ . __ . __ . __ . __ . __
 72
   65
 73
    4
 40
25.4
 49
12.7
 74
    0
 49
-6.35
 74
    0
 49
0
 74
    0
 49
-6.35
 74
    0
  0
LTYPE
  5
3B
330
5
100
AcDbSymbolTableRecord
100
AcDbLinetypeTableRecord
  2
DASHDOTTINY
 70
    0
  3
Dash dot (.15x) _._._._._._._._._._._._._._._.
 72
   65
 73
    4
 40
3.81
 49
1.905
 74
    0
 49
-0.9525
 74
    0
 49
0
 74
    0
 49
-0.9525
 74
    0
  0
LTYPE
  5
3C
330
5
100
AcDbSymbolTableRecord
100
AcDbLinetypeTableRecord
  2
DASHDOT2
 70
    0
  3
Dash dot (.5x) _._._._._._._._._._._._._._._.
 72
   65
 73
    4
 40
12.7
 49
6.35
 74
    0
 49
-3.175
 74
    0
 49
0
 74
    0
 49
-3.175
 74
    0
  0
LTYPE
  5
3D
330
5
100
AcDbSymbolTableRecord
100
AcDbLinetypeTableRecord
  2
DASHDOTX2
 70
    0
  3
Dash dot (2x) ____  .  ____  .  ____  .  ___
 72
   65
 73
    4
 40
50.8
 49
25.4
 74
    0
 49
-12.7
 74
    0
 49
0
 74
    0
 49
-12.7
 74
    0
  0
LTYPE
  5
3E
330
5
100
AcDbSymbolTableRecord
100
AcDbLinetypeTableRecord
  2
DIVIDE
 70
    0
  3
Divide ____ . . ____ . . ____ . . ____ . . ____
 72
   65
 73
    6
 40
31.75
 49
12.7
 74
    0
 49
-6.35
 74
    0
 49
0
 74
    0
 49
-6.35
 74
    0
 49
0
 74
    0
 49
-6.35
 74
    0
  0
LTYPE
  5
3F
330
5
100
AcDbSymbolTableRecord
100
AcDbLinetypeTableRecord
  2
DIVIDETINY
 70
    0
  3
Divide (.15x) __..__..__..__..__..__..__..__.._
 72
   65
 73
    6
 40
4.7625
 49
1.905
 74
    0
 49
-0.9525
 74
    0
 49
0
 74
    0
 49
-0.9525
 74
    0
 49
0
 74
    0
 49
-0.9525
 74
    0
  0
LTYPE
  5
40
330
5
100
AcDbSymbolTableRecord
100
AcDbLinetypeTableRecord
  2
DIVIDE2
 70
    0
  3
Divide (.5x) __..__..__..__..__..__..__..__.._
 72
   65
 73
    6
 40
15.875
 49
6.35
 74
    0
 49
-3.175
 74
    0
 49
0
 74
    0
 49
-3.175
 74
    0
 49
0
 74
    0
 49
-3.175
 74
    0
  0
LTYPE
  5
41
330
5
100
AcDbSymbolTableRecord
100
AcDbLinetypeTableRecord
  2
DIVIDEX2
 70
    0
  3
Divide (2x) ________  .  .  ________  .  .  _
 72
   65
 73
    6
 40
63.5
 49
25.4
 74
    0
 49
-12.7
 74
    0
 49
0
 74
    0
 49
-12.7
 74
    0
 49
0
 74
    0
 49
-12.7
 74
    0
  0
LTYPE
  5
42
330
5
100
AcDbSymbolTableRecord
100
AcDbLinetypeTableRecord
  2
BORDER
 70
    0
  3
Border __ __ . __ __ . __ __ . __ __ . __ __ .
 72
   65
 73
    6
 40
44.45
 49
12.7
 74
    0
 49
-6.35
 74
    0
 49
12.7
 74
    0
 49
-6.35
 74
    0
 49
0
 74
    0
 49
-6.35
 74
    0
  0
LTYPE
  5
43
330
5
100
AcDbSymbolTableRecord
100
AcDbLinetypeTableRecord
  2
BORDERTINY
 70
    0
  3
Border (.15x) __.__.__.__.__.__.__.__.__.__.__.
 72
   65
 73
    6
 40
6.6675
 49
1.905
 74
    0
 49
-0.9525
 74
    0
 49
1.905
 74
    0
 49
-0.9525
 74
    0
 49
0
 74
    0
 49
-0.9525
 74
    0
  0
LTYPE
  5
44
330
5
100
AcDbSymbolTableRecord
100
AcDbLinetypeTableRecord
  2
BORDER2
 70
    0
  3
Border (.5x) __.__.__.__.__.__.__.__.__.__.__.
 72
   65
 73
    6
 40
22.225
 49
6.35
 74
    0
 49
-3.175
 74
    0
 49
6.35
 74
    0
 49
-3.175
 74
    0
 49
0
 74
    0
 49
-3.175
 74
    0
  0
LTYPE
  5
45
330
5
100
AcDbSymbolTableRecord
100
AcDbLinetypeTableRecord
  2
BORDERX2
 70
    0
  3
Border (2x) ____  ____  .  ____  ____  .  ___
 72
   65
 73
    6
 40
88.89999999999999
 49
25.4
 74
    0
 49
-12.7
 74
    0
 49
25.4
 74
    0
 49
-12.7
 74
    0
 49
0
 74
    0
 49
-12.7
 74
    0
  0
LTYPE
  5
46
330
5
100
AcDbSymbolTableRecord
100
AcDbLinetypeTableRecord
  2
CENTER
 70
    0
  3
Center ____ _ ____ _ ____ _ ____ _ ____ _ ____
 72
   65
 73
    4
 40
50.8
 49
31.75
 74
    0
 49
-6.35
 74
    0
 49
6.35
 74
    0
 49
-6.35
 74
    0
  0
LTYPE
  5
47
330
5
100
AcDbSymbolTableRecord
100
AcDbLinetypeTableRecord
  2
CENTERTINY
 70
    0
  3
Center (.15x) ___ _ ___ _ ___ _ ___ _ ___ _ ___
 72
   65
 73
    4
 40
7.619999999999999
 49
4.7625
 74
    0
 49
-0.9525
 74
    0
 49
0.9525
 74
    0
 49
-0.9525
 74
    0
  0
LTYPE
  5
48
330
5
100
AcDbSymbolTableRecord
100
AcDbLinetypeTableRecord
  2
CENTER2
 70
    0
  3
Center (.5x) ___ _ ___ _ ___ _ ___ _ ___ _ ___
 72
   65
 73
    4
 40
28.575
 49
19.05
 74
    0
 49
-3.175
 74
    0
 49
3.175
 74
    0
 49
-3.175
 74
    0
  0
LTYPE
  5
49
330
5
100
AcDbSymbolTableRecord
100
AcDbLinetypeTableRecord
  2
CENTERX2
 70
    0
  3
Center (2x) ________  __  ________  __  _____
 72
   65
 73
    4
 40
101.6
 49
63.5
 74
    0
 49
-12.7
 74
    0
 49
12.7
 74
    0
 49
-12.7
 74
    0
  0
ENDTAB
  0
TABLE
  2
LAYER
  5
2
330
0
100
AcDbSymbolTable
 70
    1
  0
LAYER
  5
10
330
2
100
AcDbSymbolTableRecord
100
AcDbLayerTableRecord
  2
0
 70
    0
 62
    7
  6
CONTINUOUS
370
   70
390
F
  0
LAYER
  5
4A
330
2
100
AcDbSymbolTableRecord
100
AcDbLayerTableRecord
  2
center
 70
    0
 62
    7
  6
CENTERTINY
370
   35
390
F
  0
LAYER
  5
4B
330
2
100
AcDbSymbolTableRecord
100
AcDbLayerTableRecord
  2
construction
 70
    1
 62
    7
  6
CONTINUOUS
290
0
370
    0
390
F
  0
LAYER
  5
4C
330
2
100
AcDbSymbolTableRecord
100
AcDbLayerTableRecord
  2
dimensions
 70
    0
 62
    7
  6
CONTINUOUS
370
   35
390
F
  0
LAYER
  5
4D
330
2
100
AcDbSymbolTableRecord
100
AcDbLayerTableRecord
  2
frame
 70
    0
 62
    7
  6
CONTINUOUS
290
0
370
   13
390
F
  0
LAYER
  5
4E
330
2
100
AcDbSymbolTableRecord
100
AcDbLayerTableRecord
  2
my_dimensions
 70
    0
 62
    7
  6
CONTINUOUS
370
   35
390
F
  0
LAYER
  5
4F
330
2
100
AcDbSymbolTableRecord
100
AcDbLayerTableRecord
  2
s001-#def-active-grp
 70
    0
 62
    7
  6
CONTINUOUS
370
   70
390
F
  0
LAYER
  5
50
330
2
100
AcDbSymbolTableRecord
100
AcDbLayerTableRecord
  2
thick
 70
    0
 62
    7
  6
CONTINUOUS
370
  100
390
F
  0
ENDTAB
  0
TABLE
  2
STYLE
  5
3
330
0
100
AcDbSymbolTable
 70
    3
  0
STYLE
  5
51
330
2
100
AcDbSymbolTableRecord
100
AcDbTextStyleTableRecord
  2
iso
 70
    0
 40
0
 41
1
 50
0
 71
    0
 42
1
  3
iso
  4

  0
STYLE
  5
52
330
2
100
AcDbSymbolTableRecord
100
AcDbTextStyleTableRecord
  2
Standard
 70
    0
 40
0
 41
1
 50
0
 71
    0
 42
1
  3
txt
  4

  0
ENDTAB
  0
TABLE
  2
VIEW
  5
6
330
0
100
AcDbSymbolTable
 70
    0
  0
ENDTAB
  0
TABLE
  2
UCS
  5
7
330
0
100
AcDbSymbolTable
 70
    0
  0
ENDTAB
  0
TABLE
  2
APPID
  5
9
330
0
100
AcDbSymbolTable
 70
    1
  0
APPID
  5
12
330
9
100
AcDbSymbolTableRecord
100
AcDbRegAppTableRecord
  2
ACAD
 70
    0
  0
APPID
  5
53
330
9
100
AcDbSymbolTableRecord
100
AcDbRegAppTableRecord
  2
LibreCad
 70
    0
  0
ENDTAB
  0
TABLE
  2
DIMSTYLE
  5
A
330
0
100
AcDbSymbolTable
 70
    1
100
AcDbDimStyleTable
 71
    1
  0
DIMSTYLE
105
54
330
A
100
AcDbSymbolTableRecord
100
AcDbDimStyleTableRecord
  2
Standard
 70
    0
 40
1
 41
2.5
 42
1.5
 43
0.38
 44
1.25
 45
0
 46
0
 47
0
 48
0
 49
1
140
2.5
141
0.09
142
0
143
25.4
144
1
145
0
146
1
147
1
148
0
 71
    0
 72
    0
 73
    0
 74
    1
 75
    0
 76
    0
 77
    0
 78
    8
 79
    0
170
    0
171
    2
172
    0
173
    0
174
    0
175
    0
176
    0
177
    0
178
    0
179
    0
271
    1
272
    4
273
    2
274
    2
275
    0
276
    0
277
    2
278
    0
279
    0
280
    0
281
    0
282
    0
283
    1
284
    0
285
    0
286
    0
288
    0
289
    3
340
standard
341

371
   -2
372
   -2
  0
ENDTAB
  0
TABLE
  2
BLOCK_RECORD
  5
1
330
0
100
AcDbSymbolTable
 70
    2
  0
BLOCK_RECORD
  5
1F
330
1
100
AcDbSymbolTableRecord
100
AcDbBlockTableRecord
  2
*Model_Space
 70
    0
280
    1
281
    0
  0
BLOCK_RECORD
  5
1E
330
1
100
AcDbSymbolTableRecord
100
AcDbBlockTableRecord
  2
*Paper_Space
 70
    0
280
    1
281
    0
  0
BLOCK_RECORD
  5
55
330
1
100
AcDbSymbolTableRecord
100
AcDbBlockTableRecord
  2
*D6
 70
    0
280
    1
281
    0
  0
BLOCK_RECORD
  5
58
330
1
100
AcDbSymbolTableRecord
100
AcDbBlockTableRecord
  2
*D7
 70
    0
280
    1
281
    0
  0
BLOCK_RECORD
  5
5B
330
1
100
AcDbSymbolTableRecord
100
AcDbBlockTableRecord
  2
*D20
 70
    0
280
    1
281
    0
  0
BLOCK_RECORD
  5
5E
330
1
100
AcDbSymbolTableRecord
100
AcDbBlockTableRecord
  2
*D9
 70
    0
280
    1
281
    0
  0
BLOCK_RECORD
  5
61
330
1
100
AcDbSymbolTableRecord
100
AcDbBlockTableRecord
  2
*D17
 70
    0
280
    1
281
    0
  0
BLOCK_RECORD
  5
64
330
1
100
AcDbSymbolTableRecord
100
AcDbBlockTableRecord
  2
*D19
 70
    0
280
    1
281
    0
  0
BLOCK_RECORD
  5
67
330
1
100
AcDbSymbolTableRecord
100
AcDbBlockTableRecord
  2
*D14
 70
    0
280
    1
281
    0
  0
BLOCK_RECORD
  5
6A
330
1
100
AcDbSymbolTableRecord
100
AcDbBlockTableRecord
  2
*D8
 70
    0
280
    1
281
    0
  0
BLOCK_RECORD
  5
6D
330
1
100
AcDbSymbolTableRecord
100
AcDbBlockTableRecord
  2
*D1
 70
    0
280
    1
281
    0
  0
BLOCK_RECORD
  5
70
330
1
100
AcDbSymbolTableRecord
100
AcDbBlockTableRecord
  2
*D2
 70
    0
280
    1
281
    0
  0
BLOCK_RECORD
  5
73
330
1
100
AcDbSymbolTableRecord
100
AcDbBlockTableRecord
  2
*D15
 70
    0
280
    1
281
    0
  0
BLOCK_RECORD
  5
76
330
1
100
AcDbSymbolTableRecord
100
AcDbBlockTableRecord
  2
*D5
 70
    0
280
    1
281
    0
  0
BLOCK_RECORD
  5
79
330
1
100
AcDbSymbolTableRecord
100
AcDbBlockTableRecord
  2
*D16
 70
    0
280
    1
281
    0
  0
BLOCK_RECORD
  5
7C
330
1
100
AcDbSymbolTableRecord
100
AcDbBlockTableRecord
  2
*D10
 70
    0
280
    1
281
    0
  0
BLOCK_RECORD
  5
7F
330
1
100
AcDbSymbolTableRecord
100
AcDbBlockTableRecord
  2
*D3
 70
    0
280
    1
281
    0
  0
BLOCK_RECORD
  5
82
330
1
100
AcDbSymbolTableRecord
100
AcDbBlockTableRecord
  2
*D13
 70
    0
280
    1
281
    0
  0
BLOCK_RECORD
  5
85
330
1
100
AcDbSymbolTableRecord
100
AcDbBlockTableRecord
  2
*D12
 70
    0
280
    1
281
    0
  0
BLOCK_RECORD
  5
88
330
1
100
AcDbSymbolTableRecord
100
AcDbBlockTableRecord
  2
*D4
 70
    0
280
    1
281
    0
  0
BLOCK_RECORD
  5
8B
330
1
100
AcDbSymbolTableRecord
100
AcDbBlockTableRecord
  2
*D11
 70
    0
280
    1
281
    0
  0
BLOCK_RECORD
  5
8E
330
1
100
AcDbSymbolTableRecord
100
AcDbBlockTableRecord
  2
*D18
 70
    0
280
    1
281
    0
  0
BLOCK_RECORD
  5
91
330
1
100
AcDbSymbolTableRecord
100
AcDbBlockTableRecord
  2
view_fixed
 70
    0
280
    1
281
    0
  0
ENDTAB
  0
ENDSEC
  0
SECTION
  2
BLOCKS
  0
BLOCK
  5
20
330
1F
100
AcDbEntity
  8
0
100
AcDbBlockBegin
  2
*Model_Space
 70
    0
 10
0
 20
0
 30
0
  3
*Model_Space
  1

  0
ENDBLK
  5
21
330
1F
100
AcDbEntity
  8
0
100
AcDbBlockEnd
  0
BLOCK
  5
1C
330
1B
100
AcDbEntity
  8
0
100
AcDbBlockBegin
  2
*Paper_Space
 70
    0
 10
0
 20
0
 30
0
  3
*Paper_Space
  1

  0
ENDBLK
  5
1D
330
1F
100
AcDbEntity
  8
0
100
AcDbBlockEnd
  0
BLOCK
  5
56
330
55
100
AcDbEntity
  8
0
100
AcDbBlockBegin
  2
*D6
 70
    1
 10
0
 20
0
  3
*D6
  1

  0
LINE
  5
94
100
AcDbEntity
  8
my_dimensions
  6
CONTINUOUS
 62
    7
370
    0
100
AcDbLine
 10
-74.00000000000001
 20
-131.9409602057464
 11
-101.6360607407817
 21
-131.9409602057464
  0
SOLID
  5
95
100
AcDbEntity
  8
my_dimensions
  6
CONTINUOUS
 62
    7
370
    0
100
AcDbTrace
 10
-74.00000000000001
 20
-131.9409602057464
 30
0
 11
-76.50000000000001
 21
-132.3572448635192
 31
0
 12
-76.50000000000001
 22
-131.5246755479735
 32
0
 13
-76.50000000000001
 23
-131.5246755479735
 33
0
  0
ENDBLK
  5
57
330
55
100
AcDbEntity
  8
0
100
AcDbBlockEnd
  0
BLOCK
  5
59
330
58
100
AcDbEntity
  8
0
100
AcDbBlockBegin
  2
*D7
 70
    1
 10
0
 20
0
  3
*D7
  1

  0
LINE
  5
96
100
AcDbEntity
  8
my_dimensions
  6
ByBlock
 62
    0
370
   -2
100
AcDbLine
 10
-38.00000000000001
 20
-97.34517294099908
 11
-22.50000000000001
 21
-97.34517294099908
  0
MTEXT
  5
97
100
AcDbEntity
  8
my_dimensions
  6
CONTINUOUS
 62
    0
370
   -2
100
AcDbMText
 10
-30.25000000000001
 20
-95.09517294099908
 30
0
 40
2.5
 41
5.277777777778088
 71
    5
 72
    1
  1
15.5
  7
standard
210
0
220
0
230
1
 50
0
 73
    2
 44
1
  0
SOLID
  5
98
100
AcDbEntity
  8
my_dimensions
  6
ByBlock
 62
    0
370
   -2
100
AcDbTrace
 10
-38.00000000000001
 20
-97.34517294099908
 30
0
 11
-35.50000000000001
 21
-96.92888828322624
 31
0
 12
-35.50000000000001
 22
-97.76145759877191
 32
0
 13
-35.50000000000001
 23
-97.76145759877191
 33
0
  0
SOLID
  5
99
100
AcDbEntity
  8
my_dimensions
  6
ByBlock
 62
    0
370
   -2
100
AcDbTrace
 10
-22.50000000000001
 20
-97.34517294099908
 30
0
 11
-25.00000000000001
 21
-97.76145759877191
 31
0
 12
-25.00000000000001
 22
-96.92888828322624
 32
0
 13
-25.00000000000001
 23
-96.92888828322624
 33
0
  0
LINE
  5
9A
100
AcDbEntity
  8
my_dimensions
  6
ByBlock
 62
    0
370
   -2
100
AcDbLine
 10
-38.00000000000001
 20
-99.28325600304881
 11
-38.00000000000001
 21
-96.09517294099908
  0
LINE
  5
9B
100
AcDbEntity
  8
my_dimensions
  6
ByBlock
 62
    0
370
   -2
100
AcDbLine
 10
-22.50000000000001
 20
-99.28325600304881
 11
-22.50000000000001
 21
-96.09517294099908
  0
ENDBLK
  5
5A
330
58
100
AcDbEntity
  8
0
100
AcDbBlockEnd
  0
BLOCK
  5
5C
330
5B
100
AcDbEntity
  8
0
100
AcDbBlockBegin
  2
*D20
 70
    1
 10
0
 20
0
  3
*D20
  1

  0
LINE
  5
9C
100
AcDbEntity
  8
my_dimensions
  6
ByBlock
 62
    0
370
   -2
100
AcDbLine
 10
-17.50000000000001
 20
62.99174399695121
 11
-17.50000000000001
 21
69.95927350979107
  0
LINE
  5
9D
100
AcDbEntity
  8
my_dimensions
  6
ByBlock
 62
    0
370
   -2
100
AcDbLine
 10
17.49999999999999
 20
62.99174399695121
 11
17.49999999999999
 21
69.95927350979107
  0
LINE
  5
9E
100
AcDbEntity
  8
my_dimensions
  6
ByBlock
 62
    0
370
   -2
100
AcDbLine
 10
-17.50000000000001
 20
68.70927350979107
 11
17.49999999999999
 21
68.70927350979107
  0
MTEXT
  5
9F
100
AcDbEntity
  8
my_dimensions
  6
CONTINUOUS
 62
    0
370
   -2
100
AcDbMText
 10
-1.052036827149743e-14
 20
70.95927350979107
 30
0
 40
2.5
 41
3.055555555555866
 71
    5
 72
    1
  1
35
  7
standard
210
0
220
0
230
1
 50
0
 73
    2
 44
1
  0
SOLID
  5
A0
100
AcDbEntity
  8
my_dimensions
  6
ByBlock
 62
    0
370
   -2
100
AcDbTrace
 10
-17.50000000000001
 20
68.70927350979107
 30
0
 11
-15.00000000000001
 21
69.12555816756391
 31
0
 12
-15.00000000000001
 22
68.29298885201824
 32
0
 13
-15.00000000000001
 23
68.29298885201824
 33
0
  0
SOLID
  5
A1
100
AcDbEntity
  8
my_dimensions
  6
ByBlock
 62
    0
370
   -2
100
AcDbTrace
 10
17.49999999999999
 20
68.70927350979107
 30
0
 11
14.99999999999999
 21
68.29298885201824
 31
0
 12
14.99999999999999
 22
69.12555816756391
 32
0
 13
14.99999999999999
 23
69.12555816756391
 33
0
  0
ENDBLK
  5
5D
330
5B
100
AcDbEntity
  8
0
100
AcDbBlockEnd
  0
BLOCK
  5
5F
330
5E
100
AcDbEntity
  8
0
100
AcDbBlockBegin
  2
*D9
 70
    1
 10
0
 20
0
  3
*D9
  1

  0
LINE
  5
A2
100
AcDbEntity
  8
my_dimensions
  6
ByBlock
 62
    0
370
   -2
100
AcDbLine
 10
113.625969507624
 20
-31.74999999999987
 11
113.625969507624
 21
-123.0082560030488
  0
MTEXT
  5
A3
100
AcDbEntity
  8
my_dimensions
  6
CONTINUOUS
 62
    0
370
   -2
100
AcDbMText
 10
111.375969507624
 20
-77.37912800152434
 30
0
 40
2.5
 41
5.277777777778089
 71
    5
 72
    1
  1
91.3
  7
standard
210
0
220
0
230
1
 50
90
 73
    2
 44
1
  0
SOLID
  5
A4
100
AcDbEntity
  8
my_dimensions
  6
ByBlock
 62
    0
370
   -2
100
AcDbTrace
 10
113.625969507624
 20
-31.74999999999987
 30
0
 11
114.0422541653968
 21
-34.24999999999987
 31
0
 12
113.2096848498512
 22
-34.24999999999987
 32
0
 13
113.2096848498512
 23
-34.24999999999987
 33
0
  0
SOLID
  5
A5
100
AcDbEntity
  8
my_dimensions
  6
ByBlock
 62
    0
370
   -2
100
AcDbTrace
 10
113.625969507624
 20
-123.0082560030488
 30
0
 11
113.2096848498512
 21
-120.5082560030488
 31
0
 12
114.0422541653968
 22
-120.5082560030488
 32
0
 13
114.0422541653968
 23
-120.5082560030488
 33
0
  0
LINE
  5
A6
100
AcDbEntity
  8
my_dimensions
  6
ByBlock
 62
    0
370
   -2
100
AcDbLine
 10
1.499999999999991
 20
-31.74999999999987
 11
114.875969507624
 21
-31.74999999999987
  0
LINE
  5
A7
100
AcDbEntity
  8
my_dimensions
  6
ByBlock
 62
    0
370
   -2
100
AcDbLine
 10
92.46446891928562
 20
-123.0082560030488
 11
114.875969507624
 21
-123.0082560030488
  0
ENDBLK
  5
60
330
5E
100
AcDbEntity
  8
0
100
AcDbBlockEnd
  0
BLOCK
  5
62
330
61
100
AcDbEntity
  8
0
100
AcDbBlockBegin
  2
*D17
 70
    1
 10
0
 20
0
  3
*D17
  1

  0
LINE
  5
A8
100
AcDbEntity
  8
dimensions
  6
ByBlock
 62
    0
370
   -2
100
AcDbLine
 10
53.93253082552064
 20
224.5075919972721
 11
52.81303167939704
 21
216.8673970117666
  0
LINE
  5
A9
100
AcDbEntity
  8
dimensions
  6
ByBlock
 62
    0
370
   -2
100
AcDbLine
 10
62.29789856669486
 20
223.2818350550709
 11
61.17839942057126
 21
215.6416400695654
  0
LINE
  5
AA
100
AcDbEntity
  8
dimensions
  6
ByBlock
 62
    0
370
   -2
100
AcDbLine
 10
52.99425599146307
 20
218.1041903448325
 11
61.3596237326373
 21
216.8784334026312
  0
MTEXT
  5
AB
100
AcDbEntity
  8
dimensions
  6
CONTINUOUS
 62
    0
370
   -2
100
AcDbMText
 10
57.50314362376904
 20
219.7175398732504
 30
0
 40
2.5
 41
3.888888888889044
 71
    5
 72
    1
  1
8.5
  7
standard
210
0
220
0
230
1
 50
351.663910834036
 73
    2
 44
1
  0
SOLID
  5
AC
100
AcDbEntity
  8
dimensions
  6
ByBlock
 62
    0
370
   -2
100
AcDbTrace
 10
52.99425599146307
 20
218.1041903448325
 30
0
 11
55.52819537817764
 21
218.1536281922132
 31
0
 12
55.407489937012
 22
217.3298552491875
 32
0
 13
55.407489937012
 23
217.3298552491875
 33
0
  0
SOLID
  5
AD
100
AcDbEntity
  8
dimensions
  6
ByBlock
 62
    0
370
   -2
100
AcDbTrace
 10
61.3596237326373
 20
216.8784334026312
 30
0
 11
58.82568434592272
 21
216.8289955552505
 31
0
 12
58.94638978708837
 22
217.6527684982761
 32
0
 13
58.94638978708837
 23
217.6527684982761
 33
0
  0
ENDBLK
  5
63
330
61
100
AcDbEntity
  8
0
100
AcDbBlockEnd
  0
BLOCK
  5
65
330
64
100
AcDbEntity
  8
0
100
AcDbBlockBegin
  2
*D19
 70
    1
 10
0
 20
0
  3
*D19
  1

  0
LINE
  5
AE
100
AcDbEntity
  8
my_dimensions
  6
ByBlock
 62
    0
370
   -2
100
AcDbLine
 10
-46
 20
-163.3260168415381
 11
45.99999999999997
 21
-163.3260168415381
  0
MTEXT
  5
AF
100
AcDbEntity
  8
my_dimensions
  6
CONTINUOUS
 62
    0
370
   -2
100
AcDbMText
 10
-1.407308195029793e-14
 20
-161.0760168415381
 30
0
 40
2.5
 41
15.48611083333349
 71
    5
 72
    1
  1
92 (BB92)
  7
standard
210
0
220
0
230
1
 50
0
 73
    2
 44
1
  0
SOLID
  5
B0
100
AcDbEntity
  8
my_dimensions
  6
ByBlock
 62
    0
370
   -2
100
AcDbTrace
 10
-46
 20
-163.3260168415381
 30
0
 11
-43.5
 21
-162.9097321837652
 31
0
 12
-43.5
 22
-163.7423014993109
 32
0
 13
-43.5
 23
-163.7423014993109
 33
0
  0
SOLID
  5
B1
100
AcDbEntity
  8
my_dimensions
  6
ByBlock
 62
    0
370
   -2
100
AcDbTrace
 10
45.99999999999997
 20
-163.3260168415381
 30
0
 11
43.49999999999997
 21
-163.7423014993109
 31
0
 12
43.49999999999997
 22
-162.9097321837652
 32
0
 13
43.49999999999997
 23
-162.9097321837652
 33
0
  0
LINE
  5
B2
100
AcDbEntity
  8
my_dimensions
  6
ByBlock
 62
    0
370
   -2
100
AcDbLine
 10
-46.00000000000001
 20
-154.5082560030488
 11
-46
 21
-164.5760168415381
  0
LINE
  5
B3
100
AcDbEntity
  8
my_dimensions
  6
ByBlock
 62
    0
370
   -2
100
AcDbLine
 10
45.99999999999997
 20
-154.5082560030487
 11
45.99999999999997
 21
-164.5760168415381
  0
ENDBLK
  5
66
330
64
100
AcDbEntity
  8
0
100
AcDbBlockEnd
  0
BLOCK
  5
68
330
67
100
AcDbEntity
  8
0
100
AcDbBlockBegin
  2
*D14
 70
    1
 10
0
 20
0
  3
*D14
  1

  0
LINE
  5
B4
100
AcDbEntity
  8
my_dimensions
  6
ByBlock
 62
    0
370
   -2
100
AcDbLine
 10
-50.00000000000001
 20
-138.7699150907488
 11
-1.953992523340276e-14
 21
-138.7699150907488
  0
MTEXT
  5
B5
100
AcDbEntity
  8
my_dimensions
  6
CONTINUOUS
 62
    0
370
   -2
100
AcDbMText
 10
-25.00000000000001
 20
-136.5199150907488
 30
0
 40
2.5
 41
21.59722194444506
 71
    5
 72
    1
  1
50 (Chainline)
  7
standard
210
0
220
0
230
1
 50
0
 73
    2
 44
1
  0
SOLID
  5
B6
100
AcDbEntity
  8
my_dimensions
  6
ByBlock
 62
    0
370
   -2
100
AcDbTrace
 10
-50.00000000000001
 20
-138.7699150907488
 30
0
 11
-47.50000000000001
 21
-138.353630432976
 31
0
 12
-47.50000000000001
 22
-139.1861997485217
 32
0
 13
-47.50000000000001
 23
-139.1861997485217
 33
0
  0
SOLID
  5
B7
100
AcDbEntity
  8
my_dimensions
  6
ByBlock
 62
    0
370
   -2
100
AcDbTrace
 10
-1.953992523340276e-14
 20
-138.7699150907488
 30
0
 11
-2.50000000000002
 21
-139.1861997485217
 31
0
 12
-2.50000000000002
 22
-138.353630432976
 32
0
 13
-2.50000000000002
 23
-138.353630432976
 33
0
  0
LINE
  5
B8
100
AcDbEntity
  8
my_dimensions
  6
ByBlock
 62
    0
370
   -2
100
AcDbLine
 10
-50.00000000000001
 20
-141.9590533985401
 11
-50.00000000000001
 21
-137.5199150907488
  0
LINE
  5
B9
100
AcDbEntity
  8
my_dimensions
  6
ByBlock
 62
    0
370
   -2
100
AcDbLine
 10
-1.981547076321092e-14
 20
-135.4727249223332
 11
-1.976954650824289e-14
 21
-140.0199150907488
  0
ENDBLK
  5
69
330
67
100
AcDbEntity
  8
0
100
AcDbBlockEnd
  0
BLOCK
  5
6B
330
6A
100
AcDbEntity
  8
0
100
AcDbBlockBegin
  2
*D8
 70
    1
 10
0
 20
0
  3
*D8
  1

  0
LINE
  5
BA
100
AcDbEntity
  8
my_dimensions
  6
ByBlock
 62
    0
370
   -2
100
AcDbLine
 10
101.5951239618041
 20
-100.7832560030488
 11
101.5951239618041
 21
-31.74999999999987
  0
MTEXT
  5
BB
100
AcDbEntity
  8
my_dimensions
  6
CONTINUOUS
 62
    0
370
   -2
100
AcDbMText
 10
99.34512396180411
 20
-66.26662800152434
 30
0
 40
2.5
 41
3.055555555555711
 71
    5
 72
    1
  1
69
  7
standard
210
0
220
0
230
1
 50
90
 73
    2
 44
1
  0
SOLID
  5
BC
100
AcDbEntity
  8
my_dimensions
  6
ByBlock
 62
    0
370
   -2
100
AcDbTrace
 10
101.5951239618041
 20
-100.7832560030488
 30
0
 11
101.1788393040313
 21
-98.28325600304881
 31
0
 12
102.0114086195769
 22
-98.28325600304881
 32
0
 13
102.0114086195769
 23
-98.28325600304881
 33
0
  0
SOLID
  5
BD
100
AcDbEntity
  8
my_dimensions
  6
ByBlock
 62
    0
370
   -2
100
AcDbTrace
 10
101.5951239618041
 20
-31.74999999999987
 30
0
 11
102.0114086195769
 21
-34.24999999999987
 31
0
 12
101.1788393040313
 22
-34.24999999999987
 32
0
 13
101.1788393040313
 23
-34.24999999999987
 33
0
  0
LINE
  5
BE
100
AcDbEntity
  8
my_dimensions
  6
ByBlock
 62
    0
370
   -2
100
AcDbLine
 10
47.49999999999999
 20
-100.7832560030488
 11
102.8451239618041
 21
-100.7832560030488
  0
LINE
  5
BF
100
AcDbEntity
  8
my_dimensions
  6
ByBlock
 62
    0
370
   -2
100
AcDbLine
 10
1.499999999999991
 20
-31.74999999999987
 11
102.8451239618041
 21
-31.74999999999987
  0
ENDBLK
  5
6C
330
6A
100
AcDbEntity
  8
0
100
AcDbBlockEnd
  0
BLOCK
  5
6E
330
6D
100
AcDbEntity
  8
0
100
AcDbBlockBegin
  2
*D1
 70
    1
 10
0
 20
0
  3
*D1
  1

  0
LINE
  5
C0
100
AcDbEntity
  8
my_dimensions
  6
ByBlock
 62
    0
370
   -2
100
AcDbLine
 10
-38.80873067764063
 20
-8.728970339642204
 11
-38.75166156148462
 21
-8.94440098493947
  0
LINE
  5
C1
100
AcDbEntity
  8
my_dimensions
  6
ByBlock
 62
    0
370
   -2
100
AcDbLine
 10
-31.07547399704561
 20
-6.680375427993646
 11
-31.0184048808896
 21
-6.895806073290911
  0
LINE
  5
C2
100
AcDbEntity
  8
my_dimensions
  6
ByBlock
 62
    0
370
   -2
100
AcDbLine
 10
-38.43156860653956
 20
-10.15272234128245
 11
-30.69831192594453
 21
-8.104127429633891
  0
MTEXT
  5
C3
100
AcDbEntity
  8
my_dimensions
  6
CONTINUOUS
 62
    0
370
   -2
100
AcDbMText
 10
-35.1411075851432
 20
-6.953446444040818
 30
0
 40
2.5
 41
1.111111111111111
 71
    5
 72
    1
  1
8
  7
standard
210
0
220
0
230
1
 50
14.83725558252058
 73
    2
 44
1
  0
SOLID
  5
C4
100
AcDbEntity
  8
my_dimensions
  6
ByBlock
 62
    0
370
   -2
100
AcDbTrace
 10
-38.43156860653956
 20
-10.15272234128245
 30
0
 11
-36.12152572281746
 21
-9.110131917548397
 31
0
 12
-35.90832606488976
 22
-9.914940945236156
 32
0
 13
-35.90832606488976
 23
-9.914940945236156
 33
0
  0
SOLID
  5
C5
100
AcDbEntity
  8
my_dimensions
  6
ByBlock
 62
    0
370
   -2
100
AcDbTrace
 10
-30.69831192594453
 20
-8.104127429633891
 30
0
 11
-33.00835480966663
 21
-9.146717853367946
 31
0
 12
-33.22155446759433
 22
-8.341908825680187
 32
0
 13
-33.22155446759433
 23
-8.341908825680187
 33
0
  0
ENDBLK
  5
6F
330
6D
100
AcDbEntity
  8
0
100
AcDbBlockEnd
  0
BLOCK
  5
71
330
70
100
AcDbEntity
  8
0
100
AcDbBlockBegin
  2
*D2
 70
    1
 10
0
 20
0
  3
*D2
  1

  0
LINE
  5
C6
100
AcDbEntity
  8
my_dimensions
  6
ByBlock
 62
    0
370
   -2
100
AcDbLine
 10
-49.43840989040665
 20
-32.71511355630474
 11
-50.6737767077109
 21
-30.08852435247151
  0
LINE
  5
C7
100
AcDbEntity
  8
my_dimensions
  6
ByBlock
 62
    0
370
   -2
100
AcDbLine
 10
-46.72368499691858
 20
-31.43829377549142
 11
-47.95905181422282
 21
-28.81170457165819
  0
LINE
  5
C8
100
AcDbEntity
  8
my_dimensions
  6
ByBlock
 62
    0
370
   -2
100
AcDbLine
 10
-54.66630995485215
 20
-33.3476926927804
 11
-42.90250208307049
 21
-27.81480697592269
  0
MTEXT
  5
C9
100
AcDbEntity
  8
my_dimensions
  6
CONTINUOUS
 62
    0
370
   -2
100
AcDbMText
 10
-49.74202085457131
 20
-28.54520616423549
 30
0
 40
2.5
 41
1.111111111111266
 71
    5
 72
    1
  1
3
  7
standard
210
0
220
0
230
1
 50
25.18906484946196
 73
    2
 44
1
  0
SOLID
  5
CA
100
AcDbEntity
  8
my_dimensions
  6
ByBlock
 62
    0
370
   -2
100
AcDbTrace
 10
-50.14176846570535
 20
-31.21965972475821
 30
0
 11
-52.22686571511426
 21
-32.660375649847
 31
0
 12
-52.58121270544324
 22
-31.90697676769161
 32
0
 13
-52.58121270544324
 23
-31.90697676769161
 33
0
  0
SOLID
  5
CB
100
AcDbEntity
  8
my_dimensions
  6
ByBlock
 62
    0
370
   -2
100
AcDbTrace
 10
-47.42704357221728
 20
-29.94283994394489
 30
0
 11
-45.34194632280838
 21
-28.50212401885609
 31
0
 12
-44.9875993324794
 22
-29.25552290101149
 32
0
 13
-44.9875993324794
 23
-29.25552290101149
 33
0
  0
ENDBLK
  5
72
330
70
100
AcDbEntity
  8
0
100
AcDbBlockEnd
  0
BLOCK
  5
74
330
73
100
AcDbEntity
  8
0
100
AcDbBlockBegin
  2
*D15
 70
    1
 10
0
 20
0
  3
*D15
  1

  0
LINE
  5
CC
100
AcDbEntity
  8
dimensions
  6
CONTINUOUS
 62
    7
370
    0
100
AcDbLine
 10
-51.20000000000002
 20
-170.5865986938701
 11
-76.25994221660778
 21
-170.5865986938701
  0
SOLID
  5
CD
100
AcDbEntity
  8
dimensions
  6
CONTINUOUS
 62
    7
370
    0
100
AcDbTrace
 10
-51.20000000000002
 20
-170.5865986938701
 30
0
 11
-53.70000000000002
 21
-171.0028833516429
 31
0
 12
-53.70000000000002
 22
-170.1703140360972
 32
0
 13
-53.70000000000002
 23
-170.1703140360972
 33
0
  0
ENDBLK
  5
75
330
73
100
AcDbEntity
  8
0
100
AcDbBlockEnd
  0
BLOCK
  5
77
330
76
100
AcDbEntity
  8
0
100
AcDbBlockBegin
  2
*D5
 70
    1
 10
0
 20
0
  3
*D5
  1

  0
LINE
  5
CE
100
AcDbEntity
  8
my_dimensions
  6
ByBlock
 62
    0
370
   -2
100
AcDbLine
 10
-67.50000000000001
 20
325.3819870689512
 11
-67.50000000000004
 21
332.1069362064898
  0
LINE
  5
CF
100
AcDbEntity
  8
my_dimensions
  6
ByBlock
 62
    0
370
   -2
100
AcDbLine
 10
67.50000000000011
 20
325.3819870689512
 11
67.50000000000009
 21
332.1069362064898
  0
LINE
  5
D0
100
AcDbEntity
  8
my_dimensions
  6
ByBlock
 62
    0
370
   -2
100
AcDbLine
 10
-67.50000000000004
 20
330.8569362064898
 11
67.50000000000009
 21
330.8569362064898
  0
MTEXT
  5
D1
100
AcDbEntity
  8
my_dimensions
  6
CONTINUOUS
 62
    0
370
   -2
100
AcDbMText
 10
2.145405483770708e-14
 20
333.1069362064898
 30
0
 40
2.5
 41
4.444444444444756
 71
    5
 72
    1
  1
135
  7
standard
210
0
220
0
230
1
 50
0
 73
    2
 44
1
  0
SOLID
  5
D2
100
AcDbEntity
  8
my_dimensions
  6
ByBlock
 62
    0
370
   -2
100
AcDbTrace
 10
-67.50000000000004
 20
330.8569362064898
 30
0
 11
-65.00000000000004
 21
331.2732208642627
 31
0
 12
-65.00000000000004
 22
330.440651548717
 32
0
 13
-65.00000000000004
 23
330.440651548717
 33
0
  0
SOLID
  5
D3
100
AcDbEntity
  8
my_dimensions
  6
ByBlock
 62
    0
370
   -2
100
AcDbTrace
 10
67.50000000000009
 20
330.8569362064898
 30
0
 11
65.00000000000009
 21
330.440651548717
 31
0
 12
65.00000000000009
 22
331.2732208642627
 32
0
 13
65.00000000000009
 23
331.2732208642627
 33
0
  0
ENDBLK
  5
78
330
76
100
AcDbEntity
  8
0
100
AcDbBlockEnd
  0
BLOCK
  5
7A
330
79
100
AcDbEntity
  8
0
100
AcDbBlockBegin
  2
*D16
 70
    1
 10
0
 20
0
  3
*D16
  1

  0
LINE
  5
D4
100
AcDbEntity
  8
dimensions
  6
CONTINUOUS
 62
    7
370
    0
100
AcDbLine
 10
54.14999999999984
 20
357.5069318697603
 11
70.05026291990707
 21
357.5069318697603
  0
SOLID
  5
D5
100
AcDbEntity
  8
dimensions
  6
CONTINUOUS
 62
    7
370
    0
100
AcDbTrace
 10
54.14999999999984
 20
357.5069318697603
 30
0
 11
56.64999999999984
 21
357.9232165275332
 31
0
 12
56.64999999999984
 22
357.0906472119875
 32
0
 13
56.64999999999984
 23
357.0906472119875
 33
0
  0
ENDBLK
  5
7B
330
79
100
AcDbEntity
  8
0
100
AcDbBlockEnd
  0
BLOCK
  5
7D
330
7C
100
AcDbEntity
  8
0
100
AcDbBlockBegin
  2
*D10
 70
    1
 10
0
 20
0
  3
*D10
  1

  0
LINE
  5
D6
100
AcDbEntity
  8
my_dimensions
  6
ByBlock
 62
    0
370
   -2
100
AcDbLine
 10
124.7930711748281
 20
305.991743996951
 11
124.7930711748281
 21
-123.0082560030488
  0
MTEXT
  5
D7
100
AcDbEntity
  8
my_dimensions
  6
CONTINUOUS
 62
    0
370
   -2
100
AcDbMText
 10
122.5430711748281
 20
91.4917439969511
 30
0
 40
2.5
 41
5.277777777777779
 71
    5
 72
    1
  1
429
  7
standard
210
0
220
0
230
1
 50
90
 73
    2
 44
1
  0
SOLID
  5
D8
100
AcDbEntity
  8
my_dimensions
  6
ByBlock
 62
    0
370
   -2
100
AcDbTrace
 10
124.7930711748281
 20
305.991743996951
 30
0
 11
125.2093558326009
 21
303.491743996951
 31
0
 12
124.3767865170553
 22
303.491743996951
 32
0
 13
124.3767865170553
 23
303.491743996951
 33
0
  0
SOLID
  5
D9
100
AcDbEntity
  8
my_dimensions
  6
ByBlock
 62
    0
370
   -2
100
AcDbTrace
 10
124.7930711748281
 20
-123.0082560030488
 30
0
 11
124.3767865170553
 21
-120.5082560030488
 31
0
 12
125.2093558326009
 22
-120.5082560030488
 32
0
 13
125.2093558326009
 23
-120.5082560030488
 33
0
  0
LINE
  5
DA
100
AcDbEntity
  8
my_dimensions
  6
ByBlock
 62
    0
370
   -2
100
AcDbLine
 10
91.49999999999997
 20
305.9917439969511
 11
126.0430711748281
 21
305.991743996951
  0
LINE
  5
DB
100
AcDbEntity
  8
my_dimensions
  6
ByBlock
 62
    0
370
   -2
100
AcDbLine
 10
92.46446891928562
 20
-123.0082560030488
 11
126.0430711748281
 21
-123.0082560030488
  0
ENDBLK
  5
7E
330
7C
100
AcDbEntity
  8
0
100
AcDbBlockEnd
  0
BLOCK
  5
80
330
7F
100
AcDbEntity
  8
0
100
AcDbBlockBegin
  2
*D3
 70
    1
 10
0
 20
0
  3
*D3
  1

  0
LINE
  5
DC
100
AcDbEntity
  8
my_dimensions
  6
ByBlock
 62
    0
370
   -2
100
AcDbLine
 10
-69.94348357448342
 20
67.49280907720092
 11
-69.94773219054549
 21
67.60549134466314
  0
LINE
  5
DD
100
AcDbEntity
  8
my_dimensions
  6
ByBlock
 62
    0
370
   -2
100
AcDbLine
 10
-59.9594438858604
 20
67.86925119485558
 11
-59.96369250192249
 21
67.9819334623178
  0
LINE
  5
DE
100
AcDbEntity
  8
my_dimensions
  6
ByBlock
 62
    0
370
   -2
100
AcDbLine
 10
-69.99482921180933
 20
68.85460377778838
 11
-60.01078952318632
 21
69.23104589544305
  0
MTEXT
  5
DF
100
AcDbEntity
  8
my_dimensions
  6
CONTINUOUS
 62
    0
370
   -2
100
AcDbMText
 10
-65.08758400577281
 20
71.29122721624117
 30
0
 40
2.5
 41
2.5
 71
    5
 72
    1
  1
10
  7
standard
210
0
220
0
230
1
 50
2.159279529038292
 73
    2
 44
1
  0
SOLID
  5
E0
100
AcDbEntity
  8
my_dimensions
  6
ByBlock
 62
    0
370
   -2
100
AcDbTrace
 10
-69.99482921180933
 20
68.85460377778838
 30
0
 11
-67.512288959462
 21
69.3647868937108
 31
0
 12
-67.48091973165567
 22
68.53280874692146
 32
0
 13
-67.48091973165567
 23
68.53280874692146
 33
0
  0
SOLID
  5
E1
100
AcDbEntity
  8
my_dimensions
  6
ByBlock
 62
    0
370
   -2
100
AcDbTrace
 10
-60.01078952318632
 20
69.23104589544305
 30
0
 11
-62.49332977553365
 21
68.72086277952063
 31
0
 12
-62.52469900333997
 22
69.55284092630997
 32
0
 13
-62.52469900333997
 23
69.55284092630997
 33
0
  0
ENDBLK
  5
81
330
7F
100
AcDbEntity
  8
0
100
AcDbBlockEnd
  0
BLOCK
  5
83
330
82
100
AcDbEntity
  8
0
100
AcDbBlockBegin
  2
*D13
 70
    1
 10
0
 20
0
  3
*D13
  1

  0
LINE
  5
E2
100
AcDbEntity
  8
dimensions
  6
ByBlock
 62
    0
370
   -2
100
AcDbLine
 10
-87.99999999999999
 20
92.09897975936867
 11
88.00000000000004
 21
92.09897975936867
  0
MTEXT
  5
E3
100
AcDbEntity
  8
dimensions
  6
CONTINUOUS
 62
    0
370
   -2
100
AcDbMText
 10
2.855948219530809e-14
 20
94.34897975936867
 30
0
 40
2.5
 41
23.54166638888915
 71
    5
 72
    1
  1
176 (Q-factor)
  7
standard
210
0
220
0
230
1
 50
0
 73
    2
 44
1
  0
SOLID
  5
E4
100
AcDbEntity
  8
dimensions
  6
ByBlock
 62
    0
370
   -2
100
AcDbTrace
 10
-87.99999999999999
 20
92.09897975936867
 30
0
 11
-85.49999999999999
 21
92.51526441714151
 31
0
 12
-85.49999999999999
 22
91.68269510159584
 32
0
 13
-85.49999999999999
 23
91.68269510159584
 33
0
  0
SOLID
  5
E5
100
AcDbEntity
  8
dimensions
  6
ByBlock
 62
    0
370
   -2
100
AcDbTrace
 10
88.00000000000004
 20
92.09897975936867
 30
0
 11
85.50000000000004
 21
91.68269510159584
 31
0
 12
85.50000000000004
 22
92.51526441714151
 32
0
 13
85.50000000000004
 23
92.51526441714151
 33
0
  0
LINE
  5
E6
100
AcDbEntity
  8
dimensions
  6
ByBlock
 62
    0
370
   -2
100
AcDbLine
 10
-88.00000000000001
 20
70.49174399695121
 11
-87.99999999999999
 21
93.34897975936867
  0
LINE
  5
E7
100
AcDbEntity
  8
dimensions
  6
ByBlock
 62
    0
370
   -2
100
AcDbLine
 10
88.00000000000004
 20
70.49174399695119
 11
88.00000000000004
 21
93.34897975936867
  0
ENDBLK
  5
84
330
82
100
AcDbEntity
  8
0
100
AcDbBlockEnd
  0
BLOCK
  5
86
330
85
100
AcDbEntity
  8
0
100
AcDbBlockBegin
  2
*D12
 70
    1
 10
0
 20
0
  3
*D12
  1

  0
LINE
  5
E8
100
AcDbEntity
  8
dimensions
  6
ByBlock
 62
    0
370
   -2
100
AcDbLine
 10
107.6633060574255
 20
305.9917439969511
 11
107.6633060574255
 21
26.49174399695122
  0
MTEXT
  5
E9
100
AcDbEntity
  8
dimensions
  6
CONTINUOUS
 62
    0
370
   -2
100
AcDbMText
 10
105.4133060574255
 20
166.2417439969512
 30
0
 40
2.5
 41
23.19444444444491
 71
    5
 72
    1
  1
279.5 = 559/2
  7
standard
210
0
220
0
230
1
 50
90
 73
    2
 44
1
  0
SOLID
  5
EA
100
AcDbEntity
  8
dimensions
  6
ByBlock
 62
    0
370
   -2
100
AcDbTrace
 10
107.6633060574255
 20
305.9917439969511
 30
0
 11
108.0795907151983
 21
303.4917439969511
 31
0
 12
107.2470213996527
 22
303.4917439969511
 32
0
 13
107.2470213996527
 23
303.4917439969511
 33
0
  0
SOLID
  5
EB
100
AcDbEntity
  8
dimensions
  6
ByBlock
 62
    0
370
   -2
100
AcDbTrace
 10
107.6633060574255
 20
26.49174399695122
 30
0
 11
107.2470213996527
 21
28.99174399695122
 31
0
 12
108.0795907151983
 22
28.99174399695122
 32
0
 13
108.0795907151983
 23
28.99174399695122
 33
0
  0
LINE
  5
EC
100
AcDbEntity
  8
dimensions
  6
ByBlock
 62
    0
370
   -2
100
AcDbLine
 10
91.49999999999997
 20
305.9917439969511
 11
108.9133060574255
 21
305.9917439969511
  0
LINE
  5
ED
100
AcDbEntity
  8
dimensions
  6
ByBlock
 62
    0
370
   -2
100
AcDbLine
 10
18.99999999999999
 20
26.49174399695122
 11
108.9133060574255
 21
26.49174399695122
  0
ENDBLK
  5
87
330
85
100
AcDbEntity
  8
0
100
AcDbBlockEnd
  0
BLOCK
  5
89
330
88
100
AcDbEntity
  8
0
100
AcDbBlockBegin
  2
*D4
 70
    1
 10
0
 20
0
  3
*D4
  1

  0
LINE
  5
EE
100
AcDbEntity
  8
my_dimensions
  6
ByBlock
 62
    0
370
   -2
100
AcDbLine
 10
31.75000000000002
 20
-1.4210854715202e-14
 11
-31.75000000000004
 21
0
  0
MTEXT
  5
EF
100
AcDbEntity
  8
my_dimensions
  6
CONTINUOUS
 62
    0
370
   -2
100
AcDbMText
 10
-8.744011432097175e-15
 20
2.249999999999993
 30
0
 40
2.5
 41
16.45833333333396
 71
    5
 72
    1
  1
63.5 [2.5"]
  7
standard
210
0
220
0
230
1
 50
0
 73
    2
 44
1
  0
SOLID
  5
F0
100
AcDbEntity
  8
my_dimensions
  6
ByBlock
 62
    0
370
   -2
100
AcDbTrace
 10
31.75000000000002
 20
-1.4210854715202e-14
 30
0
 11
29.25000000000002
 21
-0.4162846577728546
 31
0
 12
29.25000000000002
 22
0.4162846577728262
 32
0
 13
29.25000000000002
 23
0.4162846577728262
 33
0
  0
SOLID
  5
F1
100
AcDbEntity
  8
my_dimensions
  6
ByBlock
 62
    0
370
   -2
100
AcDbTrace
 10
-31.75000000000004
 20
0
 30
0
 11
-29.25000000000004
 21
0.4162846577728402
 31
0
 12
-29.25000000000004
 22
-0.4162846577728408
 32
0
 13
-29.25000000000004
 23
-0.4162846577728408
 33
0
  0
ENDBLK
  5
8A
330
88
100
AcDbEntity
  8
0
100
AcDbBlockEnd
  0
BLOCK
  5
8C
330
8B
100
AcDbEntity
  8
0
100
AcDbBlockBegin
  2
*D11
 70
    1
 10
0
 20
0
  3
*D11
  1

  0
LINE
  5
F2
100
AcDbEntity
  8
my_dimensions
  6
ByBlock
 62
    0
370
   -2
100
AcDbLine
 10
67.50000000000011
 20
339.7174486269886
 11
53.24999999999984
 21
339.7174486269886
  0
MTEXT
  5
F3
100
AcDbEntity
  8
my_dimensions
  6
CONTINUOUS
 62
    0
370
   -2
100
AcDbMText
 10
60.37499999999997
 20
341.9674486269886
 30
0
 40
2.5
 41
5.555555555555712
 71
    5
 72
    1
  1
14.3
  7
standard
210
0
220
0
230
1
 50
0
 73
    2
 44
1
  0
SOLID
  5
F4
100
AcDbEntity
  8
my_dimensions
  6
ByBlock
 62
    0
370
   -2
100
AcDbTrace
 10
67.50000000000011
 20
339.7174486269886
 30
0
 11
65.00000000000011
 21
339.3011639692157
 31
0
 12
65.00000000000011
 22
340.1337332847614
 32
0
 13
65.00000000000011
 23
340.1337332847614
 33
0
  0
SOLID
  5
F5
100
AcDbEntity
  8
my_dimensions
  6
ByBlock
 62
    0
370
   -2
100
AcDbTrace
 10
53.24999999999984
 20
339.7174486269886
 30
0
 11
55.74999999999984
 21
340.1337332847614
 31
0
 12
55.74999999999984
 22
339.3011639692157
 32
0
 13
55.74999999999984
 23
339.3011639692157
 33
0
  0
LINE
  5
F6
100
AcDbEntity
  8
my_dimensions
  6
ByBlock
 62
    0
370
   -2
100
AcDbLine
 10
67.50000000000011
 20
325.3819870689512
 11
67.50000000000011
 21
340.9674486269886
  0
LINE
  5
F7
100
AcDbEntity
  8
my_dimensions
  6
ByBlock
 62
    0
370
   -2
100
AcDbLine
 10
53.24999999999984
 20
337.7478258008327
 11
53.24999999999984
 21
340.9674486269886
  0
ENDBLK
  5
8D
330
8B
100
AcDbEntity
  8
0
100
AcDbBlockEnd
  0
BLOCK
  5
8F
330
8E
100
AcDbEntity
  8
0
100
AcDbBlockBegin
  2
*D18
 70
    1
 10
0
 20
0
  3
*D18
  1

  0
LINE
  5
F8
100
AcDbEntity
  8
dimensions
  6
ByBlock
 62
    0
370
   -2
100
AcDbLine
 10
-46.00000000000001
 20
-97.35666975441801
 11
-38.00000000000001
 21
-97.35666975441801
  0
MTEXT
  5
F9
100
AcDbEntity
  8
dimensions
  6
CONTINUOUS
 62
    0
370
   -2
100
AcDbMText
 10
-42.00000000000001
 20
-95.10666975441801
 30
0
 40
2.5
 41
1.111111111111111
 71
    5
 72
    1
  1
8
  7
standard
210
0
220
0
230
1
 50
0
 73
    2
 44
1
  0
SOLID
  5
FA
100
AcDbEntity
  8
dimensions
  6
ByBlock
 62
    0
370
   -2
100
AcDbTrace
 10
-46.00000000000001
 20
-97.35666975441801
 30
0
 11
-43.50000000000001
 21
-96.94038509664517
 31
0
 12
-43.50000000000001
 22
-97.77295441219084
 32
0
 13
-43.50000000000001
 23
-97.77295441219084
 33
0
  0
SOLID
  5
FB
100
AcDbEntity
  8
dimensions
  6
ByBlock
 62
    0
370
   -2
100
AcDbTrace
 10
-38.00000000000001
 20
-97.35666975441801
 30
0
 11
-40.50000000000001
 21
-97.77295441219084
 31
0
 12
-40.50000000000001
 22
-96.94038509664517
 32
0
 13
-40.50000000000001
 23
-96.94038509664517
 33
0
  0
LINE
  5
FC
100
AcDbEntity
  8
dimensions
  6
ByBlock
 62
    0
370
   -2
100
AcDbLine
 10
-46.00000000000001
 20
-99.28325600304881
 11
-46.00000000000001
 21
-96.10666975441801
  0
LINE
  5
FD
100
AcDbEntity
  8
dimensions
  6
ByBlock
 62
    0
370
   -2
100
AcDbLine
 10
-38.00000000000001
 20
-99.28325600304881
 11
-38.00000000000001
 21
-96.10666975441801
  0
ENDBLK
  5
90
330
8E
100
AcDbEntity
  8
0
100
AcDbBlockEnd
  0
BLOCK
  5
92
330
91
100
AcDbEntity
  8
0
100
AcDbBlockBegin
  2
view_fixed
 70
    0
 10
0
 20
0
  3
view_fixed
  1

  0
LWPOLYLINE
  5
FE
100
AcDbEntity
  8
s001-#def-active-grp
  6
CONTINUOUS
 62
    7
370
  158
100
AcDbPolyline
 90
    5
 70
    0
 43
0
 10
-83.11288910397853
 20
323.8819870689511
 10
-83.11288910397853
 20
265.9917439969511
 10
-67.5
 20
265.9917439969511
 10
-67.5
 20
323.8819870689511
 10
-83.11288910397853
 20
323.8819870689511
  0
LWPOLYLINE
  5
FF
100
AcDbEntity
  8
s001-#def-active-grp
  6
CONTINUOUS
 62
    7
370
  158
100
AcDbPolyline
 90
    5
 70
    0
 43
0
 10
-55.94783772583811
 20
1.651871600975028
 10
-59.19062913228241
 20
55.78090916493561
 10
-43.71836948729512
 20
56.70782959199387
 10
-40.47557808085082
 20
2.578792028033206
 10
-55.94783772583811
 20
1.651871600975028
  0
LWPOLYLINE
  5
100
100
AcDbEntity
  8
s001-#def-active-grp
  6
CONTINUOUS
 62
    7
370
  158
100
AcDbPolyline
 90
    4
 70
    0
 43
0
 10
-83.11288910397853
 20
265.9917439969511
 10
-63.60429631083045
 20
104.6445346114081
 10
-48.21636916935228
 20
106.5050985819718
 10
-67.5
 20
265.9917439969511
  0
LINE
  5
101
100
AcDbEntity
  8
s001-#def-active-grp
  6
CONTINUOUS
 62
    7
370
  158
100
AcDbLine
 10
-67.5
 20
305.9917439969511
 11
67.5
 21
305.9917439969511
  0
ARC
  5
102
100
AcDbEntity
  8
s001-#def-active-grp
  6
CONTINUOUS
 62
    7
370
  158
100
AcDbCircle
 10
-628.9918578620552
 20
28.9440587533885
 40
585.9316369385929
100
AcDbArc
 50
2.715918825256169
 51
7.606692293413719
  0
ARC
  5
103
100
AcDbEntity
  8
s001-#def-active-grp
  6
CONTINUOUS
 62
    7
370
  158
100
AcDbCircle
 10
-868.954382507273
 20
7.269148031335767
 40
811.2155861719102
100
AcDbArc
 50
3.428408642360093
 51
6.894202476309798
  0
ENDBLK
  5
93
330
91
100
AcDbEntity
  8
0
100
AcDbBlockEnd
  0
ENDSEC
  0
SECTION
  2
ENTITIES
  0
LINE
  5
104
100
AcDbEntity
  8
construction
  6
ByLayer
 62
  256
370
   -1
100
AcDbLine
 10
-38.42461913170655
 20
-10.17895596725378
 11
-30.69136245111153
 21
-8.130361055605221
  0
ARC
  5
105
100
AcDbEntity
  8
0
  6
ByLayer
 62
  256
370
   -1
100
AcDbCircle
 10
-8.881784197001252e-15
 20
1.4210854715202e-14
 40
31.75
100
AcDbArc
 50
0
 51
90
  0
ARC
  5
106
100
AcDbEntity
  8
0
  6
ByLayer
 62
  256
370
   -1
100
AcDbCircle
 10
-8.881784197001252e-15
 20
0
 40
31.75000000000003
100
AcDbArc
 50
90
 51
180
  0
ARC
  5
107
100
AcDbEntity
  8
0
  6
ByLayer
 62
  256
370
   -1
100
AcDbCircle
 10
-3.019806626980426e-14
 20
1.4210854715202e-14
 40
31.74999999999999
100
AcDbArc
 50
180
 51
-89.99999999999999
  0
ARC
  5
108
100
AcDbEntity
  8
0
  6
ByLayer
 62
  256
370
   -1
100
AcDbCircle
 10
0
 20
0
 40
31.74999999999999
100
AcDbArc
 50
-90.00000000000003
 51
0
  0
ARC
  5
109
100
AcDbEntity
  8
0
  6
ByLayer
 62
  256
370
   -1
100
AcDbCircle
 10
-103
 20
-64.50896465784706
 40
80.50000000000003
100
AcDbArc
 50
0
 51
25.1890648494612
  0
ARC
  5
10A
100
AcDbEntity
  8
0
  6
ByLayer
 62
  256
370
   -1
100
AcDbCircle
 10
-103
 20
-64.50896465784706
 40
64.99999999999999
100
AcDbArc
 50
0
 51
25.1890648494612
  0
ARC
  5
10B
100
AcDbEntity
  8
0
  6
ByLayer
 62
  256
370
   -1
100
AcDbCircle
 10
24.40809139812782
 20
6.465877689890718
 40
64.99999999999977
100
AcDbArc
 50
-176.57159135764
 51
-154.8109351505388
  0
ARC
  5
10C
100
AcDbEntity
  8
0
  6
ByLayer
 62
  256
370
   -1
100
AcDbCircle
 10
24.40809139812801
 20
6.465877689890789
 40
80.49999999999996
100
AcDbArc
 50
-176.57159135764
 51
-154.8109351505388
  0
LINE
  5
10D
100
AcDbEntity
  8
0
  6
ByLayer
 62
  256
370
   -1
100
AcDbLine
 10
-51.20000000000002
 20
-34.07247600304878
 11
-48.8
 21
-34.07247600304878
  0
LINE
  5
10E
100
AcDbEntity
  8
construction
  6
ByLayer
 62
  256
370
   -1
100
AcDbLine
 10
-48.8
 20
-34.07247600304878
 11
-46.08527510651192
 21
-32.79565622223546
  0
LINE
  5
10F
100
AcDbEntity
  8
0
  6
ByLayer
 62
  256
370
   -1
100
AcDbLine
 10
-22.50000000000001
 20
-100.7832560030488
 11
-22.50000000000001
 21
-64.50896465784706
  0
LINE
  5
110
100
AcDbEntity
  8
0
  6
ByLayer
 62
  256
370
   -1
100
AcDbLine
 10
-22.50000000000001
 20
-64.50896465784706
 11
-38.00000000000001
 21
-64.50896465784706
  0
LINE
  5
111
100
AcDbEntity
  8
0
  6
ByLayer
 62
  256
370
   -1
100
AcDbLine
 10
-38.00000000000001
 20
-64.50896465784706
 11
-38.00000000000001
 21
-100.7832560030488
  0
LINE
  5
112
100
AcDbEntity
  8
0
  6
ByLayer
 62
  256
370
   -1
100
AcDbLine
 10
45.99999999999999
 20
-100.7832560030488
 11
-46.00000000000001
 21
-100.7832560030488
  0
LINE
  5
113
100
AcDbEntity
  8
0
  6
ByLayer
 62
  256
370
   -1
100
AcDbLine
 10
-46.00000000000001
 20
-100.7832560030488
 11
-46.00000000000001
 21
-145.2332560030488
  0
LINE
  5
114
100
AcDbEntity
  8
0
  6
ByLayer
 62
  256
370
   -1
100
AcDbLine
 10
-46.00000000000001
 20
-145.2332560030488
 11
45.99999999999999
 21
-145.2332560030488
  0
LINE
  5
115
100
AcDbEntity
  8
0
  6
ByLayer
 62
  256
370
   -1
100
AcDbLine
 10
45.99999999999999
 20
-145.2332560030488
 11
45.99999999999999
 21
-100.7832560030488
  0
LINE
  5
116
100
AcDbEntity
  8
0
  6
ByLayer
 62
  256
370
   -1
100
AcDbLine
 10
17.49999999999999
 20
26.49174399695122
 11
17.49999999999999
 21
61.49174399695121
  0
LINE
  5
117
100
AcDbEntity
  8
0
  6
ByLayer
 62
  256
370
   -1
100
AcDbLine
 10
17.49999999999999
 20
61.49174399695121
 11
-17.50000000000001
 21
61.49174399695121
  0
LINE
  5
118
100
AcDbEntity
  8
0
  6
ByLayer
 62
  256
370
   -1
100
AcDbLine
 10
-17.50000000000001
 20
61.49174399695121
 11
-17.50000000000001
 21
26.49174399695122
  0
LINE
  5
119
100
AcDbEntity
  8
0
  6
ByLayer
 62
  256
370
   -1
100
AcDbLine
 10
-46.00000000000001
 20
-100.7832560030488
 11
-46.00000000000001
 21
-93.00825600304876
  0
LINE
  5
11A
100
AcDbEntity
  8
0
  6
ByLayer
 62
  256
370
   -1
100
AcDbLine
 10
-46.00000000000001
 20
-93.00825600304876
 11
-60.99784310104737
 21
-41.03576064304877
  0
LINE
  5
11B
100
AcDbEntity
  8
0
  6
ByLayer
 62
  256
370
   -1
100
AcDbLine
 10
-60.99784310104737
 20
-41.03576064304877
 11
-70.00000000000001
 21
43.99174399695122
  0
LINE
  5
11C
100
AcDbEntity
  8
0
  6
ByLayer
 62
  256
370
   -1
100
AcDbLine
 10
-70.00000000000001
 20
43.99174399695122
 11
-70.00000000000001
 21
68.99174399695121
  0
LINE
  5
11D
100
AcDbEntity
  8
0
  6
ByLayer
 62
  256
370
   -1
100
AcDbLine
 10
-70.00000000000001
 20
68.99174399695121
 11
-88.00000000000001
 21
68.99174399695121
  0
LINE
  5
11E
100
AcDbEntity
  8
0
  6
ByLayer
 62
  256
370
   -1
100
AcDbLine
 10
-88.00000000000001
 20
68.99174399695121
 11
-88.00000000000001
 21
43.99174399695122
  0
LINE
  5
11F
100
AcDbEntity
  8
0
  6
ByLayer
 62
  256
370
   -1
100
AcDbLine
 10
-88.00000000000001
 20
43.99174399695122
 11
-85.05160310104731
 21
-41.03576064304877
  0
LINE
  5
120
100
AcDbEntity
  8
0
  6
ByLayer
 62
  256
370
   -1
100
AcDbLine
 10
-85.05160310104731
 20
-41.03576064304877
 11
-74.00000000000001
 21
-93.00825600304876
  0
LINE
  5
121
100
AcDbEntity
  8
0
  6
ByLayer
 62
  256
370
   -1
100
AcDbLine
 10
-74.00000000000001
 20
-93.00825600304876
 11
-74.00000000000001
 21
-153.0082560030488
  0
LINE
  5
122
100
AcDbEntity
  8
0
  6
ByLayer
 62
  256
370
   -1
100
AcDbLine
 10
-74.00000000000001
 20
-153.0082560030488
 11
-46.00000000000001
 21
-153.0082560030488
  0
LINE
  5
123
100
AcDbEntity
  8
0
  6
ByLayer
 62
  256
370
   -1
100
AcDbLine
 10
-46.00000000000001
 20
-153.0082560030488
 11
-46.00000000000001
 21
-145.2332560030488
  0
LINE
  5
124
100
AcDbEntity
  8
0
  6
ByLayer
 62
  256
370
   -1
100
AcDbLine
 10
-44.18096064109141
 20
-36.84453607355927
 11
-48.43702657713568
 21
-27.79545309526567
  0
LINE
  5
125
100
AcDbEntity
  8
0
  6
ByLayer
 62
  256
370
   -1
100
AcDbLine
 10
-34.41094796078056
 20
-21.19855089439697
 11
-30.15488202473628
 21
-30.24763387269067
  0
LINE
  5
126
100
AcDbEntity
  8
0
  6
ByLayer
 62
  256
370
   -1
100
AcDbLine
 10
-30.15488202473628
 20
-30.24763387269067
 11
-44.18096064109141
 21
-36.84453607355927
  0
LINE
  5
127
100
AcDbEntity
  8
0
  6
ByLayer
 62
  256
370
   -1
100
AcDbLine
 10
-40.47557808085089
 20
2.578792028033561
 11
-55.94783772583818
 21
1.651871600975298
  0
ARC
  5
128
100
AcDbEntity
  8
0
  6
ByLayer
 62
  256
370
   -1
100
AcDbCircle
 10
103
 20
-64.50896465784706
 40
80.50000000000003
100
AcDbArc
 50
154.8109351505388
 51
180
  0
ARC
  5
129
100
AcDbEntity
  8
0
  6
ByLayer
 62
  256
370
   -1
100
AcDbCircle
 10
103
 20
-64.50896465784706
 40
64.99999999999999
100
AcDbArc
 50
154.8109351505388
 51
180
  0
ARC
  5
12A
100
AcDbEntity
  8
0
  6
ByLayer
 62
  256
370
   -1
100
AcDbCircle
 10
-24.40809139812782
 20
6.465877689890718
 40
64.99999999999977
100
AcDbArc
 50
334.8109351505388
 51
356.5715913576399
  0
ARC
  5
12B
100
AcDbEntity
  8
0
  6
ByLayer
 62
  256
370
   -1
100
AcDbCircle
 10
-24.40809139812801
 20
6.465877689890789
 40
80.49999999999996
100
AcDbArc
 50
334.8109351505388
 51
356.5715913576399
  0
LINE
  5
12C
100
AcDbEntity
  8
0
  6
ByLayer
 62
  256
370
   -1
100
AcDbLine
 10
22.49999999999999
 20
-100.7832560030488
 11
22.49999999999999
 21
-64.50896465784706
  0
LINE
  5
12D
100
AcDbEntity
  8
0
  6
ByLayer
 62
  256
370
   -1
100
AcDbLine
 10
22.49999999999999
 20
-64.50896465784706
 11
37.99999999999999
 21
-64.50896465784706
  0
LINE
  5
12E
100
AcDbEntity
  8
0
  6
ByLayer
 62
  256
370
   -1
100
AcDbLine
 10
37.99999999999999
 20
-64.50896465784706
 11
37.99999999999998
 21
-100.7832560030488
  0
LINE
  5
12F
100
AcDbEntity
  8
0
  6
ByLayer
 62
  256
370
   -1
100
AcDbLine
 10
44.1809606410914
 20
-36.84453607355927
 11
48.43702657713568
 21
-27.79545309526567
  0
LINE
  5
130
100
AcDbEntity
  8
0
  6
ByLayer
 62
  256
370
   -1
100
AcDbLine
 10
48.43702657713568
 20
-27.79545309526567
 11
34.41094796078056
 21
-21.19855089439697
  0
LINE
  5
131
100
AcDbEntity
  8
0
  6
ByLayer
 62
  256
370
   -1
100
AcDbLine
 10
34.41094796078056
 20
-21.19855089439697
 11
30.15488202473627
 21
-30.24763387269067
  0
LINE
  5
132
100
AcDbEntity
  8
0
  6
ByLayer
 62
  256
370
   -1
100
AcDbLine
 10
30.15488202473627
 20
-30.24763387269067
 11
44.1809606410914
 21
-36.84453607355927
  0
LINE
  5
133
100
AcDbEntity
  8
0
  6
ByLayer
 62
  256
370
   -1
100
AcDbLine
 10
40.4755780808509
 20
2.578792028033561
 11
55.94783772583818
 21
1.651871600975269
  0
LINE
  5
134
100
AcDbEntity
  8
0
  6
ByLayer
 62
  256
370
   -1
100
AcDbLine
 10
45.99999999999999
 20
-100.7832560030488
 11
45.99999999999999
 21
-93.00825600304876
  0
LINE
  5
135
100
AcDbEntity
  8
0
  6
ByLayer
 62
  256
370
   -1
100
AcDbLine
 10
45.99999999999999
 20
-93.00825600304876
 11
60.99784310104735
 21
-41.03576064304877
  0
LINE
  5
136
100
AcDbEntity
  8
0
  6
ByLayer
 62
  256
370
   -1
100
AcDbLine
 10
60.99784310104735
 20
-41.03576064304877
 11
70.00000000000003
 21
43.99174399695119
  0
LINE
  5
137
100
AcDbEntity
  8
0
  6
ByLayer
 62
  256
370
   -1
100
AcDbLine
 10
70.00000000000003
 20
43.99174399695119
 11
70.00000000000004
 21
68.99174399695119
  0
LINE
  5
138
100
AcDbEntity
  8
0
  6
ByLayer
 62
  256
370
   -1
100
AcDbLine
 10
70.00000000000004
 20
68.99174399695119
 11
88.00000000000004
 21
68.99174399695119
  0
LINE
  5
139
100
AcDbEntity
  8
0
  6
ByLayer
 62
  256
370
   -1
100
AcDbLine
 10
88.00000000000004
 20
68.99174399695119
 11
88.00000000000003
 21
43.99174399695118
  0
LINE
  5
13A
100
AcDbEntity
  8
0
  6
ByLayer
 62
  256
370
   -1
100
AcDbLine
 10
88.00000000000003
 20
43.99174399695118
 11
85.05160310104729
 21
-41.03576064304877
  0
LINE
  5
13B
100
AcDbEntity
  8
0
  6
ByLayer
 62
  256
370
   -1
100
AcDbLine
 10
85.05160310104729
 20
-41.03576064304877
 11
73.99999999999999
 21
-93.00825600304876
  0
LINE
  5
13C
100
AcDbEntity
  8
0
  6
ByLayer
 62
  256
370
   -1
100
AcDbLine
 10
73.99999999999999
 20
-93.00825600304876
 11
73.99999999999997
 21
-153.0082560030488
  0
LINE
  5
13D
100
AcDbEntity
  8
0
  6
ByLayer
 62
  256
370
   -1
100
AcDbLine
 10
73.99999999999997
 20
-153.0082560030488
 11
45.99999999999997
 21
-153.0082560030487
  0
LINE
  5
13E
100
AcDbEntity
  8
0
  6
ByLayer
 62
  256
370
   -1
100
AcDbLine
 10
45.99999999999997
 20
-153.0082560030487
 11
45.99999999999997
 21
-145.2332560030488
  0
LINE
  5
13F
100
AcDbEntity
  8
0
  6
ByLayer
 62
  256
370
   -1
100
AcDbLine
 10
-51.20000000000002
 20
-34.07247600304878
 11
-51.20000000000002
 21
-211.9440360030488
  0
LINE
  5
140
100
AcDbEntity
  8
0
  6
ByLayer
 62
  256
370
   -1
100
AcDbLine
 10
-48.8
 20
-34.07247600304878
 11
-48.8
 21
-211.9440360030488
  0
LINE
  5
141
100
AcDbEntity
  8
0
  6
ByLayer
 62
  256
370
   -1
100
AcDbLine
 10
-48.8
 20
-211.9440360030488
 11
-51.20000000000002
 21
-211.9440360030488
  0
DIMENSION
  5
142
100
AcDbEntity
  8
my_dimensions
  6
ByLayer
 62
  256
370
   -1
100
AcDbDimension
  2
*D1
 10
-30.69831192594453
 20
-8.104127429633891
 30
0
 11
-35.1411075851432
 21
-6.953446444040818
 31
0
 70
   33
 71
    5
 72
    0
  3
Standard
 53
0
210
0
220
0
230
1
100
AcDbAlignedDimension
 13
-38.42461913170655
 23
-10.17895596725378
 33
0
 14
-30.69136245111153
 24
-8.130361055605221
 34
0
  0
LINE
  5
143
100
AcDbEntity
  8
0
  6
ByLayer
 62
  256
370
   -1
100
AcDbLine
 10
-48.43702657713563
 20
-27.79545309526567
 11
-34.41094796078052
 21
-21.19855089439697
  0
DIMENSION
  5
144
100
AcDbEntity
  8
my_dimensions
  6
ByLayer
 62
  256
370
   -1
100
AcDbDimension
  2
*D2
 10
-47.42704357221728
 20
-29.94283994394489
 30
0
 11
-49.74202085457131
 21
-28.54520616423549
 31
0
 70
   33
 71
    5
 72
    0
  3
Standard
 53
0
210
0
220
0
230
1
100
AcDbAlignedDimension
 13
-48.8
 23
-34.07247600304878
 33
0
 14
-46.08527510651192
 24
-32.79565622223546
 34
0
  0
DIMENSION
  5
145
100
AcDbEntity
  8
my_dimensions
  6
ByLayer
 62
  256
370
   -1
100
AcDbDimension
  2
*D3
 10
-60.01078952318632
 20
69.23104589544305
 30
0
 11
-65.08758400577281
 21
71.29122721624117
 31
0
 70
   33
 71
    5
 72
    0
  3
Standard
 53
0
210
0
220
0
230
1
100
AcDbAlignedDimension
 13
-70.00000000000001
 23
68.99174399695121
 33
0
 14
-60.015960311377
 24
69.36818611460588
 34
0
  0
DIMENSION
  5
146
100
AcDbEntity
  8
my_dimensions
  6
ByLayer
 62
  256
370
   -1
100
AcDbDimension
  2
*D4
 10
31.75000000000002
 20
-1.4210854715202e-14
 30
0
 11
-8.744011432097175e-15
 21
2.249999999999993
 31
0
 70
   35
  1
<> [2.5"]
 71
    5
 72
    0
  3
Standard
 53
0
210
0
220
0
230
1
100
AcDbDiametricDimension
 15
-31.75000000000004
 25
0
 35
0
 40
0
  0
DIMENSION
  5
147
100
AcDbEntity
  8
my_dimensions
  6
ByLayer
 62
  256
370
   -1
100
AcDbDimension
  2
*D5
 10
67.50000000000009
 20
330.8569362064898
 30
0
 11
2.145405483770708e-14
 21
333.1069362064898
 31
0
 70
   33
 71
    5
 72
    0
  3
Standard
 53
0
210
0
220
0
230
1
100
AcDbAlignedDimension
 13
-67.50000000000001
 23
323.8819870689512
 33
0
 14
67.50000000000011
 24
323.8819870689512
 34
0
  0
LEADER
  5
148
100
AcDbEntity
  8
my_dimensions
  6
ByLayer
 62
  256
370
   -1
100
AcDbLeader
  3
Standard
 71
    1
 72
    0
 73
    3
 74
    0
 75
    0
 40
1
 41
10
 76
2
 76
2
 10
-74.00000000000001
 20
-131.9409602057464
 30
0
 10
-101.6360607407817
 20
-131.9409602057464
 30
0
  0
LINE
  5
149
100
AcDbEntity
  8
center
  6
ByLayer
 62
  256
370
   -1
100
AcDbLine
 10
-1.953992523340276e-14
 20
-133.9727249223332
 11
0
 21
-112.0437870837638
  0
LINE
  5
14A
100
AcDbEntity
  8
center
  6
ByLayer
 62
  256
370
   -1
100
AcDbLine
 10
-90.96446891928332
 20
-123.0082560030488
 11
90.96446891928562
 21
-123.0082560030488
  0
DIMENSION
  5
14B
100
AcDbEntity
  8
my_dimensions
  6
ByLayer
 62
  256
370
   -1
100
AcDbDimension
  2
*D7
 10
-22.50000000000001
 20
-97.34517294099908
 30
0
 11
-30.25000000000001
 21
-95.09517294099908
 31
0
 70
   32
 71
    5
 72
    0
  3
Standard
 53
0
210
0
220
0
230
1
100
AcDbAlignedDimension
 13
-38.00000000000001
 23
-100.7832560030488
 33
0
 14
-22.50000000000001
 24
-100.7832560030488
 34
0
100
AcDbRotatedDimension
  0
LINE
  5
14C
100
AcDbEntity
  8
construction
  6
ByLayer
 62
  256
370
   -1
100
AcDbLine
 10
-8.881784197001252e-15
 20
0
 11
-8.881784197001252e-15
 21
-69.99999999999997
  0
DIMENSION
  5
14D
100
AcDbEntity
  8
my_dimensions
  6
ByLayer
 62
  256
370
   -1
100
AcDbDimension
  2
*D8
 10
101.5951239618041
 20
-40.42558797452637
 30
0
 11
99.34512396180411
 21
-66.26662800152434
 31
0
 70
   32
 71
    5
 72
    0
  3
Standard
 53
0
210
0
220
0
230
1
100
AcDbAlignedDimension
 13
45.99999999999999
 23
-100.7832560030488
 33
0
 14
-8.881784197001252e-15
 24
-31.74999999999987
 34
0
 50
90
100
AcDbRotatedDimension
  0
DIMENSION
  5
14E
100
AcDbEntity
  8
my_dimensions
  6
ByLayer
 62
  256
370
   -1
100
AcDbDimension
  2
*D9
 10
113.625969507624
 20
-123.0082560030488
 30
0
 11
111.375969507624
 21
-77.37912800152434
 31
0
 70
   32
 71
    5
 72
    0
  3
Standard
 53
0
210
0
220
0
230
1
100
AcDbAlignedDimension
 13
-8.881784197001252e-15
 23
-31.74999999999987
 33
0
 14
90.96446891928562
 24
-123.0082560030488
 34
0
 50
90
100
AcDbRotatedDimension
  0
ARC
  5
14F
100
AcDbEntity
  8
0
  6
ByLayer
 62
  256
370
   -1
100
AcDbCircle
 10
-628.9918578620553
 20
28.94405875338852
 40
585.9316369385929
100
AcDbArc
 50
2.715918825256157
 51
7.60669229341371
  0
ARC
  5
150
100
AcDbEntity
  8
0
  6
ByLayer
 62
  256
370
   -1
100
AcDbCircle
 10
-868.9543825072731
 20
7.269148031335789
 40
811.2155861719102
100
AcDbArc
 50
3.428408642360096
 51
6.894202476309797
  0
LINE
  5
151
100
AcDbEntity
  8
center
  6
ByLayer
 62
  256
370
   -1
100
AcDbLine
 10
-90.00000000000001
 20
305.9917439969511
 11
89.99999999999997
 21
305.9917439969511
  0
LINE
  5
152
100
AcDbEntity
  8
0
  6
ByLayer
 62
  256
370
   -1
100
AcDbLine
 10
-83.11288910397856
 20
323.8819870689512
 11
-83.11288910397856
 21
265.9917439969511
  0
LINE
  5
153
100
AcDbEntity
  8
0
  6
ByLayer
 62
  256
370
   -1
100
AcDbLine
 10
-83.11288910397856
 20
265.9917439969511
 11
-67.50000000000003
 21
265.9917439969511
  0
LINE
  5
154
100
AcDbEntity
  8
0
  6
ByLayer
 62
  256
370
   -1
100
AcDbLine
 10
-67.50000000000003
 20
265.9917439969511
 11
-67.50000000000003
 21
323.8819870689512
  0
LINE
  5
155
100
AcDbEntity
  8
0
  6
ByLayer
 62
  256
370
   -1
100
AcDbLine
 10
-67.50000000000003
 20
323.8819870689512
 11
-83.11288910397856
 21
323.8819870689512
  0
LINE
  5
156
100
AcDbEntity
  8
0
  6
ByLayer
 62
  256
370
   -1
100
AcDbLine
 10
-55.94783772583814
 20
1.651871600975042
 11
-59.19062913228244
 21
55.78090916493562
  0
LINE
  5
157
100
AcDbEntity
  8
0
  6
ByLayer
 62
  256
370
   -1
100
AcDbLine
 10
-59.19062913228244
 20
55.78090916493562
 11
-43.71836948729515
 21
56.70782959199389
  0
LINE
  5
158
100
AcDbEntity
  8
0
  6
ByLayer
 62
  256
370
   -1
100
AcDbLine
 10
-43.71836948729515
 20
56.70782959199389
 11
-40.47557808085084
 21
2.57879202803322
  0
LINE
  5
159
100
AcDbEntity
  8
0
  6
ByLayer
 62
  256
370
   -1
100
AcDbLine
 10
-40.47557808085084
 20
2.57879202803322
 11
-55.94783772583814
 21
1.651871600975042
  0
LINE
  5
15A
100
AcDbEntity
  8
0
  6
ByLayer
 62
  256
370
   -1
100
AcDbLine
 10
-83.11288910397856
 20
265.9917439969511
 11
-63.60429631083048
 21
104.6445346114081
  0
LINE
  5
15B
100
AcDbEntity
  8
0
  6
ByLayer
 62
  256
370
   -1
100
AcDbLine
 10
-63.60429631083048
 20
104.6445346114081
 11
-48.2163691693523
 21
106.5050985819718
  0
LINE
  5
15C
100
AcDbEntity
  8
0
  6
ByLayer
 62
  256
370
   -1
100
AcDbLine
 10
-48.2163691693523
 20
106.5050985819718
 11
-67.50000000000003
 21
265.9917439969511
  0
ARC
  5
15D
100
AcDbEntity
  8
0
  6
ByLayer
 62
  256
370
   -1
100
AcDbCircle
 10
628.9918578620551
 20
28.9440587533887
 40
585.9316369385929
100
AcDbArc
 50
172.3933077065863
 51
177.2840811747438
  0
ARC
  5
15E
100
AcDbEntity
  8
0
  6
ByLayer
 62
  256
370
   -1
100
AcDbCircle
 10
868.9543825072728
 20
7.269148031336044
 40
811.2155861719102
100
AcDbArc
 50
173.1057975236902
 51
176.57159135764
  0
LINE
  5
15F
100
AcDbEntity
  8
0
  6
ByLayer
 62
  256
370
   -1
100
AcDbLine
 10
83.1128891039784
 20
323.8819870689512
 11
83.11288910397843
 21
265.9917439969511
  0
LINE
  5
160
100
AcDbEntity
  8
0
  6
ByLayer
 62
  256
370
   -1
100
AcDbLine
 10
83.11288910397843
 20
265.9917439969511
 11
67.4999999999999
 21
265.9917439969511
  0
LINE
  5
161
100
AcDbEntity
  8
0
  6
ByLayer
 62
  256
370
   -1
100
AcDbLine
 10
67.4999999999999
 20
265.9917439969511
 11
67.49999999999987
 21
323.8819870689512
  0
LINE
  5
162
100
AcDbEntity
  8
0
  6
ByLayer
 62
  256
370
   -1
100
AcDbLine
 10
67.49999999999987
 20
323.8819870689512
 11
83.1128891039784
 21
323.8819870689512
  0
LINE
  5
163
100
AcDbEntity
  8
0
  6
ByLayer
 62
  256
370
   -1
100
AcDbLine
 10
55.94783772583808
 20
1.65187160097507
 11
59.19062913228237
 21
55.78090916493564
  0
LINE
  5
164
100
AcDbEntity
  8
0
  6
ByLayer
 62
  256
370
   -1
100
AcDbLine
 10
59.19062913228237
 20
55.78090916493564
 11
43.71836948729507
 21
56.7078295919939
  0
LINE
  5
165
100
AcDbEntity
  8
0
  6
ByLayer
 62
  256
370
   -1
100
AcDbLine
 10
43.71836948729507
 20
56.7078295919939
 11
40.47557808085079
 21
2.57879202803322
  0
LINE
  5
166
100
AcDbEntity
  8
0
  6
ByLayer
 62
  256
370
   -1
100
AcDbLine
 10
40.47557808085079
 20
2.57879202803322
 11
55.94783772583808
 21
1.65187160097507
  0
LINE
  5
167
100
AcDbEntity
  8
0
  6
ByLayer
 62
  256
370
   -1
100
AcDbLine
 10
83.11288910397843
 20
265.9917439969511
 11
63.60429631083039
 21
104.6445346114081
  0
LINE
  5
168
100
AcDbEntity
  8
0
  6
ByLayer
 62
  256
370
   -1
100
AcDbLine
 10
63.60429631083039
 20
104.6445346114081
 11
48.21636916935222
 21
106.5050985819718
  0
LINE
  5
169
100
AcDbEntity
  8
0
  6
ByLayer
 62
  256
370
   -1
100
AcDbLine
 10
48.21636916935222
 20
106.5050985819718
 11
67.4999999999999
 21
265.9917439969511
  0
LINE
  5
16A
100
AcDbEntity
  8
0
  6
ByLayer
 62
  256
370
   -1
100
AcDbLine
 10
-67.50000000000003
 20
311.9917439969511
 11
67.50000000000011
 21
311.9917439969511
  0
LINE
  5
16B
100
AcDbEntity
  8
0
  6
ByLayer
 62
  256
370
   -1
100
AcDbLine
 10
-67.50000000000003
 20
299.9917439969511
 11
67.50000000000011
 21
299.9917439969511
  0
DIMENSION
  5
16C
100
AcDbEntity
  8
my_dimensions
  6
ByLayer
 62
  256
370
   -1
100
AcDbDimension
  2
*D10
 10
124.7930711748281
 20
-123.0082560030488
 30
0
 11
122.5430711748281
 21
91.4917439969511
 31
0
 70
   32
 71
    5
 72
    0
  3
Standard
 53
0
210
0
220
0
230
1
100
AcDbAlignedDimension
 13
89.99999999999997
 23
305.9917439969511
 33
0
 14
90.96446891928562
 24
-123.0082560030488
 34
0
 50
90
100
AcDbRotatedDimension
  0
DIMENSION
  5
16D
100
AcDbEntity
  8
my_dimensions
  6
ByLayer
 62
  256
370
   -1
100
AcDbDimension
  2
*D11
 10
53.24999999999983
 20
339.7174486269886
 30
0
 11
60.37499999999997
 21
341.9674486269886
 31
0
 70
   32
 71
    5
 72
    0
  3
Standard
 53
0
210
0
220
0
230
1
100
AcDbAlignedDimension
 13
67.50000000000011
 23
323.8819870689512
 33
0
 14
53.24999999999984
 24
336.2478258008327
 34
0
100
AcDbRotatedDimension
  0
DIMENSION
  5
16E
100
AcDbEntity
  8
dimensions
  6
ByLayer
 62
  256
370
   -1
100
AcDbDimension
  2
*D12
 10
107.6633060574255
 20
26.49174399695121
 30
0
 11
105.4133060574255
 21
166.2417439969512
 31
0
 70
   32
  1
279.5 = 559/2
 71
    5
  3
Standard
 53
0
210
0
220
0
230
1
100
AcDbAlignedDimension
 13
89.99999999999997
 23
305.9917439969511
 33
0
 14
17.49999999999999
 24
26.49174399695122
 34
0
 50
90
100
AcDbRotatedDimension
  0
LINE
  5
16F
100
AcDbEntity
  8
center
  6
ByLayer
 62
  256
370
   -1
100
AcDbLine
 10
-94.00000000000001
 20
56.99174399695121
 11
-64.00000000000001
 21
56.99174399695121
  0
LINE
  5
170
100
AcDbEntity
  8
center
  6
ByLayer
 62
  256
370
   -1
100
AcDbLine
 10
64.00000000000003
 20
56.99174399695117
 11
94.00000000000003
 21
56.99174399695117
  0
DIMENSION
  5
171
100
AcDbEntity
  8
dimensions
  6
ByLayer
 62
  256
370
   -1
100
AcDbDimension
  2
*D13
 10
88.00000000000004
 20
92.09897975936867
 30
0
 11
2.855948219530809e-14
 21
94.34897975936867
 31
0
 70
   32
  1
<> (Q-factor)
 71
    5
 72
    0
  3
Standard
 53
0
210
0
220
0
230
1
100
AcDbAlignedDimension
 13
-88.00000000000001
 23
68.99174399695121
 33
0
 14
88.00000000000004
 24
68.99174399695119
 34
0
100
AcDbRotatedDimension
  0
DIMENSION
  5
172
100
AcDbEntity
  8
my_dimensions
  6
ByLayer
 62
  256
370
   -1
100
AcDbDimension
  2
*D14
 10
-1.953992523340276e-14
 20
-138.7699150907488
 30
0
 11
-25.00000000000001
 21
-136.5199150907488
 31
0
 70
   32
  1
<> (Chainline)
 71
    5
 72
    0
  3
Standard
 53
0
210
0
220
0
230
1
100
AcDbAlignedDimension
 13
-50.00000000000001
 23
-143.4590533985401
 33
0
 14
-1.953992523340276e-14
 24
-133.9727249223332
 34
0
100
AcDbRotatedDimension
  0
LEADER
  5
173
100
AcDbEntity
  8
dimensions
  6
ByLayer
 62
  256
370
   -1
100
AcDbLeader
  3
Standard
 71
    1
 72
    0
 73
    3
 74
    0
 75
    0
 40
1
 41
10
 76
2
 76
2
 10
-51.20000000000002
 20
-170.5865986938701
 30
0
 10
-76.25994221660778
 20
-170.5865986938701
 30
0
  0
LINE
  5
174
100
AcDbEntity
  8
0
  6
ByLayer
 62
  256
370
   -1
100
AcDbLine
 10
52.34999999999983
 20
385.9917439969511
 11
52.34999999999988
 21
225.9917439969512
  0
LINE
  5
175
100
AcDbEntity
  8
0
  6
ByLayer
 62
  256
370
   -1
100
AcDbLine
 10
54.14999999999983
 20
385.9917439969511
 11
54.14999999999988
 21
225.9917439969512
  0
LINE
  5
176
100
AcDbEntity
  8
0
  6
ByLayer
 62
  256
370
   -1
100
AcDbLine
 10
52.34999999999983
 20
385.9917439969511
 11
54.14999999999983
 21
385.9917439969511
  0
LINE
  5
177
100
AcDbEntity
  8
0
  6
ByLayer
 62
  256
370
   -1
100
AcDbLine
 10
52.34999999999988
 20
225.9917439969512
 11
54.14999999999988
 21
225.9917439969512
  0
MTEXT
  5
178
100
AcDbEntity
  8
dimensions
  6
ByLayer
 62
  256
370
   -1
100
AcDbMText
 10
-78.43478562770078
 20
-170.5865986938701
 30
0
 40
2.5
 41
22.15277777777835
 71
    6
 72
    1
  1
44t Chainring
  7
iso
210
0
220
0
230
1
 50
0
 73
    2
 44
1
  0
LEADER
  5
179
100
AcDbEntity
  8
dimensions
  6
ByLayer
 62
  256
370
   -1
100
AcDbLeader
  3
Standard
 71
    1
 72
    0
 73
    3
 74
    0
 75
    0
 40
1
 41
10
 76
2
 76
2
 10
54.14999999999984
 20
357.5069318697603
 30
0
 10
70.05026291990707
 20
357.5069318697603
 30
0
  0
MTEXT
  5
17A
100
AcDbEntity
  8
dimensions
  6
ByLayer
 62
  256
370
   -1
100
AcDbMText
 10
70.98155868747584
 20
357.6321940071221
 30
0
 40
2.5
 41
29.30555684127409
 71
    4
 72
    1
  1
160mm Disc Rotor
  7
iso
210
0
220
0
230
1
 50
0
 73
    2
 44
1
  0
DIMENSION
  5
17B
100
AcDbEntity
  8
dimensions
  6
ByLayer
 62
  256
370
   -1
100
AcDbDimension
  2
*D17
 10
61.3596237326373
 20
216.8784334026312
 30
0
 11
57.50314362376904
 21
219.7175398732504
 31
0
 70
   33
 71
    5
  3
Standard
 53
0
210
0
220
0
230
1
100
AcDbAlignedDimension
 13
54.14999999999988
 23
225.9917439969512
 33
0
 14
62.5153677411741
 24
224.76598705475
 34
0
  0
DIMENSION
  5
17C
100
AcDbEntity
  8
dimensions
  6
ByLayer
 62
  256
370
   -1
100
AcDbDimension
  2
*D18
 10
-38.00000000000001
 20
-97.35666975441801
 30
0
 11
-42.00000000000001
 21
-95.10666975441801
 31
0
 70
   32
 71
    5
  3
Standard
 53
0
210
0
220
0
230
1
100
AcDbAlignedDimension
 13
-46.00000000000001
 23
-100.7832560030488
 33
0
 14
-38.00000000000001
 24
-100.7832560030488
 34
0
100
AcDbRotatedDimension
  0
DIMENSION
  5
17D
100
AcDbEntity
  8
my_dimensions
  6
ByLayer
 62
  256
370
   -1
100
AcDbDimension
  2
*D19
 10
39.43187805730422
 20
-163.3260168415381
 30
0
 11
-1.407308195029793e-14
 21
-161.0760168415381
 31
0
 70
   32
  1
<> (BB92)
 71
    5
 72
    0
  3
Standard
 53
0
210
0
220
0
230
1
100
AcDbAlignedDimension
 13
-46.00000000000001
 23
-153.0082560030488
 33
0
 14
45.99999999999997
 24
-153.0082560030487
 34
0
100
AcDbRotatedDimension
  0
MTEXT
  5
17E
100
AcDbEntity
  8
my_dimensions
  6
ByLayer
 62
  256
370
   -1
100
AcDbMText
 10
-103.6672481295844
 20
-133.1760722671368
 30
0
 40
2.5
 41
40.97222116221241
 71
    6
 72
    1
  1
Shimano SLX Chainwheel\PFC-M7000-11-1 
  7
iso
210
0
220
0
230
1
 50
0
 73
    2
 44
1
  0
DIMENSION
  5
17F
100
AcDbEntity
  8
my_dimensions
  6
ByLayer
 62
  256
370
   -1
100
AcDbDimension
  2
*D20
 10
17.49999999999999
 20
68.70927350979107
 30
0
 11
-1.052036827149743e-14
 21
70.95927350979107
 31
0
 70
   33
 71
    5
 72
    0
  3
Standard
 53
0
210
0
220
0
230
1
100
AcDbAlignedDimension
 13
-17.50000000000001
 23
61.49174399695121
 33
0
 14
17.49999999999999
 24
61.49174399695121
 34
0
  0
LINE
  5
180
100
AcDbEntity
  8
frame
  6
ByLayer
 62
  256
370
   -1
100
AcDbLine
 10
-210
 20
-210.8920283053966
 11
210
 21
-210.8920283053966
  0
LINE
  5
181
100
AcDbEntity
  8
frame
  6
ByLayer
 62
  256
370
   -1
100
AcDbLine
 10
-210
 20
383.1079716946034
 11
210
 21
383.1079716946034
  0
LINE
  5
182
100
AcDbEntity
  8
frame
  6
ByLayer
 62
  256
370
   -1
100
AcDbLine
 10
-210
 20
383.1079716946034
 11
-210
 21
-210.8920283053966
  0
LINE
  5
183
100
AcDbEntity
  8
frame
  6
ByLayer
 62
  256
370
   -1
100
AcDbLine
 10
210
 20
-210.8920283053966
 11
210
 21
383.1079716946034
  0
MTEXT
  5
184
100
AcDbEntity
  8
dimensions
  6
ByLayer
 62
  256
370
   -1
100
AcDbMText
 10
-31.93365328771622
 20
-49.18248791027826
 30
0
 40
2.5
 41
7.500000000000156
 71
    5
 72
    1
  1
25.2%%D
  7
iso
210
0
220
0
230
1
 50
0
 73
    2
 44
1
  0
MTEXT
  5
185
100
AcDbEntity
  8
dimensions
  6
ByLayer
 62
  256
370
   -1
100
AcDbMText
 10
-46.15228723334169
 20
-11.42152562845325
 30
0
 40
2.5
 41
6.944444444444445
 71
    5
 72
    1
  1
21.8%%D
  7
iso
210
0
220
0
230
1
 50
0
 73
    2
 44
1
  0
MTEXT
  5
186
100
AcDbEntity
  8
dimensions
  6
ByLayer
 62
  256
370
   -1
100
AcDbMText
 10
-52.67887330674354
 20
81.58232591752318
 30
0
 40
2.5
 41
5.555555555555865
 71
    5
 72
    1
  1
3.5%%D
  7
iso
210
0
220
0
230
1
 50
0
 73
    2
 44
1
  0
ENDSEC
  0
SECTION
  2
OBJECTS
  0
DICTIONARY
  5
C
330
0
100
AcDbDictionary
281
    1
  3
ACAD_GROUP
350
D
  0
DICTIONARY
  5
D
330
C
100
AcDbDictionary
281
    1
  0
ENDSEC
  0
EOF
