  0
SECTION
  2
HEADER
  9
$ACADVER
  1
AC1009
  9
$INSBASE
 10
0.0
 20
0.0
 30
0.0
  9
$EXTMIN
 10
0.0
 20
0.0
 30
0.0
  9
$EXTMAX
 10
0.0
 20
0.0
 30
0.0
  0
ENDSEC
  0
SECTION
  2
TABLES
  0
TABLE
  2
VPORT
 70
0
  0
ENDTAB
  0
TABLE
  2
LTYPE
 70
1
  0
LTYPE
  2
CONTINUOUS
 70
0
  3
Solid line
 72
65
 73
0
 40
0.0
  0
ENDTAB
  0
TABLE
  2
LAYER
 70
1
  0
LAYER
  2
0
 70
64
 62
7
  6
continuous
  0
ENDTAB
  0
TABLE
  2
STYLE
 70
1
  0
STYLE
  2
STANDARD
 70
0
 40
0
 41
1.0
 50
0.0
 71
0
 42
1
 3
ARIAL.TTF
 4

  0
ENDTAB
  0
TABLE
  2
VIEW
 70
0
  0
ENDTAB
  0
ENDSEC
  0
SECTION
  2
BLOCKS
  0
BLOCK
  8
views
  2
SHAPE2DVIEW
 70
0
 10
0.0
 20
0.0
 30
0.0
  3
SHAPE2DVIEW
  0
POLYLINE
  8
views
 62
0
 70
0
 66
1
 10
0.0
 20
0.0
 30
0.0
  0
VERTEX
  8
views
 10
144.844374003
 20
-34.4607174137
 30
0.0
  0
VERTEX
  8
views
 10
146.430692096
 20
-34.8857701896
 30
0.0
  0
SEQEND
  8
views
  0
LINE
  8
views
 62
0
 10
146.430692097
 20
-34.8857701897
 30
0.0
 11
195.866338981
 21
-48.1320118495
 31
0.0
  0
POLYLINE
  8
views
 62
0
 70
0
 66
1
 10
0.0
 20
0.0
 30
0.0
  0
VERTEX
  8
views
 10
195.866338982
 20
-48.1320118498
 30
0.0
  0
VERTEX
  8
views
 10
197.970294449
 20
-48.6957648615
 30
0.0
  0
SEQEND
  8
views
  0
POLYLINE
  8
views
 62
0
 70
0
 66
1
 10
0.0
 20
0.0
 30
0.0
  0
VERTEX
  8
views
 10
197.970294449
 20
-48.6957648615
 30
0.0
  0
VERTEX
  8
views
 10
199.187070884
 20
-44.1546933213
 30
0.0
  0
VERTEX
  8
views
 10
200.436419509
 20
-39.4920607262
 30
0.0
  0
VERTEX
  8
views
 10
201.708977009
 20
-34.7428114496
 30
0.0
  0
VERTEX
  8
views
 10
202.995208932
 20
-29.9425285459
 30
0.0
  0
VERTEX
  8
views
 10
204.285479149
 20
-25.1271745428
 30
0.0
  0
SEQEND
  8
views
  0
POLYLINE
  8
views
 62
0
 70
0
 66
1
 10
0.0
 20
0.0
 30
0.0
  0
VERTEX
  8
views
 10
151.159558703
 20
-10.8921280551
 30
0.0
  0
VERTEX
  8
views
 10
153.5775
 20
-11.5400146804
 30
0.0
  0
SEQEND
  8
views
  0
LINE
  8
views
 62
0
 10
153.5775
 20
-11.5400146804
 30
0.0
 11
188.719530361
 21
-20.9562933361
 31
0.0
  0
POLYLINE
  8
views
 62
0
 70
0
 66
1
 10
0.0
 20
0.0
 30
0.0
  0
VERTEX
  8
views
 10
188.719530361
 20
-20.9562933361
 30
0.0
  0
VERTEX
  8
views
 10
189.94368425
 20
-21.2843035135
 30
0.0
  0
VERTEX
  8
views
 10
193.329633575
 20
-22.1915651706
 30
0.0
  0
VERTEX
  8
views
 10
198.400612903
 20
-23.5503295211
 30
0.0
  0
VERTEX
  8
views
 10
204.285479149
 20
-25.1271745428
 30
0.0
  0
SEQEND
  8
views
  0
POLYLINE
  8
views
 62
0
 70
0
 66
1
 10
0.0
 20
0.0
 30
0.0
  0
VERTEX
  8
views
 10
182.069185145
 20
-19.1743359492
 30
0.0
  0
VERTEX
  8
views
 10
177.72251901
 20
-18.0096495981
 30
0.0
  0
VERTEX
  8
views
 10
173.375852708
 20
-16.8449645432
 30
0.0
  0
SEQEND
  8
views
  0
POLYLINE
  8
views
 62
0
 70
0
 66
1
 10
0.0
 20
0.0
 30
0.0
  0
VERTEX
  8
views
 10
173.375852708
 20
-16.8449645432
 30
0.0
  0
VERTEX
  8
views
 10
177.722518842
 20
-18.0096508943
 30
0.0
  0
VERTEX
  8
views
 10
182.069185145
 20
-19.1743359492
 30
0.0
  0
SEQEND
  8
views
  0
POLYLINE
  8
views
 62
0
 70
0
 66
1
 10
0.0
 20
0.0
 30
0.0
  0
VERTEX
  8
views
 10
151.159558703
 20
-10.8921280551
 30
0.0
  0
VERTEX
  8
views
 10
150.157831918
 20
-14.6306231106
 30
0.0
  0
VERTEX
  8
views
 10
149.010009899
 20
-18.9143530207
 30
0.0
  0
VERTEX
  8
views
 10
147.730727628
 20
-23.6886992902
 30
0.0
  0
VERTEX
  8
views
 10
146.336270752
 20
-28.8928830614
 30
0.0
  0
VERTEX
  8
views
 10
144.844374003
 20
-34.4607174137
 30
0.0
  0
SEQEND
  8
views
  0
POLYLINE
  8
views
 62
0
 70
0
 66
1
 10
0.0
 20
0.0
 30
0.0
  0
VERTEX
  8
views
 10
153.5775
 20
-24.6880221716
 30
0.0
  0
VERTEX
  8
views
 10
153.5775
 20
-20.3053530079
 30
0.0
  0
VERTEX
  8
views
 10
153.5775
 20
-15.9226838441
 30
0.0
  0
VERTEX
  8
views
 10
153.5775
 20
-11.5400146804
 30
0.0
  0
SEQEND
  8
views
  0
POLYLINE
  8
views
 62
0
 70
0
 66
1
 10
0.0
 20
0.0
 30
0.0
  0
VERTEX
  8
views
 10
146.430692097
 20
-34.8857701897
 30
0.0
  0
VERTEX
  8
views
 10
148.605441281
 20
-30.0415630614
 30
0.0
  0
VERTEX
  8
views
 10
151.63540748
 20
-26.5754696818
 30
0.0
  0
VERTEX
  8
views
 10
153.5775
 20
-24.6880221716
 30
0.0
  0
SEQEND
  8
views
  0
POLYLINE
  8
views
 62
0
 70
0
 66
1
 10
0.0
 20
0.0
 30
0.0
  0
VERTEX
  8
views
 10
195.866338981
 20
-48.1320118495
 30
0.0
  0
VERTEX
  8
views
 10
194.475901157
 20
-43.7038229601
 30
0.0
  0
VERTEX
  8
views
 10
192.38812356
 20
-39.808771491
 30
0.0
  0
VERTEX
  8
views
 10
190.215843014
 20
-36.3466484936
 30
0.0
  0
VERTEX
  8
views
 10
188.719530361
 20
-34.1043008273
 30
0.0
  0
SEQEND
  8
views
  0
POLYLINE
  8
views
 62
0
 70
0
 66
1
 10
0.0
 20
0.0
 30
0.0
  0
VERTEX
  8
views
 10
153.5775
 20
-24.6880221716
 30
0.0
  0
VERTEX
  8
views
 10
157.970253795
 20
-25.8650570036
 30
0.0
  0
VERTEX
  8
views
 10
162.36300759
 20
-27.0420918355
 30
0.0
  0
VERTEX
  8
views
 10
166.755761386
 20
-28.2191266675
 30
0.0
  0
VERTEX
  8
views
 10
171.148515181
 20
-29.3961614995
 30
0.0
  0
VERTEX
  8
views
 10
175.541268976
 20
-30.5731963314
 30
0.0
  0
VERTEX
  8
views
 10
179.934022771
 20
-31.7502311634
 30
0.0
  0
VERTEX
  8
views
 10
184.326776566
 20
-32.9272659954
 30
0.0
  0
VERTEX
  8
views
 10
188.719530361
 20
-34.1043008273
 30
0.0
  0
SEQEND
  8
views
  0
POLYLINE
  8
views
 62
0
 70
0
 66
1
 10
0.0
 20
0.0
 30
0.0
  0
VERTEX
  8
views
 10
188.719530361
 20
-20.9562933361
 30
0.0
  0
VERTEX
  8
views
 10
188.719530361
 20
-25.3389624998
 30
0.0
  0
VERTEX
  8
views
 10
188.719530361
 20
-29.7216316636
 30
0.0
  0
VERTEX
  8
views
 10
188.719530361
 20
-34.1043008273
 30
0.0
  0
SEQEND
  8
views
  0
LINE
  8
views
 62
0
 10
182.069185145
 20
-19.1743359492
 30
0.0
 11
182.069184455
 21
-19.1743385212
 31
0.0
  0
LINE
  8
views
 62
0
 10
138.011551212
 20
-59.9611612381
 30
0.0
 11
191.137471658
 21
-74.1962087187
 31
0.0
  0
LINE
  8
views
 62
0
 10
191.137471658
 20
-74.1962087187
 30
0.0
 11
192.468163274
 21
-69.23
 31
0.0
  0
POLYLINE
  8
views
 62
0
 70
0
 66
1
 10
0.0
 20
0.0
 30
0.0
  0
VERTEX
  8
views
 10
192.468163274
 20
-69.23
 30
0.0
  0
VERTEX
  8
views
 10
193.563954143
 20
-65.1404528016
 30
0.0
  0
VERTEX
  8
views
 10
194.767533499
 20
-60.6486334943
 30
0.0
  0
VERTEX
  8
views
 10
196.069782976
 20
-55.7885722823
 30
0.0
  0
VERTEX
  8
views
 10
197.452656359
 20
-50.6276185573
 30
0.0
  0
SEQEND
  8
views
  0
POLYLINE
  8
views
 62
0
 70
0
 66
1
 10
0.0
 20
0.0
 30
0.0
  0
VERTEX
  8
views
 10
144.326735913
 20
-36.3925710766
 30
0.0
  0
VERTEX
  8
views
 10
143.168673777
 20
-40.7145178046
 30
0.0
  0
VERTEX
  8
views
 10
141.980981222
 20
-45.1470467639
 30
0.0
  0
VERTEX
  8
views
 10
140.770798246
 20
-49.6635111179
 30
0.0
  0
VERTEX
  8
views
 10
139.547211238
 20
-54.23
 30
0.0
  0
SEQEND
  8
views
  0
LINE
  8
views
 62
0
 10
139.547211238
 20
-54.23
 30
0.0
 11
138.011551212
 21
-59.9611612381
 31
0.0
  0
LINE
  8
views
 62
0
 10
153.5775
 20
-54.23
 30
0.0
 11
139.547211238
 21
-54.23
 31
0.0
  0
LINE
  8
views
 62
0
 10
192.468163274
 20
-69.23
 30
0.0
 11
188.719530361
 21
-69.23
 31
0.0
  0
LINE
  8
views
 62
0
 10
188.719530361
 20
-60.4003158097
 30
0.0
 11
188.719530361
 21
-69.23
 31
0.0
  0
LINE
  8
views
 62
0
 10
153.5775
 20
-50.984037154
 30
0.0
 11
188.719530361
 21
-60.4003158097
 31
0.0
  0
LINE
  8
views
 62
0
 10
153.5775
 20
-54.23
 30
0.0
 11
153.5775
 21
-50.984037154
 31
0.0
  0
POLYLINE
  8
views
 62
0
 70
0
 66
1
 10
0.0
 20
0.0
 30
0.0
  0
VERTEX
  8
views
 10
188.719530361
 20
-60.4003158097
 30
0.0
  0
VERTEX
  8
views
 10
190.658776733
 20
-58.5157537313
 30
0.0
  0
VERTEX
  8
views
 10
193.691394242
 20
-55.0470401988
 30
0.0
  0
VERTEX
  8
views
 10
195.86633955
 20
-50.2025662494
 30
0.0
  0
SEQEND
  8
views
  0
POLYLINE
  8
views
 62
0
 70
0
 66
1
 10
0.0
 20
0.0
 30
0.0
  0
VERTEX
  8
views
 10
197.452656359
 20
-50.6276185573
 30
0.0
  0
VERTEX
  8
views
 10
195.86633955
 20
-50.2025662495
 30
0.0
  0
SEQEND
  8
views
  0
LINE
  8
views
 62
0
 10
146.430690815
 20
-36.9563240936
 30
0.0
 11
195.86633955
 21
-50.2025662494
 31
0.0
  0
POLYLINE
  8
views
 62
0
 70
0
 66
1
 10
0.0
 20
0.0
 30
0.0
  0
VERTEX
  8
views
 10
146.430690838
 20
-36.9563240998
 30
0.0
  0
VERTEX
  8
views
 10
144.326735913
 20
-36.3925710766
 30
0.0
  0
SEQEND
  8
views
  0
POLYLINE
  8
views
 62
0
 70
0
 66
1
 10
0.0
 20
0.0
 30
0.0
  0
VERTEX
  8
views
 10
153.5775
 20
-50.984037154
 30
0.0
  0
VERTEX
  8
views
 10
152.097191789
 20
-48.7661362258
 30
0.0
  0
VERTEX
  8
views
 10
149.92557452
 20
-45.3075895015
 30
0.0
  0
VERTEX
  8
views
 10
147.837197985
 20
-41.4193088017
 30
0.0
  0
VERTEX
  8
views
 10
146.430690815
 20
-36.9563240936
 30
0.0
  0
SEQEND
  8
views
  0
LINE
  8
views
 62
0
 10
133.79
 20
-58.83
 30
0.0
 11
133.79
 21
-84.23
 31
0.0
  0
LINE
  8
views
 62
0
 10
195.99366
 20
-75.4974204633
 30
0.0
 11
133.79
 21
-58.83
 31
0.0
  0
LINE
  8
views
 62
0
 10
133.79
 20
-84.23
 30
0.0
 11
195.99366
 21
-84.23
 31
0.0
  0
LINE
  8
views
 62
0
 10
195.99366
 20
-84.23
 30
0.0
 11
195.99366
 21
-75.4974204633
 31
0.0
  0
LINE
  8
views
 62
0
 10
173.375852019
 20
-16.8449671153
 30
0.0
 11
173.375852708
 21
-16.8449645432
 31
0.0
  0
LINE
  8
views
 62
0
 10
197.970294449
 20
-48.6957633284
 30
0.0
 11
144.844374003
 21
-34.4607158478
 31
0.0
  0
LINE
  8
views
 62
0
 10
197.970294449
 20
-48.6957633284
 30
0.0
 11
204.285479149
 21
-25.127173167
 31
0.0
  0
LINE
  8
views
 62
0
 10
151.159558703
 20
-10.8921256863
 30
0.0
 11
204.285479149
 21
-25.127173167
 31
0.0
  0
LINE
  8
views
 62
0
 10
144.844374003
 20
-34.4607158478
 30
0.0
 11
151.159558703
 21
-10.8921256863
 31
0.0
  0
LINE
  8
views
 62
0
 10
144.844374003
 20
-34.4607174137
 30
0.0
 11
144.844374003
 21
-34.4607158478
 31
0.0
  0
LINE
  8
views
 62
0
 10
197.970294449
 20
-48.6957648615
 30
0.0
 11
197.970294449
 21
-48.6957633284
 31
0.0
  0
POLYLINE
  8
views
 62
0
 70
0
 66
1
 10
0.0
 20
0.0
 30
0.0
  0
VERTEX
  8
views
 10
174.063630248
 20
-42.2899927817
 30
0.0
  0
VERTEX
  8
views
 10
171.407334277
 20
-41.5782400116
 30
0.0
  0
VERTEX
  8
views
 10
168.751038203
 20
-40.8664880336
 30
0.0
  0
SEQEND
  8
views
  0
POLYLINE
  8
views
 62
0
 70
0
 66
1
 10
0.0
 20
0.0
 30
0.0
  0
VERTEX
  8
views
 10
168.751038203
 20
-40.8664880336
 30
0.0
  0
VERTEX
  8
views
 10
171.407334175
 20
-41.5782408037
 30
0.0
  0
VERTEX
  8
views
 10
174.063630248
 20
-42.2899927817
 30
0.0
  0
SEQEND
  8
views
  0
LINE
  8
views
 62
0
 10
204.285479149
 20
-25.127173167
 30
0.0
 11
204.285479149
 21
-25.1271745428
 31
0.0
  0
LINE
  8
views
 62
0
 10
151.159558703
 20
-10.8921280551
 30
0.0
 11
151.159558703
 21
-10.8921256863
 31
0.0
  0
POLYLINE
  8
views
 62
0
 70
0
 66
1
 10
0.0
 20
0.0
 30
0.0
  0
VERTEX
  8
views
 10
178.825900678
 20
-24.516957578
 30
0.0
  0
VERTEX
  8
views
 10
176.169604553
 20
-23.8052055863
 30
0.0
  0
VERTEX
  8
views
 10
173.513308633
 20
-23.0934528299
 30
0.0
  0
SEQEND
  8
views
  0
POLYLINE
  8
views
 62
0
 70
0
 66
1
 10
0.0
 20
0.0
 30
0.0
  0
VERTEX
  8
views
 10
173.513308633
 20
-23.0934528299
 30
0.0
  0
VERTEX
  8
views
 10
176.169604707
 20
-23.8052048079
 30
0.0
  0
VERTEX
  8
views
 10
178.825900678
 20
-24.516957578
 30
0.0
  0
SEQEND
  8
views
  0
LINE
  8
views
 62
0
 10
178.825900678
 20
-24.516957578
 30
0.0
 11
174.063630248
 21
-42.2899927817
 31
0.0
  0
LINE
  8
views
 62
0
 10
182.069184455
 20
-19.1743385212
 30
0.0
 11
180.516270874
 21
-24.9698909069
 31
0.0
  0
POLYLINE
  8
views
 62
0
 70
0
 66
1
 10
0.0
 20
0.0
 30
0.0
  0
VERTEX
  8
views
 10
180.516270874
 20
-24.9698909069
 30
0.0
  0
VERTEX
  8
views
 10
176.169604739
 20
-23.8052045559
 30
0.0
  0
VERTEX
  8
views
 10
171.822938437
 20
-22.640519501
 30
0.0
  0
SEQEND
  8
views
  0
POLYLINE
  8
views
 62
0
 70
0
 66
1
 10
0.0
 20
0.0
 30
0.0
  0
VERTEX
  8
views
 10
171.822938437
 20
-22.640519501
 30
0.0
  0
VERTEX
  8
views
 10
176.169604572
 20
-23.805205852
 30
0.0
  0
VERTEX
  8
views
 10
180.516270874
 20
-24.9698909069
 30
0.0
  0
SEQEND
  8
views
  0
LINE
  8
views
 62
0
 10
138.011551212
 20
-59.9611612381
 30
0.0
 11
191.137471658
 21
-74.1962087187
 31
0.0
  0
POLYLINE
  8
views
 62
0
 70
0
 66
1
 10
0.0
 20
0.0
 30
0.0
  0
VERTEX
  8
views
 10
162.5460672
 20
-66.5351649837
 30
0.0
  0
VERTEX
  8
views
 10
166.60295567
 20
-67.6222049731
 30
0.0
  0
SEQEND
  8
views
  0
POLYLINE
  8
views
 62
0
 70
0
 66
1
 10
0.0
 20
0.0
 30
0.0
  0
VERTEX
  8
views
 10
166.60295567
 20
-67.6222049731
 30
0.0
  0
VERTEX
  8
views
 10
162.5460672
 20
-66.5351649837
 30
0.0
  0
SEQEND
  8
views
  0
POLYLINE
  8
views
 62
0
 70
0
 66
1
 10
0.0
 20
0.0
 30
0.0
  0
VERTEX
  8
views
 10
145.014513453
 20
-61.8375993151
 30
0.0
  0
VERTEX
  8
views
 10
147.670809475
 20
-62.5493516891
 30
0.0
  0
VERTEX
  8
views
 10
150.327105497
 20
-63.2611040631
 30
0.0
  0
SEQEND
  8
views
  0
POLYLINE
  8
views
 62
0
 70
0
 66
1
 10
0.0
 20
0.0
 30
0.0
  0
VERTEX
  8
views
 10
150.327105497
 20
-63.2611040631
 30
0.0
  0
VERTEX
  8
views
 10
147.670809475
 20
-62.5493516891
 30
0.0
  0
VERTEX
  8
views
 10
145.014513453
 20
-61.8375993151
 30
0.0
  0
SEQEND
  8
views
  0
POLYLINE
  8
views
 62
0
 70
0
 66
1
 10
0.0
 20
0.0
 30
0.0
  0
VERTEX
  8
views
 10
178.821917373
 20
-70.8962658937
 30
0.0
  0
VERTEX
  8
views
 10
181.478213395
 20
-71.6080182677
 30
0.0
  0
VERTEX
  8
views
 10
184.134509417
 20
-72.3197706417
 30
0.0
  0
SEQEND
  8
views
  0
POLYLINE
  8
views
 62
0
 70
0
 66
1
 10
0.0
 20
0.0
 30
0.0
  0
VERTEX
  8
views
 10
184.134509417
 20
-72.3197706417
 30
0.0
  0
VERTEX
  8
views
 10
181.478213395
 20
-71.6080182677
 30
0.0
  0
VERTEX
  8
views
 10
178.821917373
 20
-70.8962658937
 30
0.0
  0
SEQEND
  8
views
  0
LINE
  8
views
 62
0
 10
191.137471658
 20
-74.1962087187
 30
0.0
 11
197.452656359
 21
-50.6276185573
 31
0.0
  0
LINE
  8
views
 62
0
 10
144.326735913
 20
-36.3925710766
 30
0.0
 11
197.452656359
 21
-50.6276185573
 31
0.0
  0
LINE
  8
views
 62
0
 10
138.011551212
 20
-59.9611612381
 30
0.0
 11
144.326735913
 21
-36.3925710766
 31
0.0
  0
POLYLINE
  8
views
 62
0
 70
0
 66
1
 10
0.0
 20
0.0
 30
0.0
  0
VERTEX
  8
views
 10
168.8612519
 20
-42.9665748222
 30
0.0
  0
VERTEX
  8
views
 10
172.918140371
 20
-44.0536148117
 30
0.0
  0
SEQEND
  8
views
  0
POLYLINE
  8
views
 62
0
 70
0
 66
1
 10
0.0
 20
0.0
 30
0.0
  0
VERTEX
  8
views
 10
172.918140371
 20
-44.0536148117
 30
0.0
  0
VERTEX
  8
views
 10
168.8612519
 20
-42.9665748222
 30
0.0
  0
SEQEND
  8
views
  0
LINE
  8
views
 62
0
 10
168.8612519
 20
-42.9665748222
 30
0.0
 11
162.5460672
 21
-66.5351649837
 31
0.0
  0
POLYLINE
  8
views
 62
0
 70
0
 66
1
 10
0.0
 20
0.0
 30
0.0
  0
VERTEX
  8
views
 10
149.776783883
 20
-44.0645641114
 30
0.0
  0
VERTEX
  8
views
 10
152.433079905
 20
-44.7763164854
 30
0.0
  0
VERTEX
  8
views
 10
155.089375927
 20
-45.4880688594
 30
0.0
  0
SEQEND
  8
views
  0
POLYLINE
  8
views
 62
0
 70
0
 66
1
 10
0.0
 20
0.0
 30
0.0
  0
VERTEX
  8
views
 10
155.089375927
 20
-45.4880688594
 30
0.0
  0
VERTEX
  8
views
 10
152.433079905
 20
-44.7763164854
 30
0.0
  0
VERTEX
  8
views
 10
149.776783883
 20
-44.0645641114
 30
0.0
  0
SEQEND
  8
views
  0
LINE
  8
views
 62
0
 10
149.776783883
 20
-44.0645641114
 30
0.0
 11
145.014513453
 21
-61.8375993151
 31
0.0
  0
POLYLINE
  8
views
 62
0
 70
0
 66
1
 10
0.0
 20
0.0
 30
0.0
  0
VERTEX
  8
views
 10
183.584187803
 20
-53.12323069
 30
0.0
  0
VERTEX
  8
views
 10
186.240483825
 20
-53.834983064
 30
0.0
  0
VERTEX
  8
views
 10
188.896779847
 20
-54.546735438
 30
0.0
  0
SEQEND
  8
views
  0
POLYLINE
  8
views
 62
0
 70
0
 66
1
 10
0.0
 20
0.0
 30
0.0
  0
VERTEX
  8
views
 10
188.896779847
 20
-54.546735438
 30
0.0
  0
VERTEX
  8
views
 10
186.240483825
 20
-53.834983064
 30
0.0
  0
VERTEX
  8
views
 10
183.584187803
 20
-53.12323069
 30
0.0
  0
SEQEND
  8
views
  0
LINE
  8
views
 62
0
 10
183.584187803
 20
-53.12323069
 30
0.0
 11
178.821917373
 21
-70.8962658937
 31
0.0
  0
POLYLINE
  8
views
 62
0
 70
0
 66
1
 10
0.0
 20
0.0
 30
0.0
  0
VERTEX
  8
views
 10
192.468163274
 20
-69.23
 30
0.0
  0
VERTEX
  8
views
 10
188.719530361
 20
-69.23
 30
0.0
  0
SEQEND
  8
views
  0
POLYLINE
  8
views
 62
0
 70
0
 66
1
 10
0.0
 20
0.0
 30
0.0
  0
VERTEX
  8
views
 10
183.446731877
 20
-46.8747424033
 30
0.0
  0
VERTEX
  8
views
 10
187.793398096
 20
-48.0394281062
 30
0.0
  0
VERTEX
  8
views
 10
192.140064314
 20
-49.2041138092
 30
0.0
  0
SEQEND
  8
views
  0
POLYLINE
  8
views
 62
0
 70
0
 66
1
 10
0.0
 20
0.0
 30
0.0
  0
VERTEX
  8
views
 10
192.140064314
 20
-49.2041138092
 30
0.0
  0
VERTEX
  8
views
 10
187.793398096
 20
-48.0394281062
 30
0.0
  0
VERTEX
  8
views
 10
183.446731877
 20
-46.8747424033
 30
0.0
  0
SEQEND
  8
views
  0
POLYLINE
  8
views
 62
0
 70
0
 66
1
 10
0.0
 20
0.0
 30
0.0
  0
VERTEX
  8
views
 10
149.639327957
 20
-37.8160758247
 30
0.0
  0
VERTEX
  8
views
 10
153.985994176
 20
-38.9807615277
 30
0.0
  0
VERTEX
  8
views
 10
158.332660394
 20
-40.1454472306
 30
0.0
  0
SEQEND
  8
views
  0
POLYLINE
  8
views
 62
0
 70
0
 66
1
 10
0.0
 20
0.0
 30
0.0
  0
VERTEX
  8
views
 10
158.332660394
 20
-40.1454472306
 30
0.0
  0
VERTEX
  8
views
 10
153.985994176
 20
-38.9807615277
 30
0.0
  0
VERTEX
  8
views
 10
149.639327957
 20
-37.8160758247
 30
0.0
  0
SEQEND
  8
views
  0
POLYLINE
  8
views
 62
0
 70
0
 66
1
 10
0.0
 20
0.0
 30
0.0
  0
VERTEX
  8
views
 10
153.5775
 20
-54.23
 30
0.0
  0
VERTEX
  8
views
 10
151.703700431
 20
-54.23
 30
0.0
  0
VERTEX
  8
views
 10
146.606676941
 20
-54.23
 30
0.0
  0
VERTEX
  8
views
 10
139.547211238
 20
-54.23
 30
0.0
  0
SEQEND
  8
views
  0
POLYLINE
  8
views
 62
0
 70
0
 66
1
 10
0.0
 20
0.0
 30
0.0
  0
VERTEX
  8
views
 10
148.086413687
 20
-43.6116307824
 30
0.0
  0
VERTEX
  8
views
 10
152.433079905
 20
-44.7763164854
 30
0.0
  0
VERTEX
  8
views
 10
156.779746123
 20
-45.9410021884
 30
0.0
  0
SEQEND
  8
views
  0
POLYLINE
  8
views
 62
0
 70
0
 66
1
 10
0.0
 20
0.0
 30
0.0
  0
VERTEX
  8
views
 10
156.779746123
 20
-45.9410021884
 30
0.0
  0
VERTEX
  8
views
 10
152.433079905
 20
-44.7763164854
 30
0.0
  0
VERTEX
  8
views
 10
148.086413687
 20
-43.6116307824
 30
0.0
  0
SEQEND
  8
views
  0
POLYLINE
  8
views
 62
0
 70
0
 66
1
 10
0.0
 20
0.0
 30
0.0
  0
VERTEX
  8
views
 10
181.893817607
 20
-52.670297361
 30
0.0
  0
VERTEX
  8
views
 10
186.240483825
 20
-53.834983064
 30
0.0
  0
VERTEX
  8
views
 10
190.587150043
 20
-54.9996687669
 30
0.0
  0
SEQEND
  8
views
  0
POLYLINE
  8
views
 62
0
 70
0
 66
1
 10
0.0
 20
0.0
 30
0.0
  0
VERTEX
  8
views
 10
190.587150043
 20
-54.9996687669
 30
0.0
  0
VERTEX
  8
views
 10
186.240483825
 20
-53.834983064
 30
0.0
  0
VERTEX
  8
views
 10
181.893817607
 20
-52.670297361
 30
0.0
  0
SEQEND
  8
views
  0
LINE
  8
views
 62
0
 10
183.446731877
 20
-46.8747424033
 30
0.0
 11
181.893817607
 21
-52.670297361
 31
0.0
  0
LINE
  8
views
 62
0
 10
149.639327957
 20
-37.8160758247
 30
0.0
 11
148.086413687
 21
-43.6116307824
 31
0.0
  0
LINE
  8
views
 62
0
 10
133.79
 20
-84.23
 30
0.0
 11
133.79
 21
-58.83
 31
0.0
  0
LINE
  8
views
 62
0
 10
133.79
 20
-58.83
 30
0.0
 11
195.99366
 21
-75.4974204633
 31
0.0
  0
LINE
  8
views
 62
0
 10
195.99366
 20
-75.4974204633
 30
0.0
 11
195.99366
 21
-84.23
 31
0.0
  0
LINE
  8
views
 62
0
 10
195.99366
 20
-84.23
 30
0.0
 11
133.79
 21
-84.23
 31
0.0
  0
POLYLINE
  8
views
 62
0
 70
0
 66
1
 10
0.0
 20
0.0
 30
0.0
  0
VERTEX
  8
views
 10
179.44976916
 20
-71.064498273
 30
0.0
  0
VERTEX
  8
views
 10
183.50665763
 20
-72.1515382624
 30
0.0
  0
SEQEND
  8
views
  0
POLYLINE
  8
views
 62
0
 70
0
 66
1
 10
0.0
 20
0.0
 30
0.0
  0
VERTEX
  8
views
 10
183.50665763
 20
-72.1515382624
 30
0.0
  0
VERTEX
  8
views
 10
179.44976916
 20
-71.064498273
 30
0.0
  0
SEQEND
  8
views
  0
POLYLINE
  8
views
 62
0
 70
0
 66
1
 10
0.0
 20
0.0
 30
0.0
  0
VERTEX
  8
views
 10
145.64236524
 20
-62.0058316944
 30
0.0
  0
VERTEX
  8
views
 10
149.69925371
 20
-63.0928716838
 30
0.0
  0
SEQEND
  8
views
  0
POLYLINE
  8
views
 62
0
 70
0
 66
1
 10
0.0
 20
0.0
 30
0.0
  0
VERTEX
  8
views
 10
149.69925371
 20
-63.0928716838
 30
0.0
  0
VERTEX
  8
views
 10
145.64236524
 20
-62.0058316944
 30
0.0
  0
SEQEND
  8
views
  0
POLYLINE
  8
views
 62
0
 70
0
 66
1
 10
0.0
 20
0.0
 30
0.0
  0
VERTEX
  8
views
 10
139.68741729
 20
-84.23
 30
0.0
  0
VERTEX
  8
views
 10
144.035577248
 20
-84.23
 30
0.0
  0
SEQEND
  8
views
  0
POLYLINE
  8
views
 62
0
 70
0
 66
1
 10
0.0
 20
0.0
 30
0.0
  0
VERTEX
  8
views
 10
144.035577248
 20
-84.23
 30
0.0
  0
VERTEX
  8
views
 10
139.68741729
 20
-84.23
 30
0.0
  0
SEQEND
  8
views
  0
POLYLINE
  8
views
 62
0
 70
0
 66
1
 10
0.0
 20
0.0
 30
0.0
  0
VERTEX
  8
views
 10
175.922083604
 20
-84.23
 30
0.0
  0
VERTEX
  8
views
 10
180.270243562
 20
-84.23
 30
0.0
  0
SEQEND
  8
views
  0
POLYLINE
  8
views
 62
0
 70
0
 66
1
 10
0.0
 20
0.0
 30
0.0
  0
VERTEX
  8
views
 10
180.270243562
 20
-84.23
 30
0.0
  0
VERTEX
  8
views
 10
175.922083604
 20
-84.23
 30
0.0
  0
SEQEND
  8
views
  0
LINE
  8
views
 62
0
 10
179.44976916
 20
-71.064498273
 30
0.0
 11
175.922083604
 21
-84.23
 31
0.0
  0
LINE
  8
views
 62
0
 10
145.64236524
 20
-62.0058316944
 30
0.0
 11
139.68741729
 21
-84.23
 31
0.0
  0
LINE
  8
views
 62
0
 10
168.751038203
 20
-40.8664880336
 30
0.0
 11
173.513308633
 21
-23.0934528299
 31
0.0
  0
LINE
  8
views
 62
0
 10
171.822938437
 20
-22.640519501
 30
0.0
 11
173.375852019
 21
-16.8449671153
 31
0.0
  0
LINE
  8
views
 62
0
 10
166.60295567
 20
-67.6222049731
 30
0.0
 11
172.918140371
 21
-44.0536148117
 31
0.0
  0
LINE
  8
views
 62
0
 10
150.327105497
 20
-63.2611040631
 30
0.0
 11
155.089375927
 21
-45.4880688594
 31
0.0
  0
LINE
  8
views
 62
0
 10
184.134509417
 20
-72.3197706417
 30
0.0
 11
188.896779847
 21
-54.546735438
 31
0.0
  0
LINE
  8
views
 62
0
 10
190.587150043
 20
-54.9996687669
 30
0.0
 11
192.140064314
 21
-49.2041138092
 31
0.0
  0
LINE
  8
views
 62
0
 10
156.779746123
 20
-45.9410021884
 30
0.0
 11
158.332660394
 21
-40.1454472306
 31
0.0
  0
LINE
  8
views
 62
0
 10
180.270243562
 20
-84.23
 30
0.0
 11
183.50665763
 21
-72.1515382624
 31
0.0
  0
LINE
  8
views
 62
0
 10
144.035577248
 20
-84.23
 30
0.0
 11
149.69925371
 21
-63.0928716838
 31
0.0
  0
ENDBLK
  0
BLOCK
  8
views
  2
SHAPE2DVIEW001
 70
0
 10
0.0
 20
0.0
 30
0.0
  3
SHAPE2DVIEW001
  0
LINE
  8
views
 62
0
 10
29.88
 20
-31.97
 30
0.0
 11
29.88
 21
-82.77
 31
0.0
  0
LINE
  8
views
 62
0
 10
29.88
 20
-31.97
 30
0.0
 11
92.08366
 21
-31.97
 31
0.0
  0
LINE
  8
views
 62
0
 10
29.88
 20
-82.77
 30
0.0
 11
92.08366
 21
-82.77
 31
0.0
  0
LINE
  8
views
 62
0
 10
92.08366
 20
-31.97
 30
0.0
 11
92.08366
 21
-33.37
 31
0.0
  0
LINE
  8
views
 62
0
 10
92.08366
 20
-44.6334633356
 30
0.0
 11
92.08366
 21
-70.1065388573
 31
0.0
  0
LINE
  8
views
 62
0
 10
92.08366
 20
-81.3700054822
 30
0.0
 11
92.08366
 21
-82.77
 31
0.0
  0
LINE
  8
views
 62
0
 10
34.1015512121
 20
-81.37
 30
0.0
 11
40.4167359126
 21
-81.37
 31
0.0
  0
LINE
  8
views
 62
0
 10
40.9343740028
 20
-81.37
 30
0.0
 11
40.4167359126
 21
-81.37
 31
0.0
  0
LINE
  8
views
 62
0
 10
34.1015512121
 20
-81.37
 30
0.0
 11
34.1015512121
 21
-33.37
 31
0.0
  0
LINE
  8
views
 62
0
 10
34.1015512121
 20
-33.37
 30
0.0
 11
40.4167359126
 21
-33.37
 31
0.0
  0
LINE
  8
views
 62
0
 10
40.4167359126
 20
-43.6581543298
 30
0.0
 11
40.4167359126
 21
-33.37
 31
0.0
  0
POLYLINE
  8
views
 62
0
 70
0
 66
1
 10
0.0
 20
0.0
 30
0.0
  0
VERTEX
  8
views
 10
40.4167359126
 20
-43.6581543298
 30
0.0
  0
VERTEX
  8
views
 10
35.6372112376
 20
-42.6018996688
 30
0.0
  0
SEQEND
  8
views
  0
LINE
  8
views
 62
0
 10
35.6372112376
 20
-72.1381003312
 30
0.0
 11
35.6372112376
 21
-42.6018996688
 31
0.0
  0
POLYLINE
  8
views
 62
0
 70
0
 66
1
 10
0.0
 20
0.0
 30
0.0
  0
VERTEX
  8
views
 10
35.6372112376
 20
-72.1381003312
 30
0.0
  0
VERTEX
  8
views
 10
40.4167359126
 20
-71.0818456702
 30
0.0
  0
SEQEND
  8
views
  0
LINE
  8
views
 62
0
 10
40.4167359126
 20
-81.37
 30
0.0
 11
40.4167359126
 21
-71.0818456702
 31
0.0
  0
LINE
  8
views
 62
0
 10
93.5426563585
 20
-70.861284973
 30
0.0
 11
93.5426563585
 21
-70.8612828035
 31
0.0
  0
POLYLINE
  8
views
 62
0
 70
0
 66
1
 10
0.0
 20
0.0
 30
0.0
  0
VERTEX
  8
views
 10
91.956339546
 20
-70.0305687121
 30
0.0
  0
VERTEX
  8
views
 10
93.5426563585
 20
-70.8612828035
 30
0.0
  0
SEQEND
  8
views
  0
POLYLINE
  8
views
 62
0
 70
0
 66
1
 10
0.0
 20
0.0
 30
0.0
  0
VERTEX
  8
views
 10
40.4167359126
 20
-71.0818456702
 30
0.0
  0
VERTEX
  8
views
 10
42.5206908353
 20
-70.0305687001
 30
0.0
  0
SEQEND
  8
views
  0
LINE
  8
views
 62
0
 10
42.5206908359
 20
-70.0305687076
 30
0.0
 11
42.5206954383
 21
-70.0305687076
 31
0.0
  0
LINE
  8
views
 62
0
 10
91.9563359016
 20
-70.0305687076
 30
0.0
 11
91.9563395457
 21
-70.0305687076
 31
0.0
  0
LINE
  8
views
 62
0
 10
88.5581632736
 20
-47.5306135654
 30
0.0
 11
88.5581632736
 21
-67.2093886837
 31
0.0
  0
LINE
  8
views
 62
0
 10
93.5426563585
 20
-33.3700054239
 30
0.0
 11
93.5426563585
 21
-33.37
 31
0.0
  0
LINE
  8
views
 62
0
 10
40.4167359126
 20
-33.37
 30
0.0
 11
93.5426563585
 21
-33.37
 31
0.0
  0
POLYLINE
  8
views
 62
0
 70
0
 66
1
 10
0.0
 20
0.0
 30
0.0
  0
VERTEX
  8
views
 10
40.9343740028
 20
-43.8787171965
 30
0.0
  0
VERTEX
  8
views
 10
40.4167359126
 20
-43.6581543298
 30
0.0
  0
SEQEND
  8
views
  0
ARC
  8
views
 62
0
 10
34.88
 20
-57.37
 30
0.0
 40
14.7875
 50
-29.6031509506
 51
-8.40869523685e-06
  0
POLYLINE
  8
views
 62
0
 70
0
 66
1
 10
0.0
 20
0.0
 30
0.0
  0
VERTEX
  8
views
 10
42.5206908359
 20
-70.0305687012
 30
0.0
  0
VERTEX
  8
views
 10
43.9107995168
 20
-69.0796035957
 30
0.0
  0
VERTEX
  8
views
 10
45.9984673921
 20
-67.1193507034
 30
0.0
  0
VERTEX
  8
views
 10
48.1709656843
 20
-63.8523134386
 30
0.0
  0
VERTEX
  8
views
 10
49.6675
 20
-57.37
 30
0.0
  0
SEQEND
  8
views
  0
POLYLINE
  8
views
 62
0
 70
0
 66
1
 10
0.0
 20
0.0
 30
0.0
  0
VERTEX
  8
views
 10
91.9563395457
 20
-70.0305687127
 30
0.0
  0
VERTEX
  8
views
 10
90.6332851671
 20
-69.1310130769
 30
0.0
  0
SEQEND
  8
views
  0
LINE
  8
views
 62
0
 10
47.2495587033
 20
-33.3700072723
 30
0.0
 11
100.375479149
 21
-33.3700051511
 31
0.0
  0
LINE
  8
views
 62
0
 10
40.9343740028
 20
-33.3700037603
 30
0.0
 11
47.2495587033
 21
-33.3700072723
 31
0.0
  0
LINE
  8
views
 62
0
 10
40.9343740028
 20
-43.8787194527
 30
0.0
 11
40.9343740028
 21
-33.3700037603
 31
0.0
  0
POLYLINE
  8
views
 62
0
 70
0
 66
1
 10
0.0
 20
0.0
 30
0.0
  0
VERTEX
  8
views
 10
70.1536302481
 20
-38.8700025936
 30
0.0
  0
VERTEX
  8
views
 10
69.8784701186
 20
-37.651143322
 30
0.0
  0
SEQEND
  8
views
  0
POLYLINE
  8
views
 62
0
 70
0
 66
1
 10
0.0
 20
0.0
 30
0.0
  0
VERTEX
  8
views
 10
69.8784687629
 20
-40.0888647257
 30
0.0
  0
VERTEX
  8
views
 10
70.1536302481
 20
-38.8700025936
 30
0.0
  0
SEQEND
  8
views
  0
LINE
  8
views
 62
0
 10
100.375479149
 20
-33.3700051511
 30
0.0
 11
100.375479149
 21
-42.6030059632
 31
0.0
  0
POLYLINE
  8
views
 62
0
 70
0
 66
1
 10
0.0
 20
0.0
 30
0.0
  0
VERTEX
  8
views
 10
47.2495587033
 20
-49.2666609957
 30
0.0
  0
VERTEX
  8
views
 10
49.0379704831
 20
-53.1454342937
 30
0.0
  0
VERTEX
  8
views
 10
49.6675
 20
-57.3700043054
 30
0.0
  0
VERTEX
  8
views
 10
49.0379704831
 20
-61.5945743473
 30
0.0
  0
VERTEX
  8
views
 10
47.2495587033
 20
-65.4733477311
 30
0.0
  0
SEQEND
  8
views
  0
LINE
  8
views
 62
0
 10
47.2495587033
 20
-49.2666609957
 30
0.0
 11
47.2495587033
 21
-33.3700072723
 31
0.0
  0
LINE
  8
views
 62
0
 10
47.2495587033
 20
-81.3700072723
 30
0.0
 11
47.2495587033
 21
-65.4733477311
 31
0.0
  0
LINE
  8
views
 62
0
 10
100.375479149
 20
-81.3700051511
 30
0.0
 11
47.2495587033
 21
-81.3700072723
 31
0.0
  0
LINE
  8
views
 62
0
 10
100.375479149
 20
-72.1369981576
 30
0.0
 11
100.375479149
 21
-81.3700051511
 31
0.0
  0
POLYLINE
  8
views
 62
0
 70
0
 66
1
 10
0.0
 20
0.0
 30
0.0
  0
VERTEX
  8
views
 10
84.8095303614
 20
-57.370002309
 30
0.0
  0
VERTEX
  8
views
 10
85.5973800317
 20
-52.6572539417
 30
0.0
  0
VERTEX
  8
views
 10
87.8385520171
 20
-48.4423251544
 30
0.0
  0
VERTEX
  8
views
 10
91.3007260658
 20
-45.1578538882
 30
0.0
  0
VERTEX
  8
views
 10
95.6277910895
 20
-43.1416731405
 30
0.0
  0
VERTEX
  8
views
 10
100.375479149
 20
-42.6030059632
 30
0.0
  0
SEQEND
  8
views
  0
POLYLINE
  8
views
 62
0
 70
0
 66
1
 10
0.0
 20
0.0
 30
0.0
  0
VERTEX
  8
views
 10
100.375479149
 20
-72.1369981576
 30
0.0
  0
VERTEX
  8
views
 10
95.6277910895
 20
-71.598331132
 30
0.0
  0
VERTEX
  8
views
 10
91.3007260658
 20
-69.5821505226
 30
0.0
  0
VERTEX
  8
views
 10
87.8385520171
 20
-66.2976793669
 30
0.0
  0
VERTEX
  8
views
 10
85.5973800317
 20
-62.0827506512
 30
0.0
  0
VERTEX
  8
views
 10
84.8095303614
 20
-57.370002309
 30
0.0
  0
SEQEND
  8
views
  0
POLYLINE
  8
views
 62
0
 70
0
 66
1
 10
0.0
 20
0.0
 30
0.0
  0
VERTEX
  8
views
 10
78.1591851446
 20
-38.8700060381
 30
0.0
  0
VERTEX
  8
views
 10
76.8860769696
 20
-35.6880264896
 30
0.0
  0
VERTEX
  8
views
 10
73.8125214288
 20
-34.3700062117
 30
0.0
  0
SEQEND
  8
views
  0
POLYLINE
  8
views
 62
0
 70
0
 66
1
 10
0.0
 20
0.0
 30
0.0
  0
VERTEX
  8
views
 10
73.8125214288
 20
-34.3700062117
 30
0.0
  0
VERTEX
  8
views
 10
70.0481968107
 20
-36.6200041183
 30
0.0
  0
VERTEX
  8
views
 10
70.0481943082
 20
-41.1200041183
 30
0.0
  0
VERTEX
  8
views
 10
73.8125164237
 20
-43.3700062117
 30
0.0
  0
SEQEND
  8
views
  0
POLYLINE
  8
views
 62
0
 70
0
 66
1
 10
0.0
 20
0.0
 30
0.0
  0
VERTEX
  8
views
 10
73.8125164237
 20
-43.3700062117
 30
0.0
  0
VERTEX
  8
views
 10
76.8860752
 20
-42.0519875203
 30
0.0
  0
VERTEX
  8
views
 10
78.1591851446
 20
-38.8700060381
 30
0.0
  0
SEQEND
  8
views
  0
POLYLINE
  8
views
 62
0
 70
0
 66
1
 10
0.0
 20
0.0
 30
0.0
  0
VERTEX
  8
views
 10
78.1591851446
 20
-75.8700060381
 30
0.0
  0
VERTEX
  8
views
 10
76.8860752
 20
-79.0519875203
 30
0.0
  0
VERTEX
  8
views
 10
73.8125164237
 20
-80.3700062117
 30
0.0
  0
SEQEND
  8
views
  0
POLYLINE
  8
views
 62
0
 70
0
 66
1
 10
0.0
 20
0.0
 30
0.0
  0
VERTEX
  8
views
 10
73.8125164237
 20
-80.3700062117
 30
0.0
  0
VERTEX
  8
views
 10
70.0481943082
 20
-78.1200041183
 30
0.0
  0
VERTEX
  8
views
 10
70.0481968107
 20
-73.6200041183
 30
0.0
  0
VERTEX
  8
views
 10
73.8125214288
 20
-71.3700062117
 30
0.0
  0
SEQEND
  8
views
  0
POLYLINE
  8
views
 62
0
 70
0
 66
1
 10
0.0
 20
0.0
 30
0.0
  0
VERTEX
  8
views
 10
73.8125214288
 20
-71.3700062117
 30
0.0
  0
VERTEX
  8
views
 10
76.8860769696
 20
-72.6880264896
 30
0.0
  0
VERTEX
  8
views
 10
78.1591851446
 20
-75.8700060381
 30
0.0
  0
SEQEND
  8
views
  0
POLYLINE
  8
views
 62
0
 70
0
 66
1
 10
0.0
 20
0.0
 30
0.0
  0
VERTEX
  8
views
 10
47.2495587033
 20
-49.2666609957
 30
0.0
  0
VERTEX
  8
views
 10
44.4778016718
 20
-46.1204541445
 30
0.0
  0
VERTEX
  8
views
 10
40.9343740028
 20
-43.8787194527
 30
0.0
  0
SEQEND
  8
views
  0
POLYLINE
  8
views
 62
0
 70
0
 66
1
 10
0.0
 20
0.0
 30
0.0
  0
VERTEX
  8
views
 10
40.9343740028
 20
-70.8612850597
 30
0.0
  0
VERTEX
  8
views
 10
44.4778016718
 20
-68.6195527325
 30
0.0
  0
VERTEX
  8
views
 10
47.2495587033
 20
-65.4733477311
 30
0.0
  0
SEQEND
  8
views
  0
POLYLINE
  8
views
 62
0
 70
0
 66
1
 10
0.0
 20
0.0
 30
0.0
  0
VERTEX
  8
views
 10
74.915900678
 20
-38.870005242
 30
0.0
  0
VERTEX
  8
views
 10
72.2596031263
 20
-41.6200053481
 30
0.0
  0
SEQEND
  8
views
  0
POLYLINE
  8
views
 62
0
 70
0
 66
1
 10
0.0
 20
0.0
 30
0.0
  0
VERTEX
  8
views
 10
72.2596031263
 20
-41.6200053481
 30
0.0
  0
VERTEX
  8
views
 10
69.6033086334
 20
-38.8700038709
 30
0.0
  0
VERTEX
  8
views
 10
72.259606185
 20
-36.1200053481
 30
0.0
  0
SEQEND
  8
views
  0
POLYLINE
  8
views
 62
0
 70
0
 66
1
 10
0.0
 20
0.0
 30
0.0
  0
VERTEX
  8
views
 10
72.259606185
 20
-36.1200053481
 30
0.0
  0
VERTEX
  8
views
 10
74.915900678
 20
-38.870005242
 30
0.0
  0
SEQEND
  8
views
  0
LINE
  8
views
 62
0
 10
40.9343740028
 20
-81.3700037603
 30
0.0
 11
40.9343740028
 21
-70.8612850597
 31
0.0
  0
LINE
  8
views
 62
0
 10
40.9343740028
 20
-81.3700037603
 30
0.0
 11
47.2495587033
 21
-81.3700072723
 31
0.0
  0
POLYLINE
  8
views
 62
0
 70
0
 66
1
 10
0.0
 20
0.0
 30
0.0
  0
VERTEX
  8
views
 10
76.606270874
 20
-38.8700051745
 30
0.0
  0
VERTEX
  8
views
 10
75.5964083595
 20
-35.9861991854
 30
0.0
  0
VERTEX
  8
views
 10
73.0360642533
 20
-34.4423846271
 30
0.0
  0
SEQEND
  8
views
  0
POLYLINE
  8
views
 62
0
 70
0
 66
1
 10
0.0
 20
0.0
 30
0.0
  0
VERTEX
  8
views
 10
73.0360593287
 20
-43.2976269326
 30
0.0
  0
VERTEX
  8
views
 10
75.5964067558
 20
-41.7538132332
 30
0.0
  0
VERTEX
  8
views
 10
76.606270874
 20
-38.8700051745
 30
0.0
  0
SEQEND
  8
views
  0
POLYLINE
  8
views
 62
0
 70
0
 66
1
 10
0.0
 20
0.0
 30
0.0
  0
VERTEX
  8
views
 10
76.606270874
 20
-75.8700051745
 30
0.0
  0
VERTEX
  8
views
 10
75.5964067558
 20
-78.7538132332
 30
0.0
  0
VERTEX
  8
views
 10
73.0360593287
 20
-80.2976269326
 30
0.0
  0
SEQEND
  8
views
  0
POLYLINE
  8
views
 62
0
 70
0
 66
1
 10
0.0
 20
0.0
 30
0.0
  0
VERTEX
  8
views
 10
73.0360642533
 20
-71.4423846271
 30
0.0
  0
VERTEX
  8
views
 10
75.5964083595
 20
-72.9861991854
 30
0.0
  0
VERTEX
  8
views
 10
76.606270874
 20
-75.8700051745
 30
0.0
  0
SEQEND
  8
views
  0
POLYLINE
  8
views
 62
0
 70
0
 66
1
 10
0.0
 20
0.0
 30
0.0
  0
VERTEX
  8
views
 10
70.1536302481
 20
-75.8700025936
 30
0.0
  0
VERTEX
  8
views
 10
69.8784701186
 20
-74.651143322
 30
0.0
  0
SEQEND
  8
views
  0
POLYLINE
  8
views
 62
0
 70
0
 66
1
 10
0.0
 20
0.0
 30
0.0
  0
VERTEX
  8
views
 10
69.8784687629
 20
-77.0888647257
 30
0.0
  0
VERTEX
  8
views
 10
70.1536302481
 20
-75.8700025936
 30
0.0
  0
SEQEND
  8
views
  0
POLYLINE
  8
views
 62
0
 70
0
 66
1
 10
0.0
 20
0.0
 30
0.0
  0
VERTEX
  8
views
 10
74.915900678
 20
-75.870005242
 30
0.0
  0
VERTEX
  8
views
 10
72.259606185
 20
-73.1200053481
 30
0.0
  0
SEQEND
  8
views
  0
POLYLINE
  8
views
 62
0
 70
0
 66
1
 10
0.0
 20
0.0
 30
0.0
  0
VERTEX
  8
views
 10
72.259606185
 20
-73.1200053481
 30
0.0
  0
VERTEX
  8
views
 10
69.6033086334
 20
-75.8700038709
 30
0.0
  0
VERTEX
  8
views
 10
72.2596031263
 20
-78.6200053481
 30
0.0
  0
SEQEND
  8
views
  0
POLYLINE
  8
views
 62
0
 70
0
 66
1
 10
0.0
 20
0.0
 30
0.0
  0
VERTEX
  8
views
 10
72.2596031263
 20
-78.6200053481
 30
0.0
  0
VERTEX
  8
views
 10
74.915900678
 20
-75.870005242
 30
0.0
  0
SEQEND
  8
views
  0
LINE
  8
views
 62
0
 10
74.915900678
 20
-38.870005242
 30
0.0
 11
70.1536302481
 21
-38.8700025936
 31
0.0
  0
LINE
  8
views
 62
0
 10
78.1591851446
 20
-38.8700060381
 30
0.0
 11
76.606270874
 21
-38.8700051745
 31
0.0
  0
LINE
  8
views
 62
0
 10
78.1591851446
 20
-75.8700060381
 30
0.0
 11
76.606270874
 21
-75.8700051745
 31
0.0
  0
LINE
  8
views
 62
0
 10
74.915900678
 20
-75.870005242
 30
0.0
 11
70.1536302481
 21
-75.8700025936
 31
0.0
  0
LINE
  8
views
 62
0
 10
29.88
 20
-31.97
 30
0.0
 11
29.88
 21
-82.77
 31
0.0
  0
LINE
  8
views
 62
0
 10
92.08366
 20
-31.97
 30
0.0
 11
92.08366
 21
-82.77
 31
0.0
  0
LINE
  8
views
 62
0
 10
92.08366
 20
-31.97
 30
0.0
 11
29.88
 21
-31.97
 31
0.0
  0
LINE
  8
views
 62
0
 10
92.08366
 20
-82.77
 30
0.0
 11
29.88
 21
-82.77
 31
0.0
  0
POLYLINE
  8
views
 62
0
 70
0
 66
1
 10
0.0
 20
0.0
 30
0.0
  0
VERTEX
  8
views
 10
72.0120836042
 20
-75.87
 30
0.0
  0
VERTEX
  8
views
 10
74.1861635831
 20
-73.77
 30
0.0
  0
SEQEND
  8
views
  0
POLYLINE
  8
views
 62
0
 70
0
 66
1
 10
0.0
 20
0.0
 30
0.0
  0
VERTEX
  8
views
 10
74.1861635831
 20
-73.77
 30
0.0
  0
VERTEX
  8
views
 10
76.3602435619
 20
-75.87
 30
0.0
  0
VERTEX
  8
views
 10
74.1861635831
 20
-77.97
 30
0.0
  0
SEQEND
  8
views
  0
POLYLINE
  8
views
 62
0
 70
0
 66
1
 10
0.0
 20
0.0
 30
0.0
  0
VERTEX
  8
views
 10
74.1861635831
 20
-77.97
 30
0.0
  0
VERTEX
  8
views
 10
72.0120836042
 20
-75.87
 30
0.0
  0
SEQEND
  8
views
  0
POLYLINE
  8
views
 62
0
 70
0
 66
1
 10
0.0
 20
0.0
 30
0.0
  0
VERTEX
  8
views
 10
72.0120836042
 20
-38.87
 30
0.0
  0
VERTEX
  8
views
 10
74.1861635831
 20
-36.77
 30
0.0
  0
SEQEND
  8
views
  0
POLYLINE
  8
views
 62
0
 70
0
 66
1
 10
0.0
 20
0.0
 30
0.0
  0
VERTEX
  8
views
 10
74.1861635831
 20
-36.77
 30
0.0
  0
VERTEX
  8
views
 10
76.3602435619
 20
-38.8700000001
 30
0.0
  0
VERTEX
  8
views
 10
74.1861635829
 20
-40.97
 30
0.0
  0
SEQEND
  8
views
  0
POLYLINE
  8
views
 62
0
 70
0
 66
1
 10
0.0
 20
0.0
 30
0.0
  0
VERTEX
  8
views
 10
74.1861635829
 20
-40.97
 30
0.0
  0
VERTEX
  8
views
 10
72.0120836042
 20
-38.87
 30
0.0
  0
SEQEND
  8
views
  0
POLYLINE
  8
views
 62
0
 70
0
 66
1
 10
0.0
 20
0.0
 30
0.0
  0
VERTEX
  8
views
 10
35.7774172899
 20
-38.87
 30
0.0
  0
VERTEX
  8
views
 10
37.9514972688
 20
-36.77
 30
0.0
  0
SEQEND
  8
views
  0
POLYLINE
  8
views
 62
0
 70
0
 66
1
 10
0.0
 20
0.0
 30
0.0
  0
VERTEX
  8
views
 10
37.9514972688
 20
-36.77
 30
0.0
  0
VERTEX
  8
views
 10
40.1255772476
 20
-38.8700000001
 30
0.0
  0
VERTEX
  8
views
 10
37.9514972686
 20
-40.97
 30
0.0
  0
SEQEND
  8
views
  0
POLYLINE
  8
views
 62
0
 70
0
 66
1
 10
0.0
 20
0.0
 30
0.0
  0
VERTEX
  8
views
 10
37.9514972686
 20
-40.97
 30
0.0
  0
VERTEX
  8
views
 10
35.7774172899
 20
-38.87
 30
0.0
  0
SEQEND
  8
views
  0
POLYLINE
  8
views
 62
0
 70
0
 66
1
 10
0.0
 20
0.0
 30
0.0
  0
VERTEX
  8
views
 10
35.7774172899
 20
-75.87
 30
0.0
  0
VERTEX
  8
views
 10
37.9514972687
 20
-73.77
 30
0.0
  0
SEQEND
  8
views
  0
POLYLINE
  8
views
 62
0
 70
0
 66
1
 10
0.0
 20
0.0
 30
0.0
  0
VERTEX
  8
views
 10
37.9514972687
 20
-73.77
 30
0.0
  0
VERTEX
  8
views
 10
40.1255772476
 20
-75.87
 30
0.0
  0
VERTEX
  8
views
 10
37.9514972687
 20
-77.97
 30
0.0
  0
SEQEND
  8
views
  0
POLYLINE
  8
views
 62
0
 70
0
 66
1
 10
0.0
 20
0.0
 30
0.0
  0
VERTEX
  8
views
 10
37.9514972687
 20
-77.97
 30
0.0
  0
VERTEX
  8
views
 10
35.7774172899
 20
-75.87
 30
0.0
  0
SEQEND
  8
views
  0
LINE
  8
views
 62
0
 10
92.08366
 20
-33.37
 30
0.0
 11
92.08366
 21
-44.6334633356
 31
0.0
  0
LINE
  8
views
 62
0
 10
92.08366
 20
-70.1065388573
 30
0.0
 11
92.08366
 21
-81.3700054822
 31
0.0
  0
POLYLINE
  8
views
 62
0
 70
0
 66
1
 10
0.0
 20
0.0
 30
0.0
  0
VERTEX
  8
views
 10
75.5397691599
 20
-38.87
 30
0.0
  0
VERTEX
  8
views
 10
77.5682133951
 20
-40.97
 30
0.0
  0
SEQEND
  8
views
  0
POLYLINE
  8
views
 62
0
 70
0
 66
1
 10
0.0
 20
0.0
 30
0.0
  0
VERTEX
  8
views
 10
77.5682133951
 20
-40.97
 30
0.0
  0
VERTEX
  8
views
 10
79.5966576303
 20
-38.87
 30
0.0
  0
VERTEX
  8
views
 10
77.5682133951
 20
-36.77
 30
0.0
  0
SEQEND
  8
views
  0
POLYLINE
  8
views
 62
0
 70
0
 66
1
 10
0.0
 20
0.0
 30
0.0
  0
VERTEX
  8
views
 10
77.5682133951
 20
-36.77
 30
0.0
  0
VERTEX
  8
views
 10
75.5397691599
 20
-38.87
 30
0.0
  0
SEQEND
  8
views
  0
POLYLINE
  8
views
 62
0
 70
0
 66
1
 10
0.0
 20
0.0
 30
0.0
  0
VERTEX
  8
views
 10
41.7323652398
 20
-38.87
 30
0.0
  0
VERTEX
  8
views
 10
43.760809475
 20
-40.97
 30
0.0
  0
SEQEND
  8
views
  0
POLYLINE
  8
views
 62
0
 70
0
 66
1
 10
0.0
 20
0.0
 30
0.0
  0
VERTEX
  8
views
 10
43.760809475
 20
-40.97
 30
0.0
  0
VERTEX
  8
views
 10
45.7892537102
 20
-38.87
 30
0.0
  0
VERTEX
  8
views
 10
43.760809475
 20
-36.77
 30
0.0
  0
SEQEND
  8
views
  0
POLYLINE
  8
views
 62
0
 70
0
 66
1
 10
0.0
 20
0.0
 30
0.0
  0
VERTEX
  8
views
 10
43.760809475
 20
-36.77
 30
0.0
  0
VERTEX
  8
views
 10
41.7323652398
 20
-38.87
 30
0.0
  0
SEQEND
  8
views
  0
POLYLINE
  8
views
 62
0
 70
0
 66
1
 10
0.0
 20
0.0
 30
0.0
  0
VERTEX
  8
views
 10
75.5397691599
 20
-75.87
 30
0.0
  0
VERTEX
  8
views
 10
77.5682133951
 20
-77.97
 30
0.0
  0
SEQEND
  8
views
  0
POLYLINE
  8
views
 62
0
 70
0
 66
1
 10
0.0
 20
0.0
 30
0.0
  0
VERTEX
  8
views
 10
77.5682133951
 20
-77.97
 30
0.0
  0
VERTEX
  8
views
 10
79.5966576303
 20
-75.87
 30
0.0
  0
VERTEX
  8
views
 10
77.5682133951
 20
-73.77
 30
0.0
  0
SEQEND
  8
views
  0
POLYLINE
  8
views
 62
0
 70
0
 66
1
 10
0.0
 20
0.0
 30
0.0
  0
VERTEX
  8
views
 10
77.5682133951
 20
-73.77
 30
0.0
  0
VERTEX
  8
views
 10
75.5397691599
 20
-75.87
 30
0.0
  0
SEQEND
  8
views
  0
POLYLINE
  8
views
 62
0
 70
0
 66
1
 10
0.0
 20
0.0
 30
0.0
  0
VERTEX
  8
views
 10
41.7323652398
 20
-75.87
 30
0.0
  0
VERTEX
  8
views
 10
43.760809475
 20
-77.97
 30
0.0
  0
SEQEND
  8
views
  0
POLYLINE
  8
views
 62
0
 70
0
 66
1
 10
0.0
 20
0.0
 30
0.0
  0
VERTEX
  8
views
 10
43.760809475
 20
-77.97
 30
0.0
  0
VERTEX
  8
views
 10
45.7892537102
 20
-75.87
 30
0.0
  0
VERTEX
  8
views
 10
43.760809475
 20
-73.77
 30
0.0
  0
SEQEND
  8
views
  0
POLYLINE
  8
views
 62
0
 70
0
 66
1
 10
0.0
 20
0.0
 30
0.0
  0
VERTEX
  8
views
 10
43.760809475
 20
-73.77
 30
0.0
  0
VERTEX
  8
views
 10
41.7323652398
 20
-75.87
 30
0.0
  0
SEQEND
  8
views
  0
LINE
  8
views
 62
0
 10
87.227471658
 20
-81.37
 30
0.0
 11
34.1015512121
 21
-81.37
 31
0.0
  0
LINE
  8
views
 62
0
 10
93.5426563585
 20
-81.37
 30
0.0
 11
40.9343740028
 21
-81.37
 31
0.0
  0
LINE
  8
views
 62
0
 10
87.227471658
 20
-81.37
 30
0.0
 11
93.5426563585
 21
-81.37
 31
0.0
  0
LINE
  8
views
 62
0
 10
87.227471658
 20
-33.37
 30
0.0
 11
87.227471658
 21
-81.37
 31
0.0
  0
LINE
  8
views
 62
0
 10
34.1015512121
 20
-33.37
 30
0.0
 11
87.227471658
 21
-33.37
 31
0.0
  0
POLYLINE
  8
views
 62
0
 70
0
 66
1
 10
0.0
 20
0.0
 30
0.0
  0
VERTEX
  8
views
 10
74.9119173728
 20
-75.87
 30
0.0
  0
VERTEX
  8
views
 10
77.5682133951
 20
-78.62
 30
0.0
  0
SEQEND
  8
views
  0
POLYLINE
  8
views
 62
0
 70
0
 66
1
 10
0.0
 20
0.0
 30
0.0
  0
VERTEX
  8
views
 10
77.5682133951
 20
-78.62
 30
0.0
  0
VERTEX
  8
views
 10
80.2245094174
 20
-75.87
 30
0.0
  0
VERTEX
  8
views
 10
77.5682133951
 20
-73.12
 30
0.0
  0
SEQEND
  8
views
  0
POLYLINE
  8
views
 62
0
 70
0
 66
1
 10
0.0
 20
0.0
 30
0.0
  0
VERTEX
  8
views
 10
77.5682133951
 20
-73.12
 30
0.0
  0
VERTEX
  8
views
 10
74.9119173728
 20
-75.87
 30
0.0
  0
SEQEND
  8
views
  0
POLYLINE
  8
views
 62
0
 70
0
 66
1
 10
0.0
 20
0.0
 30
0.0
  0
VERTEX
  8
views
 10
58.6360671999
 20
-75.87
 30
0.0
  0
VERTEX
  8
views
 10
60.6645114351
 20
-77.97
 30
0.0
  0
SEQEND
  8
views
  0
POLYLINE
  8
views
 62
0
 70
0
 66
1
 10
0.0
 20
0.0
 30
0.0
  0
VERTEX
  8
views
 10
60.6645114351
 20
-77.97
 30
0.0
  0
VERTEX
  8
views
 10
62.6929556703
 20
-75.87
 30
0.0
  0
VERTEX
  8
views
 10
60.6645114351
 20
-73.77
 30
0.0
  0
SEQEND
  8
views
  0
POLYLINE
  8
views
 62
0
 70
0
 66
1
 10
0.0
 20
0.0
 30
0.0
  0
VERTEX
  8
views
 10
60.6645114351
 20
-73.77
 30
0.0
  0
VERTEX
  8
views
 10
58.6360671999
 20
-75.87
 30
0.0
  0
SEQEND
  8
views
  0
POLYLINE
  8
views
 62
0
 70
0
 66
1
 10
0.0
 20
0.0
 30
0.0
  0
VERTEX
  8
views
 10
58.6360671999
 20
-38.87
 30
0.0
  0
VERTEX
  8
views
 10
60.6645114351
 20
-40.97
 30
0.0
  0
SEQEND
  8
views
  0
POLYLINE
  8
views
 62
0
 70
0
 66
1
 10
0.0
 20
0.0
 30
0.0
  0
VERTEX
  8
views
 10
60.6645114351
 20
-40.97
 30
0.0
  0
VERTEX
  8
views
 10
62.6929556703
 20
-38.87
 30
0.0
  0
VERTEX
  8
views
 10
60.6645114351
 20
-36.77
 30
0.0
  0
SEQEND
  8
views
  0
POLYLINE
  8
views
 62
0
 70
0
 66
1
 10
0.0
 20
0.0
 30
0.0
  0
VERTEX
  8
views
 10
60.6645114351
 20
-36.77
 30
0.0
  0
VERTEX
  8
views
 10
58.6360671999
 20
-38.87
 30
0.0
  0
SEQEND
  8
views
  0
POLYLINE
  8
views
 62
0
 70
0
 66
1
 10
0.0
 20
0.0
 30
0.0
  0
VERTEX
  8
views
 10
74.9119173728
 20
-38.87
 30
0.0
  0
VERTEX
  8
views
 10
77.5682133951
 20
-41.62
 30
0.0
  0
SEQEND
  8
views
  0
POLYLINE
  8
views
 62
0
 70
0
 66
1
 10
0.0
 20
0.0
 30
0.0
  0
VERTEX
  8
views
 10
77.5682133951
 20
-41.62
 30
0.0
  0
VERTEX
  8
views
 10
80.2245094174
 20
-38.87
 30
0.0
  0
VERTEX
  8
views
 10
77.5682133951
 20
-36.12
 30
0.0
  0
SEQEND
  8
views
  0
POLYLINE
  8
views
 62
0
 70
0
 66
1
 10
0.0
 20
0.0
 30
0.0
  0
VERTEX
  8
views
 10
77.5682133951
 20
-36.12
 30
0.0
  0
VERTEX
  8
views
 10
74.9119173728
 20
-38.87
 30
0.0
  0
SEQEND
  8
views
  0
POLYLINE
  8
views
 62
0
 70
0
 66
1
 10
0.0
 20
0.0
 30
0.0
  0
VERTEX
  8
views
 10
41.1045134527
 20
-38.87
 30
0.0
  0
VERTEX
  8
views
 10
43.760809475
 20
-41.62
 30
0.0
  0
SEQEND
  8
views
  0
POLYLINE
  8
views
 62
0
 70
0
 66
1
 10
0.0
 20
0.0
 30
0.0
  0
VERTEX
  8
views
 10
43.760809475
 20
-41.62
 30
0.0
  0
VERTEX
  8
views
 10
46.4171054973
 20
-38.87
 30
0.0
  0
VERTEX
  8
views
 10
43.760809475
 20
-36.12
 30
0.0
  0
SEQEND
  8
views
  0
POLYLINE
  8
views
 62
0
 70
0
 66
1
 10
0.0
 20
0.0
 30
0.0
  0
VERTEX
  8
views
 10
43.760809475
 20
-36.12
 30
0.0
  0
VERTEX
  8
views
 10
41.1045134527
 20
-38.87
 30
0.0
  0
SEQEND
  8
views
  0
POLYLINE
  8
views
 62
0
 70
0
 66
1
 10
0.0
 20
0.0
 30
0.0
  0
VERTEX
  8
views
 10
41.1045134527
 20
-75.87
 30
0.0
  0
VERTEX
  8
views
 10
43.760809475
 20
-78.62
 30
0.0
  0
SEQEND
  8
views
  0
POLYLINE
  8
views
 62
0
 70
0
 66
1
 10
0.0
 20
0.0
 30
0.0
  0
VERTEX
  8
views
 10
43.760809475
 20
-78.62
 30
0.0
  0
VERTEX
  8
views
 10
46.4171054973
 20
-75.87
 30
0.0
  0
VERTEX
  8
views
 10
43.760809475
 20
-73.12
 30
0.0
  0
SEQEND
  8
views
  0
POLYLINE
  8
views
 62
0
 70
0
 66
1
 10
0.0
 20
0.0
 30
0.0
  0
VERTEX
  8
views
 10
43.760809475
 20
-73.12
 30
0.0
  0
VERTEX
  8
views
 10
41.1045134527
 20
-75.87
 30
0.0
  0
SEQEND
  8
views
  0
LINE
  8
views
 62
0
 10
93.5426563585
 20
-81.37
 30
0.0
 11
93.5426563585
 21
-70.861284973
 31
0.0
  0
LINE
  8
views
 62
0
 10
42.5206954383
 20
-70.0305687076
 30
0.0
 11
91.9563359016
 21
-70.0305687076
 31
0.0
  0
POLYLINE
  8
views
 62
0
 70
0
 66
1
 10
0.0
 20
0.0
 30
0.0
  0
VERTEX
  8
views
 10
79.5367318773
 20
-75.87
 30
0.0
  0
VERTEX
  8
views
 10
80.8098409371
 20
-79.0519805153
 30
0.0
  0
VERTEX
  8
views
 10
83.8833980956
 20
-80.37
 30
0.0
  0
SEQEND
  8
views
  0
POLYLINE
  8
views
 62
0
 70
0
 66
1
 10
0.0
 20
0.0
 30
0.0
  0
VERTEX
  8
views
 10
83.8833980956
 20
-80.37
 30
0.0
  0
VERTEX
  8
views
 10
87.6477214625
 20
-78.12
 30
0.0
  0
VERTEX
  8
views
 10
87.6477214625
 20
-73.62
 30
0.0
  0
VERTEX
  8
views
 10
83.8833980956
 20
-71.37
 30
0.0
  0
SEQEND
  8
views
  0
POLYLINE
  8
views
 62
0
 70
0
 66
1
 10
0.0
 20
0.0
 30
0.0
  0
VERTEX
  8
views
 10
83.8833980956
 20
-71.37
 30
0.0
  0
VERTEX
  8
views
 10
80.8098409371
 20
-72.6880194847
 30
0.0
  0
VERTEX
  8
views
 10
79.5367318773
 20
-75.87
 30
0.0
  0
SEQEND
  8
views
  0
POLYLINE
  8
views
 62
0
 70
0
 66
1
 10
0.0
 20
0.0
 30
0.0
  0
VERTEX
  8
views
 10
45.7293279572
 20
-75.87
 30
0.0
  0
VERTEX
  8
views
 10
47.002437017
 20
-79.0519805153
 30
0.0
  0
VERTEX
  8
views
 10
50.0759941755
 20
-80.37
 30
0.0
  0
SEQEND
  8
views
  0
POLYLINE
  8
views
 62
0
 70
0
 66
1
 10
0.0
 20
0.0
 30
0.0
  0
VERTEX
  8
views
 10
50.0759941755
 20
-80.37
 30
0.0
  0
VERTEX
  8
views
 10
53.8403175423
 20
-78.12
 30
0.0
  0
VERTEX
  8
views
 10
53.8403175423
 20
-73.62
 30
0.0
  0
VERTEX
  8
views
 10
50.0759941755
 20
-71.37
 30
0.0
  0
SEQEND
  8
views
  0
POLYLINE
  8
views
 62
0
 70
0
 66
1
 10
0.0
 20
0.0
 30
0.0
  0
VERTEX
  8
views
 10
50.0759941755
 20
-71.37
 30
0.0
  0
VERTEX
  8
views
 10
47.002437017
 20
-72.6880194847
 30
0.0
  0
VERTEX
  8
views
 10
45.7293279572
 20
-75.87
 30
0.0
  0
SEQEND
  8
views
  0
POLYLINE
  8
views
 62
0
 70
0
 66
1
 10
0.0
 20
0.0
 30
0.0
  0
VERTEX
  8
views
 10
64.9512519004
 20
-75.87
 30
0.0
  0
VERTEX
  8
views
 10
66.9796961356
 20
-77.97
 30
0.0
  0
SEQEND
  8
views
  0
POLYLINE
  8
views
 62
0
 70
0
 66
1
 10
0.0
 20
0.0
 30
0.0
  0
VERTEX
  8
views
 10
66.9796961356
 20
-77.97
 30
0.0
  0
VERTEX
  8
views
 10
69.0081403708
 20
-75.87
 30
0.0
  0
VERTEX
  8
views
 10
66.9796961356
 20
-73.77
 30
0.0
  0
SEQEND
  8
views
  0
POLYLINE
  8
views
 62
0
 70
0
 66
1
 10
0.0
 20
0.0
 30
0.0
  0
VERTEX
  8
views
 10
66.9796961356
 20
-73.77
 30
0.0
  0
VERTEX
  8
views
 10
64.9512519004
 20
-75.87
 30
0.0
  0
SEQEND
  8
views
  0
POLYLINE
  8
views
 62
0
 70
0
 66
1
 10
0.0
 20
0.0
 30
0.0
  0
VERTEX
  8
views
 10
93.5426563585
 20
-70.8612828035
 30
0.0
  0
VERTEX
  8
views
 10
90.8575334988
 20
-69.2985938333
 30
0.0
  0
VERTEX
  8
views
 10
88.5581632736
 20
-67.2093886837
 30
0.0
  0
SEQEND
  8
views
  0
LINE
  8
views
 62
0
 10
88.5581632736
 20
-47.5306113163
 30
0.0
 11
88.5581632736
 21
-47.5306135654
 31
0.0
  0
POLYLINE
  8
views
 62
0
 70
0
 66
1
 10
0.0
 20
0.0
 30
0.0
  0
VERTEX
  8
views
 10
88.5581632736
 20
-47.5306113163
 30
0.0
  0
VERTEX
  8
views
 10
90.8575334988
 20
-45.4414061667
 30
0.0
  0
VERTEX
  8
views
 10
93.5426563585
 20
-43.8787171965
 30
0.0
  0
SEQEND
  8
views
  0
LINE
  8
views
 62
0
 10
93.5426563585
 20
-43.8787171965
 30
0.0
 11
93.5426563585
 21
-33.3700054239
 31
0.0
  0
LINE
  8
views
 62
0
 10
87.227471658
 20
-33.37
 30
0.0
 11
93.5426563585
 21
-33.37
 31
0.0
  0
POLYLINE
  8
views
 62
0
 70
0
 66
1
 10
0.0
 20
0.0
 30
0.0
  0
VERTEX
  8
views
 10
79.6741878027
 20
-75.87
 30
0.0
  0
VERTEX
  8
views
 10
82.330483825
 20
-78.62
 30
0.0
  0
SEQEND
  8
views
  0
POLYLINE
  8
views
 62
0
 70
0
 66
1
 10
0.0
 20
0.0
 30
0.0
  0
VERTEX
  8
views
 10
82.330483825
 20
-78.62
 30
0.0
  0
VERTEX
  8
views
 10
84.9867798473
 20
-75.87
 30
0.0
  0
VERTEX
  8
views
 10
82.330483825
 20
-73.12
 30
0.0
  0
SEQEND
  8
views
  0
POLYLINE
  8
views
 62
0
 70
0
 66
1
 10
0.0
 20
0.0
 30
0.0
  0
VERTEX
  8
views
 10
82.330483825
 20
-73.12
 30
0.0
  0
VERTEX
  8
views
 10
79.6741878027
 20
-75.87
 30
0.0
  0
SEQEND
  8
views
  0
POLYLINE
  8
views
 62
0
 70
0
 66
1
 10
0.0
 20
0.0
 30
0.0
  0
VERTEX
  8
views
 10
64.9512519004
 20
-38.87
 30
0.0
  0
VERTEX
  8
views
 10
66.9796961356
 20
-36.77
 30
0.0
  0
SEQEND
  8
views
  0
POLYLINE
  8
views
 62
0
 70
0
 66
1
 10
0.0
 20
0.0
 30
0.0
  0
VERTEX
  8
views
 10
66.9796961356
 20
-36.77
 30
0.0
  0
VERTEX
  8
views
 10
69.0081403708
 20
-38.87
 30
0.0
  0
VERTEX
  8
views
 10
66.9796961356
 20
-40.97
 30
0.0
  0
SEQEND
  8
views
  0
POLYLINE
  8
views
 62
0
 70
0
 66
1
 10
0.0
 20
0.0
 30
0.0
  0
VERTEX
  8
views
 10
66.9796961356
 20
-40.97
 30
0.0
  0
VERTEX
  8
views
 10
64.9512519004
 20
-38.87
 30
0.0
  0
SEQEND
  8
views
  0
POLYLINE
  8
views
 62
0
 70
0
 66
1
 10
0.0
 20
0.0
 30
0.0
  0
VERTEX
  8
views
 10
79.6741878027
 20
-38.87
 30
0.0
  0
VERTEX
  8
views
 10
82.330483825
 20
-41.62
 30
0.0
  0
SEQEND
  8
views
  0
POLYLINE
  8
views
 62
0
 70
0
 66
1
 10
0.0
 20
0.0
 30
0.0
  0
VERTEX
  8
views
 10
82.330483825
 20
-41.62
 30
0.0
  0
VERTEX
  8
views
 10
84.9867798473
 20
-38.87
 30
0.0
  0
VERTEX
  8
views
 10
82.330483825
 20
-36.12
 30
0.0
  0
SEQEND
  8
views
  0
POLYLINE
  8
views
 62
0
 70
0
 66
1
 10
0.0
 20
0.0
 30
0.0
  0
VERTEX
  8
views
 10
82.330483825
 20
-36.12
 30
0.0
  0
VERTEX
  8
views
 10
79.6741878027
 20
-38.87
 30
0.0
  0
SEQEND
  8
views
  0
POLYLINE
  8
views
 62
0
 70
0
 66
1
 10
0.0
 20
0.0
 30
0.0
  0
VERTEX
  8
views
 10
45.8667838826
 20
-38.87
 30
0.0
  0
VERTEX
  8
views
 10
48.5230799049
 20
-41.62
 30
0.0
  0
SEQEND
  8
views
  0
POLYLINE
  8
views
 62
0
 70
0
 66
1
 10
0.0
 20
0.0
 30
0.0
  0
VERTEX
  8
views
 10
48.5230799049
 20
-41.62
 30
0.0
  0
VERTEX
  8
views
 10
51.1793759272
 20
-38.87
 30
0.0
  0
VERTEX
  8
views
 10
48.5230799049
 20
-36.12
 30
0.0
  0
SEQEND
  8
views
  0
POLYLINE
  8
views
 62
0
 70
0
 66
1
 10
0.0
 20
0.0
 30
0.0
  0
VERTEX
  8
views
 10
48.5230799049
 20
-36.12
 30
0.0
  0
VERTEX
  8
views
 10
45.8667838826
 20
-38.87
 30
0.0
  0
SEQEND
  8
views
  0
POLYLINE
  8
views
 62
0
 70
0
 66
1
 10
0.0
 20
0.0
 30
0.0
  0
VERTEX
  8
views
 10
45.8667838826
 20
-75.87
 30
0.0
  0
VERTEX
  8
views
 10
48.5230799049
 20
-78.62
 30
0.0
  0
SEQEND
  8
views
  0
POLYLINE
  8
views
 62
0
 70
0
 66
1
 10
0.0
 20
0.0
 30
0.0
  0
VERTEX
  8
views
 10
48.5230799049
 20
-78.62
 30
0.0
  0
VERTEX
  8
views
 10
51.1793759272
 20
-75.87
 30
0.0
  0
VERTEX
  8
views
 10
48.5230799049
 20
-73.12
 30
0.0
  0
SEQEND
  8
views
  0
POLYLINE
  8
views
 62
0
 70
0
 66
1
 10
0.0
 20
0.0
 30
0.0
  0
VERTEX
  8
views
 10
48.5230799049
 20
-73.12
 30
0.0
  0
VERTEX
  8
views
 10
45.8667838826
 20
-75.87
 30
0.0
  0
SEQEND
  8
views
  0
POLYLINE
  8
views
 62
0
 70
0
 66
1
 10
0.0
 20
0.0
 30
0.0
  0
VERTEX
  8
views
 10
93.5426563585
 20
-43.8787171965
 30
0.0
  0
VERTEX
  8
views
 10
91.9563395501
 20
-44.7094312854
 30
0.0
  0
SEQEND
  8
views
  0
LINE
  8
views
 62
0
 10
42.520690815
 20
-44.7094312924
 30
0.0
 11
91.9563395496
 21
-44.7094312924
 31
0.0
  0
POLYLINE
  8
views
 62
0
 70
0
 66
1
 10
0.0
 20
0.0
 30
0.0
  0
VERTEX
  8
views
 10
42.520690838
 20
-44.7094313015
 30
0.0
  0
VERTEX
  8
views
 10
40.9343740028
 20
-43.8787171965
 30
0.0
  0
SEQEND
  8
views
  0
POLYLINE
  8
views
 62
0
 70
0
 66
1
 10
0.0
 20
0.0
 30
0.0
  0
VERTEX
  8
views
 10
79.5367318773
 20
-38.87
 30
0.0
  0
VERTEX
  8
views
 10
80.8098409371
 20
-35.6880194847
 30
0.0
  0
VERTEX
  8
views
 10
83.8833980956
 20
-34.37
 30
0.0
  0
SEQEND
  8
views
  0
POLYLINE
  8
views
 62
0
 70
0
 66
1
 10
0.0
 20
0.0
 30
0.0
  0
VERTEX
  8
views
 10
83.8833980956
 20
-34.37
 30
0.0
  0
VERTEX
  8
views
 10
87.6477214625
 20
-36.62
 30
0.0
  0
VERTEX
  8
views
 10
87.6477214625
 20
-41.12
 30
0.0
  0
VERTEX
  8
views
 10
83.8833980956
 20
-43.37
 30
0.0
  0
SEQEND
  8
views
  0
POLYLINE
  8
views
 62
0
 70
0
 66
1
 10
0.0
 20
0.0
 30
0.0
  0
VERTEX
  8
views
 10
83.8833980956
 20
-43.37
 30
0.0
  0
VERTEX
  8
views
 10
80.8098409371
 20
-42.0519805153
 30
0.0
  0
VERTEX
  8
views
 10
79.5367318773
 20
-38.87
 30
0.0
  0
SEQEND
  8
views
  0
POLYLINE
  8
views
 62
0
 70
0
 66
1
 10
0.0
 20
0.0
 30
0.0
  0
VERTEX
  8
views
 10
45.7293279572
 20
-38.87
 30
0.0
  0
VERTEX
  8
views
 10
47.002437017
 20
-35.6880194847
 30
0.0
  0
VERTEX
  8
views
 10
50.0759941755
 20
-34.37
 30
0.0
  0
SEQEND
  8
views
  0
POLYLINE
  8
views
 62
0
 70
0
 66
1
 10
0.0
 20
0.0
 30
0.0
  0
VERTEX
  8
views
 10
50.0759941755
 20
-34.37
 30
0.0
  0
VERTEX
  8
views
 10
53.8403175423
 20
-36.62
 30
0.0
  0
VERTEX
  8
views
 10
53.8403175423
 20
-41.12
 30
0.0
  0
VERTEX
  8
views
 10
50.0759941755
 20
-43.37
 30
0.0
  0
SEQEND
  8
views
  0
POLYLINE
  8
views
 62
0
 70
0
 66
1
 10
0.0
 20
0.0
 30
0.0
  0
VERTEX
  8
views
 10
50.0759941755
 20
-43.37
 30
0.0
  0
VERTEX
  8
views
 10
47.002437017
 20
-42.0519805153
 30
0.0
  0
VERTEX
  8
views
 10
45.7293279572
 20
-38.87
 30
0.0
  0
SEQEND
  8
views
  0
ARC
  8
views
 62
0
 10
34.88
 20
-57.37
 30
0.0
 40
14.7875
 50
-0.0
 51
87.0648189155
  0
POLYLINE
  8
views
 62
0
 70
0
 66
1
 10
0.0
 20
0.0
 30
0.0
  0
VERTEX
  8
views
 10
49.6675
 20
-57.37
 30
0.0
  0
VERTEX
  8
views
 10
48.1871917891
 20
-50.9210618102
 30
0.0
  0
VERTEX
  8
views
 10
46.0155745205
 20
-47.640193403
 30
0.0
  0
VERTEX
  8
views
 10
43.9271979854
 20
-45.6730617289
 30
0.0
  0
VERTEX
  8
views
 10
42.520690815
 20
-44.7094313424
 30
0.0
  0
SEQEND
  8
views
  0
ARC
  8
views
 62
0
 10
34.88
 20
-57.37
 30
0.0
 40
14.7875
 50
-87.0648189155
 51
-29.6031509506
  0
ARC
  8
views
 62
0
 10
34.88
 20
-57.37
 30
0.0
 40
14.7875
 50
-8.40869523685e-06
 51
-0.0
  0
ARC
  8
views
 62
0
 10
99.5970303614
 20
-57.37
 30
0.0
 40
14.7875
 50
138.288090173
 51
-138.288090173
  0
POLYLINE
  8
views
 62
0
 70
0
 66
1
 10
0.0
 20
0.0
 30
0.0
  0
VERTEX
  8
views
 10
90.6332851671
 20
-69.1310130769
 30
0.0
  0
VERTEX
  8
views
 10
88.0176837055
 20
-66.5672217128
 30
0.0
  0
VERTEX
  8
views
 10
85.5567286831
 20
-62.0111296916
 30
0.0
  0
VERTEX
  8
views
 10
85.1397577043
 20
-54.2623604295
 30
0.0
  0
VERTEX
  8
views
 10
87.4156126927
 20
-48.9864911983
 30
0.0
  0
VERTEX
  8
views
 10
90.1106028835
 20
-46.0263740339
 30
0.0
  0
VERTEX
  8
views
 10
91.9563395496
 20
-44.7094312844
 30
0.0
  0
SEQEND
  8
views
  0
POLYLINE
  8
views
 62
0
 70
0
 66
1
 10
0.0
 20
0.0
 30
0.0
  0
VERTEX
  8
views
 10
77.9838176067
 20
-75.87
 30
0.0
  0
VERTEX
  8
views
 10
79.2569266665
 20
-79.0519805153
 30
0.0
  0
VERTEX
  8
views
 10
82.330483825
 20
-80.37
 30
0.0
  0
SEQEND
  8
views
  0
POLYLINE
  8
views
 62
0
 70
0
 66
1
 10
0.0
 20
0.0
 30
0.0
  0
VERTEX
  8
views
 10
82.330483825
 20
-80.37
 30
0.0
  0
VERTEX
  8
views
 10
86.0948071918
 20
-78.12
 30
0.0
  0
VERTEX
  8
views
 10
86.0948071918
 20
-73.62
 30
0.0
  0
VERTEX
  8
views
 10
82.330483825
 20
-71.37
 30
0.0
  0
SEQEND
  8
views
  0
POLYLINE
  8
views
 62
0
 70
0
 66
1
 10
0.0
 20
0.0
 30
0.0
  0
VERTEX
  8
views
 10
82.330483825
 20
-71.37
 30
0.0
  0
VERTEX
  8
views
 10
79.2569266665
 20
-72.6880194847
 30
0.0
  0
VERTEX
  8
views
 10
77.9838176067
 20
-75.87
 30
0.0
  0
SEQEND
  8
views
  0
POLYLINE
  8
views
 62
0
 70
0
 66
1
 10
0.0
 20
0.0
 30
0.0
  0
VERTEX
  8
views
 10
44.1764136866
 20
-75.87
 30
0.0
  0
VERTEX
  8
views
 10
45.4495227464
 20
-79.0519805153
 30
0.0
  0
VERTEX
  8
views
 10
48.5230799049
 20
-80.37
 30
0.0
  0
SEQEND
  8
views
  0
POLYLINE
  8
views
 62
0
 70
0
 66
1
 10
0.0
 20
0.0
 30
0.0
  0
VERTEX
  8
views
 10
48.5230799049
 20
-80.37
 30
0.0
  0
VERTEX
  8
views
 10
52.2874032717
 20
-78.12
 30
0.0
  0
VERTEX
  8
views
 10
52.2874032717
 20
-73.62
 30
0.0
  0
VERTEX
  8
views
 10
48.5230799049
 20
-71.37
 30
0.0
  0
SEQEND
  8
views
  0
POLYLINE
  8
views
 62
0
 70
0
 66
1
 10
0.0
 20
0.0
 30
0.0
  0
VERTEX
  8
views
 10
48.5230799049
 20
-71.37
 30
0.0
  0
VERTEX
  8
views
 10
45.4495227464
 20
-72.6880194847
 30
0.0
  0
VERTEX
  8
views
 10
44.1764136866
 20
-75.87
 30
0.0
  0
SEQEND
  8
views
  0
POLYLINE
  8
views
 62
0
 70
0
 66
1
 10
0.0
 20
0.0
 30
0.0
  0
VERTEX
  8
views
 10
77.9838176067
 20
-38.87
 30
0.0
  0
VERTEX
  8
views
 10
79.2569266665
 20
-35.6880194847
 30
0.0
  0
VERTEX
  8
views
 10
82.330483825
 20
-34.37
 30
0.0
  0
SEQEND
  8
views
  0
POLYLINE
  8
views
 62
0
 70
0
 66
1
 10
0.0
 20
0.0
 30
0.0
  0
VERTEX
  8
views
 10
82.330483825
 20
-34.37
 30
0.0
  0
VERTEX
  8
views
 10
86.0948071918
 20
-36.62
 30
0.0
  0
VERTEX
  8
views
 10
86.0948071918
 20
-41.12
 30
0.0
  0
VERTEX
  8
views
 10
82.330483825
 20
-43.37
 30
0.0
  0
SEQEND
  8
views
  0
POLYLINE
  8
views
 62
0
 70
0
 66
1
 10
0.0
 20
0.0
 30
0.0
  0
VERTEX
  8
views
 10
82.330483825
 20
-43.37
 30
0.0
  0
VERTEX
  8
views
 10
79.2569266665
 20
-42.0519805153
 30
0.0
  0
VERTEX
  8
views
 10
77.9838176067
 20
-38.87
 30
0.0
  0
SEQEND
  8
views
  0
POLYLINE
  8
views
 62
0
 70
0
 66
1
 10
0.0
 20
0.0
 30
0.0
  0
VERTEX
  8
views
 10
44.1764136866
 20
-38.87
 30
0.0
  0
VERTEX
  8
views
 10
45.4495227464
 20
-35.6880194847
 30
0.0
  0
VERTEX
  8
views
 10
48.5230799049
 20
-34.37
 30
0.0
  0
SEQEND
  8
views
  0
POLYLINE
  8
views
 62
0
 70
0
 66
1
 10
0.0
 20
0.0
 30
0.0
  0
VERTEX
  8
views
 10
48.5230799049
 20
-34.37
 30
0.0
  0
VERTEX
  8
views
 10
52.2874032717
 20
-36.62
 30
0.0
  0
VERTEX
  8
views
 10
52.2874032717
 20
-41.12
 30
0.0
  0
VERTEX
  8
views
 10
48.5230799049
 20
-43.37
 30
0.0
  0
SEQEND
  8
views
  0
POLYLINE
  8
views
 62
0
 70
0
 66
1
 10
0.0
 20
0.0
 30
0.0
  0
VERTEX
  8
views
 10
48.5230799049
 20
-43.37
 30
0.0
  0
VERTEX
  8
views
 10
45.4495227464
 20
-42.0519805153
 30
0.0
  0
VERTEX
  8
views
 10
44.1764136866
 20
-38.87
 30
0.0
  0
SEQEND
  8
views
  0
LINE
  8
views
 62
0
 10
94.0602944487
 20
-33.3700016391
 30
0.0
 11
40.9343740028
 21
-33.3700037603
 31
0.0
  0
LINE
  8
views
 62
0
 10
94.0602944487
 20
-33.3700016391
 30
0.0
 11
100.375479149
 21
-33.3700051511
 31
0.0
  0
POLYLINE
  8
views
 62
0
 70
0
 66
1
 10
0.0
 20
0.0
 30
0.0
  0
VERTEX
  8
views
 10
40.9343740028
 20
-43.8787194527
 30
0.0
  0
VERTEX
  8
views
 10
42.5206920963
 20
-44.7094342791
 30
0.0
  0
SEQEND
  8
views
  0
LINE
  8
views
 62
0
 10
42.5206920967
 20
-44.7094342831
 30
0.0
 11
91.9563389806
 21
-44.7094323092
 31
0.0
  0
POLYLINE
  8
views
 62
0
 70
0
 66
1
 10
0.0
 20
0.0
 30
0.0
  0
VERTEX
  8
views
 10
91.9563389815
 20
-44.7094323178
 30
0.0
  0
VERTEX
  8
views
 10
94.0602944487
 20
-43.6581549854
 30
0.0
  0
SEQEND
  8
views
  0
LINE
  8
views
 62
0
 10
94.0602944487
 20
-43.6581549854
 30
0.0
 11
94.0602944487
 21
-33.3700016391
 31
0.0
  0
POLYLINE
  8
views
 62
0
 70
0
 66
1
 10
0.0
 20
0.0
 30
0.0
  0
VERTEX
  8
views
 10
69.8784701186
 20
-37.651143322
 30
0.0
  0
VERTEX
  8
views
 10
67.4973357551
 20
-36.1200026997
 30
0.0
  0
SEQEND
  8
views
  0
POLYLINE
  8
views
 62
0
 70
0
 66
1
 10
0.0
 20
0.0
 30
0.0
  0
VERTEX
  8
views
 10
67.4973357551
 20
-36.1200026997
 30
0.0
  0
VERTEX
  8
views
 10
64.8410382035
 20
-38.8700012225
 30
0.0
  0
VERTEX
  8
views
 10
67.4973326964
 20
-41.6200026997
 30
0.0
  0
SEQEND
  8
views
  0
POLYLINE
  8
views
 62
0
 70
0
 66
1
 10
0.0
 20
0.0
 30
0.0
  0
VERTEX
  8
views
 10
67.4973326964
 20
-41.6200026997
 30
0.0
  0
VERTEX
  8
views
 10
69.8784687629
 20
-40.0888647257
 30
0.0
  0
SEQEND
  8
views
  0
POLYLINE
  8
views
 62
0
 70
0
 66
1
 10
0.0
 20
0.0
 30
0.0
  0
VERTEX
  8
views
 10
94.0602944487
 20
-43.6581549854
 30
0.0
  0
VERTEX
  8
views
 10
97.1600938221
 20
-42.7846835031
 30
0.0
  0
VERTEX
  8
views
 10
100.375479149
 20
-42.6030059632
 30
0.0
  0
SEQEND
  8
views
  0
POLYLINE
  8
views
 62
0
 70
0
 66
1
 10
0.0
 20
0.0
 30
0.0
  0
VERTEX
  8
views
 10
42.5206920967
 20
-44.7094342784
 30
0.0
  0
VERTEX
  8
views
 10
44.2684871624
 20
-45.9451846582
 30
0.0
  0
VERTEX
  8
views
 10
46.8513236016
 20
-48.6891292165
 30
0.0
  0
VERTEX
  8
views
 10
49.1408231971
 20
-53.4585996279
 30
0.0
  0
VERTEX
  8
views
 10
49.1943128422
 20
-61.0808795074
 30
0.0
  0
VERTEX
  8
views
 10
46.9056729027
 20
-65.9754283539
 30
0.0
  0
VERTEX
  8
views
 10
44.2937254678
 20
-68.7740338599
 30
0.0
  0
VERTEX
  8
views
 10
42.5206895364
 20
-70.0305717025
 30
0.0
  0
SEQEND
  8
views
  0
POLYLINE
  8
views
 62
0
 70
0
 66
1
 10
0.0
 20
0.0
 30
0.0
  0
VERTEX
  8
views
 10
42.5206895363
 20
-70.0305717022
 30
0.0
  0
VERTEX
  8
views
 10
40.9343740028
 20
-70.8612850597
 30
0.0
  0
SEQEND
  8
views
  0
POLYLINE
  8
views
 62
0
 70
0
 66
1
 10
0.0
 20
0.0
 30
0.0
  0
VERTEX
  8
views
 10
91.9563389806
 20
-44.7094323162
 30
0.0
  0
VERTEX
  8
views
 10
90.5659011567
 20
-45.6606516257
 30
0.0
  0
VERTEX
  8
views
 10
88.4781235601
 20
-47.6211516158
 30
0.0
  0
VERTEX
  8
views
 10
86.3058430143
 20
-50.8881424494
 30
0.0
  0
VERTEX
  8
views
 10
84.8095303614
 20
-57.3700015179
 30
0.0
  0
SEQEND
  8
views
  0
POLYLINE
  8
views
 62
0
 70
0
 66
1
 10
0.0
 20
0.0
 30
0.0
  0
VERTEX
  8
views
 10
84.8095303614
 20
-57.3700015179
 30
0.0
  0
VERTEX
  8
views
 10
86.2895206939
 20
-63.8182836095
 30
0.0
  0
VERTEX
  8
views
 10
88.4612259851
 20
-67.0995447064
 30
0.0
  0
VERTEX
  8
views
 10
90.549576835
 20
-69.0667415665
 30
0.0
  0
VERTEX
  8
views
 10
91.9563400823
 20
-70.030569727
 30
0.0
  0
SEQEND
  8
views
  0
LINE
  8
views
 62
0
 10
42.5206895364
 20
-70.0305716983
 30
0.0
 11
91.9563400823
 21
-70.0305697244
 31
0.0
  0
LINE
  8
views
 62
0
 10
84.8095303614
 20
-57.3700015254
 30
0.0
 11
84.8095303614
 21
-57.370002309
 31
0.0
  0
LINE
  8
views
 62
0
 10
40.9343740028
 20
-81.3700037603
 30
0.0
 11
94.0602944487
 21
-81.3700016391
 31
0.0
  0
LINE
  8
views
 62
0
 10
94.0602944487
 20
-81.3700016391
 30
0.0
 11
100.375479149
 21
-81.3700051511
 31
0.0
  0
POLYLINE
  8
views
 62
0
 70
0
 66
1
 10
0.0
 20
0.0
 30
0.0
  0
VERTEX
  8
views
 10
100.375479149
 20
-72.1369981576
 30
0.0
  0
VERTEX
  8
views
 10
97.1600938221
 20
-71.9553191872
 30
0.0
  0
VERTEX
  8
views
 10
94.0602944487
 20
-71.0818463258
 30
0.0
  0
SEQEND
  8
views
  0
LINE
  8
views
 62
0
 10
94.0602944487
 20
-81.3700016391
 30
0.0
 11
94.0602944487
 21
-71.0818463258
 31
0.0
  0
POLYLINE
  8
views
 62
0
 70
0
 66
1
 10
0.0
 20
0.0
 30
0.0
  0
VERTEX
  8
views
 10
94.0602944487
 20
-71.0818463258
 30
0.0
  0
VERTEX
  8
views
 10
91.9563400831
 20
-70.0305697255
 30
0.0
  0
SEQEND
  8
views
  0
POLYLINE
  8
views
 62
0
 70
0
 66
1
 10
0.0
 20
0.0
 30
0.0
  0
VERTEX
  8
views
 10
73.0360642533
 20
-34.4423846271
 30
0.0
  0
VERTEX
  8
views
 10
72.2596071582
 20
-34.3700053481
 30
0.0
  0
SEQEND
  8
views
  0
POLYLINE
  8
views
 62
0
 70
0
 66
1
 10
0.0
 20
0.0
 30
0.0
  0
VERTEX
  8
views
 10
72.2596071582
 20
-34.3700053481
 30
0.0
  0
VERTEX
  8
views
 10
68.4952825401
 20
-36.6200032547
 30
0.0
  0
VERTEX
  8
views
 10
68.4952800376
 20
-41.1200032547
 30
0.0
  0
VERTEX
  8
views
 10
72.2596021531
 20
-43.3700053481
 30
0.0
  0
SEQEND
  8
views
  0
POLYLINE
  8
views
 62
0
 70
0
 66
1
 10
0.0
 20
0.0
 30
0.0
  0
VERTEX
  8
views
 10
72.2596021531
 20
-43.3700053481
 30
0.0
  0
VERTEX
  8
views
 10
73.0360593287
 20
-43.2976269326
 30
0.0
  0
SEQEND
  8
views
  0
POLYLINE
  8
views
 62
0
 70
0
 66
1
 10
0.0
 20
0.0
 30
0.0
  0
VERTEX
  8
views
 10
73.0360593287
 20
-80.2976269326
 30
0.0
  0
VERTEX
  8
views
 10
72.2596021531
 20
-80.3700053481
 30
0.0
  0
SEQEND
  8
views
  0
POLYLINE
  8
views
 62
0
 70
0
 66
1
 10
0.0
 20
0.0
 30
0.0
  0
VERTEX
  8
views
 10
72.2596021531
 20
-80.3700053481
 30
0.0
  0
VERTEX
  8
views
 10
68.4952800376
 20
-78.1200032547
 30
0.0
  0
VERTEX
  8
views
 10
68.4952825401
 20
-73.6200032547
 30
0.0
  0
VERTEX
  8
views
 10
72.2596071582
 20
-71.3700053481
 30
0.0
  0
SEQEND
  8
views
  0
POLYLINE
  8
views
 62
0
 70
0
 66
1
 10
0.0
 20
0.0
 30
0.0
  0
VERTEX
  8
views
 10
72.2596071582
 20
-71.3700053481
 30
0.0
  0
VERTEX
  8
views
 10
73.0360642533
 20
-71.4423846271
 30
0.0
  0
SEQEND
  8
views
  0
POLYLINE
  8
views
 62
0
 70
0
 66
1
 10
0.0
 20
0.0
 30
0.0
  0
VERTEX
  8
views
 10
69.8784701186
 20
-74.651143322
 30
0.0
  0
VERTEX
  8
views
 10
67.4973357551
 20
-73.1200026997
 30
0.0
  0
SEQEND
  8
views
  0
POLYLINE
  8
views
 62
0
 70
0
 66
1
 10
0.0
 20
0.0
 30
0.0
  0
VERTEX
  8
views
 10
67.4973357551
 20
-73.1200026997
 30
0.0
  0
VERTEX
  8
views
 10
64.8410382035
 20
-75.8700012225
 30
0.0
  0
VERTEX
  8
views
 10
67.4973326964
 20
-78.6200026997
 30
0.0
  0
SEQEND
  8
views
  0
POLYLINE
  8
views
 62
0
 70
0
 66
1
 10
0.0
 20
0.0
 30
0.0
  0
VERTEX
  8
views
 10
67.4973326964
 20
-78.6200026997
 30
0.0
  0
VERTEX
  8
views
 10
69.8784687629
 20
-77.0888647257
 30
0.0
  0
SEQEND
  8
views
  0
LINE
  8
views
 62
0
 10
75.5397691599
 20
-75.87
 30
0.0
 11
72.0120836042
 21
-75.87
 31
0.0
  0
LINE
  8
views
 62
0
 10
75.5397691599
 20
-38.87
 30
0.0
 11
72.0120836042
 21
-38.87
 31
0.0
  0
LINE
  8
views
 62
0
 10
41.7323652398
 20
-38.87
 30
0.0
 11
35.7774172899
 21
-38.87
 31
0.0
  0
LINE
  8
views
 62
0
 10
41.7323652398
 20
-75.87
 30
0.0
 11
35.7774172899
 21
-75.87
 31
0.0
  0
LINE
  8
views
 62
0
 10
79.6741878027
 20
-75.87
 30
0.0
 11
74.9119173728
 21
-75.87
 31
0.0
  0
LINE
  8
views
 62
0
 10
64.9512519004
 20
-75.87
 30
0.0
 11
58.6360671999
 21
-75.87
 31
0.0
  0
LINE
  8
views
 62
0
 10
64.9512519004
 20
-38.87
 30
0.0
 11
58.6360671999
 21
-38.87
 31
0.0
  0
LINE
  8
views
 62
0
 10
79.6741878027
 20
-38.87
 30
0.0
 11
74.9119173728
 21
-38.87
 31
0.0
  0
LINE
  8
views
 62
0
 10
45.8667838826
 20
-38.87
 30
0.0
 11
41.1045134527
 21
-38.87
 31
0.0
  0
LINE
  8
views
 62
0
 10
45.8667838826
 20
-75.87
 30
0.0
 11
41.1045134527
 21
-75.87
 31
0.0
  0
LINE
  8
views
 62
0
 10
79.5367318773
 20
-75.87
 30
0.0
 11
77.9838176067
 21
-75.87
 31
0.0
  0
LINE
  8
views
 62
0
 10
45.7293279572
 20
-75.87
 30
0.0
 11
44.1764136866
 21
-75.87
 31
0.0
  0
LINE
  8
views
 62
0
 10
79.5367318773
 20
-38.87
 30
0.0
 11
77.9838176067
 21
-38.87
 31
0.0
  0
LINE
  8
views
 62
0
 10
45.7293279572
 20
-38.87
 30
0.0
 11
44.1764136866
 21
-38.87
 31
0.0
  0
LINE
  8
views
 62
0
 10
74.1861635831
 20
-77.97
 30
0.0
 11
77.5682133951
 21
-77.97
 31
0.0
  0
LINE
  8
views
 62
0
 10
74.1861635832
 20
-73.77
 30
0.0
 11
77.5682133951
 21
-73.77
 31
0.0
  0
LINE
  8
views
 62
0
 10
74.1861635831
 20
-40.97
 30
0.0
 11
77.5682133951
 21
-40.97
 31
0.0
  0
LINE
  8
views
 62
0
 10
74.1861635831
 20
-36.77
 30
0.0
 11
77.5682133951
 21
-36.77
 31
0.0
  0
LINE
  8
views
 62
0
 10
37.9514972688
 20
-40.97
 30
0.0
 11
43.760809475
 21
-40.97
 31
0.0
  0
LINE
  8
views
 62
0
 10
37.9514972688
 20
-36.77
 30
0.0
 11
43.760809475
 21
-36.77
 31
0.0
  0
LINE
  8
views
 62
0
 10
37.9514972688
 20
-77.97
 30
0.0
 11
43.760809475
 21
-77.97
 31
0.0
  0
LINE
  8
views
 62
0
 10
37.9514972688
 20
-73.77
 30
0.0
 11
43.760809475
 21
-73.77
 31
0.0
  0
LINE
  8
views
 62
0
 10
77.5682133951
 20
-78.62
 30
0.0
 11
82.330483825
 21
-78.62
 31
0.0
  0
LINE
  8
views
 62
0
 10
77.5682133951
 20
-73.12
 30
0.0
 11
82.330483825
 21
-73.12
 31
0.0
  0
LINE
  8
views
 62
0
 10
60.6645114351
 20
-77.97
 30
0.0
 11
66.9796961356
 21
-77.97
 31
0.0
  0
LINE
  8
views
 62
0
 10
60.6645114351
 20
-73.77
 30
0.0
 11
66.9796961356
 21
-73.77
 31
0.0
  0
LINE
  8
views
 62
0
 10
60.6645114351
 20
-40.97
 30
0.0
 11
66.9796961356
 21
-40.97
 31
0.0
  0
LINE
  8
views
 62
0
 10
60.6645114351
 20
-36.77
 30
0.0
 11
66.9796961356
 21
-36.77
 31
0.0
  0
LINE
  8
views
 62
0
 10
77.5682133951
 20
-41.62
 30
0.0
 11
82.330483825
 21
-41.62
 31
0.0
  0
LINE
  8
views
 62
0
 10
77.5682133951
 20
-36.12
 30
0.0
 11
82.330483825
 21
-36.12
 31
0.0
  0
LINE
  8
views
 62
0
 10
43.760809475
 20
-41.62
 30
0.0
 11
48.5230799049
 21
-41.62
 31
0.0
  0
LINE
  8
views
 62
0
 10
43.760809475
 20
-36.12
 30
0.0
 11
48.5230799049
 21
-36.12
 31
0.0
  0
LINE
  8
views
 62
0
 10
43.760809475
 20
-78.62
 30
0.0
 11
48.5230799049
 21
-78.62
 31
0.0
  0
LINE
  8
views
 62
0
 10
43.760809475
 20
-73.12
 30
0.0
 11
48.5230799049
 21
-73.12
 31
0.0
  0
LINE
  8
views
 62
0
 10
82.330483825
 20
-80.37
 30
0.0
 11
83.8833980956
 21
-80.37
 31
0.0
  0
LINE
  8
views
 62
0
 10
82.330483825
 20
-71.37
 30
0.0
 11
83.8833980956
 21
-71.37
 31
0.0
  0
LINE
  8
views
 62
0
 10
48.5230799049
 20
-80.37
 30
0.0
 11
50.0759941755
 21
-80.37
 31
0.0
  0
LINE
  8
views
 62
0
 10
48.5230799049
 20
-71.37
 30
0.0
 11
50.0759941755
 21
-71.37
 31
0.0
  0
LINE
  8
views
 62
0
 10
82.330483825
 20
-43.37
 30
0.0
 11
83.8833980956
 21
-43.37
 31
0.0
  0
LINE
  8
views
 62
0
 10
82.330483825
 20
-34.37
 30
0.0
 11
83.8833980956
 21
-34.37
 31
0.0
  0
LINE
  8
views
 62
0
 10
48.5230799049
 20
-43.37
 30
0.0
 11
50.0759941755
 21
-43.37
 31
0.0
  0
LINE
  8
views
 62
0
 10
48.5230799049
 20
-34.37
 30
0.0
 11
50.0759941755
 21
-34.37
 31
0.0
  0
LINE
  8
views
 62
0
 10
67.4973326964
 20
-41.6200026997
 30
0.0
 11
72.2596031263
 21
-41.6200053481
 31
0.0
  0
LINE
  8
views
 62
0
 10
67.4973357551
 20
-36.1200026997
 30
0.0
 11
72.259606185
 21
-36.1200053481
 31
0.0
  0
LINE
  8
views
 62
0
 10
72.2596021531
 20
-43.3700053481
 30
0.0
 11
73.8125164237
 21
-43.3700062117
 31
0.0
  0
LINE
  8
views
 62
0
 10
72.2596071582
 20
-34.3700053481
 30
0.0
 11
73.8125214288
 21
-34.3700062117
 31
0.0
  0
LINE
  8
views
 62
0
 10
72.2596021531
 20
-80.3700053481
 30
0.0
 11
73.8125164237
 21
-80.3700062117
 31
0.0
  0
LINE
  8
views
 62
0
 10
72.2596071582
 20
-71.3700053481
 30
0.0
 11
73.8125214288
 21
-71.3700062117
 31
0.0
  0
LINE
  8
views
 62
0
 10
67.4973326964
 20
-78.6200026997
 30
0.0
 11
72.2596031263
 21
-78.6200053481
 31
0.0
  0
LINE
  8
views
 62
0
 10
67.4973357551
 20
-73.1200026997
 30
0.0
 11
72.259606185
 21
-73.1200053481
 31
0.0
  0
ENDBLK
  0
BLOCK
  8
views
  2
SHAPE2DVIEW002
 70
0
 10
0.0
 20
0.0
 30
0.0
  3
SHAPE2DVIEW002
  0
LINE
  8
views
 62
0
 10
35.7964667431
 20
-113.999996429
 30
0.0
 11
90.7964667431
 21
-113.999994308
 31
0.0
  0
POLYLINE
  8
views
 62
0
 70
0
 66
1
 10
0.0
 20
0.0
 30
0.0
  0
VERTEX
  8
views
 10
88.6182922006
 20
-125.339424987
 30
0.0
  0
VERTEX
  8
views
 10
90.7964671399
 20
-124.288147654
 30
0.0
  0
SEQEND
  8
views
  0
POLYLINE
  8
views
 62
0
 70
0
 66
1
 10
0.0
 20
0.0
 30
0.0
  0
VERTEX
  8
views
 10
90.7964671399
 20
-124.288147654
 30
0.0
  0
VERTEX
  8
views
 10
90.7964670992
 20
-123.23299512
 30
0.0
  0
SEQEND
  8
views
  0
LINE
  8
views
 62
0
 10
90.7964667431
 20
-113.999994308
 30
0.0
 11
90.7964670992
 21
-123.23299512
 31
0.0
  0
POLYLINE
  8
views
 62
0
 70
0
 66
1
 10
0.0
 20
0.0
 30
0.0
  0
VERTEX
  8
views
 10
35.7964673562
 20
-129.896650152
 30
0.0
  0
VERTEX
  8
views
 10
37.6605531056
 20
-133.771796052
 30
0.0
  0
VERTEX
  8
views
 10
38.2997046988
 20
-137.999993462
 30
0.0
  0
VERTEX
  8
views
 10
37.6605534317
 20
-142.228190902
 30
0.0
  0
VERTEX
  8
views
 10
35.7964679812
 20
-146.103336888
 30
0.0
  0
SEQEND
  8
views
  0
LINE
  8
views
 62
0
 10
35.7964673562
 20
-129.896650152
 30
0.0
 11
35.7964667431
 21
-113.999996429
 31
0.0
  0
LINE
  8
views
 62
0
 10
35.7964685943
 20
-161.999996429
 30
0.0
 11
35.7964679812
 21
-146.103336888
 31
0.0
  0
LINE
  8
views
 62
0
 10
90.7964685943
 20
-161.999994308
 30
0.0
 11
35.7964685943
 21
-161.999996429
 31
0.0
  0
LINE
  8
views
 62
0
 10
90.7964682382
 20
-152.766987314
 30
0.0
 11
90.7964685943
 21
-161.999994308
 31
0.0
  0
POLYLINE
  8
views
 62
0
 70
0
 66
1
 10
0.0
 20
0.0
 30
0.0
  0
VERTEX
  8
views
 10
74.6814116631
 20
-137.999991466
 30
0.0
  0
VERTEX
  8
views
 10
75.4306947657
 20
-133.430401711
 30
0.0
  0
VERTEX
  8
views
 10
77.6051993445
 20
-129.308115406
 30
0.0
  0
VERTEX
  8
views
 10
80.9920696508
 20
-126.036650824
 30
0.0
  0
VERTEX
  8
views
 10
85.2597750817
 20
-123.936241848
 30
0.0
  0
VERTEX
  8
views
 10
89.9905627188
 20
-123.21249123
 30
0.0
  0
SEQEND
  8
views
  0
POLYLINE
  8
views
 62
0
 70
0
 66
1
 10
0.0
 20
0.0
 30
0.0
  0
VERTEX
  8
views
 10
89.9905627188
 20
-123.21249123
 30
0.0
  0
VERTEX
  8
views
 10
90.7964670992
 20
-123.23299512
 30
0.0
  0
SEQEND
  8
views
  0
POLYLINE
  8
views
 62
0
 70
0
 66
1
 10
0.0
 20
0.0
 30
0.0
  0
VERTEX
  8
views
 10
90.7964682382
 20
-152.766987314
 30
0.0
  0
VERTEX
  8
views
 10
89.990553643
 20
-152.78749123
 30
0.0
  0
SEQEND
  8
views
  0
POLYLINE
  8
views
 62
0
 70
0
 66
1
 10
0.0
 20
0.0
 30
0.0
  0
VERTEX
  8
views
 10
89.990553643
 20
-152.78749123
 30
0.0
  0
VERTEX
  8
views
 10
85.2597683934
 20
-152.063738318
 30
0.0
  0
VERTEX
  8
views
 10
80.9920656144
 20
-149.963328433
 30
0.0
  0
VERTEX
  8
views
 10
77.6051976129
 20
-146.691864242
 30
0.0
  0
VERTEX
  8
views
 10
75.4306944868
 20
-142.56957932
 30
0.0
  0
VERTEX
  8
views
 10
74.6814116631
 20
-137.999991466
 30
0.0
  0
SEQEND
  8
views
  0
CIRCLE
  8
views
 62
0
 10
63.2964669552
 20
-119.499995368
 30
0.0
 40
4.5
  0
CIRCLE
  8
views
 62
0
 10
63.2964683822
 20
-156.499995368
 30
0.0
 40
4.5
  0
POLYLINE
  8
views
 62
0
 70
0
 66
1
 10
0.0
 20
0.0
 30
0.0
  0
VERTEX
  8
views
 10
88.6182921996
 20
-125.339424985
 30
0.0
  0
VERTEX
  8
views
 10
86.1291327758
 20
-126.290643731
 30
0.0
  0
VERTEX
  8
views
 10
83.1043809738
 20
-128.251143257
 30
0.0
  0
VERTEX
  8
views
 10
80.1100557244
 20
-131.51813369
 30
0.0
  0
VERTEX
  8
views
 10
78.084366407
 20
-137.999992503
 30
0.0
  0
SEQEND
  8
views
  0
POLYLINE
  8
views
 62
0
 70
0
 66
1
 10
0.0
 20
0.0
 30
0.0
  0
VERTEX
  8
views
 10
78.084366407
 20
-137.999992503
 30
0.0
  0
VERTEX
  8
views
 10
80.0878366797
 20
-144.448274847
 30
0.0
  0
VERTEX
  8
views
 10
83.0807063431
 20
-147.729536344
 30
0.0
  0
VERTEX
  8
views
 10
86.1042164422
 20
-149.696733667
 30
0.0
  0
VERTEX
  8
views
 10
88.6182943168
 20
-150.660562396
 30
0.0
  0
SEQEND
  8
views
  0
CIRCLE
  8
views
 62
0
 10
63.2964669552
 20
-119.499995368
 30
0.0
 40
2.75
  0
POLYLINE
  8
views
 62
0
 70
0
 66
1
 10
0.0
 20
0.0
 30
0.0
  0
VERTEX
  8
views
 10
90.7964682382
 20
-152.766987314
 30
0.0
  0
VERTEX
  8
views
 10
90.7964681975
 20
-151.711838995
 30
0.0
  0
SEQEND
  8
views
  0
POLYLINE
  8
views
 62
0
 70
0
 66
1
 10
0.0
 20
0.0
 30
0.0
  0
VERTEX
  8
views
 10
90.7964681975
 20
-151.711838995
 30
0.0
  0
VERTEX
  8
views
 10
88.6182943176
 20
-150.660562394
 30
0.0
  0
SEQEND
  8
views
  0
CIRCLE
  8
views
 62
0
 10
63.2964683822
 20
-156.499995368
 30
0.0
 40
2.75
  0
LINE
  8
views
 62
0
 10
35.7964685943
 20
-161.999992957
 30
0.0
 11
35.7964676687
 21
-161.999992957
 31
0.0
  0
LINE
  8
views
 62
0
 10
35.7964676687
 20
-113.999996429
 30
0.0
 11
35.7964676687
 21
-113.999992957
 31
0.0
  0
LINE
  8
views
 62
0
 10
35.7964676687
 20
-151.711838627
 30
0.0
 11
35.7964676687
 21
-129.896650613
 31
0.0
  0
LINE
  8
views
 62
0
 10
35.7964676687
 20
-161.999992957
 30
0.0
 11
35.7964676687
 21
-151.711838627
 31
0.0
  0
LINE
  8
views
 62
0
 10
90.7964676687
 20
-151.711838788
 30
0.0
 11
90.7964676687
 21
-151.49127576
 31
0.0
  0
POLYLINE
  8
views
 62
0
 70
0
 66
1
 10
0.0
 20
0.0
 30
0.0
  0
VERTEX
  8
views
 10
89.1541916581
 20
-150.660561669
 30
0.0
  0
VERTEX
  8
views
 10
90.7964676687
 20
-151.49127576
 30
0.0
  0
SEQEND
  8
views
  0
LINE
  8
views
 62
0
 10
88.6182905805
 20
-150.660561664
 30
0.0
 11
89.1541916578
 21
-150.660561664
 31
0.0
  0
POLYLINE
  8
views
 62
0
 70
0
 66
1
 10
0.0
 20
0.0
 30
0.0
  0
VERTEX
  8
views
 10
61.1964676687
 20
-156.499992957
 30
0.0
  0
VERTEX
  8
views
 10
64.346467669
 20
-158.318646304
 30
0.0
  0
VERTEX
  8
views
 10
64.3464676683
 20
-154.681339609
 30
0.0
  0
VERTEX
  8
views
 10
61.1964676687
 20
-156.499992957
 30
0.0
  0
SEQEND
  8
views
  0
POLYLINE
  8
views
 62
0
 70
0
 66
1
 10
0.0
 20
0.0
 30
0.0
  0
VERTEX
  8
views
 10
90.7964676687
 20
-151.49127576
 30
0.0
  0
VERTEX
  8
views
 10
90.7964676687
 20
-147.839384412
 30
0.0
  0
SEQEND
  8
views
  0
LINE
  8
views
 62
0
 10
90.7964676687
 20
-128.160607045
 30
0.0
 11
90.7964676687
 21
-147.839384412
 31
0.0
  0
POLYLINE
  8
views
 62
0
 70
0
 66
1
 10
0.0
 20
0.0
 30
0.0
  0
VERTEX
  8
views
 10
90.7964676687
 20
-128.160607045
 30
0.0
  0
VERTEX
  8
views
 10
90.7964676687
 20
-124.508710153
 30
0.0
  0
SEQEND
  8
views
  0
LINE
  8
views
 62
0
 10
90.7964676687
 20
-124.508710153
 30
0.0
 11
90.7964676687
 21
-113.999992957
 31
0.0
  0
LINE
  8
views
 62
0
 10
35.7964676687
 20
-113.999992957
 30
0.0
 11
90.7964676687
 21
-113.999992957
 31
0.0
  0
POLYLINE
  8
views
 62
0
 70
0
 66
1
 10
0.0
 20
0.0
 30
0.0
  0
VERTEX
  8
views
 10
61.1964676687
 20
-119.499992957
 30
0.0
  0
VERTEX
  8
views
 10
64.3464676683
 20
-117.681339609
 30
0.0
  0
VERTEX
  8
views
 10
64.346467669
 20
-121.318646304
 30
0.0
  0
VERTEX
  8
views
 10
61.1964676687
 20
-119.499992957
 30
0.0
  0
SEQEND
  8
views
  0
POLYLINE
  8
views
 62
0
 70
0
 66
1
 10
0.0
 20
0.0
 30
0.0
  0
VERTEX
  8
views
 10
90.7964676687
 20
-124.508710153
 30
0.0
  0
VERTEX
  8
views
 10
89.1541916624
 20
-125.339424242
 30
0.0
  0
SEQEND
  8
views
  0
LINE
  8
views
 62
0
 10
88.6182934658
 20
-125.339424249
 30
0.0
 11
89.1541916618
 21
-125.339424249
 31
0.0
  0
POLYLINE
  8
views
 62
0
 70
0
 66
1
 10
0.0
 20
0.0
 30
0.0
  0
VERTEX
  8
views
 10
90.7964676687
 20
-128.160607045
 30
0.0
  0
VERTEX
  8
views
 10
88.5166925246
 20
-131.74417929
 30
0.0
  0
VERTEX
  8
views
 10
87.3267051461
 20
-135.854505311
 30
0.0
  0
VERTEX
  8
views
 10
87.3267051461
 20
-140.145486414
 30
0.0
  0
VERTEX
  8
views
 10
88.5166925246
 20
-144.255812343
 30
0.0
  0
VERTEX
  8
views
 10
90.7964676687
 20
-147.839384412
 30
0.0
  0
SEQEND
  8
views
  0
POLYLINE
  8
views
 62
0
 70
0
 66
1
 10
0.0
 20
0.0
 30
0.0
  0
VERTEX
  8
views
 10
89.1541916578
 20
-150.660561669
 30
0.0
  0
VERTEX
  8
views
 10
88.3168868014
 20
-149.07398376
 30
0.0
  0
VERTEX
  8
views
 10
86.2981486614
 20
-145.376463913
 30
0.0
  0
VERTEX
  8
views
 10
84.8908340624
 20
-138.15106687
 30
0.0
  0
VERTEX
  8
views
 10
86.2555242308
 20
-130.729807901
 30
0.0
  0
VERTEX
  8
views
 10
88.2981389263
 20
-126.953103779
 30
0.0
  0
VERTEX
  8
views
 10
89.1541916618
 20
-125.339424241
 30
0.0
  0
SEQEND
  8
views
  0
LINE
  8
views
 62
0
 10
31.4259962544
 20
-112.599996469
 30
0.0
 11
31.4259962544
 21
-163.399996469
 31
0.0
  0
LINE
  8
views
 62
0
 10
98.0841216837
 20
-112.599997683
 30
0.0
 11
98.0841216837
 21
-163.399997683
 31
0.0
  0
LINE
  8
views
 62
0
 10
31.4259962544
 20
-112.599996469
 30
0.0
 11
95.8239637867
 21
-112.599996469
 31
0.0
  0
LINE
  8
views
 62
0
 10
31.4259962544
 20
-163.399996469
 30
0.0
 11
95.8239637867
 21
-163.399996469
 31
0.0
  0
LINE
  8
views
 62
0
 10
95.8239637867
 20
-112.599996469
 30
0.0
 11
95.8239637867
 21
-163.399996469
 31
0.0
  0
LINE
  8
views
 62
0
 10
95.8239637867
 20
-112.599996469
 30
0.0
 11
98.0841216837
 21
-112.599997683
 31
0.0
  0
LINE
  8
views
 62
0
 10
95.8239637867
 20
-163.399996469
 30
0.0
 11
98.0841216837
 21
-163.399997683
 31
0.0
  0
LINE
  8
views
 62
0
 10
78.084366407
 20
-137.99999251
 30
0.0
 11
74.6814116631
 21
-137.999991466
 31
0.0
  0
LINE
  8
views
 62
0
 10
90.7964667431
 20
-113.999994308
 30
0.0
 11
35.7964667431
 21
-113.999996429
 31
0.0
  0
POLYLINE
  8
views
 62
0
 70
0
 66
1
 10
0.0
 20
0.0
 30
0.0
  0
VERTEX
  8
views
 10
35.7964671484
 20
-124.508712121
 30
0.0
  0
VERTEX
  8
views
 10
37.4387445172
 20
-125.339426948
 30
0.0
  0
SEQEND
  8
views
  0
LINE
  8
views
 62
0
 10
35.7964671484
 20
-124.508712121
 30
0.0
 11
35.7964667431
 21
-113.999996429
 31
0.0
  0
LINE
  8
views
 62
0
 10
37.4387445176
 20
-125.339426952
 30
0.0
 11
88.6182921996
 21
-125.339424978
 31
0.0
  0
LINE
  8
views
 62
0
 10
90.7964671399
 20
-124.288147654
 30
0.0
 11
90.7964667431
 21
-113.999994308
 31
0.0
  0
CIRCLE
  8
views
 62
0
 10
63.2964669552
 20
-119.499995368
 30
0.0
 40
2.75
  0
POLYLINE
  8
views
 62
0
 70
0
 66
1
 10
0.0
 20
0.0
 30
0.0
  0
VERTEX
  8
views
 10
90.7964670992
 20
-123.23299512
 30
0.0
  0
VERTEX
  8
views
 10
90.7964670984
 20
-123.212491477
 30
0.0
  0
SEQEND
  8
views
  0
POLYLINE
  8
views
 62
0
 70
0
 66
1
 10
0.0
 20
0.0
 30
0.0
  0
VERTEX
  8
views
 10
90.7964670984
 20
-123.212491477
 30
0.0
  0
VERTEX
  8
views
 10
90.7964670992
 20
-123.23299512
 30
0.0
  0
SEQEND
  8
views
  0
POLYLINE
  8
views
 62
0
 70
0
 66
1
 10
0.0
 20
0.0
 30
0.0
  0
VERTEX
  8
views
 10
35.7964673562
 20
-129.896650152
 30
0.0
  0
VERTEX
  8
views
 10
35.7964672348
 20
-126.750444843
 30
0.0
  0
VERTEX
  8
views
 10
35.7964671484
 20
-124.508712121
 30
0.0
  0
SEQEND
  8
views
  0
POLYLINE
  8
views
 62
0
 70
0
 66
1
 10
0.0
 20
0.0
 30
0.0
  0
VERTEX
  8
views
 10
37.4387445176
 20
-125.339426947
 30
0.0
  0
VERTEX
  8
views
 10
38.2767277123
 20
-126.926985015
 30
0.0
  0
VERTEX
  8
views
 10
40.2953663512
 20
-130.62495741
 30
0.0
  0
VERTEX
  8
views
 10
41.7021076622
 20
-137.849788911
 30
0.0
  0
VERTEX
  8
views
 10
40.3376980808
 20
-145.269458679
 30
0.0
  0
VERTEX
  8
views
 10
38.2955277281
 20
-149.045825932
 30
0.0
  0
VERTEX
  8
views
 10
37.4387428435
 20
-150.660564371
 30
0.0
  0
SEQEND
  8
views
  0
POLYLINE
  8
views
 62
0
 70
0
 66
1
 10
0.0
 20
0.0
 30
0.0
  0
VERTEX
  8
views
 10
35.796468189
 20
-151.491277728
 30
0.0
  0
VERTEX
  8
views
 10
35.7964681026
 20
-149.249543431
 30
0.0
  0
VERTEX
  8
views
 10
35.7964679812
 20
-146.103336888
 30
0.0
  0
SEQEND
  8
views
  0
POLYLINE
  8
views
 62
0
 70
0
 66
1
 10
0.0
 20
0.0
 30
0.0
  0
VERTEX
  8
views
 10
37.4387428433
 20
-150.660564371
 30
0.0
  0
VERTEX
  8
views
 10
35.796468189
 20
-151.491277728
 30
0.0
  0
SEQEND
  8
views
  0
LINE
  8
views
 62
0
 10
37.4387428435
 20
-150.660564367
 30
0.0
 11
88.6182943168
 21
-150.660562393
 31
0.0
  0
LINE
  8
views
 62
0
 10
35.7964685943
 20
-161.999996429
 30
0.0
 11
35.796468189
 21
-151.491277728
 31
0.0
  0
LINE
  8
views
 62
0
 10
35.7964685943
 20
-161.999996429
 30
0.0
 11
90.7964685943
 21
-161.999994308
 31
0.0
  0
POLYLINE
  8
views
 62
0
 70
0
 66
1
 10
0.0
 20
0.0
 30
0.0
  0
VERTEX
  8
views
 10
90.7964682382
 20
-152.766987314
 30
0.0
  0
VERTEX
  8
views
 10
90.796468239
 20
-152.787491477
 30
0.0
  0
SEQEND
  8
views
  0
POLYLINE
  8
views
 62
0
 70
0
 66
1
 10
0.0
 20
0.0
 30
0.0
  0
VERTEX
  8
views
 10
90.796468239
 20
-152.787491477
 30
0.0
  0
VERTEX
  8
views
 10
90.7964682382
 20
-152.766987314
 30
0.0
  0
SEQEND
  8
views
  0
LINE
  8
views
 62
0
 10
90.7964685943
 20
-161.999994308
 30
0.0
 11
90.7964681975
 21
-151.711838995
 31
0.0
  0
CIRCLE
  8
views
 62
0
 10
63.2964669552
 20
-119.499995368
 30
0.0
 40
4.5
  0
CIRCLE
  8
views
 62
0
 10
63.2964683822
 20
-156.499995368
 30
0.0
 40
4.5
  0
CIRCLE
  8
views
 62
0
 10
63.2964683822
 20
-156.499995368
 30
0.0
 40
2.75
  0
LINE
  8
views
 62
0
 10
90.7964676687
 20
-161.999996469
 30
0.0
 11
35.7964676687
 21
-161.999996469
 31
0.0
  0
LINE
  8
views
 62
0
 10
35.7964676687
 20
-161.999996469
 30
0.0
 11
35.7964676687
 21
-161.999992957
 31
0.0
  0
LINE
  8
views
 62
0
 10
90.7964676687
 20
-161.999992957
 30
0.0
 11
35.7964685943
 21
-161.999992957
 31
0.0
  0
LINE
  8
views
 62
0
 10
90.7964676687
 20
-161.999996469
 30
0.0
 11
90.7964676687
 21
-161.999992957
 31
0.0
  0
LINE
  8
views
 62
0
 10
90.7964676687
 20
-113.999996469
 30
0.0
 11
90.7964676687
 21
-161.999996469
 31
0.0
  0
LINE
  8
views
 62
0
 10
35.7964676687
 20
-161.999996469
 30
0.0
 11
35.7964676687
 21
-113.999996469
 31
0.0
  0
LINE
  8
views
 62
0
 10
35.7964676687
 20
-113.999996469
 30
0.0
 11
90.7964676687
 21
-113.999996469
 31
0.0
  0
POLYLINE
  8
views
 62
0
 70
0
 66
1
 10
0.0
 20
0.0
 30
0.0
  0
VERTEX
  8
views
 10
78.0464676687
 20
-156.499996469
 30
0.0
  0
VERTEX
  8
views
 10
80.7964676687
 20
-159.249996469
 30
0.0
  0
VERTEX
  8
views
 10
83.5464676687
 20
-156.499996469
 30
0.0
  0
VERTEX
  8
views
 10
80.7964676687
 20
-153.749996469
 30
0.0
  0
VERTEX
  8
views
 10
78.0464676687
 20
-156.499996469
 30
0.0
  0
SEQEND
  8
views
  0
POLYLINE
  8
views
 62
0
 70
0
 66
1
 10
0.0
 20
0.0
 30
0.0
  0
VERTEX
  8
views
 10
61.1964676687
 20
-156.499996469
 30
0.0
  0
VERTEX
  8
views
 10
64.3464676687
 20
-158.318649817
 30
0.0
  0
VERTEX
  8
views
 10
64.3464676687
 20
-154.681343121
 30
0.0
  0
VERTEX
  8
views
 10
61.1964676687
 20
-156.499996469
 30
0.0
  0
SEQEND
  8
views
  0
POLYLINE
  8
views
 62
0
 70
0
 66
1
 10
0.0
 20
0.0
 30
0.0
  0
VERTEX
  8
views
 10
61.1964676687
 20
-119.499996469
 30
0.0
  0
VERTEX
  8
views
 10
64.3464676687
 20
-121.318649817
 30
0.0
  0
VERTEX
  8
views
 10
64.3464676687
 20
-117.681343121
 30
0.0
  0
VERTEX
  8
views
 10
61.1964676687
 20
-119.499996469
 30
0.0
  0
SEQEND
  8
views
  0
POLYLINE
  8
views
 62
0
 70
0
 66
1
 10
0.0
 20
0.0
 30
0.0
  0
VERTEX
  8
views
 10
78.0464676687
 20
-119.499996469
 30
0.0
  0
VERTEX
  8
views
 10
80.7964676687
 20
-122.249996469
 30
0.0
  0
VERTEX
  8
views
 10
83.5464676687
 20
-119.499996469
 30
0.0
  0
VERTEX
  8
views
 10
80.7964676687
 20
-116.749996469
 30
0.0
  0
VERTEX
  8
views
 10
78.0464676687
 20
-119.499996469
 30
0.0
  0
SEQEND
  8
views
  0
POLYLINE
  8
views
 62
0
 70
0
 66
1
 10
0.0
 20
0.0
 30
0.0
  0
VERTEX
  8
views
 10
43.0464676687
 20
-119.499996469
 30
0.0
  0
VERTEX
  8
views
 10
45.7964676687
 20
-122.249996469
 30
0.0
  0
VERTEX
  8
views
 10
48.5464676687
 20
-119.499996469
 30
0.0
  0
VERTEX
  8
views
 10
45.7964676687
 20
-116.749996469
 30
0.0
  0
VERTEX
  8
views
 10
43.0464676687
 20
-119.499996469
 30
0.0
  0
SEQEND
  8
views
  0
POLYLINE
  8
views
 62
0
 70
0
 66
1
 10
0.0
 20
0.0
 30
0.0
  0
VERTEX
  8
views
 10
43.0464676687
 20
-156.499996469
 30
0.0
  0
VERTEX
  8
views
 10
45.7964676687
 20
-159.249996469
 30
0.0
  0
VERTEX
  8
views
 10
48.5464676687
 20
-156.499996469
 30
0.0
  0
VERTEX
  8
views
 10
45.7964676687
 20
-153.749996469
 30
0.0
  0
VERTEX
  8
views
 10
43.0464676687
 20
-156.499996469
 30
0.0
  0
SEQEND
  8
views
  0
LINE
  8
views
 62
0
 10
35.7964676687
 20
-113.999996469
 30
0.0
 11
35.7964676687
 21
-113.999992957
 31
0.0
  0
LINE
  8
views
 62
0
 10
35.7964676687
 20
-124.288147286
 30
0.0
 11
35.7964676687
 21
-113.999996429
 31
0.0
  0
POLYLINE
  8
views
 62
0
 70
0
 66
1
 10
0.0
 20
0.0
 30
0.0
  0
VERTEX
  8
views
 10
35.7964676687
 20
-124.288147286
 30
0.0
  0
VERTEX
  8
views
 10
35.7964676687
 20
-123.231895283
 30
0.0
  0
SEQEND
  8
views
  0
LINE
  8
views
 62
0
 10
35.7964676687
 20
-152.768095946
 30
0.0
 11
35.7964676687
 21
-151.711838627
 31
0.0
  0
LINE
  8
views
 62
0
 10
35.7964676687
 20
-129.896650613
 30
0.0
 11
35.7964676687
 21
-123.231895283
 31
0.0
  0
POLYLINE
  8
views
 62
0
 70
0
 66
1
 10
0.0
 20
0.0
 30
0.0
  0
VERTEX
  8
views
 10
35.7964676687
 20
-152.768095946
 30
0.0
  0
VERTEX
  8
views
 10
35.7964676687
 20
-151.711838627
 30
0.0
  0
SEQEND
  8
views
  0
LINE
  8
views
 62
0
 10
90.7964676687
 20
-161.999992957
 30
0.0
 11
90.7964676687
 21
-151.711838788
 31
0.0
  0
POLYLINE
  8
views
 62
0
 70
0
 66
1
 10
0.0
 20
0.0
 30
0.0
  0
VERTEX
  8
views
 10
35.7964676687
 20
-151.711838627
 30
0.0
  0
VERTEX
  8
views
 10
37.9746420848
 20
-150.660561657
 30
0.0
  0
SEQEND
  8
views
  0
LINE
  8
views
 62
0
 10
37.9746420855
 20
-150.660561664
 30
0.0
 11
88.6182905805
 21
-150.660561664
 31
0.0
  0
POLYLINE
  8
views
 62
0
 70
0
 66
1
 10
0.0
 20
0.0
 30
0.0
  0
VERTEX
  8
views
 10
76.2964676687
 20
-156.499992958
 30
0.0
  0
VERTEX
  8
views
 10
78.5464676694
 20
-160.397107274
 30
0.0
  0
VERTEX
  8
views
 10
83.0464676694
 20
-160.397107273
 30
0.0
  0
VERTEX
  8
views
 10
85.2964676687
 20
-156.499992956
 30
0.0
  0
VERTEX
  8
views
 10
83.0464676679
 20
-152.602878639
 30
0.0
  0
VERTEX
  8
views
 10
78.5464676679
 20
-152.60287864
 30
0.0
  0
VERTEX
  8
views
 10
76.2964676687
 20
-156.499992958
 30
0.0
  0
SEQEND
  8
views
  0
POLYLINE
  8
views
 62
0
 70
0
 66
1
 10
0.0
 20
0.0
 30
0.0
  0
VERTEX
  8
views
 10
41.2964676687
 20
-156.499992958
 30
0.0
  0
VERTEX
  8
views
 10
43.5464676694
 20
-160.397107274
 30
0.0
  0
VERTEX
  8
views
 10
48.0464676694
 20
-160.397107273
 30
0.0
  0
VERTEX
  8
views
 10
50.2964676687
 20
-156.499992956
 30
0.0
  0
VERTEX
  8
views
 10
48.0464676679
 20
-152.602878639
 30
0.0
  0
VERTEX
  8
views
 10
43.5464676679
 20
-152.60287864
 30
0.0
  0
VERTEX
  8
views
 10
41.2964676687
 20
-156.499992958
 30
0.0
  0
SEQEND
  8
views
  0
LINE
  8
views
 62
0
 10
90.7964676687
 20
-113.999996469
 30
0.0
 11
90.7964676687
 21
-113.999992957
 31
0.0
  0
POLYLINE
  8
views
 62
0
 70
0
 66
1
 10
0.0
 20
0.0
 30
0.0
  0
VERTEX
  8
views
 10
78.0464676687
 20
-156.49999382
 30
0.0
  0
VERTEX
  8
views
 10
80.7964676687
 20
-159.24999382
 30
0.0
  0
VERTEX
  8
views
 10
83.5464676687
 20
-156.49999382
 30
0.0
  0
VERTEX
  8
views
 10
80.7964676687
 20
-153.74999382
 30
0.0
  0
VERTEX
  8
views
 10
78.0464676687
 20
-156.49999382
 30
0.0
  0
SEQEND
  8
views
  0
LINE
  8
views
 62
0
 10
78.0464676687
 20
-156.49999382
 30
0.0
 11
78.0464676687
 21
-156.499996469
 31
0.0
  0
LINE
  8
views
 62
0
 10
61.1964676687
 20
-156.499992957
 30
0.0
 11
61.1964676687
 21
-156.499996469
 31
0.0
  0
LINE
  8
views
 62
0
 10
61.1964676687
 20
-119.499992957
 30
0.0
 11
61.1964676687
 21
-119.499996469
 31
0.0
  0
POLYLINE
  8
views
 62
0
 70
0
 66
1
 10
0.0
 20
0.0
 30
0.0
  0
VERTEX
  8
views
 10
78.0464676687
 20
-119.49999382
 30
0.0
  0
VERTEX
  8
views
 10
80.7964676687
 20
-122.24999382
 30
0.0
  0
VERTEX
  8
views
 10
83.5464676687
 20
-119.49999382
 30
0.0
  0
VERTEX
  8
views
 10
80.7964676687
 20
-116.74999382
 30
0.0
  0
VERTEX
  8
views
 10
78.0464676687
 20
-119.49999382
 30
0.0
  0
SEQEND
  8
views
  0
LINE
  8
views
 62
0
 10
78.0464676687
 20
-119.49999382
 30
0.0
 11
78.0464676687
 21
-119.499996469
 31
0.0
  0
POLYLINE
  8
views
 62
0
 70
0
 66
1
 10
0.0
 20
0.0
 30
0.0
  0
VERTEX
  8
views
 10
43.0464676687
 20
-119.49999382
 30
0.0
  0
VERTEX
  8
views
 10
45.7964676687
 20
-122.24999382
 30
0.0
  0
VERTEX
  8
views
 10
48.5464676687
 20
-119.49999382
 30
0.0
  0
VERTEX
  8
views
 10
45.7964676687
 20
-116.74999382
 30
0.0
  0
VERTEX
  8
views
 10
43.0464676687
 20
-119.49999382
 30
0.0
  0
SEQEND
  8
views
  0
LINE
  8
views
 62
0
 10
43.0464676687
 20
-119.49999382
 30
0.0
 11
43.0464676687
 21
-119.499996469
 31
0.0
  0
POLYLINE
  8
views
 62
0
 70
0
 66
1
 10
0.0
 20
0.0
 30
0.0
  0
VERTEX
  8
views
 10
43.0464676687
 20
-156.49999382
 30
0.0
  0
VERTEX
  8
views
 10
45.7964676687
 20
-159.24999382
 30
0.0
  0
VERTEX
  8
views
 10
48.5464676687
 20
-156.49999382
 30
0.0
  0
VERTEX
  8
views
 10
45.7964676687
 20
-153.74999382
 30
0.0
  0
VERTEX
  8
views
 10
43.0464676687
 20
-156.49999382
 30
0.0
  0
SEQEND
  8
views
  0
LINE
  8
views
 62
0
 10
43.0464676687
 20
-156.49999382
 30
0.0
 11
43.0464676687
 21
-156.499996469
 31
0.0
  0
LINE
  8
views
 62
0
 10
37.9746420638
 20
-125.339424249
 30
0.0
 11
88.6182934658
 21
-125.339424249
 31
0.0
  0
POLYLINE
  8
views
 62
0
 70
0
 66
1
 10
0.0
 20
0.0
 30
0.0
  0
VERTEX
  8
views
 10
37.9746420876
 20
-125.339424258
 30
0.0
  0
VERTEX
  8
views
 10
35.7964676687
 20
-124.288147286
 30
0.0
  0
SEQEND
  8
views
  0
POLYLINE
  8
views
 62
0
 70
0
 66
1
 10
0.0
 20
0.0
 30
0.0
  0
VERTEX
  8
views
 10
76.2964676687
 20
-119.499992958
 30
0.0
  0
VERTEX
  8
views
 10
78.5464676679
 20
-115.60287864
 30
0.0
  0
VERTEX
  8
views
 10
83.0464676679
 20
-115.602878639
 30
0.0
  0
VERTEX
  8
views
 10
85.2964676687
 20
-119.499992956
 30
0.0
  0
VERTEX
  8
views
 10
83.0464676694
 20
-123.397107273
 30
0.0
  0
VERTEX
  8
views
 10
78.5464676694
 20
-123.397107274
 30
0.0
  0
VERTEX
  8
views
 10
76.2964676687
 20
-119.499992958
 30
0.0
  0
SEQEND
  8
views
  0
POLYLINE
  8
views
 62
0
 70
0
 66
1
 10
0.0
 20
0.0
 30
0.0
  0
VERTEX
  8
views
 10
41.2964676687
 20
-119.499992958
 30
0.0
  0
VERTEX
  8
views
 10
43.5464676679
 20
-115.60287864
 30
0.0
  0
VERTEX
  8
views
 10
48.0464676679
 20
-115.602878639
 30
0.0
  0
VERTEX
  8
views
 10
50.2964676687
 20
-119.499992956
 30
0.0
  0
VERTEX
  8
views
 10
48.0464676694
 20
-123.397107273
 30
0.0
  0
VERTEX
  8
views
 10
43.5464676694
 20
-123.397107274
 30
0.0
  0
VERTEX
  8
views
 10
41.2964676687
 20
-119.499992958
 30
0.0
  0
SEQEND
  8
views
  0
POLYLINE
  8
views
 62
0
 70
0
 66
1
 10
0.0
 20
0.0
 30
0.0
  0
VERTEX
  8
views
 10
49.3486859346
 20
-137.999995092
 30
0.0
  0
VERTEX
  8
views
 10
48.6941050066
 20
-133.574736789
 30
0.0
  0
VERTEX
  8
views
 10
46.7903576504
 20
-129.555074321
 30
0.0
  0
VERTEX
  8
views
 10
43.8119312858
 20
-126.309428704
 30
0.0
  0
VERTEX
  8
views
 10
40.03181273
 20
-124.135278657
 30
0.0
  0
VERTEX
  8
views
 10
35.7964676687
 20
-123.231895283
 30
0.0
  0
SEQEND
  8
views
  0
POLYLINE
  8
views
 62
0
 70
0
 66
1
 10
0.0
 20
0.0
 30
0.0
  0
VERTEX
  8
views
 10
48.5085689304
 20
-137.999994641
 30
0.0
  0
VERTEX
  8
views
 10
46.5046659983
 20
-131.551056198
 30
0.0
  0
VERTEX
  8
views
 10
43.511907033
 20
-128.270187391
 30
0.0
  0
VERTEX
  8
views
 10
40.488329105
 20
-126.303055254
 30
0.0
  0
VERTEX
  8
views
 10
37.9746420638
 20
-125.339424299
 30
0.0
  0
SEQEND
  8
views
  0
POLYLINE
  8
views
 62
0
 70
0
 66
1
 10
0.0
 20
0.0
 30
0.0
  0
VERTEX
  8
views
 10
35.7964676687
 20
-152.768095946
 30
0.0
  0
VERTEX
  8
views
 10
40.03181273
 20
-151.864712245
 30
0.0
  0
VERTEX
  8
views
 10
43.8119312858
 20
-149.690561907
 30
0.0
  0
VERTEX
  8
views
 10
46.7903576504
 20
-146.44491606
 30
0.0
  0
VERTEX
  8
views
 10
48.6941050066
 20
-142.425253445
 30
0.0
  0
VERTEX
  8
views
 10
49.3486859346
 20
-137.999995092
 30
0.0
  0
SEQEND
  8
views
  0
POLYLINE
  8
views
 62
0
 70
0
 66
1
 10
0.0
 20
0.0
 30
0.0
  0
VERTEX
  8
views
 10
37.9746420855
 20
-150.660561658
 30
0.0
  0
VERTEX
  8
views
 10
40.4632990105
 20
-149.709597116
 30
0.0
  0
VERTEX
  8
views
 10
43.487938583
 20
-147.749344688
 30
0.0
  0
VERTEX
  8
views
 10
46.4825778187
 20
-144.482307823
 30
0.0
  0
VERTEX
  8
views
 10
48.5085689304
 20
-137.999994641
 30
0.0
  0
SEQEND
  8
views
  0
LINE
  8
views
 62
0
 10
76.2964676687
 20
-156.499992957
 30
0.0
 11
76.2964676687
 21
-156.49999382
 31
0.0
  0
POLYLINE
  8
views
 62
0
 70
0
 66
1
 10
0.0
 20
0.0
 30
0.0
  0
VERTEX
  8
views
 10
76.2964676687
 20
-156.499993821
 30
0.0
  0
VERTEX
  8
views
 10
78.5464676694
 20
-160.397108138
 30
0.0
  0
VERTEX
  8
views
 10
83.0464676694
 20
-160.397108137
 30
0.0
  0
VERTEX
  8
views
 10
85.2964676687
 20
-156.499993819
 30
0.0
  0
VERTEX
  8
views
 10
83.0464676679
 20
-152.602879503
 30
0.0
  0
VERTEX
  8
views
 10
78.5464676679
 20
-152.602879504
 30
0.0
  0
VERTEX
  8
views
 10
76.2964676687
 20
-156.499993821
 30
0.0
  0
SEQEND
  8
views
  0
LINE
  8
views
 62
0
 10
41.2964676687
 20
-156.499992957
 30
0.0
 11
41.2964676687
 21
-156.49999382
 31
0.0
  0
POLYLINE
  8
views
 62
0
 70
0
 66
1
 10
0.0
 20
0.0
 30
0.0
  0
VERTEX
  8
views
 10
41.2964676687
 20
-156.499993821
 30
0.0
  0
VERTEX
  8
views
 10
43.5464676694
 20
-160.397108138
 30
0.0
  0
VERTEX
  8
views
 10
48.0464676694
 20
-160.397108137
 30
0.0
  0
VERTEX
  8
views
 10
50.2964676687
 20
-156.499993819
 30
0.0
  0
VERTEX
  8
views
 10
48.0464676679
 20
-152.602879503
 30
0.0
  0
VERTEX
  8
views
 10
43.5464676679
 20
-152.602879504
 30
0.0
  0
VERTEX
  8
views
 10
41.2964676687
 20
-156.499993821
 30
0.0
  0
SEQEND
  8
views
  0
POLYLINE
  8
views
 62
0
 70
0
 66
1
 10
0.0
 20
0.0
 30
0.0
  0
VERTEX
  8
views
 10
76.2964676687
 20
-119.499993821
 30
0.0
  0
VERTEX
  8
views
 10
78.5464676679
 20
-115.602879504
 30
0.0
  0
VERTEX
  8
views
 10
83.0464676679
 20
-115.602879503
 30
0.0
  0
VERTEX
  8
views
 10
85.2964676687
 20
-119.499993819
 30
0.0
  0
VERTEX
  8
views
 10
83.0464676694
 20
-123.397108137
 30
0.0
  0
VERTEX
  8
views
 10
78.5464676694
 20
-123.397108138
 30
0.0
  0
VERTEX
  8
views
 10
76.2964676687
 20
-119.499993821
 30
0.0
  0
SEQEND
  8
views
  0
POLYLINE
  8
views
 62
0
 70
0
 66
1
 10
0.0
 20
0.0
 30
0.0
  0
VERTEX
  8
views
 10
41.2964676687
 20
-119.499993821
 30
0.0
  0
VERTEX
  8
views
 10
43.5464676679
 20
-115.602879504
 30
0.0
  0
VERTEX
  8
views
 10
48.0464676679
 20
-115.602879503
 30
0.0
  0
VERTEX
  8
views
 10
50.2964676687
 20
-119.499993819
 30
0.0
  0
VERTEX
  8
views
 10
48.0464676694
 20
-123.397108137
 30
0.0
  0
VERTEX
  8
views
 10
43.5464676694
 20
-123.397108138
 30
0.0
  0
VERTEX
  8
views
 10
41.2964676687
 20
-119.499993821
 30
0.0
  0
SEQEND
  8
views
  0
LINE
  8
views
 62
0
 10
76.2964676687
 20
-119.499992957
 30
0.0
 11
76.2964676687
 21
-119.49999382
 31
0.0
  0
LINE
  8
views
 62
0
 10
41.2964676687
 20
-119.499992957
 30
0.0
 11
41.2964676687
 21
-119.49999382
 31
0.0
  0
LINE
  8
views
 62
0
 10
38.0
 20
-112.6
 30
0.0
 11
38.0
 21
-163.4
 31
0.0
  0
LINE
  8
views
 62
0
 10
38.0
 20
-112.6
 30
0.0
 11
31.4259962544
 21
-112.599996469
 31
0.0
  0
LINE
  8
views
 62
0
 10
38.0
 20
-163.4
 30
0.0
 11
31.4259962544
 21
-163.399996469
 31
0.0
  0
LINE
  8
views
 62
0
 10
98.0841216837
 20
-112.599997683
 30
0.0
 11
38.0
 21
-112.6
 31
0.0
  0
LINE
  8
views
 62
0
 10
98.0841216837
 20
-163.399997683
 30
0.0
 11
38.0
 21
-163.4
 31
0.0
  0
POLYLINE
  8
views
 62
0
 70
0
 66
1
 10
0.0
 20
0.0
 30
0.0
  0
VERTEX
  8
views
 10
78.6964676687
 20
-156.49999843
 30
0.0
  0
VERTEX
  8
views
 10
81.8251180451
 20
-154.722984696
 30
0.0
  0
VERTEX
  8
views
 10
81.8251180451
 20
-158.277011924
 30
0.0
  0
VERTEX
  8
views
 10
78.6964676687
 20
-156.49999843
 30
0.0
  0
SEQEND
  8
views
  0
POLYLINE
  8
views
 62
0
 70
0
 66
1
 10
0.0
 20
0.0
 30
0.0
  0
VERTEX
  8
views
 10
78.6964676687
 20
-119.49999843
 30
0.0
  0
VERTEX
  8
views
 10
81.8251180451
 20
-117.722984696
 30
0.0
  0
VERTEX
  8
views
 10
81.8251180451
 20
-121.277011924
 30
0.0
  0
VERTEX
  8
views
 10
78.6964676687
 20
-119.49999843
 30
0.0
  0
SEQEND
  8
views
  0
POLYLINE
  8
views
 62
0
 70
0
 66
1
 10
0.0
 20
0.0
 30
0.0
  0
VERTEX
  8
views
 10
43.6964676687
 20
-119.49999978
 30
0.0
  0
VERTEX
  8
views
 10
46.8251180451
 20
-117.722986046
 30
0.0
  0
VERTEX
  8
views
 10
46.8251180451
 20
-121.277013274
 30
0.0
  0
VERTEX
  8
views
 10
43.6964676687
 20
-119.49999978
 30
0.0
  0
SEQEND
  8
views
  0
POLYLINE
  8
views
 62
0
 70
0
 66
1
 10
0.0
 20
0.0
 30
0.0
  0
VERTEX
  8
views
 10
43.6964676687
 20
-156.49999978
 30
0.0
  0
VERTEX
  8
views
 10
46.8251180451
 20
-154.722986046
 30
0.0
  0
VERTEX
  8
views
 10
46.8251180451
 20
-158.277013274
 30
0.0
  0
VERTEX
  8
views
 10
43.6964676687
 20
-156.49999978
 30
0.0
  0
SEQEND
  8
views
  0
POLYLINE
  8
views
 62
0
 70
0
 66
1
 10
0.0
 20
0.0
 30
0.0
  0
VERTEX
  8
views
 10
78.6964676687
 20
-119.499996469
 30
0.0
  0
VERTEX
  8
views
 10
81.8464676687
 20
-121.318649817
 30
0.0
  0
VERTEX
  8
views
 10
81.8464676687
 20
-117.681343121
 30
0.0
  0
VERTEX
  8
views
 10
78.6964676687
 20
-119.499996469
 30
0.0
  0
SEQEND
  8
views
  0
POLYLINE
  8
views
 62
0
 70
0
 66
1
 10
0.0
 20
0.0
 30
0.0
  0
VERTEX
  8
views
 10
43.6964676687
 20
-119.499996469
 30
0.0
  0
VERTEX
  8
views
 10
46.8464676687
 20
-121.318649817
 30
0.0
  0
VERTEX
  8
views
 10
46.8464676687
 20
-117.681343121
 30
0.0
  0
VERTEX
  8
views
 10
43.6964676687
 20
-119.499996469
 30
0.0
  0
SEQEND
  8
views
  0
POLYLINE
  8
views
 62
0
 70
0
 66
1
 10
0.0
 20
0.0
 30
0.0
  0
VERTEX
  8
views
 10
78.6964676687
 20
-156.499996469
 30
0.0
  0
VERTEX
  8
views
 10
81.8464676687
 20
-158.318649817
 30
0.0
  0
VERTEX
  8
views
 10
81.8464676687
 20
-154.681343121
 30
0.0
  0
VERTEX
  8
views
 10
78.6964676687
 20
-156.499996469
 30
0.0
  0
SEQEND
  8
views
  0
POLYLINE
  8
views
 62
0
 70
0
 66
1
 10
0.0
 20
0.0
 30
0.0
  0
VERTEX
  8
views
 10
43.6964676687
 20
-156.499996469
 30
0.0
  0
VERTEX
  8
views
 10
46.8464676687
 20
-158.318649817
 30
0.0
  0
VERTEX
  8
views
 10
46.8464676687
 20
-154.681343121
 30
0.0
  0
VERTEX
  8
views
 10
43.6964676687
 20
-156.499996469
 30
0.0
  0
SEQEND
  8
views
  0
LINE
  8
views
 62
0
 10
78.6964676687
 20
-156.499996469
 30
0.0
 11
78.6964676687
 21
-156.49999843
 31
0.0
  0
LINE
  8
views
 62
0
 10
78.6964676687
 20
-119.499996469
 30
0.0
 11
78.6964676687
 21
-119.49999843
 31
0.0
  0
LINE
  8
views
 62
0
 10
43.6964676687
 20
-119.499996469
 30
0.0
 11
43.6964676687
 21
-119.49999978
 31
0.0
  0
LINE
  8
views
 62
0
 10
43.6964676687
 20
-156.499996469
 30
0.0
 11
43.6964676687
 21
-156.49999978
 31
0.0
  0
LINE
  8
views
 62
0
 10
49.3486859346
 20
-137.999995092
 30
0.0
 11
48.5085689304
 21
-137.999994641
 31
0.0
  0
LINE
  8
views
 62
0
 10
89.9905627192
 20
-123.21249123
 30
0.0
 11
90.7964670984
 21
-123.212491477
 31
0.0
  0
LINE
  8
views
 62
0
 10
89.9905536434
 20
-152.78749123
 30
0.0
 11
90.796468239
 21
-152.787491477
 31
0.0
  0
ENDBLK
  0
ENDSEC
  0
SECTION
  2
ENTITIES
  0
INSERT
  2
SHAPE2DVIEW
  8
views
 62
0
 10
0.0
 20
0.0
 30
0.0
  0
INSERT
  2
SHAPE2DVIEW001
  8
views
 62
0
 10
0.0
 20
0.0
 30
0.0
  0
INSERT
  2
SHAPE2DVIEW002
  8
views
 62
0
 10
0.0
 20
0.0
 30
0.0
  0
ENDSEC
  0
EOF
