999
dxfrw 0.5.11
0
SECTION
2
HEADER
9
$ACADVER
1
AC1015
9
$HANDSEED
5
20000
9
$DWGCODEPAGE
3
ANSI_1252
9
$INSBASE
10
0
20
0
30
0
9
$EXTMIN
10
0
20
-297
30
0
9
$EXTMAX
10
420
20
0
30
0
9
$LIMMIN
10
0
20
0
9
$LIMMAX
10
12
20
9
9
$ORTHOMODE
70
1
9
$LTSCALE
40
1
9
$TEXTSTYLE
7
STANDARD
9
$CLAYER
8
DIMENSIONS
9
$DIMASZ
40
3.5
9
$DIMLFAC
40
1
9
$DIMSCALE
40
1
9
$DIMEXO
40
0
9
$DIMEXE
40
2
9
$DIMTXT
40
3.5
9
$DIMTSZ
40
0
9
$DIMAUNIT
70
0
9
$DIMADEC
70
0
9
$DIMLUNIT
70
2
9
$DIMSTYLE
2
ISO-25
9
$DIMGAP
40
1
9
$DIMTIH
70
0
9
$LUNITS
70
2
9
$LUPREC
70
2
9
$AUNITS
70
0
9
$AUPREC
70
0
9
$SPLINESEGS
70
8
9
$GRIDMODE
70
0
9
$SNAPSTYLE
70
0
9
$GRIDUNIT
10
0
20
0
9
$PINSBASE
10
0
20
297
30
0
9
$PLIMMIN
10
0
20
0
9
$PLIMMAX
10
420
20
297
9
$INSUNITS
70
4
9
$PSVPSCALE
40
1
0
ENDSEC
0
SECTION
2
CLASSES
0
ENDSEC
0
SECTION
2
TABLES
0
TABLE
2
VPORT
5
8
330
0
100
AcDbSymbolTable
70
1
0
VPORT
5
31
330
2
100
AcDbSymbolTableRecord
100
AcDbViewportTableRecord
2
*ACTIVE
70
0
10
0
20
0
11
1
21
1
12
212.295081967
22
8.49180327869
13
0
23
0
14
10
24
10
15
10
25
10
16
0
26
0
36
1
17
0
27
0
37
0
40
330.950819672
41
1.29680998613
42
50
43
0
44
0
50
0
51
0
71
0
72
100
73
1
74
3
75
0
76
0
77
0
78
0
281
0
65
1
110
0
120
0
130
0
111
1
121
0
131
0
112
0
122
1
132
0
79
0
146
0
0
ENDTAB
0
TABLE
2
LTYPE
5
5
330
0
100
AcDbSymbolTable
70
4
0
LTYPE
5
14
330
5
100
AcDbSymbolTableRecord
100
AcDbLinetypeTableRecord
2
ByBlock
70
0
3

72
65
73
0
40
0
0
LTYPE
5
15
330
5
100
AcDbSymbolTableRecord
100
AcDbLinetypeTableRecord
2
ByLayer
70
0
3

72
65
73
0
40
0
0
LTYPE
5
16
330
5
100
AcDbSymbolTableRecord
100
AcDbLinetypeTableRecord
2
Continuous
70
0
3
Solid line
72
65
73
0
40
0
0
LTYPE
5
32
330
5
100
AcDbSymbolTableRecord
100
AcDbLinetypeTableRecord
2
DOT
70
0
3
Dot . . . . . . . . . . . . . . . . . . . . . .
72
65
73
2
40
6.35
49
0
74
0
49
-6.35
74
0
0
LTYPE
5
33
330
5
100
AcDbSymbolTableRecord
100
AcDbLinetypeTableRecord
2
DOT2
70
0
3
Dot (.5x) .....................................
72
65
73
2
40
3.175
49
0
74
0
49
-3.175
74
0
0
LTYPE
5
34
330
5
100
AcDbSymbolTableRecord
100
AcDbLinetypeTableRecord
2
DOTX2
70
0
3
Dot (2x) .  .  .  .  .  .  .  .  .  .  .  .  .
72
65
73
2
40
12.7
49
0
74
0
49
-12.7
74
0
0
LTYPE
5
35
330
5
100
AcDbSymbolTableRecord
100
AcDbLinetypeTableRecord
2
DASHED
70
0
3
Dot . . . . . . . . . . . . . . . . . . . . . .
72
65
73
2
40
19.05
49
12.7
74
0
49
-6.35
74
0
0
LTYPE
5
36
330
5
100
AcDbSymbolTableRecord
100
AcDbLinetypeTableRecord
2
DASHED2
70
0
3
Dashed (.5x) _ _ _ _ _ _ _ _ _ _ _ _ _ _ _ _ _
72
65
73
2
40
9.525
49
6.35
74
0
49
-3.175
74
0
0
LTYPE
5
37
330
5
100
AcDbSymbolTableRecord
100
AcDbLinetypeTableRecord
2
DASHEDX2
70
0
3
Dashed (2x) ____  ____  ____  ____  ____  ___
72
65
73
2
40
38.1
49
25.4
74
0
49
-12.7
74
0
0
LTYPE
5
38
330
5
100
AcDbSymbolTableRecord
100
AcDbLinetypeTableRecord
2
DASHDOT
70
0
3
Dash dot __ . __ . __ . __ . __ . __ . __ . __
72
65
73
4
40
25.4
49
12.7
74
0
49
-6.35
74
0
49
0
74
0
49
-6.35
74
0
0
LTYPE
5
39
330
5
100
AcDbSymbolTableRecord
100
AcDbLinetypeTableRecord
2
DASHDOT2
70
0
3
Dash dot (.5x) _._._._._._._._._._._._._._._.
72
65
73
4
40
12.7
49
6.35
74
0
49
-3.175
74
0
49
0
74
0
49
-3.175
74
0
0
LTYPE
5
3A
330
5
100
AcDbSymbolTableRecord
100
AcDbLinetypeTableRecord
2
DASHDOTX2
70
0
3
Dash dot (2x) ____  .  ____  .  ____  .  ___
72
65
73
4
40
50.8
49
25.4
74
0
49
-12.7
74
0
49
0
74
0
49
-12.7
74
0
0
LTYPE
5
3B
330
5
100
AcDbSymbolTableRecord
100
AcDbLinetypeTableRecord
2
DIVIDE
70
0
3
Divide ____ . . ____ . . ____ . . ____ . . ____
72
65
73
6
40
31.75
49
12.7
74
0
49
-6.35
74
0
49
0
74
0
49
-6.35
74
0
49
0
74
0
49
-6.35
74
0
0
LTYPE
5
3C
330
5
100
AcDbSymbolTableRecord
100
AcDbLinetypeTableRecord
2
DIVIDE2
70
0
3
Divide (.5x) __..__..__..__..__..__..__..__.._
72
65
73
6
40
15.875
49
6.35
74
0
49
-3.175
74
0
49
0
74
0
49
-3.175
74
0
49
0
74
0
49
-3.175
74
0
0
LTYPE
5
3D
330
5
100
AcDbSymbolTableRecord
100
AcDbLinetypeTableRecord
2
DIVIDEX2
70
0
3
Divide (2x) ________  .  .  ________  .  .  _
72
65
73
6
40
63.5
49
25.4
74
0
49
-12.7
74
0
49
0
74
0
49
-12.7
74
0
49
0
74
0
49
-12.7
74
0
0
LTYPE
5
3E
330
5
100
AcDbSymbolTableRecord
100
AcDbLinetypeTableRecord
2
BORDER
70
0
3
Border __ __ . __ __ . __ __ . __ __ . __ __ .
72
65
73
6
40
44.45
49
12.7
74
0
49
-6.35
74
0
49
12.7
74
0
49
-6.35
74
0
49
0
74
0
49
-6.35
74
0
0
LTYPE
5
3F
330
5
100
AcDbSymbolTableRecord
100
AcDbLinetypeTableRecord
2
BORDER2
70
0
3
Border (.5x) __.__.__.__.__.__.__.__.__.__.__.
72
65
73
6
40
22.225
49
6.35
74
0
49
-3.175
74
0
49
6.35
74
0
49
-3.175
74
0
49
0
74
0
49
-3.175
74
0
0
LTYPE
5
40
330
5
100
AcDbSymbolTableRecord
100
AcDbLinetypeTableRecord
2
BORDERX2
70
0
3
Border (2x) ____  ____  .  ____  ____  .  ___
72
65
73
6
40
88.9
49
25.4
74
0
49
-12.7
74
0
49
25.4
74
0
49
-12.7
74
0
49
0
74
0
49
-12.7
74
0
0
LTYPE
5
41
330
5
100
AcDbSymbolTableRecord
100
AcDbLinetypeTableRecord
2
CENTER
70
0
3
Center ____ _ ____ _ ____ _ ____ _ ____ _ ____
72
65
73
4
40
50.8
49
31.75
74
0
49
-6.35
74
0
49
6.35
74
0
49
-6.35
74
0
0
LTYPE
5
42
330
5
100
AcDbSymbolTableRecord
100
AcDbLinetypeTableRecord
2
CENTER2
70
0
3
Center (.5x) ___ _ ___ _ ___ _ ___ _ ___ _ ___
72
65
73
4
40
28.575
49
19.05
74
0
49
-3.175
74
0
49
3.175
74
0
49
-3.175
74
0
0
LTYPE
5
43
330
5
100
AcDbSymbolTableRecord
100
AcDbLinetypeTableRecord
2
CENTERX2
70
0
3
Center (2x) ________  __  ________  __  _____
72
65
73
4
40
101.6
49
63.5
74
0
49
-12.7
74
0
49
12.7
74
0
49
-12.7
74
0
0
ENDTAB
0
TABLE
2
LAYER
5
2
330
0
100
AcDbSymbolTable
70
1
0
LAYER
5
10
330
2
100
AcDbSymbolTableRecord
100
AcDbLayerTableRecord
2
0
70
0
62
7
6
CONTINUOUS
370
35
390
F
0
LAYER
5
44
330
2
100
AcDbSymbolTableRecord
100
AcDbLayerTableRecord
2
BORDER
70
0
62
7
6
CONTINUOUS
370
35
390
F
0
LAYER
5
45
330
2
100
AcDbSymbolTableRecord
100
AcDbLayerTableRecord
2
DIMENSIONS
70
0
62
7
6
CONTINUOUS
370
18
390
F
0
LAYER
5
46
330
2
100
AcDbSymbolTableRecord
100
AcDbLayerTableRecord
2
LOGO
70
0
62
7
6
CONTINUOUS
370
35
390
F
0
LAYER
5
47
330
2
100
AcDbSymbolTableRecord
100
AcDbLayerTableRecord
2
PAPERSIZE
70
0
62
136
6
CONTINUOUS
370
0
390
F
0
LAYER
5
48
330
2
100
AcDbSymbolTableRecord
100
AcDbLayerTableRecord
2
TITLEBLOCK
70
0
62
7
6
CONTINUOUS
370
35
390
F
0
ENDTAB
0
TABLE
2
STYLE
5
3
330
0
100
AcDbSymbolTable
70
3
0
STYLE
5
49
330
2
100
AcDbSymbolTableRecord
100
AcDbTextStyleTableRecord
2
standard
70
0
40
0
41
1
50
0
71
0
42
1
3
standard
4

0
ENDTAB
0
TABLE
2
VIEW
5
6
330
0
100
AcDbSymbolTable
70
0
0
ENDTAB
0
TABLE
2
UCS
5
7
330
0
100
AcDbSymbolTable
70
0
0
ENDTAB
0
TABLE
2
APPID
5
9
330
0
100
AcDbSymbolTable
70
1
0
APPID
5
12
330
9
100
AcDbSymbolTableRecord
100
AcDbRegAppTableRecord
2
ACAD
70
0
0
ENDTAB
0
TABLE
2
DIMSTYLE
5
A
330
0
100
AcDbSymbolTable
70
1
100
AcDbDimStyleTable
71
1
0
DIMSTYLE
105
4A
330
A
100
AcDbSymbolTableRecord
100
AcDbDimStyleTableRecord
2
Standard
70
0
40
1
41
3.5
42
0
43
0.38
44
2
45
0
46
0
47
0
48
0
140
3.5
141
0.09
142
0
143
25.4
144
1
145
0
146
1
147
1
148
0
71
0
72
0
73
0
74
1
75
0
76
0
77
0
78
0
79
0
170
0
171
2
172
0
173
0
174
0
175
0
176
0
177
0
178
0
179
0
271
4
272
4
273
2
274
2
275
0
276
0
277
2
278
46
279
0
280
0
281
0
282
0
283
1
284
0
285
0
286
0
288
0
289
3
340
Standard
341

371
-2
372
-2
0
ENDTAB
0
TABLE
2
BLOCK_RECORD
5
1
330
0
100
AcDbSymbolTable
70
2
0
BLOCK_RECORD
5
1F
330
1
100
AcDbSymbolTableRecord
100
AcDbBlockTableRecord
2
*Model_Space
0
BLOCK_RECORD
5
1E
330
1
100
AcDbSymbolTableRecord
100
AcDbBlockTableRecord
2
*Paper_Space
0
ENDTAB
0
ENDSEC
0
SECTION
2
BLOCKS
0
BLOCK
5
20
330
1F
100
AcDbEntity
8
0
100
AcDbBlockBegin
2
*Model_Space
70
0
10
0
20
0
30
0
3
*Model_Space
1

0
ENDBLK
5
21
330
1F
100
AcDbEntity
8
0
100
AcDbBlockEnd
0
BLOCK
5
1C
330
1B
100
AcDbEntity
8
0
100
AcDbBlockBegin
2
*Paper_Space
70
0
10
0
20
0
30
0
3
*Paper_Space
1

0
ENDBLK
5
1D
330
1F
100
AcDbEntity
8
0
100
AcDbBlockEnd
0
BLOCK
5
2711
100
AcDbEntity
8
0
100
AcDbBlockBegin
2
View1
70
0
10
0
20
0
3
View1
1

0
LINE
8
0
6
BYBLOCK
62
0
5
2712
100
AcDbEntity
100
AcDbLine
10
35.7965
20
-114
30
0
11
90.7965
21
-114
31
0
0
ELLIPSE
8
0
6
BYBLOCK
62
0
5
2713
100
AcDbEntity
100
AcDbEllipse
10
96.5285
20
-138
30
0
11
15.3091
21
-4.69799e-06
31
0
40
0.965926
41
4.32862
42
4.1694
0
SPLINE
8
0
6
BYBLOCK
62
0
5
2714
100
AcDbEntity
100
AcDbSpline
70
0
71
2
72
28
73
25
74
0
40
1.18703
40
1.18703
40
1.18703
40
1.21068
40
1.21068
40
1.25798
40
1.25798
40
1.30528
40
1.30528
40
1.32893
40
1.32893
40
1.35258
40
1.35258
40
1.37623
40
1.37623
40
1.39988
40
1.39988
40
1.42353
40
1.42353
40
1.44718
40
1.44718
40
1.47083
40
1.47083
40
1.49448
40
1.49448
40
1.51813
40
1.51813
40
1.51813
10
90.7965
20
-124.288
30
0
10
90.7965
20
-124.225
30
0
10
90.7965
20
-124.161
30
0
10
90.7965
20
-124.04
30
0
10
90.7965
20
-123.93
30
0
10
90.7965
20
-123.824
30
0
10
90.7965
20
-123.731
30
0
10
90.7965
20
-123.687
30
0
10
90.7965
20
-123.643
30
0
10
90.7965
20
-123.603
30
0
10
90.7965
20
-123.563
30
0
10
90.7965
20
-123.527
30
0
10
90.7965
20
-123.492
30
0
10
90.7965
20
-123.46
30
0
10
90.7965
20
-123.428
30
0
10
90.7965
20
-123.4
30
0
10
90.7965
20
-123.373
30
0
10
90.7965
20
-123.349
30
0
10
90.7965
20
-123.325
30
0
10
90.7965
20
-123.306
30
0
10
90.7965
20
-123.286
30
0
10
90.7965
20
-123.271
30
0
10
90.7965
20
-123.256
30
0
10
90.7965
20
-123.244
30
0
10
90.7965
20
-123.233
30
0
0
LINE
8
0
6
BYBLOCK
62
0
5
2715
100
AcDbEntity
100
AcDbLine
10
90.7965
20
-114
30
0
11
90.7965
21
-123.233
31
0
0
ELLIPSE
8
0
6
BYBLOCK
62
0
5
2716
100
AcDbEntity
100
AcDbEllipse
10
22.9906
20
-138
30
0
11
15.3091
21
-2.93519e-06
31
0
40
0.965926
41
6.86314
42
5.70323
0
LINE
8
0
6
BYBLOCK
62
0
5
2717
100
AcDbEntity
100
AcDbLine
10
35.7965
20
-129.897
30
0
11
35.7965
21
-114
31
0
0
LINE
8
0
6
BYBLOCK
62
0
5
2718
100
AcDbEntity
100
AcDbLine
10
35.7965
20
-162
30
0
11
35.7965
21
-146.103
31
0
0
LINE
8
0
6
BYBLOCK
62
0
5
2719
100
AcDbEntity
100
AcDbLine
10
90.7965
20
-162
30
0
11
35.7965
21
-162
31
0
0
LINE
8
0
6
BYBLOCK
62
0
5
271a
100
AcDbEntity
100
AcDbLine
10
90.7965
20
-152.767
30
0
11
90.7965
21
-162
31
0
0
ELLIPSE
8
0
6
BYBLOCK
62
0
5
271b
100
AcDbEntity
100
AcDbEllipse
10
89.9906
20
-138
30
0
11
15.3091
21
-4.69799e-06
31
0
40
0.965926
41
4.71239
42
3.14159
0
ELLIPSE
8
0
6
BYBLOCK
62
0
5
271c
100
AcDbEntity
100
AcDbEllipse
10
89.9906
20
-138
30
0
11
15.3091
21
-4.69799e-06
31
0
40
0.965926
41
4.76506
42
4.71239
0
ELLIPSE
8
0
6
BYBLOCK
62
0
5
271d
100
AcDbEntity
100
AcDbEllipse
10
89.9906
20
-138
30
0
11
15.3091
21
-4.69799e-06
31
0
40
0.965926
41
1.5708
42
1.51813
0
ELLIPSE
8
0
6
BYBLOCK
62
0
5
271e
100
AcDbEntity
100
AcDbEllipse
10
89.9906
20
-138
30
0
11
15.3091
21
-4.69799e-06
31
0
40
0.965926
41
3.14159
42
1.5708
0
CIRCLE
8
0
6
BYBLOCK
62
0
5
271f
100
AcDbEntity
100
AcDbCircle
10
63.2965
20
-119.5
30
0
40
4.5
0
CIRCLE
8
0
6
BYBLOCK
62
0
5
2720
100
AcDbEntity
100
AcDbCircle
10
63.2965
20
-156.5
30
0
40
4.5
0
SPLINE
8
0
6
BYBLOCK
62
0
5
2721
100
AcDbEntity
100
AcDbSpline
70
0
71
3
72
26
73
22
74
0
40
0.0499124
40
0.0499124
40
0.0499124
40
0.0499124
40
0.166998
40
0.166998
40
0.166998
40
0.284084
40
0.284084
40
0.284084
40
0.407852
40
0.407852
40
0.407852
40
0.644183
40
0.644183
40
0.644183
40
0.823864
40
0.823864
40
0.823864
40
0.915466
40
0.915466
40
0.915466
40
1
40
1
40
1
40
1
10
88.6183
20
-125.339
30
0
10
88.3149
20
-125.399
30
0
10
87.9305
20
-125.518
30
0
10
87.5134
20
-125.676
30
0
10
87.0935
20
-125.835
30
0
10
86.6457
20
-126.033
30
0
10
86.17
20
-126.27
30
0
10
85.6656
20
-126.521
30
0
10
85.1479
20
-126.817
30
0
10
84.617
20
-127.156
30
0
10
83.6083
20
-127.806
30
0
10
82.5713
20
-128.614
30
0
10
81.5675
20
-129.682
30
0
10
80.811
20
-130.495
30
0
10
80.0674
20
-131.447
30
0
10
79.4059
20
-132.712
30
0
10
79.0732
20
-133.355
30
0
10
78.7609
20
-134.08
30
0
10
78.5084
20
-134.967
30
0
10
78.2806
20
-135.781
30
0
10
78.0874
20
-136.767
30
0
10
78.0844
20
-138
30
0
0
SPLINE
8
0
6
BYBLOCK
62
0
5
2722
100
AcDbEntity
100
AcDbSpline
70
0
71
3
72
29
73
25
74
0
40
0
40
0
40
0
40
0
40
0.0696249
40
0.0696249
40
0.0696249
40
0.12424
40
0.12424
40
0.12424
40
0.216349
40
0.216349
40
0.216349
40
0.406234
40
0.406234
40
0.406234
40
0.596118
40
0.596118
40
0.596118
40
0.733232
40
0.733232
40
0.733232
40
0.870345
40
0.870345
40
0.870345
40
0.950413
40
0.950413
40
0.950413
40
0.950413
10
78.0844
20
-138
30
0
10
78.0853
20
-139.006
30
0
10
78.2194
20
-139.861
30
0
10
78.3887
20
-140.574
30
0
10
78.5228
20
-141.135
30
0
10
78.6841
20
-141.628
30
0
10
78.8588
20
-142.08
30
0
10
79.1553
20
-142.841
30
0
10
79.4903
20
-143.484
30
0
10
79.8408
20
-144.059
30
0
10
80.568
20
-145.246
30
0
10
81.3859
20
-146.179
30
0
10
82.1952
20
-146.95
30
0
10
83.0083
20
-147.72
30
0
10
83.8189
20
-148.331
30
0
10
84.6354
20
-148.856
30
0
10
85.2263
20
-149.232
30
0
10
85.7987
20
-149.553
30
0
10
86.3525
20
-149.82
30
0
10
86.9038
20
-150.088
30
0
10
87.4342
20
-150.306
30
0
10
87.8951
20
-150.461
30
0
10
88.1664
20
-150.552
30
0
10
88.4074
20
-150.618
30
0
10
88.6183
20
-150.661
30
0
0
CIRCLE
8
0
6
BYBLOCK
62
0
5
2723
100
AcDbEntity
100
AcDbCircle
10
63.2965
20
-119.5
30
0
40
2.75
0
SPLINE
8
0
6
BYBLOCK
62
0
5
2724
100
AcDbEntity
100
AcDbSpline
70
0
71
2
72
26
73
23
74
0
40
4.76506
40
4.76506
40
4.76506
40
4.78871
40
4.78871
40
4.81236
40
4.81236
40
4.83601
40
4.83601
40
4.85966
40
4.85966
40
4.88331
40
4.88331
40
4.90696
40
4.90696
40
4.93061
40
4.93061
40
4.95426
40
4.95426
40
5.00156
40
5.00156
40
5.04886
40
5.04886
40
5.09616
40
5.09616
40
5.09616
10
90.7965
20
-152.767
30
0
10
90.7965
20
-152.756
30
0
10
90.7965
20
-152.744
30
0
10
90.7965
20
-152.729
30
0
10
90.7965
20
-152.714
30
0
10
90.7965
20
-152.694
30
0
10
90.7965
20
-152.675
30
0
10
90.7965
20
-152.651
30
0
10
90.7965
20
-152.627
30
0
10
90.7965
20
-152.6
30
0
10
90.7965
20
-152.572
30
0
10
90.7965
20
-152.54
30
0
10
90.7965
20
-152.508
30
0
10
90.7965
20
-152.473
30
0
10
90.7965
20
-152.437
30
0
10
90.7965
20
-152.397
30
0
10
90.7965
20
-152.357
30
0
10
90.7965
20
-152.272
30
0
10
90.7965
20
-152.174
30
0
10
90.7965
20
-152.072
30
0
10
90.7965
20
-151.958
30
0
10
90.7965
20
-151.841
30
0
10
90.7965
20
-151.712
30
0
0
ELLIPSE
8
0
6
BYBLOCK
62
0
5
2725
100
AcDbEntity
100
AcDbEllipse
10
96.5285
20
-138
30
0
11
15.3091
21
-4.69799e-06
31
0
40
0.965926
41
2.11379
42
1.95457
0
CIRCLE
8
0
6
BYBLOCK
62
0
5
2726
100
AcDbEntity
100
AcDbCircle
10
63.2965
20
-156.5
30
0
40
2.75
0
LINE
8
0
6
BYBLOCK
62
0
5
2727
100
AcDbEntity
100
AcDbLine
10
35.7965
20
-162
30
0
11
35.7965
21
-162
31
0
0
LINE
8
0
6
BYBLOCK
62
0
5
2728
100
AcDbEntity
100
AcDbLine
10
35.7965
20
-114
30
0
11
35.7965
21
-114
31
0
0
LINE
8
0
6
BYBLOCK
62
0
5
2729
100
AcDbEntity
100
AcDbLine
10
35.7965
20
-151.712
30
0
11
35.7965
21
-129.897
31
0
0
LINE
8
0
6
BYBLOCK
62
0
5
272a
100
AcDbEntity
100
AcDbLine
10
35.7965
20
-162
30
0
11
35.7965
21
-151.712
31
0
0
LINE
8
0
6
BYBLOCK
62
0
5
272b
100
AcDbEntity
100
AcDbLine
10
90.7965
20
-151.712
30
0
11
90.7965
21
-151.491
31
0
0
SPLINE
8
0
6
BYBLOCK
62
0
5
272c
100
AcDbEntity
100
AcDbSpline
70
0
71
2
72
6
73
3
74
0
40
4.1694
40
4.1694
40
4.1694
40
4.29057
40
4.29057
40
4.29057
10
89.1542
20
-150.661
30
0
10
89.9494
20
-151.124
30
0
10
90.7965
20
-151.491
30
0
0
LINE
8
0
6
BYBLOCK
62
0
5
272d
100
AcDbEntity
100
AcDbLine
10
88.6183
20
-150.661
30
0
11
89.1542
21
-150.661
31
0
0
ELLIPSE
8
0
6
BYBLOCK
62
0
5
272e
100
AcDbEntity
100
AcDbEllipse
10
63.2965
20
-156.5
30
0
11
2.1
21
4.09003e-08
31
0
40
1
41
3.14159
42
9.42478
0
SPLINE
8
0
6
BYBLOCK
62
0
5
272f
100
AcDbEntity
100
AcDbSpline
70
0
71
1
72
17
73
15
74
0
40
5.13421
40
5.13421
40
5.16428
40
5.19435
40
5.22442
40
5.25449
40
5.28456
40
5.31463
40
5.34469
40
5.37476
40
5.40483
40
5.4349
40
5.46497
40
5.49504
40
5.52511
40
5.55518
40
5.55518
10
90.7965
20
-151.491
30
0
10
90.7965
20
-151.303
30
0
10
90.7965
20
-151.103
30
0
10
90.7965
20
-150.891
30
0
10
90.7965
20
-150.667
30
0
10
90.7965
20
-150.432
30
0
10
90.7965
20
-150.186
30
0
10
90.7965
20
-149.929
30
0
10
90.7965
20
-149.66
30
0
10
90.7965
20
-149.382
30
0
10
90.7965
20
-149.093
30
0
10
90.7965
20
-148.794
30
0
10
90.7965
20
-148.485
30
0
10
90.7965
20
-148.167
30
0
10
90.7965
20
-147.839
30
0
0
LINE
8
0
6
BYBLOCK
62
0
5
2730
100
AcDbEntity
100
AcDbLine
10
90.7965
20
-128.161
30
0
11
90.7965
21
-147.839
31
0
0
SPLINE
8
0
6
BYBLOCK
62
0
5
2731
100
AcDbEntity
100
AcDbSpline
70
0
71
1
72
17
73
15
74
0
40
0.72801
40
0.72801
40
0.758079
40
0.788148
40
0.818216
40
0.848285
40
0.878354
40
0.908423
40
0.938491
40
0.96856
40
0.998629
40
1.0287
40
1.05877
40
1.08883
40
1.1189
40
1.14897
40
1.14897
10
90.7965
20
-128.161
30
0
10
90.7965
20
-127.833
30
0
10
90.7965
20
-127.515
30
0
10
90.7965
20
-127.206
30
0
10
90.7965
20
-126.907
30
0
10
90.7965
20
-126.618
30
0
10
90.7965
20
-126.34
30
0
10
90.7965
20
-126.071
30
0
10
90.7965
20
-125.814
30
0
10
90.7965
20
-125.568
30
0
10
90.7965
20
-125.333
30
0
10
90.7965
20
-125.109
30
0
10
90.7965
20
-124.897
30
0
10
90.7965
20
-124.697
30
0
10
90.7965
20
-124.509
30
0
0
LINE
8
0
6
BYBLOCK
62
0
5
2732
100
AcDbEntity
100
AcDbLine
10
90.7965
20
-124.509
30
0
11
90.7965
21
-114
31
0
0
LINE
8
0
6
BYBLOCK
62
0
5
2733
100
AcDbEntity
100
AcDbLine
10
35.7965
20
-114
30
0
11
90.7965
21
-114
31
0
0
ELLIPSE
8
0
6
BYBLOCK
62
0
5
2734
100
AcDbEntity
100
AcDbEllipse
10
63.2965
20
-119.5
30
0
11
-2.1
21
-4.09003e-08
31
0
40
1
41
6.28319
42
1.92835e-08
0
SPLINE
8
0
6
BYBLOCK
62
0
5
2735
100
AcDbEntity
100
AcDbSpline
70
0
71
2
72
6
73
3
74
0
40
1.99262
40
1.99262
40
1.99262
40
2.11379
40
2.11379
40
2.11379
10
90.7965
20
-124.509
30
0
10
89.9494
20
-124.876
30
0
10
89.1542
20
-125.339
30
0
0
LINE
8
0
6
BYBLOCK
62
0
5
2736
100
AcDbEntity
100
AcDbLine
10
88.6183
20
-125.339
30
0
11
89.1542
21
-125.339
31
0
0
ELLIPSE
8
0
6
BYBLOCK
62
0
5
2737
100
AcDbEntity
100
AcDbEllipse
10
101.459
20
-138
30
0
11
7.9434e-06
21
14.7875
31
0
40
0.965926
41
0.842787
42
2.29881
0
SPLINE
8
0
6
BYBLOCK
62
0
5
2738
100
AcDbEntity
100
AcDbSpline
70
0
71
3
72
44
73
40
74
0
40
0.0301712
40
0.0301712
40
0.0301712
40
0.0301712
40
0.0459178
40
0.0459178
40
0.0459178
40
0.121243
40
0.121243
40
0.121243
40
0.23843
40
0.23843
40
0.23843
40
0.35294
40
0.35294
40
0.35294
40
0.443092
40
0.443092
40
0.443092
40
0.502468
40
0.502468
40
0.502468
40
0.541056
40
0.541056
40
0.541056
40
0.600609
40
0.600609
40
0.600609
40
0.65055
40
0.65055
40
0.65055
40
0.764951
40
0.764951
40
0.764951
40
0.879942
40
0.879942
40
0.879942
40
0.953239
40
0.953239
40
0.953239
40
0.970106
40
0.970106
40
0.970106
40
0.970106
10
89.1542
20
-150.661
30
0
10
89.1783
20
-150.646
30
0
10
89.196
20
-150.628
30
0
10
89.2073
20
-150.605
30
0
10
89.2631
20
-150.495
30
0
10
89.1522
20
-150.281
30
0
10
88.9599
20
-149.993
30
0
10
88.6598
20
-149.546
30
0
10
88.1838
20
-148.923
30
0
10
87.6831
20
-148.109
30
0
10
87.1912
20
-147.31
30
0
10
86.6628
20
-146.331
30
0
10
86.1771
20
-145.069
30
0
10
85.7972
20
-144.074
30
0
10
85.4374
20
-142.908
30
0
10
85.1807
20
-141.426
30
0
10
85.0131
20
-140.45
30
0
10
84.8901
20
-139.289
30
0
10
84.8903
20
-138
30
0
10
84.8899
20
-137.163
30
0
10
84.9431
20
-136.36
30
0
10
85.0263
20
-135.648
30
0
10
85.155
20
-134.549
30
0
10
85.3505
20
-133.618
30
0
10
85.5708
20
-132.796
30
0
10
85.7565
20
-132.106
30
0
10
85.9616
20
-131.493
30
0
10
86.175
20
-130.936
30
0
10
86.6653
20
-129.661
30
0
10
87.1992
20
-128.675
30
0
10
87.6954
20
-127.871
30
0
10
88.1915
20
-127.067
30
0
10
88.6623
20
-126.451
30
0
10
88.9599
20
-126.007
30
0
10
89.1488
20
-125.724
30
0
10
89.2595
20
-125.512
30
0
10
89.2099
20
-125.401
30
0
10
89.1988
20
-125.375
30
0
10
89.1802
20
-125.355
30
0
10
89.1542
20
-125.339
30
0
0
LINE
8
0
6
BYBLOCK
62
0
5
2739
100
AcDbEntity
100
AcDbLine
10
31.426
20
-112.6
30
0
11
31.426
21
-163.4
31
0
0
LINE
8
0
6
BYBLOCK
62
0
5
273a
100
AcDbEntity
100
AcDbLine
10
98.0841
20
-112.6
30
0
11
98.0841
21
-163.4
31
0
0
LINE
8
0
6
BYBLOCK
62
0
5
273b
100
AcDbEntity
100
AcDbLine
10
31.426
20
-112.6
30
0
11
95.824
21
-112.6
31
0
0
LINE
8
0
6
BYBLOCK
62
0
5
273c
100
AcDbEntity
100
AcDbLine
10
31.426
20
-163.4
30
0
11
95.824
21
-163.4
31
0
0
LINE
8
0
6
BYBLOCK
62
0
5
273d
100
AcDbEntity
100
AcDbLine
10
95.824
20
-112.6
30
0
11
95.824
21
-163.4
31
0
0
LINE
8
0
6
BYBLOCK
62
0
5
273e
100
AcDbEntity
100
AcDbLine
10
95.824
20
-112.6
30
0
11
98.0841
21
-112.6
31
0
0
LINE
8
0
6
BYBLOCK
62
0
5
273f
100
AcDbEntity
100
AcDbLine
10
95.824
20
-163.4
30
0
11
98.0841
21
-163.4
31
0
0
LINE
8
0
6
BYBLOCK
62
0
5
2740
100
AcDbEntity
100
AcDbLine
10
78.0844
20
-138
30
0
11
74.6814
21
-138
31
0
0
LINE
8
0
6
BYBLOCK
62
0
5
2741
100
AcDbEntity
100
AcDbLine
10
90.7965
20
-114
30
0
11
35.7965
21
-114
31
0
0
ELLIPSE
8
0
6
BYBLOCK
62
0
5
2742
100
AcDbEntity
100
AcDbEllipse
10
29.5285
20
-138
30
0
11
15.3091
21
-2.93519e-06
31
0
40
0.965926
41
5.25538
42
5.13421
0
LINE
8
0
6
BYBLOCK
62
0
5
2743
100
AcDbEntity
100
AcDbLine
10
35.7965
20
-124.509
30
0
11
35.7965
21
-114
31
0
0
LINE
8
0
6
BYBLOCK
62
0
5
2744
100
AcDbEntity
100
AcDbLine
10
37.4387
20
-125.339
30
0
11
88.6183
21
-125.339
31
0
0
LINE
8
0
6
BYBLOCK
62
0
5
2745
100
AcDbEntity
100
AcDbLine
10
90.7965
20
-124.288
30
0
11
90.7965
21
-114
31
0
0
CIRCLE
8
0
6
BYBLOCK
62
0
5
2746
100
AcDbEntity
100
AcDbCircle
10
63.2965
20
-119.5
30
0
40
2.75
0
SPLINE
8
0
6
BYBLOCK
62
0
5
2747
100
AcDbEntity
100
AcDbSpline
70
0
71
2
72
6
73
3
74
0
40
1.51813
40
1.51813
40
1.51813
40
1.5708
40
1.5708
40
1.5708
10
90.7965
20
-123.233
30
0
10
90.7965
20
-123.213
30
0
10
90.7965
20
-123.212
30
0
0
SPLINE
8
0
6
BYBLOCK
62
0
5
2748
100
AcDbEntity
100
AcDbSpline
70
0
71
2
72
6
73
3
74
0
40
1.5708
40
1.5708
40
1.5708
40
1.62346
40
1.62346
40
1.62346
10
90.7965
20
-123.212
30
0
10
90.7965
20
-123.213
30
0
10
90.7965
20
-123.233
30
0
0
SPLINE
8
0
6
BYBLOCK
62
0
5
2749
100
AcDbEntity
100
AcDbSpline
70
0
71
1
72
17
73
15
74
0
40
3.72155
40
3.72155
40
3.76219
40
3.80284
40
3.84348
40
3.88412
40
3.92477
40
3.96541
40
4.00606
40
4.0467
40
4.08734
40
4.12799
40
4.16863
40
4.20928
40
4.24992
40
4.29057
40
4.29057
10
35.7965
20
-129.897
30
0
10
35.7965
20
-129.401
30
0
10
35.7965
20
-128.919
30
0
10
35.7965
20
-128.452
30
0
10
35.7965
20
-128.001
30
0
10
35.7965
20
-127.567
30
0
10
35.7965
20
-127.15
30
0
10
35.7965
20
-126.75
30
0
10
35.7965
20
-126.37
30
0
10
35.7965
20
-126.008
30
0
10
35.7965
20
-125.667
30
0
10
35.7965
20
-125.345
30
0
10
35.7965
20
-125.045
30
0
10
35.7965
20
-124.766
30
0
10
35.7965
20
-124.509
30
0
0
SPLINE
8
0
6
BYBLOCK
62
0
5
274a
100
AcDbEntity
100
AcDbSpline
70
0
71
3
72
44
73
40
74
0
40
0.0301402
40
0.0301402
40
0.0301402
40
0.0301402
40
0.0456995
40
0.0456995
40
0.0456995
40
0.122945
40
0.122945
40
0.122945
40
0.237421
40
0.237421
40
0.237421
40
0.353707
40
0.353707
40
0.353707
40
0.443342
40
0.443342
40
0.443342
40
0.502472
40
0.502472
40
0.502472
40
0.540908
40
0.540908
40
0.540908
40
0.60018
40
0.60018
40
0.60018
40
0.64987
40
0.64987
40
0.64987
40
0.763715
40
0.763715
40
0.763715
40
0.880556
40
0.880556
40
0.880556
40
0.955646
40
0.955646
40
0.955646
40
0.970169
40
0.970169
40
0.970169
40
0.970169
10
37.4387
20
-125.339
30
0
10
37.4149
20
-125.353
30
0
10
37.3974
20
-125.372
30
0
10
37.386
20
-125.395
30
0
10
37.3279
20
-125.506
30
0
10
37.4456
20
-125.729
30
0
10
37.6467
20
-126.028
30
0
10
37.9454
20
-126.47
30
0
10
38.4091
20
-127.08
30
0
10
38.8977
20
-127.871
30
0
10
39.3966
20
-128.679
30
0
10
39.9336
20
-129.672
30
0
10
40.4261
20
-130.957
30
0
10
40.8032
20
-131.95
30
0
10
41.16
20
-133.112
30
0
10
41.4145
20
-134.587
30
0
10
41.5809
20
-135.56
30
0
10
41.7029
20
-136.716
30
0
10
41.7027
20
-138
30
0
10
41.703
20
-138.834
30
0
10
41.6503
20
-139.633
30
0
10
41.5677
20
-140.343
30
0
10
41.44
20
-141.438
30
0
10
41.2461
20
-142.365
30
0
10
41.0273
20
-143.185
30
0
10
40.843
20
-143.872
30
0
10
40.6393
20
-144.484
30
0
10
40.4273
20
-145.039
30
0
10
39.9402
20
-146.311
30
0
10
39.4092
20
-147.297
30
0
10
38.9148
20
-148.101
30
0
10
38.4102
20
-148.922
30
0
10
37.9302
20
-149.549
30
0
10
37.6294
20
-149.998
30
0
10
37.4366
20
-150.287
30
0
10
37.3272
20
-150.502
30
0
10
37.388
20
-150.609
30
0
10
37.3994
20
-150.63
30
0
10
37.4163
20
-150.647
30
0
10
37.4387
20
-150.661
30
0
0
SPLINE
8
0
6
BYBLOCK
62
0
5
274b
100
AcDbEntity
100
AcDbSpline
70
0
71
1
72
17
73
15
74
0
40
1.99262
40
1.99262
40
2.03326
40
2.07391
40
2.11455
40
2.1552
40
2.19584
40
2.23648
40
2.27713
40
2.31777
40
2.35842
40
2.39906
40
2.43971
40
2.48035
40
2.52099
40
2.56164
40
2.56164
10
35.7965
20
-151.491
30
0
10
35.7965
20
-151.234
30
0
10
35.7965
20
-150.955
30
0
10
35.7965
20
-150.655
30
0
10
35.7965
20
-150.333
30
0
10
35.7965
20
-149.992
30
0
10
35.7965
20
-149.63
30
0
10
35.7965
20
-149.25
30
0
10
35.7965
20
-148.85
30
0
10
35.7965
20
-148.433
30
0
10
35.7965
20
-147.999
30
0
10
35.7965
20
-147.548
30
0
10
35.7965
20
-147.081
30
0
10
35.7965
20
-146.599
30
0
10
35.7965
20
-146.103
30
0
0
ELLIPSE
8
0
6
BYBLOCK
62
0
5
274c
100
AcDbEntity
100
AcDbEllipse
10
29.5285
20
-138
30
0
11
15.3091
21
-2.93519e-06
31
0
40
0.965926
41
1.14897
42
1.0278
0
LINE
8
0
6
BYBLOCK
62
0
5
274d
100
AcDbEntity
100
AcDbLine
10
37.4387
20
-150.661
30
0
11
88.6183
21
-150.661
31
0
0
LINE
8
0
6
BYBLOCK
62
0
5
274e
100
AcDbEntity
100
AcDbLine
10
35.7965
20
-162
30
0
11
35.7965
21
-151.491
31
0
0
LINE
8
0
6
BYBLOCK
62
0
5
274f
100
AcDbEntity
100
AcDbLine
10
35.7965
20
-162
30
0
11
90.7965
21
-162
31
0
0
SPLINE
8
0
6
BYBLOCK
62
0
5
2750
100
AcDbEntity
100
AcDbSpline
70
0
71
2
72
6
73
3
74
0
40
4.65972
40
4.65972
40
4.65972
40
4.71239
40
4.71239
40
4.71239
10
90.7965
20
-152.767
30
0
10
90.7965
20
-152.787
30
0
10
90.7965
20
-152.787
30
0
0
SPLINE
8
0
6
BYBLOCK
62
0
5
2751
100
AcDbEntity
100
AcDbSpline
70
0
71
2
72
6
73
3
74
0
40
4.71239
40
4.71239
40
4.71239
40
4.76506
40
4.76506
40
4.76506
10
90.7965
20
-152.787
30
0
10
90.7965
20
-152.787
30
0
10
90.7965
20
-152.767
30
0
0
LINE
8
0
6
BYBLOCK
62
0
5
2752
100
AcDbEntity
100
AcDbLine
10
90.7965
20
-162
30
0
11
90.7965
21
-151.712
31
0
0
CIRCLE
8
0
6
BYBLOCK
62
0
5
2753
100
AcDbEntity
100
AcDbCircle
10
63.2965
20
-119.5
30
0
40
4.5
0
CIRCLE
8
0
6
BYBLOCK
62
0
5
2754
100
AcDbEntity
100
AcDbCircle
10
63.2965
20
-156.5
30
0
40
4.5
0
CIRCLE
8
0
6
BYBLOCK
62
0
5
2755
100
AcDbEntity
100
AcDbCircle
10
63.2965
20
-156.5
30
0
40
2.75
0
LINE
8
0
6
BYBLOCK
62
0
5
2756
100
AcDbEntity
100
AcDbLine
10
90.7965
20
-162
30
0
11
35.7965
21
-162
31
0
0
LINE
8
0
6
BYBLOCK
62
0
5
2757
100
AcDbEntity
100
AcDbLine
10
35.7965
20
-162
30
0
11
35.7965
21
-162
31
0
0
LINE
8
0
6
BYBLOCK
62
0
5
2758
100
AcDbEntity
100
AcDbLine
10
90.7965
20
-162
30
0
11
35.7965
21
-162
31
0
0
LINE
8
0
6
BYBLOCK
62
0
5
2759
100
AcDbEntity
100
AcDbLine
10
90.7965
20
-162
30
0
11
90.7965
21
-162
31
0
0
LINE
8
0
6
BYBLOCK
62
0
5
275a
100
AcDbEntity
100
AcDbLine
10
90.7965
20
-114
30
0
11
90.7965
21
-162
31
0
0
LINE
8
0
6
BYBLOCK
62
0
5
275b
100
AcDbEntity
100
AcDbLine
10
35.7965
20
-162
30
0
11
35.7965
21
-114
31
0
0
LINE
8
0
6
BYBLOCK
62
0
5
275c
100
AcDbEntity
100
AcDbLine
10
35.7965
20
-114
30
0
11
90.7965
21
-114
31
0
0
ELLIPSE
8
0
6
BYBLOCK
62
0
5
275d
100
AcDbEntity
100
AcDbEllipse
10
80.7965
20
-156.5
30
0
11
2.75
21
4.93176e-08
31
0
40
1
41
3.14159
42
9.42478
0
ELLIPSE
8
0
6
BYBLOCK
62
0
5
275e
100
AcDbEntity
100
AcDbEllipse
10
63.2965
20
-156.5
30
0
11
2.1
21
3.76607e-08
31
0
40
1
41
3.14159
42
9.42478
0
ELLIPSE
8
0
6
BYBLOCK
62
0
5
275f
100
AcDbEntity
100
AcDbEllipse
10
63.2965
20
-119.5
30
0
11
2.1
21
3.76607e-08
31
0
40
1
41
3.14159
42
9.42478
0
ELLIPSE
8
0
6
BYBLOCK
62
0
5
2760
100
AcDbEntity
100
AcDbEllipse
10
80.7965
20
-119.5
30
0
11
2.75
21
4.93176e-08
31
0
40
1
41
3.14159
42
9.42478
0
ELLIPSE
8
0
6
BYBLOCK
62
0
5
2761
100
AcDbEntity
100
AcDbEllipse
10
45.7965
20
-119.5
30
0
11
2.75
21
4.93176e-08
31
0
40
1
41
3.14159
42
9.42478
0
ELLIPSE
8
0
6
BYBLOCK
62
0
5
2762
100
AcDbEntity
100
AcDbEllipse
10
45.7965
20
-156.5
30
0
11
2.75
21
4.93176e-08
31
0
40
1
41
3.14159
42
9.42478
0
LINE
8
0
6
BYBLOCK
62
0
5
2763
100
AcDbEntity
100
AcDbLine
10
35.7965
20
-114
30
0
11
35.7965
21
-114
31
0
0
LINE
8
0
6
BYBLOCK
62
0
5
2764
100
AcDbEntity
100
AcDbLine
10
35.7965
20
-124.288
30
0
11
35.7965
21
-114
31
0
0
SPLINE
8
0
6
BYBLOCK
62
0
5
2765
100
AcDbEntity
100
AcDbSpline
70
0
71
2
72
28
73
25
74
0
40
4.32862
40
4.32862
40
4.32862
40
4.35237
40
4.35237
40
4.39988
40
4.39988
40
4.44738
40
4.44738
40
4.47114
40
4.47114
40
4.49489
40
4.49489
40
4.51864
40
4.51864
40
4.5424
40
4.5424
40
4.56615
40
4.56615
40
4.5899
40
4.5899
40
4.61365
40
4.61365
40
4.63741
40
4.63741
40
4.66116
40
4.66116
40
4.66116
10
35.7965
20
-124.288
30
0
10
35.7965
20
-124.224
30
0
10
35.7965
20
-124.161
30
0
10
35.7965
20
-124.038
30
0
10
35.7965
20
-123.929
30
0
10
35.7965
20
-123.822
30
0
10
35.7965
20
-123.729
30
0
10
35.7965
20
-123.685
30
0
10
35.7965
20
-123.641
30
0
10
35.7965
20
-123.601
30
0
10
35.7965
20
-123.561
30
0
10
35.7965
20
-123.525
30
0
10
35.7965
20
-123.489
30
0
10
35.7965
20
-123.457
30
0
10
35.7965
20
-123.426
30
0
10
35.7965
20
-123.398
30
0
10
35.7965
20
-123.37
30
0
10
35.7965
20
-123.347
30
0
10
35.7965
20
-123.323
30
0
10
35.7965
20
-123.304
30
0
10
35.7965
20
-123.285
30
0
10
35.7965
20
-123.269
30
0
10
35.7965
20
-123.254
30
0
10
35.7965
20
-123.243
30
0
10
35.7965
20
-123.232
30
0
0
LINE
8
0
6
BYBLOCK
62
0
5
2766
100
AcDbEntity
100
AcDbLine
10
35.7965
20
-152.768
30
0
11
35.7965
21
-151.712
31
0
0
LINE
8
0
6
BYBLOCK
62
0
5
2767
100
AcDbEntity
100
AcDbLine
10
35.7965
20
-129.897
30
0
11
35.7965
21
-123.232
31
0
0
SPLINE
8
0
6
BYBLOCK
62
0
5
2768
100
AcDbEntity
100
AcDbSpline
70
0
71
2
72
28
73
25
74
0
40
1.62202
40
1.62202
40
1.62202
40
1.64578
40
1.64578
40
1.66953
40
1.66953
40
1.69328
40
1.69328
40
1.71704
40
1.71704
40
1.74079
40
1.74079
40
1.76454
40
1.76454
40
1.7883
40
1.7883
40
1.81205
40
1.81205
40
1.8358
40
1.8358
40
1.85956
40
1.85956
40
1.90706
40
1.90706
40
1.95457
40
1.95457
40
1.95457
10
35.7965
20
-152.768
30
0
10
35.7965
20
-152.757
30
0
10
35.7965
20
-152.746
30
0
10
35.7965
20
-152.731
30
0
10
35.7965
20
-152.715
30
0
10
35.7965
20
-152.696
30
0
10
35.7965
20
-152.677
30
0
10
35.7965
20
-152.653
30
0
10
35.7965
20
-152.63
30
0
10
35.7965
20
-152.602
30
0
10
35.7965
20
-152.574
30
0
10
35.7965
20
-152.543
30
0
10
35.7965
20
-152.511
30
0
10
35.7965
20
-152.475
30
0
10
35.7965
20
-152.439
30
0
10
35.7965
20
-152.399
30
0
10
35.7965
20
-152.359
30
0
10
35.7965
20
-152.315
30
0
10
35.7965
20
-152.271
30
0
10
35.7965
20
-152.223
30
0
10
35.7965
20
-152.175
30
0
10
35.7965
20
-152.073
30
0
10
35.7965
20
-151.959
30
0
10
35.7965
20
-151.842
30
0
10
35.7965
20
-151.712
30
0
0
LINE
8
0
6
BYBLOCK
62
0
5
2769
100
AcDbEntity
100
AcDbLine
10
90.7965
20
-162
30
0
11
90.7965
21
-151.712
31
0
0
SPLINE
8
0
6
BYBLOCK
62
0
5
276a
100
AcDbEntity
100
AcDbSpline
70
0
71
2
72
6
73
3
74
0
40
5.09616
40
5.09616
40
5.09616
40
5.25538
40
5.25538
40
5.25538
10
35.7965
20
-151.712
30
0
10
36.9287
20
-151.27
30
0
10
37.9746
20
-150.661
30
0
0
LINE
8
0
6
BYBLOCK
62
0
5
276b
100
AcDbEntity
100
AcDbLine
10
37.9746
20
-150.661
30
0
11
88.6183
21
-150.661
31
0
0
ELLIPSE
8
0
6
BYBLOCK
62
0
5
276c
100
AcDbEntity
100
AcDbEllipse
10
80.7965
20
-156.5
30
0
11
4.5
21
8.76436e-08
31
0
40
1
41
3.14159
42
9.42478
0
ELLIPSE
8
0
6
BYBLOCK
62
0
5
276d
100
AcDbEntity
100
AcDbEllipse
10
45.7965
20
-156.5
30
0
11
4.5
21
8.76436e-08
31
0
40
1
41
3.14159
42
9.42478
0
LINE
8
0
6
BYBLOCK
62
0
5
276e
100
AcDbEntity
100
AcDbLine
10
90.7965
20
-114
30
0
11
90.7965
21
-114
31
0
0
ELLIPSE
8
0
6
BYBLOCK
62
0
5
276f
100
AcDbEntity
100
AcDbEllipse
10
80.7965
20
-156.5
30
0
11
2.75
21
4.93176e-08
31
0
40
1
41
3.14159
42
9.42478
0
LINE
8
0
6
BYBLOCK
62
0
5
2770
100
AcDbEntity
100
AcDbLine
10
78.0465
20
-156.5
30
0
11
78.0465
21
-156.5
31
0
0
LINE
8
0
6
BYBLOCK
62
0
5
2771
100
AcDbEntity
100
AcDbLine
10
61.1965
20
-156.5
30
0
11
61.1965
21
-156.5
31
0
0
LINE
8
0
6
BYBLOCK
62
0
5
2772
100
AcDbEntity
100
AcDbLine
10
61.1965
20
-119.5
30
0
11
61.1965
21
-119.5
31
0
0
ELLIPSE
8
0
6
BYBLOCK
62
0
5
2773
100
AcDbEntity
100
AcDbEllipse
10
80.7965
20
-119.5
30
0
11
2.75
21
4.93176e-08
31
0
40
1
41
3.14159
42
9.42478
0
LINE
8
0
6
BYBLOCK
62
0
5
2774
100
AcDbEntity
100
AcDbLine
10
78.0465
20
-119.5
30
0
11
78.0465
21
-119.5
31
0
0
ELLIPSE
8
0
6
BYBLOCK
62
0
5
2775
100
AcDbEntity
100
AcDbEllipse
10
45.7965
20
-119.5
30
0
11
2.75
21
4.93176e-08
31
0
40
1
41
3.14159
42
9.42478
0
LINE
8
0
6
BYBLOCK
62
0
5
2776
100
AcDbEntity
100
AcDbLine
10
43.0465
20
-119.5
30
0
11
43.0465
21
-119.5
31
0
0
ELLIPSE
8
0
6
BYBLOCK
62
0
5
2777
100
AcDbEntity
100
AcDbEllipse
10
45.7965
20
-156.5
30
0
11
2.75
21
4.93176e-08
31
0
40
1
41
3.14159
42
9.42478
0
LINE
8
0
6
BYBLOCK
62
0
5
2778
100
AcDbEntity
100
AcDbLine
10
43.0465
20
-156.5
30
0
11
43.0465
21
-156.5
31
0
0
LINE
8
0
6
BYBLOCK
62
0
5
2779
100
AcDbEntity
100
AcDbLine
10
37.9746
20
-125.339
30
0
11
88.6183
21
-125.339
31
0
0
SPLINE
8
0
6
BYBLOCK
62
0
5
277a
100
AcDbEntity
100
AcDbSpline
70
0
71
2
72
6
73
3
74
0
40
1.02781
40
1.02781
40
1.02781
40
1.18703
40
1.18703
40
1.18703
10
37.9746
20
-125.339
30
0
10
36.9287
20
-124.73
30
0
10
35.7965
20
-124.288
30
0
0
ELLIPSE
8
0
6
BYBLOCK
62
0
5
277b
100
AcDbEntity
100
AcDbEllipse
10
80.7965
20
-119.5
30
0
11
-4.5
21
-8.76436e-08
31
0
40
1
41
6.28319
42
1.92835e-08
0
ELLIPSE
8
0
6
BYBLOCK
62
0
5
277c
100
AcDbEntity
100
AcDbEllipse
10
45.7965
20
-119.5
30
0
11
-4.5
21
-8.76436e-08
31
0
40
1
41
6.28319
42
1.92835e-08
0
ELLIPSE
8
0
6
BYBLOCK
62
0
5
277d
100
AcDbEntity
100
AcDbEllipse
10
35.0651
20
-138
30
0
11
7.9434e-06
21
14.7875
31
0
40
0.965926
41
4.71239
42
6.23196
0
SPLINE
8
0
6
BYBLOCK
62
0
5
277e
100
AcDbEntity
100
AcDbSpline
70
0
71
3
72
29
73
25
74
0
40
0
40
0
40
0
40
0
40
0.0674516
40
0.0674516
40
0.0674516
40
0.124845
40
0.124845
40
0.124845
40
0.21745
40
0.21745
40
0.21745
40
0.406106
40
0.406106
40
0.406106
40
0.594763
40
0.594763
40
0.594763
40
0.731214
40
0.731214
40
0.731214
40
0.867665
40
0.867665
40
0.867665
40
0.950411
40
0.950411
40
0.950411
40
0.950411
10
48.5086
20
-138
30
0
10
48.5078
20
-137.025
30
0
10
48.3814
20
-136.191
30
0
10
48.2201
20
-135.493
30
0
10
48.0815
20
-134.898
30
0
10
47.9122
20
-134.378
30
0
10
47.7281
20
-133.905
30
0
10
47.4295
20
-133.141
30
0
10
47.092
20
-132.496
30
0
10
46.7391
20
-131.919
30
0
10
46.0155
20
-130.743
30
0
10
45.2032
20
-129.817
30
0
10
44.3991
20
-129.051
30
0
10
43.5913
20
-128.286
30
0
10
42.7857
20
-127.678
30
0
10
41.9744
20
-127.155
30
0
10
41.3863
20
-126.78
30
0
10
40.8163
20
-126.459
30
0
10
40.2644
20
-126.192
30
0
10
39.7149
20
-125.924
30
0
10
39.1861
20
-125.705
30
0
10
38.7248
20
-125.549
30
0
10
38.4428
20
-125.453
30
0
10
38.1927
20
-125.383
30
0
10
37.9746
20
-125.339
30
0
0
ELLIPSE
8
0
6
BYBLOCK
62
0
5
277f
100
AcDbEntity
100
AcDbEllipse
10
35.0651
20
-138
30
0
11
7.9434e-06
21
14.7875
31
0
40
0.965926
41
3.19282
42
4.71239
0
SPLINE
8
0
6
BYBLOCK
62
0
5
2780
100
AcDbEntity
100
AcDbSpline
70
0
71
3
72
26
73
22
74
0
40
0.0499209
40
0.0499209
40
0.0499209
40
0.0499209
40
0.167545
40
0.167545
40
0.167545
40
0.285169
40
0.285169
40
0.285169
40
0.409368
40
0.409368
40
0.409368
40
0.642714
40
0.642714
40
0.642714
40
0.821577
40
0.821577
40
0.821577
40
0.915068
40
0.915068
40
0.915068
40
1
40
1
40
1
40
1
10
37.9746
20
-150.661
30
0
10
38.2794
20
-150.601
30
0
10
38.6659
20
-150.481
30
0
10
39.0851
20
-150.322
30
0
10
39.5073
20
-150.162
30
0
10
39.9574
20
-149.963
30
0
10
40.4356
20
-149.724
30
0
10
40.9421
20
-149.471
30
0
10
41.4617
20
-149.173
30
0
10
41.9947
20
-148.832
30
0
10
42.991
20
-148.188
30
0
10
44.0145
20
-147.39
30
0
10
45.0061
20
-146.339
30
0
10
45.7597
20
-145.532
30
0
10
46.5007
20
-144.587
30
0
10
47.1616
20
-143.337
30
0
10
47.5026
20
-142.684
30
0
10
47.8228
20
-141.949
30
0
10
48.0812
20
-141.045
30
0
10
48.3106
20
-140.228
30
0
10
48.5054
20
-139.239
30
0
10
48.5086
20
-138
30
0
0
LINE
8
0
6
BYBLOCK
62
0
5
2781
100
AcDbEntity
100
AcDbLine
10
76.2965
20
-156.5
30
0
11
76.2965
21
-156.5
31
0
0
ELLIPSE
8
0
6
BYBLOCK
62
0
5
2782
100
AcDbEntity
100
AcDbEllipse
10
80.7965
20
-156.5
30
0
11
4.5
21
8.76436e-08
31
0
40
1
41
3.14159
42
9.42478
0
LINE
8
0
6
BYBLOCK
62
0
5
2783
100
AcDbEntity
100
AcDbLine
10
41.2965
20
-156.5
30
0
11
41.2965
21
-156.5
31
0
0
ELLIPSE
8
0
6
BYBLOCK
62
0
5
2784
100
AcDbEntity
100
AcDbEllipse
10
45.7965
20
-156.5
30
0
11
4.5
21
8.76436e-08
31
0
40
1
41
3.14159
42
9.42478
0
ELLIPSE
8
0
6
BYBLOCK
62
0
5
2785
100
AcDbEntity
100
AcDbEllipse
10
80.7965
20
-119.5
30
0
11
-4.5
21
-8.76436e-08
31
0
40
1
41
6.28319
42
1.92835e-08
0
ELLIPSE
8
0
6
BYBLOCK
62
0
5
2786
100
AcDbEntity
100
AcDbEllipse
10
45.7965
20
-119.5
30
0
11
-4.5
21
-8.76436e-08
31
0
40
1
41
6.28319
42
1.92835e-08
0
LINE
8
0
6
BYBLOCK
62
0
5
2787
100
AcDbEntity
100
AcDbLine
10
76.2965
20
-119.5
30
0
11
76.2965
21
-119.5
31
0
0
LINE
8
0
6
BYBLOCK
62
0
5
2788
100
AcDbEntity
100
AcDbLine
10
41.2965
20
-119.5
30
0
11
41.2965
21
-119.5
31
0
0
LINE
8
0
6
BYBLOCK
62
0
5
2789
100
AcDbEntity
100
AcDbLine
10
38
20
-112.6
30
0
11
38
21
-163.4
31
0
0
LINE
8
0
6
BYBLOCK
62
0
5
278a
100
AcDbEntity
100
AcDbLine
10
38
20
-112.6
30
0
11
31.426
21
-112.6
31
0
0
LINE
8
0
6
BYBLOCK
62
0
5
278b
100
AcDbEntity
100
AcDbLine
10
38
20
-163.4
30
0
11
31.426
21
-163.4
31
0
0
LINE
8
0
6
BYBLOCK
62
0
5
278c
100
AcDbEntity
100
AcDbLine
10
98.0841
20
-112.6
30
0
11
38
21
-112.6
31
0
0
LINE
8
0
6
BYBLOCK
62
0
5
278d
100
AcDbEntity
100
AcDbLine
10
98.0841
20
-163.4
30
0
11
38
21
-163.4
31
0
0
SPLINE
8
0
6
BYBLOCK
62
0
5
278e
100
AcDbEntity
100
AcDbSpline
70
0
71
1
72
17
73
15
74
0
40
3.14159
40
3.14159
40
3.59039
40
4.03919
40
4.48799
40
4.93679
40
5.38559
40
5.83439
40
6.28319
40
6.73198
40
7.18078
40
7.62958
40
8.07838
40
8.52718
40
8.97598
40
9.42478
40
9.42478
10
78.6965
20
-156.5
30
0
10
78.9044
20
-155.589
30
0
10
79.4871
20
-154.858
30
0
10
80.3292
20
-154.453
30
0
10
81.2638
20
-154.453
30
0
10
82.1058
20
-154.858
30
0
10
82.6885
20
-155.589
30
0
10
82.8965
20
-156.5
30
0
10
82.6885
20
-157.411
30
0
10
82.1058
20
-158.142
30
0
10
81.2638
20
-158.547
30
0
10
80.3292
20
-158.547
30
0
10
79.4871
20
-158.142
30
0
10
78.9044
20
-157.411
30
0
10
78.6965
20
-156.5
30
0
0
SPLINE
8
0
6
BYBLOCK
62
0
5
278f
100
AcDbEntity
100
AcDbSpline
70
0
71
1
72
17
73
15
74
0
40
3.14159
40
3.14159
40
3.59039
40
4.03919
40
4.48799
40
4.93679
40
5.38559
40
5.83439
40
6.28319
40
6.73198
40
7.18078
40
7.62958
40
8.07838
40
8.52718
40
8.97598
40
9.42478
40
9.42478
10
78.6965
20
-119.5
30
0
10
78.9044
20
-118.589
30
0
10
79.4871
20
-117.858
30
0
10
80.3292
20
-117.453
30
0
10
81.2638
20
-117.453
30
0
10
82.1058
20
-117.858
30
0
10
82.6885
20
-118.589
30
0
10
82.8965
20
-119.5
30
0
10
82.6885
20
-120.411
30
0
10
82.1058
20
-121.142
30
0
10
81.2638
20
-121.547
30
0
10
80.3292
20
-121.547
30
0
10
79.4871
20
-121.142
30
0
10
78.9044
20
-120.411
30
0
10
78.6965
20
-119.5
30
0
0
SPLINE
8
0
6
BYBLOCK
62
0
5
2790
100
AcDbEntity
100
AcDbSpline
70
0
71
1
72
17
73
15
74
0
40
3.14159
40
3.14159
40
3.59039
40
4.03919
40
4.48799
40
4.93679
40
5.38559
40
5.83439
40
6.28319
40
6.73198
40
7.18078
40
7.62958
40
8.07838
40
8.52718
40
8.97598
40
9.42478
40
9.42478
10
43.6965
20
-119.5
30
0
10
43.9044
20
-118.589
30
0
10
44.4871
20
-117.858
30
0
10
45.3292
20
-117.453
30
0
10
46.2638
20
-117.453
30
0
10
47.1058
20
-117.858
30
0
10
47.6885
20
-118.589
30
0
10
47.8965
20
-119.5
30
0
10
47.6885
20
-120.411
30
0
10
47.1058
20
-121.142
30
0
10
46.2638
20
-121.547
30
0
10
45.3292
20
-121.547
30
0
10
44.4871
20
-121.142
30
0
10
43.9044
20
-120.411
30
0
10
43.6965
20
-119.5
30
0
0
SPLINE
8
0
6
BYBLOCK
62
0
5
2791
100
AcDbEntity
100
AcDbSpline
70
0
71
1
72
17
73
15
74
0
40
3.14159
40
3.14159
40
3.59039
40
4.03919
40
4.48799
40
4.93679
40
5.38559
40
5.83439
40
6.28319
40
6.73198
40
7.18078
40
7.62958
40
8.07838
40
8.52718
40
8.97598
40
9.42478
40
9.42478
10
43.6965
20
-156.5
30
0
10
43.9044
20
-155.589
30
0
10
44.4871
20
-154.858
30
0
10
45.3292
20
-154.453
30
0
10
46.2638
20
-154.453
30
0
10
47.1058
20
-154.858
30
0
10
47.6885
20
-155.589
30
0
10
47.8965
20
-156.5
30
0
10
47.6885
20
-157.411
30
0
10
47.1058
20
-158.142
30
0
10
46.2638
20
-158.547
30
0
10
45.3292
20
-158.547
30
0
10
44.4871
20
-158.142
30
0
10
43.9044
20
-157.411
30
0
10
43.6965
20
-156.5
30
0
0
ELLIPSE
8
0
6
BYBLOCK
62
0
5
2792
100
AcDbEntity
100
AcDbEllipse
10
80.7965
20
-119.5
30
0
11
2.1
21
3.68508e-08
31
0
40
1
41
3.14159
42
9.42478
0
ELLIPSE
8
0
6
BYBLOCK
62
0
5
2793
100
AcDbEntity
100
AcDbEllipse
10
45.7965
20
-119.5
30
0
11
2.1
21
3.68508e-08
31
0
40
1
41
3.14159
42
9.42478
0
ELLIPSE
8
0
6
BYBLOCK
62
0
5
2794
100
AcDbEntity
100
AcDbEllipse
10
80.7965
20
-156.5
30
0
11
2.1
21
3.68508e-08
31
0
40
1
41
3.14159
42
9.42478
0
ELLIPSE
8
0
6
BYBLOCK
62
0
5
2795
100
AcDbEntity
100
AcDbEllipse
10
45.7965
20
-156.5
30
0
11
2.1
21
3.68508e-08
31
0
40
1
41
3.14159
42
9.42478
0
LINE
8
0
6
BYBLOCK
62
0
5
2796
100
AcDbEntity
100
AcDbLine
10
78.6965
20
-156.5
30
0
11
78.6965
21
-156.5
31
0
0
LINE
8
0
6
BYBLOCK
62
0
5
2797
100
AcDbEntity
100
AcDbLine
10
78.6965
20
-119.5
30
0
11
78.6965
21
-119.5
31
0
0
LINE
8
0
6
BYBLOCK
62
0
5
2798
100
AcDbEntity
100
AcDbLine
10
43.6965
20
-119.5
30
0
11
43.6965
21
-119.5
31
0
0
LINE
8
0
6
BYBLOCK
62
0
5
2799
100
AcDbEntity
100
AcDbLine
10
43.6965
20
-156.5
30
0
11
43.6965
21
-156.5
31
0
0
LINE
8
0
6
BYBLOCK
62
0
5
279a
100
AcDbEntity
100
AcDbLine
10
49.3487
20
-138
30
0
11
48.5086
21
-138
31
0
0
LINE
8
0
6
BYBLOCK
62
0
5
279b
100
AcDbEntity
100
AcDbLine
10
89.9906
20
-123.212
30
0
11
90.7965
21
-123.212
31
0
0
LINE
8
0
6
BYBLOCK
62
0
5
279c
100
AcDbEntity
100
AcDbLine
10
89.9906
20
-152.787
30
0
11
90.7965
21
-152.787
31
0
0
ENDBLK
5
279d
100
AcDbEntity
8
0
100
AcDbBlockEnd
0
BLOCK
5
279e
100
AcDbEntity
8
0
100
AcDbBlockBegin
2
View0011
70
0
10
0
20
0
3
View0011
1

0
LINE
8
0
6
BYBLOCK
62
0
5
279f
100
AcDbEntity
100
AcDbLine
10
29.88
20
-31.97
30
0
11
29.88
21
-82.77
31
0
0
LINE
8
0
6
BYBLOCK
62
0
5
27a0
100
AcDbEntity
100
AcDbLine
10
29.88
20
-31.97
30
0
11
92.0837
21
-31.97
31
0
0
LINE
8
0
6
BYBLOCK
62
0
5
27a1
100
AcDbEntity
100
AcDbLine
10
29.88
20
-82.77
30
0
11
92.0837
21
-82.77
31
0
0
LINE
8
0
6
BYBLOCK
62
0
5
27a2
100
AcDbEntity
100
AcDbLine
10
92.0837
20
-31.97
30
0
11
92.0837
21
-33.37
31
0
0
LINE
8
0
6
BYBLOCK
62
0
5
27a3
100
AcDbEntity
100
AcDbLine
10
92.0837
20
-44.6335
30
0
11
92.0837
21
-70.1065
31
0
0
LINE
8
0
6
BYBLOCK
62
0
5
27a4
100
AcDbEntity
100
AcDbLine
10
92.0837
20
-81.37
30
0
11
92.0837
21
-82.77
31
0
0
LINE
8
0
6
BYBLOCK
62
0
5
27a5
100
AcDbEntity
100
AcDbLine
10
34.1016
20
-81.37
30
0
11
40.4167
21
-81.37
31
0
0
LINE
8
0
6
BYBLOCK
62
0
5
27a6
100
AcDbEntity
100
AcDbLine
10
40.9344
20
-81.37
30
0
11
40.4167
21
-81.37
31
0
0
LINE
8
0
6
BYBLOCK
62
0
5
27a7
100
AcDbEntity
100
AcDbLine
10
34.1016
20
-81.37
30
0
11
34.1016
21
-33.37
31
0
0
LINE
8
0
6
BYBLOCK
62
0
5
27a8
100
AcDbEntity
100
AcDbLine
10
34.1016
20
-33.37
30
0
11
40.4167
21
-33.37
31
0
0
LINE
8
0
6
BYBLOCK
62
0
5
27a9
100
AcDbEntity
100
AcDbLine
10
40.4167
20
-43.6582
30
0
11
40.4167
21
-33.37
31
0
0
SPLINE
8
0
6
BYBLOCK
62
0
5
27aa
100
AcDbEntity
100
AcDbSpline
70
0
71
1
72
17
73
15
74
0
40
4.32862
40
4.32862
40
4.35237
40
4.37612
40
4.39988
40
4.42363
40
4.44738
40
4.47114
40
4.49489
40
4.51864
40
4.5424
40
4.56615
40
4.5899
40
4.61365
40
4.63741
40
4.66116
40
4.66116
10
40.4167
20
-43.6582
30
0
10
40.0895
20
-43.5305
30
0
10
39.7593
20
-43.4107
30
0
10
39.4264
20
-43.2987
30
0
10
39.0909
20
-43.1947
30
0
10
38.7531
20
-43.0987
30
0
10
38.413
20
-43.0108
30
0
10
38.071
20
-42.9309
30
0
10
37.7271
20
-42.8592
30
0
10
37.3817
20
-42.7956
30
0
10
37.0348
20
-42.7403
30
0
10
36.6868
20
-42.6933
30
0
10
36.3377
20
-42.6545
30
0
10
35.9878
20
-42.624
30
0
10
35.6372
20
-42.6019
30
0
0
LINE
8
0
6
BYBLOCK
62
0
5
27ab
100
AcDbEntity
100
AcDbLine
10
35.6372
20
-72.1381
30
0
11
35.6372
21
-42.6019
31
0
0
SPLINE
8
0
6
BYBLOCK
62
0
5
27ac
100
AcDbEntity
100
AcDbSpline
70
0
71
1
72
17
73
15
74
0
40
1.62202
40
1.62202
40
1.64578
40
1.66953
40
1.69328
40
1.71704
40
1.74079
40
1.76454
40
1.7883
40
1.81205
40
1.8358
40
1.85956
40
1.88331
40
1.90706
40
1.93081
40
1.95457
40
1.95457
10
35.6372
20
-72.1381
30
0
10
35.9878
20
-72.116
30
0
10
36.3377
20
-72.0855
30
0
10
36.6868
20
-72.0467
30
0
10
37.0348
20
-71.9997
30
0
10
37.3817
20
-71.9444
30
0
10
37.7271
20
-71.8808
30
0
10
38.071
20
-71.8091
30
0
10
38.413
20
-71.7292
30
0
10
38.7531
20
-71.6413
30
0
10
39.0909
20
-71.5453
30
0
10
39.4264
20
-71.4413
30
0
10
39.7593
20
-71.3293
30
0
10
40.0895
20
-71.2095
30
0
10
40.4167
20
-71.0818
30
0
0
LINE
8
0
6
BYBLOCK
62
0
5
27ad
100
AcDbEntity
100
AcDbLine
10
40.4167
20
-81.37
30
0
11
40.4167
21
-71.0818
31
0
0
LINE
8
0
6
BYBLOCK
62
0
5
27ae
100
AcDbEntity
100
AcDbLine
10
93.5427
20
-70.8613
30
0
11
93.5427
21
-70.8613
31
0
0
SPLINE
8
0
6
BYBLOCK
62
0
5
27af
100
AcDbEntity
100
AcDbSpline
70
0
71
2
72
6
73
3
74
0
40
4.1694
40
4.1694
40
4.1694
40
4.29057
40
4.29057
40
4.29057
10
91.9563
20
-70.0306
30
0
10
92.7244
20
-70.4938
30
0
10
93.5427
20
-70.8613
30
0
0
SPLINE
8
0
6
BYBLOCK
62
0
5
27b0
100
AcDbEntity
100
AcDbSpline
70
0
71
2
72
6
73
3
74
0
40
5.09616
40
5.09616
40
5.09616
40
5.25538
40
5.25538
40
5.25538
10
40.4167
20
-71.0818
30
0
10
41.5104
20
-70.6396
30
0
10
42.5207
20
-70.0306
30
0
0
LINE
8
0
6
BYBLOCK
62
0
5
27b1
100
AcDbEntity
100
AcDbLine
10
42.5207
20
-70.0306
30
0
11
42.5207
21
-70.0306
31
0
0
LINE
8
0
6
BYBLOCK
62
0
5
27b2
100
AcDbEntity
100
AcDbLine
10
91.9563
20
-70.0306
30
0
11
91.9563
21
-70.0306
31
0
0
LINE
8
0
6
BYBLOCK
62
0
5
27b3
100
AcDbEntity
100
AcDbLine
10
88.5582
20
-47.5306
30
0
11
88.5582
21
-67.2094
31
0
0
LINE
8
0
6
BYBLOCK
62
0
5
27b4
100
AcDbEntity
100
AcDbLine
10
93.5427
20
-33.37
30
0
11
93.5427
21
-33.37
31
0
0
LINE
8
0
6
BYBLOCK
62
0
5
27b5
100
AcDbEntity
100
AcDbLine
10
40.4167
20
-33.37
30
0
11
93.5427
21
-33.37
31
0
0
SPLINE
8
0
6
BYBLOCK
62
0
5
27b6
100
AcDbEntity
100
AcDbSpline
70
0
71
2
72
6
73
3
74
0
40
1.14897
40
1.14897
40
1.14897
40
1.18703
40
1.18703
40
1.18703
10
40.9344
20
-43.8787
30
0
10
40.6776
20
-43.7635
30
0
10
40.4167
20
-43.6582
30
0
0
ARC
8
0
6
BYBLOCK
62
0
5
27b7
100
AcDbEntity
100
AcDbCircle
10
34.88
20
-57.37
30
0
40
14.7875
100
AcDbArc
50
-29.6032
51
-8.4513e-06
0
SPLINE
8
0
6
BYBLOCK
62
0
5
27b8
100
AcDbEntity
100
AcDbSpline
70
0
71
3
72
26
73
22
74
0
40
0.0499209
40
0.0499209
40
0.0499209
40
0.0499209
40
0.167545
40
0.167545
40
0.167545
40
0.285169
40
0.285169
40
0.285169
40
0.409368
40
0.409368
40
0.409368
40
0.642714
40
0.642714
40
0.642714
40
0.821577
40
0.821577
40
0.821577
40
0.915068
40
0.915068
40
0.915068
40
1
40
1
40
1
40
1
10
42.5207
20
-70.0306
30
0
10
42.62
20
-69.9706
30
0
10
42.8162
20
-69.8508
30
0
10
43.0559
20
-69.6917
30
0
10
43.2996
20
-69.5321
30
0
10
43.5785
20
-69.3327
30
0
10
43.8927
20
-69.0935
30
0
10
44.2249
20
-68.8407
30
0
10
44.5762
20
-68.5435
30
0
10
44.9466
20
-68.2021
30
0
10
45.6378
20
-67.5578
30
0
10
46.3722
20
-66.7601
30
0
10
47.0921
20
-65.7087
30
0
10
47.6395
20
-64.9021
30
0
10
48.1833
20
-63.9573
30
0
10
48.6708
20
-62.7071
30
0
10
48.9222
20
-62.0542
30
0
10
49.1591
20
-61.3186
30
0
10
49.3506
20
-60.4152
30
0
10
49.5205
20
-59.5984
30
0
10
49.6652
20
-58.6094
30
0
10
49.6675
20
-57.37
30
0
0
SPLINE
8
0
6
BYBLOCK
62
0
5
27b9
100
AcDbEntity
100
AcDbSpline
70
0
71
3
72
11
73
7
74
0
40
0.0301712
40
0.0301712
40
0.0301712
40
0.0301712
40
0.121243
40
0.121243
40
0.121243
40
0.140304
40
0.140304
40
0.140304
40
0.140304
10
91.9563
20
-70.0306
30
0
10
91.8234
20
-69.95
30
0
10
91.4292
20
-69.7116
30
0
10
90.946
20
-69.3629
30
0
10
90.8455
20
-69.2905
30
0
10
90.7413
20
-69.2132
30
0
10
90.6333
20
-69.131
30
0
0
LINE
8
0
6
BYBLOCK
62
0
5
27ba
100
AcDbEntity
100
AcDbLine
10
47.2496
20
-33.37
30
0
11
100.375
21
-33.37
31
0
0
LINE
8
0
6
BYBLOCK
62
0
5
27bb
100
AcDbEntity
100
AcDbLine
10
40.9344
20
-33.37
30
0
11
47.2496
21
-33.37
31
0
0
LINE
8
0
6
BYBLOCK
62
0
5
27bc
100
AcDbEntity
100
AcDbLine
10
40.9344
20
-43.8787
30
0
11
40.9344
21
-33.37
31
0
0
ELLIPSE
8
0
6
BYBLOCK
62
0
5
27bd
100
AcDbEntity
100
AcDbEllipse
10
67.4973
20
-38.87
30
0
11
-1.52933e-06
21
-2.75
31
0
40
0.965926
41
1.5708
42
2.02999
0
ELLIPSE
8
0
6
BYBLOCK
62
0
5
27be
100
AcDbEntity
100
AcDbEllipse
10
67.4973
20
-38.87
30
0
11
-1.52933e-06
21
-2.75
31
0
40
0.965926
41
1.11161
42
1.5708
0
LINE
8
0
6
BYBLOCK
62
0
5
27bf
100
AcDbEntity
100
AcDbLine
10
100.375
20
-33.37
30
0
11
100.375
21
-42.603
31
0
0
SPLINE
8
0
6
BYBLOCK
62
0
5
27c0
100
AcDbEntity
100
AcDbSpline
70
0
71
1
72
17
73
15
74
0
40
5.70323
40
5.70323
40
5.78608
40
5.86893
40
5.95178
40
6.03463
40
6.11748
40
6.20033
40
6.28319
40
6.36604
40
6.44889
40
6.53174
40
6.61459
40
6.69744
40
6.78029
40
6.86314
40
6.86314
10
47.2496
20
-49.2667
30
0
10
47.8777
20
-50.3181
30
0
10
48.4167
20
-51.4179
30
0
10
48.8629
20
-52.5586
30
0
10
49.2131
20
-53.7323
30
0
10
49.465
20
-54.9309
30
0
10
49.6168
20
-56.1463
30
0
10
49.6675
20
-57.37
30
0
10
49.6168
20
-58.5938
30
0
10
49.465
20
-59.8091
30
0
10
49.2131
20
-61.0077
30
0
10
48.8629
20
-62.1814
30
0
10
48.4167
20
-63.3221
30
0
10
47.8777
20
-64.4219
30
0
10
47.2496
20
-65.4733
30
0
0
LINE
8
0
6
BYBLOCK
62
0
5
27c1
100
AcDbEntity
100
AcDbLine
10
47.2496
20
-49.2667
30
0
11
47.2496
21
-33.37
31
0
0
LINE
8
0
6
BYBLOCK
62
0
5
27c2
100
AcDbEntity
100
AcDbLine
10
47.2496
20
-81.37
30
0
11
47.2496
21
-65.4733
31
0
0
LINE
8
0
6
BYBLOCK
62
0
5
27c3
100
AcDbEntity
100
AcDbLine
10
100.375
20
-81.37
30
0
11
47.2496
21
-81.37
31
0
0
LINE
8
0
6
BYBLOCK
62
0
5
27c4
100
AcDbEntity
100
AcDbLine
10
100.375
20
-72.137
30
0
11
100.375
21
-81.37
31
0
0
SPLINE
8
0
6
BYBLOCK
62
0
5
27c5
100
AcDbEntity
100
AcDbSpline
70
0
71
1
72
17
73
15
74
0
40
3.14159
40
3.14159
40
3.25755
40
3.37352
40
3.48948
40
3.60544
40
3.7214
40
3.83736
40
3.95332
40
4.06929
40
4.18525
40
4.30121
40
4.41717
40
4.53313
40
4.64909
40
4.76506
40
4.76506
10
84.8095
20
-57.37
30
0
10
84.9088
20
-55.6591
30
0
10
85.2054
20
-53.9711
30
0
10
85.6954
20
-52.3288
30
0
10
86.372
20
-50.7542
30
0
10
87.2263
20
-49.2685
30
0
10
88.2467
20
-47.8916
30
0
10
89.4196
20
-46.642
30
0
10
90.7292
20
-45.5365
30
0
10
92.158
20
-44.5899
30
0
10
93.6866
20
-43.815
30
0
10
95.2946
20
-43.2222
30
0
10
96.9604
20
-42.8194
30
0
10
98.6617
20
-42.6121
30
0
10
100.375
20
-42.603
30
0
0
SPLINE
8
0
6
BYBLOCK
62
0
5
27c6
100
AcDbEntity
100
AcDbSpline
70
0
71
1
72
17
73
15
74
0
40
1.51813
40
1.51813
40
1.63409
40
1.75005
40
1.86601
40
1.98198
40
2.09794
40
2.2139
40
2.32986
40
2.44582
40
2.56178
40
2.67775
40
2.79371
40
2.90967
40
3.02563
40
3.14159
40
3.14159
10
100.375
20
-72.137
30
0
10
98.6617
20
-72.1279
30
0
10
96.9604
20
-71.9206
30
0
10
95.2946
20
-71.5178
30
0
10
93.6866
20
-70.925
30
0
10
92.158
20
-70.1501
30
0
10
90.7292
20
-69.2035
30
0
10
89.4196
20
-68.098
30
0
10
88.2467
20
-66.8484
30
0
10
87.2263
20
-65.4715
30
0
10
86.372
20
-63.9858
30
0
10
85.6954
20
-62.4112
30
0
10
85.2054
20
-60.7689
30
0
10
84.9088
20
-59.0809
30
0
10
84.8095
20
-57.37
30
0
0
ELLIPSE
8
0
6
BYBLOCK
62
0
5
27c7
100
AcDbEntity
100
AcDbEllipse
10
73.8125
20
-38.87
30
0
11
-2.50254e-06
21
-4.5
31
0
40
0.965926
41
1.5708
42
3.14159
0
ELLIPSE
8
0
6
BYBLOCK
62
0
5
27c8
100
AcDbEntity
100
AcDbEllipse
10
73.8125
20
-38.87
30
0
11
-2.50254e-06
21
-4.5
31
0
40
0.965926
41
3.14159
42
6.28319
0
ELLIPSE
8
0
6
BYBLOCK
62
0
5
27c9
100
AcDbEntity
100
AcDbEllipse
10
73.8125
20
-38.87
30
0
11
-2.50254e-06
21
-4.5
31
0
40
0.965926
41
0
42
1.5708
0
ELLIPSE
8
0
6
BYBLOCK
62
0
5
27ca
100
AcDbEntity
100
AcDbEllipse
10
73.8125
20
-75.87
30
0
11
2.50254e-06
21
4.5
31
0
40
0.965926
41
3.14159
42
1.5708
0
ELLIPSE
8
0
6
BYBLOCK
62
0
5
27cb
100
AcDbEntity
100
AcDbEllipse
10
73.8125
20
-75.87
30
0
11
2.50254e-06
21
4.5
31
0
40
0.965926
41
6.28319
42
3.14159
0
ELLIPSE
8
0
6
BYBLOCK
62
0
5
27cc
100
AcDbEntity
100
AcDbEllipse
10
73.8125
20
-75.87
30
0
11
2.50254e-06
21
4.5
31
0
40
0.965926
41
1.5708
42
0
0
SPLINE
8
0
6
BYBLOCK
62
0
5
27cd
100
AcDbEntity
100
AcDbSpline
70
0
71
1
72
17
73
15
74
0
40
3.72155
40
3.72155
40
3.76219
40
3.80284
40
3.84348
40
3.88412
40
3.92477
40
3.96541
40
4.00606
40
4.0467
40
4.08734
40
4.12799
40
4.16863
40
4.20928
40
4.24992
40
4.29057
40
4.29057
10
47.2496
20
-49.2667
30
0
10
46.9101
20
-48.7707
30
0
10
46.5507
20
-48.289
30
0
10
46.1721
20
-47.8223
30
0
10
45.7748
20
-47.3714
30
0
10
45.3596
20
-46.9369
30
0
10
44.927
20
-46.5197
30
0
10
44.4778
20
-46.1205
30
0
10
44.0128
20
-45.7398
30
0
10
43.5327
20
-45.3783
30
0
10
43.0383
20
-45.0366
30
0
10
42.5304
20
-44.7153
30
0
10
42.0099
20
-44.4149
30
0
10
41.4776
20
-44.1359
30
0
10
40.9344
20
-43.8787
30
0
0
SPLINE
8
0
6
BYBLOCK
62
0
5
27ce
100
AcDbEntity
100
AcDbSpline
70
0
71
1
72
17
73
15
74
0
40
1.99262
40
1.99262
40
2.03326
40
2.07391
40
2.11455
40
2.1552
40
2.19584
40
2.23648
40
2.27713
40
2.31777
40
2.35842
40
2.39906
40
2.43971
40
2.48035
40
2.52099
40
2.56164
40
2.56164
10
40.9344
20
-70.8613
30
0
10
41.4776
20
-70.6041
30
0
10
42.0099
20
-70.3251
30
0
10
42.5304
20
-70.0247
30
0
10
43.0383
20
-69.7034
30
0
10
43.5327
20
-69.3617
30
0
10
44.0128
20
-69.0002
30
0
10
44.4778
20
-68.6196
30
0
10
44.927
20
-68.2203
30
0
10
45.3596
20
-67.8031
30
0
10
45.7748
20
-67.3686
30
0
10
46.1721
20
-66.9177
30
0
10
46.5507
20
-66.451
30
0
10
46.9101
20
-65.9693
30
0
10
47.2496
20
-65.4733
30
0
0
ELLIPSE
8
0
6
BYBLOCK
62
0
5
27cf
100
AcDbEntity
100
AcDbEllipse
10
72.2596
20
-38.87
30
0
11
1.52933e-06
21
2.75
31
0
40
0.965926
41
3.14159
42
1.5708
0
ELLIPSE
8
0
6
BYBLOCK
62
0
5
27d0
100
AcDbEntity
100
AcDbEllipse
10
72.2596
20
-38.87
30
0
11
1.52933e-06
21
2.75
31
0
40
0.965926
41
6.28319
42
3.14159
0
ELLIPSE
8
0
6
BYBLOCK
62
0
5
27d1
100
AcDbEntity
100
AcDbEllipse
10
72.2596
20
-38.87
30
0
11
1.52933e-06
21
2.75
31
0
40
0.965926
41
1.5708
42
0
0
LINE
8
0
6
BYBLOCK
62
0
5
27d2
100
AcDbEntity
100
AcDbLine
10
40.9344
20
-81.37
30
0
11
40.9344
21
-70.8613
31
0
0
LINE
8
0
6
BYBLOCK
62
0
5
27d3
100
AcDbEntity
100
AcDbLine
10
40.9344
20
-81.37
30
0
11
47.2496
21
-81.37
31
0
0
ELLIPSE
8
0
6
BYBLOCK
62
0
5
27d4
100
AcDbEntity
100
AcDbEllipse
10
72.2596
20
-38.87
30
0
11
-2.50254e-06
21
-4.5
31
0
40
0.965926
41
1.5708
42
2.962
0
ELLIPSE
8
0
6
BYBLOCK
62
0
5
27d5
100
AcDbEntity
100
AcDbEllipse
10
72.2596
20
-38.87
30
0
11
-2.50254e-06
21
-4.5
31
0
40
0.965926
41
0.179597
42
1.5708
0
ELLIPSE
8
0
6
BYBLOCK
62
0
5
27d6
100
AcDbEntity
100
AcDbEllipse
10
72.2596
20
-75.87
30
0
11
2.50254e-06
21
4.5
31
0
40
0.965926
41
2.962
42
1.5708
0
ELLIPSE
8
0
6
BYBLOCK
62
0
5
27d7
100
AcDbEntity
100
AcDbEllipse
10
72.2596
20
-75.87
30
0
11
2.50254e-06
21
4.5
31
0
40
0.965926
41
1.5708
42
0.179597
0
ELLIPSE
8
0
6
BYBLOCK
62
0
5
27d8
100
AcDbEntity
100
AcDbEllipse
10
67.4973
20
-75.87
30
0
11
-1.52933e-06
21
-2.75
31
0
40
0.965926
41
1.5708
42
2.02999
0
ELLIPSE
8
0
6
BYBLOCK
62
0
5
27d9
100
AcDbEntity
100
AcDbEllipse
10
67.4973
20
-75.87
30
0
11
-1.52933e-06
21
-2.75
31
0
40
0.965926
41
1.11161
42
1.5708
0
ELLIPSE
8
0
6
BYBLOCK
62
0
5
27da
100
AcDbEntity
100
AcDbEllipse
10
72.2596
20
-75.87
30
0
11
-1.52933e-06
21
-2.75
31
0
40
0.965926
41
1.5708
42
3.14159
0
ELLIPSE
8
0
6
BYBLOCK
62
0
5
27db
100
AcDbEntity
100
AcDbEllipse
10
72.2596
20
-75.87
30
0
11
-1.52933e-06
21
-2.75
31
0
40
0.965926
41
3.14159
42
6.28319
0
ELLIPSE
8
0
6
BYBLOCK
62
0
5
27dc
100
AcDbEntity
100
AcDbEllipse
10
72.2596
20
-75.87
30
0
11
-1.52933e-06
21
-2.75
31
0
40
0.965926
41
0
42
1.5708
0
LINE
8
0
6
BYBLOCK
62
0
5
27dd
100
AcDbEntity
100
AcDbLine
10
74.9159
20
-38.87
30
0
11
70.1536
21
-38.87
31
0
0
LINE
8
0
6
BYBLOCK
62
0
5
27de
100
AcDbEntity
100
AcDbLine
10
78.1592
20
-38.87
30
0
11
76.6063
21
-38.87
31
0
0
LINE
8
0
6
BYBLOCK
62
0
5
27df
100
AcDbEntity
100
AcDbLine
10
78.1592
20
-75.87
30
0
11
76.6063
21
-75.87
31
0
0
LINE
8
0
6
BYBLOCK
62
0
5
27e0
100
AcDbEntity
100
AcDbLine
10
74.9159
20
-75.87
30
0
11
70.1536
21
-75.87
31
0
0
LINE
8
0
6
BYBLOCK
62
0
5
27e1
100
AcDbEntity
100
AcDbLine
10
29.88
20
-31.97
30
0
11
29.88
21
-82.77
31
0
0
LINE
8
0
6
BYBLOCK
62
0
5
27e2
100
AcDbEntity
100
AcDbLine
10
92.0837
20
-31.97
30
0
11
92.0837
21
-82.77
31
0
0
LINE
8
0
6
BYBLOCK
62
0
5
27e3
100
AcDbEntity
100
AcDbLine
10
92.0837
20
-31.97
30
0
11
29.88
21
-31.97
31
0
0
LINE
8
0
6
BYBLOCK
62
0
5
27e4
100
AcDbEntity
100
AcDbLine
10
92.0837
20
-82.77
30
0
11
29.88
21
-82.77
31
0
0
ELLIPSE
8
0
6
BYBLOCK
62
0
5
27e5
100
AcDbEntity
100
AcDbEllipse
10
74.1862
20
-75.87
30
0
11
2.17408
21
0
31
0
40
0.965926
41
4.71239
42
3.14159
0
ELLIPSE
8
0
6
BYBLOCK
62
0
5
27e6
100
AcDbEntity
100
AcDbEllipse
10
74.1862
20
-75.87
30
0
11
2.17408
21
0
31
0
40
0.965926
41
7.85398
42
4.71239
0
ELLIPSE
8
0
6
BYBLOCK
62
0
5
27e7
100
AcDbEntity
100
AcDbEllipse
10
74.1862
20
-75.87
30
0
11
2.17408
21
0
31
0
40
0.965926
41
3.14159
42
1.5708
0
ELLIPSE
8
0
6
BYBLOCK
62
0
5
27e8
100
AcDbEntity
100
AcDbEllipse
10
74.1862
20
-38.87
30
0
11
2.17408
21
0
31
0
40
0.965926
41
4.71239
42
3.14159
0
ELLIPSE
8
0
6
BYBLOCK
62
0
5
27e9
100
AcDbEntity
100
AcDbEllipse
10
74.1862
20
-38.87
30
0
11
2.17408
21
0
31
0
40
0.965926
41
7.85398
42
4.71239
0
ELLIPSE
8
0
6
BYBLOCK
62
0
5
27ea
100
AcDbEntity
100
AcDbEllipse
10
74.1862
20
-38.87
30
0
11
2.17408
21
0
31
0
40
0.965926
41
3.14159
42
1.5708
0
ELLIPSE
8
0
6
BYBLOCK
62
0
5
27eb
100
AcDbEntity
100
AcDbEllipse
10
37.9515
20
-38.87
30
0
11
2.17408
21
0
31
0
40
0.965926
41
4.71239
42
3.14159
0
ELLIPSE
8
0
6
BYBLOCK
62
0
5
27ec
100
AcDbEntity
100
AcDbEllipse
10
37.9515
20
-38.87
30
0
11
2.17408
21
0
31
0
40
0.965926
41
7.85398
42
4.71239
0
ELLIPSE
8
0
6
BYBLOCK
62
0
5
27ed
100
AcDbEntity
100
AcDbEllipse
10
37.9515
20
-38.87
30
0
11
2.17408
21
0
31
0
40
0.965926
41
3.14159
42
1.5708
0
ELLIPSE
8
0
6
BYBLOCK
62
0
5
27ee
100
AcDbEntity
100
AcDbEllipse
10
37.9515
20
-75.87
30
0
11
2.17408
21
0
31
0
40
0.965926
41
4.71239
42
3.14159
0
ELLIPSE
8
0
6
BYBLOCK
62
0
5
27ef
100
AcDbEntity
100
AcDbEllipse
10
37.9515
20
-75.87
30
0
11
2.17408
21
0
31
0
40
0.965926
41
7.85398
42
4.71239
0
ELLIPSE
8
0
6
BYBLOCK
62
0
5
27f0
100
AcDbEntity
100
AcDbEllipse
10
37.9515
20
-75.87
30
0
11
2.17408
21
0
31
0
40
0.965926
41
3.14159
42
1.5708
0
LINE
8
0
6
BYBLOCK
62
0
5
27f1
100
AcDbEntity
100
AcDbLine
10
92.0837
20
-33.37
30
0
11
92.0837
21
-44.6335
31
0
0
LINE
8
0
6
BYBLOCK
62
0
5
27f2
100
AcDbEntity
100
AcDbLine
10
92.0837
20
-70.1065
30
0
11
92.0837
21
-81.37
31
0
0
ELLIPSE
8
0
6
BYBLOCK
62
0
5
27f3
100
AcDbEntity
100
AcDbEllipse
10
77.5682
20
-38.87
30
0
11
8.05558e-15
21
-2.1
31
0
40
0.965926
41
4.71239
42
6.28319
0
ELLIPSE
8
0
6
BYBLOCK
62
0
5
27f4
100
AcDbEntity
100
AcDbEllipse
10
77.5682
20
-38.87
30
0
11
8.05558e-15
21
-2.1
31
0
40
0.965926
41
0
42
3.14159
0
ELLIPSE
8
0
6
BYBLOCK
62
0
5
27f5
100
AcDbEntity
100
AcDbEllipse
10
77.5682
20
-38.87
30
0
11
8.05558e-15
21
-2.1
31
0
40
0.965926
41
3.14159
42
4.71239
0
ELLIPSE
8
0
6
BYBLOCK
62
0
5
27f6
100
AcDbEntity
100
AcDbEllipse
10
43.7608
20
-38.87
30
0
11
8.05558e-15
21
-2.1
31
0
40
0.965926
41
4.71239
42
6.28319
0
ELLIPSE
8
0
6
BYBLOCK
62
0
5
27f7
100
AcDbEntity
100
AcDbEllipse
10
43.7608
20
-38.87
30
0
11
8.05558e-15
21
-2.1
31
0
40
0.965926
41
0
42
3.14159
0
ELLIPSE
8
0
6
BYBLOCK
62
0
5
27f8
100
AcDbEntity
100
AcDbEllipse
10
43.7608
20
-38.87
30
0
11
8.05558e-15
21
-2.1
31
0
40
0.965926
41
3.14159
42
4.71239
0
ELLIPSE
8
0
6
BYBLOCK
62
0
5
27f9
100
AcDbEntity
100
AcDbEllipse
10
77.5682
20
-75.87
30
0
11
8.05558e-15
21
-2.1
31
0
40
0.965926
41
4.71239
42
6.28319
0
ELLIPSE
8
0
6
BYBLOCK
62
0
5
27fa
100
AcDbEntity
100
AcDbEllipse
10
77.5682
20
-75.87
30
0
11
8.05558e-15
21
-2.1
31
0
40
0.965926
41
0
42
3.14159
0
ELLIPSE
8
0
6
BYBLOCK
62
0
5
27fb
100
AcDbEntity
100
AcDbEllipse
10
77.5682
20
-75.87
30
0
11
8.05558e-15
21
-2.1
31
0
40
0.965926
41
3.14159
42
4.71239
0
ELLIPSE
8
0
6
BYBLOCK
62
0
5
27fc
100
AcDbEntity
100
AcDbEllipse
10
43.7608
20
-75.87
30
0
11
8.05558e-15
21
-2.1
31
0
40
0.965926
41
4.71239
42
6.28319
0
ELLIPSE
8
0
6
BYBLOCK
62
0
5
27fd
100
AcDbEntity
100
AcDbEllipse
10
43.7608
20
-75.87
30
0
11
8.05558e-15
21
-2.1
31
0
40
0.965926
41
0
42
3.14159
0
ELLIPSE
8
0
6
BYBLOCK
62
0
5
27fe
100
AcDbEntity
100
AcDbEllipse
10
43.7608
20
-75.87
30
0
11
8.05558e-15
21
-2.1
31
0
40
0.965926
41
3.14159
42
4.71239
0
LINE
8
0
6
BYBLOCK
62
0
5
27ff
100
AcDbEntity
100
AcDbLine
10
87.2275
20
-81.37
30
0
11
34.1016
21
-81.37
31
0
0
LINE
8
0
6
BYBLOCK
62
0
5
2800
100
AcDbEntity
100
AcDbLine
10
93.5427
20
-81.37
30
0
11
40.9344
21
-81.37
31
0
0
LINE
8
0
6
BYBLOCK
62
0
5
2801
100
AcDbEntity
100
AcDbLine
10
87.2275
20
-81.37
30
0
11
93.5427
21
-81.37
31
0
0
LINE
8
0
6
BYBLOCK
62
0
5
2802
100
AcDbEntity
100
AcDbLine
10
87.2275
20
-33.37
30
0
11
87.2275
21
-81.37
31
0
0
LINE
8
0
6
BYBLOCK
62
0
5
2803
100
AcDbEntity
100
AcDbLine
10
34.1016
20
-33.37
30
0
11
87.2275
21
-33.37
31
0
0
ELLIPSE
8
0
6
BYBLOCK
62
0
5
2804
100
AcDbEntity
100
AcDbEllipse
10
77.5682
20
-75.87
30
0
11
3.13101e-14
21
-2.75
31
0
40
0.965926
41
4.71239
42
6.28319
0
ELLIPSE
8
0
6
BYBLOCK
62
0
5
2805
100
AcDbEntity
100
AcDbEllipse
10
77.5682
20
-75.87
30
0
11
3.13101e-14
21
-2.75
31
0
40
0.965926
41
0
42
3.14159
0
ELLIPSE
8
0
6
BYBLOCK
62
0
5
2806
100
AcDbEntity
100
AcDbEllipse
10
77.5682
20
-75.87
30
0
11
3.13101e-14
21
-2.75
31
0
40
0.965926
41
3.14159
42
4.71239
0
ELLIPSE
8
0
6
BYBLOCK
62
0
5
2807
100
AcDbEntity
100
AcDbEllipse
10
60.6645
20
-75.87
30
0
11
2.39096e-14
21
-2.1
31
0
40
0.965926
41
4.71239
42
6.28319
0
ELLIPSE
8
0
6
BYBLOCK
62
0
5
2808
100
AcDbEntity
100
AcDbEllipse
10
60.6645
20
-75.87
30
0
11
2.39096e-14
21
-2.1
31
0
40
0.965926
41
0
42
3.14159
0
ELLIPSE
8
0
6
BYBLOCK
62
0
5
2809
100
AcDbEntity
100
AcDbEllipse
10
60.6645
20
-75.87
30
0
11
2.39096e-14
21
-2.1
31
0
40
0.965926
41
3.14159
42
4.71239
0
ELLIPSE
8
0
6
BYBLOCK
62
0
5
280a
100
AcDbEntity
100
AcDbEllipse
10
60.6645
20
-38.87
30
0
11
2.39096e-14
21
-2.1
31
0
40
0.965926
41
4.71239
42
6.28319
0
ELLIPSE
8
0
6
BYBLOCK
62
0
5
280b
100
AcDbEntity
100
AcDbEllipse
10
60.6645
20
-38.87
30
0
11
2.39096e-14
21
-2.1
31
0
40
0.965926
41
2.22045e-16
42
3.14159
0
ELLIPSE
8
0
6
BYBLOCK
62
0
5
280c
100
AcDbEntity
100
AcDbEllipse
10
60.6645
20
-38.87
30
0
11
2.39096e-14
21
-2.1
31
0
40
0.965926
41
3.14159
42
4.71239
0
ELLIPSE
8
0
6
BYBLOCK
62
0
5
280d
100
AcDbEntity
100
AcDbEllipse
10
77.5682
20
-38.87
30
0
11
3.13101e-14
21
-2.75
31
0
40
0.965926
41
4.71239
42
6.28319
0
ELLIPSE
8
0
6
BYBLOCK
62
0
5
280e
100
AcDbEntity
100
AcDbEllipse
10
77.5682
20
-38.87
30
0
11
3.13101e-14
21
-2.75
31
0
40
0.965926
41
2.22045e-16
42
3.14159
0
ELLIPSE
8
0
6
BYBLOCK
62
0
5
280f
100
AcDbEntity
100
AcDbEllipse
10
77.5682
20
-38.87
30
0
11
3.13101e-14
21
-2.75
31
0
40
0.965926
41
3.14159
42
4.71239
0
ELLIPSE
8
0
6
BYBLOCK
62
0
5
2810
100
AcDbEntity
100
AcDbEllipse
10
43.7608
20
-38.87
30
0
11
3.13101e-14
21
-2.75
31
0
40
0.965926
41
4.71239
42
6.28319
0
ELLIPSE
8
0
6
BYBLOCK
62
0
5
2811
100
AcDbEntity
100
AcDbEllipse
10
43.7608
20
-38.87
30
0
11
3.13101e-14
21
-2.75
31
0
40
0.965926
41
2.22045e-16
42
3.14159
0
ELLIPSE
8
0
6
BYBLOCK
62
0
5
2812
100
AcDbEntity
100
AcDbEllipse
10
43.7608
20
-38.87
30
0
11
3.13101e-14
21
-2.75
31
0
40
0.965926
41
3.14159
42
4.71239
0
ELLIPSE
8
0
6
BYBLOCK
62
0
5
2813
100
AcDbEntity
100
AcDbEllipse
10
43.7608
20
-75.87
30
0
11
3.13101e-14
21
-2.75
31
0
40
0.965926
41
4.71239
42
6.28319
0
ELLIPSE
8
0
6
BYBLOCK
62
0
5
2814
100
AcDbEntity
100
AcDbEllipse
10
43.7608
20
-75.87
30
0
11
3.13101e-14
21
-2.75
31
0
40
0.965926
41
0
42
3.14159
0
ELLIPSE
8
0
6
BYBLOCK
62
0
5
2815
100
AcDbEntity
100
AcDbEllipse
10
43.7608
20
-75.87
30
0
11
3.13101e-14
21
-2.75
31
0
40
0.965926
41
3.14159
42
4.71239
0
LINE
8
0
6
BYBLOCK
62
0
5
2816
100
AcDbEntity
100
AcDbLine
10
93.5427
20
-81.37
30
0
11
93.5427
21
-70.8613
31
0
0
LINE
8
0
6
BYBLOCK
62
0
5
2817
100
AcDbEntity
100
AcDbLine
10
42.5207
20
-70.0306
30
0
11
91.9563
21
-70.0306
31
0
0
ELLIPSE
8
0
6
BYBLOCK
62
0
5
2818
100
AcDbEntity
100
AcDbEllipse
10
83.8834
20
-75.87
30
0
11
5.723e-14
21
-4.5
31
0
40
0.965926
41
4.71239
42
6.28319
0
ELLIPSE
8
0
6
BYBLOCK
62
0
5
2819
100
AcDbEntity
100
AcDbEllipse
10
83.8834
20
-75.87
30
0
11
5.723e-14
21
-4.5
31
0
40
0.965926
41
0
42
3.14159
0
ELLIPSE
8
0
6
BYBLOCK
62
0
5
281a
100
AcDbEntity
100
AcDbEllipse
10
83.8834
20
-75.87
30
0
11
5.723e-14
21
-4.5
31
0
40
0.965926
41
3.14159
42
4.71239
0
ELLIPSE
8
0
6
BYBLOCK
62
0
5
281b
100
AcDbEntity
100
AcDbEllipse
10
50.076
20
-75.87
30
0
11
5.723e-14
21
-4.5
31
0
40
0.965926
41
4.71239
42
6.28319
0
ELLIPSE
8
0
6
BYBLOCK
62
0
5
281c
100
AcDbEntity
100
AcDbEllipse
10
50.076
20
-75.87
30
0
11
5.723e-14
21
-4.5
31
0
40
0.965926
41
0
42
3.14159
0
ELLIPSE
8
0
6
BYBLOCK
62
0
5
281d
100
AcDbEntity
100
AcDbEllipse
10
50.076
20
-75.87
30
0
11
5.723e-14
21
-4.5
31
0
40
0.965926
41
3.14159
42
4.71239
0
ELLIPSE
8
0
6
BYBLOCK
62
0
5
281e
100
AcDbEntity
100
AcDbEllipse
10
66.9797
20
-75.87
30
0
11
2.67073e-14
21
-2.1
31
0
40
0.965926
41
4.71239
42
6.28319
0
ELLIPSE
8
0
6
BYBLOCK
62
0
5
281f
100
AcDbEntity
100
AcDbEllipse
10
66.9797
20
-75.87
30
0
11
2.67073e-14
21
-2.1
31
0
40
0.965926
41
-1.77636e-15
42
3.14159
0
ELLIPSE
8
0
6
BYBLOCK
62
0
5
2820
100
AcDbEntity
100
AcDbEllipse
10
66.9797
20
-75.87
30
0
11
2.67073e-14
21
-2.1
31
0
40
0.965926
41
3.14159
42
4.71239
0
SPLINE
8
0
6
BYBLOCK
62
0
5
2821
100
AcDbEntity
100
AcDbSpline
70
0
71
1
72
17
73
15
74
0
40
5.13421
40
5.13421
40
5.16428
40
5.19435
40
5.22442
40
5.25449
40
5.28456
40
5.31463
40
5.34469
40
5.37476
40
5.40483
40
5.4349
40
5.46497
40
5.49504
40
5.52511
40
5.55518
40
5.55518
10
93.5427
20
-70.8613
30
0
10
93.1398
20
-70.6732
30
0
10
92.7428
20
-70.473
30
0
10
92.3519
20
-70.261
30
0
10
91.9676
20
-70.0374
30
0
10
91.5903
20
-69.8023
30
0
10
91.2201
20
-69.5559
30
0
10
90.8575
20
-69.2986
30
0
10
90.5029
20
-69.0305
30
0
10
90.1564
20
-68.7518
30
0
10
89.8185
20
-68.4628
30
0
10
89.4894
20
-68.1638
30
0
10
89.1695
20
-67.8551
30
0
10
88.859
20
-67.5368
30
0
10
88.5582
20
-67.2094
30
0
0
LINE
8
0
6
BYBLOCK
62
0
5
2822
100
AcDbEntity
100
AcDbLine
10
88.5582
20
-47.5306
30
0
11
88.5582
21
-47.5306
31
0
0
SPLINE
8
0
6
BYBLOCK
62
0
5
2823
100
AcDbEntity
100
AcDbSpline
70
0
71
1
72
17
73
15
74
0
40
0.72801
40
0.72801
40
0.758079
40
0.788148
40
0.818216
40
0.848285
40
0.878354
40
0.908423
40
0.938491
40
0.96856
40
0.998629
40
1.0287
40
1.05877
40
1.08883
40
1.1189
40
1.14897
40
1.14897
10
88.5582
20
-47.5306
30
0
10
88.859
20
-47.2032
30
0
10
89.1695
20
-46.8849
30
0
10
89.4894
20
-46.5762
30
0
10
89.8185
20
-46.2772
30
0
10
90.1564
20
-45.9882
30
0
10
90.5029
20
-45.7095
30
0
10
90.8575
20
-45.4414
30
0
10
91.2201
20
-45.1841
30
0
10
91.5903
20
-44.9377
30
0
10
91.9676
20
-44.7026
30
0
10
92.3519
20
-44.479
30
0
10
92.7428
20
-44.267
30
0
10
93.1398
20
-44.0668
30
0
10
93.5427
20
-43.8787
30
0
0
LINE
8
0
6
BYBLOCK
62
0
5
2824
100
AcDbEntity
100
AcDbLine
10
93.5427
20
-43.8787
30
0
11
93.5427
21
-33.37
31
0
0
LINE
8
0
6
BYBLOCK
62
0
5
2825
100
AcDbEntity
100
AcDbLine
10
87.2275
20
-33.37
30
0
11
93.5427
21
-33.37
31
0
0
ELLIPSE
8
0
6
BYBLOCK
62
0
5
2826
100
AcDbEntity
100
AcDbEllipse
10
82.3305
20
-75.87
30
0
11
3.49739e-14
21
-2.75
31
0
40
0.965926
41
4.71239
42
6.28319
0
ELLIPSE
8
0
6
BYBLOCK
62
0
5
2827
100
AcDbEntity
100
AcDbEllipse
10
82.3305
20
-75.87
30
0
11
3.49739e-14
21
-2.75
31
0
40
0.965926
41
-1.77636e-15
42
3.14159
0
ELLIPSE
8
0
6
BYBLOCK
62
0
5
2828
100
AcDbEntity
100
AcDbEllipse
10
82.3305
20
-75.87
30
0
11
3.49739e-14
21
-2.75
31
0
40
0.965926
41
3.14159
42
4.71239
0
ELLIPSE
8
0
6
BYBLOCK
62
0
5
2829
100
AcDbEntity
100
AcDbEllipse
10
66.9797
20
-38.87
30
0
11
-2.69164e-14
21
2.1
31
0
40
0.965926
41
6.28319
42
4.71239
0
ELLIPSE
8
0
6
BYBLOCK
62
0
5
282a
100
AcDbEntity
100
AcDbEllipse
10
66.9797
20
-38.87
30
0
11
-2.69164e-14
21
2.1
31
0
40
0.965926
41
3.14159
42
1.55431e-15
0
ELLIPSE
8
0
6
BYBLOCK
62
0
5
282b
100
AcDbEntity
100
AcDbEllipse
10
66.9797
20
-38.87
30
0
11
-2.69164e-14
21
2.1
31
0
40
0.965926
41
4.71239
42
3.14159
0
ELLIPSE
8
0
6
BYBLOCK
62
0
5
282c
100
AcDbEntity
100
AcDbEllipse
10
82.3305
20
-38.87
30
0
11
3.49739e-14
21
-2.75
31
0
40
0.965926
41
4.71239
42
6.28319
0
ELLIPSE
8
0
6
BYBLOCK
62
0
5
282d
100
AcDbEntity
100
AcDbEllipse
10
82.3305
20
-38.87
30
0
11
3.49739e-14
21
-2.75
31
0
40
0.965926
41
-8.88178e-16
42
3.14159
0
ELLIPSE
8
0
6
BYBLOCK
62
0
5
282e
100
AcDbEntity
100
AcDbEllipse
10
82.3305
20
-38.87
30
0
11
3.49739e-14
21
-2.75
31
0
40
0.965926
41
3.14159
42
4.71239
0
ELLIPSE
8
0
6
BYBLOCK
62
0
5
282f
100
AcDbEntity
100
AcDbEllipse
10
48.5231
20
-38.87
30
0
11
3.49739e-14
21
-2.75
31
0
40
0.965926
41
4.71239
42
6.28319
0
ELLIPSE
8
0
6
BYBLOCK
62
0
5
2830
100
AcDbEntity
100
AcDbEllipse
10
48.5231
20
-38.87
30
0
11
3.49739e-14
21
-2.75
31
0
40
0.965926
41
-8.88178e-16
42
3.14159
0
ELLIPSE
8
0
6
BYBLOCK
62
0
5
2831
100
AcDbEntity
100
AcDbEllipse
10
48.5231
20
-38.87
30
0
11
3.49739e-14
21
-2.75
31
0
40
0.965926
41
3.14159
42
4.71239
0
ELLIPSE
8
0
6
BYBLOCK
62
0
5
2832
100
AcDbEntity
100
AcDbEllipse
10
48.5231
20
-75.87
30
0
11
3.49739e-14
21
-2.75
31
0
40
0.965926
41
4.71239
42
6.28319
0
ELLIPSE
8
0
6
BYBLOCK
62
0
5
2833
100
AcDbEntity
100
AcDbEllipse
10
48.5231
20
-75.87
30
0
11
3.49739e-14
21
-2.75
31
0
40
0.965926
41
-1.77636e-15
42
3.14159
0
ELLIPSE
8
0
6
BYBLOCK
62
0
5
2834
100
AcDbEntity
100
AcDbEllipse
10
48.5231
20
-75.87
30
0
11
3.49739e-14
21
-2.75
31
0
40
0.965926
41
3.14159
42
4.71239
0
SPLINE
8
0
6
BYBLOCK
62
0
5
2835
100
AcDbEntity
100
AcDbSpline
70
0
71
2
72
6
73
3
74
0
40
1.99262
40
1.99262
40
1.99262
40
2.11379
40
2.11379
40
2.11379
10
93.5427
20
-43.8787
30
0
10
92.7244
20
-44.2462
30
0
10
91.9563
20
-44.7094
30
0
0
LINE
8
0
6
BYBLOCK
62
0
5
2836
100
AcDbEntity
100
AcDbLine
10
42.5207
20
-44.7094
30
0
11
91.9563
21
-44.7094
31
0
0
SPLINE
8
0
6
BYBLOCK
62
0
5
2837
100
AcDbEntity
100
AcDbSpline
70
0
71
2
72
6
73
3
74
0
40
1.02781
40
1.02781
40
1.02781
40
1.14897
40
1.14897
40
1.14897
10
42.5207
20
-44.7094
30
0
10
41.7526
20
-44.2462
30
0
10
40.9344
20
-43.8787
30
0
0
ELLIPSE
8
0
6
BYBLOCK
62
0
5
2838
100
AcDbEntity
100
AcDbEllipse
10
83.8834
20
-38.87
30
0
11
-5.76781e-14
21
4.5
31
0
40
0.965926
41
6.28319
42
4.71239
0
ELLIPSE
8
0
6
BYBLOCK
62
0
5
2839
100
AcDbEntity
100
AcDbEllipse
10
83.8834
20
-38.87
30
0
11
-5.76781e-14
21
4.5
31
0
40
0.965926
41
3.14159
42
2.22045e-16
0
ELLIPSE
8
0
6
BYBLOCK
62
0
5
283a
100
AcDbEntity
100
AcDbEllipse
10
83.8834
20
-38.87
30
0
11
-5.76781e-14
21
4.5
31
0
40
0.965926
41
4.71239
42
3.14159
0
ELLIPSE
8
0
6
BYBLOCK
62
0
5
283b
100
AcDbEntity
100
AcDbEllipse
10
50.076
20
-38.87
30
0
11
-5.76781e-14
21
4.5
31
0
40
0.965926
41
6.28319
42
4.71239
0
ELLIPSE
8
0
6
BYBLOCK
62
0
5
283c
100
AcDbEntity
100
AcDbEllipse
10
50.076
20
-38.87
30
0
11
-5.76781e-14
21
4.5
31
0
40
0.965926
41
3.14159
42
2.22045e-16
0
ELLIPSE
8
0
6
BYBLOCK
62
0
5
283d
100
AcDbEntity
100
AcDbEllipse
10
50.076
20
-38.87
30
0
11
-5.76781e-14
21
4.5
31
0
40
0.965926
41
4.71239
42
3.14159
0
ARC
8
0
6
BYBLOCK
62
0
5
283e
100
AcDbEntity
100
AcDbCircle
10
34.88
20
-57.37
30
0
40
14.7875
100
AcDbArc
50
0
51
87.0648
0
SPLINE
8
0
6
BYBLOCK
62
0
5
283f
100
AcDbEntity
100
AcDbSpline
70
0
71
3
72
29
73
25
74
0
40
0
40
0
40
0
40
0
40
0.0674516
40
0.0674516
40
0.0674516
40
0.124845
40
0.124845
40
0.124845
40
0.21745
40
0.21745
40
0.21745
40
0.406106
40
0.406106
40
0.406106
40
0.594763
40
0.594763
40
0.594763
40
0.731214
40
0.731214
40
0.731214
40
0.867665
40
0.867665
40
0.867665
40
0.950411
40
0.950411
40
0.950411
40
0.950411
10
49.6675
20
-57.37
30
0
10
49.667
20
-56.3954
30
0
10
49.5731
20
-55.5613
30
0
10
49.4535
20
-54.8634
30
0
10
49.3507
20
-54.2678
30
0
10
49.2253
20
-53.7484
30
0
10
49.0892
20
-53.2751
30
0
10
48.8683
20
-52.5109
30
0
10
48.6192
20
-51.8665
30
0
10
48.3595
20
-51.2895
30
0
10
47.8272
20
-50.1135
30
0
10
47.233
20
-49.1874
30
0
10
46.6526
20
-48.4215
30
0
10
46.0697
20
-47.6562
30
0
10
45.4951
20
-47.0475
30
0
10
44.9325
20
-46.5249
30
0
10
44.5237
20
-46.1498
30
0
10
44.14
20
-45.8287
30
0
10
43.7813
20
-45.5617
30
0
10
43.426
20
-45.2936
30
0
10
43.1013
20
-45.075
30
0
10
42.857
20
-44.9186
30
0
10
42.7094
20
-44.824
30
0
10
42.5906
20
-44.7516
30
0
10
42.5207
20
-44.7094
30
0
0
ARC
8
0
6
BYBLOCK
62
0
5
2840
100
AcDbEntity
100
AcDbCircle
10
34.88
20
-57.37
30
0
40
14.7875
100
AcDbArc
50
-87.0648
51
-29.6032
0
CIRCLE
8
0
6
BYBLOCK
62
0
5
2841
100
AcDbEntity
100
AcDbCircle
10
34.88
20
-57.37
30
0
40
14.7875
0
ARC
8
0
6
BYBLOCK
62
0
5
2842
100
AcDbEntity
100
AcDbCircle
10
99.597
20
-57.37
30
0
40
14.7875
100
AcDbArc
50
138.288
51
-138.288
0
SPLINE
8
0
6
BYBLOCK
62
0
5
2843
100
AcDbEntity
100
AcDbSpline
70
0
71
3
72
35
73
31
74
0
40
0.140304
40
0.140304
40
0.140304
40
0.140304
40
0.23843
40
0.23843
40
0.23843
40
0.35294
40
0.35294
40
0.35294
40
0.443092
40
0.443092
40
0.443092
40
0.502468
40
0.502468
40
0.502468
40
0.541056
40
0.541056
40
0.541056
40
0.600609
40
0.600609
40
0.600609
40
0.65055
40
0.65055
40
0.65055
40
0.764951
40
0.764951
40
0.764951
40
0.879942
40
0.879942
40
0.879942
40
0.970106
40
0.970106
40
0.970106
40
0.970106
10
90.6333
20
-69.131
30
0
10
90.0765
20
-68.7067
30
0
10
89.4434
20
-68.1613
30
0
10
88.8045
20
-67.479
30
0
10
88.0585
20
-66.6802
30
0
10
87.2977
20
-65.701
30
0
10
86.6089
20
-64.4395
30
0
10
86.0703
20
-63.4436
30
0
10
85.5684
20
-62.2778
30
0
10
85.212
20
-60.7964
30
0
10
84.9791
20
-59.8205
30
0
10
84.8093
20
-58.6595
30
0
10
84.8095
20
-57.37
30
0
10
84.809
20
-56.5325
30
0
10
84.8826
20
-55.73
30
0
10
84.9978
20
-55.0181
30
0
10
85.1761
20
-53.9186
30
0
10
85.4474
20
-52.9884
30
0
10
85.7555
20
-52.1661
30
0
10
86.0151
20
-51.476
30
0
10
86.3034
20
-50.8628
30
0
10
86.6058
20
-50.3061
30
0
10
87.3012
20
-49.0314
30
0
10
88.0701
20
-48.0446
30
0
10
88.8231
20
-47.2411
30
0
10
89.5782
20
-46.4372
30
0
10
90.3305
20
-45.8207
30
0
10
90.946
20
-45.3771
30
0
10
91.4291
20
-45.0284
30
0
10
91.8234
20
-44.7899
30
0
10
91.9563
20
-44.7094
30
0
0
ELLIPSE
8
0
6
BYBLOCK
62
0
5
2844
100
AcDbEntity
100
AcDbEllipse
10
82.3305
20
-75.87
30
0
11
5.723e-14
21
-4.5
31
0
40
0.965926
41
4.71239
42
6.28319
0
ELLIPSE
8
0
6
BYBLOCK
62
0
5
2845
100
AcDbEntity
100
AcDbEllipse
10
82.3305
20
-75.87
30
0
11
5.723e-14
21
-4.5
31
0
40
0.965926
41
0
42
3.14159
0
ELLIPSE
8
0
6
BYBLOCK
62
0
5
2846
100
AcDbEntity
100
AcDbEllipse
10
82.3305
20
-75.87
30
0
11
5.723e-14
21
-4.5
31
0
40
0.965926
41
3.14159
42
4.71239
0
ELLIPSE
8
0
6
BYBLOCK
62
0
5
2847
100
AcDbEntity
100
AcDbEllipse
10
48.5231
20
-75.87
30
0
11
5.723e-14
21
-4.5
31
0
40
0.965926
41
4.71239
42
6.28319
0
ELLIPSE
8
0
6
BYBLOCK
62
0
5
2848
100
AcDbEntity
100
AcDbEllipse
10
48.5231
20
-75.87
30
0
11
5.723e-14
21
-4.5
31
0
40
0.965926
41
0
42
3.14159
0
ELLIPSE
8
0
6
BYBLOCK
62
0
5
2849
100
AcDbEntity
100
AcDbEllipse
10
48.5231
20
-75.87
30
0
11
5.723e-14
21
-4.5
31
0
40
0.965926
41
3.14159
42
4.71239
0
ELLIPSE
8
0
6
BYBLOCK
62
0
5
284a
100
AcDbEntity
100
AcDbEllipse
10
82.3305
20
-38.87
30
0
11
-5.76781e-14
21
4.5
31
0
40
0.965926
41
6.28319
42
4.71239
0
ELLIPSE
8
0
6
BYBLOCK
62
0
5
284b
100
AcDbEntity
100
AcDbEllipse
10
82.3305
20
-38.87
30
0
11
-5.76781e-14
21
4.5
31
0
40
0.965926
41
3.14159
42
2.22045e-16
0
ELLIPSE
8
0
6
BYBLOCK
62
0
5
284c
100
AcDbEntity
100
AcDbEllipse
10
82.3305
20
-38.87
30
0
11
-5.76781e-14
21
4.5
31
0
40
0.965926
41
4.71239
42
3.14159
0
ELLIPSE
8
0
6
BYBLOCK
62
0
5
284d
100
AcDbEntity
100
AcDbEllipse
10
48.5231
20
-38.87
30
0
11
-5.76781e-14
21
4.5
31
0
40
0.965926
41
6.28319
42
4.71239
0
ELLIPSE
8
0
6
BYBLOCK
62
0
5
284e
100
AcDbEntity
100
AcDbEllipse
10
48.5231
20
-38.87
30
0
11
-5.76781e-14
21
4.5
31
0
40
0.965926
41
3.14159
42
2.22045e-16
0
ELLIPSE
8
0
6
BYBLOCK
62
0
5
284f
100
AcDbEntity
100
AcDbEllipse
10
48.5231
20
-38.87
30
0
11
-5.76781e-14
21
4.5
31
0
40
0.965926
41
4.71239
42
3.14159
0
LINE
8
0
6
BYBLOCK
62
0
5
2850
100
AcDbEntity
100
AcDbLine
10
94.0603
20
-33.37
30
0
11
40.9344
21
-33.37
31
0
0
LINE
8
0
6
BYBLOCK
62
0
5
2851
100
AcDbEntity
100
AcDbLine
10
94.0603
20
-33.37
30
0
11
100.375
21
-33.37
31
0
0
SPLINE
8
0
6
BYBLOCK
62
0
5
2852
100
AcDbEntity
100
AcDbSpline
70
0
71
2
72
6
73
3
74
0
40
5.13421
40
5.13421
40
5.13421
40
5.25538
40
5.25538
40
5.25538
10
40.9344
20
-43.8787
30
0
10
41.7526
20
-44.2462
30
0
10
42.5207
20
-44.7094
30
0
0
LINE
8
0
6
BYBLOCK
62
0
5
2853
100
AcDbEntity
100
AcDbLine
10
42.5207
20
-44.7094
30
0
11
91.9563
21
-44.7094
31
0
0
SPLINE
8
0
6
BYBLOCK
62
0
5
2854
100
AcDbEntity
100
AcDbSpline
70
0
71
2
72
6
73
3
74
0
40
4.1694
40
4.1694
40
4.1694
40
4.32862
40
4.32862
40
4.32862
10
91.9563
20
-44.7094
30
0
10
92.9666
20
-44.1004
30
0
10
94.0603
20
-43.6582
30
0
0
LINE
8
0
6
BYBLOCK
62
0
5
2855
100
AcDbEntity
100
AcDbLine
10
94.0603
20
-43.6582
30
0
11
94.0603
21
-33.37
31
0
0
ELLIPSE
8
0
6
BYBLOCK
62
0
5
2856
100
AcDbEntity
100
AcDbEllipse
10
67.4973
20
-38.87
30
0
11
-1.52933e-06
21
-2.75
31
0
40
0.965926
41
2.02999
42
3.14159
0
ELLIPSE
8
0
6
BYBLOCK
62
0
5
2857
100
AcDbEntity
100
AcDbEllipse
10
67.4973
20
-38.87
30
0
11
-1.52933e-06
21
-2.75
31
0
40
0.965926
41
3.14159
42
6.28319
0
ELLIPSE
8
0
6
BYBLOCK
62
0
5
2858
100
AcDbEntity
100
AcDbEllipse
10
67.4973
20
-38.87
30
0
11
-1.52933e-06
21
-2.75
31
0
40
0.965926
41
0
42
1.11161
0
SPLINE
8
0
6
BYBLOCK
62
0
5
2859
100
AcDbEntity
100
AcDbSpline
70
0
71
1
72
17
73
15
74
0
40
1.18703
40
1.18703
40
1.2182
40
1.24937
40
1.28055
40
1.31172
40
1.3429
40
1.37407
40
1.40524
40
1.43642
40
1.46759
40
1.49877
40
1.52994
40
1.56111
40
1.59229
40
1.62346
40
1.62346
10
94.0603
20
-43.6582
30
0
10
94.4904
20
-43.4922
30
0
10
94.9254
20
-43.3398
30
0
10
95.365
20
-43.201
30
0
10
95.8087
20
-43.076
30
0
10
96.256
20
-42.9649
30
0
10
96.7067
20
-42.8677
30
0
10
97.1601
20
-42.7847
30
0
10
97.6159
20
-42.7158
30
0
10
98.0736
20
-42.6612
30
0
10
98.5328
20
-42.6208
30
0
10
98.993
20
-42.5948
30
0
10
99.4539
20
-42.5832
30
0
10
99.9148
20
-42.5859
30
0
10
100.375
20
-42.603
30
0
0
SPLINE
8
0
6
BYBLOCK
62
0
5
285a
100
AcDbEntity
100
AcDbSpline
70
0
71
3
72
38
73
34
74
0
40
0.0301402
40
0.0301402
40
0.0301402
40
0.0301402
40
0.122945
40
0.122945
40
0.122945
40
0.237421
40
0.237421
40
0.237421
40
0.353707
40
0.353707
40
0.353707
40
0.443342
40
0.443342
40
0.443342
40
0.502472
40
0.502472
40
0.502472
40
0.540908
40
0.540908
40
0.540908
40
0.60018
40
0.60018
40
0.60018
40
0.64987
40
0.64987
40
0.64987
40
0.763715
40
0.763715
40
0.763715
40
0.880556
40
0.880556
40
0.880556
40
0.970169
40
0.970169
40
0.970169
40
0.970169
10
42.5207
20
-44.7094
30
0
10
42.6564
20
-44.7916
30
0
10
43.0632
20
-45.0377
30
0
10
43.5594
20
-45.3976
30
0
10
44.1699
20
-45.8398
30
0
10
44.9105
20
-46.4496
30
0
10
45.6542
20
-47.2414
30
0
10
46.4113
20
-48.0493
30
0
10
47.1844
20
-49.0424
30
0
10
47.8827
20
-50.3273
30
0
10
48.4172
20
-51.3204
30
0
10
48.9149
20
-52.4823
30
0
10
49.2682
20
-53.9567
30
0
10
49.4994
20
-54.9296
30
0
10
49.6678
20
-56.0864
30
0
10
49.6675
20
-57.37
30
0
10
49.668
20
-58.2038
30
0
10
49.5951
20
-59.0033
30
0
10
49.4808
20
-59.7127
30
0
10
49.3038
20
-60.8076
30
0
10
49.0346
20
-61.7347
30
0
10
48.7288
20
-62.5547
30
0
10
48.4711
20
-63.2425
30
0
10
48.1849
20
-63.854
30
0
10
47.8845
20
-64.4094
30
0
10
47.1937
20
-65.6814
30
0
10
46.4295
20
-66.6672
30
0
10
45.6801
20
-67.4709
30
0
10
44.913
20
-68.292
30
0
10
44.1473
20
-68.9193
30
0
10
43.5234
20
-69.3684
30
0
10
43.0437
20
-69.7141
30
0
10
42.6529
20
-69.9505
30
0
10
42.5207
20
-70.0306
30
0
0
SPLINE
8
0
6
BYBLOCK
62
0
5
285b
100
AcDbEntity
100
AcDbSpline
70
0
71
2
72
6
73
3
74
0
40
1.0278
40
1.0278
40
1.0278
40
1.14897
40
1.14897
40
1.14897
10
42.5207
20
-70.0306
30
0
10
41.7526
20
-70.4938
30
0
10
40.9344
20
-70.8613
30
0
0
SPLINE
8
0
6
BYBLOCK
62
0
5
285c
100
AcDbEntity
100
AcDbSpline
70
0
71
3
72
26
73
22
74
0
40
0.0499124
40
0.0499124
40
0.0499124
40
0.0499124
40
0.166998
40
0.166998
40
0.166998
40
0.284084
40
0.284084
40
0.284084
40
0.407852
40
0.407852
40
0.407852
40
0.644183
40
0.644183
40
0.644183
40
0.823864
40
0.823864
40
0.823864
40
0.915466
40
0.915466
40
0.915466
40
1
40
1
40
1
40
1
10
91.9563
20
-44.7094
30
0
10
91.8575
20
-44.7691
30
0
10
91.6625
20
-44.8881
30
0
10
91.4244
20
-45.0461
30
0
10
91.1822
20
-45.2047
30
0
10
90.9049
20
-45.4027
30
0
10
90.5926
20
-45.6401
30
0
10
90.262
20
-45.8914
30
0
10
89.9123
20
-46.1867
30
0
10
89.5434
20
-46.5259
30
0
10
88.844
20
-47.1764
30
0
10
88.0997
20
-47.9836
30
0
10
87.3708
20
-49.052
30
0
10
86.8213
20
-49.8649
30
0
10
86.2754
20
-50.8174
30
0
10
85.7875
20
-52.0816
30
0
10
85.5421
20
-52.7254
30
0
10
85.311
20
-53.4501
30
0
10
85.124
20
-54.3366
30
0
10
84.9552
20
-55.1508
30
0
10
84.8118
20
-56.1366
30
0
10
84.8095
20
-57.37
30
0
0
SPLINE
8
0
6
BYBLOCK
62
0
5
285d
100
AcDbEntity
100
AcDbSpline
70
0
71
3
72
29
73
25
74
0
40
0
40
0
40
0
40
0
40
0.0696249
40
0.0696249
40
0.0696249
40
0.12424
40
0.12424
40
0.12424
40
0.216349
40
0.216349
40
0.216349
40
0.406234
40
0.406234
40
0.406234
40
0.596118
40
0.596118
40
0.596118
40
0.733232
40
0.733232
40
0.733232
40
0.870345
40
0.870345
40
0.870345
40
0.950413
40
0.950413
40
0.950413
40
0.950413
10
84.8095
20
-57.37
30
0
10
84.8102
20
-58.3765
30
0
10
84.9097
20
-59.2307
30
0
10
85.0353
20
-59.9439
30
0
10
85.1347
20
-60.505
30
0
10
85.2541
20
-60.9983
30
0
10
85.3834
20
-61.4496
30
0
10
85.6027
20
-62.2111
30
0
10
85.85
20
-62.8537
30
0
10
86.1079
20
-63.4292
30
0
10
86.643
20
-64.6161
30
0
10
87.2412
20
-65.5491
30
0
10
87.8254
20
-66.3198
30
0
10
88.4121
20
-67.0898
30
0
10
88.9903
20
-67.7013
30
0
10
89.5562
20
-68.2259
30
0
10
89.9668
20
-68.6018
30
0
10
90.3518
20
-68.9232
30
0
10
90.7112
20
-69.19
30
0
10
91.0672
20
-69.4578
30
0
10
91.3919
20
-69.6758
30
0
10
91.6343
20
-69.8305
30
0
10
91.7783
20
-69.9218
30
0
10
91.8856
20
-69.9885
30
0
10
91.9563
20
-70.0306
30
0
0
LINE
8
0
6
BYBLOCK
62
0
5
285e
100
AcDbEntity
100
AcDbLine
10
42.5207
20
-70.0306
30
0
11
91.9563
21
-70.0306
31
0
0
LINE
8
0
6
BYBLOCK
62
0
5
285f
100
AcDbEntity
100
AcDbLine
10
84.8095
20
-57.37
30
0
11
84.8095
21
-57.37
31
0
0
LINE
8
0
6
BYBLOCK
62
0
5
2860
100
AcDbEntity
100
AcDbLine
10
40.9344
20
-81.37
30
0
11
94.0603
21
-81.37
31
0
0
LINE
8
0
6
BYBLOCK
62
0
5
2861
100
AcDbEntity
100
AcDbLine
10
94.0603
20
-81.37
30
0
11
100.375
21
-81.37
31
0
0
SPLINE
8
0
6
BYBLOCK
62
0
5
2862
100
AcDbEntity
100
AcDbSpline
70
0
71
1
72
17
73
15
74
0
40
4.65972
40
4.65972
40
4.6909
40
4.72207
40
4.75324
40
4.78442
40
4.81559
40
4.84677
40
4.87794
40
4.90912
40
4.94029
40
4.97146
40
5.00264
40
5.03381
40
5.06499
40
5.09616
40
5.09616
10
100.375
20
-72.137
30
0
10
99.9148
20
-72.1541
30
0
10
99.4539
20
-72.1568
30
0
10
98.993
20
-72.1452
30
0
10
98.5328
20
-72.1192
30
0
10
98.0736
20
-72.0788
30
0
10
97.6159
20
-72.0242
30
0
10
97.1601
20
-71.9553
30
0
10
96.7067
20
-71.8723
30
0
10
96.256
20
-71.7751
30
0
10
95.8087
20
-71.664
30
0
10
95.365
20
-71.539
30
0
10
94.9254
20
-71.4002
30
0
10
94.4904
20
-71.2478
30
0
10
94.0603
20
-71.0818
30
0
0
LINE
8
0
6
BYBLOCK
62
0
5
2863
100
AcDbEntity
100
AcDbLine
10
94.0603
20
-81.37
30
0
11
94.0603
21
-71.0818
31
0
0
SPLINE
8
0
6
BYBLOCK
62
0
5
2864
100
AcDbEntity
100
AcDbSpline
70
0
71
2
72
6
73
3
74
0
40
1.95457
40
1.95457
40
1.95457
40
2.11379
40
2.11379
40
2.11379
10
94.0603
20
-71.0818
30
0
10
92.9666
20
-70.6396
30
0
10
91.9563
20
-70.0306
30
0
0
ELLIPSE
8
0
6
BYBLOCK
62
0
5
2865
100
AcDbEntity
100
AcDbEllipse
10
72.2596
20
-38.87
30
0
11
-2.50254e-06
21
-4.5
31
0
40
0.965926
41
2.962
42
3.14159
0
ELLIPSE
8
0
6
BYBLOCK
62
0
5
2866
100
AcDbEntity
100
AcDbEllipse
10
72.2596
20
-38.87
30
0
11
-2.50254e-06
21
-4.5
31
0
40
0.965926
41
3.14159
42
6.28319
0
ELLIPSE
8
0
6
BYBLOCK
62
0
5
2867
100
AcDbEntity
100
AcDbEllipse
10
72.2596
20
-38.87
30
0
11
-2.50254e-06
21
-4.5
31
0
40
0.965926
41
0
42
0.179597
0
ELLIPSE
8
0
6
BYBLOCK
62
0
5
2868
100
AcDbEntity
100
AcDbEllipse
10
72.2596
20
-75.87
30
0
11
2.50254e-06
21
4.5
31
0
40
0.965926
41
3.14159
42
2.962
0
ELLIPSE
8
0
6
BYBLOCK
62
0
5
2869
100
AcDbEntity
100
AcDbEllipse
10
72.2596
20
-75.87
30
0
11
2.50254e-06
21
4.5
31
0
40
0.965926
41
6.28319
42
3.14159
0
ELLIPSE
8
0
6
BYBLOCK
62
0
5
286a
100
AcDbEntity
100
AcDbEllipse
10
72.2596
20
-75.87
30
0
11
2.50254e-06
21
4.5
31
0
40
0.965926
41
0.179597
42
0
0
ELLIPSE
8
0
6
BYBLOCK
62
0
5
286b
100
AcDbEntity
100
AcDbEllipse
10
67.4973
20
-75.87
30
0
11
-1.52933e-06
21
-2.75
31
0
40
0.965926
41
2.02999
42
3.14159
0
ELLIPSE
8
0
6
BYBLOCK
62
0
5
286c
100
AcDbEntity
100
AcDbEllipse
10
67.4973
20
-75.87
30
0
11
-1.52933e-06
21
-2.75
31
0
40
0.965926
41
3.14159
42
6.28319
0
ELLIPSE
8
0
6
BYBLOCK
62
0
5
286d
100
AcDbEntity
100
AcDbEllipse
10
67.4973
20
-75.87
30
0
11
-1.52933e-06
21
-2.75
31
0
40
0.965926
41
0
42
1.11161
0
LINE
8
0
6
BYBLOCK
62
0
5
286e
100
AcDbEntity
100
AcDbLine
10
75.5398
20
-75.87
30
0
11
72.0121
21
-75.87
31
0
0
LINE
8
0
6
BYBLOCK
62
0
5
286f
100
AcDbEntity
100
AcDbLine
10
75.5398
20
-38.87
30
0
11
72.0121
21
-38.87
31
0
0
LINE
8
0
6
BYBLOCK
62
0
5
2870
100
AcDbEntity
100
AcDbLine
10
41.7324
20
-38.87
30
0
11
35.7774
21
-38.87
31
0
0
LINE
8
0
6
BYBLOCK
62
0
5
2871
100
AcDbEntity
100
AcDbLine
10
41.7324
20
-75.87
30
0
11
35.7774
21
-75.87
31
0
0
LINE
8
0
6
BYBLOCK
62
0
5
2872
100
AcDbEntity
100
AcDbLine
10
79.6742
20
-75.87
30
0
11
74.9119
21
-75.87
31
0
0
LINE
8
0
6
BYBLOCK
62
0
5
2873
100
AcDbEntity
100
AcDbLine
10
64.9513
20
-75.87
30
0
11
58.6361
21
-75.87
31
0
0
LINE
8
0
6
BYBLOCK
62
0
5
2874
100
AcDbEntity
100
AcDbLine
10
64.9513
20
-38.87
30
0
11
58.6361
21
-38.87
31
0
0
LINE
8
0
6
BYBLOCK
62
0
5
2875
100
AcDbEntity
100
AcDbLine
10
79.6742
20
-38.87
30
0
11
74.9119
21
-38.87
31
0
0
LINE
8
0
6
BYBLOCK
62
0
5
2876
100
AcDbEntity
100
AcDbLine
10
45.8668
20
-38.87
30
0
11
41.1045
21
-38.87
31
0
0
LINE
8
0
6
BYBLOCK
62
0
5
2877
100
AcDbEntity
100
AcDbLine
10
45.8668
20
-75.87
30
0
11
41.1045
21
-75.87
31
0
0
LINE
8
0
6
BYBLOCK
62
0
5
2878
100
AcDbEntity
100
AcDbLine
10
79.5367
20
-75.87
30
0
11
77.9838
21
-75.87
31
0
0
LINE
8
0
6
BYBLOCK
62
0
5
2879
100
AcDbEntity
100
AcDbLine
10
45.7293
20
-75.87
30
0
11
44.1764
21
-75.87
31
0
0
LINE
8
0
6
BYBLOCK
62
0
5
287a
100
AcDbEntity
100
AcDbLine
10
79.5367
20
-38.87
30
0
11
77.9838
21
-38.87
31
0
0
LINE
8
0
6
BYBLOCK
62
0
5
287b
100
AcDbEntity
100
AcDbLine
10
45.7293
20
-38.87
30
0
11
44.1764
21
-38.87
31
0
0
LINE
8
0
6
BYBLOCK
62
0
5
287c
100
AcDbEntity
100
AcDbLine
10
74.1862
20
-77.97
30
0
11
77.5682
21
-77.97
31
0
0
LINE
8
0
6
BYBLOCK
62
0
5
287d
100
AcDbEntity
100
AcDbLine
10
74.1862
20
-73.77
30
0
11
77.5682
21
-73.77
31
0
0
LINE
8
0
6
BYBLOCK
62
0
5
287e
100
AcDbEntity
100
AcDbLine
10
74.1862
20
-40.97
30
0
11
77.5682
21
-40.97
31
0
0
LINE
8
0
6
BYBLOCK
62
0
5
287f
100
AcDbEntity
100
AcDbLine
10
74.1862
20
-36.77
30
0
11
77.5682
21
-36.77
31
0
0
LINE
8
0
6
BYBLOCK
62
0
5
2880
100
AcDbEntity
100
AcDbLine
10
37.9515
20
-40.97
30
0
11
43.7608
21
-40.97
31
0
0
LINE
8
0
6
BYBLOCK
62
0
5
2881
100
AcDbEntity
100
AcDbLine
10
37.9515
20
-36.77
30
0
11
43.7608
21
-36.77
31
0
0
LINE
8
0
6
BYBLOCK
62
0
5
2882
100
AcDbEntity
100
AcDbLine
10
37.9515
20
-77.97
30
0
11
43.7608
21
-77.97
31
0
0
LINE
8
0
6
BYBLOCK
62
0
5
2883
100
AcDbEntity
100
AcDbLine
10
37.9515
20
-73.77
30
0
11
43.7608
21
-73.77
31
0
0
LINE
8
0
6
BYBLOCK
62
0
5
2884
100
AcDbEntity
100
AcDbLine
10
77.5682
20
-78.62
30
0
11
82.3305
21
-78.62
31
0
0
LINE
8
0
6
BYBLOCK
62
0
5
2885
100
AcDbEntity
100
AcDbLine
10
77.5682
20
-73.12
30
0
11
82.3305
21
-73.12
31
0
0
LINE
8
0
6
BYBLOCK
62
0
5
2886
100
AcDbEntity
100
AcDbLine
10
60.6645
20
-77.97
30
0
11
66.9797
21
-77.97
31
0
0
LINE
8
0
6
BYBLOCK
62
0
5
2887
100
AcDbEntity
100
AcDbLine
10
60.6645
20
-73.77
30
0
11
66.9797
21
-73.77
31
0
0
LINE
8
0
6
BYBLOCK
62
0
5
2888
100
AcDbEntity
100
AcDbLine
10
60.6645
20
-40.97
30
0
11
66.9797
21
-40.97
31
0
0
LINE
8
0
6
BYBLOCK
62
0
5
2889
100
AcDbEntity
100
AcDbLine
10
60.6645
20
-36.77
30
0
11
66.9797
21
-36.77
31
0
0
LINE
8
0
6
BYBLOCK
62
0
5
288a
100
AcDbEntity
100
AcDbLine
10
77.5682
20
-41.62
30
0
11
82.3305
21
-41.62
31
0
0
LINE
8
0
6
BYBLOCK
62
0
5
288b
100
AcDbEntity
100
AcDbLine
10
77.5682
20
-36.12
30
0
11
82.3305
21
-36.12
31
0
0
LINE
8
0
6
BYBLOCK
62
0
5
288c
100
AcDbEntity
100
AcDbLine
10
43.7608
20
-41.62
30
0
11
48.5231
21
-41.62
31
0
0
LINE
8
0
6
BYBLOCK
62
0
5
288d
100
AcDbEntity
100
AcDbLine
10
43.7608
20
-36.12
30
0
11
48.5231
21
-36.12
31
0
0
LINE
8
0
6
BYBLOCK
62
0
5
288e
100
AcDbEntity
100
AcDbLine
10
43.7608
20
-78.62
30
0
11
48.5231
21
-78.62
31
0
0
LINE
8
0
6
BYBLOCK
62
0
5
288f
100
AcDbEntity
100
AcDbLine
10
43.7608
20
-73.12
30
0
11
48.5231
21
-73.12
31
0
0
LINE
8
0
6
BYBLOCK
62
0
5
2890
100
AcDbEntity
100
AcDbLine
10
82.3305
20
-80.37
30
0
11
83.8834
21
-80.37
31
0
0
LINE
8
0
6
BYBLOCK
62
0
5
2891
100
AcDbEntity
100
AcDbLine
10
82.3305
20
-71.37
30
0
11
83.8834
21
-71.37
31
0
0
LINE
8
0
6
BYBLOCK
62
0
5
2892
100
AcDbEntity
100
AcDbLine
10
48.5231
20
-80.37
30
0
11
50.076
21
-80.37
31
0
0
LINE
8
0
6
BYBLOCK
62
0
5
2893
100
AcDbEntity
100
AcDbLine
10
48.5231
20
-71.37
30
0
11
50.076
21
-71.37
31
0
0
LINE
8
0
6
BYBLOCK
62
0
5
2894
100
AcDbEntity
100
AcDbLine
10
82.3305
20
-43.37
30
0
11
83.8834
21
-43.37
31
0
0
LINE
8
0
6
BYBLOCK
62
0
5
2895
100
AcDbEntity
100
AcDbLine
10
82.3305
20
-34.37
30
0
11
83.8834
21
-34.37
31
0
0
LINE
8
0
6
BYBLOCK
62
0
5
2896
100
AcDbEntity
100
AcDbLine
10
48.5231
20
-43.37
30
0
11
50.076
21
-43.37
31
0
0
LINE
8
0
6
BYBLOCK
62
0
5
2897
100
AcDbEntity
100
AcDbLine
10
48.5231
20
-34.37
30
0
11
50.076
21
-34.37
31
0
0
LINE
8
0
6
BYBLOCK
62
0
5
2898
100
AcDbEntity
100
AcDbLine
10
67.4973
20
-41.62
30
0
11
72.2596
21
-41.62
31
0
0
LINE
8
0
6
BYBLOCK
62
0
5
2899
100
AcDbEntity
100
AcDbLine
10
67.4973
20
-36.12
30
0
11
72.2596
21
-36.12
31
0
0
LINE
8
0
6
BYBLOCK
62
0
5
289a
100
AcDbEntity
100
AcDbLine
10
72.2596
20
-43.37
30
0
11
73.8125
21
-43.37
31
0
0
LINE
8
0
6
BYBLOCK
62
0
5
289b
100
AcDbEntity
100
AcDbLine
10
72.2596
20
-34.37
30
0
11
73.8125
21
-34.37
31
0
0
LINE
8
0
6
BYBLOCK
62
0
5
289c
100
AcDbEntity
100
AcDbLine
10
72.2596
20
-80.37
30
0
11
73.8125
21
-80.37
31
0
0
LINE
8
0
6
BYBLOCK
62
0
5
289d
100
AcDbEntity
100
AcDbLine
10
72.2596
20
-71.37
30
0
11
73.8125
21
-71.37
31
0
0
LINE
8
0
6
BYBLOCK
62
0
5
289e
100
AcDbEntity
100
AcDbLine
10
67.4973
20
-78.62
30
0
11
72.2596
21
-78.62
31
0
0
LINE
8
0
6
BYBLOCK
62
0
5
289f
100
AcDbEntity
100
AcDbLine
10
67.4973
20
-73.12
30
0
11
72.2596
21
-73.12
31
0
0
ENDBLK
5
28a0
100
AcDbEntity
8
0
100
AcDbBlockEnd
0
BLOCK
5
28a1
100
AcDbEntity
8
0
100
AcDbBlockBegin
2
View0021
70
0
10
0
20
0
3
View0021
1

0
SPLINE
8
0
6
BYBLOCK
62
0
5
28a2
100
AcDbEntity
100
AcDbSpline
70
0
71
2
72
6
73
3
74
0
40
5.13421
40
5.13421
40
5.13421
40
5.25538
40
5.25538
40
5.25538
10
144.844
20
-34.4607
30
0
10
145.663
20
-34.68
30
0
10
146.431
20
-34.8858
30
0
0
LINE
8
0
6
BYBLOCK
62
0
5
28a3
100
AcDbEntity
100
AcDbLine
10
146.431
20
-34.8858
30
0
11
195.866
21
-48.132
31
0
0
SPLINE
8
0
6
BYBLOCK
62
0
5
28a4
100
AcDbEntity
100
AcDbSpline
70
0
71
2
72
6
73
3
74
0
40
4.1694
40
4.1694
40
4.1694
40
4.32862
40
4.32862
40
4.32862
10
195.866
20
-48.132
30
0
10
196.877
20
-48.4027
30
0
10
197.97
20
-48.6958
30
0
0
SPLINE
8
0
6
BYBLOCK
62
0
5
28a5
100
AcDbEntity
100
AcDbSpline
70
0
71
3
72
29
73
25
74
0
40
1.18703
40
1.18703
40
1.18703
40
1.18703
40
1.2182
40
1.2182
40
1.2182
40
1.24937
40
1.24937
40
1.24937
40
1.28055
40
1.28055
40
1.28055
40
1.31172
40
1.31172
40
1.31172
40
1.3429
40
1.3429
40
1.3429
40
1.37407
40
1.37407
40
1.37407
40
1.40524
40
1.40524
40
1.40524
40
1.62346
40
1.62346
40
1.62346
40
1.62346
10
197.97
20
-48.6958
30
0
10
198.114
20
-48.1607
30
0
10
198.257
20
-47.6257
30
0
10
198.4
20
-47.0907
30
0
10
198.545
20
-46.5495
30
0
10
198.69
20
-46.0083
30
0
10
198.835
20
-45.4671
30
0
10
198.982
20
-44.9203
30
0
10
199.128
20
-44.3734
30
0
10
199.275
20
-43.8266
30
0
10
199.423
20
-43.2746
30
0
10
199.571
20
-42.7227
30
0
10
199.719
20
-42.1707
30
0
10
199.868
20
-41.6142
30
0
10
200.017
20
-41.0576
30
0
10
200.166
20
-40.5011
30
0
10
200.316
20
-39.9405
30
0
10
200.466
20
-39.3799
30
0
10
200.617
20
-38.8194
30
0
10
200.768
20
-38.2553
30
0
10
200.919
20
-37.6912
30
0
10
201.07
20
-37.1272
30
0
10
202.131
20
-33.1662
30
0
10
203.211
20
-29.1367
30
0
10
204.285
20
-25.1272
30
0
0
SPLINE
8
0
6
BYBLOCK
62
0
5
28a6
100
AcDbEntity
100
AcDbSpline
70
0
71
1
72
17
73
15
74
0
40
5.70323
40
5.70323
40
5.74466
40
5.78608
40
5.82751
40
5.86893
40
5.91036
40
5.95178
40
5.99321
40
6.03463
40
6.07606
40
6.11748
40
6.15891
40
6.20033
40
6.24176
40
6.28318
40
6.28318
10
151.16
20
-10.8921
30
0
10
151.485
20
-10.9792
30
0
10
151.788
20
-11.0604
30
0
10
152.069
20
-11.1357
30
0
10
152.327
20
-11.2049
30
0
10
152.562
20
-11.2678
30
0
10
152.773
20
-11.3244
30
0
10
152.96
20
-11.3746
30
0
10
153.123
20
-11.4183
30
0
10
153.261
20
-11.4553
30
0
10
153.375
20
-11.4857
30
0
10
153.463
20
-11.5095
30
0
10
153.527
20
-11.5264
30
0
10
153.565
20
-11.5366
30
0
10
153.577
20
-11.54
30
0
0
LINE
8
0
6
BYBLOCK
62
0
5
28a7
100
AcDbEntity
100
AcDbLine
10
153.577
20
-11.54
30
0
11
188.72
21
-20.9563
31
0
0
SPLINE
8
0
6
BYBLOCK
62
0
5
28a8
100
AcDbEntity
100
AcDbSpline
70
0
71
1
72
17
73
15
74
0
40
3.14159
40
3.14159
40
3.25755
40
3.37352
40
3.48948
40
3.60544
40
3.7214
40
3.83736
40
3.95332
40
4.06929
40
4.18525
40
4.30121
40
4.41717
40
4.53313
40
4.64909
40
4.76506
40
4.76506
10
188.72
20
-20.9563
30
0
10
188.819
20
-20.9829
30
0
10
189.115
20
-21.0624
30
0
10
189.605
20
-21.1937
30
0
10
190.282
20
-21.375
30
0
10
191.136
20
-21.6039
30
0
10
192.157
20
-21.8773
30
0
10
193.33
20
-22.1916
30
0
10
194.639
20
-22.5425
30
0
10
196.068
20
-22.9253
30
0
10
197.597
20
-23.3349
30
0
10
199.205
20
-23.7658
30
0
10
200.87
20
-24.2121
30
0
10
202.572
20
-24.668
30
0
10
204.285
20
-25.1272
30
0
0
ELLIPSE
8
0
6
BYBLOCK
62
0
5
28a9
100
AcDbEntity
100
AcDbEllipse
10
177.723
20
-18.0097
30
0
11
4.34667
21
-1.16469
31
0
40
1.43934e-07
41
3.8567e-08
42
3.14159
0
ELLIPSE
8
0
6
BYBLOCK
62
0
5
28aa
100
AcDbEntity
100
AcDbEllipse
10
177.723
20
-18.0097
30
0
11
4.34667
21
-1.16469
31
0
40
1.43934e-07
41
3.14159
42
6.28319
0
SPLINE
8
0
6
BYBLOCK
62
0
5
28ab
100
AcDbEntity
100
AcDbSpline
70
0
71
1
72
17
73
15
74
0
40
3.72155
40
3.72155
40
3.76219
40
3.80284
40
3.84348
40
3.88412
40
3.92477
40
3.96541
40
4.00606
40
4.0467
40
4.08734
40
4.12799
40
4.16863
40
4.20928
40
4.24992
40
4.29057
40
4.29057
10
151.16
20
-10.8921
30
0
10
150.82
20
-12.1591
30
0
10
150.461
20
-13.5002
30
0
10
150.082
20
-14.9132
30
0
10
149.685
20
-16.3959
30
0
10
149.27
20
-17.9457
30
0
10
148.837
20
-19.5601
30
0
10
148.388
20
-21.2365
30
0
10
147.923
20
-22.972
30
0
10
147.443
20
-24.7638
30
0
10
146.948
20
-26.6089
30
0
10
146.44
20
-28.5044
30
0
10
145.92
20
-30.447
30
0
10
145.388
20
-32.4335
30
0
10
144.844
20
-34.4607
30
0
0
SPLINE
8
0
6
BYBLOCK
62
0
5
28ac
100
AcDbEntity
100
AcDbSpline
70
0
71
1
72
4
73
2
74
0
40
0.425019
40
0.425019
40
0.972998
40
0.972998
10
153.577
20
-24.688
30
0
10
153.577
20
-11.54
30
0
0
SPLINE
8
0
6
BYBLOCK
62
0
5
28ad
100
AcDbEntity
100
AcDbSpline
70
0
71
3
72
23
73
19
74
0
40
0.0301402
40
0.0301402
40
0.0301402
40
0.0301402
40
0.0456995
40
0.0456995
40
0.0456995
40
0.122945
40
0.122945
40
0.122945
40
0.237421
40
0.237421
40
0.237421
40
0.353707
40
0.353707
40
0.353707
40
0.443342
40
0.443342
40
0.443342
40
0.502472
40
0.502472
40
0.502472
40
0.502472
10
146.431
20
-34.8858
30
0
10
146.454
20
-34.7067
30
0
10
146.484
20
-34.5259
30
0
10
146.521
20
-34.3434
30
0
10
146.704
20
-33.4386
30
0
10
147.058
20
-32.573
30
0
10
147.469
20
-31.813
30
0
10
148.08
20
-30.6885
30
0
10
148.82
20
-29.716
30
0
10
149.564
20
-28.8286
30
0
10
150.321
20
-27.9303
30
0
10
151.094
20
-27.1199
30
0
10
151.793
20
-26.4166
30
0
10
152.327
20
-25.879
30
0
10
152.825
20
-25.4003
30
0
10
153.178
20
-25.0648
30
0
10
153.409
20
-24.8452
30
0
10
153.578
20
-24.6878
30
0
10
153.577
20
-24.688
30
0
0
SPLINE
8
0
6
BYBLOCK
62
0
5
28ae
100
AcDbEntity
100
AcDbSpline
70
0
71
3
72
29
73
25
74
0
40
0.0499124
40
0.0499124
40
0.0499124
40
0.0499124
40
0.166998
40
0.166998
40
0.166998
40
0.284084
40
0.284084
40
0.284084
40
0.407852
40
0.407852
40
0.407852
40
0.644183
40
0.644183
40
0.644183
40
0.734024
40
0.734024
40
0.734024
40
0.823864
40
0.823864
40
0.823864
40
0.915466
40
0.915466
40
0.915466
40
1
40
1
40
1
40
1
10
195.866
20
-48.132
30
0
10
195.767
20
-47.3286
30
0
10
195.573
20
-46.571
30
0
10
195.334
20
-45.8486
30
0
10
195.095
20
-45.1255
30
0
10
194.812
20
-44.4387
30
0
10
194.503
20
-43.7619
30
0
10
194.172
20
-43.0469
30
0
10
193.822
20
-42.3521
30
0
10
193.453
20
-41.6774
30
0
10
192.754
20
-40.3902
30
0
10
192.01
20
-39.1612
30
0
10
191.281
20
-38.0032
30
0
10
191.004
20
-37.5649
30
0
10
190.733
20
-37.1409
30
0
10
190.467
20
-36.7311
30
0
10
190.201
20
-36.3217
30
0
10
189.94
20
-35.9253
30
0
10
189.698
20
-35.5605
30
0
10
189.452
20
-35.1908
30
0
10
189.221
20
-34.8465
30
0
10
189.034
20
-34.5691
30
0
10
188.865
20
-34.3188
30
0
10
188.722
20
-34.1077
30
0
10
188.72
20
-34.1043
30
0
0
SPLINE
8
0
6
BYBLOCK
62
0
5
28af
100
AcDbEntity
100
AcDbSpline
70
0
71
1
72
4
73
2
74
0
40
0.0847049
40
0.0847049
40
0.79449
40
0.79449
10
153.577
20
-24.688
30
0
10
188.72
20
-34.1043
30
0
0
SPLINE
8
0
6
BYBLOCK
62
0
5
28b0
100
AcDbEntity
100
AcDbSpline
70
0
71
1
72
4
73
2
74
0
40
3.02272e-08
40
3.02272e-08
40
0.473982
40
0.473982
10
188.72
20
-20.9563
30
0
10
188.72
20
-34.1043
30
0
0
LINE
8
0
6
BYBLOCK
62
0
5
28b1
100
AcDbEntity
100
AcDbLine
10
182.069
20
-19.1743
30
0
11
182.069
21
-19.1743
31
0
0
LINE
8
0
6
BYBLOCK
62
0
5
28b2
100
AcDbEntity
100
AcDbLine
10
138.012
20
-59.9612
30
0
11
191.137
21
-74.1962
31
0
0
LINE
8
0
6
BYBLOCK
62
0
5
28b3
100
AcDbEntity
100
AcDbLine
10
191.137
20
-74.1962
30
0
11
192.468
21
-69.23
31
0
0
SPLINE
8
0
6
BYBLOCK
62
0
5
28b4
100
AcDbEntity
100
AcDbSpline
70
0
71
1
72
17
73
15
74
0
40
0.72801
40
0.72801
40
0.758079
40
0.788148
40
0.818216
40
0.848285
40
0.878354
40
0.908423
40
0.938491
40
0.96856
40
0.998629
40
1.0287
40
1.05877
40
1.08883
40
1.1189
40
1.14897
40
1.14897
10
192.468
20
-69.23
30
0
10
192.769
20
-68.1074
30
0
10
193.079
20
-66.9485
30
0
10
193.399
20
-65.7545
30
0
10
193.728
20
-64.5264
30
0
10
194.066
20
-63.2653
30
0
10
194.413
20
-61.9723
30
0
10
194.768
20
-60.6486
30
0
10
195.13
20
-59.2955
30
0
10
195.5
20
-57.9141
30
0
10
195.878
20
-56.5057
30
0
10
196.262
20
-55.0715
30
0
10
196.653
20
-53.6129
30
0
10
197.05
20
-52.1311
30
0
10
197.453
20
-50.6276
30
0
0
SPLINE
8
0
6
BYBLOCK
62
0
5
28b5
100
AcDbEntity
100
AcDbSpline
70
0
71
3
72
26
73
22
74
0
40
4.32862
40
4.32862
40
4.32862
40
4.32862
40
4.35237
40
4.35237
40
4.35237
40
4.37612
40
4.37612
40
4.37612
40
4.39988
40
4.39988
40
4.39988
40
4.42363
40
4.42363
40
4.42363
40
4.44738
40
4.44738
40
4.44738
40
4.49489
40
4.49489
40
4.49489
40
4.66116
40
4.66116
40
4.66116
40
4.66116
10
144.327
20
-36.3926
30
0
10
144.218
20
-36.7996
30
0
10
144.109
20
-37.2067
30
0
10
144
20
-37.6138
30
0
10
143.889
20
-38.0245
30
0
10
143.779
20
-38.4353
30
0
10
143.669
20
-38.846
30
0
10
143.558
20
-39.2602
30
0
10
143.447
20
-39.6743
30
0
10
143.336
20
-40.0885
30
0
10
143.225
20
-40.5058
30
0
10
143.113
20
-40.9232
30
0
10
143.001
20
-41.3405
30
0
10
142.888
20
-41.7608
30
0
10
142.776
20
-42.1812
30
0
10
142.663
20
-42.6015
30
0
10
142.437
20
-43.4461
30
0
10
142.209
20
-44.2946
30
0
10
141.981
20
-45.147
30
0
10
141.18
20
-48.1347
30
0
10
140.366
20
-51.1753
30
0
10
139.547
20
-54.23
30
0
0
LINE
8
0
6
BYBLOCK
62
0
5
28b6
100
AcDbEntity
100
AcDbLine
10
139.547
20
-54.23
30
0
11
138.012
21
-59.9612
31
0
0
LINE
8
0
6
BYBLOCK
62
0
5
28b7
100
AcDbEntity
100
AcDbLine
10
153.577
20
-54.23
30
0
11
139.547
21
-54.23
31
0
0
LINE
8
0
6
BYBLOCK
62
0
5
28b8
100
AcDbEntity
100
AcDbLine
10
192.468
20
-69.23
30
0
11
188.72
21
-69.23
31
0
0
LINE
8
0
6
BYBLOCK
62
0
5
28b9
100
AcDbEntity
100
AcDbLine
10
188.72
20
-60.4003
30
0
11
188.72
21
-69.23
31
0
0
LINE
8
0
6
BYBLOCK
62
0
5
28ba
100
AcDbEntity
100
AcDbLine
10
153.577
20
-50.984
30
0
11
188.72
21
-60.4003
31
0
0
LINE
8
0
6
BYBLOCK
62
0
5
28bb
100
AcDbEntity
100
AcDbLine
10
153.577
20
-54.23
30
0
11
153.577
21
-50.984
31
0
0
SPLINE
8
0
6
BYBLOCK
62
0
5
28bc
100
AcDbEntity
100
AcDbSpline
70
0
71
3
72
26
73
22
74
0
40
0.502468
40
0.502468
40
0.502468
40
0.502468
40
0.541056
40
0.541056
40
0.541056
40
0.600609
40
0.600609
40
0.600609
40
0.65055
40
0.65055
40
0.65055
40
0.764951
40
0.764951
40
0.764951
40
0.879942
40
0.879942
40
0.879942
40
0.953239
40
0.953239
40
0.953239
40
0.970106
40
0.970106
40
0.970106
40
0.970106
10
188.72
20
-60.4003
30
0
10
188.719
20
-60.4008
30
0
10
188.793
20
-60.3319
30
0
10
188.908
20
-60.2233
30
0
10
189.086
20
-60.0551
30
0
10
189.357
20
-59.7978
30
0
10
189.665
20
-59.4993
30
0
10
189.928
20
-59.246
30
0
10
190.211
20
-58.9662
30
0
10
190.516
20
-58.6601
30
0
10
191.211
20
-57.9594
30
0
10
191.98
20
-57.1529
30
0
10
192.733
20
-56.2594
30
0
10
193.488
20
-55.3582
30
0
10
194.241
20
-54.3695
30
0
10
194.856
20
-53.2226
30
0
10
195.248
20
-52.4904
30
0
10
195.584
20
-51.6624
30
0
10
195.765
20
-50.7957
30
0
10
195.807
20
-50.596
30
0
10
195.841
20
-50.3983
30
0
10
195.866
20
-50.2026
30
0
0
SPLINE
8
0
6
BYBLOCK
62
0
5
28bd
100
AcDbEntity
100
AcDbSpline
70
0
71
2
72
6
73
3
74
0
40
1.99262
40
1.99262
40
1.99262
40
2.11379
40
2.11379
40
2.11379
10
197.453
20
-50.6276
30
0
10
196.634
20
-50.4084
30
0
10
195.866
20
-50.2026
30
0
0
LINE
8
0
6
BYBLOCK
62
0
5
28be
100
AcDbEntity
100
AcDbLine
10
146.431
20
-36.9563
30
0
11
195.866
21
-50.2026
31
0
0
SPLINE
8
0
6
BYBLOCK
62
0
5
28bf
100
AcDbEntity
100
AcDbSpline
70
0
71
2
72
6
73
3
74
0
40
1.02781
40
1.02781
40
1.02781
40
1.18703
40
1.18703
40
1.18703
10
146.431
20
-36.9563
30
0
10
145.42
20
-36.6856
30
0
10
144.327
20
-36.3926
30
0
0
SPLINE
8
0
6
BYBLOCK
62
0
5
28c0
100
AcDbEntity
100
AcDbSpline
70
0
71
3
72
29
73
25
74
0
40
0
40
0
40
0
40
0
40
0.0674516
40
0.0674516
40
0.0674516
40
0.124845
40
0.124845
40
0.124845
40
0.21745
40
0.21745
40
0.21745
40
0.406106
40
0.406106
40
0.406106
40
0.594763
40
0.594763
40
0.594763
40
0.731214
40
0.731214
40
0.731214
40
0.867665
40
0.867665
40
0.867665
40
0.950411
40
0.950411
40
0.950411
40
0.950411
10
153.577
20
-50.984
30
0
10
153.577
20
-50.9832
30
0
10
153.483
20
-50.8451
30
0
10
153.364
20
-50.6681
30
0
10
153.261
20
-50.516
30
0
10
153.135
20
-50.3299
30
0
10
152.999
20
-50.1269
30
0
10
152.778
20
-49.7974
30
0
10
152.529
20
-49.4232
30
0
10
152.27
20
-49.0286
30
0
10
151.737
20
-48.2197
30
0
10
151.143
20
-47.2986
30
0
10
150.563
20
-46.358
30
0
10
149.98
20
-45.4124
30
0
10
149.405
20
-44.4443
30
0
10
148.843
20
-43.409
30
0
10
148.436
20
-42.6589
30
0
10
148.048
20
-41.8959
30
0
10
147.691
20
-41.0985
30
0
10
147.336
20
-40.3016
30
0
10
147.011
20
-39.47
30
0
10
146.767
20
-38.5998
30
0
10
146.619
20
-38.0723
30
0
10
146.501
20
-37.5266
30
0
10
146.431
20
-36.9563
30
0
0
LINE
8
0
6
BYBLOCK
62
0
5
28c1
100
AcDbEntity
100
AcDbLine
10
133.79
20
-58.83
30
0
11
133.79
21
-84.23
31
0
0
LINE
8
0
6
BYBLOCK
62
0
5
28c2
100
AcDbEntity
100
AcDbLine
10
195.994
20
-75.4974
30
0
11
133.79
21
-58.83
31
0
0
LINE
8
0
6
BYBLOCK
62
0
5
28c3
100
AcDbEntity
100
AcDbLine
10
133.79
20
-84.23
30
0
11
195.994
21
-84.23
31
0
0
LINE
8
0
6
BYBLOCK
62
0
5
28c4
100
AcDbEntity
100
AcDbLine
10
195.994
20
-84.23
30
0
11
195.994
21
-75.4974
31
0
0
LINE
8
0
6
BYBLOCK
62
0
5
28c5
100
AcDbEntity
100
AcDbLine
10
173.376
20
-16.845
30
0
11
173.376
21
-16.845
31
0
0
LINE
8
0
6
BYBLOCK
62
0
5
28c6
100
AcDbEntity
100
AcDbLine
10
197.97
20
-48.6958
30
0
11
144.844
21
-34.4607
31
0
0
LINE
8
0
6
BYBLOCK
62
0
5
28c7
100
AcDbEntity
100
AcDbLine
10
197.97
20
-48.6958
30
0
11
204.285
21
-25.1272
31
0
0
LINE
8
0
6
BYBLOCK
62
0
5
28c8
100
AcDbEntity
100
AcDbLine
10
151.16
20
-10.8921
30
0
11
204.285
21
-25.1272
31
0
0
LINE
8
0
6
BYBLOCK
62
0
5
28c9
100
AcDbEntity
100
AcDbLine
10
144.844
20
-34.4607
30
0
11
151.16
21
-10.8921
31
0
0
LINE
8
0
6
BYBLOCK
62
0
5
28ca
100
AcDbEntity
100
AcDbLine
10
144.844
20
-34.4607
30
0
11
144.844
21
-34.4607
31
0
0
LINE
8
0
6
BYBLOCK
62
0
5
28cb
100
AcDbEntity
100
AcDbLine
10
197.97
20
-48.6958
30
0
11
197.97
21
-48.6958
31
0
0
ELLIPSE
8
0
6
BYBLOCK
62
0
5
28cc
100
AcDbEntity
100
AcDbEllipse
10
171.407
20
-41.5782
30
0
11
2.6563
21
-0.711752
31
0
40
1.43934e-07
41
3.8567e-08
42
3.14159
0
ELLIPSE
8
0
6
BYBLOCK
62
0
5
28cd
100
AcDbEntity
100
AcDbEllipse
10
171.407
20
-41.5782
30
0
11
2.6563
21
-0.711752
31
0
40
1.43934e-07
41
3.14159
42
6.28319
0
LINE
8
0
6
BYBLOCK
62
0
5
28ce
100
AcDbEntity
100
AcDbLine
10
204.285
20
-25.1272
30
0
11
204.285
21
-25.1272
31
0
0
LINE
8
0
6
BYBLOCK
62
0
5
28cf
100
AcDbEntity
100
AcDbLine
10
151.16
20
-10.8921
30
0
11
151.16
21
-10.8921
31
0
0
ELLIPSE
8
0
6
BYBLOCK
62
0
5
28d0
100
AcDbEntity
100
AcDbEllipse
10
176.17
20
-23.8052
30
0
11
-2.6563
21
0.711752
31
0
40
1.43934e-07
41
6.28319
42
3.14159
0
ELLIPSE
8
0
6
BYBLOCK
62
0
5
28d1
100
AcDbEntity
100
AcDbEllipse
10
176.17
20
-23.8052
30
0
11
-2.6563
21
0.711752
31
0
40
1.43934e-07
41
3.14159
42
0
0
LINE
8
0
6
BYBLOCK
62
0
5
28d2
100
AcDbEntity
100
AcDbLine
10
178.826
20
-24.517
30
0
11
174.064
21
-42.29
31
0
0
LINE
8
0
6
BYBLOCK
62
0
5
28d3
100
AcDbEntity
100
AcDbLine
10
182.069
20
-19.1743
30
0
11
180.516
21
-24.9699
31
0
0
ELLIPSE
8
0
6
BYBLOCK
62
0
5
28d4
100
AcDbEntity
100
AcDbEllipse
10
176.17
20
-23.8052
30
0
11
4.34667
21
-1.16469
31
0
40
1.43934e-07
41
3.8567e-08
42
3.14159
0
ELLIPSE
8
0
6
BYBLOCK
62
0
5
28d5
100
AcDbEntity
100
AcDbEllipse
10
176.17
20
-23.8052
30
0
11
4.34667
21
-1.16469
31
0
40
1.43934e-07
41
3.14159
42
6.28319
0
LINE
8
0
6
BYBLOCK
62
0
5
28d6
100
AcDbEntity
100
AcDbLine
10
138.012
20
-59.9612
30
0
11
191.137
21
-74.1962
31
0
0
SPLINE
8
0
6
BYBLOCK
62
0
5
28d7
100
AcDbEntity
100
AcDbSpline
70
0
71
1
72
17
73
15
74
0
40
0
40
0
40
0.224399
40
0.448799
40
0.673198
40
0.897598
40
1.122
40
1.3464
40
1.5708
40
1.7952
40
2.0196
40
2.24399
40
2.46839
40
2.69279
40
2.91719
40
3.14159
40
3.14159
10
162.546
20
-66.5352
30
0
10
162.597
20
-66.5488
30
0
10
162.747
20
-66.589
30
0
10
162.989
20
-66.6537
30
0
10
163.31
20
-66.7398
30
0
10
163.694
20
-66.8429
30
0
10
164.123
20
-66.9577
30
0
10
164.575
20
-67.0787
30
0
10
165.026
20
-67.1996
30
0
10
165.455
20
-67.3145
30
0
10
165.839
20
-67.4176
30
0
10
166.16
20
-67.5036
30
0
10
166.402
20
-67.5684
30
0
10
166.552
20
-67.6086
30
0
10
166.603
20
-67.6222
30
0
0
SPLINE
8
0
6
BYBLOCK
62
0
5
28d8
100
AcDbEntity
100
AcDbSpline
70
0
71
1
72
17
73
15
74
0
40
3.14159
40
3.14159
40
3.36599
40
3.59039
40
3.81479
40
4.03919
40
4.26359
40
4.48799
40
4.71239
40
4.93679
40
5.16119
40
5.38559
40
5.60999
40
5.83439
40
6.05879
40
6.28319
40
6.28319
10
166.603
20
-67.6222
30
0
10
166.552
20
-67.6086
30
0
10
166.402
20
-67.5684
30
0
10
166.16
20
-67.5036
30
0
10
165.839
20
-67.4176
30
0
10
165.455
20
-67.3145
30
0
10
165.026
20
-67.1996
30
0
10
164.575
20
-67.0787
30
0
10
164.123
20
-66.9577
30
0
10
163.694
20
-66.8429
30
0
10
163.31
20
-66.7398
30
0
10
162.989
20
-66.6537
30
0
10
162.747
20
-66.589
30
0
10
162.597
20
-66.5488
30
0
10
162.546
20
-66.5352
30
0
0
SPLINE
8
0
6
BYBLOCK
62
0
5
28d9
100
AcDbEntity
100
AcDbSpline
70
0
71
1
72
17
73
15
74
0
40
0
40
0
40
0.224399
40
0.448799
40
0.673198
40
0.897598
40
1.122
40
1.3464
40
1.5708
40
1.7952
40
2.0196
40
2.24399
40
2.46839
40
2.69279
40
2.91719
40
3.14159
40
3.14159
10
145.015
20
-61.8376
30
0
10
145.081
20
-61.8554
30
0
10
145.278
20
-61.9081
30
0
10
145.594
20
-61.9929
30
0
10
146.015
20
-62.1056
30
0
10
146.518
20
-62.2405
30
0
10
147.08
20
-62.391
30
0
10
147.671
20
-62.5494
30
0
10
148.262
20
-62.7077
30
0
10
148.823
20
-62.8582
30
0
10
149.327
20
-62.9931
30
0
10
149.748
20
-63.1058
30
0
10
150.064
20
-63.1906
30
0
10
150.261
20
-63.2433
30
0
10
150.327
20
-63.2611
30
0
0
SPLINE
8
0
6
BYBLOCK
62
0
5
28da
100
AcDbEntity
100
AcDbSpline
70
0
71
1
72
17
73
15
74
0
40
3.14159
40
3.14159
40
3.36599
40
3.59039
40
3.81479
40
4.03919
40
4.26359
40
4.48799
40
4.71239
40
4.93679
40
5.16119
40
5.38559
40
5.60999
40
5.83439
40
6.05879
40
6.28319
40
6.28319
10
150.327
20
-63.2611
30
0
10
150.261
20
-63.2433
30
0
10
150.064
20
-63.1906
30
0
10
149.748
20
-63.1058
30
0
10
149.327
20
-62.9931
30
0
10
148.823
20
-62.8582
30
0
10
148.262
20
-62.7077
30
0
10
147.671
20
-62.5494
30
0
10
147.08
20
-62.391
30
0
10
146.518
20
-62.2405
30
0
10
146.015
20
-62.1056
30
0
10
145.594
20
-61.9929
30
0
10
145.278
20
-61.9081
30
0
10
145.081
20
-61.8554
30
0
10
145.015
20
-61.8376
30
0
0
SPLINE
8
0
6
BYBLOCK
62
0
5
28db
100
AcDbEntity
100
AcDbSpline
70
0
71
1
72
17
73
15
74
0
40
0
40
0
40
0.224399
40
0.448799
40
0.673198
40
0.897598
40
1.122
40
1.3464
40
1.5708
40
1.7952
40
2.0196
40
2.24399
40
2.46839
40
2.69279
40
2.91719
40
3.14159
40
3.14159
10
178.822
20
-70.8963
30
0
10
178.889
20
-70.9141
30
0
10
179.085
20
-70.9668
30
0
10
179.401
20
-71.0515
30
0
10
179.822
20
-71.1642
30
0
10
180.326
20
-71.2992
30
0
10
180.887
20
-71.4496
30
0
10
181.478
20
-71.608
30
0
10
182.069
20
-71.7664
30
0
10
182.631
20
-71.9168
30
0
10
183.134
20
-72.0518
30
0
10
183.555
20
-72.1645
30
0
10
183.871
20
-72.2493
30
0
10
184.068
20
-72.3019
30
0
10
184.135
20
-72.3198
30
0
0
SPLINE
8
0
6
BYBLOCK
62
0
5
28dc
100
AcDbEntity
100
AcDbSpline
70
0
71
1
72
17
73
15
74
0
40
3.14159
40
3.14159
40
3.36599
40
3.59039
40
3.81479
40
4.03919
40
4.26359
40
4.48799
40
4.71239
40
4.93679
40
5.16119
40
5.38559
40
5.60999
40
5.83439
40
6.05879
40
6.28319
40
6.28319
10
184.135
20
-72.3198
30
0
10
184.068
20
-72.3019
30
0
10
183.871
20
-72.2493
30
0
10
183.555
20
-72.1645
30
0
10
183.134
20
-72.0518
30
0
10
182.631
20
-71.9168
30
0
10
182.069
20
-71.7664
30
0
10
181.478
20
-71.608
30
0
10
180.887
20
-71.4496
30
0
10
180.326
20
-71.2992
30
0
10
179.822
20
-71.1642
30
0
10
179.401
20
-71.0515
30
0
10
179.085
20
-70.9668
30
0
10
178.889
20
-70.9141
30
0
10
178.822
20
-70.8963
30
0
0
LINE
8
0
6
BYBLOCK
62
0
5
28dd
100
AcDbEntity
100
AcDbLine
10
191.137
20
-74.1962
30
0
11
197.453
21
-50.6276
31
0
0
LINE
8
0
6
BYBLOCK
62
0
5
28de
100
AcDbEntity
100
AcDbLine
10
144.327
20
-36.3926
30
0
11
197.453
21
-50.6276
31
0
0
LINE
8
0
6
BYBLOCK
62
0
5
28df
100
AcDbEntity
100
AcDbLine
10
138.012
20
-59.9612
30
0
11
144.327
21
-36.3926
31
0
0
SPLINE
8
0
6
BYBLOCK
62
0
5
28e0
100
AcDbEntity
100
AcDbSpline
70
0
71
1
72
17
73
15
74
0
40
0
40
0
40
0.224399
40
0.448799
40
0.673198
40
0.897598
40
1.122
40
1.3464
40
1.5708
40
1.7952
40
2.0196
40
2.24399
40
2.46839
40
2.69279
40
2.91719
40
3.14159
40
3.14159
10
168.861
20
-42.9666
30
0
10
168.912
20
-42.9802
30
0
10
169.062
20
-43.0204
30
0
10
169.304
20
-43.0852
30
0
10
169.625
20
-43.1712
30
0
10
170.01
20
-43.2743
30
0
10
170.438
20
-43.3892
30
0
10
170.89
20
-43.5101
30
0
10
171.341
20
-43.631
30
0
10
171.77
20
-43.7459
30
0
10
172.154
20
-43.849
30
0
10
172.476
20
-43.935
30
0
10
172.717
20
-43.9998
30
0
10
172.867
20
-44.04
30
0
10
172.918
20
-44.0536
30
0
0
SPLINE
8
0
6
BYBLOCK
62
0
5
28e1
100
AcDbEntity
100
AcDbSpline
70
0
71
1
72
17
73
15
74
0
40
3.14159
40
3.14159
40
3.36599
40
3.59039
40
3.81479
40
4.03919
40
4.26359
40
4.48799
40
4.71239
40
4.93679
40
5.16119
40
5.38559
40
5.60999
40
5.83439
40
6.05879
40
6.28319
40
6.28319
10
172.918
20
-44.0536
30
0
10
172.867
20
-44.04
30
0
10
172.717
20
-43.9998
30
0
10
172.476
20
-43.935
30
0
10
172.154
20
-43.849
30
0
10
171.77
20
-43.7459
30
0
10
171.341
20
-43.631
30
0
10
170.89
20
-43.5101
30
0
10
170.438
20
-43.3892
30
0
10
170.01
20
-43.2743
30
0
10
169.625
20
-43.1712
30
0
10
169.304
20
-43.0852
30
0
10
169.062
20
-43.0204
30
0
10
168.912
20
-42.9802
30
0
10
168.861
20
-42.9666
30
0
0
LINE
8
0
6
BYBLOCK
62
0
5
28e2
100
AcDbEntity
100
AcDbLine
10
168.861
20
-42.9666
30
0
11
162.546
21
-66.5352
31
0
0
SPLINE
8
0
6
BYBLOCK
62
0
5
28e3
100
AcDbEntity
100
AcDbSpline
70
0
71
1
72
17
73
15
74
0
40
0
40
0
40
0.224399
40
0.448799
40
0.673198
40
0.897598
40
1.122
40
1.3464
40
1.5708
40
1.7952
40
2.0196
40
2.24399
40
2.46839
40
2.69279
40
2.91719
40
3.14159
40
3.14159
10
149.777
20
-44.0646
30
0
10
149.843
20
-44.0824
30
0
10
150.04
20
-44.135
30
0
10
150.356
20
-44.2198
30
0
10
150.777
20
-44.3325
30
0
10
151.281
20
-44.4675
30
0
10
151.842
20
-44.6179
30
0
10
152.433
20
-44.7763
30
0
10
153.024
20
-44.9347
30
0
10
153.586
20
-45.0851
30
0
10
154.089
20
-45.2201
30
0
10
154.51
20
-45.3328
30
0
10
154.826
20
-45.4176
30
0
10
155.023
20
-45.4702
30
0
10
155.089
20
-45.4881
30
0
0
SPLINE
8
0
6
BYBLOCK
62
0
5
28e4
100
AcDbEntity
100
AcDbSpline
70
0
71
1
72
17
73
15
74
0
40
3.14159
40
3.14159
40
3.36599
40
3.59039
40
3.81479
40
4.03919
40
4.26359
40
4.48799
40
4.71239
40
4.93679
40
5.16119
40
5.38559
40
5.60999
40
5.83439
40
6.05879
40
6.28319
40
6.28319
10
155.089
20
-45.4881
30
0
10
155.023
20
-45.4702
30
0
10
154.826
20
-45.4176
30
0
10
154.51
20
-45.3328
30
0
10
154.089
20
-45.2201
30
0
10
153.586
20
-45.0851
30
0
10
153.024
20
-44.9347
30
0
10
152.433
20
-44.7763
30
0
10
151.842
20
-44.6179
30
0
10
151.281
20
-44.4675
30
0
10
150.777
20
-44.3325
30
0
10
150.356
20
-44.2198
30
0
10
150.04
20
-44.135
30
0
10
149.843
20
-44.0824
30
0
10
149.777
20
-44.0646
30
0
0
LINE
8
0
6
BYBLOCK
62
0
5
28e5
100
AcDbEntity
100
AcDbLine
10
149.777
20
-44.0646
30
0
11
145.015
21
-61.8376
31
0
0
SPLINE
8
0
6
BYBLOCK
62
0
5
28e6
100
AcDbEntity
100
AcDbSpline
70
0
71
1
72
17
73
15
74
0
40
0
40
0
40
0.224399
40
0.448799
40
0.673198
40
0.897598
40
1.122
40
1.3464
40
1.5708
40
1.7952
40
2.0196
40
2.24399
40
2.46839
40
2.69279
40
2.91719
40
3.14159
40
3.14159
10
183.584
20
-53.1232
30
0
10
183.651
20
-53.1411
30
0
10
183.847
20
-53.1937
30
0
10
184.164
20
-53.2785
30
0
10
184.584
20
-53.3912
30
0
10
185.088
20
-53.5262
30
0
10
185.649
20
-53.6766
30
0
10
186.24
20
-53.835
30
0
10
186.832
20
-53.9934
30
0
10
187.393
20
-54.1438
30
0
10
187.897
20
-54.2788
30
0
10
188.317
20
-54.3915
30
0
10
188.634
20
-54.4762
30
0
10
188.83
20
-54.5289
30
0
10
188.897
20
-54.5467
30
0
0
SPLINE
8
0
6
BYBLOCK
62
0
5
28e7
100
AcDbEntity
100
AcDbSpline
70
0
71
1
72
17
73
15
74
0
40
3.14159
40
3.14159
40
3.36599
40
3.59039
40
3.81479
40
4.03919
40
4.26359
40
4.48799
40
4.71239
40
4.93679
40
5.16119
40
5.38559
40
5.60999
40
5.83439
40
6.05879
40
6.28319
40
6.28319
10
188.897
20
-54.5467
30
0
10
188.83
20
-54.5289
30
0
10
188.634
20
-54.4762
30
0
10
188.317
20
-54.3915
30
0
10
187.897
20
-54.2788
30
0
10
187.393
20
-54.1438
30
0
10
186.832
20
-53.9934
30
0
10
186.24
20
-53.835
30
0
10
185.649
20
-53.6766
30
0
10
185.088
20
-53.5262
30
0
10
184.584
20
-53.3912
30
0
10
184.164
20
-53.2785
30
0
10
183.847
20
-53.1937
30
0
10
183.651
20
-53.1411
30
0
10
183.584
20
-53.1232
30
0
0
LINE
8
0
6
BYBLOCK
62
0
5
28e8
100
AcDbEntity
100
AcDbLine
10
183.584
20
-53.1232
30
0
11
178.822
21
-70.8963
31
0
0
SPLINE
8
0
6
BYBLOCK
62
0
5
28e9
100
AcDbEntity
100
AcDbSpline
70
0
71
1
72
17
73
15
74
0
40
2.41358
40
2.41358
40
2.46558
40
2.51758
40
2.56958
40
2.62159
40
2.67359
40
2.72559
40
2.77759
40
2.82959
40
2.88159
40
2.93359
40
2.98559
40
3.03759
40
3.08959
40
3.14159
40
3.14159
10
192.468
20
-69.23
30
0
10
191.972
20
-69.23
30
0
10
191.506
20
-69.23
30
0
10
191.073
20
-69.23
30
0
10
190.674
20
-69.23
30
0
10
190.31
20
-69.23
30
0
10
189.981
20
-69.23
30
0
10
189.688
20
-69.23
30
0
10
189.433
20
-69.23
30
0
10
189.217
20
-69.23
30
0
10
189.038
20
-69.23
30
0
10
188.899
20
-69.23
30
0
10
188.799
20
-69.23
30
0
10
188.74
20
-69.23
30
0
10
188.72
20
-69.23
30
0
0
SPLINE
8
0
6
BYBLOCK
62
0
5
28ea
100
AcDbEntity
100
AcDbSpline
70
0
71
1
72
17
73
15
74
0
40
0
40
0
40
0.224399
40
0.448799
40
0.673198
40
0.897598
40
1.122
40
1.3464
40
1.5708
40
1.7952
40
2.0196
40
2.24399
40
2.46839
40
2.69279
40
2.91719
40
3.14159
40
3.14159
10
183.447
20
-46.8747
30
0
10
183.556
20
-46.9039
30
0
10
183.877
20
-46.9901
30
0
10
184.395
20
-47.1288
30
0
10
185.083
20
-47.3133
30
0
10
185.907
20
-47.5341
30
0
10
186.826
20
-47.7803
30
0
10
187.793
20
-48.0394
30
0
10
188.761
20
-48.2986
30
0
10
189.679
20
-48.5448
30
0
10
190.504
20
-48.7656
30
0
10
191.192
20
-48.95
30
0
10
191.71
20
-49.0888
30
0
10
192.031
20
-49.1749
30
0
10
192.14
20
-49.2041
30
0
0
SPLINE
8
0
6
BYBLOCK
62
0
5
28eb
100
AcDbEntity
100
AcDbSpline
70
0
71
1
72
17
73
15
74
0
40
3.14159
40
3.14159
40
3.36599
40
3.59039
40
3.81479
40
4.03919
40
4.26359
40
4.48799
40
4.71239
40
4.93679
40
5.16119
40
5.38559
40
5.60999
40
5.83439
40
6.05879
40
6.28319
40
6.28319
10
192.14
20
-49.2041
30
0
10
192.031
20
-49.1749
30
0
10
191.71
20
-49.0888
30
0
10
191.192
20
-48.95
30
0
10
190.504
20
-48.7656
30
0
10
189.679
20
-48.5448
30
0
10
188.761
20
-48.2986
30
0
10
187.793
20
-48.0394
30
0
10
186.826
20
-47.7803
30
0
10
185.907
20
-47.5341
30
0
10
185.083
20
-47.3133
30
0
10
184.395
20
-47.1288
30
0
10
183.877
20
-46.9901
30
0
10
183.556
20
-46.9039
30
0
10
183.447
20
-46.8747
30
0
0
SPLINE
8
0
6
BYBLOCK
62
0
5
28ec
100
AcDbEntity
100
AcDbSpline
70
0
71
1
72
17
73
15
74
0
40
0
40
0
40
0.224399
40
0.448799
40
0.673198
40
0.897598
40
1.122
40
1.3464
40
1.5708
40
1.7952
40
2.0196
40
2.24399
40
2.46839
40
2.69279
40
2.91719
40
3.14159
40
3.14159
10
149.639
20
-37.8161
30
0
10
149.748
20
-37.8453
30
0
10
150.07
20
-37.9314
30
0
10
150.588
20
-38.0702
30
0
10
151.276
20
-38.2546
30
0
10
152.1
20
-38.4754
30
0
10
153.019
20
-38.7216
30
0
10
153.986
20
-38.9808
30
0
10
154.953
20
-39.2399
30
0
10
155.872
20
-39.4861
30
0
10
156.696
20
-39.7069
30
0
10
157.384
20
-39.8913
30
0
10
157.902
20
-40.0301
30
0
10
158.224
20
-40.1162
30
0
10
158.333
20
-40.1454
30
0
0
SPLINE
8
0
6
BYBLOCK
62
0
5
28ed
100
AcDbEntity
100
AcDbSpline
70
0
71
1
72
17
73
15
74
0
40
3.14159
40
3.14159
40
3.36599
40
3.59039
40
3.81479
40
4.03919
40
4.26359
40
4.48799
40
4.71239
40
4.93679
40
5.16119
40
5.38559
40
5.60999
40
5.83439
40
6.05879
40
6.28319
40
6.28319
10
158.333
20
-40.1454
30
0
10
158.224
20
-40.1162
30
0
10
157.902
20
-40.0301
30
0
10
157.384
20
-39.8913
30
0
10
156.696
20
-39.7069
30
0
10
155.872
20
-39.4861
30
0
10
154.953
20
-39.2399
30
0
10
153.986
20
-38.9808
30
0
10
153.019
20
-38.7216
30
0
10
152.1
20
-38.4754
30
0
10
151.276
20
-38.2546
30
0
10
150.588
20
-38.0702
30
0
10
150.07
20
-37.9314
30
0
10
149.748
20
-37.8453
30
0
10
149.639
20
-37.8161
30
0
0
SPLINE
8
0
6
BYBLOCK
62
0
5
28ee
100
AcDbEntity
100
AcDbSpline
70
0
71
1
72
17
73
15
74
0
40
0
40
0
40
0.108541
40
0.217081
40
0.325622
40
0.434162
40
0.542703
40
0.651243
40
0.759784
40
0.868324
40
0.976865
40
1.08541
40
1.19395
40
1.30249
40
1.41103
40
1.51957
40
1.51957
10
153.577
20
-54.23
30
0
10
153.49
20
-54.23
30
0
10
153.23
20
-54.23
30
0
10
152.8
20
-54.23
30
0
10
152.206
20
-54.23
30
0
10
151.453
20
-54.23
30
0
10
150.551
20
-54.23
30
0
10
149.511
20
-54.23
30
0
10
148.344
20
-54.23
30
0
10
147.065
20
-54.23
30
0
10
145.689
20
-54.23
30
0
10
144.232
20
-54.23
30
0
10
142.71
20
-54.23
30
0
10
141.143
20
-54.23
30
0
10
139.547
20
-54.23
30
0
0
SPLINE
8
0
6
BYBLOCK
62
0
5
28ef
100
AcDbEntity
100
AcDbSpline
70
0
71
1
72
17
73
15
74
0
40
0
40
0
40
0.224399
40
0.448799
40
0.673198
40
0.897598
40
1.122
40
1.3464
40
1.5708
40
1.7952
40
2.0196
40
2.24399
40
2.46839
40
2.69279
40
2.91719
40
3.14159
40
3.14159
10
148.086
20
-43.6116
30
0
10
148.195
20
-43.6408
30
0
10
148.517
20
-43.727
30
0
10
149.035
20
-43.8657
30
0
10
149.723
20
-44.0501
30
0
10
150.547
20
-44.271
30
0
10
151.466
20
-44.5171
30
0
10
152.433
20
-44.7763
30
0
10
153.4
20
-45.0355
30
0
10
154.319
20
-45.2817
30
0
10
155.143
20
-45.5025
30
0
10
155.831
20
-45.6869
30
0
10
156.349
20
-45.8257
30
0
10
156.671
20
-45.9118
30
0
10
156.78
20
-45.941
30
0
0
SPLINE
8
0
6
BYBLOCK
62
0
5
28f0
100
AcDbEntity
100
AcDbSpline
70
0
71
1
72
17
73
15
74
0
40
3.14159
40
3.14159
40
3.36599
40
3.59039
40
3.81479
40
4.03919
40
4.26359
40
4.48799
40
4.71239
40
4.93679
40
5.16119
40
5.38559
40
5.60999
40
5.83439
40
6.05879
40
6.28319
40
6.28319
10
156.78
20
-45.941
30
0
10
156.671
20
-45.9118
30
0
10
156.349
20
-45.8257
30
0
10
155.831
20
-45.6869
30
0
10
155.143
20
-45.5025
30
0
10
154.319
20
-45.2817
30
0
10
153.4
20
-45.0355
30
0
10
152.433
20
-44.7763
30
0
10
151.466
20
-44.5171
30
0
10
150.547
20
-44.271
30
0
10
149.723
20
-44.0501
30
0
10
149.035
20
-43.8657
30
0
10
148.517
20
-43.727
30
0
10
148.195
20
-43.6408
30
0
10
148.086
20
-43.6116
30
0
0
SPLINE
8
0
6
BYBLOCK
62
0
5
28f1
100
AcDbEntity
100
AcDbSpline
70
0
71
1
72
17
73
15
74
0
40
0
40
0
40
0.224399
40
0.448799
40
0.673198
40
0.897598
40
1.122
40
1.3464
40
1.5708
40
1.7952
40
2.0196
40
2.24399
40
2.46839
40
2.69279
40
2.91719
40
3.14159
40
3.14159
10
181.894
20
-52.6703
30
0
10
182.003
20
-52.6995
30
0
10
182.324
20
-52.7856
30
0
10
182.842
20
-52.9244
30
0
10
183.53
20
-53.1088
30
0
10
184.355
20
-53.3296
30
0
10
185.273
20
-53.5758
30
0
10
186.24
20
-53.835
30
0
10
187.208
20
-54.0942
30
0
10
188.126
20
-54.3403
30
0
10
188.951
20
-54.5612
30
0
10
189.639
20
-54.7456
30
0
10
190.157
20
-54.8843
30
0
10
190.478
20
-54.9705
30
0
10
190.587
20
-54.9997
30
0
0
SPLINE
8
0
6
BYBLOCK
62
0
5
28f2
100
AcDbEntity
100
AcDbSpline
70
0
71
1
72
17
73
15
74
0
40
3.14159
40
3.14159
40
3.36599
40
3.59039
40
3.81479
40
4.03919
40
4.26359
40
4.48799
40
4.71239
40
4.93679
40
5.16119
40
5.38559
40
5.60999
40
5.83439
40
6.05879
40
6.28319
40
6.28319
10
190.587
20
-54.9997
30
0
10
190.478
20
-54.9705
30
0
10
190.157
20
-54.8843
30
0
10
189.639
20
-54.7456
30
0
10
188.951
20
-54.5612
30
0
10
188.126
20
-54.3403
30
0
10
187.208
20
-54.0942
30
0
10
186.24
20
-53.835
30
0
10
185.273
20
-53.5758
30
0
10
184.355
20
-53.3296
30
0
10
183.53
20
-53.1088
30
0
10
182.842
20
-52.9244
30
0
10
182.324
20
-52.7856
30
0
10
182.003
20
-52.6995
30
0
10
181.894
20
-52.6703
30
0
0
LINE
8
0
6
BYBLOCK
62
0
5
28f3
100
AcDbEntity
100
AcDbLine
10
183.447
20
-46.8747
30
0
11
181.894
21
-52.6703
31
0
0
LINE
8
0
6
BYBLOCK
62
0
5
28f4
100
AcDbEntity
100
AcDbLine
10
149.639
20
-37.8161
30
0
11
148.086
21
-43.6116
31
0
0
LINE
8
0
6
BYBLOCK
62
0
5
28f5
100
AcDbEntity
100
AcDbLine
10
133.79
20
-84.23
30
0
11
133.79
21
-58.83
31
0
0
LINE
8
0
6
BYBLOCK
62
0
5
28f6
100
AcDbEntity
100
AcDbLine
10
133.79
20
-58.83
30
0
11
195.994
21
-75.4974
31
0
0
LINE
8
0
6
BYBLOCK
62
0
5
28f7
100
AcDbEntity
100
AcDbLine
10
195.994
20
-75.4974
30
0
11
195.994
21
-84.23
31
0
0
LINE
8
0
6
BYBLOCK
62
0
5
28f8
100
AcDbEntity
100
AcDbLine
10
195.994
20
-84.23
30
0
11
133.79
21
-84.23
31
0
0
SPLINE
8
0
6
BYBLOCK
62
0
5
28f9
100
AcDbEntity
100
AcDbSpline
70
0
71
1
72
17
73
15
74
0
40
0
40
0
40
0.224399
40
0.448799
40
0.673198
40
0.897598
40
1.122
40
1.3464
40
1.5708
40
1.7952
40
2.0196
40
2.24399
40
2.46839
40
2.69279
40
2.91719
40
3.14159
40
3.14159
10
179.45
20
-71.0645
30
0
10
179.501
20
-71.0781
30
0
10
179.651
20
-71.1183
30
0
10
179.892
20
-71.1831
30
0
10
180.213
20
-71.2691
30
0
10
180.598
20
-71.3722
30
0
10
181.027
20
-71.4871
30
0
10
181.478
20
-71.608
30
0
10
181.93
20
-71.729
30
0
10
182.358
20
-71.8438
30
0
10
182.743
20
-71.9469
30
0
10
183.064
20
-72.033
30
0
10
183.306
20
-72.0977
30
0
10
183.456
20
-72.1379
30
0
10
183.507
20
-72.1515
30
0
0
SPLINE
8
0
6
BYBLOCK
62
0
5
28fa
100
AcDbEntity
100
AcDbSpline
70
0
71
1
72
17
73
15
74
0
40
3.14159
40
3.14159
40
3.36599
40
3.59039
40
3.81479
40
4.03919
40
4.26359
40
4.48799
40
4.71239
40
4.93679
40
5.16119
40
5.38559
40
5.60999
40
5.83439
40
6.05879
40
6.28319
40
6.28319
10
183.507
20
-72.1515
30
0
10
183.456
20
-72.1379
30
0
10
183.306
20
-72.0977
30
0
10
183.064
20
-72.033
30
0
10
182.743
20
-71.9469
30
0
10
182.358
20
-71.8438
30
0
10
181.93
20
-71.729
30
0
10
181.478
20
-71.608
30
0
10
181.027
20
-71.4871
30
0
10
180.598
20
-71.3722
30
0
10
180.213
20
-71.2691
30
0
10
179.892
20
-71.1831
30
0
10
179.651
20
-71.1183
30
0
10
179.501
20
-71.0781
30
0
10
179.45
20
-71.0645
30
0
0
SPLINE
8
0
6
BYBLOCK
62
0
5
28fb
100
AcDbEntity
100
AcDbSpline
70
0
71
1
72
17
73
15
74
0
40
0
40
0
40
0.224399
40
0.448799
40
0.673198
40
0.897598
40
1.122
40
1.3464
40
1.5708
40
1.7952
40
2.0196
40
2.24399
40
2.46839
40
2.69279
40
2.91719
40
3.14159
40
3.14159
10
145.642
20
-62.0058
30
0
10
145.693
20
-62.0195
30
0
10
145.843
20
-62.0597
30
0
10
146.085
20
-62.1244
30
0
10
146.406
20
-62.2105
30
0
10
146.791
20
-62.3135
30
0
10
147.219
20
-62.4284
30
0
10
147.671
20
-62.5494
30
0
10
148.122
20
-62.6703
30
0
10
148.551
20
-62.7852
30
0
10
148.936
20
-62.8882
30
0
10
149.257
20
-62.9743
30
0
10
149.498
20
-63.039
30
0
10
149.648
20
-63.0792
30
0
10
149.699
20
-63.0929
30
0
0
SPLINE
8
0
6
BYBLOCK
62
0
5
28fc
100
AcDbEntity
100
AcDbSpline
70
0
71
1
72
17
73
15
74
0
40
3.14159
40
3.14159
40
3.36599
40
3.59039
40
3.81479
40
4.03919
40
4.26359
40
4.48799
40
4.71239
40
4.93679
40
5.16119
40
5.38559
40
5.60999
40
5.83439
40
6.05879
40
6.28319
40
6.28319
10
149.699
20
-63.0929
30
0
10
149.648
20
-63.0792
30
0
10
149.498
20
-63.039
30
0
10
149.257
20
-62.9743
30
0
10
148.936
20
-62.8882
30
0
10
148.551
20
-62.7852
30
0
10
148.122
20
-62.6703
30
0
10
147.671
20
-62.5494
30
0
10
147.219
20
-62.4284
30
0
10
146.791
20
-62.3135
30
0
10
146.406
20
-62.2105
30
0
10
146.085
20
-62.1244
30
0
10
145.843
20
-62.0597
30
0
10
145.693
20
-62.0195
30
0
10
145.642
20
-62.0058
30
0
0
SPLINE
8
0
6
BYBLOCK
62
0
5
28fd
100
AcDbEntity
100
AcDbSpline
70
0
71
1
72
17
73
15
74
0
40
3.14159
40
3.14159
40
3.36599
40
3.59039
40
3.81479
40
4.03919
40
4.26359
40
4.48799
40
4.71239
40
4.93679
40
5.16119
40
5.38559
40
5.60999
40
5.83439
40
6.05879
40
6.28319
40
6.28319
10
139.687
20
-84.23
30
0
10
139.742
20
-84.23
30
0
10
139.903
20
-84.23
30
0
10
140.162
20
-84.23
30
0
10
140.506
20
-84.23
30
0
10
140.918
20
-84.23
30
0
10
141.378
20
-84.23
30
0
10
141.861
20
-84.23
30
0
10
142.345
20
-84.23
30
0
10
142.805
20
-84.23
30
0
10
143.217
20
-84.23
30
0
10
143.561
20
-84.23
30
0
10
143.82
20
-84.23
30
0
10
143.981
20
-84.23
30
0
10
144.036
20
-84.23
30
0
0
SPLINE
8
0
6
BYBLOCK
62
0
5
28fe
100
AcDbEntity
100
AcDbSpline
70
0
71
1
72
17
73
15
74
0
40
6.28319
40
6.28319
40
6.50758
40
6.73198
40
6.95638
40
7.18078
40
7.40518
40
7.62958
40
7.85398
40
8.07838
40
8.30278
40
8.52718
40
8.75158
40
8.97598
40
9.20038
40
9.42478
40
9.42478
10
144.036
20
-84.23
30
0
10
143.981
20
-84.23
30
0
10
143.82
20
-84.23
30
0
10
143.561
20
-84.23
30
0
10
143.217
20
-84.23
30
0
10
142.805
20
-84.23
30
0
10
142.345
20
-84.23
30
0
10
141.861
20
-84.23
30
0
10
141.378
20
-84.23
30
0
10
140.918
20
-84.23
30
0
10
140.506
20
-84.23
30
0
10
140.162
20
-84.23
30
0
10
139.903
20
-84.23
30
0
10
139.742
20
-84.23
30
0
10
139.687
20
-84.23
30
0
0
SPLINE
8
0
6
BYBLOCK
62
0
5
28ff
100
AcDbEntity
100
AcDbSpline
70
0
71
1
72
17
73
15
74
0
40
3.14159
40
3.14159
40
3.36599
40
3.59039
40
3.81479
40
4.03919
40
4.26359
40
4.48799
40
4.71239
40
4.93679
40
5.16119
40
5.38559
40
5.60999
40
5.83439
40
6.05879
40
6.28319
40
6.28319
10
175.922
20
-84.23
30
0
10
175.977
20
-84.23
30
0
10
176.137
20
-84.23
30
0
10
176.396
20
-84.23
30
0
10
176.741
20
-84.23
30
0
10
177.153
20
-84.23
30
0
10
177.612
20
-84.23
30
0
10
178.096
20
-84.23
30
0
10
178.58
20
-84.23
30
0
10
179.039
20
-84.23
30
0
10
179.452
20
-84.23
30
0
10
179.796
20
-84.23
30
0
10
180.055
20
-84.23
30
0
10
180.216
20
-84.23
30
0
10
180.27
20
-84.23
30
0
0
SPLINE
8
0
6
BYBLOCK
62
0
5
2900
100
AcDbEntity
100
AcDbSpline
70
0
71
1
72
17
73
15
74
0
40
6.28319
40
6.28319
40
6.50758
40
6.73198
40
6.95638
40
7.18078
40
7.40518
40
7.62958
40
7.85398
40
8.07838
40
8.30278
40
8.52718
40
8.75158
40
8.97598
40
9.20038
40
9.42478
40
9.42478
10
180.27
20
-84.23
30
0
10
180.216
20
-84.23
30
0
10
180.055
20
-84.23
30
0
10
179.796
20
-84.23
30
0
10
179.452
20
-84.23
30
0
10
179.039
20
-84.23
30
0
10
178.58
20
-84.23
30
0
10
178.096
20
-84.23
30
0
10
177.612
20
-84.23
30
0
10
177.153
20
-84.23
30
0
10
176.741
20
-84.23
30
0
10
176.396
20
-84.23
30
0
10
176.137
20
-84.23
30
0
10
175.977
20
-84.23
30
0
10
175.922
20
-84.23
30
0
0
LINE
8
0
6
BYBLOCK
62
0
5
2901
100
AcDbEntity
100
AcDbLine
10
179.45
20
-71.0645
30
0
11
175.922
21
-84.23
31
0
0
LINE
8
0
6
BYBLOCK
62
0
5
2902
100
AcDbEntity
100
AcDbLine
10
145.642
20
-62.0058
30
0
11
139.687
21
-84.23
31
0
0
LINE
8
0
6
BYBLOCK
62
0
5
2903
100
AcDbEntity
100
AcDbLine
10
168.751
20
-40.8665
30
0
11
173.513
21
-23.0935
31
0
0
LINE
8
0
6
BYBLOCK
62
0
5
2904
100
AcDbEntity
100
AcDbLine
10
171.823
20
-22.6405
30
0
11
173.376
21
-16.845
31
0
0
LINE
8
0
6
BYBLOCK
62
0
5
2905
100
AcDbEntity
100
AcDbLine
10
166.603
20
-67.6222
30
0
11
172.918
21
-44.0536
31
0
0
LINE
8
0
6
BYBLOCK
62
0
5
2906
100
AcDbEntity
100
AcDbLine
10
150.327
20
-63.2611
30
0
11
155.089
21
-45.4881
31
0
0
LINE
8
0
6
BYBLOCK
62
0
5
2907
100
AcDbEntity
100
AcDbLine
10
184.135
20
-72.3198
30
0
11
188.897
21
-54.5467
31
0
0
LINE
8
0
6
BYBLOCK
62
0
5
2908
100
AcDbEntity
100
AcDbLine
10
190.587
20
-54.9997
30
0
11
192.14
21
-49.2041
31
0
0
LINE
8
0
6
BYBLOCK
62
0
5
2909
100
AcDbEntity
100
AcDbLine
10
156.78
20
-45.941
30
0
11
158.333
21
-40.1454
31
0
0
LINE
8
0
6
BYBLOCK
62
0
5
290a
100
AcDbEntity
100
AcDbLine
10
180.27
20
-84.23
30
0
11
183.507
21
-72.1515
31
0
0
LINE
8
0
6
BYBLOCK
62
0
5
290b
100
AcDbEntity
100
AcDbLine
10
144.036
20
-84.23
30
0
11
149.699
21
-63.0929
31
0
0
ENDBLK
5
290c
100
AcDbEntity
8
0
100
AcDbBlockEnd
0
ENDSEC
0
SECTION
2
ENTITIES
0
LWPOLYLINE
5
4B
100
AcDbEntity
8
BORDER
6
ByLayer
62
7
370
-1
100
AcDbPolyline
90
5
70
0
43
0
10
10
20
-287
10
410
20
-287
10
410
20
-10
10
10
20
-10
10
10
20
-287
0
LWPOLYLINE
5
4C
100
AcDbEntity
8
BORDER
6
ByLayer
62
7
370
-1
100
AcDbPolyline
90
2
70
0
43
0
10
210
20
-10
10
210
20
0
0
LWPOLYLINE
5
4D
100
AcDbEntity
8
BORDER
6
ByLayer
62
7
370
-1
100
AcDbPolyline
90
2
70
0
43
0
10
210
20
-287
10
210
20
-297
0
LWPOLYLINE
5
4E
100
AcDbEntity
8
BORDER
6
ByLayer
62
7
370
-1
100
AcDbPolyline
90
2
70
0
43
0
10
10
20
-148.5
10
0
20
-148.5
0
LWPOLYLINE
5
4F
100
AcDbEntity
8
BORDER
6
ByLayer
62
7
370
-1
100
AcDbPolyline
90
2
70
0
43
0
10
410
20
-148.5
10
420
20
-148.5
0
LWPOLYLINE
5
50
100
AcDbEntity
8
BORDER
6
ByLayer
62
7
370
-1
100
AcDbPolyline
90
2
70
0
43
0
10
367.5
20
-287
10
367.5
20
-294.5
0
LWPOLYLINE
5
51
100
AcDbEntity
8
BORDER
6
ByLayer
62
7
370
-1
100
AcDbPolyline
90
2
70
0
43
0
10
52.5
20
-287
10
52.5
20
-294.5
0
LWPOLYLINE
5
52
100
AcDbEntity
8
BORDER
6
ByLayer
62
7
370
-1
100
AcDbPolyline
90
2
70
0
43
0
10
315
20
-287
10
315
20
-294.5
0
LWPOLYLINE
5
53
100
AcDbEntity
8
BORDER
6
ByLayer
62
7
370
-1
100
AcDbPolyline
90
2
70
0
43
0
10
105
20
-287
10
105
20
-294.5
0
LWPOLYLINE
5
54
100
AcDbEntity
8
BORDER
6
ByLayer
62
7
370
-1
100
AcDbPolyline
90
2
70
0
43
0
10
262.5
20
-10
10
262.5
20
-2.5
0
LWPOLYLINE
5
55
100
AcDbEntity
8
BORDER
6
ByLayer
62
7
370
-1
100
AcDbPolyline
90
2
70
0
43
0
10
157.5
20
-10
10
157.5
20
-2.5
0
LWPOLYLINE
5
56
100
AcDbEntity
8
BORDER
6
ByLayer
62
7
370
-1
100
AcDbPolyline
90
2
70
0
43
0
10
315
20
-10
10
315
20
-2.5
0
LWPOLYLINE
5
57
100
AcDbEntity
8
BORDER
6
ByLayer
62
7
370
-1
100
AcDbPolyline
90
2
70
0
43
0
10
105
20
-10
10
105
20
-2.5
0
LWPOLYLINE
5
58
100
AcDbEntity
8
BORDER
6
ByLayer
62
7
370
-1
100
AcDbPolyline
90
2
70
0
43
0
10
367.5
20
-10
10
367.5
20
-2.5
0
LWPOLYLINE
5
59
100
AcDbEntity
8
BORDER
6
ByLayer
62
7
370
-1
100
AcDbPolyline
90
2
70
0
43
0
10
52.5
20
-10
10
52.5
20
-2.5
0
LWPOLYLINE
5
5A
100
AcDbEntity
8
BORDER
6
ByLayer
62
7
370
-1
100
AcDbPolyline
90
2
70
0
43
0
10
10
20
-74.3
10
2.5
20
-74.3
0
LWPOLYLINE
5
5B
100
AcDbEntity
8
BORDER
6
ByLayer
62
7
370
-1
100
AcDbPolyline
90
2
70
0
43
0
10
10
20
-222.7
10
2.5
20
-222.7
0
LWPOLYLINE
5
5C
100
AcDbEntity
8
BORDER
6
ByLayer
62
7
370
-1
100
AcDbPolyline
90
2
70
0
43
0
10
410
20
-74.3
10
417.5
20
-74.3
0
LWPOLYLINE
5
5D
100
AcDbEntity
8
BORDER
6
ByLayer
62
7
370
-1
100
AcDbPolyline
90
2
70
0
43
0
10
410
20
-222.7
10
417.5
20
-222.7
0
LWPOLYLINE
5
5E
100
AcDbEntity
8
BORDER
6
ByLayer
62
7
370
-1
100
AcDbPolyline
90
2
70
0
43
0
10
110
20
-289.5
10
310
20
-289.5
0
LWPOLYLINE
5
5F
100
AcDbEntity
8
BORDER
6
ByLayer
62
7
370
-1
100
AcDbPolyline
90
2
70
0
43
0
10
160
20
-287
10
160
20
-292
0
LWPOLYLINE
5
60
100
AcDbEntity
8
BORDER
6
ByLayer
62
7
370
-1
100
AcDbPolyline
90
2
70
0
43
0
10
260
20
-287
10
260
20
-292
0
LWPOLYLINE
5
61
100
AcDbEntity
8
BORDER
6
ByLayer
62
7
370
-1
100
AcDbPolyline
90
2
70
0
43
0
10
170
20
-287
10
170
20
-289.5
0
LWPOLYLINE
5
62
100
AcDbEntity
8
BORDER
6
ByLayer
62
7
370
-1
100
AcDbPolyline
90
2
70
0
43
0
10
250
20
-287
10
250
20
-289.5
0
LWPOLYLINE
5
63
100
AcDbEntity
8
BORDER
6
ByLayer
62
7
370
-1
100
AcDbPolyline
90
2
70
0
43
0
10
180
20
-287
10
180
20
-289.5
0
LWPOLYLINE
5
64
100
AcDbEntity
8
BORDER
6
ByLayer
62
7
370
-1
100
AcDbPolyline
90
2
70
0
43
0
10
240
20
-287
10
240
20
-289.5
0
LWPOLYLINE
5
65
100
AcDbEntity
8
BORDER
6
ByLayer
62
7
370
-1
100
AcDbPolyline
90
2
70
0
43
0
10
190
20
-287
10
190
20
-289.5
0
LWPOLYLINE
5
66
100
AcDbEntity
8
BORDER
6
ByLayer
62
7
370
-1
100
AcDbPolyline
90
2
70
0
43
0
10
230
20
-287
10
230
20
-289.5
0
LWPOLYLINE
5
67
100
AcDbEntity
8
BORDER
6
ByLayer
62
7
370
-1
100
AcDbPolyline
90
2
70
0
43
0
10
200
20
-287
10
200
20
-289.5
0
LWPOLYLINE
5
68
100
AcDbEntity
8
BORDER
6
ByLayer
62
7
370
-1
100
AcDbPolyline
90
2
70
0
43
0
10
220
20
-287
10
220
20
-289.5
0
LWPOLYLINE
5
69
100
AcDbEntity
8
BORDER
6
ByLayer
62
7
370
-1
100
AcDbPolyline
90
2
70
0
43
0
10
110
20
-287
10
110
20
-292
0
LWPOLYLINE
5
6A
100
AcDbEntity
8
BORDER
6
ByLayer
62
7
370
-1
100
AcDbPolyline
90
2
70
0
43
0
10
310
20
-287
10
310
20
-292
0
LWPOLYLINE
5
6B
100
AcDbEntity
8
BORDER
6
ByLayer
62
7
370
-1
100
AcDbPolyline
90
2
70
0
43
0
10
120
20
-287
10
120
20
-289.5
0
LWPOLYLINE
5
6C
100
AcDbEntity
8
BORDER
6
ByLayer
62
7
370
-1
100
AcDbPolyline
90
2
70
0
43
0
10
300
20
-287
10
300
20
-289.5
0
LWPOLYLINE
5
6D
100
AcDbEntity
8
BORDER
6
ByLayer
62
7
370
-1
100
AcDbPolyline
90
2
70
0
43
0
10
130
20
-287
10
130
20
-289.5
0
LWPOLYLINE
5
6E
100
AcDbEntity
8
BORDER
6
ByLayer
62
7
370
-1
100
AcDbPolyline
90
2
70
0
43
0
10
290
20
-287
10
290
20
-289.5
0
LWPOLYLINE
5
6F
100
AcDbEntity
8
BORDER
6
ByLayer
62
7
370
-1
100
AcDbPolyline
90
2
70
0
43
0
10
140
20
-287
10
140
20
-289.5
0
LWPOLYLINE
5
70
100
AcDbEntity
8
BORDER
6
ByLayer
62
7
370
-1
100
AcDbPolyline
90
2
70
0
43
0
10
280
20
-287
10
280
20
-289.5
0
LWPOLYLINE
5
71
100
AcDbEntity
8
BORDER
6
ByLayer
62
7
370
-1
100
AcDbPolyline
90
2
70
0
43
0
10
150
20
-287
10
150
20
-289.5
0
LWPOLYLINE
5
72
100
AcDbEntity
8
BORDER
6
ByLayer
62
7
370
-1
100
AcDbPolyline
90
2
70
0
43
0
10
270
20
-287
10
270
20
-289.5
0
LWPOLYLINE
5
73
100
AcDbEntity
8
TITLEBLOCK
6
ByLayer
62
7
370
-1
100
AcDbPolyline
90
2
70
0
43
0
10
220
20
-287
10
410
20
-287
0
LWPOLYLINE
5
74
100
AcDbEntity
8
TITLEBLOCK
6
ByLayer
62
7
370
-1
100
AcDbPolyline
90
4
70
0
43
0
10
220
20
-287
10
220
20
-227
10
410
20
-227
10
410
20
-287
0
LWPOLYLINE
5
75
100
AcDbEntity
8
TITLEBLOCK
6
ByLayer
62
7
370
-1
100
AcDbPolyline
90
2
70
0
43
0
10
220
20
-283
10
385
20
-283
0
LWPOLYLINE
5
76
100
AcDbEntity
8
TITLEBLOCK
6
ByLayer
62
7
370
-1
100
AcDbPolyline
90
2
70
0
43
0
10
220
20
-270
10
385
20
-270
0
LWPOLYLINE
5
77
100
AcDbEntity
8
TITLEBLOCK
6
ByLayer
62
7
370
-1
100
AcDbPolyline
90
2
70
0
43
0
10
220
20
-257
10
385
20
-257
0
LWPOLYLINE
5
78
100
AcDbEntity
8
TITLEBLOCK
6
ByLayer
62
7
370
-1
100
AcDbPolyline
90
2
70
0
43
0
10
220
20
-242
10
265
20
-242
0
LWPOLYLINE
5
79
100
AcDbEntity
8
TITLEBLOCK
6
ByLayer
62
7
370
-1
100
AcDbPolyline
90
2
70
0
43
0
10
385
20
-280.333
10
410
20
-280.333
0
LWPOLYLINE
5
7A
100
AcDbEntity
8
TITLEBLOCK
6
ByLayer
62
7
370
-1
100
AcDbPolyline
90
2
70
0
43
0
10
385
20
-273.667
10
410
20
-273.667
0
LWPOLYLINE
5
7B
100
AcDbEntity
8
TITLEBLOCK
6
ByLayer
62
7
370
-1
100
AcDbPolyline
90
2
70
0
43
0
10
385
20
-267
10
410
20
-267
0
LWPOLYLINE
5
7C
100
AcDbEntity
8
TITLEBLOCK
6
ByLayer
62
7
370
-1
100
AcDbPolyline
90
2
70
0
43
0
10
385
20
-260.333
10
410
20
-260.333
0
LWPOLYLINE
5
7D
100
AcDbEntity
8
TITLEBLOCK
6
ByLayer
62
7
370
-1
100
AcDbPolyline
90
2
70
0
43
0
10
385
20
-253.667
10
410
20
-253.667
0
LWPOLYLINE
5
7E
100
AcDbEntity
8
TITLEBLOCK
6
ByLayer
62
7
370
-1
100
AcDbPolyline
90
2
70
0
43
0
10
385
20
-247
10
410
20
-247
0
LWPOLYLINE
5
7F
100
AcDbEntity
8
TITLEBLOCK
6
ByLayer
62
7
370
-1
100
AcDbPolyline
90
2
70
0
43
0
10
385
20
-240.333
10
410
20
-240.333
0
LWPOLYLINE
5
80
100
AcDbEntity
8
TITLEBLOCK
6
ByLayer
62
7
370
-1
100
AcDbPolyline
90
2
70
0
43
0
10
385
20
-233.667
10
410
20
-233.667
0
LWPOLYLINE
5
81
100
AcDbEntity
8
TITLEBLOCK
6
ByLayer
62
7
370
-1
100
AcDbPolyline
90
2
70
0
43
0
10
240
20
-283
10
240
20
-257
0
LWPOLYLINE
5
82
100
AcDbEntity
8
TITLEBLOCK
6
ByLayer
62
7
370
-1
100
AcDbPolyline
90
2
70
0
43
0
10
265
20
-283
10
265
20
-227
0
LWPOLYLINE
5
83
100
AcDbEntity
8
TITLEBLOCK
6
ByLayer
62
7
370
-1
100
AcDbPolyline
90
2
70
0
43
0
10
365
20
-283
10
365
20
-270
0
LWPOLYLINE
5
84
100
AcDbEntity
8
TITLEBLOCK
6
ByLayer
62
7
370
-1
100
AcDbPolyline
90
2
70
0
43
0
10
385
20
-287
10
385
20
-227
0
LWPOLYLINE
5
85
100
AcDbEntity
8
TITLEBLOCK
6
ByLayer
62
7
370
-1
100
AcDbPolyline
90
2
70
0
43
0
10
390
20
-287
10
390
20
-227
0
LWPOLYLINE
5
86
100
AcDbEntity
8
TITLEBLOCK
6
ByLayer
62
7
370
-1
100
AcDbPolyline
90
2
70
0
43
0
10
242
20
-263.5
10
263
20
-263.5
0
LWPOLYLINE
5
87
100
AcDbEntity
8
TITLEBLOCK
6
ByLayer
62
7
370
-1
100
AcDbPolyline
90
2
70
0
43
0
10
257.5
20
-269
10
257.5
20
-258
0
LWPOLYLINE
5
88
100
AcDbEntity
8
TITLEBLOCK
6
ByLayer
62
7
370
-1
100
AcDbPolyline
90
5
70
0
43
0
10
243.5
20
-265.5
10
243.5
20
-261.5
10
251.5
20
-259.5
10
251.5
20
-267.5
10
243.5
20
-265.5
0
LWPOLYLINE
5
89
100
AcDbEntity
8
LOGO
6
ByLayer
62
1
370
-1
100
AcDbPolyline
90
12
70
1
43
0
10
371.93153
20
-258.0226
10
371.93153
20
-268.002176
10
374.156706
20
-268.002176
10
374.156706
20
-264.09688
10
375.730062
20
-264.09688
10
375.730062
20
-262.557238
10
374.156706
20
-262.557238
10
374.156706
20
-260.895436
10
378.032582
20
-260.895436
10
378.032582
20
-258.028219
10
371.93153
20
-258.0226
10
371.93153
20
-258.0226
0
LWPOLYLINE
5
8A
100
AcDbEntity
8
LOGO
6
ByLayer
62
5
370
-1
100
AcDbPolyline
90
34
70
1
43
0
10
381.836611
20
-260.996837
10
380.542276
20
-261.739442
10
379.970709
20
-261.541092
10
379.425386
20
-260.147418
10
378.567563
20
-260.192497
10
378.176288
20
-261.633643
10
377.628676
20
-261.895883
10
376.262838
20
-261.2984
10
375.685945
20
-261.939464
10
376.428552
20
-263.233799
10
376.225619
20
-263.803691
10
374.831944
20
-264.349015
10
374.881604
20
-265.20851
10
376.322752
20
-265.599785
10
376.584992
20
-266.147396
10
375.982928
20
-267.511562
10
376.623991
20
-268.088454
10
377.918324
20
-267.34585
10
378.492801
20
-267.550455
10
379.033543
20
-268.942456
10
379.897619
20
-268.894467
10
380.284312
20
-267.451648
10
380.831925
20
-267.189408
10
382.20067
20
-267.793147
10
382.777563
20
-267.152083
10
382.034958
20
-265.857749
10
382.23498
20
-265.2816
10
383.626981
20
-264.740858
10
383.583578
20
-263.878455
10
382.140758
20
-263.491762
10
381.878516
20
-262.944151
10
382.477672
20
-261.57373
10
381.836611
20
-260.996837
10
381.836611
20
-260.996837
0
LWPOLYLINE
5
8B
100
AcDbEntity
8
LOGO
6
ByLayer
62
5
370
-1
100
AcDbPolyline
90
34
70
1
43
0
10
379.898092
20
-263.119387
10
380.163792
20
-263.27355
10
380.393991
20
-263.482264
10
380.578287
20
-263.731344
10
380.710861
20
-264.008278
10
380.788808
20
-264.306809
10
380.801718
20
-264.612753
10
380.75753
20
-264.918617
10
380.656684
20
-265.208984
10
380.496264
20
-265.477593
10
380.293807
20
-265.704882
10
380.044725
20
-265.889178
10
379.767791
20
-266.021752
10
379.469262
20
-266.099697
10
379.161644
20
-266.117195
10
378.855779
20
-266.073009
10
378.565414
20
-265.972161
10
378.296805
20
-265.811742
10
378.071186
20
-265.6047
10
377.885221
20
-265.360203
10
377.752643
20
-265.08327
10
377.676372
20
-264.780156
10
377.658877
20
-264.472539
10
377.703062
20
-264.166674
10
377.803911
20
-263.876308
10
377.962657
20
-263.612281
10
378.16679
20
-263.38041
10
378.41587
20
-263.196114
10
378.692802
20
-263.06354
10
378.995915
20
-262.987268
10
379.30186
20
-262.974354
10
379.607724
20
-263.018539
10
379.89809
20
-263.119388
10
379.898092
20
-263.119387
0
CIRCLE
5
8C
100
AcDbEntity
8
TITLEBLOCK
6
ByLayer
62
256
370
-1
100
AcDbCircle
10
257.5
20
-263.5
40
4
0
CIRCLE
5
8D
100
AcDbEntity
8
TITLEBLOCK
6
ByLayer
62
256
370
-1
100
AcDbCircle
10
257.5
20
-263.5
40
2
0
LINE
5
8E
100
AcDbEntity
8
PAPERSIZE
6
ByLayer
62
256
370
-1
100
AcDbLine
10
0
20
-5
11
0
21
0
0
LINE
5
8F
100
AcDbEntity
8
PAPERSIZE
6
ByLayer
62
256
370
-1
100
AcDbLine
10
0
20
0
11
5
21
0
0
LINE
5
90
100
AcDbEntity
8
PAPERSIZE
6
ByLayer
62
256
370
-1
100
AcDbLine
10
415
20
0
11
420
21
0
0
LINE
5
91
100
AcDbEntity
8
PAPERSIZE
6
ByLayer
62
256
370
-1
100
AcDbLine
10
420
20
0
11
420
21
-5
0
LINE
5
92
100
AcDbEntity
8
PAPERSIZE
6
ByLayer
62
256
370
-1
100
AcDbLine
10
420
20
-292
11
420
21
-297
0
LINE
5
93
100
AcDbEntity
8
PAPERSIZE
6
ByLayer
62
256
370
-1
100
AcDbLine
10
420
20
-297
11
415
21
-297
0
LINE
5
94
100
AcDbEntity
8
PAPERSIZE
6
ByLayer
62
256
370
-1
100
AcDbLine
10
0
20
-292
11
0
21
-297
0
LINE
5
95
100
AcDbEntity
8
PAPERSIZE
6
ByLayer
62
256
370
-1
100
AcDbLine
10
0
20
-297
11
5
21
-297
0
TEXT
5
96
100
AcDbEntity
8
BORDER
6
CONTINUOUS
62
256
370
25
100
AcDbText
10
413.572094845
20
-261.65684455
30
0
40
3.5
1
1
50
0
41
1
51
0
7
standard
71
0
210
0
220
0
230
1
100
AcDbText
0
TEXT
5
97
100
AcDbEntity
8
BORDER
6
CONTINUOUS
62
256
370
25
100
AcDbText
10
413.450334954
20
-187.45684455
30
0
40
3.5
1
2
50
0
41
1
51
0
7
standard
71
0
210
0
220
0
230
1
100
AcDbText
0
TEXT
5
98
100
AcDbEntity
8
BORDER
6
CONTINUOUS
62
256
370
25
100
AcDbText
10
413.400198528
20
-113.228195164
30
0
40
3.5
1
3
50
0
41
1
51
0
7
standard
71
0
210
0
220
0
230
1
100
AcDbText
0
TEXT
5
99
100
AcDbEntity
8
BORDER
6
CONTINUOUS
62
256
370
25
100
AcDbText
10
413.481371789
20
-38.9496822037
30
0
40
3.5
1
4
50
0
41
1
51
0
7
standard
71
0
210
0
220
0
230
1
100
AcDbText
0
TEXT
5
9A
100
AcDbEntity
8
BORDER
6
CONTINUOUS
62
256
370
25
100
AcDbText
10
392.217
20
-293.833
30
0
40
3.5
1
A
50
0
41
1
51
0
7
standard
71
0
210
0
220
0
230
1
100
AcDbText
0
TEXT
5
9B
100
AcDbEntity
8
BORDER
6
CONTINUOUS
62
256
370
25
100
AcDbText
10
339.717
20
-293.833
30
0
40
3.5
1
B
50
0
41
1
51
0
7
standard
71
0
210
0
220
0
230
1
100
AcDbText
0
TEXT
5
9C
100
AcDbEntity
8
BORDER
6
CONTINUOUS
62
256
370
25
100
AcDbText
10
77.217
20
-293.833
30
0
40
3.5
1
G
50
0
41
1
51
0
7
standard
71
0
210
0
220
0
230
1
100
AcDbText
0
TEXT
5
9D
100
AcDbEntity
8
BORDER
6
CONTINUOUS
62
256
370
25
100
AcDbText
10
24.717
20
-293.833
30
0
40
3.5
1
H
50
0
41
1
51
0
7
standard
71
0
210
0
220
0
230
1
100
AcDbText
0
TEXT
5
9E
100
AcDbEntity
8
BORDER
6
CONTINUOUS
62
256
370
25
100
AcDbText
10
6.82572604188
20
-38.5650814646
30
0
40
3.5
1
4
50
90
41
1
51
0
7
standard
71
0
210
0
220
0
230
1
100
AcDbText
0
TEXT
5
9F
100
AcDbEntity
8
BORDER
6
CONTINUOUS
62
256
370
25
100
AcDbText
10
6.74455278131
20
-112.843594425
30
0
40
3.5
1
3
50
90
41
1
51
0
7
standard
71
0
210
0
220
0
230
1
100
AcDbText
0
TEXT
5
A0
100
AcDbEntity
8
BORDER
6
CONTINUOUS
62
256
370
25
100
AcDbText
10
6.79468920696
20
-187.072243811
30
0
40
3.5
1
2
50
90
41
1
51
0
7
standard
71
0
210
0
220
0
230
1
100
AcDbText
0
TEXT
5
A1
100
AcDbEntity
8
BORDER
6
CONTINUOUS
62
256
370
25
100
AcDbText
10
6.91644909782
20
-261.272243811
30
0
40
3.5
1
1
50
90
41
1
51
0
7
standard
71
0
210
0
220
0
230
1
100
AcDbText
0
TEXT
5
A2
100
AcDbEntity
8
BORDER
6
CONTINUOUS
62
256
370
25
100
AcDbText
10
28.1541949745
20
-6.84933195762
30
0
40
3.5
1
H
50
90
41
1
51
0
7
standard
71
0
210
0
220
0
230
1
100
AcDbText
0
TEXT
5
A3
100
AcDbEntity
8
BORDER
6
CONTINUOUS
62
256
370
25
100
AcDbText
10
80.6541949745
20
-6.84933195762
30
0
40
3.5
1
G
50
90
41
1
51
0
7
standard
71
0
210
0
220
0
230
1
100
AcDbText
0
TEXT
5
A4
100
AcDbEntity
8
BORDER
6
CONTINUOUS
62
256
370
25
100
AcDbText
10
133.154194975
20
-6.84933195762
30
0
40
3.5
1
F
50
90
41
1
51
0
7
standard
71
0
210
0
220
0
230
1
100
AcDbText
0
TEXT
5
A5
100
AcDbEntity
8
BORDER
6
CONTINUOUS
62
256
370
25
100
AcDbText
10
185.654194975
20
-6.84933195762
30
0
40
3.5
1
E
50
90
41
1
51
0
7
standard
71
0
210
0
220
0
230
1
100
AcDbText
0
TEXT
5
A6
100
AcDbEntity
8
BORDER
6
CONTINUOUS
62
256
370
25
100
AcDbText
10
238.154194975
20
-6.84933195762
30
0
40
3.5
1
D
50
90
41
1
51
0
7
standard
71
0
210
0
220
0
230
1
100
AcDbText
0
TEXT
5
A7
100
AcDbEntity
8
BORDER
6
CONTINUOUS
62
256
370
25
100
AcDbText
10
290.654194975
20
-6.84933195762
30
0
40
3.5
1
C
50
90
41
1
51
0
7
standard
71
0
210
0
220
0
230
1
100
AcDbText
0
TEXT
5
A8
100
AcDbEntity
8
BORDER
6
CONTINUOUS
62
256
370
25
100
AcDbText
10
343.154194975
20
-6.84933195762
30
0
40
3.5
1
B
50
90
41
1
51
0
7
standard
71
0
210
0
220
0
230
1
100
AcDbText
0
TEXT
5
A9
100
AcDbEntity
8
BORDER
6
CONTINUOUS
62
256
370
25
100
AcDbText
10
395.654194975
20
-6.84933195762
30
0
40
3.5
1
A
50
90
41
1
51
0
7
standard
71
0
210
0
220
0
230
1
100
AcDbText
0
TEXT
5
AA
100
AcDbEntity
8
TITLEBLOCK
6
CONTINUOUS
62
256
370
18
100
AcDbText
10
387.5
20
-231.5
30
0
40
2.5
1
I
50
0
41
1
51
0
7
standard
71
0
210
0
220
0
230
1
100
AcDbText
0
TEXT
5
AB
100
AcDbEntity
8
TITLEBLOCK
6
CONTINUOUS
62
256
370
18
100
AcDbText
10
386.730900409
20
-238.166
30
0
40
2.5
1
H
50
0
41
1
51
0
7
standard
71
0
210
0
220
0
230
1
100
AcDbText
0
TEXT
5
AC
100
AcDbEntity
8
TITLEBLOCK
6
CONTINUOUS
62
256
370
18
100
AcDbText
10
386.64904502
20
-244.834705321
30
0
40
2.5
1
G
50
0
41
1
51
0
7
standard
71
0
210
0
220
0
230
1
100
AcDbText
0
TEXT
5
AD
100
AcDbEntity
8
TITLEBLOCK
6
CONTINUOUS
62
256
370
18
100
AcDbText
10
386.862210095
20
-251.5
30
0
40
2.5
1
F
50
0
41
1
51
0
7
standard
71
0
210
0
220
0
230
1
100
AcDbText
0
TEXT
5
AE
100
AcDbEntity
8
TITLEBLOCK
6
CONTINUOUS
62
256
370
18
100
AcDbText
10
386.783765348
20
-258.166
30
0
40
2.5
1
E
50
0
41
1
51
0
7
standard
71
0
210
0
220
0
230
1
100
AcDbText
0
TEXT
5
AF
100
AcDbEntity
8
TITLEBLOCK
6
CONTINUOUS
62
256
370
18
100
AcDbText
10
386.689972715
20
-264.833
30
0
40
2.5
1
D
50
0
41
1
51
0
7
standard
71
0
210
0
220
0
230
1
100
AcDbText
0
TEXT
5
B0
100
AcDbEntity
8
TITLEBLOCK
6
CONTINUOUS
62
256
370
18
100
AcDbText
10
386.713847203
20
-271.501705321
30
0
40
2.5
1
C
50
0
41
1
51
0
7
standard
71
0
210
0
220
0
230
1
100
AcDbText
0
TEXT
5
B1
100
AcDbEntity
8
TITLEBLOCK
6
CONTINUOUS
62
256
370
18
100
AcDbText
10
386.793997271
20
-278.166
30
0
40
2.5
1
B
50
0
41
1
51
0
7
standard
71
0
210
0
220
0
230
1
100
AcDbText
0
TEXT
5
B2
100
AcDbEntity
8
TITLEBLOCK
6
CONTINUOUS
62
256
370
18
100
AcDbText
10
386.824693042
20
-284.833
30
0
40
2.5
1
A
50
0
41
1
51
0
7
standard
71
0
210
0
220
0
230
1
100
AcDbText
0
TEXT
5
B3
100
AcDbEntity
8
TITLEBLOCK
6
CONTINUOUS
62
256
370
9
100
AcDbText
10
365.918907406
20
-272.054107844
30
0
40
1.5
1
SHEET
50
0
41
1
51
0
7
standard
71
0
210
0
220
0
230
1
100
AcDbText
0
TEXT
5
B4
100
AcDbEntity
8
TITLEBLOCK
6
CONTINUOUS
62
256
370
9
100
AcDbText
10
265.918907406
20
-272.054107844
30
0
40
1.5
1
DRAWING NUMBER
50
0
41
1
51
0
7
standard
71
0
210
0
220
0
230
1
100
AcDbText
0
TEXT
5
B5
100
AcDbEntity
8
TITLEBLOCK
6
CONTINUOUS
62
256
370
9
100
AcDbText
10
240.918907406
20
-272.054107844
30
0
40
1.5
1
WEIGHT (kg)
50
0
41
1
51
0
7
standard
71
0
210
0
220
0
230
1
100
AcDbText
0
TEXT
5
B6
100
AcDbEntity
8
TITLEBLOCK
6
CONTINUOUS
62
256
370
9
100
AcDbText
10
220.918907406
20
-272.054107844
30
0
40
1.5
1
SCALE
50
0
41
1
51
0
7
standard
71
0
210
0
220
0
230
1
100
AcDbText
0
TEXT
5
B7
100
AcDbEntity
8
TITLEBLOCK
6
CONTINUOUS
62
256
370
9
100
AcDbText
10
220.918907406
20
-259.054107844
30
0
40
1.5
1
SIZE
50
0
41
1
51
0
7
standard
71
0
210
0
220
0
230
1
100
AcDbText
0
TEXT
5
B8
100
AcDbEntity
8
TITLEBLOCK
6
CONTINUOUS
62
256
370
9
100
AcDbText
10
220.918907406
20
-251.596206231
30
0
40
1.5
1
DATE:
50
0
41
1
51
0
7
standard
71
0
210
0
220
0
230
1
100
AcDbText
0
TEXT
5
B9
100
AcDbEntity
8
TITLEBLOCK
6
CONTINUOUS
62
256
370
9
100
AcDbText
10
220.918907406
20
-244.054107844
30
0
40
1.5
1
CHECKED BY:
50
0
41
1
51
0
7
standard
71
0
210
0
220
0
230
1
100
AcDbText
0
TEXT
5
BA
100
AcDbEntity
8
TITLEBLOCK
6
CONTINUOUS
62
256
370
9
100
AcDbText
10
220.918907406
20
-229.054107844
30
0
40
1.5
1
DESIGNED BY:
50
0
41
1
51
0
7
standard
71
0
210
0
220
0
230
1
100
AcDbText
0
TEXT
5
BB
100
AcDbEntity
8
TITLEBLOCK
6
CONTINUOUS
62
256
370
9
100
AcDbText
10
220.918907406
20
-236.596206231
30
0
40
1.5
1
DATE:
50
0
41
1
51
0
7
standard
71
0
210
0
220
0
230
1
100
AcDbText
0
TEXT
5
BC
100
AcDbEntity
8
TITLEBLOCK
6
CONTINUOUS
62
256
370
9
100
AcDbText
10
220.918907406
20
-285.820293122
30
0
40
1.5
1
This drawing is our property; it can't be reproduced or communicated without our written agreement.
50
0
41
1
51
0
7
standard
71
0
210
0
220
0
230
1
100
AcDbText
0
TEXT
5
BD
100
AcDbEntity
8
TITLEBLOCK
6
CONTINUOUS
62
256
370
20
100
AcDbText
10
220.918907406
20
-233.212607418
30
0
40
3
1
AUTHOR NAME
50
0
41
1
51
0
7
standard
71
0
210
0
220
0
230
1
100
AcDbText
0
TEXT
5
BE
100
AcDbEntity
8
TITLEBLOCK
6
CONTINUOUS
62
256
370
20
100
AcDbText
10
220.918907406
20
-240.754705805
30
0
40
3
1
CREATION DATE
50
0
41
1
51
0
7
standard
71
0
210
0
220
0
230
1
100
AcDbText
0
TEXT
5
BF
100
AcDbEntity
8
TITLEBLOCK
6
CONTINUOUS
62
256
370
20
100
AcDbText
10
220.918907406
20
-255.754705805
30
0
40
3
1
CHECK DATE
50
0
41
1
51
0
7
standard
71
0
210
0
220
0
230
1
100
AcDbText
0
TEXT
5
C0
100
AcDbEntity
8
TITLEBLOCK
6
CONTINUOUS
62
256
370
20
100
AcDbText
10
220.918907406
20
-248.212607418
30
0
40
3
1
SUPERVISOR NAME
50
0
41
1
51
0
7
standard
71
0
210
0
220
0
230
1
100
AcDbText
0
TEXT
5
C1
100
AcDbEntity
8
TITLEBLOCK
6
CONTINUOUS
62
256
370
20
100
AcDbText
10
240.918907406
20
-278.678696239
30
0
40
3
1
WEIGHT
50
0
41
1
51
0
7
standard
71
0
210
0
220
0
230
1
100
AcDbText
0
TEXT
5
C2
100
AcDbEntity
8
TITLEBLOCK
6
CONTINUOUS
62
256
370
20
100
AcDbText
10
265.918907406
20
-278.678696239
30
0
40
3
1
NUMBER
50
0
41
1
51
0
7
standard
71
0
210
0
220
0
230
1
100
AcDbText
0
TEXT
5
C3
100
AcDbEntity
8
TITLEBLOCK
6
CONTINUOUS
62
256
370
20
100
AcDbText
10
365.918907406
20
-278.678696239
30
0
40
3
1
SHEET
50
0
41
1
51
0
7
standard
71
0
210
0
220
0
230
1
100
AcDbText
0
TEXT
5
C4
100
AcDbEntity
8
TITLEBLOCK
6
CONTINUOUS
62
256
370
20
100
AcDbText
10
268.722112758
20
-247.920432075
30
0
40
3
1
SUBTITLE
50
0
41
1
51
0
7
standard
71
0
210
0
220
0
230
1
100
AcDbText
0
TEXT
5
C5
100
AcDbEntity
8
TITLEBLOCK
6
CONTINUOUS
62
256
370
35
100
AcDbText
10
225.491266736
20
-266.285896921
30
0
40
5
1
A3
50
0
41
1
51
0
7
standard
71
0
210
0
220
0
230
1
100
AcDbText
0
TEXT
5
C6
100
AcDbEntity
8
TITLEBLOCK
6
CONTINUOUS
62
256
370
13
100
AcDbText
10
398.757780525
20
-231.235614598
30
0
40
2.5
1
_
50
0
41
1
51
0
7
standard
71
0
210
0
220
0
230
1
100
AcDbText
0
TEXT
5
C7
100
AcDbEntity
8
TITLEBLOCK
6
CONTINUOUS
62
256
370
13
100
AcDbText
10
398.757780525
20
-237.901614598
30
0
40
2.5
1
_
50
0
41
1
51
0
7
standard
71
0
210
0
220
0
230
1
100
AcDbText
0
TEXT
5
C8
100
AcDbEntity
8
TITLEBLOCK
6
CONTINUOUS
62
256
370
13
100
AcDbText
10
398.757780525
20
-244.568614598
30
0
40
2.5
1
_
50
0
41
1
51
0
7
standard
71
0
210
0
220
0
230
1
100
AcDbText
0
TEXT
5
C9
100
AcDbEntity
8
TITLEBLOCK
6
CONTINUOUS
62
256
370
13
100
AcDbText
10
398.757780525
20
-251.235614598
30
0
40
2.5
1
_
50
0
41
1
51
0
7
standard
71
0
210
0
220
0
230
1
100
AcDbText
0
TEXT
5
CA
100
AcDbEntity
8
TITLEBLOCK
6
CONTINUOUS
62
256
370
13
100
AcDbText
10
398.757780525
20
-257.901614598
30
0
40
2.5
1
_
50
0
41
1
51
0
7
standard
71
0
210
0
220
0
230
1
100
AcDbText
0
TEXT
5
CB
100
AcDbEntity
8
TITLEBLOCK
6
CONTINUOUS
62
256
370
13
100
AcDbText
10
398.757780525
20
-264.568614598
30
0
40
2.5
1
_
50
0
41
1
51
0
7
standard
71
0
210
0
220
0
230
1
100
AcDbText
0
TEXT
5
CC
100
AcDbEntity
8
TITLEBLOCK
6
CONTINUOUS
62
256
370
13
100
AcDbText
10
398.757780525
20
-271.235614598
30
0
40
2.5
1
_
50
0
41
1
51
0
7
standard
71
0
210
0
220
0
230
1
100
AcDbText
0
TEXT
5
CD
100
AcDbEntity
8
TITLEBLOCK
6
CONTINUOUS
62
256
370
13
100
AcDbText
10
398.757780525
20
-277.901614598
30
0
40
2.5
1
_
50
0
41
1
51
0
7
standard
71
0
210
0
220
0
230
1
100
AcDbText
0
TEXT
5
CE
100
AcDbEntity
8
TITLEBLOCK
6
CONTINUOUS
62
256
370
13
100
AcDbText
10
398.757780525
20
-284.568614598
30
0
40
2.5
1
_
50
0
41
1
51
0
7
standard
71
0
210
0
220
0
230
1
100
AcDbText
0
TEXT
5
CF
100
AcDbEntity
8
TITLEBLOCK
6
CONTINUOUS
62
256
370
35
100
AcDbText
10
268.722112758
20
-243.015694817
30
0
40
5
1
TITLE
50
0
41
1
51
0
7
standard
71
0
210
0
220
0
230
1
100
AcDbText
0
TEXT
5
D0
100
AcDbEntity
8
TITLEBLOCK
6
CONTINUOUS
62
256
370
20
100
AcDbText
10
220.918907406
20
-278.678696239
30
0
40
3
1
SCALE
50
0
41
1
51
0
7
standard
71
0
210
0
220
0
230
1
100
AcDbText
0
INSERT
5
290d
8
0
6
BYLAYER
62
256
2
View1
10
10.0
20
-10.0
30
0
41
1.0
42
1.0
43
1.0
50
0.0
0
INSERT
5
290e
8
0
6
BYLAYER
62
256
2
View0011
10
10.0
20
-10.0
30
0
41
1.0
42
1.0
43
1.0
50
0.0
0
INSERT
5
290f
8
0
6
BYLAYER
62
256
2
View0021
10
10.0
20
-10.0
30
0
41
1.0
42
1.0
43
1.0
50
0.0
0
ENDSEC
0
SECTION
2
OBJECTS
0
DICTIONARY
5
C
330
0
100
AcDbDictionary
281
1
3
ACAD_GROUP
350
D
0
DICTIONARY
5
D
330
C
100
AcDbDictionary
281
1
0
ENDSEC
0
EOF
