999
FreeCAD DXF exporter v0.17-12772 (Git)
0
SECTION
2
HEADER
9
$ACADVER
1
AC1009
0
ENDSEC
0
SECTION
2
BLOCKS
0
BLOCK
5
2711
100
AcDbEntity
8
0
100
AcDbBlockBegin
2
ArchView1
70
0
10
0
20
0
3
ArchView1
1

0
LINE
8
0
6
BYBLOCK
62
0
5
2712
100
AcDbEntity
100
AcDbLine
10
-2.20353
20
24
30
0
11
52.7965
21
24
31
0
0
ELLIPSE
8
0
6
BYBLOCK
62
0
5
2713
100
AcDbEntity
100
AcDbEllipse
10
58.5285
20
6.76397e-06
30
0
11
15.3091
21
-4.69799e-06
31
0
40
0.965926
41
4.32862
42
4.1694
0
SPLINE
8
0
6
BYBLOCK
62
0
5
2714
100
AcDbEntity
100
AcDbSpline
70
0
71
2
72
28
73
25
74
0
40
1.18703
40
1.18703
40
1.18703
40
1.21068
40
1.21068
40
1.25798
40
1.25798
40
1.30528
40
1.30528
40
1.32893
40
1.32893
40
1.35258
40
1.35258
40
1.37623
40
1.37623
40
1.39988
40
1.39988
40
1.42353
40
1.42353
40
1.44718
40
1.44718
40
1.47083
40
1.47083
40
1.49448
40
1.49448
40
1.51813
40
1.51813
40
1.51813
10
52.7965
20
13.7119
30
0
10
52.7965
20
13.7754
30
0
10
52.7965
20
13.839
30
0
10
52.7965
20
13.9605
30
0
10
52.7965
20
14.0699
30
0
10
52.7965
20
14.1758
30
0
10
52.7965
20
14.2693
30
0
10
52.7965
20
14.3132
30
0
10
52.7965
20
14.3571
30
0
10
52.7965
20
14.3969
30
0
10
52.7965
20
14.4368
30
0
10
52.7965
20
14.4727
30
0
10
52.7965
20
14.5085
30
0
10
52.7965
20
14.5403
30
0
10
52.7965
20
14.572
30
0
10
52.7965
20
14.5997
30
0
10
52.7965
20
14.6274
30
0
10
52.7965
20
14.6511
30
0
10
52.7965
20
14.6747
30
0
10
52.7965
20
14.6942
30
0
10
52.7965
20
14.7137
30
0
10
52.7965
20
14.7291
30
0
10
52.7965
20
14.7445
30
0
10
52.7965
20
14.7557
30
0
10
52.7965
20
14.767
30
0
0
LINE
8
0
6
BYBLOCK
62
0
5
2715
100
AcDbEntity
100
AcDbLine
10
52.7965
20
24
30
0
11
52.7965
21
14.767
31
0
0
ELLIPSE
8
0
6
BYBLOCK
62
0
5
2716
100
AcDbEntity
100
AcDbEllipse
10
-15.0094
20
6.18346e-06
30
0
11
15.3091
21
-2.93519e-06
31
0
40
0.965926
41
6.86314
42
5.70323
0
LINE
8
0
6
BYBLOCK
62
0
5
2717
100
AcDbEntity
100
AcDbLine
10
-2.20353
20
8.10335
30
0
11
-2.20353
21
24
31
0
0
LINE
8
0
6
BYBLOCK
62
0
5
2718
100
AcDbEntity
100
AcDbLine
10
-2.20353
20
-24
30
0
11
-2.20353
21
-8.10334
31
0
0
LINE
8
0
6
BYBLOCK
62
0
5
2719
100
AcDbEntity
100
AcDbLine
10
52.7965
20
-24
30
0
11
-2.20353
21
-24
31
0
0
LINE
8
0
6
BYBLOCK
62
0
5
271a
100
AcDbEntity
100
AcDbLine
10
52.7965
20
-14.767
30
0
11
52.7965
21
-24
31
0
0
ELLIPSE
8
0
6
BYBLOCK
62
0
5
271b
100
AcDbEntity
100
AcDbEllipse
10
51.9906
20
8.77029e-06
30
0
11
15.3091
21
-4.69799e-06
31
0
40
0.965926
41
4.71239
42
3.14159
0
ELLIPSE
8
0
6
BYBLOCK
62
0
5
271c
100
AcDbEntity
100
AcDbEllipse
10
51.9906
20
8.77029e-06
30
0
11
15.3091
21
-4.69799e-06
31
0
40
0.965926
41
4.76506
42
4.71239
0
ELLIPSE
8
0
6
BYBLOCK
62
0
5
271d
100
AcDbEntity
100
AcDbEllipse
10
51.9906
20
8.77029e-06
30
0
11
15.3091
21
-4.69799e-06
31
0
40
0.965926
41
1.5708
42
1.51813
0
ELLIPSE
8
0
6
BYBLOCK
62
0
5
271e
100
AcDbEntity
100
AcDbEllipse
10
51.9906
20
8.77029e-06
30
0
11
15.3091
21
-4.69799e-06
31
0
40
0.965926
41
3.14159
42
1.5708
0
CIRCLE
8
0
6
BYBLOCK
62
0
5
271f
100
AcDbEntity
100
AcDbCircle
10
25.2965
20
18.5
30
0
40
4.5
0
CIRCLE
8
0
6
BYBLOCK
62
0
5
2720
100
AcDbEntity
100
AcDbCircle
10
25.2965
20
-18.5
30
0
40
4.5
0
SPLINE
8
0
6
BYBLOCK
62
0
5
2721
100
AcDbEntity
100
AcDbSpline
70
0
71
3
72
26
73
22
74
0
40
0.0499124
40
0.0499124
40
0.0499124
40
0.0499124
40
0.166998
40
0.166998
40
0.166998
40
0.284084
40
0.284084
40
0.284084
40
0.407852
40
0.407852
40
0.407852
40
0.644183
40
0.644183
40
0.644183
40
0.823864
40
0.823864
40
0.823864
40
0.915466
40
0.915466
40
0.915466
40
1
40
1
40
1
40
1
10
50.6183
20
12.6606
30
0
10
50.3149
20
12.6009
30
0
10
49.9305
20
12.4819
30
0
10
49.5134
20
12.3239
30
0
10
49.0935
20
12.1653
30
0
10
48.6457
20
11.9673
30
0
10
48.17
20
11.7299
30
0
10
47.6656
20
11.4786
30
0
10
47.1479
20
11.1833
30
0
10
46.617
20
10.8441
30
0
10
45.6083
20
10.1936
30
0
10
44.5713
20
9.3864
30
0
10
43.5675
20
8.31802
30
0
10
42.811
20
7.50508
30
0
10
42.0674
20
6.55264
30
0
10
41.4059
20
5.28844
30
0
10
41.0732
20
4.64459
30
0
10
40.7609
20
3.91993
30
0
10
40.5084
20
3.03345
30
0
10
40.2806
20
2.21916
30
0
10
40.0874
20
1.2334
30
0
10
40.0844
20
7.49733e-06
30
0
0
SPLINE
8
0
6
BYBLOCK
62
0
5
2722
100
AcDbEntity
100
AcDbSpline
70
0
71
3
72
29
73
25
74
0
40
0
40
0
40
0
40
0
40
0.0696249
40
0.0696249
40
0.0696249
40
0.12424
40
0.12424
40
0.12424
40
0.216349
40
0.216349
40
0.216349
40
0.406234
40
0.406234
40
0.406234
40
0.596118
40
0.596118
40
0.596118
40
0.733232
40
0.733232
40
0.733232
40
0.870345
40
0.870345
40
0.870345
40
0.950413
40
0.950413
40
0.950413
40
0.950413
10
40.0844
20
7.49733e-06
30
0
10
40.0853
20
-1.00649
30
0
10
40.2194
20
-1.86064
30
0
10
40.3887
20
-2.57385
30
0
10
40.5228
20
-3.13496
30
0
10
40.6841
20
-3.62834
30
0
10
40.8588
20
-4.07961
30
0
10
41.1553
20
-4.8411
30
0
10
41.4903
20
-5.48364
30
0
10
41.8408
20
-6.05914
30
0
10
42.568
20
-7.24607
30
0
10
43.3859
20
-8.17906
30
0
10
44.1952
20
-8.9498
30
0
10
45.0083
20
-9.71983
30
0
10
45.8189
20
-10.3313
30
0
10
46.6354
20
-10.8559
30
0
10
47.2263
20
-11.2318
30
0
10
47.7987
20
-11.5532
30
0
10
48.3525
20
-11.82
30
0
10
48.9038
20
-12.0878
30
0
10
49.4342
20
-12.3058
30
0
10
49.8951
20
-12.4605
30
0
10
50.1664
20
-12.5518
30
0
10
50.4074
20
-12.6185
30
0
10
50.6183
20
-12.6606
30
0
0
CIRCLE
8
0
6
BYBLOCK
62
0
5
2723
100
AcDbEntity
100
AcDbCircle
10
25.2965
20
18.5
30
0
40
2.75
0
SPLINE
8
0
6
BYBLOCK
62
0
5
2724
100
AcDbEntity
100
AcDbSpline
70
0
71
2
72
26
73
23
74
0
40
4.76506
40
4.76506
40
4.76506
40
4.78871
40
4.78871
40
4.81236
40
4.81236
40
4.83601
40
4.83601
40
4.85966
40
4.85966
40
4.88331
40
4.88331
40
4.90696
40
4.90696
40
4.93061
40
4.93061
40
4.95426
40
4.95426
40
5.00156
40
5.00156
40
5.04886
40
5.04886
40
5.09616
40
5.09616
40
5.09616
10
52.7965
20
-14.767
30
0
10
52.7965
20
-14.7557
30
0
10
52.7965
20
-14.7444
30
0
10
52.7965
20
-14.7291
30
0
10
52.7965
20
-14.7137
30
0
10
52.7965
20
-14.6942
30
0
10
52.7965
20
-14.6746
30
0
10
52.7965
20
-14.651
30
0
10
52.7965
20
-14.6274
30
0
10
52.7965
20
-14.5997
30
0
10
52.7965
20
-14.572
30
0
10
52.7965
20
-14.5402
30
0
10
52.7965
20
-14.5085
30
0
10
52.7965
20
-14.4726
30
0
10
52.7965
20
-14.4368
30
0
10
52.7965
20
-14.3969
30
0
10
52.7965
20
-14.3571
30
0
10
52.7965
20
-14.2715
30
0
10
52.7965
20
-14.1735
30
0
10
52.7965
20
-14.0721
30
0
10
52.7965
20
-13.9583
30
0
10
52.7965
20
-13.8411
30
0
10
52.7965
20
-13.7118
30
0
0
ELLIPSE
8
0
6
BYBLOCK
62
0
5
2725
100
AcDbEntity
100
AcDbEllipse
10
58.5285
20
6.76397e-06
30
0
11
15.3091
21
-4.69799e-06
31
0
40
0.965926
41
2.11379
42
1.95457
0
CIRCLE
8
0
6
BYBLOCK
62
0
5
2726
100
AcDbEntity
100
AcDbCircle
10
25.2965
20
-18.5
30
0
40
2.75
0
LINE
8
0
6
BYBLOCK
62
0
5
2727
100
AcDbEntity
100
AcDbLine
10
-2.20353
20
-24
30
0
11
-2.20353
21
-24
31
0
0
LINE
8
0
6
BYBLOCK
62
0
5
2728
100
AcDbEntity
100
AcDbLine
10
-2.20353
20
24
30
0
11
-2.20353
21
24
31
0
0
LINE
8
0
6
BYBLOCK
62
0
5
2729
100
AcDbEntity
100
AcDbLine
10
-2.20353
20
-13.7118
30
0
11
-2.20353
21
8.10335
31
0
0
LINE
8
0
6
BYBLOCK
62
0
5
272a
100
AcDbEntity
100
AcDbLine
10
-2.20353
20
-24
30
0
11
-2.20353
21
-13.7118
31
0
0
LINE
8
0
6
BYBLOCK
62
0
5
272b
100
AcDbEntity
100
AcDbLine
10
52.7965
20
-13.7118
30
0
11
52.7965
21
-13.4913
31
0
0
SPLINE
8
0
6
BYBLOCK
62
0
5
272c
100
AcDbEntity
100
AcDbSpline
70
0
71
2
72
6
73
3
74
0
40
4.1694
40
4.1694
40
4.1694
40
4.29057
40
4.29057
40
4.29057
10
51.1542
20
-12.6606
30
0
10
51.9494
20
-13.1238
30
0
10
52.7965
20
-13.4913
30
0
0
LINE
8
0
6
BYBLOCK
62
0
5
272d
100
AcDbEntity
100
AcDbLine
10
50.6183
20
-12.6606
30
0
11
51.1542
21
-12.6606
31
0
0
ELLIPSE
8
0
6
BYBLOCK
62
0
5
272e
100
AcDbEntity
100
AcDbEllipse
10
25.2965
20
-18.5
30
0
11
2.1
21
5.26443e-09
31
0
40
1
41
3.14159
42
9.42478
0
SPLINE
8
0
6
BYBLOCK
62
0
5
272f
100
AcDbEntity
100
AcDbSpline
70
0
71
1
72
17
73
15
74
0
40
5.13421
40
5.13421
40
5.16428
40
5.19435
40
5.22442
40
5.25449
40
5.28456
40
5.31463
40
5.34469
40
5.37476
40
5.40483
40
5.4349
40
5.46497
40
5.49504
40
5.52511
40
5.55518
40
5.55518
10
52.7965
20
-13.4913
30
0
10
52.7965
20
-13.3032
30
0
10
52.7965
20
-13.103
30
0
10
52.7965
20
-12.891
30
0
10
52.7965
20
-12.6674
30
0
10
52.7965
20
-12.4323
30
0
10
52.7965
20
-12.1859
30
0
10
52.7965
20
-11.9286
30
0
10
52.7965
20
-11.6605
30
0
10
52.7965
20
-11.3818
30
0
10
52.7965
20
-11.0928
30
0
10
52.7965
20
-10.7938
30
0
10
52.7965
20
-10.485
30
0
10
52.7965
20
-10.1668
30
0
10
52.7965
20
-9.83938
30
0
0
LINE
8
0
6
BYBLOCK
62
0
5
2730
100
AcDbEntity
100
AcDbLine
10
52.7965
20
9.83939
30
0
11
52.7965
21
-9.83938
31
0
0
SPLINE
8
0
6
BYBLOCK
62
0
5
2731
100
AcDbEntity
100
AcDbSpline
70
0
71
1
72
17
73
15
74
0
40
0.72801
40
0.72801
40
0.758079
40
0.788148
40
0.818216
40
0.848285
40
0.878354
40
0.908423
40
0.938491
40
0.96856
40
0.998629
40
1.0287
40
1.05877
40
1.08883
40
1.1189
40
1.14897
40
1.14897
10
52.7965
20
9.83939
30
0
10
52.7965
20
10.1668
30
0
10
52.7965
20
10.4851
30
0
10
52.7965
20
10.7938
30
0
10
52.7965
20
11.0928
30
0
10
52.7965
20
11.3818
30
0
10
52.7965
20
11.6605
30
0
10
52.7965
20
11.9286
30
0
10
52.7965
20
12.186
30
0
10
52.7965
20
12.4323
30
0
10
52.7965
20
12.6674
30
0
10
52.7965
20
12.891
30
0
10
52.7965
20
13.103
30
0
10
52.7965
20
13.3032
30
0
10
52.7965
20
13.4913
30
0
0
LINE
8
0
6
BYBLOCK
62
0
5
2732
100
AcDbEntity
100
AcDbLine
10
52.7965
20
13.4913
30
0
11
52.7965
21
24
31
0
0
LINE
8
0
6
BYBLOCK
62
0
5
2733
100
AcDbEntity
100
AcDbLine
10
-2.20353
20
24
30
0
11
52.7965
21
24
31
0
0
ELLIPSE
8
0
6
BYBLOCK
62
0
5
2734
100
AcDbEntity
100
AcDbEllipse
10
25.2965
20
18.5
30
0
11
-2.1
21
-5.26443e-09
31
0
40
1
41
6.28319
42
2.50687e-09
0
SPLINE
8
0
6
BYBLOCK
62
0
5
2735
100
AcDbEntity
100
AcDbSpline
70
0
71
2
72
6
73
3
74
0
40
1.99262
40
1.99262
40
1.99262
40
2.11379
40
2.11379
40
2.11379
10
52.7965
20
13.4913
30
0
10
51.9494
20
13.1238
30
0
10
51.1542
20
12.6606
30
0
0
LINE
8
0
6
BYBLOCK
62
0
5
2736
100
AcDbEntity
100
AcDbLine
10
50.6183
20
12.6606
30
0
11
51.1542
21
12.6606
31
0
0
ELLIPSE
8
0
6
BYBLOCK
62
0
5
2737
100
AcDbEntity
100
AcDbEllipse
10
63.4592
20
4.68258e-06
30
0
11
7.94335e-06
21
14.7875
31
0
40
0.965926
41
0.842787
42
2.29881
0
SPLINE
8
0
6
BYBLOCK
62
0
5
2738
100
AcDbEntity
100
AcDbSpline
70
0
71
3
72
44
73
40
74
0
40
0.0301712
40
0.0301712
40
0.0301712
40
0.0301712
40
0.0459178
40
0.0459178
40
0.0459178
40
0.121243
40
0.121243
40
0.121243
40
0.23843
40
0.23843
40
0.23843
40
0.35294
40
0.35294
40
0.35294
40
0.443092
40
0.443092
40
0.443092
40
0.502468
40
0.502468
40
0.502468
40
0.541056
40
0.541056
40
0.541056
40
0.600609
40
0.600609
40
0.600609
40
0.65055
40
0.65055
40
0.65055
40
0.764951
40
0.764951
40
0.764951
40
0.879942
40
0.879942
40
0.879942
40
0.953239
40
0.953239
40
0.953239
40
0.970106
40
0.970106
40
0.970106
40
0.970106
10
51.1542
20
-12.6606
30
0
10
51.1783
20
-12.6464
30
0
10
51.196
20
-12.6277
30
0
10
51.2073
20
-12.6046
30
0
10
51.2631
20
-12.4953
30
0
10
51.1522
20
-12.2806
30
0
10
50.9599
20
-11.9929
30
0
10
50.6598
20
-11.5456
30
0
10
50.1838
20
-10.9228
30
0
10
49.6831
20
-10.109
30
0
10
49.1912
20
-9.31023
30
0
10
48.6628
20
-8.33103
30
0
10
48.1771
20
-7.0695
30
0
10
47.7972
20
-6.07361
30
0
10
47.4374
20
-4.90777
30
0
10
47.1807
20
-3.42641
30
0
10
47.0131
20
-2.45049
30
0
10
46.8901
20
-1.28949
30
0
10
46.8903
20
5.35929e-06
30
0
10
46.8899
20
0.837456
30
0
10
46.9431
20
1.64001
30
0
10
47.0263
20
2.35186
30
0
10
47.155
20
3.45137
30
0
10
47.3505
20
4.38158
30
0
10
47.5708
20
5.20395
30
0
10
47.7565
20
5.89399
30
0
10
47.9616
20
6.50718
30
0
10
48.175
20
7.06394
30
0
10
48.6653
20
8.33864
30
0
10
49.1992
20
9.32542
30
0
10
49.6954
20
10.1289
30
0
10
50.1915
20
10.9328
30
0
10
50.6623
20
11.5493
30
0
10
50.9599
20
11.9929
30
0
10
51.1488
20
12.2757
30
0
10
51.2595
20
12.4878
30
0
10
51.2099
20
12.5989
30
0
10
51.1988
20
12.6247
30
0
10
51.1802
20
12.6452
30
0
10
51.1542
20
12.6606
30
0
0
LINE
8
0
6
BYBLOCK
62
0
5
2739
100
AcDbEntity
100
AcDbLine
10
-6.574
20
25.4
30
0
11
-6.574
21
-25.4
31
0
0
LINE
8
0
6
BYBLOCK
62
0
5
273a
100
AcDbEntity
100
AcDbLine
10
60.0841
20
25.4
30
0
11
60.0841
21
-25.4
31
0
0
LINE
8
0
6
BYBLOCK
62
0
5
273b
100
AcDbEntity
100
AcDbLine
10
-6.574
20
25.4
30
0
11
57.824
21
25.4
31
0
0
LINE
8
0
6
BYBLOCK
62
0
5
273c
100
AcDbEntity
100
AcDbLine
10
-6.574
20
-25.4
30
0
11
57.824
21
-25.4
31
0
0
LINE
8
0
6
BYBLOCK
62
0
5
273d
100
AcDbEntity
100
AcDbLine
10
57.824
20
25.4
30
0
11
57.824
21
-25.4
31
0
0
LINE
8
0
6
BYBLOCK
62
0
5
273e
100
AcDbEntity
100
AcDbLine
10
57.824
20
25.4
30
0
11
60.0841
21
25.4
31
0
0
LINE
8
0
6
BYBLOCK
62
0
5
273f
100
AcDbEntity
100
AcDbLine
10
57.824
20
-25.4
30
0
11
60.0841
21
-25.4
31
0
0
ENDBLK
5
2740
100
AcDbEntity
8
0
100
AcDbBlockEnd
0
BLOCK
5
2741
100
AcDbEntity
8
0
100
AcDbBlockBegin
2
ArchView0011
70
0
10
0
20
0
3
ArchView0011
1

0
LINE
8
0
6
BYBLOCK
62
0
5
2742
100
AcDbEntity
100
AcDbLine
10
0
20
25.4
30
0
11
0
21
-25.4
31
0
0
LINE
8
0
6
BYBLOCK
62
0
5
2743
100
AcDbEntity
100
AcDbLine
10
0
20
25.4
30
0
11
62.2037
21
25.4
31
0
0
LINE
8
0
6
BYBLOCK
62
0
5
2744
100
AcDbEntity
100
AcDbLine
10
0
20
-25.4
30
0
11
62.2037
21
-25.4
31
0
0
LINE
8
0
6
BYBLOCK
62
0
5
2745
100
AcDbEntity
100
AcDbLine
10
62.2037
20
25.4
30
0
11
62.2037
21
24
31
0
0
LINE
8
0
6
BYBLOCK
62
0
5
2746
100
AcDbEntity
100
AcDbLine
10
62.2037
20
12.7365
30
0
11
62.2037
21
-12.7365
31
0
0
LINE
8
0
6
BYBLOCK
62
0
5
2747
100
AcDbEntity
100
AcDbLine
10
62.2037
20
-24
30
0
11
62.2037
21
-25.4
31
0
0
LINE
8
0
6
BYBLOCK
62
0
5
2748
100
AcDbEntity
100
AcDbLine
10
4.22155
20
-24
30
0
11
10.5367
21
-24
31
0
0
LINE
8
0
6
BYBLOCK
62
0
5
2749
100
AcDbEntity
100
AcDbLine
10
11.0544
20
-24
30
0
11
10.5367
21
-24
31
0
0
LINE
8
0
6
BYBLOCK
62
0
5
274a
100
AcDbEntity
100
AcDbLine
10
4.22155
20
-24
30
0
11
4.22155
21
24
31
0
0
LINE
8
0
6
BYBLOCK
62
0
5
274b
100
AcDbEntity
100
AcDbLine
10
4.22155
20
24
30
0
11
10.5367
21
24
31
0
0
LINE
8
0
6
BYBLOCK
62
0
5
274c
100
AcDbEntity
100
AcDbLine
10
10.5367
20
13.7118
30
0
11
10.5367
21
24
31
0
0
SPLINE
8
0
6
BYBLOCK
62
0
5
274d
100
AcDbEntity
100
AcDbSpline
70
0
71
1
72
17
73
15
74
0
40
4.32862
40
4.32862
40
4.35237
40
4.37612
40
4.39988
40
4.42363
40
4.44738
40
4.47114
40
4.49489
40
4.51864
40
4.5424
40
4.56615
40
4.5899
40
4.61365
40
4.63741
40
4.66116
40
4.66116
10
10.5367
20
13.7118
30
0
10
10.2095
20
13.8395
30
0
10
9.87934
20
13.9593
30
0
10
9.54642
20
14.0713
30
0
10
9.21093
20
14.1753
30
0
10
8.87307
20
14.2713
30
0
10
8.53302
20
14.3592
30
0
10
8.19098
20
14.4391
30
0
10
7.84714
20
14.5108
30
0
10
7.50169
20
14.5744
30
0
10
7.15484
20
14.6297
30
0
10
6.80676
20
14.6767
30
0
10
6.45767
20
14.7155
30
0
10
6.10775
20
14.746
30
0
10
5.75721
20
14.7681
30
0
0
LINE
8
0
6
BYBLOCK
62
0
5
274e
100
AcDbEntity
100
AcDbLine
10
5.75721
20
-14.7681
30
0
11
5.75721
21
14.7681
31
0
0
SPLINE
8
0
6
BYBLOCK
62
0
5
274f
100
AcDbEntity
100
AcDbSpline
70
0
71
1
72
17
73
15
74
0
40
1.62202
40
1.62202
40
1.64578
40
1.66953
40
1.69328
40
1.71704
40
1.74079
40
1.76454
40
1.7883
40
1.81205
40
1.8358
40
1.85956
40
1.88331
40
1.90706
40
1.93081
40
1.95457
40
1.95457
10
5.75721
20
-14.7681
30
0
10
6.10775
20
-14.746
30
0
10
6.45767
20
-14.7155
30
0
10
6.80676
20
-14.6767
30
0
10
7.15484
20
-14.6297
30
0
10
7.50169
20
-14.5744
30
0
10
7.84714
20
-14.5108
30
0
10
8.19098
20
-14.4391
30
0
10
8.53302
20
-14.3592
30
0
10
8.87307
20
-14.2713
30
0
10
9.21093
20
-14.1753
30
0
10
9.54642
20
-14.0713
30
0
10
9.87934
20
-13.9593
30
0
10
10.2095
20
-13.8395
30
0
10
10.5367
20
-13.7118
30
0
0
LINE
8
0
6
BYBLOCK
62
0
5
2750
100
AcDbEntity
100
AcDbLine
10
10.5367
20
-24
30
0
11
10.5367
21
-13.7118
31
0
0
LINE
8
0
6
BYBLOCK
62
0
5
2751
100
AcDbEntity
100
AcDbLine
10
63.6627
20
-13.4913
30
0
11
63.6627
21
-13.4913
31
0
0
SPLINE
8
0
6
BYBLOCK
62
0
5
2752
100
AcDbEntity
100
AcDbSpline
70
0
71
2
72
6
73
3
74
0
40
4.1694
40
4.1694
40
4.1694
40
4.29057
40
4.29057
40
4.29057
10
62.0763
20
-12.6606
30
0
10
62.8444
20
-13.1238
30
0
10
63.6627
20
-13.4913
30
0
0
SPLINE
8
0
6
BYBLOCK
62
0
5
2753
100
AcDbEntity
100
AcDbSpline
70
0
71
2
72
6
73
3
74
0
40
5.09616
40
5.09616
40
5.09616
40
5.25538
40
5.25538
40
5.25538
10
10.5367
20
-13.7118
30
0
10
11.6304
20
-13.2696
30
0
10
12.6407
20
-12.6606
30
0
0
LINE
8
0
6
BYBLOCK
62
0
5
2754
100
AcDbEntity
100
AcDbLine
10
12.6407
20
-12.6606
30
0
11
12.6407
21
-12.6606
31
0
0
LINE
8
0
6
BYBLOCK
62
0
5
2755
100
AcDbEntity
100
AcDbLine
10
62.0763
20
-12.6606
30
0
11
62.0763
21
-12.6606
31
0
0
LINE
8
0
6
BYBLOCK
62
0
5
2756
100
AcDbEntity
100
AcDbLine
10
58.6782
20
9.83939
30
0
11
58.6782
21
-9.83939
31
0
0
LINE
8
0
6
BYBLOCK
62
0
5
2757
100
AcDbEntity
100
AcDbLine
10
63.6627
20
24
30
0
11
63.6627
21
24
31
0
0
LINE
8
0
6
BYBLOCK
62
0
5
2758
100
AcDbEntity
100
AcDbLine
10
10.5367
20
24
30
0
11
63.6627
21
24
31
0
0
SPLINE
8
0
6
BYBLOCK
62
0
5
2759
100
AcDbEntity
100
AcDbSpline
70
0
71
2
72
6
73
3
74
0
40
1.14897
40
1.14897
40
1.14897
40
1.18703
40
1.18703
40
1.18703
10
11.0544
20
13.4913
30
0
10
10.7976
20
13.6065
30
0
10
10.5367
20
13.7118
30
0
0
ARC
8
0
6
BYBLOCK
62
0
5
275a
100
AcDbEntity
100
AcDbCircle
10
5
20
1.06581e-14
30
0
40
14.7875
100
AcDbArc
50
-29.6032
51
-8.4513e-06
0
SPLINE
8
0
6
BYBLOCK
62
0
5
275b
100
AcDbEntity
100
AcDbSpline
70
0
71
3
72
26
73
22
74
0
40
0.0499209
40
0.0499209
40
0.0499209
40
0.0499209
40
0.167545
40
0.167545
40
0.167545
40
0.285169
40
0.285169
40
0.285169
40
0.409368
40
0.409368
40
0.409368
40
0.642714
40
0.642714
40
0.642714
40
0.821577
40
0.821577
40
0.821577
40
0.915068
40
0.915068
40
0.915068
40
1
40
1
40
1
40
1
10
12.6407
20
-12.6606
30
0
10
12.74
20
-12.6006
30
0
10
12.9362
20
-12.4808
30
0
10
13.1759
20
-12.3217
30
0
10
13.4196
20
-12.1621
30
0
10
13.6985
20
-11.9627
30
0
10
14.0127
20
-11.7235
30
0
10
14.3449
20
-11.4707
30
0
10
14.6962
20
-11.1735
30
0
10
15.0666
20
-10.8321
30
0
10
15.7578
20
-10.1878
30
0
10
16.4922
20
-9.39014
30
0
10
17.2121
20
-8.33869
30
0
10
17.7595
20
-7.53207
30
0
10
18.3033
20
-6.58728
30
0
10
18.7908
20
-5.33706
30
0
10
19.0422
20
-4.68424
30
0
10
19.2791
20
-3.94855
30
0
10
19.4706
20
-3.0452
30
0
10
19.6405
20
-2.22839
30
0
10
19.7852
20
-1.2394
30
0
10
19.7875
20
1.55431e-14
30
0
0
SPLINE
8
0
6
BYBLOCK
62
0
5
275c
100
AcDbEntity
100
AcDbSpline
70
0
71
3
72
11
73
7
74
0
40
0.0301712
40
0.0301712
40
0.0301712
40
0.0301712
40
0.121243
40
0.121243
40
0.121243
40
0.140304
40
0.140304
40
0.140304
40
0.140304
10
62.0763
20
-12.6606
30
0
10
61.9434
20
-12.58
30
0
10
61.5492
20
-12.3416
30
0
10
61.066
20
-11.9929
30
0
10
60.9655
20
-11.9205
30
0
10
60.8613
20
-11.8432
30
0
10
60.7533
20
-11.761
30
0
0
LINE
8
0
6
BYBLOCK
62
0
5
275d
100
AcDbEntity
100
AcDbLine
10
17.3696
20
24
30
0
11
70.4955
21
24
31
0
0
LINE
8
0
6
BYBLOCK
62
0
5
275e
100
AcDbEntity
100
AcDbLine
10
11.0544
20
24
30
0
11
17.3696
21
24
31
0
0
LINE
8
0
6
BYBLOCK
62
0
5
275f
100
AcDbEntity
100
AcDbLine
10
11.0544
20
13.4913
30
0
11
11.0544
21
24
31
0
0
ELLIPSE
8
0
6
BYBLOCK
62
0
5
2760
100
AcDbEntity
100
AcDbEllipse
10
37.6173
20
18.5
30
0
11
-1.52933e-06
21
-2.75
31
0
40
0.965926
41
1.5708
42
2.02999
0
ELLIPSE
8
0
6
BYBLOCK
62
0
5
2761
100
AcDbEntity
100
AcDbEllipse
10
37.6173
20
18.5
30
0
11
-1.52933e-06
21
-2.75
31
0
40
0.965926
41
1.11161
42
1.5708
0
LINE
8
0
6
BYBLOCK
62
0
5
2762
100
AcDbEntity
100
AcDbLine
10
70.4955
20
24
30
0
11
70.4955
21
14.767
31
0
0
SPLINE
8
0
6
BYBLOCK
62
0
5
2763
100
AcDbEntity
100
AcDbSpline
70
0
71
1
72
17
73
15
74
0
40
5.70323
40
5.70323
40
5.78608
40
5.86893
40
5.95178
40
6.03463
40
6.11748
40
6.20033
40
6.28319
40
6.36604
40
6.44889
40
6.53174
40
6.61459
40
6.69744
40
6.78029
40
6.86314
40
6.86314
10
17.3696
20
8.10334
30
0
10
17.9977
20
7.05189
30
0
10
18.5367
20
5.95206
30
0
10
18.9829
20
4.8114
30
0
10
19.3331
20
3.63773
30
0
10
19.585
20
2.43911
30
0
10
19.7368
20
1.22375
30
0
10
19.7875
20
-4.30543e-06
30
0
10
19.7368
20
-1.22376
30
0
10
19.585
20
-2.43912
30
0
10
19.3331
20
-3.63774
30
0
10
18.9829
20
-4.81141
30
0
10
18.5367
20
-5.95207
30
0
10
17.9977
20
-7.0519
30
0
10
17.3696
20
-8.10335
30
0
0
LINE
8
0
6
BYBLOCK
62
0
5
2764
100
AcDbEntity
100
AcDbLine
10
17.3696
20
8.10334
30
0
11
17.3696
21
24
31
0
0
LINE
8
0
6
BYBLOCK
62
0
5
2765
100
AcDbEntity
100
AcDbLine
10
17.3696
20
-24
30
0
11
17.3696
21
-8.10335
31
0
0
LINE
8
0
6
BYBLOCK
62
0
5
2766
100
AcDbEntity
100
AcDbLine
10
70.4955
20
-24
30
0
11
17.3696
21
-24
31
0
0
LINE
8
0
6
BYBLOCK
62
0
5
2767
100
AcDbEntity
100
AcDbLine
10
70.4955
20
-14.767
30
0
11
70.4955
21
-24
31
0
0
SPLINE
8
0
6
BYBLOCK
62
0
5
2768
100
AcDbEntity
100
AcDbSpline
70
0
71
1
72
17
73
15
74
0
40
3.14159
40
3.14159
40
3.25755
40
3.37352
40
3.48948
40
3.60544
40
3.7214
40
3.83736
40
3.95332
40
4.06929
40
4.18525
40
4.30121
40
4.41717
40
4.53313
40
4.64909
40
4.76506
40
4.76506
10
54.9295
20
-2.30904e-06
30
0
10
55.0288
20
1.71094
30
0
10
55.3254
20
3.3989
30
0
10
55.8154
20
5.04121
30
0
10
56.492
20
6.6158
30
0
10
57.3463
20
8.10153
30
0
10
58.3667
20
9.47844
30
0
10
59.5396
20
10.728
30
0
10
60.8492
20
11.8335
30
0
10
62.278
20
12.7801
30
0
10
63.8066
20
13.555
30
0
10
65.4146
20
14.1478
30
0
10
67.0804
20
14.5506
30
0
10
68.7817
20
14.7579
30
0
10
70.4955
20
14.767
30
0
0
SPLINE
8
0
6
BYBLOCK
62
0
5
2769
100
AcDbEntity
100
AcDbSpline
70
0
71
1
72
17
73
15
74
0
40
1.51813
40
1.51813
40
1.63409
40
1.75005
40
1.86601
40
1.98198
40
2.09794
40
2.2139
40
2.32986
40
2.44582
40
2.56178
40
2.67775
40
2.79371
40
2.90967
40
3.02563
40
3.14159
40
3.14159
10
70.4955
20
-14.767
30
0
10
68.7817
20
-14.7579
30
0
10
67.0804
20
-14.5506
30
0
10
65.4146
20
-14.1478
30
0
10
63.8066
20
-13.555
30
0
10
62.278
20
-12.7801
30
0
10
60.8492
20
-11.8335
30
0
10
59.5396
20
-10.728
30
0
10
58.3667
20
-9.47844
30
0
10
57.3463
20
-8.10153
30
0
10
56.492
20
-6.6158
30
0
10
55.8154
20
-5.04121
30
0
10
55.3254
20
-3.39891
30
0
10
55.0288
20
-1.71094
30
0
10
54.9295
20
-2.30904e-06
30
0
0
ELLIPSE
8
0
6
BYBLOCK
62
0
5
276a
100
AcDbEntity
100
AcDbEllipse
10
43.9325
20
18.5
30
0
11
-2.50254e-06
21
-4.5
31
0
40
0.965926
41
1.5708
42
3.14159
0
ELLIPSE
8
0
6
BYBLOCK
62
0
5
276b
100
AcDbEntity
100
AcDbEllipse
10
43.9325
20
18.5
30
0
11
-2.50254e-06
21
-4.5
31
0
40
0.965926
41
3.14159
42
6.28319
0
ELLIPSE
8
0
6
BYBLOCK
62
0
5
276c
100
AcDbEntity
100
AcDbEllipse
10
43.9325
20
18.5
30
0
11
-2.50254e-06
21
-4.5
31
0
40
0.965926
41
8.88178e-16
42
1.5708
0
ELLIPSE
8
0
6
BYBLOCK
62
0
5
276d
100
AcDbEntity
100
AcDbEllipse
10
43.9325
20
-18.5
30
0
11
2.50254e-06
21
4.5
31
0
40
0.965926
41
3.14159
42
1.5708
0
ELLIPSE
8
0
6
BYBLOCK
62
0
5
276e
100
AcDbEntity
100
AcDbEllipse
10
43.9325
20
-18.5
30
0
11
2.50254e-06
21
4.5
31
0
40
0.965926
41
6.28319
42
3.14159
0
ELLIPSE
8
0
6
BYBLOCK
62
0
5
276f
100
AcDbEntity
100
AcDbEllipse
10
43.9325
20
-18.5
30
0
11
2.50254e-06
21
4.5
31
0
40
0.965926
41
1.5708
42
-8.88178e-16
0
SPLINE
8
0
6
BYBLOCK
62
0
5
2770
100
AcDbEntity
100
AcDbSpline
70
0
71
1
72
17
73
15
74
0
40
3.72155
40
3.72155
40
3.76219
40
3.80284
40
3.84348
40
3.88412
40
3.92477
40
3.96541
40
4.00606
40
4.0467
40
4.08734
40
4.12799
40
4.16863
40
4.20928
40
4.24992
40
4.29057
40
4.29057
10
17.3696
20
8.10334
30
0
10
17.0301
20
8.59926
30
0
10
16.6707
20
9.08097
30
0
10
16.2921
20
9.54769
30
0
10
15.8948
20
9.99864
30
0
10
15.4796
20
10.4331
30
0
10
15.047
20
10.8503
30
0
10
14.5978
20
11.2495
30
0
10
14.1328
20
11.6302
30
0
10
13.6527
20
11.9917
30
0
10
13.1583
20
12.3334
30
0
10
12.6504
20
12.6547
30
0
10
12.1299
20
12.9551
30
0
10
11.5976
20
13.2341
30
0
10
11.0544
20
13.4913
30
0
0
SPLINE
8
0
6
BYBLOCK
62
0
5
2771
100
AcDbEntity
100
AcDbSpline
70
0
71
1
72
17
73
15
74
0
40
1.99262
40
1.99262
40
2.03326
40
2.07391
40
2.11455
40
2.1552
40
2.19584
40
2.23648
40
2.27713
40
2.31777
40
2.35842
40
2.39906
40
2.43971
40
2.48035
40
2.52099
40
2.56164
40
2.56164
10
11.0544
20
-13.4913
30
0
10
11.5976
20
-13.2341
30
0
10
12.1299
20
-12.9551
30
0
10
12.6504
20
-12.6547
30
0
10
13.1583
20
-12.3334
30
0
10
13.6527
20
-11.9917
30
0
10
14.1328
20
-11.6302
30
0
10
14.5978
20
-11.2496
30
0
10
15.047
20
-10.8503
30
0
10
15.4796
20
-10.4331
30
0
10
15.8948
20
-9.99865
30
0
10
16.2921
20
-9.5477
30
0
10
16.6707
20
-9.08098
30
0
10
17.0301
20
-8.59927
30
0
10
17.3696
20
-8.10335
30
0
0
ELLIPSE
8
0
6
BYBLOCK
62
0
5
2772
100
AcDbEntity
100
AcDbEllipse
10
42.3796
20
18.5
30
0
11
1.52933e-06
21
2.75
31
0
40
0.965926
41
3.14159
42
1.5708
0
ELLIPSE
8
0
6
BYBLOCK
62
0
5
2773
100
AcDbEntity
100
AcDbEllipse
10
42.3796
20
18.5
30
0
11
1.52933e-06
21
2.75
31
0
40
0.965926
41
6.28319
42
3.14159
0
ELLIPSE
8
0
6
BYBLOCK
62
0
5
2774
100
AcDbEntity
100
AcDbEllipse
10
42.3796
20
18.5
30
0
11
1.52933e-06
21
2.75
31
0
40
0.965926
41
1.5708
42
-8.88178e-16
0
LINE
8
0
6
BYBLOCK
62
0
5
2775
100
AcDbEntity
100
AcDbLine
10
11.0544
20
-24
30
0
11
11.0544
21
-13.4913
31
0
0
LINE
8
0
6
BYBLOCK
62
0
5
2776
100
AcDbEntity
100
AcDbLine
10
11.0544
20
-24
30
0
11
17.3696
21
-24
31
0
0
ELLIPSE
8
0
6
BYBLOCK
62
0
5
2777
100
AcDbEntity
100
AcDbEllipse
10
42.3796
20
18.5
30
0
11
-2.50254e-06
21
-4.5
31
0
40
0.965926
41
1.5708
42
2.962
0
ELLIPSE
8
0
6
BYBLOCK
62
0
5
2778
100
AcDbEntity
100
AcDbEllipse
10
42.3796
20
18.5
30
0
11
-2.50254e-06
21
-4.5
31
0
40
0.965926
41
0.179597
42
1.5708
0
ELLIPSE
8
0
6
BYBLOCK
62
0
5
2779
100
AcDbEntity
100
AcDbEllipse
10
42.3796
20
-18.5
30
0
11
2.50254e-06
21
4.5
31
0
40
0.965926
41
2.962
42
1.5708
0
ELLIPSE
8
0
6
BYBLOCK
62
0
5
277a
100
AcDbEntity
100
AcDbEllipse
10
42.3796
20
-18.5
30
0
11
2.50254e-06
21
4.5
31
0
40
0.965926
41
1.5708
42
0.179597
0
ELLIPSE
8
0
6
BYBLOCK
62
0
5
277b
100
AcDbEntity
100
AcDbEllipse
10
37.6173
20
-18.5
30
0
11
-1.52933e-06
21
-2.75
31
0
40
0.965926
41
1.5708
42
2.02999
0
ELLIPSE
8
0
6
BYBLOCK
62
0
5
277c
100
AcDbEntity
100
AcDbEllipse
10
37.6173
20
-18.5
30
0
11
-1.52933e-06
21
-2.75
31
0
40
0.965926
41
1.11161
42
1.5708
0
ELLIPSE
8
0
6
BYBLOCK
62
0
5
277d
100
AcDbEntity
100
AcDbEllipse
10
42.3796
20
-18.5
30
0
11
-1.52933e-06
21
-2.75
31
0
40
0.965926
41
1.5708
42
3.14159
0
ELLIPSE
8
0
6
BYBLOCK
62
0
5
277e
100
AcDbEntity
100
AcDbEllipse
10
42.3796
20
-18.5
30
0
11
-1.52933e-06
21
-2.75
31
0
40
0.965926
41
3.14159
42
6.28319
0
ELLIPSE
8
0
6
BYBLOCK
62
0
5
277f
100
AcDbEntity
100
AcDbEllipse
10
42.3796
20
-18.5
30
0
11
-1.52933e-06
21
-2.75
31
0
40
0.965926
41
1.77636e-15
42
1.5708
0
ENDBLK
5
2780
100
AcDbEntity
8
0
100
AcDbBlockEnd
0
BLOCK
5
2781
100
AcDbEntity
8
0
100
AcDbBlockBegin
2
ArchView0021
70
0
10
0
20
0
3
ArchView0021
1

0
LINE
8
0
6
BYBLOCK
62
0
5
2782
100
AcDbEntity
100
AcDbLine
10
-67.385
20
39.5859
30
0
11
-67.385
21
39.5859
31
0
0
SPLINE
8
0
6
BYBLOCK
62
0
5
2783
100
AcDbEntity
100
AcDbSpline
70
0
71
2
72
6
73
3
74
0
40
5.13421
40
5.13421
40
5.13421
40
5.25538
40
5.25538
40
5.25538
10
-49.7693
20
11.0544
30
0
10
-49.55
20
11.8726
30
0
10
-49.3442
20
12.6407
30
0
0
LINE
8
0
6
BYBLOCK
62
0
5
2784
100
AcDbEntity
100
AcDbLine
10
-49.3442
20
12.6407
30
0
11
-36.098
21
62.0763
31
0
0
SPLINE
8
0
6
BYBLOCK
62
0
5
2785
100
AcDbEntity
100
AcDbSpline
70
0
71
2
72
6
73
3
74
0
40
4.1694
40
4.1694
40
4.1694
40
4.32862
40
4.32862
40
4.32862
10
-36.098
20
62.0763
30
0
10
-35.8273
20
63.0866
30
0
10
-35.5342
20
64.1803
30
0
0
SPLINE
8
0
6
BYBLOCK
62
0
5
2786
100
AcDbEntity
100
AcDbSpline
70
0
71
3
72
29
73
25
74
0
40
1.18703
40
1.18703
40
1.18703
40
1.18703
40
1.2182
40
1.2182
40
1.2182
40
1.24937
40
1.24937
40
1.24937
40
1.28055
40
1.28055
40
1.28055
40
1.31172
40
1.31172
40
1.31172
40
1.3429
40
1.3429
40
1.3429
40
1.37407
40
1.37407
40
1.37407
40
1.40524
40
1.40524
40
1.40524
40
1.62346
40
1.62346
40
1.62346
40
1.62346
10
-35.5342
20
64.1803
30
0
10
-36.0693
20
64.3237
30
0
10
-36.6043
20
64.467
30
0
10
-37.1393
20
64.6104
30
0
10
-37.6805
20
64.7554
30
0
10
-38.2217
20
64.9004
30
0
10
-38.7629
20
65.0454
30
0
10
-39.3097
20
65.1919
30
0
10
-39.8566
20
65.3385
30
0
10
-40.4034
20
65.485
30
0
10
-40.9554
20
65.6329
30
0
10
-41.5073
20
65.7808
30
0
10
-42.0593
20
65.9287
30
0
10
-42.6158
20
66.0778
30
0
10
-43.1724
20
66.2269
30
0
10
-43.7289
20
66.376
30
0
10
-44.2895
20
66.5263
30
0
10
-44.8501
20
66.6765
30
0
10
-45.4106
20
66.8267
30
0
10
-45.9747
20
66.9778
30
0
10
-46.5388
20
67.129
30
0
10
-47.1028
20
67.2801
30
0
10
-51.0638
20
68.3414
30
0
10
-55.0933
20
69.4211
30
0
10
-59.1028
20
70.4955
30
0
0
SPLINE
8
0
6
BYBLOCK
62
0
5
2787
100
AcDbEntity
100
AcDbSpline
70
0
71
1
72
17
73
15
74
0
40
5.70323
40
5.70323
40
5.74466
40
5.78608
40
5.82751
40
5.86893
40
5.91036
40
5.95178
40
5.99321
40
6.03463
40
6.07606
40
6.11748
40
6.15891
40
6.20033
40
6.24176
40
6.28318
40
6.28318
10
-73.3379
20
17.3696
30
0
10
-73.2508
20
17.6945
30
0
10
-73.1696
20
17.9977
30
0
10
-73.0943
20
18.2786
30
0
10
-73.0251
20
18.5367
30
0
10
-72.9622
20
18.7716
30
0
10
-72.9056
20
18.9829
30
0
10
-72.8554
20
19.1701
30
0
10
-72.8117
20
19.3331
30
0
10
-72.7747
20
19.4714
30
0
10
-72.7443
20
19.585
30
0
10
-72.7205
20
19.6735
30
0
10
-72.7036
20
19.7368
30
0
10
-72.6934
20
19.7748
30
0
10
-72.69
20
19.7875
30
0
0
LINE
8
0
6
BYBLOCK
62
0
5
2788
100
AcDbEntity
100
AcDbLine
10
-72.69
20
19.7875
30
0
11
-63.2737
21
54.9295
31
0
0
SPLINE
8
0
6
BYBLOCK
62
0
5
2789
100
AcDbEntity
100
AcDbSpline
70
0
71
1
72
17
73
15
74
0
40
3.14159
40
3.14159
40
3.25755
40
3.37352
40
3.48948
40
3.60544
40
3.7214
40
3.83736
40
3.95332
40
4.06929
40
4.18525
40
4.30121
40
4.41717
40
4.53313
40
4.64909
40
4.76506
40
4.76506
10
-63.2737
20
54.9295
30
0
10
-63.2471
20
55.0288
30
0
10
-63.1676
20
55.3254
30
0
10
-63.0363
20
55.8154
30
0
10
-62.855
20
56.492
30
0
10
-62.6261
20
57.3463
30
0
10
-62.3527
20
58.3667
30
0
10
-62.0384
20
59.5396
30
0
10
-61.6875
20
60.8492
30
0
10
-61.3047
20
62.278
30
0
10
-60.8951
20
63.8066
30
0
10
-60.4642
20
65.4146
30
0
10
-60.0179
20
67.0804
30
0
10
-59.562
20
68.7817
30
0
10
-59.1028
20
70.4955
30
0
0
ELLIPSE
8
0
6
BYBLOCK
62
0
5
278a
100
AcDbEntity
100
AcDbEllipse
10
-66.2203
20
43.9325
30
0
11
1.16469
21
4.34667
31
0
40
1.43934e-07
41
3.8567e-08
42
3.14159
0
ELLIPSE
8
0
6
BYBLOCK
62
0
5
278b
100
AcDbEntity
100
AcDbEllipse
10
-66.2203
20
43.9325
30
0
11
1.16469
21
4.34667
31
0
40
1.43934e-07
41
3.14159
42
6.28319
0
SPLINE
8
0
6
BYBLOCK
62
0
5
278c
100
AcDbEntity
100
AcDbSpline
70
0
71
1
72
17
73
15
74
0
40
3.72155
40
3.72155
40
3.76219
40
3.80284
40
3.84348
40
3.88412
40
3.92477
40
3.96541
40
4.00606
40
4.0467
40
4.08734
40
4.12799
40
4.16863
40
4.20928
40
4.24992
40
4.29057
40
4.29057
10
-73.3379
20
17.3696
30
0
10
-72.0709
20
17.0301
30
0
10
-70.7298
20
16.6707
30
0
10
-69.3168
20
16.2921
30
0
10
-67.8341
20
15.8948
30
0
10
-66.2843
20
15.4796
30
0
10
-64.6699
20
15.047
30
0
10
-62.9935
20
14.5978
30
0
10
-61.258
20
14.1328
30
0
10
-59.4662
20
13.6527
30
0
10
-57.6211
20
13.1583
30
0
10
-55.7256
20
12.6504
30
0
10
-53.783
20
12.1299
30
0
10
-51.7965
20
11.5976
30
0
10
-49.7693
20
11.0544
30
0
0
SPLINE
8
0
6
BYBLOCK
62
0
5
278d
100
AcDbEntity
100
AcDbSpline
70
0
71
1
72
4
73
2
74
0
40
0.425019
40
0.425019
40
0.972998
40
0.972998
10
-59.542
20
19.7875
30
0
10
-72.69
20
19.7875
30
0
0
SPLINE
8
0
6
BYBLOCK
62
0
5
278e
100
AcDbEntity
100
AcDbSpline
70
0
71
3
72
23
73
19
74
0
40
0.0301402
40
0.0301402
40
0.0301402
40
0.0301402
40
0.0456995
40
0.0456995
40
0.0456995
40
0.122945
40
0.122945
40
0.122945
40
0.237421
40
0.237421
40
0.237421
40
0.353707
40
0.353707
40
0.353707
40
0.443342
40
0.443342
40
0.443342
40
0.502472
40
0.502472
40
0.502472
40
0.502472
10
-49.3442
20
12.6407
30
0
10
-49.5233
20
12.664
30
0
10
-49.7041
20
12.6943
30
0
10
-49.8866
20
12.7314
30
0
10
-50.7914
20
12.9137
30
0
10
-51.657
20
13.2675
30
0
10
-52.417
20
13.6794
30
0
10
-53.5415
20
14.2899
30
0
10
-54.514
20
15.0305
30
0
10
-55.4014
20
15.7742
30
0
10
-56.2997
20
16.5313
30
0
10
-57.1101
20
17.3044
30
0
10
-57.8134
20
18.0027
30
0
10
-58.351
20
18.5372
30
0
10
-58.8297
20
19.0349
30
0
10
-59.1652
20
19.3882
30
0
10
-59.3848
20
19.6194
30
0
10
-59.5422
20
19.7878
30
0
10
-59.542
20
19.7875
30
0
0
SPLINE
8
0
6
BYBLOCK
62
0
5
278f
100
AcDbEntity
100
AcDbSpline
70
0
71
3
72
29
73
25
74
0
40
0.0499124
40
0.0499124
40
0.0499124
40
0.0499124
40
0.166998
40
0.166998
40
0.166998
40
0.284084
40
0.284084
40
0.284084
40
0.407852
40
0.407852
40
0.407852
40
0.644183
40
0.644183
40
0.644183
40
0.734024
40
0.734024
40
0.734024
40
0.823864
40
0.823864
40
0.823864
40
0.915466
40
0.915466
40
0.915466
40
1
40
1
40
1
40
1
10
-36.098
20
62.0763
30
0
10
-36.9014
20
61.9775
30
0
10
-37.659
20
61.7825
30
0
10
-38.3814
20
61.5444
30
0
10
-39.1045
20
61.3049
30
0
10
-39.7913
20
61.0222
30
0
10
-40.4681
20
60.7126
30
0
10
-41.1831
20
60.382
30
0
10
-41.8779
20
60.0323
30
0
10
-42.5526
20
59.6634
30
0
10
-43.8398
20
58.964
30
0
10
-45.0688
20
58.2197
30
0
10
-46.2268
20
57.4908
30
0
10
-46.6651
20
57.2144
30
0
10
-47.0891
20
56.9429
30
0
10
-47.4989
20
56.6765
30
0
10
-47.9083
20
56.4107
30
0
10
-48.3047
20
56.1498
30
0
10
-48.6695
20
55.9075
30
0
10
-49.0392
20
55.6621
30
0
10
-49.3835
20
55.431
30
0
10
-49.6609
20
55.244
30
0
10
-49.9112
20
55.0752
30
0
10
-50.1223
20
54.9318
30
0
10
-50.1257
20
54.9295
30
0
0
SPLINE
8
0
6
BYBLOCK
62
0
5
2790
100
AcDbEntity
100
AcDbSpline
70
0
71
1
72
4
73
2
74
0
40
0.0847049
40
0.0847049
40
0.79449
40
0.79449
10
-59.542
20
19.7875
30
0
10
-50.1257
20
54.9295
30
0
0
SPLINE
8
0
6
BYBLOCK
62
0
5
2791
100
AcDbEntity
100
AcDbSpline
70
0
71
1
72
4
73
2
74
0
40
3.02272e-08
40
3.02272e-08
40
0.473982
40
0.473982
10
-63.2737
20
54.9295
30
0
10
-50.1257
20
54.9295
30
0
0
LINE
8
0
6
BYBLOCK
62
0
5
2792
100
AcDbEntity
100
AcDbLine
10
-65.0557
20
48.2792
30
0
11
-65.0557
21
48.2792
31
0
0
LINE
8
0
6
BYBLOCK
62
0
5
2793
100
AcDbEntity
100
AcDbLine
10
-24.2688
20
4.22155
30
0
11
-10.0338
21
57.3475
31
0
0
LINE
8
0
6
BYBLOCK
62
0
5
2794
100
AcDbEntity
100
AcDbLine
10
-10.0338
20
57.3475
30
0
11
-15
21
58.6782
31
0
0
SPLINE
8
0
6
BYBLOCK
62
0
5
2795
100
AcDbEntity
100
AcDbSpline
70
0
71
1
72
17
73
15
74
0
40
0.72801
40
0.72801
40
0.758079
40
0.788148
40
0.818216
40
0.848285
40
0.878354
40
0.908423
40
0.938491
40
0.96856
40
0.998629
40
1.0287
40
1.05877
40
1.08883
40
1.1189
40
1.14897
40
1.14897
10
-15
20
58.6782
30
0
10
-16.1226
20
58.979
30
0
10
-17.2815
20
59.2895
30
0
10
-18.4755
20
59.6094
30
0
10
-19.7036
20
59.9385
30
0
10
-20.9647
20
60.2764
30
0
10
-22.2577
20
60.6229
30
0
10
-23.5814
20
60.9775
30
0
10
-24.9345
20
61.3401
30
0
10
-26.3159
20
61.7103
30
0
10
-27.7243
20
62.0876
30
0
10
-29.1585
20
62.4719
30
0
10
-30.6171
20
62.8628
30
0
10
-32.0989
20
63.2598
30
0
10
-33.6024
20
63.6627
30
0
0
SPLINE
8
0
6
BYBLOCK
62
0
5
2796
100
AcDbEntity
100
AcDbSpline
70
0
71
3
72
26
73
22
74
0
40
4.32862
40
4.32862
40
4.32862
40
4.32862
40
4.35237
40
4.35237
40
4.35237
40
4.37612
40
4.37612
40
4.37612
40
4.39988
40
4.39988
40
4.39988
40
4.42363
40
4.42363
40
4.42363
40
4.44738
40
4.44738
40
4.44738
40
4.49489
40
4.49489
40
4.49489
40
4.66116
40
4.66116
40
4.66116
40
4.66116
10
-47.8374
20
10.5367
30
0
10
-47.4304
20
10.4277
30
0
10
-47.0233
20
10.3186
30
0
10
-46.6162
20
10.2095
30
0
10
-46.2055
20
10.0995
30
0
10
-45.7947
20
9.98939
30
0
10
-45.384
20
9.87934
30
0
10
-44.9698
20
9.76836
30
0
10
-44.5557
20
9.65739
30
0
10
-44.1415
20
9.54642
30
0
10
-43.7242
20
9.43459
30
0
10
-43.3068
20
9.32276
30
0
10
-42.8895
20
9.21093
30
0
10
-42.4692
20
9.09831
30
0
10
-42.0488
20
8.98569
30
0
10
-41.6285
20
8.87307
30
0
10
-40.7839
20
8.64674
30
0
10
-39.9354
20
8.41938
30
0
10
-39.083
20
8.19098
30
0
10
-36.0953
20
7.39043
30
0
10
-33.0547
20
6.5757
30
0
10
-30
20
5.75721
30
0
0
LINE
8
0
6
BYBLOCK
62
0
5
2797
100
AcDbEntity
100
AcDbLine
10
-30
20
5.75721
30
0
11
-24.2688
21
4.22155
31
0
0
LINE
8
0
6
BYBLOCK
62
0
5
2798
100
AcDbEntity
100
AcDbLine
10
-30
20
19.7875
30
0
11
-30
21
5.75721
31
0
0
LINE
8
0
6
BYBLOCK
62
0
5
2799
100
AcDbEntity
100
AcDbLine
10
-15
20
58.6782
30
0
11
-15
21
54.9295
31
0
0
LINE
8
0
6
BYBLOCK
62
0
5
279a
100
AcDbEntity
100
AcDbLine
10
-23.8297
20
54.9295
30
0
11
-15
21
54.9295
31
0
0
LINE
8
0
6
BYBLOCK
62
0
5
279b
100
AcDbEntity
100
AcDbLine
10
-33.246
20
19.7875
30
0
11
-23.8297
21
54.9295
31
0
0
LINE
8
0
6
BYBLOCK
62
0
5
279c
100
AcDbEntity
100
AcDbLine
10
-30
20
19.7875
30
0
11
-33.246
21
19.7875
31
0
0
SPLINE
8
0
6
BYBLOCK
62
0
5
279d
100
AcDbEntity
100
AcDbSpline
70
0
71
3
72
26
73
22
74
0
40
0.502468
40
0.502468
40
0.502468
40
0.502468
40
0.541056
40
0.541056
40
0.541056
40
0.600609
40
0.600609
40
0.600609
40
0.65055
40
0.65055
40
0.65055
40
0.764951
40
0.764951
40
0.764951
40
0.879942
40
0.879942
40
0.879942
40
0.953239
40
0.953239
40
0.953239
40
0.970106
40
0.970106
40
0.970106
40
0.970106
10
-23.8297
20
54.9295
30
0
10
-23.8292
20
54.929
30
0
10
-23.8981
20
55.0026
30
0
10
-24.0067
20
55.1178
30
0
10
-24.1749
20
55.2961
30
0
10
-24.4322
20
55.5674
30
0
10
-24.7307
20
55.8755
30
0
10
-24.984
20
56.1375
30
0
10
-25.2638
20
56.421
30
0
10
-25.5699
20
56.7258
30
0
10
-26.2706
20
57.4212
30
0
10
-27.0771
20
58.1901
30
0
10
-27.9706
20
58.9431
30
0
10
-28.8718
20
59.6982
30
0
10
-29.8605
20
60.4505
30
0
10
-31.0074
20
61.066
30
0
10
-31.7396
20
61.4577
30
0
10
-32.5676
20
61.7942
30
0
10
-33.4343
20
61.9751
30
0
10
-33.634
20
62.0171
30
0
10
-33.8317
20
62.0508
30
0
10
-34.0274
20
62.0763
30
0
0
SPLINE
8
0
6
BYBLOCK
62
0
5
279e
100
AcDbEntity
100
AcDbSpline
70
0
71
2
72
6
73
3
74
0
40
1.99262
40
1.99262
40
1.99262
40
2.11379
40
2.11379
40
2.11379
10
-33.6024
20
63.6627
30
0
10
-33.8216
20
62.8444
30
0
10
-34.0274
20
62.0763
30
0
0
LINE
8
0
6
BYBLOCK
62
0
5
279f
100
AcDbEntity
100
AcDbLine
10
-47.2737
20
12.6407
30
0
11
-34.0274
21
62.0763
31
0
0
SPLINE
8
0
6
BYBLOCK
62
0
5
27a0
100
AcDbEntity
100
AcDbSpline
70
0
71
2
72
6
73
3
74
0
40
1.02781
40
1.02781
40
1.02781
40
1.18703
40
1.18703
40
1.18703
10
-47.2737
20
12.6407
30
0
10
-47.5444
20
11.6304
30
0
10
-47.8374
20
10.5367
30
0
0
SPLINE
8
0
6
BYBLOCK
62
0
5
27a1
100
AcDbEntity
100
AcDbSpline
70
0
71
3
72
29
73
25
74
0
40
0
40
0
40
0
40
0
40
0.0674516
40
0.0674516
40
0.0674516
40
0.124845
40
0.124845
40
0.124845
40
0.21745
40
0.21745
40
0.21745
40
0.406106
40
0.406106
40
0.406106
40
0.594763
40
0.594763
40
0.594763
40
0.731214
40
0.731214
40
0.731214
40
0.867665
40
0.867665
40
0.867665
40
0.950411
40
0.950411
40
0.950411
40
0.950411
10
-33.246
20
19.7875
30
0
10
-33.2468
20
19.787
30
0
10
-33.3849
20
19.6931
30
0
10
-33.5619
20
19.5735
30
0
10
-33.714
20
19.4707
30
0
10
-33.9001
20
19.3453
30
0
10
-34.1031
20
19.2092
30
0
10
-34.4326
20
18.9883
30
0
10
-34.8068
20
18.7392
30
0
10
-35.2014
20
18.4795
30
0
10
-36.0103
20
17.9472
30
0
10
-36.9314
20
17.353
30
0
10
-37.872
20
16.7726
30
0
10
-38.8176
20
16.1897
30
0
10
-39.7857
20
15.6151
30
0
10
-40.821
20
15.0525
30
0
10
-41.5711
20
14.6459
30
0
10
-42.3341
20
14.2579
30
0
10
-43.1315
20
13.9013
30
0
10
-43.9284
20
13.546
30
0
10
-44.76
20
13.2213
30
0
10
-45.6302
20
12.977
30
0
10
-46.1577
20
12.8294
30
0
10
-46.7034
20
12.7106
30
0
10
-47.2737
20
12.6407
30
0
0
LINE
8
0
6
BYBLOCK
62
0
5
27a2
100
AcDbEntity
100
AcDbLine
10
-25.4
20
0
30
0
11
-9.8e-17
21
0
31
0
0
LINE
8
0
6
BYBLOCK
62
0
5
27a3
100
AcDbEntity
100
AcDbLine
10
-8.73258
20
62.2037
30
0
11
-25.4
21
-4.44089e-16
31
0
0
LINE
8
0
6
BYBLOCK
62
0
5
27a4
100
AcDbEntity
100
AcDbLine
10
-9.8e-17
20
0
30
0
11
-9.8e-17
21
62.2037
31
0
0
LINE
8
0
6
BYBLOCK
62
0
5
27a5
100
AcDbEntity
100
AcDbLine
10
0
20
62.2037
30
0
11
-8.73258
21
62.2037
31
0
0
ENDBLK
5
27a6
100
AcDbEntity
8
0
100
AcDbBlockEnd
0
BLOCK
5
27a7
100
AcDbEntity
8
0
100
AcDbBlockBegin
2
ArchView0022
70
0
10
0
20
0
3
ArchView0022
1

0
SPLINE
8
0
6
BYBLOCK
62
0
5
27a8
100
AcDbEntity
100
AcDbSpline
70
0
71
1
72
4
73
2
74
0
40
0.425019
40
0.425019
40
0.972998
40
0.972998
10
-59.542
20
19.7875
30
0
10
-72.69
20
19.7875
30
0
0
LINE
8
0
6
BYBLOCK
62
0
5
27a9
100
AcDbEntity
100
AcDbLine
10
-72.69
20
19.7875
30
0
11
-63.2737
21
54.9295
31
0
0
SPLINE
8
0
6
BYBLOCK
62
0
5
27aa
100
AcDbEntity
100
AcDbSpline
70
0
71
1
72
4
73
2
74
0
40
3.02272e-08
40
3.02272e-08
40
0.473982
40
0.473982
10
-63.2737
20
54.9295
30
0
10
-50.1257
20
54.9295
30
0
0
SPLINE
8
0
6
BYBLOCK
62
0
5
27ab
100
AcDbEntity
100
AcDbSpline
70
0
71
1
72
4
73
2
74
0
40
0.20551
40
0.20551
40
0.915295
40
0.915295
10
-50.1257
20
54.9295
30
0
10
-59.542
20
19.7875
30
0
0
LINE
8
0
6
BYBLOCK
62
0
5
27ac
100
AcDbEntity
100
AcDbLine
10
-33.246
20
19.7875
30
0
11
-30
21
19.7875
31
0
0
LINE
8
0
6
BYBLOCK
62
0
5
27ad
100
AcDbEntity
100
AcDbLine
10
-30
20
19.7875
30
0
11
-30
21
5.75721
31
0
0
LINE
8
0
6
BYBLOCK
62
0
5
27ae
100
AcDbEntity
100
AcDbLine
10
-30
20
5.75721
30
0
11
-24.2688
21
4.22155
31
0
0
LINE
8
0
6
BYBLOCK
62
0
5
27af
100
AcDbEntity
100
AcDbLine
10
-24.2688
20
4.22155
30
0
11
-10.0338
21
57.3475
31
0
0
LINE
8
0
6
BYBLOCK
62
0
5
27b0
100
AcDbEntity
100
AcDbLine
10
-10.0338
20
57.3475
30
0
11
-15
21
58.6782
31
0
0
LINE
8
0
6
BYBLOCK
62
0
5
27b1
100
AcDbEntity
100
AcDbLine
10
-15
20
58.6782
30
0
11
-15
21
54.9295
31
0
0
LINE
8
0
6
BYBLOCK
62
0
5
27b2
100
AcDbEntity
100
AcDbLine
10
-15
20
54.9295
30
0
11
-23.8297
21
54.9295
31
0
0
LINE
8
0
6
BYBLOCK
62
0
5
27b3
100
AcDbEntity
100
AcDbLine
10
-23.8297
20
54.9295
30
0
11
-33.246
21
19.7875
31
0
0
LINE
8
0
6
BYBLOCK
62
0
5
27b4
100
AcDbEntity
100
AcDbLine
10
-8.73258
20
62.2037
30
0
11
-25.4
21
-4.44089e-16
31
0
0
LINE
8
0
6
BYBLOCK
62
0
5
27b5
100
AcDbEntity
100
AcDbLine
10
-25.4
20
0
30
0
11
-9.8e-17
21
0
31
0
0
LINE
8
0
6
BYBLOCK
62
0
5
27b6
100
AcDbEntity
100
AcDbLine
10
-9.8e-17
20
0
30
0
11
-9.8e-17
21
62.2037
31
0
0
LINE
8
0
6
BYBLOCK
62
0
5
27b7
100
AcDbEntity
100
AcDbLine
10
0
20
62.2037
30
0
11
-8.73258
21
62.2037
31
0
0
ENDBLK
5
27b8
100
AcDbEntity
8
0
100
AcDbBlockEnd
0
ENDSEC
0
SECTION
2
ENTITIES
0
INSERT
5
27b9
8
0
6
BYLAYER
62
256
2
ArchView1
10
86.0978647687
20
-73.6120996441
30
0
41
1.0
42
1.0
43
1.0
50
0.0
0
INSERT
5
27ba
8
0
6
BYLAYER
62
256
2
ArchView0011
10
85.7241992883
20
-161.423487544
30
0
41
1.0
42
1.0
43
1.0
50
0.0
0
INSERT
5
27bb
8
0
6
BYLAYER
62
256
2
ArchView0021
10
186.206698217
20
-127.150870024
30
0
41
1.0
42
1.0
43
1.0
50
-270.0
0
INSERT
5
27bc
8
0
6
BYLAYER
62
256
2
ArchView0022
10
186.206698217
20
-127.150870024
30
0
41
1.0
42
1.0
43
1.0
50
-270.0
0
ENDSEC
0
EOF