999
dxfrw 0.6.3
  0
SECTION
  2
HEADER
  9
$ACADVER
  1
AC1021
  9
$DWGCODEPAGE
  3
ANSI_1252
  9
$INSBASE
 10
0
 20
0
 30
0
  9
$EXTMIN
 10
-84.84922729954849
 20
-51.18052536595172
 30
0
  9
$EXTMAX
 10
30.75114065732311
 20
17.83691713485167
 30
0
  9
$LIMMIN
 10
0
 20
0
  9
$LIMMAX
 10
420
 20
297
  9
$ORTHOMODE
 70
    0
  9
$REGENMODE
 70
    1
  9
$FILLMODE
 70
    1
  9
$QTEXTMODE
 70
    0
  9
$MIRRTEXT
 70
    0
  9
$LTSCALE
 40
1
  9
$ATTMODE
 70
    0
  9
$TEXTSIZE
 40
2.5
  9
$TRACEWID
 40
15.68
  9
$TEXTSTYLE
  7
STANDARD
  9
$CLAYER
  8
dimension
  9
$CELTYPE
  6
BYLAYER
  9
$CECOLOR
 62
  256
  9
$CELTSCALE
 40
1
  9
$DISPSILH
 70
    0
  9
$DIMSCALE
 40
1
  9
$DIMASZ
 40
2.5
  9
$DIMEXO
 40
0.625
  9
$DIMDLI
 40
3.75
  9
$DIMRND
 40
0
  9
$DIMDLE
 40
0
  9
$DIMEXE
 40
1.25
  9
$DIMTP
 40
0
  9
$DIMTM
 40
0
  9
$DIMTXT
 40
2.5
  9
$DIMCEN
 40
2.5
  9
$DIMTSZ
 40
0
  9
$DIMTOL
 70
    0
  9
$DIMLIM
 70
    0
  9
$DIMTIH
 70
    1
  9
$DIMTOH
 70
    0
  9
$DIMSE1
 70
    0
  9
$DIMSE2
 70
    0
  9
$DIMTAD
 70
    1
  9
$DIMZIN
 70
    0
  9
$DIMBLK
  1

  9
$DIMASO
 70
    1
  9
$DIMSHO
 70
    1
  9
$DIMPOST
  1

  9
$DIMAPOST
  1

  9
$DIMALT
 70
    0
  9
$DIMALTD
 70
    3
  9
$DIMALTF
 40
0.03937
  9
$DIMLFAC
 40
1
  9
$DIMTOFL
 70
    1
  9
$DIMTVP
 40
0
  9
$DIMTIX
 70
    0
  9
$DIMSOXD
 70
    0
  9
$DIMSAH
 70
    0
  9
$DIMBLK1
  1

  9
$DIMBLK2
  1

  9
$DIMSTYLE
  2
STANDARD
  9
$DIMCLRD
 70
    0
  9
$DIMCLRE
 70
    0
  9
$DIMCLRT
 70
    0
  9
$DIMTFAC
 40
1
  9
$DIMGAP
 40
0.625
  9
$DIMJUST
 70
    0
  9
$DIMSD1
 70
    0
  9
$DIMSD2
 70
    0
  9
$DIMTOLJ
 70
    0
  9
$DIMTZIN
 70
    8
  9
$DIMALTZ
 70
    0
  9
$DIMALTTZ
 70
    0
  9
$DIMUPT
 70
    0
  9
$DIMDEC
 70
    1
  9
$DIMTDEC
 70
    2
  9
$DIMALTU
 70
    2
  9
$DIMALTTD
 70
    3
  9
$DIMTXSTY
  7
iso
  9
$DIMAUNIT
 70
    0
  9
$DIMADEC
 70
    0
  9
$DIMALTRND
 40
0
  9
$DIMAZIN
 70
    0
  9
$DIMDSEP
 70
    0
  9
$DIMATFIT
 70
    3
  9
$DIMFRAC
 70
    0
  9
$DIMLDRBLK
  1
STANDARD
  9
$DIMLUNIT
 70
    2
  9
$DIMLWD
 70
   -2
  9
$DIMLWE
 70
   -2
  9
$DIMTMOVE
 70
    0
  9
$DIMFXL
 40
1
  9
$DIMFXLON
 70
    0
  9
$DIMJOGANG
 40
0.7854
  9
$DIMTFILL
 70
    0
  9
$DIMTFILLCLR
 70
    0
  9
$DIMARCSYM
 70
    0
  9
$DIMLTYPE
  6

  9
$DIMLTEX1
  6

  9
$DIMLTEX2
  6

  9
$LUNITS
 70
    2
  9
$LUPREC
 70
    2
  9
$SKETCHINC
 40
1
  9
$FILLETRAD
 40
0
  9
$AUNITS
 70
    0
  9
$AUPREC
 70
    2
  9
$MENU
  1
.
  9
$ELEVATION
 40
0
  9
$PELEVATION
 40
0
  9
$THICKNESS
 40
0
  9
$LIMCHECK
 70
    0
  9
$CHAMFERA
 40
0
  9
$CHAMFERB
 40
0
  9
$CHAMFERC
 40
0
  9
$CHAMFERD
 40
0
  9
$SKPOLY
 70
    0
  9
$USRTIMER
 70
    1
  9
$ANGBASE
 50
0
  9
$ANGDIR
 70
    0
  9
$PDMODE
 70
   34
  9
$PDSIZE
 40
0
  9
$PLINEWID
 40
0
  9
$SPLFRAME
 70
    0
  9
$SPLINETYPE
 70
    2
  9
$SPLINESEGS
 70
    8
  9
$HANDSEED
  5
20000
  9
$SURFTAB1
 70
    6
  9
$SURFTAB2
 70
    6
  9
$SURFTYPE
 70
    6
  9
$SURFU
 70
    6
  9
$SURFV
 70
    6
  9
$UCSBASE
  2

  9
$UCSNAME
  2

  9
$UCSORG
 10
0
 20
0
 30
0
  9
$UCSXDIR
 10
1
 20
0
 30
0
  9
$UCSYDIR
 10
0
 20
1
 30
0
  9
$UCSORTHOREF
  2

  9
$UCSORTHOVIEW
 70
    0
  9
$UCSORGTOP
 10
0
 20
0
 30
0
  9
$UCSORGBOTTOM
 10
0
 20
0
 30
0
  9
$UCSORGLEFT
 10
0
 20
0
 30
0
  9
$UCSORGRIGHT
 10
0
 20
0
 30
0
  9
$UCSORGFRONT
 10
0
 20
0
 30
0
  9
$UCSORGBACK
 10
0
 20
0
 30
0
  9
$PUCSBASE
  2

  9
$PUCSNAME
  2

  9
$PUCSORG
 10
0
 20
0
 30
0
  9
$PUCSXDIR
 10
1
 20
0
 30
0
  9
$PUCSYDIR
 10
0
 20
1
 30
0
  9
$PUCSORTHOREF
  2

  9
$PUCSORTHOVIEW
 70
    0
  9
$PUCSORGTOP
 10
0
 20
0
 30
0
  9
$PUCSORGBOTTOM
 10
0
 20
0
 30
0
  9
$PUCSORGLEFT
 10
0
 20
0
 30
0
  9
$PUCSORGRIGHT
 10
0
 20
0
 30
0
  9
$PUCSORGFRONT
 10
0
 20
0
 30
0
  9
$PUCSORGBACK
 10
0
 20
0
 30
0
  9
$USERI1
 70
    0
  9
$USERI2
 70
    0
  9
$USERI3
 70
    0
  9
$USERI4
 70
    0
  9
$USERI5
 70
    0
  9
$USERR1
 40
0
  9
$USERR2
 40
0
  9
$USERR3
 40
0
  9
$USERR4
 40
0
  9
$USERR5
 40
0
  9
$WORLDVIEW
 70
    1
  9
$SHADEDGE
 70
    3
  9
$SHADEDIF
 70
   70
  9
$TILEMODE
 70
    1
  9
$MAXACTVP
 70
   64
  9
$PINSBASE
 10
175.5490433211127
 20
121.67180411555
 30
0
  9
$PLIMCHECK
 70
    0
  9
$PEXTMIN
 10
0
 20
0
 30
0
  9
$PEXTMAX
 10
0
 20
0
 30
0
  9
$GRIDMODE
 70
    0
  9
$SNAPSTYLE
 70
    0
  9
$GRIDUNIT
 10
0
 20
0
  9
$PLIMMIN
 10
0
 20
0
  9
$PLIMMAX
 10
297
 20
210
  9
$UNITMODE
 70
    0
  9
$VISRETAIN
 70
    1
  9
$PLINEGEN
 70
    0
  9
$PSLTSCALE
 70
    1
  9
$TREEDEPTH
 70
 3020
  9
$CMLSTYLE
  2
Standard
  9
$CMLJUST
 70
    0
  9
$CMLSCALE
 40
20
  9
$PROXYGRAPHICS
 70
    1
  9
$MEASUREMENT
 70
    1
  9
$CELWEIGHT
370
   -1
  9
$ENDCAPS
280
    0
  9
$JOINSTYLE
280
    0
  9
$LWDISPLAY
290
    0
  9
$INSUNITS
 70
    4
  9
$HYPERLINKBASE
  1

  9
$STYLESHEET
  1

  9
$XEDIT
290
    1
  9
$CEPSNTYPE
380
    0
  9
$PSTYLEMODE
290
    1
  9
$EXTNAMES
290
    1
  9
$PSVPSCALE
 40
1
  9
$OLESTARTUP
290
    0
  9
$SORTENTS
280
  127
  9
$INDEXCTL
280
    0
  9
$HIDETEXT
280
    1
  9
$XCLIPFRAME
290
    0
  9
$HALOGAP
280
    0
  9
$OBSCOLOR
 70
  257
  9
$OBSLTYPE
280
    0
  9
$INTERSECTIONDISPLAY
280
    0
  9
$INTERSECTIONCOLOR
 70
  257
  9
$DIMASSOC
280
    1
  9
$PROJECTNAME
  1

  9
$CAMERADISPLAY
290
    0
  9
$LENSLENGTH
 40
50
  9
$CAMERAHEIGHT
 40
0
  9
$STEPSPERSEC
 40
2
  9
$STEPSIZE
 40
50
  9
$3DDWFPREC
 40
2
  9
$PSOLWIDTH
 40
5
  9
$PSOLHEIGHT
 40
80
  9
$LOFTANG1
 40
1.570796326794897
  9
$LOFTANG2
 40
1.570796326794897
  9
$LOFTMAG1
 40
0
  9
$LOFTMAG2
 40
0
  9
$LOFTPARAM
 70
    7
  9
$LOFTNORMALS
280
    1
  9
$LATITUDE
 40
1
  9
$LONGITUDE
 40
1
  9
$NORTHDIRECTION
 40
0
  9
$TIMEZONE
 70
-8000
  9
$LIGHTGLYPHDISPLAY
280
    1
  9
$TILEMODELIGHTSYNCH
280
    1
  9
$SOLIDHIST
280
    1
  9
$SHOWHIST
280
    1
  9
$DWFFRAME
280
    2
  9
$DGNFRAME
280
    0
  9
$REALWORLDSCALE
290
    1
  9
$INTERFERECOLOR
 62
    1
  9
$CSHADOW
280
    0
  9
$SHADOWPLANELOCATION
 40
0
  0
ENDSEC
  0
SECTION
  2
CLASSES
  0
ENDSEC
  0
SECTION
  2
TABLES
  0
TABLE
  2
VPORT
  5
8
330
0
100
AcDbSymbolTable
 70
    1
  0
VPORT
  5
31
330
2
100
AcDbSymbolTableRecord
100
AcDbViewportTableRecord
  2
*ACTIVE
 70
    0
 10
0
 20
0
 11
1
 21
1
 12
32.72378739262233
 22
14.72570432668005
 13
0
 23
0
 14
10
 24
10
 15
10
 25
10
 16
0
 26
0
 36
1
 17
0
 27
0
 37
0
 40
69.01744250080347
 41
2.189655172413793
 42
50
 43
0
 44
0
 50
0
 51
0
 71
    0
 72
  100
 73
    1
 74
    3
 75
    0
 76
    0
 77
    0
 78
    0
281
    0
 65
    1
110
0
120
0
130
0
111
1
121
0
131
0
112
0
122
1
132
0
 79
    0
146
0
348
10020
 60
    7
 61
    5
292
1
282
    1
141
0
142
0
 63
  250
421
3358443
  0
ENDTAB
  0
TABLE
  2
LTYPE
  5
5
330
0
100
AcDbSymbolTable
 70
    4
  0
LTYPE
  5
14
330
5
100
AcDbSymbolTableRecord
100
AcDbLinetypeTableRecord
  2
ByBlock
 70
    0
  3

 72
   65
 73
    0
 40
0
  0
LTYPE
  5
15
330
5
100
AcDbSymbolTableRecord
100
AcDbLinetypeTableRecord
  2
ByLayer
 70
    0
  3

 72
   65
 73
    0
 40
0
  0
LTYPE
  5
16
330
5
100
AcDbSymbolTableRecord
100
AcDbLinetypeTableRecord
  2
Continuous
 70
    0
  3
Solid line
 72
   65
 73
    0
 40
0
  0
LTYPE
  5
32
330
5
100
AcDbSymbolTableRecord
100
AcDbLinetypeTableRecord
  2
DOT
 70
    0
  3
Dot . . . . . . . . . . . . . . . . . . . . . .
 72
   65
 73
    2
 40
6.35
 49
0
 74
    0
 49
-6.35
 74
    0
  0
LTYPE
  5
33
330
5
100
AcDbSymbolTableRecord
100
AcDbLinetypeTableRecord
  2
DOTTINY
 70
    0
  3
Dot (.15x) .....................................
 72
   65
 73
    2
 40
0.9525
 49
0
 74
    0
 49
-0.9525
 74
    0
  0
LTYPE
  5
34
330
5
100
AcDbSymbolTableRecord
100
AcDbLinetypeTableRecord
  2
DOT2
 70
    0
  3
Dot (.5x) .....................................
 72
   65
 73
    2
 40
3.175
 49
0
 74
    0
 49
-3.175
 74
    0
  0
LTYPE
  5
35
330
5
100
AcDbSymbolTableRecord
100
AcDbLinetypeTableRecord
  2
DOTX2
 70
    0
  3
Dot (2x) .  .  .  .  .  .  .  .  .  .  .  .  .
 72
   65
 73
    2
 40
12.7
 49
0
 74
    0
 49
-12.7
 74
    0
  0
LTYPE
  5
36
330
5
100
AcDbSymbolTableRecord
100
AcDbLinetypeTableRecord
  2
DASHED
 70
    0
  3
Dashed _ _ _ _ _ _ _ _ _ _ _ _ _ _ _ _ _
 72
   65
 73
    2
 40
19.05
 49
12.7
 74
    0
 49
-6.35
 74
    0
  0
LTYPE
  5
37
330
5
100
AcDbSymbolTableRecord
100
AcDbLinetypeTableRecord
  2
DASHEDTINY
 70
    0
  3
Dashed (.15x) _ _ _ _ _ _ _ _ _ _ _ _ _ _ _ _ _
 72
   65
 73
    2
 40
2.8575
 49
1.905
 74
    0
 49
-0.9525
 74
    0
  0
LTYPE
  5
38
330
5
100
AcDbSymbolTableRecord
100
AcDbLinetypeTableRecord
  2
DASHED2
 70
    0
  3
Dashed (.5x) _ _ _ _ _ _ _ _ _ _ _ _ _ _ _ _ _
 72
   65
 73
    2
 40
9.524999999999999
 49
6.35
 74
    0
 49
-3.175
 74
    0
  0
LTYPE
  5
39
330
5
100
AcDbSymbolTableRecord
100
AcDbLinetypeTableRecord
  2
DASHEDX2
 70
    0
  3
Dashed (2x) ____  ____  ____  ____  ____  ___
 72
   65
 73
    2
 40
38.09999999999999
 49
25.4
 74
    0
 49
-12.7
 74
    0
  0
LTYPE
  5
3A
330
5
100
AcDbSymbolTableRecord
100
AcDbLinetypeTableRecord
  2
DASHDOT
 70
    0
  3
Dash dot __ . __ . __ . __ . __ . __ . __ . __
 72
   65
 73
    4
 40
25.4
 49
12.7
 74
    0
 49
-6.35
 74
    0
 49
0
 74
    0
 49
-6.35
 74
    0
  0
LTYPE
  5
3B
330
5
100
AcDbSymbolTableRecord
100
AcDbLinetypeTableRecord
  2
DASHDOTTINY
 70
    0
  3
Dash dot (.15x) _._._._._._._._._._._._._._._.
 72
   65
 73
    4
 40
3.81
 49
1.905
 74
    0
 49
-0.9525
 74
    0
 49
0
 74
    0
 49
-0.9525
 74
    0
  0
LTYPE
  5
3C
330
5
100
AcDbSymbolTableRecord
100
AcDbLinetypeTableRecord
  2
DASHDOT2
 70
    0
  3
Dash dot (.5x) _._._._._._._._._._._._._._._.
 72
   65
 73
    4
 40
12.7
 49
6.35
 74
    0
 49
-3.175
 74
    0
 49
0
 74
    0
 49
-3.175
 74
    0
  0
LTYPE
  5
3D
330
5
100
AcDbSymbolTableRecord
100
AcDbLinetypeTableRecord
  2
DASHDOTX2
 70
    0
  3
Dash dot (2x) ____  .  ____  .  ____  .  ___
 72
   65
 73
    4
 40
50.8
 49
25.4
 74
    0
 49
-12.7
 74
    0
 49
0
 74
    0
 49
-12.7
 74
    0
  0
LTYPE
  5
3E
330
5
100
AcDbSymbolTableRecord
100
AcDbLinetypeTableRecord
  2
DIVIDE
 70
    0
  3
Divide ____ . . ____ . . ____ . . ____ . . ____
 72
   65
 73
    6
 40
31.75
 49
12.7
 74
    0
 49
-6.35
 74
    0
 49
0
 74
    0
 49
-6.35
 74
    0
 49
0
 74
    0
 49
-6.35
 74
    0
  0
LTYPE
  5
3F
330
5
100
AcDbSymbolTableRecord
100
AcDbLinetypeTableRecord
  2
DIVIDETINY
 70
    0
  3
Divide (.15x) __..__..__..__..__..__..__..__.._
 72
   65
 73
    6
 40
4.7625
 49
1.905
 74
    0
 49
-0.9525
 74
    0
 49
0
 74
    0
 49
-0.9525
 74
    0
 49
0
 74
    0
 49
-0.9525
 74
    0
  0
LTYPE
  5
40
330
5
100
AcDbSymbolTableRecord
100
AcDbLinetypeTableRecord
  2
DIVIDE2
 70
    0
  3
Divide (.5x) __..__..__..__..__..__..__..__.._
 72
   65
 73
    6
 40
15.875
 49
6.35
 74
    0
 49
-3.175
 74
    0
 49
0
 74
    0
 49
-3.175
 74
    0
 49
0
 74
    0
 49
-3.175
 74
    0
  0
LTYPE
  5
41
330
5
100
AcDbSymbolTableRecord
100
AcDbLinetypeTableRecord
  2
DIVIDEX2
 70
    0
  3
Divide (2x) ________  .  .  ________  .  .  _
 72
   65
 73
    6
 40
63.5
 49
25.4
 74
    0
 49
-12.7
 74
    0
 49
0
 74
    0
 49
-12.7
 74
    0
 49
0
 74
    0
 49
-12.7
 74
    0
  0
LTYPE
  5
42
330
5
100
AcDbSymbolTableRecord
100
AcDbLinetypeTableRecord
  2
BORDER
 70
    0
  3
Border __ __ . __ __ . __ __ . __ __ . __ __ .
 72
   65
 73
    6
 40
44.45
 49
12.7
 74
    0
 49
-6.35
 74
    0
 49
12.7
 74
    0
 49
-6.35
 74
    0
 49
0
 74
    0
 49
-6.35
 74
    0
  0
LTYPE
  5
43
330
5
100
AcDbSymbolTableRecord
100
AcDbLinetypeTableRecord
  2
BORDERTINY
 70
    0
  3
Border (.15x) __.__.__.__.__.__.__.__.__.__.__.
 72
   65
 73
    6
 40
6.6675
 49
1.905
 74
    0
 49
-0.9525
 74
    0
 49
1.905
 74
    0
 49
-0.9525
 74
    0
 49
0
 74
    0
 49
-0.9525
 74
    0
  0
LTYPE
  5
44
330
5
100
AcDbSymbolTableRecord
100
AcDbLinetypeTableRecord
  2
BORDER2
 70
    0
  3
Border (.5x) __.__.__.__.__.__.__.__.__.__.__.
 72
   65
 73
    6
 40
22.225
 49
6.35
 74
    0
 49
-3.175
 74
    0
 49
6.35
 74
    0
 49
-3.175
 74
    0
 49
0
 74
    0
 49
-3.175
 74
    0
  0
LTYPE
  5
45
330
5
100
AcDbSymbolTableRecord
100
AcDbLinetypeTableRecord
  2
BORDERX2
 70
    0
  3
Border (2x) ____  ____  .  ____  ____  .  ___
 72
   65
 73
    6
 40
88.89999999999999
 49
25.4
 74
    0
 49
-12.7
 74
    0
 49
25.4
 74
    0
 49
-12.7
 74
    0
 49
0
 74
    0
 49
-12.7
 74
    0
  0
LTYPE
  5
46
330
5
100
AcDbSymbolTableRecord
100
AcDbLinetypeTableRecord
  2
CENTER
 70
    0
  3
Center ____ _ ____ _ ____ _ ____ _ ____ _ ____
 72
   65
 73
    4
 40
50.8
 49
31.75
 74
    0
 49
-6.35
 74
    0
 49
6.35
 74
    0
 49
-6.35
 74
    0
  0
LTYPE
  5
47
330
5
100
AcDbSymbolTableRecord
100
AcDbLinetypeTableRecord
  2
CENTERTINY
 70
    0
  3
Center (.15x) ___ _ ___ _ ___ _ ___ _ ___ _ ___
 72
   65
 73
    4
 40
7.619999999999999
 49
4.7625
 74
    0
 49
-0.9525
 74
    0
 49
0.9525
 74
    0
 49
-0.9525
 74
    0
  0
LTYPE
  5
48
330
5
100
AcDbSymbolTableRecord
100
AcDbLinetypeTableRecord
  2
CENTER2
 70
    0
  3
Center (.5x) ___ _ ___ _ ___ _ ___ _ ___ _ ___
 72
   65
 73
    4
 40
28.575
 49
19.05
 74
    0
 49
-3.175
 74
    0
 49
3.175
 74
    0
 49
-3.175
 74
    0
  0
LTYPE
  5
49
330
5
100
AcDbSymbolTableRecord
100
AcDbLinetypeTableRecord
  2
CENTERX2
 70
    0
  3
Center (2x) ________  __  ________  __  _____
 72
   65
 73
    4
 40
101.6
 49
63.5
 74
    0
 49
-12.7
 74
    0
 49
12.7
 74
    0
 49
-12.7
 74
    0
  0
ENDTAB
  0
TABLE
  2
LAYER
  5
2
330
0
100
AcDbSymbolTable
 70
    1
  0
LAYER
  5
10
330
2
100
AcDbSymbolTableRecord
100
AcDbLayerTableRecord
  2
0
 70
    0
 62
    7
  6
CONTINUOUS
370
   70
390
F
  0
LAYER
  5
4A
330
2
100
AcDbSymbolTableRecord
100
AcDbLayerTableRecord
  2
dimension
 70
    0
 62
    7
  6
CONTINUOUS
370
   25
390
F
  0
ENDTAB
  0
TABLE
  2
STYLE
  5
3
330
0
100
AcDbSymbolTable
 70
    3
  0
STYLE
  5
4B
330
2
100
AcDbSymbolTableRecord
100
AcDbTextStyleTableRecord
  2
iso
 70
    0
 40
0
 41
1
 50
0
 71
    0
 42
1
  3
iso
  4

  0
STYLE
  5
4C
330
2
100
AcDbSymbolTableRecord
100
AcDbTextStyleTableRecord
  2
Standard
 70
    0
 40
0
 41
1
 50
0
 71
    0
 42
1
  3
txt
  4

  0
ENDTAB
  0
TABLE
  2
VIEW
  5
6
330
0
100
AcDbSymbolTable
 70
    0
  0
ENDTAB
  0
TABLE
  2
UCS
  5
7
330
0
100
AcDbSymbolTable
 70
    0
  0
ENDTAB
  0
TABLE
  2
APPID
  5
9
330
0
100
AcDbSymbolTable
 70
    1
  0
APPID
  5
12
330
9
100
AcDbSymbolTableRecord
100
AcDbRegAppTableRecord
  2
ACAD
 70
    0
  0
APPID
  5
4D
330
9
100
AcDbSymbolTableRecord
100
AcDbRegAppTableRecord
  2
LibreCad
 70
    0
  0
ENDTAB
  0
TABLE
  2
DIMSTYLE
  5
A
330
0
100
AcDbSymbolTable
 70
    1
100
AcDbDimStyleTable
 71
    1
  0
DIMSTYLE
105
4E
330
A
100
AcDbSymbolTableRecord
100
AcDbDimStyleTableRecord
  2
Standard
 70
    0
 40
1
 41
2.5
 42
0.625
 43
0.38
 44
1.25
 45
0
 46
0
 47
0
 48
0
 49
1
140
2.5
141
0.09
142
0
143
25.4
144
1
145
0
146
1
147
0.625
148
0
 71
    0
 72
    0
 73
    1
 74
    1
 75
    0
 76
    0
 77
    0
 78
    0
 79
    0
170
    0
171
    2
172
    0
173
    0
174
    0
175
    0
176
    0
177
    0
178
    0
179
    0
271
    1
272
    4
273
    2
274
    2
275
    0
276
    0
277
    2
278
    0
279
    0
280
    0
281
    0
282
    0
283
    1
284
    0
285
    0
286
    0
288
    0
289
    3
340
iso
341

371
   -2
372
   -2
  0
ENDTAB
  0
TABLE
  2
BLOCK_RECORD
  5
1
330
0
100
AcDbSymbolTable
 70
    2
  0
BLOCK_RECORD
  5
1F
330
1
100
AcDbSymbolTableRecord
100
AcDbBlockTableRecord
  2
*Model_Space
 70
    0
280
    1
281
    0
  0
BLOCK_RECORD
  5
1E
330
1
100
AcDbSymbolTableRecord
100
AcDbBlockTableRecord
  2
*Paper_Space
 70
    0
280
    1
281
    0
  0
BLOCK_RECORD
  5
4F
330
1
100
AcDbSymbolTableRecord
100
AcDbBlockTableRecord
  2
*D4
 70
    0
280
    1
281
    0
  0
BLOCK_RECORD
  5
52
330
1
100
AcDbSymbolTableRecord
100
AcDbBlockTableRecord
  2
*D5
 70
    0
280
    1
281
    0
  0
BLOCK_RECORD
  5
55
330
1
100
AcDbSymbolTableRecord
100
AcDbBlockTableRecord
  2
*D7
 70
    0
280
    1
281
    0
  0
BLOCK_RECORD
  5
58
330
1
100
AcDbSymbolTableRecord
100
AcDbBlockTableRecord
  2
*D8
 70
    0
280
    1
281
    0
  0
BLOCK_RECORD
  5
5B
330
1
100
AcDbSymbolTableRecord
100
AcDbBlockTableRecord
  2
*D1
 70
    0
280
    1
281
    0
  0
BLOCK_RECORD
  5
5E
330
1
100
AcDbSymbolTableRecord
100
AcDbBlockTableRecord
  2
*D6
 70
    0
280
    1
281
    0
  0
BLOCK_RECORD
  5
61
330
1
100
AcDbSymbolTableRecord
100
AcDbBlockTableRecord
  2
*D2
 70
    0
280
    1
281
    0
  0
BLOCK_RECORD
  5
64
330
1
100
AcDbSymbolTableRecord
100
AcDbBlockTableRecord
  2
*D3
 70
    0
280
    1
281
    0
  0
ENDTAB
  0
ENDSEC
  0
SECTION
  2
BLOCKS
  0
BLOCK
  5
20
330
1F
100
AcDbEntity
  8
0
100
AcDbBlockBegin
  2
*Model_Space
 70
    0
 10
0
 20
0
 30
0
  3
*Model_Space
  1

  0
ENDBLK
  5
21
330
1F
100
AcDbEntity
  8
0
100
AcDbBlockEnd
  0
BLOCK
  5
1C
330
1B
100
AcDbEntity
  8
0
100
AcDbBlockBegin
  2
*Paper_Space
 70
    0
 10
0
 20
0
 30
0
  3
*Paper_Space
  1

  0
ENDBLK
  5
1D
330
1F
100
AcDbEntity
  8
0
100
AcDbBlockEnd
  0
BLOCK
  5
50
330
4F
100
AcDbEntity
  8
0
100
AcDbBlockBegin
  2
*D4
 70
    1
 10
0
 20
0
  3
*D4
  1

  0
SOLID
  5
67
100
AcDbEntity
  8
dimension
  6
ByBlock
 62
    0
370
   -2
100
AcDbTrace
 10
-36.31189967359421
 20
-5.329070518200751e-15
 30
0
 11
-36.72818433136705
 21
2.499999999999995
 31
0
 12
-35.89561501582137
 22
2.499999999999995
 32
0
 13
-35.89561501582137
 23
2.499999999999995
 33
0
  0
SOLID
  5
68
100
AcDbEntity
  8
dimension
  6
ByBlock
 62
    0
370
   -2
100
AcDbTrace
 10
-36.31189967359421
 20
-11.19999999999999
 30
0
 11
-35.89561501582137
 21
-13.69999999999999
 31
0
 12
-36.72818433136705
 22
-13.69999999999999
 32
0
 13
-36.72818433136705
 23
-13.69999999999999
 33
0
  0
LINE
  5
69
100
AcDbEntity
  8
dimension
  6
ByLayer
 62
  256
370
   -1
100
AcDbLine
 10
-36.31189967359421
 20
4.999999999999995
 11
-36.31189967359421
 21
-5.329070518200751e-15
  0
LINE
  5
6A
100
AcDbEntity
  8
dimension
  6
ByLayer
 62
  256
370
   -1
100
AcDbLine
 10
-36.31189967359421
 20
-16.2
 11
-36.31189967359421
 21
-11.19999999999999
  0
MTEXT
  5
6B
100
AcDbEntity
  8
dimension
  6
CONTINUOUS
 62
    0
370
   -2
100
AcDbMText
 10
-36.31189967359421
 20
-5.6
 30
0
 40
2.5
 41
4.722222222222222
 71
    5
 72
    1
  1
11.2
  7
iso
210
0
220
0
230
1
 50
0
 73
    2
 44
1
  0
LINE
  5
6C
100
AcDbEntity
  8
dimension
  6
ByBlock
 62
    0
370
   -2
100
AcDbLine
 10
-50.375
 20
-6.217248937900877e-15
 11
-35.06189967359421
 21
-5.329070518200751e-15
  0
LINE
  5
6D
100
AcDbEntity
  8
dimension
  6
ByBlock
 62
    0
370
   -2
100
AcDbLine
 10
-38.46030270403593
 20
-11.19999999999999
 11
-35.06189967359421
 21
-11.19999999999999
  0
ENDBLK
  5
51
330
4F
100
AcDbEntity
  8
0
100
AcDbBlockEnd
  0
BLOCK
  5
53
330
52
100
AcDbEntity
  8
0
100
AcDbBlockBegin
  2
*D5
 70
    1
 10
0
 20
0
  3
*D5
  1

  0
LINE
  5
6E
100
AcDbEntity
  8
dimension
  6
ByBlock
 62
    0
370
   -2
100
AcDbLine
 10
-66.51777867065168
 20
-17.97851900803272
 11
-70.34501127607902
 21
-33.78758418948112
  0
LINE
  5
6F
100
AcDbEntity
  8
dimension
  6
ByBlock
 62
    0
370
   -2
100
AcDbLine
 10
5.326859245005124
 20
-35.37146018450331
 11
1.499626639577796
 21
-51.18052536595172
  0
SOLID
  5
70
100
AcDbEntity
  8
dimension
  6
ByBlock
 62
    0
370
   -2
100
AcDbTrace
 10
-70.05089362902019
 20
-32.57267892169742
 30
0
 11
-67.52313376221213
 21
-32.75631707691446
 31
0
 12
-67.71903242469347
 22
-33.56551135471568
 32
0
 13
-67.71903242469347
 23
-33.56551135471568
 33
0
  0
SOLID
  5
71
100
AcDbEntity
  8
dimension
  6
ByBlock
 62
    0
370
   -2
100
AcDbTrace
 10
1.79374428663662
 20
-49.96562009816802
 30
0
 11
-0.7340155801714463
 21
-49.78198194295098
 31
0
 12
-0.5381169176901088
 22
-48.97278766514976
 32
0
 13
-0.5381169176901088
 23
-48.97278766514976
 33
0
  0
LINE
  5
72
100
AcDbEntity
  8
dimension
  6
ByLayer
 62
  256
370
   -1
100
AcDbLine
 10
-70.05089362902019
 20
-32.57267892169742
 11
-37.6702413378585
 21
-40.4117438386519
  0
LINE
  5
73
100
AcDbEntity
  8
dimension
  6
ByLayer
 62
  256
370
   -1
100
AcDbLine
 10
-30.58690800452504
 20
-42.12655518121354
 11
1.79374428663662
 21
-49.96562009816802
  0
MTEXT
  5
74
100
AcDbEntity
  8
dimension
  6
CONTINUOUS
 62
    0
370
   -2
100
AcDbMText
 10
-34.12857467119179
 20
-41.26914950993272
 30
0
 40
2.5
 41
5.833333333333489
 71
    5
 72
    1
  1
73.9
  7
iso
210
0
220
0
230
1
 50
0
 73
    2
 44
1
  0
ENDBLK
  5
54
330
52
100
AcDbEntity
  8
0
100
AcDbBlockEnd
  0
BLOCK
  5
56
330
55
100
AcDbEntity
  8
0
100
AcDbBlockBegin
  2
*D7
 70
    1
 10
0
 20
0
  3
*D7
  1

  0
SOLID
  5
75
100
AcDbEntity
  8
dimension
  6
ByBlock
 62
    0
370
   -2
100
AcDbTrace
 10
-9.299339809298885
 20
-38.40953072721299
 30
0
 11
-11.8270963444187
 21
-38.22584671741321
 31
0
 12
-11.63118300284959
 22
-37.41665599342817
 32
0
 13
-11.63118300284959
 23
-37.41665599342817
 33
0
  0
SOLID
  5
76
100
AcDbEntity
  8
dimension
  6
ByBlock
 62
    0
370
   -2
100
AcDbTrace
 10
3.822152464464823
 20
-41.5863780655838
 30
0
 11
6.349908999584637
 21
-41.77006207538358
 31
0
 12
6.153995658015534
 22
-42.57925279936862
 32
0
 13
6.153995658015534
 23
-42.57925279936862
 33
0
  0
LINE
  5
77
100
AcDbEntity
  8
dimension
  6
ByLayer
 62
  256
370
   -1
100
AcDbLine
 10
-14.15893953796941
 20
-37.23297198362838
 11
-9.299339809298885
 21
-38.40953072721299
  0
LINE
  5
78
100
AcDbEntity
  8
dimension
  6
ByLayer
 62
  256
370
   -1
100
AcDbLine
 10
8.681752193135345
 20
-42.76293680916841
 11
3.822152464464823
 21
-41.5863780655838
  0
MTEXT
  5
79
100
AcDbEntity
  8
dimension
  6
CONTINUOUS
 62
    0
370
   -2
100
AcDbMText
 10
-2.738593672417031
 20
-39.9979543963984
 30
0
 40
2.5
 41
5.277777777778088
 71
    5
 72
    1
  1
13.5
  7
iso
210
0
220
0
230
1
 50
0
 73
    2
 44
1
  0
LINE
  5
7A
100
AcDbEntity
  8
dimension
  6
ByBlock
 62
    0
370
   -2
100
AcDbLine
 10
-0.1470698429480759
 20
-0.6074499660838144
 11
-9.593479495195037
 21
-39.62443065938062
  0
LINE
  5
7B
100
AcDbEntity
  8
dimension
  6
ByBlock
 62
    0
370
   -2
100
AcDbLine
 10
5.326848225586461
 20
-35.37145751669528
 11
3.528012778568673
 21
-42.80127799775143
  0
ENDBLK
  5
57
330
55
100
AcDbEntity
  8
0
100
AcDbBlockEnd
  0
BLOCK
  5
59
330
58
100
AcDbEntity
  8
0
100
AcDbBlockBegin
  2
*D8
 70
    1
 10
0
 20
0
  3
*D8
  1

  0
LINE
  5
7C
100
AcDbEntity
  8
dimension
  6
CONTINUOUS
 62
    7
370
    0
100
AcDbLine
 10
2.574331646352964
 20
1.727083256414014
 11
9.732521785245435
 21
7.767301040147799
  0
SOLID
  5
7D
100
AcDbEntity
  8
dimension
  6
CONTINUOUS
 62
    7
370
    0
100
AcDbTrace
 10
2.574331646352964
 20
1.727083256414014
 30
0
 11
4.216532526468979
 21
3.657489738386978
 31
0
 12
4.753457977973903
 22
3.021185782156594
 32
0
 13
4.753457977973903
 23
3.021185782156594
 33
0
  0
LINE
  5
7E
100
AcDbEntity
  8
dimension
  6
CONTINUOUS
 62
    7
370
    0
100
AcDbLine
 10
9.732521785245435
 20
7.767301040147799
 11
13.4446054148743
 21
7.767301040147799
  0
ENDBLK
  5
5A
330
58
100
AcDbEntity
  8
0
100
AcDbBlockEnd
  0
BLOCK
  5
5C
330
5B
100
AcDbEntity
  8
0
100
AcDbBlockBegin
  2
*D1
 70
    1
 10
0
 20
0
  3
*D1
  1

  0
SOLID
  5
7F
100
AcDbEntity
  8
dimension
  6
ByBlock
 62
    0
370
   -2
100
AcDbTrace
 10
-51
 20
16.58691713485167
 30
0
 11
-48.5
 21
17.00320179262451
 31
0
 12
-48.5
 22
16.17063247707883
 32
0
 13
-48.5
 23
16.17063247707883
 33
0
  0
SOLID
  5
80
100
AcDbEntity
  8
dimension
  6
ByBlock
 62
    0
370
   -2
100
AcDbTrace
 10
1.77635683940025e-15
 20
16.58691713485167
 30
0
 11
-2.499999999999998
 21
16.17063247707883
 31
0
 12
-2.499999999999998
 22
17.00320179262451
 32
0
 13
-2.499999999999998
 23
17.00320179262451
 33
0
  0
LINE
  5
81
100
AcDbEntity
  8
dimension
  6
ByLayer
 62
  256
370
   -1
100
AcDbLine
 10
-51
 20
16.58691713485167
 11
-28.76388888888897
 21
16.58691713485167
  0
LINE
  5
82
100
AcDbEntity
  8
dimension
  6
ByLayer
 62
  256
370
   -1
100
AcDbLine
 10
-22.23611111111103
 20
16.58691713485167
 11
1.77635683940025e-15
 21
16.58691713485167
  0
MTEXT
  5
83
100
AcDbEntity
  8
dimension
  6
CONTINUOUS
 62
    0
370
   -2
100
AcDbMText
 10
-25.5
 20
16.58691713485167
 30
0
 40
2.5
 41
5.277777777777933
 71
    5
 72
    1
  1
51.0
  7
iso
210
0
220
0
230
1
 50
0
 73
    2
 44
1
  0
LINE
  5
84
100
AcDbEntity
  8
dimension
  6
ByBlock
 62
    0
370
   -2
100
AcDbLine
 10
-51
 20
0.6250000000000062
 11
-51
 21
17.83691713485167
  0
LINE
  5
85
100
AcDbEntity
  8
dimension
  6
ByBlock
 62
    0
370
   -2
100
AcDbLine
 10
1.814627051873605e-15
 20
0.6249999999999996
 11
1.85289726434696e-15
 21
17.83691713485167
  0
ENDBLK
  5
5D
330
5B
100
AcDbEntity
  8
0
100
AcDbBlockEnd
  0
BLOCK
  5
5F
330
5E
100
AcDbEntity
  8
0
100
AcDbBlockBegin
  2
*D6
 70
    1
 10
0
 20
0
  3
*D6
  1

  0
SOLID
  5
86
100
AcDbEntity
  8
dimension
  6
ByBlock
 62
    0
370
   -2
100
AcDbTrace
 10
-57.57837243768891
 20
-27.17098239896592
 30
0
 11
-55.0506159025691
 21
-27.3546664087657
 31
0
 12
-55.2465292441382
 22
-28.16385713275074
 32
0
 13
-55.2465292441382
 23
-28.16385713275074
 33
0
  0
SOLID
  5
87
100
AcDbEntity
  8
dimension
  6
ByBlock
 62
    0
370
   -2
100
AcDbTrace
 10
-68.1251551140641
 20
-24.61749855926486
 30
0
 11
-70.65291164918392
 21
-24.43381454946508
 31
0
 12
-70.45699830761481
 22
-23.62462382548004
 32
0
 13
-70.45699830761481
 23
-23.62462382548004
 33
0
  0
LINE
  5
88
100
AcDbEntity
  8
dimension
  6
ByLayer
 62
  256
370
   -1
100
AcDbLine
 10
-52.71877270901839
 20
-28.34754114255052
 11
-57.57837243768891
 21
-27.17098239896592
  0
LINE
  5
89
100
AcDbEntity
  8
dimension
  6
ByLayer
 62
  256
370
   -1
100
AcDbLine
 10
-72.98475484273462
 20
-23.44093981568026
 11
-68.1251551140641
 21
-24.61749855926486
  0
MTEXT
  5
8A
100
AcDbEntity
  8
dimension
  6
CONTINUOUS
 62
    0
370
   -2
100
AcDbMText
 10
-62.85176377587651
 20
-25.89424047911539
 30
0
 40
2.5
 41
5.277777777777779
 71
    5
 72
    1
  1
10.9
  7
iso
210
0
220
0
230
1
 50
0
 73
    2
 44
1
  0
LINE
  5
8B
100
AcDbEntity
  8
dimension
  6
ByBlock
 62
    0
370
   -2
100
AcDbLine
 10
-51.14706984294808
 20
-0.6074499660838079
 11
-57.87251212358506
 21
-28.38588233113355
  0
LINE
  5
8C
100
AcDbEntity
  8
dimension
  6
ByBlock
 62
    0
370
   -2
100
AcDbLine
 10
-66.51778969007034
 20
-17.97851634022469
 11
-68.41929479996026
 21
-25.83239849143249
  0
ENDBLK
  5
60
330
5E
100
AcDbEntity
  8
0
100
AcDbBlockEnd
  0
BLOCK
  5
62
330
61
100
AcDbEntity
  8
0
100
AcDbBlockBegin
  2
*D2
 70
    1
 10
0
 20
0
  3
*D2
  1

  0
SOLID
  5
8D
100
AcDbEntity
  8
dimension
  6
ByBlock
 62
    0
370
   -2
100
AcDbTrace
 10
29.53624072515548
 20
-7.151025643691931
 30
0
 11
29.3525567153557
 21
-9.678782178811744
 31
0
 12
28.54336599137066
 22
-9.482868837242641
 32
0
 13
28.54336599137066
 23
-9.482868837242641
 33
0
  0
SOLID
  5
8E
100
AcDbEntity
  8
dimension
  6
ByBlock
 62
    0
370
   -2
100
AcDbTrace
 10
21.88866651992631
 20
-38.73818585593258
 30
0
 11
22.07235052972609
 21
-36.21042932081277
 31
0
 12
22.88154125371113
 22
-36.40634266238187
 32
0
 13
22.88154125371113
 23
-36.40634266238187
 33
0
  0
LINE
  5
8F
100
AcDbEntity
  8
dimension
  6
ByLayer
 62
  256
370
   -1
100
AcDbLine
 10
29.53624072515548
 20
-7.151025643691931
 11
26.16641027893091
 21
-21.06960574981226
  0
LINE
  5
90
100
AcDbEntity
  8
dimension
  6
ByLayer
 62
  256
370
   -1
100
AcDbLine
 10
25.25849696615087
 20
-24.81960574981226
 11
21.88866651992631
 21
-38.73818585593258
  0
MTEXT
  5
91
100
AcDbEntity
  8
dimension
  6
CONTINUOUS
 62
    0
370
   -2
100
AcDbMText
 10
25.7124536225409
 20
-22.94460574981226
 30
0
 40
2.5
 41
5.833333333333643
 71
    5
 72
    1
  1
32.5
  7
iso
210
0
220
0
230
1
 50
0
 73
    2
 44
1
  0
LINE
  5
92
100
AcDbEntity
  8
dimension
  6
ByBlock
 62
    0
370
   -2
100
AcDbLine
 10
0.6074499660838171
 20
-0.147069842948076
 11
30.75114065732311
 21
-7.445165329588082
  0
LINE
  5
93
100
AcDbEntity
  8
dimension
  6
ByBlock
 62
    0
370
   -2
100
AcDbLine
 10
6.081368034618352
 20
-34.91107739355954
 11
23.10356645209394
 21
-39.03232554182873
  0
ENDBLK
  5
63
330
61
100
AcDbEntity
  8
0
100
AcDbBlockEnd
  0
BLOCK
  5
65
330
64
100
AcDbEntity
  8
0
100
AcDbBlockBegin
  2
*D3
 70
    1
 10
0
 20
0
  3
*D3
  1

  0
SOLID
  5
94
100
AcDbEntity
  8
dimension
  6
ByBlock
 62
    0
370
   -2
100
AcDbTrace
 10
-78.81039019663378
 20
6.733179598168373
 30
0
 11
-78.99407420643355
 21
4.20542306304856
 31
0
 12
-79.80326493041859
 22
4.401336404617664
 32
0
 13
-79.80326493041859
 23
4.401336404617664
 33
0
  0
SOLID
  5
95
100
AcDbEntity
  8
dimension
  6
ByBlock
 62
    0
370
   -2
100
AcDbTrace
 10
-83.63432736738086
 20
-13.19137061567355
 30
0
 11
-83.45064335758109
 21
-10.66361408055374
 31
0
 12
-82.64145263359605
 22
-10.85952742212284
 32
0
 13
-82.64145263359605
 23
-10.85952742212284
 33
0
  0
LINE
  5
96
100
AcDbEntity
  8
dimension
  6
ByLayer
 62
  256
370
   -1
100
AcDbLine
 10
-78.81039019663378
 20
6.733179598168373
 11
-80.7684021256173
 21
-1.354095508752589
  0
LINE
  5
97
100
AcDbEntity
  8
dimension
  6
ByLayer
 62
  256
370
   -1
100
AcDbLine
 10
-81.67631543839734
 20
-5.10409550875259
 11
-83.63432736738086
 21
-13.19137061567355
  0
MTEXT
  5
98
100
AcDbEntity
  8
dimension
  6
CONTINUOUS
 62
    0
370
   -2
100
AcDbMText
 10
-81.22235878200732
 20
-3.229095508752589
 30
0
 40
2.5
 41
5.833333333333488
 71
    5
 72
    1
  1
20.5
  7
iso
210
0
220
0
230
1
 50
0
 73
    2
 44
1
  0
LINE
  5
99
100
AcDbEntity
  8
dimension
  6
ByBlock
 62
    0
370
   -2
100
AcDbLine
 10
-51.60744996608381
 20
0.147069842948069
 11
-80.0252901288014
 21
7.027319284064523
  0
LINE
  5
9A
100
AcDbEntity
  8
dimension
  6
ByBlock
 62
    0
370
   -2
100
AcDbLine
 10
-66.97816981320609
 20
-17.2239965311928
 11
-84.84922729954849
 21
-12.8972309297774
  0
ENDBLK
  5
66
330
64
100
AcDbEntity
  8
0
100
AcDbBlockEnd
  0
ENDSEC
  0
SECTION
  2
ENTITIES
  0
LINE
  5
9B
100
AcDbEntity
  8
0
  6
ByLayer
 62
  256
370
   -1
100
AcDbLine
 10
-5.937530237900642
 20
0.8635593054420413
 11
-6.945016094249691
 21
-6.06355930544204
  0
LINE
  5
9C
100
AcDbEntity
  8
0
  6
ByLayer
 62
  256
370
   -1
100
AcDbLine
 10
-12.88254633215033
 20
-11.2
 11
-39.08530319311482
 21
-11.2
  0
LINE
  5
9D
100
AcDbEntity
  8
0
  6
ByLayer
 62
  256
370
   -1
100
AcDbLine
 10
-45.08446396291205
 20
-5.099650320748848
 11
-45.00083923020276
 21
-0.1003496792511507
  0
LINE
  5
9E
100
AcDbEntity
  8
0
  6
ByLayer
 62
  256
370
   -1
100
AcDbLine
 10
-12.88254633215033
 20
-12.7
 11
-39.08530319311482
 21
-12.7
  0
LINE
  5
9F
100
AcDbEntity
  8
0
  6
ByLayer
 62
  256
370
   -1
100
AcDbLine
 10
-61.51339529035935
 20
-12.85369478039189
 11
-64.04746910805481
 21
-17.93350449917159
  0
LINE
  5
A0
100
AcDbEntity
  8
0
  6
ByLayer
 62
  256
370
   -1
100
AcDbLine
 10
1.586221211626695
 20
-33.82283108002324
 11
4.457918745735778
 21
-14.14019741832644
  0
ARC
  5
A1
100
AcDbEntity
  8
0
  6
ByLayer
 62
  256
370
   -1
100
AcDbCircle
 10
-51
 20
-2.234323837058128e-15
 40
5.999999999999997
100
AcDbArc
 50
-0.9583135301613831
 51
76.2646373295912
  0
ARC
  5
A2
100
AcDbEntity
  8
0
  6
ByLayer
 62
  256
370
   -1
100
AcDbCircle
 10
-51
 20
6.217248937900877e-15
 40
5.999999999999991
100
AcDbArc
 50
76.26463732959117
 51
153.4875881893438
  0
ARC
  5
A3
100
AcDbEntity
  8
0
  6
ByLayer
 62
  256
370
   -1
100
AcDbCircle
 10
-72.44200643866024
 20
-15.90126245257218
 40
80.1666666666669
100
AcDbArc
 50
-13.60896063078293
 51
12.38027295305001
  0
ARC
  5
A4
100
AcDbEntity
  8
0
  6
ByLayer
 62
  256
370
   -1
100
AcDbCircle
 10
1.77635683940025e-15
 20
-4.440892098500626e-16
 40
5.999999999999999
100
AcDbArc
 50
12.38027295305001
 51
92.05257493871025
  0
ARC
  5
A5
100
AcDbEntity
  8
0
  6
ByLayer
 62
  256
370
   -1
100
AcDbCircle
 10
-3.885780586188048e-16
 20
8.881784197001252e-16
 40
6
100
AcDbArc
 50
92.05257493871024
 51
171.7248769243704
  0
ARC
  5
A6
100
AcDbEntity
  8
0
  6
ByLayer
 62
  256
370
   -1
100
AcDbCircle
 10
-12.88254633215033
 20
-5.199999999999998
 40
6.000000000000002
100
AcDbArc
 50
-89.99999999999999
 51
-8.275123075629551
  0
ARC
  5
A7
100
AcDbEntity
  8
0
  6
ByLayer
 62
  256
370
   -1
100
AcDbCircle
 10
-39.08530319311482
 20
-5.200000000000002
 40
5.999999999999994
100
AcDbArc
 50
-135.4791567650807
 51
-90
  0
ARC
  5
A8
100
AcDbEntity
  8
0
  6
ByLayer
 62
  256
370
   -1
100
AcDbCircle
 10
-39.08530319311484
 20
-5.200000000000007
 40
5.999999999999976
100
AcDbArc
 50
179.0416864698385
 51
-135.4791567650806
  0
ARC
  5
A9
100
AcDbEntity
  8
0
  6
ByLayer
 62
  256
370
   -1
100
AcDbCircle
 10
-51
 20
-7.59281015471417e-16
 40
3.100000000000001
100
AcDbArc
 50
-90
 51
0
  0
ARC
  5
AA
100
AcDbEntity
  8
0
  6
ByLayer
 62
  256
370
   -1
100
AcDbCircle
 10
-51
 20
-6.217248937900877e-15
 40
3.099999999999994
100
AcDbArc
 50
179.9999999999999
 51
-90
  0
ARC
  5
AB
100
AcDbEntity
  8
0
  6
ByLayer
 62
  256
370
   -1
100
AcDbCircle
 10
-51
 20
7.485067865336623e-15
 40
3.100000000000001
100
AcDbArc
 50
90
 51
-179.9999999999999
  0
ARC
  5
AC
100
AcDbEntity
  8
0
  6
ByLayer
 62
  256
370
   -1
100
AcDbCircle
 10
-51
 20
0
 40
3.1
100
AcDbArc
 50
-1.070956051981099e-27
 51
90
  0
ARC
  5
AD
100
AcDbEntity
  8
0
  6
ByLayer
 62
  256
370
   -1
100
AcDbCircle
 10
-4.440892098500626e-16
 20
5.729866140788293e-16
 40
3.100000000000001
100
AcDbArc
 50
-90
 51
-2.462364914681433e-14
  0
ARC
  5
AE
100
AcDbEntity
  8
0
  6
ByLayer
 62
  256
370
   -1
100
AcDbCircle
 10
3.18717658096606e-16
 20
0
 40
3.1
100
AcDbArc
 50
180
 51
-90.00000000000003
  0
ARC
  5
AF
100
AcDbEntity
  8
0
  6
ByLayer
 62
  256
370
   -1
100
AcDbCircle
 10
4.440892098500626e-16
 20
3.796405077356795e-16
 40
3.100000000000001
100
AcDbArc
 50
90.00000000000001
 51
180
  0
ARC
  5
B0
100
AcDbEntity
  8
0
  6
ByLayer
 62
  256
370
   -1
100
AcDbCircle
 10
1.898202538678397e-16
 20
0
 40
3.1
100
AcDbArc
 50
0
 51
90
  0
ARC
  5
B1
100
AcDbEntity
  8
0
  6
ByLayer
 62
  256
370
   -1
100
AcDbCircle
 10
-39.08530319311482
 20
-5.199999999999978
 40
7.500000000000021
100
AcDbArc
 50
-136.6767015190792
 51
-90
  0
ARC
  5
B2
100
AcDbEntity
  8
0
  6
ByLayer
 62
  256
370
   -1
100
AcDbCircle
 10
-52.15212399296768
 20
-17.52358475823202
 40
10.46141829335301
100
AcDbArc
 50
43.32329848092059
 51
98.40544333513216
  0
ARC
  5
B3
100
AcDbEntity
  8
0
  6
ByLayer
 62
  256
370
   -1
100
AcDbCircle
 10
-52.15212399296768
 20
-17.52358475823203
 40
10.461418293353
100
AcDbArc
 50
98.40544333513215
 51
153.4875881893437
  0
ARC
  5
B4
100
AcDbEntity
  8
0
  6
ByLayer
 62
  256
370
   -1
100
AcDbCircle
 10
-1.72660343996763
 20
-13.23787522833978
 40
6.249999999999999
100
AcDbArc
 50
-8.300888765775326
 51
67.96314958769365
  0
ARC
  5
B5
100
AcDbEntity
  8
0
  6
ByLayer
 62
  256
370
   -1
100
AcDbCircle
 10
-1.72660343996763
 20
-13.23787522833978
 40
6.249999999999996
100
AcDbArc
 50
67.96314958769365
 51
144.2271879411626
  0
ARC
  5
B6
100
AcDbEntity
  8
0
  6
ByLayer
 62
  256
370
   -1
100
AcDbCircle
 10
-12.88254633215033
 20
-5.199999999999997
 40
7.500000000000003
100
AcDbArc
 50
-90
 51
-35.77281205883742
  0
LINE
  5
B7
100
AcDbEntity
  8
0
  6
ByLayer
 62
  256
370
   -1
100
AcDbLine
 10
-56.36902609276583
 20
2.67835001730538
 11
-66.37071984712229
 21
-17.37106637414088
  0
LINE
  5
B8
100
AcDbEntity
  8
0
  6
ByLayer
 62
  256
370
   -1
100
AcDbLine
 10
-66.37071984712229
 20
-17.37106637414088
 11
5.473918068534532
 21
-34.76400755061147
  0
DIMENSION
  5
B9
100
AcDbEntity
  8
dimension
  6
ByLayer
 62
  256
370
   -1
100
AcDbDimension
  2
*D1
 10
2.792012588246174e-15
 20
16.58691713485167
 30
0
 11
-25.5
 21
16.58691713485167
 31
0
 70
   32
 71
    5
  3
Standard
 53
0
210
0
220
0
230
1
100
AcDbAlignedDimension
 13
-51
 23
6.217248937900877e-15
 33
0
 14
1.77635683940025e-15
 24
-4.440892098500626e-16
 34
0
100
AcDbRotatedDimension
  0
DIMENSION
  5
BA
100
AcDbEntity
  8
dimension
  6
ByLayer
 62
  256
370
   -1
100
AcDbDimension
  2
*D2
 10
21.88866651992631
 20
-38.73818585593258
 30
0
 11
25.7124536225409
 21
-22.94460574981226
 31
0
 70
   32
 71
    5
  3
Standard
 53
0
210
0
220
0
230
1
100
AcDbAlignedDimension
 13
1.77635683940025e-15
 23
-4.440892098500626e-16
 33
0
 14
5.473918068534537
 24
-34.76400755061147
 34
0
 50
-103.61
100
AcDbRotatedDimension
  0
DIMENSION
  5
BB
100
AcDbEntity
  8
dimension
  6
ByLayer
 62
  256
370
   -1
100
AcDbDimension
  2
*D3
 10
-83.63432736738086
 20
-13.19137061567355
 30
0
 11
-81.22235878200732
 21
-3.229095508752589
 31
0
 70
   32
 71
    5
  3
Standard
 53
0
210
0
220
0
230
1
100
AcDbAlignedDimension
 13
-51
 23
-6.217248937900877e-15
 33
0
 14
-66.37071984712227
 24
-17.37106637414087
 34
0
 50
-103.61
100
AcDbRotatedDimension
  0
DIMENSION
  5
BC
100
AcDbEntity
  8
dimension
  6
ByLayer
 62
  256
370
   -1
100
AcDbDimension
  2
*D4
 10
-36.31189967359421
 20
-11.19999999999999
 30
0
 11
-36.31189967359421
 21
-5.6
 31
0
 70
   32
 71
    5
  3
Standard
 53
0
210
0
220
0
230
1
100
AcDbAlignedDimension
 13
-51
 23
-6.217248937900877e-15
 33
0
 14
-39.08530270403593
 24
-11.19999999999999
 34
0
 50
90
100
AcDbRotatedDimension
  0
DIMENSION
  5
BD
100
AcDbEntity
  8
dimension
  6
ByLayer
 62
  256
370
   -1
100
AcDbDimension
  2
*D5
 10
1.793744286636619
 20
-49.96562009816802
 30
0
 11
-34.12857467119179
 21
-41.26914950993272
 31
0
 70
   33
 71
    5
  3
Standard
 53
0
210
0
220
0
230
1
100
AcDbAlignedDimension
 13
-66.37071984712227
 23
-17.37106637414087
 33
0
 14
5.473918068534537
 24
-34.76400755061147
 34
0
  0
DIMENSION
  5
BE
100
AcDbEntity
  8
dimension
  6
ByLayer
 62
  256
370
   -1
100
AcDbDimension
  2
*D6
 10
-68.1251551140641
 20
-24.61749855926486
 30
0
 11
-62.85176377587651
 21
-25.89424047911539
 31
0
 70
   32
 71
    5
  3
Standard
 53
0
210
0
220
0
230
1
100
AcDbAlignedDimension
 13
-51
 23
7.485067865336623e-15
 33
0
 14
-66.37071984712227
 24
-17.37106637414087
 34
0
 50
-13.61
100
AcDbRotatedDimension
  0
DIMENSION
  5
BF
100
AcDbEntity
  8
dimension
  6
ByLayer
 62
  256
370
   -1
100
AcDbDimension
  2
*D7
 10
3.822152464464824
 20
-41.5863780655838
 30
0
 11
-2.738593672417031
 21
-39.9979543963984
 31
0
 70
   32
 71
    5
  3
Standard
 53
0
210
0
220
0
230
1
100
AcDbAlignedDimension
 13
-3.885780586188048e-16
 23
8.881784197001252e-16
 33
0
 14
5.473918068534537
 24
-34.76400755061147
 34
0
 50
-13.61
100
AcDbRotatedDimension
  0
MTEXT
  5
C0
100
AcDbEntity
  8
dimension
  6
ByLayer
 62
  256
370
   -1
100
AcDbMText
 10
14.61180088980973
 20
7.772234515856237
 30
0
 40
2.5
 41
6.388888888889046
 71
    4
 72
    1
  1
%%C6.2
  7
iso
210
0
220
0
230
1
 50
0
 73
    2
 44
1
  0
LEADER
  5
C1
100
AcDbEntity
  8
dimension
  6
ByLayer
 62
  256
370
   -1
100
AcDbLeader
  3
Standard
 71
    1
 72
    0
 73
    3
 74
    0
 75
    0
 40
1
 41
10
 76
3
 76
3
 10
2.574331646352964
 20
1.727083256414014
 30
0
 10
9.732521785245435
 20
7.767301040147799
 30
0
 10
13.4446054148743
 20
7.767301040147799
 30
0
  0
ENDSEC
  0
SECTION
  2
OBJECTS
  0
DICTIONARY
  5
C
330
0
100
AcDbDictionary
281
    1
  3
ACAD_GROUP
350
D
  0
DICTIONARY
  5
D
330
C
100
AcDbDictionary
281
    1
  0
ENDSEC
  0
EOF
