999
dxfrw 0.6.3
  0
SECTION
  2
HEADER
  9
$ACADVER
  1
AC1021
  9
$DWGCODEPAGE
  3
ANSI_1252
  9
$INSBASE
 10
0
 20
0
 30
0
  9
$EXTMIN
 10
-1.224646799147353e-15
 20
0
 30
0
  9
$EXTMAX
 10
279.4
 20
215.9
 30
0
  9
$LIMMIN
 10
0
 20
0
  9
$LIMMAX
 10
420
 20
297
  9
$ORTHOMODE
 70
    0
  9
$REGENMODE
 70
    1
  9
$FILLMODE
 70
    1
  9
$QTEXTMODE
 70
    0
  9
$MIRRTEXT
 70
    0
  9
$LTSCALE
 40
1
  9
$ATTMODE
 70
    0
  9
$TEXTSIZE
 40
2.5
  9
$TRACEWID
 40
15.68
  9
$TEXTSTYLE
  7
STANDARD
  9
$CLAYER
  8
Dimension
  9
$CELTYPE
  6
BYLAYER
  9
$CECOLOR
 62
  256
  9
$CELTSCALE
 40
1
  9
$DISPSILH
 70
    0
  9
$DIMSCALE
 40
1
  9
$DIMASZ
 40
2.5
  9
$DIMEXO
 40
0.625
  9
$DIMDLI
 40
3.75
  9
$DIMRND
 40
0
  9
$DIMDLE
 40
0
  9
$DIMEXE
 40
1.25
  9
$DIMTP
 40
0
  9
$DIMTM
 40
0
  9
$DIMTXT
 40
2.5
  9
$DIMCEN
 40
2.5
  9
$DIMTSZ
 40
0
  9
$DIMTOL
 70
    0
  9
$DIMLIM
 70
    0
  9
$DIMTIH
 70
    1
  9
$DIMTOH
 70
    0
  9
$DIMSE1
 70
    0
  9
$DIMSE2
 70
    0
  9
$DIMTAD
 70
    1
  9
$DIMZIN
 70
    1
  9
$DIMBLK
  1

  9
$DIMASO
 70
    1
  9
$DIMSHO
 70
    1
  9
$DIMPOST
  1

  9
$DIMAPOST
  1

  9
$DIMALT
 70
    0
  9
$DIMALTD
 70
    3
  9
$DIMALTF
 40
0.03937
  9
$DIMLFAC
 40
1
  9
$DIMTOFL
 70
    1
  9
$DIMTVP
 40
0
  9
$DIMTIX
 70
    0
  9
$DIMSOXD
 70
    0
  9
$DIMSAH
 70
    0
  9
$DIMBLK1
  1

  9
$DIMBLK2
  1

  9
$DIMSTYLE
  2
STANDARD
  9
$DIMCLRD
 70
    0
  9
$DIMCLRE
 70
    0
  9
$DIMCLRT
 70
    0
  9
$DIMTFAC
 40
1
  9
$DIMGAP
 40
0.625
  9
$DIMJUST
 70
    0
  9
$DIMSD1
 70
    0
  9
$DIMSD2
 70
    0
  9
$DIMTOLJ
 70
    0
  9
$DIMTZIN
 70
    8
  9
$DIMALTZ
 70
    0
  9
$DIMALTTZ
 70
    0
  9
$DIMUPT
 70
    0
  9
$DIMDEC
 70
    2
  9
$DIMTDEC
 70
    2
  9
$DIMALTU
 70
    2
  9
$DIMALTTD
 70
    3
  9
$DIMTXSTY
  7
standard
  9
$DIMAUNIT
 70
    0
  9
$DIMADEC
 70
    2
  9
$DIMALTRND
 40
0
  9
$DIMAZIN
 70
    0
  9
$DIMDSEP
 70
    0
  9
$DIMATFIT
 70
    3
  9
$DIMFRAC
 70
    0
  9
$DIMLDRBLK
  1
STANDARD
  9
$DIMLUNIT
 70
    2
  9
$DIMLWD
 70
   -2
  9
$DIMLWE
 70
   -2
  9
$DIMTMOVE
 70
    0
  9
$DIMFXL
 40
1
  9
$DIMFXLON
 70
    0
  9
$DIMJOGANG
 40
0.7854
  9
$DIMTFILL
 70
    0
  9
$DIMTFILLCLR
 70
    0
  9
$DIMARCSYM
 70
    0
  9
$DIMLTYPE
  6

  9
$DIMLTEX1
  6

  9
$DIMLTEX2
  6

  9
$LUNITS
 70
    2
  9
$LUPREC
 70
    4
  9
$SKETCHINC
 40
1
  9
$FILLETRAD
 40
0
  9
$AUNITS
 70
    0
  9
$AUPREC
 70
    2
  9
$MENU
  1
.
  9
$ELEVATION
 40
0
  9
$PELEVATION
 40
0
  9
$THICKNESS
 40
0
  9
$LIMCHECK
 70
    0
  9
$CHAMFERA
 40
0
  9
$CHAMFERB
 40
0
  9
$CHAMFERC
 40
0
  9
$CHAMFERD
 40
0
  9
$SKPOLY
 70
    0
  9
$USRTIMER
 70
    1
  9
$ANGBASE
 50
0
  9
$ANGDIR
 70
    0
  9
$PDMODE
 70
   34
  9
$PDSIZE
 40
0
  9
$PLINEWID
 40
0
  9
$SPLFRAME
 70
    0
  9
$SPLINETYPE
 70
    2
  9
$SPLINESEGS
 70
    8
  9
$HANDSEED
  5
20000
  9
$SURFTAB1
 70
    6
  9
$SURFTAB2
 70
    6
  9
$SURFTYPE
 70
    6
  9
$SURFU
 70
    6
  9
$SURFV
 70
    6
  9
$UCSBASE
  2

  9
$UCSNAME
  2

  9
$UCSORG
 10
0
 20
0
 30
0
  9
$UCSXDIR
 10
1
 20
0
 30
0
  9
$UCSYDIR
 10
0
 20
1
 30
0
  9
$UCSORTHOREF
  2

  9
$UCSORTHOVIEW
 70
    0
  9
$UCSORGTOP
 10
0
 20
0
 30
0
  9
$UCSORGBOTTOM
 10
0
 20
0
 30
0
  9
$UCSORGLEFT
 10
0
 20
0
 30
0
  9
$UCSORGRIGHT
 10
0
 20
0
 30
0
  9
$UCSORGFRONT
 10
0
 20
0
 30
0
  9
$UCSORGBACK
 10
0
 20
0
 30
0
  9
$PUCSBASE
  2

  9
$PUCSNAME
  2

  9
$PUCSORG
 10
0
 20
0
 30
0
  9
$PUCSXDIR
 10
1
 20
0
 30
0
  9
$PUCSYDIR
 10
0
 20
1
 30
0
  9
$PUCSORTHOREF
  2

  9
$PUCSORTHOVIEW
 70
    0
  9
$PUCSORGTOP
 10
0
 20
0
 30
0
  9
$PUCSORGBOTTOM
 10
0
 20
0
 30
0
  9
$PUCSORGLEFT
 10
0
 20
0
 30
0
  9
$PUCSORGRIGHT
 10
0
 20
0
 30
0
  9
$PUCSORGFRONT
 10
0
 20
0
 30
0
  9
$PUCSORGBACK
 10
0
 20
0
 30
0
  9
$USERI1
 70
    0
  9
$USERI2
 70
    0
  9
$USERI3
 70
    0
  9
$USERI4
 70
    0
  9
$USERI5
 70
    0
  9
$USERR1
 40
0
  9
$USERR2
 40
0
  9
$USERR3
 40
0
  9
$USERR4
 40
0
  9
$USERR5
 40
0
  9
$WORLDVIEW
 70
    1
  9
$SHADEDGE
 70
    3
  9
$SHADEDIF
 70
   70
  9
$TILEMODE
 70
    1
  9
$MAXACTVP
 70
   64
  9
$PINSBASE
 10
1.224646799147353e-15
 20
0
 30
0
  9
$PLIMCHECK
 70
    0
  9
$PEXTMIN
 10
0
 20
0
 30
0
  9
$PEXTMAX
 10
0
 20
0
 30
0
  9
$GRIDMODE
 70
    1
  9
$SNAPSTYLE
 70
    0
  9
$GRIDUNIT
 10
0
 20
0
  9
$PLIMMIN
 10
0
 20
0
  9
$PLIMMAX
 10
279.4
 20
215.9
  9
$UNITMODE
 70
    0
  9
$VISRETAIN
 70
    1
  9
$PLINEGEN
 70
    0
  9
$PSLTSCALE
 70
    1
  9
$TREEDEPTH
 70
 3020
  9
$CMLSTYLE
  2
Standard
  9
$CMLJUST
 70
    0
  9
$CMLSCALE
 40
20
  9
$PROXYGRAPHICS
 70
    1
  9
$MEASUREMENT
 70
    1
  9
$CELWEIGHT
370
   -1
  9
$ENDCAPS
280
    0
  9
$JOINSTYLE
280
    0
  9
$LWDISPLAY
290
    0
  9
$INSUNITS
 70
    4
  9
$HYPERLINKBASE
  1

  9
$STYLESHEET
  1

  9
$XEDIT
290
    1
  9
$CEPSNTYPE
380
    0
  9
$PSTYLEMODE
290
    1
  9
$EXTNAMES
290
    1
  9
$PSVPSCALE
 40
1
  9
$OLESTARTUP
290
    0
  9
$SORTENTS
280
  127
  9
$INDEXCTL
280
    0
  9
$HIDETEXT
280
    1
  9
$XCLIPFRAME
290
    0
  9
$HALOGAP
280
    0
  9
$OBSCOLOR
 70
  257
  9
$OBSLTYPE
280
    0
  9
$INTERSECTIONDISPLAY
280
    0
  9
$INTERSECTIONCOLOR
 70
  257
  9
$DIMASSOC
280
    1
  9
$PROJECTNAME
  1

  9
$CAMERADISPLAY
290
    0
  9
$LENSLENGTH
 40
50
  9
$CAMERAHEIGHT
 40
0
  9
$STEPSPERSEC
 40
2
  9
$STEPSIZE
 40
50
  9
$3DDWFPREC
 40
2
  9
$PSOLWIDTH
 40
5
  9
$PSOLHEIGHT
 40
80
  9
$LOFTANG1
 40
1.570796326794897
  9
$LOFTANG2
 40
1.570796326794897
  9
$LOFTMAG1
 40
0
  9
$LOFTMAG2
 40
0
  9
$LOFTPARAM
 70
    7
  9
$LOFTNORMALS
280
    1
  9
$LATITUDE
 40
1
  9
$LONGITUDE
 40
1
  9
$NORTHDIRECTION
 40
0
  9
$TIMEZONE
 70
-8000
  9
$LIGHTGLYPHDISPLAY
280
    1
  9
$TILEMODELIGHTSYNCH
280
    1
  9
$SOLIDHIST
280
    1
  9
$SHOWHIST
280
    1
  9
$DWFFRAME
280
    2
  9
$DGNFRAME
280
    0
  9
$REALWORLDSCALE
290
    1
  9
$INTERFERECOLOR
 62
    1
  9
$CSHADOW
280
    0
  9
$SHADOWPLANELOCATION
 40
0
  0
ENDSEC
  0
SECTION
  2
CLASSES
  0
ENDSEC
  0
SECTION
  2
TABLES
  0
TABLE
  2
VPORT
  5
8
330
0
100
AcDbSymbolTable
 70
    1
  0
VPORT
  5
31
330
2
100
AcDbSymbolTableRecord
100
AcDbViewportTableRecord
  2
*ACTIVE
 70
    0
 10
0
 20
0
 11
1
 21
1
 12
161.925
 22
109.9490740740741
 13
0
 23
0
 14
10
 24
10
 15
10
 25
10
 16
0
 26
0
 36
1
 17
0
 27
0
 37
0
 40
223.8962962962963
 41
1.644642857142857
 42
50
 43
0
 44
0
 50
0
 51
0
 71
    0
 72
  100
 73
    1
 74
    3
 75
    0
 76
    1
 77
    0
 78
    0
281
    0
 65
    1
110
0
120
0
130
0
111
1
121
0
131
0
112
0
122
1
132
0
 79
    0
146
0
348
10020
 60
    7
 61
    5
292
1
282
    1
141
0
142
0
 63
  250
421
3358443
  0
ENDTAB
  0
TABLE
  2
LTYPE
  5
5
330
0
100
AcDbSymbolTable
 70
    4
  0
LTYPE
  5
14
330
5
100
AcDbSymbolTableRecord
100
AcDbLinetypeTableRecord
  2
ByBlock
 70
    0
  3

 72
   65
 73
    0
 40
0
  0
LTYPE
  5
15
330
5
100
AcDbSymbolTableRecord
100
AcDbLinetypeTableRecord
  2
ByLayer
 70
    0
  3

 72
   65
 73
    0
 40
0
  0
LTYPE
  5
16
330
5
100
AcDbSymbolTableRecord
100
AcDbLinetypeTableRecord
  2
Continuous
 70
    0
  3
Solid line
 72
   65
 73
    0
 40
0
  0
LTYPE
  5
32
330
5
100
AcDbSymbolTableRecord
100
AcDbLinetypeTableRecord
  2
DOT
 70
    0
  3
Dot . . . . . . . . . . . . . . . . . . . . . .
 72
   65
 73
    2
 40
6.35
 49
0
 74
    0
 49
-6.35
 74
    0
  0
LTYPE
  5
33
330
5
100
AcDbSymbolTableRecord
100
AcDbLinetypeTableRecord
  2
DOTTINY
 70
    0
  3
Dot (.15x) .....................................
 72
   65
 73
    2
 40
0.9525
 49
0
 74
    0
 49
-0.9525
 74
    0
  0
LTYPE
  5
34
330
5
100
AcDbSymbolTableRecord
100
AcDbLinetypeTableRecord
  2
DOT2
 70
    0
  3
Dot (.5x) .....................................
 72
   65
 73
    2
 40
3.175
 49
0
 74
    0
 49
-3.175
 74
    0
  0
LTYPE
  5
35
330
5
100
AcDbSymbolTableRecord
100
AcDbLinetypeTableRecord
  2
DOTX2
 70
    0
  3
Dot (2x) .  .  .  .  .  .  .  .  .  .  .  .  .
 72
   65
 73
    2
 40
12.7
 49
0
 74
    0
 49
-12.7
 74
    0
  0
LTYPE
  5
36
330
5
100
AcDbSymbolTableRecord
100
AcDbLinetypeTableRecord
  2
DASHED
 70
    0
  3
Dashed _ _ _ _ _ _ _ _ _ _ _ _ _ _ _ _ _
 72
   65
 73
    2
 40
19.05
 49
12.7
 74
    0
 49
-6.35
 74
    0
  0
LTYPE
  5
37
330
5
100
AcDbSymbolTableRecord
100
AcDbLinetypeTableRecord
  2
DASHEDTINY
 70
    0
  3
Dashed (.15x) _ _ _ _ _ _ _ _ _ _ _ _ _ _ _ _ _
 72
   65
 73
    2
 40
2.8575
 49
1.905
 74
    0
 49
-0.9525
 74
    0
  0
LTYPE
  5
38
330
5
100
AcDbSymbolTableRecord
100
AcDbLinetypeTableRecord
  2
DASHED2
 70
    0
  3
Dashed (.5x) _ _ _ _ _ _ _ _ _ _ _ _ _ _ _ _ _
 72
   65
 73
    2
 40
9.524999999999999
 49
6.35
 74
    0
 49
-3.175
 74
    0
  0
LTYPE
  5
39
330
5
100
AcDbSymbolTableRecord
100
AcDbLinetypeTableRecord
  2
DASHEDX2
 70
    0
  3
Dashed (2x) ____  ____  ____  ____  ____  ___
 72
   65
 73
    2
 40
38.09999999999999
 49
25.4
 74
    0
 49
-12.7
 74
    0
  0
LTYPE
  5
3A
330
5
100
AcDbSymbolTableRecord
100
AcDbLinetypeTableRecord
  2
DASHDOT
 70
    0
  3
Dash dot __ . __ . __ . __ . __ . __ . __ . __
 72
   65
 73
    4
 40
25.4
 49
12.7
 74
    0
 49
-6.35
 74
    0
 49
0
 74
    0
 49
-6.35
 74
    0
  0
LTYPE
  5
3B
330
5
100
AcDbSymbolTableRecord
100
AcDbLinetypeTableRecord
  2
DASHDOTTINY
 70
    0
  3
Dash dot (.15x) _._._._._._._._._._._._._._._.
 72
   65
 73
    4
 40
3.81
 49
1.905
 74
    0
 49
-0.9525
 74
    0
 49
0
 74
    0
 49
-0.9525
 74
    0
  0
LTYPE
  5
3C
330
5
100
AcDbSymbolTableRecord
100
AcDbLinetypeTableRecord
  2
DASHDOT2
 70
    0
  3
Dash dot (.5x) _._._._._._._._._._._._._._._.
 72
   65
 73
    4
 40
12.7
 49
6.35
 74
    0
 49
-3.175
 74
    0
 49
0
 74
    0
 49
-3.175
 74
    0
  0
LTYPE
  5
3D
330
5
100
AcDbSymbolTableRecord
100
AcDbLinetypeTableRecord
  2
DASHDOTX2
 70
    0
  3
Dash dot (2x) ____  .  ____  .  ____  .  ___
 72
   65
 73
    4
 40
50.8
 49
25.4
 74
    0
 49
-12.7
 74
    0
 49
0
 74
    0
 49
-12.7
 74
    0
  0
LTYPE
  5
3E
330
5
100
AcDbSymbolTableRecord
100
AcDbLinetypeTableRecord
  2
DIVIDE
 70
    0
  3
Divide ____ . . ____ . . ____ . . ____ . . ____
 72
   65
 73
    6
 40
31.75
 49
12.7
 74
    0
 49
-6.35
 74
    0
 49
0
 74
    0
 49
-6.35
 74
    0
 49
0
 74
    0
 49
-6.35
 74
    0
  0
LTYPE
  5
3F
330
5
100
AcDbSymbolTableRecord
100
AcDbLinetypeTableRecord
  2
DIVIDETINY
 70
    0
  3
Divide (.15x) __..__..__..__..__..__..__..__.._
 72
   65
 73
    6
 40
4.7625
 49
1.905
 74
    0
 49
-0.9525
 74
    0
 49
0
 74
    0
 49
-0.9525
 74
    0
 49
0
 74
    0
 49
-0.9525
 74
    0
  0
LTYPE
  5
40
330
5
100
AcDbSymbolTableRecord
100
AcDbLinetypeTableRecord
  2
DIVIDE2
 70
    0
  3
Divide (.5x) __..__..__..__..__..__..__..__.._
 72
   65
 73
    6
 40
15.875
 49
6.35
 74
    0
 49
-3.175
 74
    0
 49
0
 74
    0
 49
-3.175
 74
    0
 49
0
 74
    0
 49
-3.175
 74
    0
  0
LTYPE
  5
41
330
5
100
AcDbSymbolTableRecord
100
AcDbLinetypeTableRecord
  2
DIVIDEX2
 70
    0
  3
Divide (2x) ________  .  .  ________  .  .  _
 72
   65
 73
    6
 40
63.5
 49
25.4
 74
    0
 49
-12.7
 74
    0
 49
0
 74
    0
 49
-12.7
 74
    0
 49
0
 74
    0
 49
-12.7
 74
    0
  0
LTYPE
  5
42
330
5
100
AcDbSymbolTableRecord
100
AcDbLinetypeTableRecord
  2
BORDER
 70
    0
  3
Border __ __ . __ __ . __ __ . __ __ . __ __ .
 72
   65
 73
    6
 40
44.45
 49
12.7
 74
    0
 49
-6.35
 74
    0
 49
12.7
 74
    0
 49
-6.35
 74
    0
 49
0
 74
    0
 49
-6.35
 74
    0
  0
LTYPE
  5
43
330
5
100
AcDbSymbolTableRecord
100
AcDbLinetypeTableRecord
  2
BORDERTINY
 70
    0
  3
Border (.15x) __.__.__.__.__.__.__.__.__.__.__.
 72
   65
 73
    6
 40
6.6675
 49
1.905
 74
    0
 49
-0.9525
 74
    0
 49
1.905
 74
    0
 49
-0.9525
 74
    0
 49
0
 74
    0
 49
-0.9525
 74
    0
  0
LTYPE
  5
44
330
5
100
AcDbSymbolTableRecord
100
AcDbLinetypeTableRecord
  2
BORDER2
 70
    0
  3
Border (.5x) __.__.__.__.__.__.__.__.__.__.__.
 72
   65
 73
    6
 40
22.225
 49
6.35
 74
    0
 49
-3.175
 74
    0
 49
6.35
 74
    0
 49
-3.175
 74
    0
 49
0
 74
    0
 49
-3.175
 74
    0
  0
LTYPE
  5
45
330
5
100
AcDbSymbolTableRecord
100
AcDbLinetypeTableRecord
  2
BORDERX2
 70
    0
  3
Border (2x) ____  ____  .  ____  ____  .  ___
 72
   65
 73
    6
 40
88.89999999999999
 49
25.4
 74
    0
 49
-12.7
 74
    0
 49
25.4
 74
    0
 49
-12.7
 74
    0
 49
0
 74
    0
 49
-12.7
 74
    0
  0
LTYPE
  5
46
330
5
100
AcDbSymbolTableRecord
100
AcDbLinetypeTableRecord
  2
CENTER
 70
    0
  3
Center ____ _ ____ _ ____ _ ____ _ ____ _ ____
 72
   65
 73
    4
 40
50.8
 49
31.75
 74
    0
 49
-6.35
 74
    0
 49
6.35
 74
    0
 49
-6.35
 74
    0
  0
LTYPE
  5
47
330
5
100
AcDbSymbolTableRecord
100
AcDbLinetypeTableRecord
  2
CENTERTINY
 70
    0
  3
Center (.15x) ___ _ ___ _ ___ _ ___ _ ___ _ ___
 72
   65
 73
    4
 40
7.619999999999999
 49
4.7625
 74
    0
 49
-0.9525
 74
    0
 49
0.9525
 74
    0
 49
-0.9525
 74
    0
  0
LTYPE
  5
48
330
5
100
AcDbSymbolTableRecord
100
AcDbLinetypeTableRecord
  2
CENTER2
 70
    0
  3
Center (.5x) ___ _ ___ _ ___ _ ___ _ ___ _ ___
 72
   65
 73
    4
 40
28.575
 49
19.05
 74
    0
 49
-3.175
 74
    0
 49
3.175
 74
    0
 49
-3.175
 74
    0
  0
LTYPE
  5
49
330
5
100
AcDbSymbolTableRecord
100
AcDbLinetypeTableRecord
  2
CENTERX2
 70
    0
  3
Center (2x) ________  __  ________  __  _____
 72
   65
 73
    4
 40
101.6
 49
63.5
 74
    0
 49
-12.7
 74
    0
 49
12.7
 74
    0
 49
-12.7
 74
    0
  0
ENDTAB
  0
TABLE
  2
LAYER
  5
2
330
0
100
AcDbSymbolTable
 70
    1
  0
LAYER
  5
10
330
2
100
AcDbSymbolTableRecord
100
AcDbLayerTableRecord
  2
0
 70
    0
 62
    7
  6
CONTINUOUS
370
   50
390
F
  0
LAYER
  5
4A
330
2
100
AcDbSymbolTableRecord
100
AcDbLayerTableRecord
  2
1
 70
    0
 62
    7
  6
CONTINUOUS
370
   50
390
F
  0
LAYER
  5
4B
330
2
100
AcDbSymbolTableRecord
100
AcDbLayerTableRecord
  2
2
 70
    0
 62
    7
  6
CONTINUOUS
370
   50
390
F
  0
LAYER
  5
4C
330
2
100
AcDbSymbolTableRecord
100
AcDbLayerTableRecord
  2
Center
 70
    0
 62
    7
  6
CENTERTINY
370
   25
390
F
  0
LAYER
  5
4D
330
2
100
AcDbSymbolTableRecord
100
AcDbLayerTableRecord
  2
Construction
 70
    0
 62
    6
  6
CONTINUOUS
290
0
370
   25
390
F
  0
LAYER
  5
4E
330
2
100
AcDbSymbolTableRecord
100
AcDbLayerTableRecord
  2
Dimension
 70
    0
 62
    7
  6
CONTINUOUS
370
   25
390
F
  0
LAYER
  5
4F
330
2
100
AcDbSymbolTableRecord
100
AcDbLayerTableRecord
  2
Frame
 70
    0
 62
    7
  6
CONTINUOUS
370
   25
390
F
  0
LAYER
  5
50
330
2
100
AcDbSymbolTableRecord
100
AcDbLayerTableRecord
  2
Hatching
 70
    0
 62
    7
  6
CONTINUOUS
370
   25
390
F
  0
LAYER
  5
51
330
2
100
AcDbSymbolTableRecord
100
AcDbLayerTableRecord
  2
Hidden
 70
    0
 62
    7
  6
DASHEDTINY
370
   25
390
F
  0
LAYER
  5
52
330
2
100
AcDbSymbolTableRecord
100
AcDbLayerTableRecord
  2
Logo
 70
    0
 62
    7
  6
CONTINUOUS
370
   70
390
F
  0
LAYER
  5
53
330
2
100
AcDbSymbolTableRecord
100
AcDbLayerTableRecord
  2
Notes
 70
    0
 62
    7
  6
CONTINUOUS
370
   25
390
F
  0
LAYER
  5
54
330
2
100
AcDbSymbolTableRecord
100
AcDbLayerTableRecord
  2
Paper Bounds
 70
    0
 62
    6
  6
CONTINUOUS
290
0
370
    0
390
F
  0
LAYER
  5
55
330
2
100
AcDbSymbolTableRecord
100
AcDbLayerTableRecord
  2
Phantom
 70
    0
 62
    7
  6
DASHDOTTINY
370
   25
390
F
  0
LAYER
  5
56
330
2
100
AcDbSymbolTableRecord
100
AcDbLayerTableRecord
  2
Title
 70
    0
 62
    7
  6
CONTINUOUS
370
   50
390
F
  0
ENDTAB
  0
TABLE
  2
STYLE
  5
3
330
0
100
AcDbSymbolTable
 70
    3
  0
STYLE
  5
57
330
2
100
AcDbSymbolTableRecord
100
AcDbTextStyleTableRecord
  2
standard
 70
    0
 40
0
 41
1
 50
0
 71
    0
 42
1
  3
standard
  4

  0
STYLE
  5
58
330
2
100
AcDbSymbolTableRecord
100
AcDbTextStyleTableRecord
  2
simplex
 70
    0
 40
0
 41
1
 50
0
 71
    0
 42
1
  3
simplex
  4

  0
STYLE
  5
59
330
2
100
AcDbSymbolTableRecord
100
AcDbTextStyleTableRecord
  2
iso
 70
    0
 40
0
 41
1
 50
0
 71
    0
 42
1
  3
iso
  4

  0
ENDTAB
  0
TABLE
  2
VIEW
  5
6
330
0
100
AcDbSymbolTable
 70
    0
  0
ENDTAB
  0
TABLE
  2
UCS
  5
7
330
0
100
AcDbSymbolTable
 70
    0
  0
ENDTAB
  0
TABLE
  2
APPID
  5
9
330
0
100
AcDbSymbolTable
 70
    1
  0
APPID
  5
12
330
9
100
AcDbSymbolTableRecord
100
AcDbRegAppTableRecord
  2
ACAD
 70
    0
  0
APPID
  5
5A
330
9
100
AcDbSymbolTableRecord
100
AcDbRegAppTableRecord
  2
LibreCad
 70
    0
  0
ENDTAB
  0
TABLE
  2
DIMSTYLE
  5
A
330
0
100
AcDbSymbolTable
 70
    1
100
AcDbDimStyleTable
 71
    1
  0
DIMSTYLE
105
5B
330
A
100
AcDbSymbolTableRecord
100
AcDbDimStyleTableRecord
  2
Standard
 70
    0
 40
1
 41
2.5
 42
0.625
 43
0.38
 44
1.25
 45
0
 46
0
 47
0
 48
0
 49
1
140
2.5
141
0.09
142
0
143
25.4
144
1
145
0
146
1
147
0.625
148
0
 71
    0
 72
    0
 73
    1
 74
    1
 75
    0
 76
    0
 77
    0
 78
    1
 79
    0
170
    0
171
    2
172
    0
173
    0
174
    0
175
    0
176
    0
177
    0
178
    0
179
    2
271
    2
272
    4
273
    2
274
    2
275
    0
276
    0
277
    2
278
    0
279
    0
280
    0
281
    0
282
    0
283
    1
284
    0
285
    0
286
    0
288
    0
289
    3
340
standard
341

371
   -2
372
   -2
  0
ENDTAB
  0
TABLE
  2
BLOCK_RECORD
  5
1
330
0
100
AcDbSymbolTable
 70
    2
  0
BLOCK_RECORD
  5
1F
330
1
100
AcDbSymbolTableRecord
100
AcDbBlockTableRecord
  2
*Model_Space
 70
    0
280
    1
281
    0
  0
BLOCK_RECORD
  5
1E
330
1
100
AcDbSymbolTableRecord
100
AcDbBlockTableRecord
  2
*Paper_Space
 70
    0
280
    1
281
    0
  0
BLOCK_RECORD
  5
5C
330
1
100
AcDbSymbolTableRecord
100
AcDbBlockTableRecord
  2
*D6
 70
    0
280
    1
281
    0
  0
BLOCK_RECORD
  5
5F
330
1
100
AcDbSymbolTableRecord
100
AcDbBlockTableRecord
  2
*D2
 70
    0
280
    1
281
    0
  0
BLOCK_RECORD
  5
62
330
1
100
AcDbSymbolTableRecord
100
AcDbBlockTableRecord
  2
*D1
 70
    0
280
    1
281
    0
  0
BLOCK_RECORD
  5
65
330
1
100
AcDbSymbolTableRecord
100
AcDbBlockTableRecord
  2
*D4
 70
    0
280
    1
281
    0
  0
BLOCK_RECORD
  5
68
330
1
100
AcDbSymbolTableRecord
100
AcDbBlockTableRecord
  2
*D3
 70
    0
280
    1
281
    0
  0
BLOCK_RECORD
  5
6B
330
1
100
AcDbSymbolTableRecord
100
AcDbBlockTableRecord
  2
*D5
 70
    0
280
    1
281
    0
  0
BLOCK_RECORD
  5
6E
330
1
100
AcDbSymbolTableRecord
100
AcDbBlockTableRecord
  2
Page Template
 70
    0
280
    1
281
    0
  0
BLOCK_RECORD
  5
71
330
1
100
AcDbSymbolTableRecord
100
AcDbBlockTableRecord
  2
slitting_fixture_30.0_view_2
 70
    0
280
    1
281
    0
  0
BLOCK_RECORD
  5
74
330
1
100
AcDbSymbolTableRecord
100
AcDbBlockTableRecord
  2
slitting_fixture_30.0_view_1
 70
    0
280
    1
281
    0
  0
BLOCK_RECORD
  5
77
330
1
100
AcDbSymbolTableRecord
100
AcDbBlockTableRecord
  2
slitting_fixture_30.0_view_isometric
 70
    0
280
    1
281
    0
  0
ENDTAB
  0
ENDSEC
  0
SECTION
  2
BLOCKS
  0
BLOCK
  5
20
330
1F
100
AcDbEntity
  8
0
100
AcDbBlockBegin
  2
*Model_Space
 70
    0
 10
0
 20
0
 30
0
  3
*Model_Space
  1

  0
ENDBLK
  5
21
330
1F
100
AcDbEntity
  8
0
100
AcDbBlockEnd
  0
BLOCK
  5
1C
330
1B
100
AcDbEntity
  8
0
100
AcDbBlockBegin
  2
*Paper_Space
 70
    0
 10
0
 20
0
 30
0
  3
*Paper_Space
  1

  0
ENDBLK
  5
1D
330
1F
100
AcDbEntity
  8
0
100
AcDbBlockEnd
  0
BLOCK
  5
5D
330
5C
100
AcDbEntity
  8
0
100
AcDbBlockBegin
  2
*D6
 70
    1
 10
0
 20
0
  3
*D6
  1

  0
SOLID
  5
7A
100
AcDbEntity
  8
Dimension
  6
ByBlock
 62
    0
370
   -2
100
AcDbTrace
 10
99.10000440741285
 20
133.6196653204707
 30
0
 11
101.6000044074129
 21
134.0359499782435
 31
0
 12
101.6000044074129
 22
133.2033806626978
 32
0
 13
101.6000044074129
 23
133.2033806626978
 33
0
  0
SOLID
  5
7B
100
AcDbEntity
  8
Dimension
  6
ByBlock
 62
    0
370
   -2
100
AcDbTrace
 10
93.59999999999999
 20
133.6196653204707
 30
0
 11
91.09999999999999
 21
133.2033806626978
 31
0
 12
91.09999999999999
 22
134.0359499782435
 32
0
 13
91.09999999999999
 23
134.0359499782435
 33
0
  0
LINE
  5
7C
100
AcDbEntity
  8
Dimension
  6
ByLayer
 62
  256
370
   -1
100
AcDbLine
 10
104.1000044074129
 20
133.6196653204707
 11
99.10000440741285
 21
133.6196653204707
  0
LINE
  5
7D
100
AcDbEntity
  8
Dimension
  6
ByLayer
 62
  256
370
   -1
100
AcDbLine
 10
88.59999999999999
 20
133.6196653204707
 11
93.59999999999999
 21
133.6196653204707
  0
MTEXT
  5
7E
100
AcDbEntity
  8
Dimension
  6
CONTINUOUS
 62
    0
370
   -2
100
AcDbMText
 10
108.070756275096
 20
133.6196653204707
 30
0
 40
2.5
 41
5.833333333333643
 71
    5
 72
    1
  1
5.50
  7
standard
210
0
220
0
230
1
 50
0
 73
    2
 44
1
  0
LINE
  5
7F
100
AcDbEntity
  8
Dimension
  6
ByBlock
 62
    0
370
   -2
100
AcDbLine
 10
99.10000440741285
 20
116.6244896738152
 11
99.10000440741285
 21
134.8696653204707
  0
LINE
  5
80
100
AcDbEntity
  8
Dimension
  6
ByBlock
 62
    0
370
   -2
100
AcDbLine
 10
93.59999999999999
 20
117.186263063267
 11
93.59999999999999
 21
134.8696653204707
  0
ENDBLK
  5
5E
330
5C
100
AcDbEntity
  8
0
100
AcDbBlockEnd
  0
BLOCK
  5
60
330
5F
100
AcDbEntity
  8
0
100
AcDbBlockBegin
  2
*D2
 70
    1
 10
0
 20
0
  3
*D2
  1

  0
SOLID
  5
81
100
AcDbEntity
  8
Dimension
  6
ByBlock
 62
    0
370
   -2
100
AcDbTrace
 10
128.9329338938625
 20
90.98054043997276
 30
0
 11
128.5166492360896
 21
93.48054043997276
 31
0
 12
129.3492185516353
 22
93.48054043997276
 32
0
 13
129.3492185516353
 23
93.48054043997276
 33
0
  0
SOLID
  5
82
100
AcDbEntity
  8
Dimension
  6
ByBlock
 62
    0
370
   -2
100
AcDbTrace
 10
128.9329338938625
 20
129.0805404399728
 30
0
 11
129.3492185516353
 21
126.5805404399728
 31
0
 12
128.5166492360896
 22
126.5805404399728
 32
0
 13
128.5166492360896
 23
126.5805404399728
 33
0
  0
LINE
  5
83
100
AcDbEntity
  8
Dimension
  6
ByLayer
 62
  256
370
   -1
100
AcDbLine
 10
128.9329338938625
 20
90.98054043997276
 11
128.9329338938625
 21
112.2794917704651
  0
LINE
  5
84
100
AcDbEntity
  8
Dimension
  6
ByLayer
 62
  256
370
   -1
100
AcDbLine
 10
128.9329338938625
 20
116.0294917704651
 11
128.9329338938625
 21
129.0805404399728
  0
MTEXT
  5
85
100
AcDbEntity
  8
Dimension
  6
CONTINUOUS
 62
    0
370
   -2
100
AcDbMText
 10
128.9329338938625
 20
114.1544917704651
 30
0
 40
2.5
 41
9.722222222222378
 71
    5
 72
    1
  1
%%C38.10
  7
standard
210
0
220
0
230
1
 50
0
 73
    2
 44
1
  0
LINE
  5
86
100
AcDbEntity
  8
Dimension
  6
ByBlock
 62
    0
370
   -2
100
AcDbLine
 10
149.375
 20
90.98054043997276
 11
127.6829338938625
 21
90.98054043997276
  0
LINE
  5
87
100
AcDbEntity
  8
Dimension
  6
ByBlock
 62
    0
370
   -2
100
AcDbLine
 10
149.375
 20
129.0805404399728
 11
127.6829338938625
 21
129.0805404399728
  0
ENDBLK
  5
61
330
5F
100
AcDbEntity
  8
0
100
AcDbBlockEnd
  0
BLOCK
  5
63
330
62
100
AcDbEntity
  8
0
100
AcDbBlockBegin
  2
*D1
 70
    1
 10
0
 20
0
  3
*D1
  1

  0
SOLID
  5
88
100
AcDbEntity
  8
Dimension
  6
ByBlock
 62
    0
370
   -2
100
AcDbTrace
 10
141.2730548234809
 20
125.1305404399728
 30
0
 11
141.6893394812537
 21
122.6305404399728
 31
0
 12
140.856770165708
 22
122.6305404399728
 32
0
 13
140.856770165708
 23
122.6305404399728
 33
0
  0
SOLID
  5
89
100
AcDbEntity
  8
Dimension
  6
ByBlock
 62
    0
370
   -2
100
AcDbTrace
 10
141.2730548234809
 20
94.93054043997277
 30
0
 11
140.856770165708
 21
97.43054043997277
 31
0
 12
141.6893394812537
 22
97.43054043997277
 32
0
 13
141.6893394812537
 23
97.43054043997277
 33
0
  0
LINE
  5
8A
100
AcDbEntity
  8
Dimension
  6
ByLayer
 62
  256
370
   -1
100
AcDbLine
 10
141.2730548234809
 20
125.1305404399728
 11
141.2730548234809
 21
111.9055404399728
  0
LINE
  5
8B
100
AcDbEntity
  8
Dimension
  6
ByLayer
 62
  256
370
   -1
100
AcDbLine
 10
141.2730548234809
 20
108.1555404399728
 11
141.2730548234809
 21
94.93054043997277
  0
MTEXT
  5
8C
100
AcDbEntity
  8
Dimension
  6
CONTINUOUS
 62
    0
370
   -2
100
AcDbMText
 10
141.2730548234809
 20
110.0305404399728
 30
0
 40
2.5
 41
10.27777777777793
 71
    5
 72
    1
  1
%%C30.20
  7
standard
210
0
220
0
230
1
 50
0
 73
    2
 44
1
  0
LINE
  5
8D
100
AcDbEntity
  8
Dimension
  6
ByBlock
 62
    0
370
   -2
100
AcDbLine
 10
149.375
 20
125.1305404399728
 11
140.0230548234809
 21
125.1305404399728
  0
LINE
  5
8E
100
AcDbEntity
  8
Dimension
  6
ByBlock
 62
    0
370
   -2
100
AcDbLine
 10
149.375
 20
94.93054043997277
 11
140.0230548234809
 21
94.93054043997277
  0
ENDBLK
  5
64
330
62
100
AcDbEntity
  8
0
100
AcDbBlockEnd
  0
BLOCK
  5
66
330
65
100
AcDbEntity
  8
0
100
AcDbBlockBegin
  2
*D4
 70
    1
 10
0
 20
0
  3
*D4
  1

  0
SOLID
  5
8F
100
AcDbEntity
  8
Dimension
  6
ByBlock
 62
    0
370
   -2
100
AcDbTrace
 10
80.00000440741285
 20
140.4274604566785
 30
0
 11
77.50000440741285
 21
140.0111757989056
 31
0
 12
77.50000440741285
 22
140.8437451144513
 32
0
 13
77.50000440741285
 23
140.8437451144513
 33
0
  0
SOLID
  5
90
100
AcDbEntity
  8
Dimension
  6
ByBlock
 62
    0
370
   -2
100
AcDbTrace
 10
93.59999999999999
 20
140.4274604566785
 30
0
 11
96.09999999999999
 21
140.8437451144513
 31
0
 12
96.09999999999999
 22
140.0111757989056
 32
0
 13
96.09999999999999
 23
140.0111757989056
 33
0
  0
LINE
  5
91
100
AcDbEntity
  8
Dimension
  6
ByLayer
 62
  256
370
   -1
100
AcDbLine
 10
75.00000440741285
 20
140.4274604566785
 11
80.00000440741285
 21
140.4274604566785
  0
LINE
  5
92
100
AcDbEntity
  8
Dimension
  6
ByLayer
 62
  256
370
   -1
100
AcDbLine
 10
98.59999999999999
 20
140.4274604566785
 11
93.59999999999999
 21
140.4274604566785
  0
MTEXT
  5
93
100
AcDbEntity
  8
Dimension
  6
CONTINUOUS
 62
    0
370
   -2
100
AcDbMText
 10
86.80000220370641
 20
140.4274604566785
 30
0
 40
2.5
 41
9.4444438888892
 71
    5
 72
    1
  1
(13.60)
  7
standard
210
0
220
0
230
1
 50
0
 73
    2
 44
1
  0
LINE
  5
94
100
AcDbEntity
  8
Dimension
  6
ByBlock
 62
    0
370
   -2
100
AcDbLine
 10
80.00000440741285
 20
115.6250040467669
 11
80.00000440741285
 21
141.6774604566785
  0
LINE
  5
95
100
AcDbEntity
  8
Dimension
  6
ByBlock
 62
    0
370
   -2
100
AcDbLine
 10
93.59999999999999
 20
115.385
 11
93.59999999999999
 21
141.6774604566785
  0
ENDBLK
  5
67
330
65
100
AcDbEntity
  8
0
100
AcDbBlockEnd
  0
BLOCK
  5
69
330
68
100
AcDbEntity
  8
0
100
AcDbBlockBegin
  2
*D3
 70
    1
 10
0
 20
0
  3
*D3
  1

  0
LINE
  5
96
100
AcDbEntity
  8
Dimension
  6
CONTINUOUS
 62
    7
370
    0
100
AcDbLine
 10
81.61827401500152
 20
107.35591429557
 11
95.94886147599262
 21
90.35785638998553
  0
LINE
  5
97
100
AcDbEntity
  8
Dimension
  6
CONTINUOUS
 62
    7
370
    0
100
AcDbLine
 10
95.94886147599262
 20
90.35785638998553
 11
99.8264940356427
 21
90.35785638998553
  0
SOLID
  5
98
100
AcDbEntity
  8
Dimension
  6
CONTINUOUS
 62
    7
370
    0
100
AcDbTrace
 10
81.61827401500152
 20
107.35591429557
 30
0
 11
83.54796343613697
 21
105.7128708834062
 31
0
 12
82.91142515419263
 22
105.1762232515214
 32
0
 13
82.91142515419263
 23
105.1762232515214
 33
0
  0
ENDBLK
  5
6A
330
68
100
AcDbEntity
  8
0
100
AcDbBlockEnd
  0
BLOCK
  5
6C
330
6B
100
AcDbEntity
  8
0
100
AcDbBlockBegin
  2
*D5
 70
    1
 10
0
 20
0
  3
*D5
  1

  0
SOLID
  5
99
100
AcDbEntity
  8
Dimension
  6
ByBlock
 62
    0
370
   -2
100
AcDbTrace
 10
106.8251504047852
 20
105.2400190479866
 30
0
 11
107.241435062558
 21
102.7400190479866
 31
0
 12
106.4088657470124
 22
102.7400190479866
 32
0
 13
106.4088657470124
 23
102.7400190479866
 33
0
  0
SOLID
  5
9A
100
AcDbEntity
  8
Dimension
  6
ByBlock
 62
    0
370
   -2
100
AcDbTrace
 10
106.8251504047852
 20
114.7599890455473
 30
0
 11
106.4088657470124
 21
117.2599890455473
 31
0
 12
107.241435062558
 22
117.2599890455473
 32
0
 13
107.241435062558
 23
117.2599890455473
 33
0
  0
LINE
  5
9B
100
AcDbEntity
  8
Dimension
  6
ByLayer
 62
  256
370
   -1
100
AcDbLine
 10
106.8251504047852
 20
100.2400190479866
 11
106.8251504047852
 21
105.2400190479866
  0
LINE
  5
9C
100
AcDbEntity
  8
Dimension
  6
ByLayer
 62
  256
370
   -1
100
AcDbLine
 10
106.8251504047852
 20
119.7599890455473
 11
106.8251504047852
 21
114.7599890455473
  0
MTEXT
  5
9D
100
AcDbEntity
  8
Dimension
  6
CONTINUOUS
 62
    0
370
   -2
100
AcDbMText
 10
106.8251504047852
 20
110.0000040467669
 30
0
 40
2.5
 41
17.56944444444491
 71
    5
 72
    1
  1
9.52 [3/8"]
  7
standard
210
0
220
0
230
1
 50
0
 73
    2
 44
1
  0
LINE
  5
9E
100
AcDbEntity
  8
Dimension
  6
ByBlock
 62
    0
370
   -2
100
AcDbLine
 10
99.07073678136281
 20
105.2400190479866
 11
108.0751504047852
 21
105.2400190479866
  0
LINE
  5
9F
100
AcDbEntity
  8
Dimension
  6
ByBlock
 62
    0
370
   -2
100
AcDbLine
 10
99.07073678136281
 20
114.7599890455473
 11
108.0751504047852
 21
114.7599890455473
  0
ENDBLK
  5
6D
330
6B
100
AcDbEntity
  8
0
100
AcDbBlockEnd
  0
BLOCK
  5
6F
330
6E
100
AcDbEntity
  8
0
100
AcDbBlockBegin
  2
Page Template
 70
    0
 10
0
 20
0
  3
Page Template
  1

  0
LWPOLYLINE
  5
A0
100
AcDbEntity
  8
Frame
  6
ByLayer
 62
  256
370
   -1
100
AcDbPolyline
 90
    4
 70
    1
 43
0
 10
10
 20
10
 10
269.4
 20
10
 10
269.4
 20
205.9
 10
10
 20
205.9
  0
LINE
  5
A1
100
AcDbEntity
  8
Paper Bounds
  6
ByLayer
 62
  256
370
   -1
100
AcDbLine
 10
0
 20
215.9
 11
20
 21
215.9
  0
LINE
  5
A2
100
AcDbEntity
  8
Paper Bounds
  6
ByLayer
 62
  256
370
   -1
100
AcDbLine
 10
279.4
 20
0
 11
259.4
 21
0
  0
LINE
  5
A3
100
AcDbEntity
  8
Paper Bounds
  6
ByLayer
 62
  256
370
   -1
100
AcDbLine
 10
279.4
 20
0
 11
279.4
 21
20
  0
LINE
  5
A4
100
AcDbEntity
  8
Paper Bounds
  6
ByLayer
 62
  256
370
   -1
100
AcDbLine
 10
0
 20
215.9
 11
-1.224646799147353e-15
 21
195.9
  0
LINE
  5
A5
100
AcDbEntity
  8
Frame
  6
ByLayer
 62
  256
370
   -1
100
AcDbLine
 10
10
 20
20
 11
269.4
 21
20
  0
LINE
  5
A6
100
AcDbEntity
  8
Frame
  6
ByLayer
 62
  256
370
   -1
100
AcDbLine
 10
47.20000000000011
 20
20
 11
47.20000000000011
 21
10
  0
MTEXT
  5
A7
100
AcDbEntity
  8
Logo
  6
ByLayer
 62
  256
370
   -1
100
AcDbMText
 10
13
 20
15.5
 30
0
 40
5
 41
31.42858333333333
 71
    4
 72
    1
  1
upcycles
  7
simplex
210
0
220
0
230
1
 50
0
 73
    2
 44
1
  0
MTEXT
  5
A8
100
AcDbEntity
  8
Notes
  6
ByLayer
 62
  256
370
   -1
100
AcDbMText
 10
192.5060464745159
 20
36.23562684819499
 30
0
 40
2.5
 41
69.86111882541968
 71
    7
 72
    1
  1
General Notes:\P1. Unless otherwise specified, dimensions\P  are in millimeters.\P2. Intended only for 1-1/8" steerers.
  7
iso
210
0
220
0
230
1
 50
0
 73
    2
 44
1
  0
MTEXT
  5
A9
100
AcDbEntity
  8
Title
  6
ByLayer
 62
  256
370
   -1
100
AcDbMText
 10
158.3
 20
15
 30
0
 40
4
 41
158.6666641226411
 71
    5
 72
    1
  1
SLITTING FIXTURE JAW FOR STEERER CLAMP - SCALE: 1:1
  7
iso
210
0
220
0
230
1
 50
0
 73
    2
 44
1
  0
ENDBLK
  5
70
330
6E
100
AcDbEntity
  8
0
100
AcDbBlockEnd
  0
BLOCK
  5
72
330
71
100
AcDbEntity
  8
0
100
AcDbBlockBegin
  2
slitting_fixture_30.0_view_2
 70
    0
 10
0
 20
0
  3
slitting_fixture_30.0_view_2
  1

  0
CIRCLE
  5
AA
100
AcDbEntity
  8
0
  6
ByLayer
 62
  256
370
   -1
100
AcDbCircle
 10
0
 20
0
 40
3.100000000000001
  0
LINE
  5
AB
100
AcDbEntity
  8
0
  6
ByLayer
 62
  256
370
   -1
100
AcDbLine
 10
14.33012212090322
 20
4.760000000000007
 11
13.59999999999999
 21
4.759999999999996
  0
LINE
  5
AC
100
AcDbEntity
  8
0
  6
ByLayer
 62
  256
370
   -1
100
AcDbLine
 10
13.59999999999999
 20
4.759999999999996
 11
13.59999999999999
 21
-4.760000000000003
  0
LINE
  5
AD
100
AcDbEntity
  8
0
  6
ByLayer
 62
  256
370
   -1
100
AcDbLine
 10
13.59999999999999
 20
-4.760000000000003
 11
14.33012212090233
 21
-4.76
  0
ARC
  5
AE
100
AcDbEntity
  8
0
  6
ByLayer
 62
  256
370
   -1
100
AcDbCircle
 10
4.407412844908976e-06
 20
4.046766926002476e-06
 40
15.1
100
AcDbArc
 50
18.3748
 51
-18.3748
  0
ARC
  5
AF
100
AcDbEntity
  8
0
  6
ByLayer
 62
  256
370
   -1
100
AcDbCircle
 10
4.407412844908976e-06
 20
4.046766926002476e-06
 40
19.05
100
AcDbArc
 50
14.4697
 51
-14.4697
  0
LINE
  5
B0
100
AcDbEntity
  8
0
  6
ByLayer
 62
  256
370
   -1
100
AcDbLine
 10
14.33012212090322
 20
4.760000000000007
 11
18.44573395452495
 21
4.760000000000007
  0
LINE
  5
B1
100
AcDbEntity
  8
0
  6
ByLayer
 62
  256
370
   -1
100
AcDbLine
 10
14.33012212090233
 20
-4.76
 11
18.44573186595355
 21
-4.76
  0
ENDBLK
  5
73
330
71
100
AcDbEntity
  8
0
100
AcDbBlockEnd
  0
BLOCK
  5
75
330
74
100
AcDbEntity
  8
0
100
AcDbBlockBegin
  2
slitting_fixture_30.0_view_1
 70
    0
 10
0
 20
0
  3
slitting_fixture_30.0_view_1
  1

  0
LINE
  5
B2
100
AcDbEntity
  8
Hidden
  6
ByLayer
 62
  256
370
   -1
100
AcDbLine
 10
-8.881784197001252e-16
 20
3.130540439972766
 11
10
 21
3.130540439972766
  0
LINE
  5
B3
100
AcDbEntity
  8
Hidden
  6
ByLayer
 62
  256
370
   -1
100
AcDbLine
 10
10
 20
-3.069459560027234
 11
-8.881784197001252e-16
 21
-3.069459560027234
  0
LINE
  5
B4
100
AcDbEntity
  8
Hidden
  6
ByLayer
 62
  256
370
   -1
100
AcDbLine
 10
-10
 20
-15.06945956002723
 11
-8.881784197001252e-16
 21
-15.06945956002723
  0
LINE
  5
B5
100
AcDbEntity
  8
0
  6
ByLayer
 62
  256
370
   -1
100
AcDbLine
 10
-10
 20
-19.01945956002724
 11
-10
 21
19.08054043997276
  0
LINE
  5
B6
100
AcDbEntity
  8
0
  6
ByLayer
 62
  256
370
   -1
100
AcDbLine
 10
10
 20
19.08054043997276
 11
10
 21
-19.01945956002724
  0
LINE
  5
B7
100
AcDbEntity
  8
Hidden
  6
ByLayer
 62
  256
370
   -1
100
AcDbLine
 10
-8.881784197001252e-16
 20
-15.06945956002724
 11
0
 21
15.06945956002724
  0
LINE
  5
B8
100
AcDbEntity
  8
Hidden
  6
ByLayer
 62
  256
370
   -1
100
AcDbLine
 10
-8.881784197001252e-16
 20
15.13054043997276
 11
-10
 21
15.13054043997276
  0
LINE
  5
B9
100
AcDbEntity
  8
0
  6
ByLayer
 62
  256
370
   -1
100
AcDbLine
 10
-10
 20
19.08054043997276
 11
10
 21
19.08054043997276
  0
LINE
  5
BA
100
AcDbEntity
  8
0
  6
ByLayer
 62
  256
370
   -1
100
AcDbLine
 10
-10
 20
-19.01945956002724
 11
10
 21
-19.01945956002724
  0
LINE
  5
BB
100
AcDbEntity
  8
0
  6
ByLayer
 62
  256
370
   -1
100
AcDbLine
 10
10
 20
4.790540439972764
 11
-10
 21
4.790540439972764
  0
LINE
  5
BC
100
AcDbEntity
  8
0
  6
ByLayer
 62
  256
370
   -1
100
AcDbLine
 10
-10
 20
-4.729459560027238
 11
10
 21
-4.729459560027237
  0
ENDBLK
  5
76
330
74
100
AcDbEntity
  8
0
100
AcDbBlockEnd
  0
BLOCK
  5
78
330
77
100
AcDbEntity
  8
0
100
AcDbBlockBegin
  2
slitting_fixture_30.0_view_isometric
 70
    0
 10
0
 20
0
  3
slitting_fixture_30.0_view_isometric
  1

  0
LINE
  5
BD
100
AcDbEntity
  8
0
  6
ByLayer
 62
  256
370
   -1
100
AcDbLine
 10
-0.9244835652048948
 20
-11.62878464377208
 11
-3.834656746557746
 21
-9.948595374129578
  0
LINE
  5
BE
100
AcDbEntity
  8
0
  6
ByLayer
 62
  256
370
   -1
100
AcDbLine
 10
3.236411065307731
 20
-5.866112469490947
 11
2.720136762522751
 21
-5.568041361802356
  0
LINE
  5
BF
100
AcDbEntity
  8
0
  6
ByLayer
 62
  256
370
   -1
100
AcDbLine
 10
-23.49258327347977
 20
16.28596015117709
 11
-22.98698167361773
 21
16.54840399149341
  0
LINE
  5
C0
100
AcDbEntity
  8
0
  6
ByLayer
 62
  256
370
   -1
100
AcDbLine
 10
-22.98698167361773
 20
16.54840399149341
 11
-22.45794118502244
 21
16.76568586268814
  0
LINE
  5
C1
100
AcDbEntity
  8
0
  6
ByLayer
 62
  256
370
   -1
100
AcDbLine
 10
-22.45794118502244
 20
16.76568586268814
 11
-21.90771698324754
 21
16.93720803839585
  0
LINE
  5
C2
100
AcDbEntity
  8
0
  6
ByLayer
 62
  256
370
   -1
100
AcDbLine
 10
-21.90771698324754
 20
16.93720803839585
 11
-21.33870887949827
 21
17.06274325068273
  0
LINE
  5
C3
100
AcDbEntity
  8
0
  6
ByLayer
 62
  256
370
   -1
100
AcDbLine
 10
-21.33870887949827
 20
17.06274325068273
 11
-20.7534272998773
 21
17.14243158137058
  0
LINE
  5
C4
100
AcDbEntity
  8
0
  6
ByLayer
 62
  256
370
   -1
100
AcDbLine
 10
-20.7534272998773
 20
17.14243158137058
 11
-20.15445789447748
 21
17.1767702145987
  0
LINE
  5
C5
100
AcDbEntity
  8
0
  6
ByLayer
 62
  256
370
   -1
100
AcDbLine
 10
-20.15445789447748
 20
17.1767702145987
 11
-19.54442578441881
 21
17.16659655688784
  0
LINE
  5
C6
100
AcDbEntity
  8
0
  6
ByLayer
 62
  256
370
   -1
100
AcDbLine
 10
-19.54442578441881
 20
17.16659655688784
 11
-18.92596042649404
 21
17.11306544883762
  0
LINE
  5
C7
100
AcDbEntity
  8
0
  6
ByLayer
 62
  256
370
   -1
100
AcDbLine
 10
-18.92596042649404
 20
17.11306544883762
 11
-18.30166200327988
 21
17.01762136609464
  0
LINE
  5
C8
100
AcDbEntity
  8
0
  6
ByLayer
 62
  256
370
   -1
100
AcDbLine
 10
-18.30166200327988
 20
17.01762136609464
 11
-17.67407013817116
 21
16.88196662935087
  0
LINE
  5
C9
100
AcDbEntity
  8
0
  6
ByLayer
 62
  256
370
   -1
100
AcDbLine
 10
-17.67407013817116
 20
16.88196662935087
 11
-17.04563559857435
 21
16.70802671087843
  0
LINE
  5
CA
100
AcDbEntity
  8
0
  6
ByLayer
 62
  256
370
   -1
100
AcDbLine
 10
-17.04563559857435
 20
16.70802671087843
 11
-16.41869549632865
 21
16.49791373940554
  0
LINE
  5
CB
100
AcDbEntity
  8
0
  6
ByLayer
 62
  256
370
   -1
100
AcDbLine
 10
-16.41869549632865
 20
16.49791373940554
 11
-15.795452332389
 21
16.25388927036162
  0
LINE
  5
CC
100
AcDbEntity
  8
0
  6
ByLayer
 62
  256
370
   -1
100
AcDbLine
 10
-15.795452332389
 20
16.25388927036162
 11
-15.1779570723839
 21
15.97832731175436
  0
LINE
  5
CD
100
AcDbEntity
  8
0
  6
ByLayer
 62
  256
370
   -1
100
AcDbLine
 10
-15.1779570723839
 20
15.97832731175436
 11
-14.56809628907189
 21
15.67367848610298
  0
LINE
  5
CE
100
AcDbEntity
  8
0
  6
ByLayer
 62
  256
370
   -1
100
AcDbLine
 10
-14.56809628907189
 20
15.67367848610298
 11
-13.96758327347977
 21
15.34243607575672
  0
LINE
  5
CF
100
AcDbEntity
  8
0
  6
ByLayer
 62
  256
370
   -1
100
AcDbLine
 10
-13.96758327347977
 20
15.34243607575672
 11
-13.36707025788766
 21
14.98026578369502
  0
LINE
  5
D0
100
AcDbEntity
  8
0
  6
ByLayer
 62
  256
370
   -1
100
AcDbLine
 10
-13.36707025788766
 20
14.98026578369502
 11
-12.75720947457563
 21
14.58070803451962
  0
LINE
  5
D1
100
AcDbEntity
  8
0
  6
ByLayer
 62
  256
370
   -1
100
AcDbLine
 10
-12.75720947457563
 20
14.58070803451962
 11
-12.13971421457054
 21
14.14324788395235
  0
LINE
  5
D2
100
AcDbEntity
  8
0
  6
ByLayer
 62
  256
370
   -1
100
AcDbLine
 10
-12.13971421457054
 20
14.14324788395235
 11
-11.51647105063088
 21
13.66761313605396
  0
LINE
  5
D3
100
AcDbEntity
  8
0
  6
ByLayer
 62
  256
370
   -1
100
AcDbLine
 10
-11.51647105063088
 20
13.66761313605396
 11
-10.88953094838519
 21
13.1537980339322
  0
LINE
  5
D4
100
AcDbEntity
  8
0
  6
ByLayer
 62
  256
370
   -1
100
AcDbLine
 10
-10.88953094838519
 20
13.1537980339322
 11
-10.26109640878838
 21
12.6020842511961
  0
LINE
  5
D5
100
AcDbEntity
  8
0
  6
ByLayer
 62
  256
370
   -1
100
AcDbLine
 10
-10.26109640878838
 20
12.6020842511961
 11
-9.63350454367966
 21
12.01305832341639
  0
LINE
  5
D6
100
AcDbEntity
  8
0
  6
ByLayer
 62
  256
370
   -1
100
AcDbLine
 10
-9.63350454367966
 20
12.01305832341639
 11
-9.009206120465498
 21
11.38762468076466
  0
LINE
  5
D7
100
AcDbEntity
  8
0
  6
ByLayer
 62
  256
370
   -1
100
AcDbLine
 10
-9.009206120465498
 20
11.38762468076466
 11
-8.390740762540723
 21
10.72701350705023
  0
LINE
  5
D8
100
AcDbEntity
  8
0
  6
ByLayer
 62
  256
370
   -1
100
AcDbLine
 10
-8.390740762540723
 20
10.72701350705023
 11
-7.780708652482053
 21
10.03278275884771
  0
LINE
  5
D9
100
AcDbEntity
  8
0
  6
ByLayer
 62
  256
370
   -1
100
AcDbLine
 10
-7.780708652482053
 20
10.03278275884771
 11
-7.181739247082238
 21
9.306813830731723
  0
LINE
  5
DA
100
AcDbEntity
  8
0
  6
ByLayer
 62
  256
370
   -1
100
AcDbLine
 10
-7.181739247082238
 20
9.306813830731723
 11
-6.596457667461261
 21
8.551300544952074
  0
LINE
  5
DB
100
AcDbEntity
  8
0
  6
ByLayer
 62
  256
370
   -1
100
AcDbLine
 10
-6.596457667461261
 20
8.551300544952074
 11
-6.027449563711997
 21
7.768731368923757
  0
LINE
  5
DC
100
AcDbEntity
  8
0
  6
ByLayer
 62
  256
370
   -1
100
AcDbLine
 10
-6.027449563711997
 20
7.768731368923757
 11
-5.477225360646957
 21
6.96186500924295
  0
LINE
  5
DD
100
AcDbEntity
  8
0
  6
ByLayer
 62
  256
370
   -1
100
AcDbLine
 10
-5.477225360646957
 20
6.96186500924295
 11
-4.948184873186277
 21
6.133699802745445
  0
LINE
  5
DE
100
AcDbEntity
  8
0
  6
ByLayer
 62
  256
370
   -1
100
AcDbLine
 10
-4.948184873186277
 20
6.133699802745445
 11
-4.442583273479764
 21
5.287437523114714
  0
LINE
  5
DF
100
AcDbEntity
  8
0
  6
ByLayer
 62
  256
370
   -1
100
AcDbLine
 10
-4.442583273479764
 20
5.287437523114714
 11
-3.96249944076807
 21
4.426442553498918
  0
LINE
  5
E0
100
AcDbEntity
  8
0
  6
ByLayer
 62
  256
370
   -1
100
AcDbLine
 10
-3.96249944076807
 20
4.426442553498918
 11
-3.509807577281396
 21
3.554197448739258
  0
LINE
  5
E1
100
AcDbEntity
  8
0
  6
ByLayer
 62
  256
370
   -1
100
AcDbLine
 10
-3.509807577281396
 20
3.554197448739258
 11
-3.086152917133424
 21
2.674256138313058
  0
LINE
  5
E2
100
AcDbEntity
  8
0
  6
ByLayer
 62
  256
370
   -1
100
AcDbLine
 10
-3.086152917133424
 20
2.674256138313058
 11
-2.692932179086712
 21
1.790196070447245
  0
LINE
  5
E3
100
AcDbEntity
  8
0
  6
ByLayer
 62
  256
370
   -1
100
AcDbLine
 10
-2.692932179086712
 20
1.790196070447245
 11
-2.331279270515381
 21
0.9055707112385756
  0
LINE
  5
E4
100
AcDbEntity
  8
0
  6
ByLayer
 62
  256
370
   -1
100
AcDbLine
 10
-2.331279270515381
 20
0.9055707112385756
 11
-2.002056439108687
 21
0.02386352601467934
  0
LINE
  5
E5
100
AcDbEntity
  8
0
  6
ByLayer
 62
  256
370
   -1
100
AcDbLine
 10
-2.002056439108687
 20
0.02386352601467934
 11
-1.705851030106356
 21
-0.8515551525216107
  0
LINE
  5
E6
100
AcDbEntity
  8
0
  6
ByLayer
 62
  256
370
   -1
100
AcDbLine
 10
-1.705851030106356
 20
-0.8515551525216107
 11
-1.442977650608192
 21
-1.717467450702315
  0
LINE
  5
E7
100
AcDbEntity
  8
0
  6
ByLayer
 62
  256
370
   -1
100
AcDbLine
 10
-1.442977650608192
 20
-1.717467450702315
 11
-1.213485439297441
 21
-2.570842566074213
  0
LINE
  5
E8
100
AcDbEntity
  8
0
  6
ByLayer
 62
  256
370
   -1
100
AcDbLine
 10
-1.213485439297441
 20
-2.570842566074213
 11
-1.017169954906866
 21
-3.408866028356684
  0
LINE
  5
E9
100
AcDbEntity
  8
0
  6
ByLayer
 62
  256
370
   -1
100
AcDbLine
 10
-1.017169954906866
 20
-3.408866028356684
 11
-0.9244835652048984
 21
-3.85573719334012
  0
LINE
  5
EA
100
AcDbEntity
  8
0
  6
ByLayer
 62
  256
370
   -1
100
AcDbLine
 10
-8.446515461614293
 20
6.555337865453923
 11
-8.598305732557181
 21
6.448560606782708
  0
LINE
  5
EB
100
AcDbEntity
  8
0
  6
ByLayer
 62
  256
370
   -1
100
AcDbLine
 10
-8.598305732557181
 20
6.448560606782708
 11
-8.731235587211064
 21
6.314999439459831
  0
LINE
  5
EC
100
AcDbEntity
  8
0
  6
ByLayer
 62
  256
370
   -1
100
AcDbLine
 10
-8.731235587211064
 20
6.314999439459831
 11
-8.84366156064581
 21
6.157383079242875
  0
LINE
  5
ED
100
AcDbEntity
  8
0
  6
ByLayer
 62
  256
370
   -1
100
AcDbLine
 10
-8.84366156064581
 20
6.157383079242875
 11
-8.9346402611367
 21
5.979070037994523
  0
LINE
  5
EE
100
AcDbEntity
  8
0
  6
ByLayer
 62
  256
370
   -1
100
AcDbLine
 10
-8.9346402611367
 20
5.979070037994523
 11
-9.003931802169461
 21
5.783840304306109
  0
LINE
  5
EF
100
AcDbEntity
  8
0
  6
ByLayer
 62
  256
370
   -1
100
AcDbLine
 10
-9.003931802169461
 20
5.783840304306109
 11
-9.051951332966233
 21
5.575674445732215
  0
LINE
  5
F0
100
AcDbEntity
  8
0
  6
ByLayer
 62
  256
370
   -1
100
AcDbLine
 10
-9.051951332966233
 20
5.575674445732215
 11
-9.079679517408787
 21
5.358543578121282
  0
LINE
  5
F1
100
AcDbEntity
  8
0
  6
ByLayer
 62
  256
370
   -1
100
AcDbLine
 10
-9.079679517408787
 20
5.358543578121282
 11
-9.088546483292593
 21
5.136228814160139
  0
LINE
  5
F2
100
AcDbEntity
  8
0
  6
ByLayer
 62
  256
370
   -1
100
AcDbLine
 10
-9.088546483292593
 20
5.136228814160139
 11
-9.0796795174865
 21
4.903675360958653
  0
LINE
  5
F3
100
AcDbEntity
  8
0
  6
ByLayer
 62
  256
370
   -1
100
AcDbLine
 10
-9.0796795174865
 20
4.903675360958653
 11
-9.051951332966228
 21
4.654526742804109
  0
LINE
  5
F4
100
AcDbEntity
  8
0
  6
ByLayer
 62
  256
370
   -1
100
AcDbLine
 10
-9.051951332966228
 20
4.654526742804109
 11
-9.003931802169461
 21
4.390912706166489
  0
LINE
  5
F5
100
AcDbEntity
  8
0
  6
ByLayer
 62
  256
370
   -1
100
AcDbLine
 10
-9.003931802169461
 20
4.390912706166489
 11
-8.934640261136703
 21
4.115671992742429
  0
LINE
  5
F6
100
AcDbEntity
  8
0
  6
ByLayer
 62
  256
370
   -1
100
AcDbLine
 10
-8.934640261136703
 20
4.115671992742429
 11
-8.84366156064581
 21
3.832305797056202
  0
LINE
  5
F7
100
AcDbEntity
  8
0
  6
ByLayer
 62
  256
370
   -1
100
AcDbLine
 10
-8.84366156064581
 20
3.832305797056202
 11
-8.731235587211064
 21
3.544871104786334
  0
LINE
  5
F8
100
AcDbEntity
  8
0
  6
ByLayer
 62
  256
370
   -1
100
AcDbLine
 10
-8.731235587211064
 20
3.544871104786334
 11
-8.598305729830011
 21
3.257815757274633
  0
LINE
  5
F9
100
AcDbEntity
  8
0
  6
ByLayer
 62
  256
370
   -1
100
AcDbLine
 10
-8.598305729830011
 20
3.257815757274633
 11
-8.446515461614295
 21
2.975766196478243
  0
LINE
  5
FA
100
AcDbEntity
  8
0
  6
ByLayer
 62
  256
370
   -1
100
AcDbLine
 10
-8.446515461614295
 20
2.975766196478243
 11
-8.278148507587119
 21
2.703287182669531
  0
LINE
  5
FB
100
AcDbEntity
  8
0
  6
ByLayer
 62
  256
370
   -1
100
AcDbLine
 10
-8.278148507587119
 20
2.703287182669531
 11
-8.096016216399457
 21
2.444638880588698
  0
LINE
  5
FC
100
AcDbEntity
  8
0
  6
ByLayer
 62
  256
370
   -1
100
AcDbLine
 10
-8.096016216399457
 20
2.444638880588698
 11
-7.903303457682161
 21
2.203557785414078
  0
LINE
  5
FD
100
AcDbEntity
  8
0
  6
ByLayer
 62
  256
370
   -1
100
AcDbLine
 10
-7.903303457682161
 20
2.203557785414078
 11
-7.703390483889585
 21
1.98308482174256
  0
LINE
  5
FE
100
AcDbEntity
  8
0
  6
ByLayer
 62
  256
370
   -1
100
AcDbLine
 10
-7.703390483889585
 20
1.98308482174256
 11
-7.499670804424964
 21
1.78545623022878
  0
LINE
  5
FF
100
AcDbEntity
  8
0
  6
ByLayer
 62
  256
370
   -1
100
AcDbLine
 10
-7.499670804424964
 20
1.78545623022878
 11
-7.295384117300989
 21
1.612063078362145
  0
LINE
  5
100
100
AcDbEntity
  8
0
  6
ByLayer
 62
  256
370
   -1
100
AcDbLine
 10
-7.295384117300989
 20
1.612063078362145
 11
-7.093479177782887
 21
1.463475457676557
  0
LINE
  5
101
100
AcDbEntity
  8
0
  6
ByLayer
 62
  256
370
   -1
100
AcDbLine
 10
-7.093479177782887
 20
1.463475457676557
 11
-6.896515461614294
 21
1.339519712846211
  0
LINE
  5
102
100
AcDbEntity
  8
0
  6
ByLayer
 62
  256
370
   -1
100
AcDbLine
 10
-6.896515461614294
 20
1.339519712846211
 11
-6.699551746306991
 21
1.236041348983044
  0
LINE
  5
103
100
AcDbEntity
  8
0
  6
ByLayer
 62
  256
370
   -1
100
AcDbLine
 10
-6.699551746306991
 20
1.236041348983044
 11
-6.497646805927598
 21
1.151489226898108
  0
LINE
  5
104
100
AcDbEntity
  8
0
  6
ByLayer
 62
  256
370
   -1
100
AcDbLine
 10
-6.497646805927598
 20
1.151489226898108
 11
-6.293360118803621
 21
1.088992431158973
  0
LINE
  5
105
100
AcDbEntity
  8
0
  6
ByLayer
 62
  256
370
   -1
100
AcDbLine
 10
-6.293360118803621
 20
1.088992431158973
 11
-6.089640439339004
 21
1.05138579911651
  0
LINE
  5
106
100
AcDbEntity
  8
0
  6
ByLayer
 62
  256
370
   -1
100
AcDbLine
 10
-6.089640439339004
 20
1.05138579911651
 11
-5.889727465546425
 21
1.041019144320744
  0
LINE
  5
107
100
AcDbEntity
  8
0
  6
ByLayer
 62
  256
370
   -1
100
AcDbLine
 10
-5.889727465546425
 20
1.041019144320744
 11
-5.697014706829131
 21
1.059574713251951
  0
LINE
  5
108
100
AcDbEntity
  8
0
  6
ByLayer
 62
  256
370
   -1
100
AcDbLine
 10
-5.697014706829131
 20
1.059574713251951
 11
-5.514882415641472
 21
1.107914760642145
  0
LINE
  5
109
100
AcDbEntity
  8
0
  6
ByLayer
 62
  256
370
   -1
100
AcDbLine
 10
-5.514882415641472
 20
1.107914760642145
 11
-5.346515461614296
 21
1.1859803619904
  0
LINE
  5
10A
100
AcDbEntity
  8
0
  6
ByLayer
 62
  256
370
   -1
100
AcDbLine
 10
-3.52833993926984
 20
-9.771743282983907
 11
-3.958565243407477
 21
-9.678749565859826
  0
LINE
  5
10B
100
AcDbEntity
  8
0
  6
ByLayer
 62
  256
370
   -1
100
AcDbLine
 10
-3.958565243407477
 20
-9.678749565859826
 11
-4.456694458520953
 21
-9.540875929695314
  0
LINE
  5
10C
100
AcDbEntity
  8
0
  6
ByLayer
 62
  256
370
   -1
100
AcDbLine
 10
-4.456694458520953
 20
-9.540875929695314
 11
-4.953639106495232
 21
-9.374329689840161
  0
LINE
  5
10D
100
AcDbEntity
  8
0
  6
ByLayer
 62
  256
370
   -1
100
AcDbLine
 10
-4.953639106495232
 20
-9.374329689840161
 11
-5.447653372925089
 21
-9.180903470283036
  0
LINE
  5
10E
100
AcDbEntity
  8
0
  6
ByLayer
 62
  256
370
   -1
100
AcDbLine
 10
-5.447653372925089
 20
-9.180903470283036
 11
-5.937111558020992
 21
-8.962479030652091
  0
LINE
  5
10F
100
AcDbEntity
  8
0
  6
ByLayer
 62
  256
370
   -1
100
AcDbLine
 10
-5.937111558020992
 20
-8.962479030652091
 11
-6.420518268152832
 21
-8.720998859138394
  0
LINE
  5
110
100
AcDbEntity
  8
0
  6
ByLayer
 62
  256
370
   -1
100
AcDbLine
 10
-6.420518268152832
 20
-8.720998859138394
 11
-6.896515461614298
 21
-8.458439258286504
  0
LINE
  5
111
100
AcDbEntity
  8
0
  6
ByLayer
 62
  256
370
   -1
100
AcDbLine
 10
-6.896515461614298
 20
-8.458439258286504
 11
-7.372512655075763
 21
-8.171364643581429
  0
LINE
  5
112
100
AcDbEntity
  8
0
  6
ByLayer
 62
  256
370
   -1
100
AcDbLine
 10
-7.372512655075763
 20
-8.171364643581429
 11
-7.855919365207603
 21
-7.854654826649746
  0
LINE
  5
113
100
AcDbEntity
  8
0
  6
ByLayer
 62
  256
370
   -1
100
AcDbLine
 10
-7.855919365207603
 20
-7.854654826649746
 11
-8.345377550303501
 21
-7.507901636436324
  0
LINE
  5
114
100
AcDbEntity
  8
0
  6
ByLayer
 62
  256
370
   -1
100
AcDbLine
 10
-8.345377550303501
 20
-7.507901636436324
 11
-8.839391816733359
 21
-7.130889316579855
  0
LINE
  5
115
100
AcDbEntity
  8
0
  6
ByLayer
 62
  256
370
   -1
100
AcDbLine
 10
-8.839391816733359
 20
-7.130889316579855
 11
-9.336336464707642
 21
-6.723613303874426
  0
LINE
  5
116
100
AcDbEntity
  8
0
  6
ByLayer
 62
  256
370
   -1
100
AcDbLine
 10
-9.336336464707642
 20
-6.723613303874426
 11
-9.834465679821118
 21
-6.286296867164974
  0
LINE
  5
117
100
AcDbEntity
  8
0
  6
ByLayer
 62
  256
370
   -1
100
AcDbLine
 10
-9.834465679821118
 20
-6.286296867164974
 11
-10.33192694822751
 21
-5.819404924410442
  0
LINE
  5
118
100
AcDbEntity
  8
0
  6
ByLayer
 62
  256
370
   -1
100
AcDbLine
 10
-10.33192694822751
 20
-5.819404924410442
 11
-10.8267776668907
 21
-5.323654373017213
  0
LINE
  5
119
100
AcDbEntity
  8
0
  6
ByLayer
 62
  256
370
   -1
100
AcDbLine
 10
-10.8267776668907
 20
-5.323654373017213
 11
-11.3170048009938
 21
-4.800020319311811
  0
LINE
  5
11A
100
AcDbEntity
  8
0
  6
ByLayer
 62
  256
370
   -1
100
AcDbLine
 10
-11.3170048009938
 20
-4.800020319311811
 11
-11.80054731342876
 21
-4.249737679004295
  0
LINE
  5
11B
100
AcDbEntity
  8
0
  6
ByLayer
 62
  256
370
   -1
100
AcDbLine
 10
-11.80054731342876
 20
-4.249737679004295
 11
-12.27532096285328
 21
-3.67429774123257
  0
LINE
  5
11C
100
AcDbEntity
  8
0
  6
ByLayer
 62
  256
370
   -1
100
AcDbLine
 10
-12.27532096285328
 20
-3.67429774123257
 11
-12.7392449446001
 21
-3.07543944121826
  0
LINE
  5
11D
100
AcDbEntity
  8
0
  6
ByLayer
 62
  256
370
   -1
100
AcDbLine
 10
-12.7392449446001
 20
-3.07543944121826
 11
-13.19026974074781
 21
-2.455135264943844
  0
LINE
  5
11E
100
AcDbEntity
  8
0
  6
ByLayer
 62
  256
370
   -1
100
AcDbLine
 10
-13.19026974074781
 20
-2.455135264943844
 11
-13.62640545973998
 21
-1.815571905276137
  0
LINE
  5
11F
100
AcDbEntity
  8
0
  6
ByLayer
 62
  256
370
   -1
100
AcDbLine
 10
-13.62640545973998
 20
-1.815571905276137
 11
-14.04574988902024
 21
-1.159125992214608
  0
LINE
  5
120
100
AcDbEntity
  8
0
  6
ByLayer
 62
  256
370
   -1
100
AcDbLine
 10
-14.04574988902024
 20
-1.159125992214608
 11
-14.4465154616143
 21
-0.488335418659513
  0
LINE
  5
121
100
AcDbEntity
  8
0
  6
ByLayer
 62
  256
370
   -1
100
AcDbLine
 10
-14.4465154616143
 20
-0.488335418659513
 11
-14.82705435252398
 21
0.1941330347401919
  0
LINE
  5
122
100
AcDbEntity
  8
0
  6
ByLayer
 62
  256
370
   -1
100
AcDbLine
 10
-14.82705435252398
 20
0.1941330347401919
 11
-15.1858809740865
 21
0.8855189185094892
  0
LINE
  5
123
100
AcDbEntity
  8
0
  6
ByLayer
 62
  256
370
   -1
100
AcDbLine
 10
-15.1858809740865
 20
0.8855189185094892
 11
-15.52169123222261
 21
1.583005212148535
  0
LINE
  5
124
100
AcDbEntity
  8
0
  6
ByLayer
 62
  256
370
   -1
100
AcDbLine
 10
-15.52169123222261
 20
1.583005212148535
 11
-15.83337800887598
 21
2.283756231486354
  0
LINE
  5
125
100
AcDbEntity
  8
0
  6
ByLayer
 62
  256
370
   -1
100
AcDbLine
 10
-15.83337800887598
 20
2.283756231486354
 11
-16.12004251908213
 21
2.984955335111084
  0
LINE
  5
126
100
AcDbEntity
  8
0
  6
ByLayer
 62
  256
370
   -1
100
AcDbLine
 10
-16.12004251908213
 20
2.984955335111084
 11
-16.38100129883232
 21
3.683841345446031
  0
LINE
  5
127
100
AcDbEntity
  8
0
  6
ByLayer
 62
  256
370
   -1
100
AcDbLine
 10
-16.38100129883232
 20
3.683841345446031
 11
-16.61578878838272
 21
4.377742765178208
  0
LINE
  5
128
100
AcDbEntity
  8
0
  6
ByLayer
 62
  256
370
   -1
100
AcDbLine
 10
-16.61578878838272
 20
4.377742765178208
 11
-16.82415561412667
 21
5.064108943788634
  0
LINE
  5
129
100
AcDbEntity
  8
0
  6
ByLayer
 62
  256
370
   -1
100
AcDbLine
 10
-16.82415561412667
 20
5.064108943788634
 11
-17.00606282624176
 21
5.740537512928567
  0
LINE
  5
12A
100
AcDbEntity
  8
0
  6
ByLayer
 62
  256
370
   -1
100
AcDbLine
 10
-17.00606282624176
 20
5.740537512928567
 11
-17.16167247528625
 21
6.404797580144592
  0
LINE
  5
12B
100
AcDbEntity
  8
0
  6
ByLayer
 62
  256
370
   -1
100
AcDbLine
 10
-17.16167247528625
 20
6.404797580144592
 11
-17.29133501141239
 21
7.054848353154791
  0
LINE
  5
12C
100
AcDbEntity
  8
0
  6
ByLayer
 62
  256
370
   -1
100
AcDbLine
 10
-17.29133501141239
 20
7.054848353154791
 11
-17.39557406078019
 21
7.688853048927951
  0
LINE
  5
12D
100
AcDbEntity
  8
0
  6
ByLayer
 62
  256
370
   -1
100
AcDbLine
 10
-17.39557406078019
 20
7.688853048927951
 11
-17.47506917410067
 21
8.305188113416376
  0
LINE
  5
12E
100
AcDbEntity
  8
0
  6
ByLayer
 62
  256
370
   -1
100
AcDbLine
 10
-17.47506917410067
 20
8.305188113416376
 11
-17.53063715312084
 21
8.90244793090636
  0
LINE
  5
12F
100
AcDbEntity
  8
0
  6
ByLayer
 62
  256
370
   -1
100
AcDbLine
 10
-17.53063715312084
 20
8.90244793090636
 11
-17.56321254514567
 21
9.479445330706238
  0
LINE
  5
130
100
AcDbEntity
  8
0
  6
ByLayer
 62
  256
370
   -1
100
AcDbLine
 10
-17.56321254514567
 20
9.479445330706238
 11
-17.57382785753117
 21
10.0352082997265
  0
LINE
  5
131
100
AcDbEntity
  8
0
  6
ByLayer
 62
  256
370
   -1
100
AcDbLine
 10
-17.57382785753117
 20
10.0352082997265
 11
-17.56321254514567
 21
10.57871376182017
  0
LINE
  5
132
100
AcDbEntity
  8
0
  6
ByLayer
 62
  256
370
   -1
100
AcDbLine
 10
-17.56321254514567
 20
10.57871376182017
 11
-17.53063715312084
 21
11.11809633891105
  0
LINE
  5
133
100
AcDbEntity
  8
0
  6
ByLayer
 62
  256
370
   -1
100
AcDbLine
 10
-17.53063715312084
 20
11.11809633891105
 11
-17.47506917410067
 21
11.6511917811098
  0
LINE
  5
134
100
AcDbEntity
  8
0
  6
ByLayer
 62
  256
370
   -1
100
AcDbLine
 10
-17.47506917410067
 20
11.6511917811098
 11
-17.39557406078019
 21
12.17573379544855
  0
LINE
  5
135
100
AcDbEntity
  8
0
  6
ByLayer
 62
  256
370
   -1
100
AcDbLine
 10
-17.39557406078019
 20
12.17573379544855
 11
-17.29133501141239
 21
12.68937360479657
  0
LINE
  5
136
100
AcDbEntity
  8
0
  6
ByLayer
 62
  256
370
   -1
100
AcDbLine
 10
-17.29133501141239
 20
12.68937360479657
 11
-17.16167247528625
 21
13.1897029775343
  0
LINE
  5
137
100
AcDbEntity
  8
0
  6
ByLayer
 62
  256
370
   -1
100
AcDbLine
 10
-17.16167247528625
 20
13.1897029775343
 11
-17.10064128207353
 21
13.37975767230575
  0
LINE
  5
138
100
AcDbEntity
  8
0
  6
ByLayer
 62
  256
370
   -1
100
AcDbLine
 10
2.720136762522756
 20
-1.751514666032578
 11
2.720136762522751
 21
-5.568041361802356
  0
LINE
  5
139
100
AcDbEntity
  8
0
  6
ByLayer
 62
  256
370
   -1
100
AcDbLine
 10
2.720136762522751
 20
-5.568041361802356
 11
9.791204574388228
 21
-1.485558457163729
  0
LINE
  5
13A
100
AcDbEntity
  8
0
  6
ByLayer
 62
  256
370
   -1
100
AcDbLine
 10
-4.442583273479767
 20
-16.70960773301004
 11
-3.962499440768076
 21
-16.40296582349361
  0
LINE
  5
13B
100
AcDbEntity
  8
0
  6
ByLayer
 62
  256
370
   -1
100
AcDbLine
 10
-3.962499440768076
 20
-16.40296582349361
 11
-3.509807576233966
 21
-16.05344425633692
  0
LINE
  5
13C
100
AcDbEntity
  8
0
  6
ByLayer
 62
  256
370
   -1
100
AcDbLine
 10
-3.509807576233966
 20
-16.05344425633692
 11
-3.086152913871263
 21
-15.6626972076767
  0
LINE
  5
13D
100
AcDbEntity
  8
0
  6
ByLayer
 62
  256
370
   -1
100
AcDbLine
 10
-3.086152913871263
 20
-15.6626972076767
 11
-2.692932179086718
 21
-15.23268934101407
  0
LINE
  5
13E
100
AcDbEntity
  8
0
  6
ByLayer
 62
  256
370
   -1
100
AcDbLine
 10
-2.692932179086718
 20
-15.23268934101407
 11
-2.331279270515379
 21
-14.76566479003914
  0
LINE
  5
13F
100
AcDbEntity
  8
0
  6
ByLayer
 62
  256
370
   -1
100
AcDbLine
 10
-2.331279270515379
 20
-14.76566479003914
 11
-2.002056439108685
 21
-14.2641113854873
  0
LINE
  5
140
100
AcDbEntity
  8
0
  6
ByLayer
 62
  256
370
   -1
100
AcDbLine
 10
-2.002056439108685
 20
-14.2641113854873
 11
-1.705851030106354
 21
-13.73072125219684
  0
LINE
  5
141
100
AcDbEntity
  8
0
  6
ByLayer
 62
  256
370
   -1
100
AcDbLine
 10
-1.705851030106354
 20
-13.73072125219684
 11
-1.442977650608197
 21
-13.16834898684824
  0
LINE
  5
142
100
AcDbEntity
  8
0
  6
ByLayer
 62
  256
370
   -1
100
AcDbLine
 10
-1.442977650608197
 20
-13.16834898684824
 11
-1.213485439297443
 21
-12.57996865143071
  0
LINE
  5
143
100
AcDbEntity
  8
0
  6
ByLayer
 62
  256
370
   -1
100
AcDbLine
 10
-1.213485439297443
 20
-12.57996865143071
 11
-1.017169954906873
 21
-11.96863078466622
  0
LINE
  5
144
100
AcDbEntity
  8
0
  6
ByLayer
 62
  256
370
   -1
100
AcDbLine
 10
-1.017169954906873
 20
-11.96863078466622
 11
-0.9244835652048948
 21
-11.62878464377208
  0
LINE
  5
145
100
AcDbEntity
  8
0
  6
ByLayer
 62
  256
370
   -1
100
AcDbLine
 10
-0.9244835652048948
 20
-11.62878464377208
 11
6.146584246660581
 21
-7.546301739133446
  0
LINE
  5
146
100
AcDbEntity
  8
0
  6
ByLayer
 62
  256
370
   -1
100
AcDbLine
 10
6.146584246660581
 20
-7.546301739133446
 11
13.21765205852605
 21
-3.463818834494814
  0
LINE
  5
147
100
AcDbEntity
  8
0
  6
ByLayer
 62
  256
370
   -1
100
AcDbLine
 10
-6.417583273479773
 20
-13.28880738806151
 11
-6.818348846073833
 21
-13.49683373917837
  0
LINE
  5
148
100
AcDbEntity
  8
0
  6
ByLayer
 62
  256
370
   -1
100
AcDbLine
 10
-6.818348846073833
 20
-13.49683373917837
 11
-7.237693275354088
 21
-13.66906241398364
  0
LINE
  5
149
100
AcDbEntity
  8
0
  6
ByLayer
 62
  256
370
   -1
100
AcDbLine
 10
-7.237693275354088
 20
-13.66906241398364
 11
-7.673828994346267
 21
-13.80501962412465
  0
LINE
  5
14A
100
AcDbEntity
  8
0
  6
ByLayer
 62
  256
370
   -1
100
AcDbLine
 10
-7.673828994346267
 20
-13.80501962412465
 11
-8.124853790493976
 21
-13.90452522546492
  0
LINE
  5
14B
100
AcDbEntity
  8
0
  6
ByLayer
 62
  256
370
   -1
100
AcDbLine
 10
-8.124853790493976
 20
-13.90452522546492
 11
-8.588777772240785
 21
-13.96769025398915
  0
LINE
  5
14C
100
AcDbEntity
  8
0
  6
ByLayer
 62
  256
370
   -1
100
AcDbLine
 10
-8.588777772240785
 20
-13.96769025398915
 11
-9.063551421665313
 21
-13.99490880316209
  0
LINE
  5
14D
100
AcDbEntity
  8
0
  6
ByLayer
 62
  256
370
   -1
100
AcDbLine
 10
-9.063551421665313
 20
-13.99490880316209
 11
-9.547093934100269
 21
-13.9868446440317
  0
LINE
  5
14E
100
AcDbEntity
  8
0
  6
ByLayer
 62
  256
370
   -1
100
AcDbLine
 10
-9.547093934100269
 20
-13.9868446440317
 11
-10.03732106820337
 21
-13.94441316206013
  0
LINE
  5
14F
100
AcDbEntity
  8
0
  6
ByLayer
 62
  256
370
   -1
100
AcDbLine
 10
-10.03732106820337
 20
-13.94441316206013
 11
-10.53217178686657
 21
-13.86875932219561
  0
LINE
  5
150
100
AcDbEntity
  8
0
  6
ByLayer
 62
  256
370
   -1
100
AcDbLine
 10
-10.53217178686657
 20
-13.86875932219561
 11
-11.02963305527295
 21
-13.76123247049846
  0
LINE
  5
151
100
AcDbEntity
  8
0
  6
ByLayer
 62
  256
370
   -1
100
AcDbLine
 10
-11.02963305527295
 20
-13.76123247049846
 11
-11.52776227038643
 21
-13.62335883433395
  0
LINE
  5
152
100
AcDbEntity
  8
0
  6
ByLayer
 62
  256
370
   -1
100
AcDbLine
 10
-11.52776227038643
 20
-13.62335883433395
 11
-12.02470691836071
 21
-13.45681259447879
  0
LINE
  5
153
100
AcDbEntity
  8
0
  6
ByLayer
 62
  256
370
   -1
100
AcDbLine
 10
-12.02470691836071
 20
-13.45681259447879
 11
-12.51872118479057
 21
-13.26338637492167
  0
LINE
  5
154
100
AcDbEntity
  8
0
  6
ByLayer
 62
  256
370
   -1
100
AcDbLine
 10
-12.51872118479057
 20
-13.26338637492167
 11
-13.00817936988647
 21
-13.04496193529072
  0
LINE
  5
155
100
AcDbEntity
  8
0
  6
ByLayer
 62
  256
370
   -1
100
AcDbLine
 10
-13.00817936988647
 20
-13.04496193529072
 11
-13.49158608001831
 21
-12.80348176377703
  0
LINE
  5
156
100
AcDbEntity
  8
0
  6
ByLayer
 62
  256
370
   -1
100
AcDbLine
 10
-13.49158608001831
 20
-12.80348176377703
 11
-13.96758327347977
 21
-12.54092216292514
  0
LINE
  5
157
100
AcDbEntity
  8
0
  6
ByLayer
 62
  256
370
   -1
100
AcDbLine
 10
-13.96758327347977
 20
-12.54092216292514
 11
-14.44358046694124
 21
-12.25384754822006
  0
LINE
  5
158
100
AcDbEntity
  8
0
  6
ByLayer
 62
  256
370
   -1
100
AcDbLine
 10
-14.44358046694124
 20
-12.25384754822006
 11
-14.92698717707308
 21
-11.93713773128838
  0
LINE
  5
159
100
AcDbEntity
  8
0
  6
ByLayer
 62
  256
370
   -1
100
AcDbLine
 10
-14.92698717707308
 20
-11.93713773128838
 11
-15.41644536216898
 21
-11.59038454107495
  0
LINE
  5
15A
100
AcDbEntity
  8
0
  6
ByLayer
 62
  256
370
   -1
100
AcDbLine
 10
-15.41644536216898
 20
-11.59038454107495
 11
-15.91045962859884
 21
-11.21337222121849
  0
LINE
  5
15B
100
AcDbEntity
  8
0
  6
ByLayer
 62
  256
370
   -1
100
AcDbLine
 10
-15.91045962859884
 20
-11.21337222121849
 11
-16.40740427657312
 21
-10.80609620851306
  0
LINE
  5
15C
100
AcDbEntity
  8
0
  6
ByLayer
 62
  256
370
   -1
100
AcDbLine
 10
-16.40740427657312
 20
-10.80609620851306
 11
-16.90553349168659
 21
-10.3687797718036
  0
LINE
  5
15D
100
AcDbEntity
  8
0
  6
ByLayer
 62
  256
370
   -1
100
AcDbLine
 10
-16.90553349168659
 20
-10.3687797718036
 11
-17.40299476009298
 21
-9.901887829049075
  0
LINE
  5
15E
100
AcDbEntity
  8
0
  6
ByLayer
 62
  256
370
   -1
100
AcDbLine
 10
-17.40299476009298
 20
-9.901887829049075
 11
-17.89784547875618
 21
-9.406137277655846
  0
LINE
  5
15F
100
AcDbEntity
  8
0
  6
ByLayer
 62
  256
370
   -1
100
AcDbLine
 10
-17.89784547875618
 20
-9.406137277655846
 11
-18.38807261285928
 21
-8.88250322395044
  0
LINE
  5
160
100
AcDbEntity
  8
0
  6
ByLayer
 62
  256
370
   -1
100
AcDbLine
 10
-18.38807261285928
 20
-8.88250322395044
 11
-18.87161512529423
 21
-8.332220583642929
  0
LINE
  5
161
100
AcDbEntity
  8
0
  6
ByLayer
 62
  256
370
   -1
100
AcDbLine
 10
-18.87161512529423
 20
-8.332220583642929
 11
-19.34638877471876
 21
-7.756780645871203
  0
LINE
  5
162
100
AcDbEntity
  8
0
  6
ByLayer
 62
  256
370
   -1
100
AcDbLine
 10
-19.34638877471876
 20
-7.756780645871203
 11
-19.81031275646557
 21
-7.157922345856892
  0
LINE
  5
163
100
AcDbEntity
  8
0
  6
ByLayer
 62
  256
370
   -1
100
AcDbLine
 10
-19.81031275646557
 20
-7.157922345856892
 11
-20.26133755261328
 21
-6.537618169582476
  0
LINE
  5
164
100
AcDbEntity
  8
0
  6
ByLayer
 62
  256
370
   -1
100
AcDbLine
 10
-20.26133755261328
 20
-6.537618169582476
 11
-20.69747327160545
 21
-5.898054809914767
  0
LINE
  5
165
100
AcDbEntity
  8
0
  6
ByLayer
 62
  256
370
   -1
100
AcDbLine
 10
-20.69747327160545
 20
-5.898054809914767
 11
-21.11681770100899
 21
-5.24160889665373
  0
LINE
  5
166
100
AcDbEntity
  8
0
  6
ByLayer
 62
  256
370
   -1
100
AcDbLine
 10
-21.11681770100899
 20
-5.24160889665373
 11
-21.51758327347978
 21
-4.570818323298145
  0
LINE
  5
167
100
AcDbEntity
  8
0
  6
ByLayer
 62
  256
370
   -1
100
AcDbLine
 10
-21.51758327347978
 20
-4.570818323298145
 11
-21.89812216438945
 21
-3.888349869898436
  0
LINE
  5
168
100
AcDbEntity
  8
0
  6
ByLayer
 62
  256
370
   -1
100
AcDbLine
 10
-21.89812216438945
 20
-3.888349869898436
 11
-22.25694878595198
 21
-3.196963986129146
  0
LINE
  5
169
100
AcDbEntity
  8
0
  6
ByLayer
 62
  256
370
   -1
100
AcDbLine
 10
-22.25694878595198
 20
-3.196963986129146
 11
-22.59275904150234
 21
-2.499477698074779
  0
LINE
  5
16A
100
AcDbEntity
  8
0
  6
ByLayer
 62
  256
370
   -1
100
AcDbLine
 10
-22.59275904150234
 20
-2.499477698074779
 11
-22.90444582074146
 21
-1.798726673152277
  0
LINE
  5
16B
100
AcDbEntity
  8
0
  6
ByLayer
 62
  256
370
   -1
100
AcDbLine
 10
-22.90444582074146
 20
-1.798726673152277
 11
-23.19111033094761
 21
-1.097527569527552
  0
LINE
  5
16C
100
AcDbEntity
  8
0
  6
ByLayer
 62
  256
370
   -1
100
AcDbLine
 10
-23.19111033094761
 20
-1.097527569527552
 11
-23.4520691106978
 21
-0.3986415591926002
  0
LINE
  5
16D
100
AcDbEntity
  8
0
  6
ByLayer
 62
  256
370
   -1
100
AcDbLine
 10
-23.4520691106978
 20
-0.3986415591926002
 11
-23.6868566002482
 21
0.2952598605395798
  0
LINE
  5
16E
100
AcDbEntity
  8
0
  6
ByLayer
 62
  256
370
   -1
100
AcDbLine
 10
-23.6868566002482
 20
0.2952598605395798
 11
-23.89522342599215
 21
0.9816260391500018
  0
LINE
  5
16F
100
AcDbEntity
  8
0
  6
ByLayer
 62
  256
370
   -1
100
AcDbLine
 10
-23.89522342599215
 20
0.9816260391500018
 11
-24.07713063810724
 21
1.658054608289933
  0
LINE
  5
170
100
AcDbEntity
  8
0
  6
ByLayer
 62
  256
370
   -1
100
AcDbLine
 10
-24.07713063810724
 20
1.658054608289933
 11
-24.23274028715173
 21
2.32231467550596
  0
LINE
  5
171
100
AcDbEntity
  8
0
  6
ByLayer
 62
  256
370
   -1
100
AcDbLine
 10
-24.23274028715173
 20
2.32231467550596
 11
-24.36240282327787
 21
2.972365448516157
  0
LINE
  5
172
100
AcDbEntity
  8
0
  6
ByLayer
 62
  256
370
   -1
100
AcDbLine
 10
-24.36240282327787
 20
2.972365448516157
 11
-24.46664187264567
 21
3.606370144289317
  0
LINE
  5
173
100
AcDbEntity
  8
0
  6
ByLayer
 62
  256
370
   -1
100
AcDbLine
 10
-24.46664187264567
 20
3.606370144289317
 11
-24.54613698596614
 21
4.222705208777741
  0
LINE
  5
174
100
AcDbEntity
  8
0
  6
ByLayer
 62
  256
370
   -1
100
AcDbLine
 10
-24.54613698596614
 20
4.222705208777741
 11
-24.60170496498632
 21
4.819965026267732
  0
LINE
  5
175
100
AcDbEntity
  8
0
  6
ByLayer
 62
  256
370
   -1
100
AcDbLine
 10
-24.60170496498632
 20
4.819965026267732
 11
-24.63428035701115
 21
5.396962426067605
  0
LINE
  5
176
100
AcDbEntity
  8
0
  6
ByLayer
 62
  256
370
   -1
100
AcDbLine
 10
-24.63428035701115
 20
5.396962426067605
 11
-24.64489566939664
 21
5.952725395087868
  0
LINE
  5
177
100
AcDbEntity
  8
0
  6
ByLayer
 62
  256
370
   -1
100
AcDbLine
 10
-24.64489566939664
 20
5.952725395087868
 11
-24.63428035701115
 21
6.496230857181534
  0
LINE
  5
178
100
AcDbEntity
  8
0
  6
ByLayer
 62
  256
370
   -1
100
AcDbLine
 10
-24.63428035701115
 20
6.496230857181534
 11
-24.60170496498631
 21
7.035613434272419
  0
LINE
  5
179
100
AcDbEntity
  8
0
  6
ByLayer
 62
  256
370
   -1
100
AcDbLine
 10
-24.60170496498631
 20
7.035613434272419
 11
-24.54613698596614
 21
7.568708876471172
  0
LINE
  5
17A
100
AcDbEntity
  8
0
  6
ByLayer
 62
  256
370
   -1
100
AcDbLine
 10
-24.54613698596614
 20
7.568708876471172
 11
-24.46664187264567
 21
8.093250890809919
  0
LINE
  5
17B
100
AcDbEntity
  8
0
  6
ByLayer
 62
  256
370
   -1
100
AcDbLine
 10
-24.46664187264567
 20
8.093250890809919
 11
-24.36240282327786
 21
8.606890700157933
  0
LINE
  5
17C
100
AcDbEntity
  8
0
  6
ByLayer
 62
  256
370
   -1
100
AcDbLine
 10
-24.36240282327786
 20
8.606890700157933
 11
-24.23274028715174
 21
9.107220072895668
  0
LINE
  5
17D
100
AcDbEntity
  8
0
  6
ByLayer
 62
  256
370
   -1
100
AcDbLine
 10
-24.23274028715174
 20
9.107220072895668
 11
-24.07713063810723
 21
9.591797594583007
  0
LINE
  5
17E
100
AcDbEntity
  8
0
  6
ByLayer
 62
  256
370
   -1
100
AcDbLine
 10
-24.07713063810723
 20
9.591797594583007
 11
-23.89522342599214
 21
10.05817780795858
  0
LINE
  5
17F
100
AcDbEntity
  8
0
  6
ByLayer
 62
  256
370
   -1
100
AcDbLine
 10
-23.89522342599214
 20
10.05817780795858
 11
-23.68685660024819
 21
10.50394270070209
  0
LINE
  5
180
100
AcDbEntity
  8
0
  6
ByLayer
 62
  256
370
   -1
100
AcDbLine
 10
-23.68685660024819
 20
10.50394270070209
 11
-23.45206911069779
 21
10.92673487984571
  0
LINE
  5
181
100
AcDbEntity
  8
0
  6
ByLayer
 62
  256
370
   -1
100
AcDbLine
 10
-23.45206911069779
 20
10.92673487984571
 11
-23.19111033094761
 21
11.32429164670832
  0
LINE
  5
182
100
AcDbEntity
  8
0
  6
ByLayer
 62
  256
370
   -1
100
AcDbLine
 10
-23.19111033094761
 20
11.32429164670832
 11
-22.90444582074145
 21
11.69447908606378
  0
LINE
  5
183
100
AcDbEntity
  8
0
  6
ByLayer
 62
  256
370
   -1
100
AcDbLine
 10
-22.90444582074145
 20
11.69447908606378
 11
-22.59275904408808
 21
12.03532521659426
  0
LINE
  5
184
100
AcDbEntity
  8
0
  6
ByLayer
 62
  256
370
   -1
100
AcDbLine
 10
-22.59275904408808
 20
12.03532521659426
 11
-22.25694878678222
 21
12.34505122366877
  0
LINE
  5
185
100
AcDbEntity
  8
0
  6
ByLayer
 62
  256
370
   -1
100
AcDbLine
 10
-22.25694878678222
 20
12.34505122366877
 11
-21.89812216450059
 21
12.62209981495832
  0
LINE
  5
186
100
AcDbEntity
  8
0
  6
ByLayer
 62
  256
370
   -1
100
AcDbLine
 10
-21.89812216450059
 20
12.62209981495832
 11
-21.51758327347977
 21
12.86515980622855
  0
LINE
  5
187
100
AcDbEntity
  8
0
  6
ByLayer
 62
  256
370
   -1
100
AcDbLine
 10
-21.51758327347977
 20
12.86515980622855
 11
-21.11681770100899
 21
13.07318615728827
  0
LINE
  5
188
100
AcDbEntity
  8
0
  6
ByLayer
 62
  256
370
   -1
100
AcDbLine
 10
-21.11681770100899
 20
13.07318615728827
 11
-20.69747327262809
 21
13.24541483178243
  0
LINE
  5
189
100
AcDbEntity
  8
0
  6
ByLayer
 62
  256
370
   -1
100
AcDbLine
 10
-20.69747327262809
 20
13.24541483178243
 11
-20.26133755615688
 21
13.38137204135185
  0
LINE
  5
18A
100
AcDbEntity
  8
0
  6
ByLayer
 62
  256
370
   -1
100
AcDbLine
 10
-20.26133755615688
 20
13.38137204135185
 11
-19.81031275646557
 21
13.48087764363198
  0
LINE
  5
18B
100
AcDbEntity
  8
0
  6
ByLayer
 62
  256
370
   -1
100
AcDbLine
 10
-19.81031275646557
 20
13.48087764363198
 11
-19.34638877471876
 21
13.5440426721562
  0
LINE
  5
18C
100
AcDbEntity
  8
0
  6
ByLayer
 62
  256
370
   -1
100
AcDbLine
 10
-19.34638877471876
 20
13.5440426721562
 11
-18.87161512529423
 21
13.57126122132915
  0
LINE
  5
18D
100
AcDbEntity
  8
0
  6
ByLayer
 62
  256
370
   -1
100
AcDbLine
 10
-18.87161512529423
 20
13.57126122132915
 11
-18.38807261285928
 21
13.56319706219876
  0
LINE
  5
18E
100
AcDbEntity
  8
0
  6
ByLayer
 62
  256
370
   -1
100
AcDbLine
 10
-18.38807261285928
 20
13.56319706219876
 11
-17.89784547875617
 21
13.52076558022719
  0
LINE
  5
18F
100
AcDbEntity
  8
0
  6
ByLayer
 62
  256
370
   -1
100
AcDbLine
 10
-17.89784547875617
 20
13.52076558022719
 11
-17.40299476009298
 21
13.44511174036268
  0
LINE
  5
190
100
AcDbEntity
  8
0
  6
ByLayer
 62
  256
370
   -1
100
AcDbLine
 10
-17.40299476009298
 20
13.44511174036268
 11
-16.90553349168659
 21
13.33758488866551
  0
LINE
  5
191
100
AcDbEntity
  8
0
  6
ByLayer
 62
  256
370
   -1
100
AcDbLine
 10
-16.90553349168659
 20
13.33758488866551
 11
-16.40740427657312
 21
13.19971125250101
  0
LINE
  5
192
100
AcDbEntity
  8
0
  6
ByLayer
 62
  256
370
   -1
100
AcDbLine
 10
-16.40740427657312
 20
13.19971125250101
 11
-15.91045962859883
 21
13.03316501264585
  0
LINE
  5
193
100
AcDbEntity
  8
0
  6
ByLayer
 62
  256
370
   -1
100
AcDbLine
 10
-15.91045962859883
 20
13.03316501264585
 11
-15.41644536216898
 21
12.83973879308874
  0
LINE
  5
194
100
AcDbEntity
  8
0
  6
ByLayer
 62
  256
370
   -1
100
AcDbLine
 10
-15.41644536216898
 20
12.83973879308874
 11
-14.92698717707307
 21
12.62131435345779
  0
LINE
  5
195
100
AcDbEntity
  8
0
  6
ByLayer
 62
  256
370
   -1
100
AcDbLine
 10
-14.92698717707307
 20
12.62131435345779
 11
-14.44358046694123
 21
12.37983418194409
  0
LINE
  5
196
100
AcDbEntity
  8
0
  6
ByLayer
 62
  256
370
   -1
100
AcDbLine
 10
-14.44358046694123
 20
12.37983418194409
 11
-13.96758327347977
 21
12.1172745810922
  0
LINE
  5
197
100
AcDbEntity
  8
0
  6
ByLayer
 62
  256
370
   -1
100
AcDbLine
 10
-13.96758327347977
 20
12.1172745810922
 11
-13.4915860800183
 21
11.83019996638713
  0
LINE
  5
198
100
AcDbEntity
  8
0
  6
ByLayer
 62
  256
370
   -1
100
AcDbLine
 10
-13.4915860800183
 20
11.83019996638713
 11
-13.00817936988646
 21
11.51349014945544
  0
LINE
  5
199
100
AcDbEntity
  8
0
  6
ByLayer
 62
  256
370
   -1
100
AcDbLine
 10
-13.00817936988646
 20
11.51349014945544
 11
-12.51872118479056
 21
11.16673695924202
  0
LINE
  5
19A
100
AcDbEntity
  8
0
  6
ByLayer
 62
  256
370
   -1
100
AcDbLine
 10
-12.51872118479056
 20
11.16673695924202
 11
-12.0247069183607
 21
10.78972463938555
  0
LINE
  5
19B
100
AcDbEntity
  8
0
  6
ByLayer
 62
  256
370
   -1
100
AcDbLine
 10
-12.0247069183607
 20
10.78972463938555
 11
-11.52776227038643
 21
10.38244862668011
  0
LINE
  5
19C
100
AcDbEntity
  8
0
  6
ByLayer
 62
  256
370
   -1
100
AcDbLine
 10
-11.52776227038643
 20
10.38244862668011
 11
-11.02963305527295
 21
9.945132189970661
  0
LINE
  5
19D
100
AcDbEntity
  8
0
  6
ByLayer
 62
  256
370
   -1
100
AcDbLine
 10
-11.02963305527295
 20
9.945132189970661
 11
-10.53217178686656
 21
9.478240247216139
  0
LINE
  5
19E
100
AcDbEntity
  8
0
  6
ByLayer
 62
  256
370
   -1
100
AcDbLine
 10
-10.53217178686656
 20
9.478240247216139
 11
-10.03732106820337
 21
8.982489695822899
  0
LINE
  5
19F
100
AcDbEntity
  8
0
  6
ByLayer
 62
  256
370
   -1
100
AcDbLine
 10
-10.03732106820337
 20
8.982489695822899
 11
-9.547093934100262
 21
8.458855642117504
  0
LINE
  5
1A0
100
AcDbEntity
  8
0
  6
ByLayer
 62
  256
370
   -1
100
AcDbLine
 10
-9.547093934100262
 20
8.458855642117504
 11
-9.063551421665307
 21
7.908573001809996
  0
LINE
  5
1A1
100
AcDbEntity
  8
0
  6
ByLayer
 62
  256
370
   -1
100
AcDbLine
 10
-9.063551421665307
 20
7.908573001809996
 11
-8.588777772240785
 21
7.333133064038268
  0
LINE
  5
1A2
100
AcDbEntity
  8
0
  6
ByLayer
 62
  256
370
   -1
100
AcDbLine
 10
-8.588777772240785
 20
7.333133064038268
 11
-8.124853790493972
 21
6.734274764023952
  0
LINE
  5
1A3
100
AcDbEntity
  8
0
  6
ByLayer
 62
  256
370
   -1
100
AcDbLine
 10
-8.124853790493972
 20
6.734274764023952
 11
-7.673828990802659
 21
6.113970582717868
  0
LINE
  5
1A4
100
AcDbEntity
  8
0
  6
ByLayer
 62
  256
370
   -1
100
AcDbLine
 10
-7.673828990802659
 20
6.113970582717868
 11
-7.23769327433145
 21
5.47440722653273
  0
LINE
  5
1A5
100
AcDbEntity
  8
0
  6
ByLayer
 62
  256
370
   -1
100
AcDbLine
 10
-7.23769327433145
 20
5.47440722653273
 11
-6.818348845950545
 21
4.817961314820796
  0
LINE
  5
1A6
100
AcDbEntity
  8
0
  6
ByLayer
 62
  256
370
   -1
100
AcDbLine
 10
-6.818348845950545
 20
4.817961314820796
 11
-6.417583273479769
 21
4.147170741465206
  0
LINE
  5
1A7
100
AcDbEntity
  8
0
  6
ByLayer
 62
  256
370
   -1
100
AcDbLine
 10
-6.417583273479769
 20
4.147170741465206
 11
-6.037044382570087
 21
3.464702288065507
  0
LINE
  5
1A8
100
AcDbEntity
  8
0
  6
ByLayer
 62
  256
370
   -1
100
AcDbLine
 10
-6.037044382570087
 20
3.464702288065507
 11
-5.678217761007571
 21
2.773316404296208
  0
LINE
  5
1A9
100
AcDbEntity
  8
0
  6
ByLayer
 62
  256
370
   -1
100
AcDbLine
 10
-5.678217761007571
 20
2.773316404296208
 11
-5.342407505457206
 21
2.075830116241844
  0
LINE
  5
1AA
100
AcDbEntity
  8
0
  6
ByLayer
 62
  256
370
   -1
100
AcDbLine
 10
-5.342407505457206
 20
2.075830116241844
 11
-5.030720726218088
 21
1.375079091319336
  0
LINE
  5
1AB
100
AcDbEntity
  8
0
  6
ByLayer
 62
  256
370
   -1
100
AcDbLine
 10
-5.030720726218088
 20
1.375079091319336
 11
-4.744056216011934
 21
0.6738799876946171
  0
LINE
  5
1AC
100
AcDbEntity
  8
0
  6
ByLayer
 62
  256
370
   -1
100
AcDbLine
 10
-4.744056216011934
 20
0.6738799876946171
 11
-4.483097436261741
 21
-0.02500602264033613
  0
LINE
  5
1AD
100
AcDbEntity
  8
0
  6
ByLayer
 62
  256
370
   -1
100
AcDbLine
 10
-4.483097436261741
 20
-0.02500602264033613
 11
-4.248309946711339
 21
-0.7189074423725135
  0
LINE
  5
1AE
100
AcDbEntity
  8
0
  6
ByLayer
 62
  256
370
   -1
100
AcDbLine
 10
-4.248309946711339
 20
-0.7189074423725135
 11
-4.039943120967395
 21
-1.405273620982942
  0
LINE
  5
1AF
100
AcDbEntity
  8
0
  6
ByLayer
 62
  256
370
   -1
100
AcDbLine
 10
-4.039943120967395
 20
-1.405273620982942
 11
-3.834656746557821
 21
-2.175547923697579
  0
LINE
  5
1B0
100
AcDbEntity
  8
0
  6
ByLayer
 62
  256
370
   -1
100
AcDbLine
 10
-3.834656746557821
 20
-2.175547923697579
 11
-0.9244835652048984
 21
-3.85573719334012
  0
LINE
  5
1B1
100
AcDbEntity
  8
0
  6
ByLayer
 62
  256
370
   -1
100
AcDbLine
 10
-0.9244835652048984
 20
-3.85573719334012
 11
6.146584246660582
 21
0.2267457112985096
  0
LINE
  5
1B2
100
AcDbEntity
  8
0
  6
ByLayer
 62
  256
370
   -1
100
AcDbLine
 10
6.146584246660582
 20
0.2267457112985096
 11
13.21765205852606
 21
4.30922861593714
  0
LINE
  5
1B3
100
AcDbEntity
  8
0
  6
ByLayer
 62
  256
370
   -1
100
AcDbLine
 10
13.21765205852606
 20
4.30922861593714
 11
13.12496566882408
 21
4.756099780920587
  0
LINE
  5
1B4
100
AcDbEntity
  8
0
  6
ByLayer
 62
  256
370
   -1
100
AcDbLine
 10
13.12496566882408
 20
4.756099780920587
 11
12.92865018443351
 21
5.594123243203052
  0
LINE
  5
1B5
100
AcDbEntity
  8
0
  6
ByLayer
 62
  256
370
   -1
100
AcDbLine
 10
12.92865018443351
 20
5.594123243203052
 11
12.69915797312276
 21
6.44749835857495
  0
LINE
  5
1B6
100
AcDbEntity
  8
0
  6
ByLayer
 62
  256
370
   -1
100
AcDbLine
 10
12.69915797312276
 20
6.44749835857495
 11
12.4362845936246
 21
7.313410656755654
  0
LINE
  5
1B7
100
AcDbEntity
  8
0
  6
ByLayer
 62
  256
370
   -1
100
AcDbLine
 10
12.4362845936246
 20
7.313410656755654
 11
12.14007918462227
 21
8.188829335291942
  0
LINE
  5
1B8
100
AcDbEntity
  8
0
  6
ByLayer
 62
  256
370
   -1
100
AcDbLine
 10
12.14007918462227
 20
8.188829335291942
 11
11.81085635321557
 21
9.070536520515837
  0
LINE
  5
1B9
100
AcDbEntity
  8
0
  6
ByLayer
 62
  256
370
   -1
100
AcDbLine
 10
11.81085635321557
 20
9.070536520515837
 11
11.44920344464424
 21
9.955161879724509
  0
LINE
  5
1BA
100
AcDbEntity
  8
0
  6
ByLayer
 62
  256
370
   -1
100
AcDbLine
 10
11.44920344464424
 20
9.955161879724509
 11
11.05598270985969
 21
10.83922194054475
  0
LINE
  5
1BB
100
AcDbEntity
  8
0
  6
ByLayer
 62
  256
370
   -1
100
AcDbLine
 10
11.05598270985969
 20
10.83922194054475
 11
10.63232804749699
 21
11.71916325592205
  0
LINE
  5
1BC
100
AcDbEntity
  8
0
  6
ByLayer
 62
  256
370
   -1
100
AcDbLine
 10
10.63232804749699
 20
11.71916325592205
 11
10.17963618296288
 21
12.59140836277618
  0
LINE
  5
1BD
100
AcDbEntity
  8
0
  6
ByLayer
 62
  256
370
   -1
100
AcDbLine
 10
10.17963618296288
 20
12.59140836277618
 11
9.69955235025119
 21
13.45240333239198
  0
LINE
  5
1BE
100
AcDbEntity
  8
0
  6
ByLayer
 62
  256
370
   -1
100
AcDbLine
 10
9.69955235025119
 20
13.45240333239198
 11
9.193950750389147
 21
14.29866561227441
  0
LINE
  5
1BF
100
AcDbEntity
  8
0
  6
ByLayer
 62
  256
370
   -1
100
AcDbLine
 10
9.193950750389147
 20
14.29866561227441
 11
8.664910261793853
 21
15.12683082047455
  0
LINE
  5
1C0
100
AcDbEntity
  8
0
  6
ByLayer
 62
  256
370
   -1
100
AcDbLine
 10
8.664910261793853
 20
15.12683082047455
 11
8.114686060018952
 21
15.93369717820103
  0
LINE
  5
1C1
100
AcDbEntity
  8
0
  6
ByLayer
 62
  256
370
   -1
100
AcDbLine
 10
8.114686060018952
 20
15.93369717820103
 11
7.545677956269688
 21
16.71626635422934
  0
LINE
  5
1C2
100
AcDbEntity
  8
0
  6
ByLayer
 62
  256
370
   -1
100
AcDbLine
 10
7.545677956269688
 20
16.71626635422934
 11
6.960396376648713
 21
17.47177964000899
  0
LINE
  5
1C3
100
AcDbEntity
  8
0
  6
ByLayer
 62
  256
370
   -1
100
AcDbLine
 10
6.960396376648713
 20
17.47177964000899
 11
6.3614269712489
 21
18.19774856812497
  0
LINE
  5
1C4
100
AcDbEntity
  8
0
  6
ByLayer
 62
  256
370
   -1
100
AcDbLine
 10
6.3614269712489
 20
18.19774856812497
 11
5.751394861190233
 21
18.8919793163275
  0
LINE
  5
1C5
100
AcDbEntity
  8
0
  6
ByLayer
 62
  256
370
   -1
100
AcDbLine
 10
5.751394861190233
 20
18.8919793163275
 11
5.132929503265458
 21
19.55259049004193
  0
LINE
  5
1C6
100
AcDbEntity
  8
0
  6
ByLayer
 62
  256
370
   -1
100
AcDbLine
 10
5.132929503265458
 20
19.55259049004193
 11
4.508631080051293
 21
20.17802413269365
  0
LINE
  5
1C7
100
AcDbEntity
  8
0
  6
ByLayer
 62
  256
370
   -1
100
AcDbLine
 10
4.508631080051293
 20
20.17802413269365
 11
3.881039214942568
 21
20.76705006047337
  0
LINE
  5
1C8
100
AcDbEntity
  8
0
  6
ByLayer
 62
  256
370
   -1
100
AcDbLine
 10
3.881039214942568
 20
20.76705006047337
 11
3.252604675345767
 21
21.31876384320946
  0
LINE
  5
1C9
100
AcDbEntity
  8
0
  6
ByLayer
 62
  256
370
   -1
100
AcDbLine
 10
3.252604675345767
 20
21.31876384320946
 11
2.625664573100068
 21
21.83257894533123
  0
LINE
  5
1CA
100
AcDbEntity
  8
0
  6
ByLayer
 62
  256
370
   -1
100
AcDbLine
 10
2.625664573100068
 20
21.83257894533123
 11
2.002421409160415
 21
22.30821369322962
  0
LINE
  5
1CB
100
AcDbEntity
  8
0
  6
ByLayer
 62
  256
370
   -1
100
AcDbLine
 10
2.002421409160415
 20
22.30821369322962
 11
1.384926149155321
 21
22.74567384379689
  0
LINE
  5
1CC
100
AcDbEntity
  8
0
  6
ByLayer
 62
  256
370
   -1
100
AcDbLine
 10
1.384926149155321
 20
22.74567384379689
 11
0.7750653658432973
 21
23.14523159297228
  0
LINE
  5
1CD
100
AcDbEntity
  8
0
  6
ByLayer
 62
  256
370
   -1
100
AcDbLine
 10
0.7750653658432973
 20
23.14523159297228
 11
0.1745523502511841
 21
23.50740188503398
  0
LINE
  5
1CE
100
AcDbEntity
  8
0
  6
ByLayer
 62
  256
370
   -1
100
AcDbLine
 10
0.1745523502511841
 20
23.50740188503398
 11
-0.4259606653409294
 21
23.83864429538024
  0
LINE
  5
1CF
100
AcDbEntity
  8
0
  6
ByLayer
 62
  256
370
   -1
100
AcDbLine
 10
-0.4259606653409294
 20
23.83864429538024
 11
-1.035821448652949
 21
24.14329312103163
  0
LINE
  5
1D0
100
AcDbEntity
  8
0
  6
ByLayer
 62
  256
370
   -1
100
AcDbLine
 10
-1.035821448652949
 20
24.14329312103163
 11
-1.653316708658044
 21
24.41885507963888
  0
LINE
  5
1D1
100
AcDbEntity
  8
0
  6
ByLayer
 62
  256
370
   -1
100
AcDbLine
 10
-1.653316708658044
 20
24.41885507963888
 11
-2.2765598725977
 21
24.6628795486828
  0
LINE
  5
1D2
100
AcDbEntity
  8
0
  6
ByLayer
 62
  256
370
   -1
100
AcDbLine
 10
-2.2765598725977
 20
24.6628795486828
 11
-2.903499974843398
 21
24.87299252015569
  0
LINE
  5
1D3
100
AcDbEntity
  8
0
  6
ByLayer
 62
  256
370
   -1
100
AcDbLine
 10
-2.903499974843398
 20
24.87299252015569
 11
-3.531934514440201
 21
25.04693243862814
  0
LINE
  5
1D4
100
AcDbEntity
  8
0
  6
ByLayer
 62
  256
370
   -1
100
AcDbLine
 10
-3.531934514440201
 20
25.04693243862814
 11
-4.159526379548923
 21
25.1825871753719
  0
LINE
  5
1D5
100
AcDbEntity
  8
0
  6
ByLayer
 62
  256
370
   -1
100
AcDbLine
 10
-4.159526379548923
 20
25.1825871753719
 11
-4.783824802763089
 21
25.27803125811489
  0
LINE
  5
1D6
100
AcDbEntity
  8
0
  6
ByLayer
 62
  256
370
   -1
100
AcDbLine
 10
-4.783824802763089
 20
25.27803125811489
 11
-5.402290160687861
 21
25.33156236616511
  0
LINE
  5
1D7
100
AcDbEntity
  8
0
  6
ByLayer
 62
  256
370
   -1
100
AcDbLine
 10
-5.402290160687861
 20
25.33156236616511
 11
-6.012322270746528
 21
25.34173602387596
  0
LINE
  5
1D8
100
AcDbEntity
  8
0
  6
ByLayer
 62
  256
370
   -1
100
AcDbLine
 10
-6.012322270746528
 20
25.34173602387596
 11
-6.611291676146344
 21
25.30739739064785
  0
LINE
  5
1D9
100
AcDbEntity
  8
0
  6
ByLayer
 62
  256
370
   -1
100
AcDbLine
 10
-6.611291676146344
 20
25.30739739064785
 11
-7.19657325576732
 21
25.22770905996
  0
LINE
  5
1DA
100
AcDbEntity
  8
0
  6
ByLayer
 62
  256
370
   -1
100
AcDbLine
 10
-7.19657325576732
 20
25.22770905996
 11
-7.765581359516585
 21
25.10217384767311
  0
LINE
  5
1DB
100
AcDbEntity
  8
0
  6
ByLayer
 62
  256
370
   -1
100
AcDbLine
 10
-7.765581359516585
 20
25.10217384767311
 11
-8.315805561291484
 21
24.93065167196541
  0
LINE
  5
1DC
100
AcDbEntity
  8
0
  6
ByLayer
 62
  256
370
   -1
100
AcDbLine
 10
-8.315805561291484
 20
24.93065167196541
 11
-8.84484604988678
 21
24.71336980077067
  0
LINE
  5
1DD
100
AcDbEntity
  8
0
  6
ByLayer
 62
  256
370
   -1
100
AcDbLine
 10
-8.84484604988678
 20
24.71336980077067
 11
-9.350447649748819
 21
24.45092596045436
  0
LINE
  5
1DE
100
AcDbEntity
  8
0
  6
ByLayer
 62
  256
370
   -1
100
AcDbLine
 10
-9.350447649748819
 20
24.45092596045436
 11
-16.4215154616143
 21
20.36844305581573
  0
LINE
  5
1DF
100
AcDbEntity
  8
0
  6
ByLayer
 62
  256
370
   -1
100
AcDbLine
 10
-16.4215154616143
 20
20.36844305581573
 11
-23.49258327347977
 21
16.28596015117709
  0
LINE
  5
1E0
100
AcDbEntity
  8
0
  6
ByLayer
 62
  256
370
   -1
100
AcDbLine
 10
-23.49258327347977
 20
16.28596015117709
 11
-23.97266710605126
 21
15.97931824175931
  0
LINE
  5
1E1
100
AcDbEntity
  8
0
  6
ByLayer
 62
  256
370
   -1
100
AcDbLine
 10
-23.97266710605126
 20
15.97931824175931
 11
-24.42535896967814
 21
15.62979667538898
  0
LINE
  5
1E2
100
AcDbEntity
  8
0
  6
ByLayer
 62
  256
370
   -1
100
AcDbLine
 10
-24.42535896967814
 20
15.62979667538898
 11
-24.84901362982612
 21
15.23904962912252
  0
LINE
  5
1E3
100
AcDbEntity
  8
0
  6
ByLayer
 62
  256
370
   -1
100
AcDbLine
 10
-24.84901362982612
 20
15.23904962912252
 11
-25.24223436787282
 21
14.80904175918113
  0
LINE
  5
1E4
100
AcDbEntity
  8
0
  6
ByLayer
 62
  256
370
   -1
100
AcDbLine
 10
-25.24223436787282
 20
14.80904175918113
 11
-25.60388727644416
 21
14.3420172082062
  0
LINE
  5
1E5
100
AcDbEntity
  8
0
  6
ByLayer
 62
  256
370
   -1
100
AcDbLine
 10
-25.60388727644416
 20
14.3420172082062
 11
-25.93311010785085
 21
13.84046380365436
  0
LINE
  5
1E6
100
AcDbEntity
  8
0
  6
ByLayer
 62
  256
370
   -1
100
AcDbLine
 10
-25.93311010785085
 20
13.84046380365436
 11
-26.22931551685318
 21
13.30707367036391
  0
LINE
  5
1E7
100
AcDbEntity
  8
0
  6
ByLayer
 62
  256
370
   -1
100
AcDbLine
 10
-26.22931551685318
 20
13.30707367036391
 11
-26.49218889635134
 21
12.7447014050153
  0
LINE
  5
1E8
100
AcDbEntity
  8
0
  6
ByLayer
 62
  256
370
   -1
100
AcDbLine
 10
-26.49218889635134
 20
12.7447014050153
 11
-26.7216811076621
 21
12.15632106959777
  0
LINE
  5
1E9
100
AcDbEntity
  8
0
  6
ByLayer
 62
  256
370
   -1
100
AcDbLine
 10
-26.7216811076621
 20
12.15632106959777
 11
-26.91799659205267
 21
11.54498320283328
  0
LINE
  5
1EA
100
AcDbEntity
  8
0
  6
ByLayer
 62
  256
370
   -1
100
AcDbLine
 10
-26.91799659205267
 20
11.54498320283328
 11
-27.08157747372174
 21
10.91377296769065
  0
LINE
  5
1EB
100
AcDbEntity
  8
0
  6
ByLayer
 62
  256
370
   -1
100
AcDbLine
 10
-27.08157747372174
 20
10.91377296769065
 11
-27.21308435388443
 21
10.26577042675822
  0
LINE
  5
1EC
100
AcDbEntity
  8
0
  6
ByLayer
 62
  256
370
   -1
100
AcDbLine
 10
-27.21308435388443
 20
10.26577042675822
 11
-27.31337454651722
 21
9.604013779529533
  0
LINE
  5
1ED
100
AcDbEntity
  8
0
  6
ByLayer
 62
  256
370
   -1
100
AcDbLine
 10
-27.31337454651722
 20
9.604013779529533
 11
-27.38347852004929
 21
8.931466218345012
  0
LINE
  5
1EE
100
AcDbEntity
  8
0
  6
ByLayer
 62
  256
370
   -1
100
AcDbLine
 10
-27.38347852004929
 20
8.931466218345012
 11
-27.4245752894581
 21
8.250986874399237
  0
LINE
  5
1EF
100
AcDbEntity
  8
0
  6
ByLayer
 62
  256
370
   -1
100
AcDbLine
 10
-27.4245752894581
 20
8.250986874399237
 11
-27.43796745508351
 21
7.565306142420128
  0
LINE
  5
1F0
100
AcDbEntity
  8
0
  6
ByLayer
 62
  256
370
   -1
100
AcDbLine
 10
-27.43796745508351
 20
7.565306142420128
 11
-27.4245752894581
 21
6.86416146958331
  0
LINE
  5
1F1
100
AcDbEntity
  8
0
  6
ByLayer
 62
  256
370
   -1
100
AcDbLine
 10
-27.4245752894581
 20
6.86416146958331
 11
-27.38347852004929
 21
6.136227663875517
  0
LINE
  5
1F2
100
AcDbEntity
  8
0
  6
ByLayer
 62
  256
370
   -1
100
AcDbLine
 10
-27.38347852004929
 20
6.136227663875517
 11
-27.31337454651722
 21
5.382731006710996
  0
LINE
  5
1F3
100
AcDbEntity
  8
0
  6
ByLayer
 62
  256
370
   -1
100
AcDbLine
 10
-27.31337454651722
 20
5.382731006710996
 11
-27.21308435388443
 21
4.60516922005507
  0
LINE
  5
1F4
100
AcDbEntity
  8
0
  6
ByLayer
 62
  256
370
   -1
100
AcDbLine
 10
-27.21308435388443
 20
4.60516922005507
 11
-27.08157747372174
 21
3.805315613798201
  0
LINE
  5
1F5
100
AcDbEntity
  8
0
  6
ByLayer
 62
  256
370
   -1
100
AcDbLine
 10
-27.08157747372174
 20
3.805315613798201
 11
-26.91799659205268
 21
2.985218446523747
  0
LINE
  5
1F6
100
AcDbEntity
  8
0
  6
ByLayer
 62
  256
370
   -1
100
AcDbLine
 10
-26.91799659205268
 20
2.985218446523747
 11
-26.7216811076621
 21
2.14719498424128
  0
LINE
  5
1F7
100
AcDbEntity
  8
0
  6
ByLayer
 62
  256
370
   -1
100
AcDbLine
 10
-26.7216811076621
 20
2.14719498424128
 11
-26.49218889635135
 21
1.293819868869378
  0
LINE
  5
1F8
100
AcDbEntity
  8
0
  6
ByLayer
 62
  256
370
   -1
100
AcDbLine
 10
-26.49218889635135
 20
1.293819868869378
 11
-26.22931551685319
 21
0.4279075706886806
  0
LINE
  5
1F9
100
AcDbEntity
  8
0
  6
ByLayer
 62
  256
370
   -1
100
AcDbLine
 10
-26.22931551685319
 20
0.4279075706886806
 11
-25.93311010785086
 21
-0.4475111078476157
  0
LINE
  5
1FA
100
AcDbEntity
  8
0
  6
ByLayer
 62
  256
370
   -1
100
AcDbLine
 10
-25.93311010785086
 20
-0.4475111078476157
 11
-25.60388727644416
 21
-1.329218293071508
  0
LINE
  5
1FB
100
AcDbEntity
  8
0
  6
ByLayer
 62
  256
370
   -1
100
AcDbLine
 10
-25.60388727644416
 20
-1.329218293071508
 11
-25.24223436787283
 21
-2.213843652280182
  0
LINE
  5
1FC
100
AcDbEntity
  8
0
  6
ByLayer
 62
  256
370
   -1
100
AcDbLine
 10
-25.24223436787283
 20
-2.213843652280182
 11
-24.84901362982612
 21
-3.097903720145998
  0
LINE
  5
1FD
100
AcDbEntity
  8
0
  6
ByLayer
 62
  256
370
   -1
100
AcDbLine
 10
-24.84901362982612
 20
-3.097903720145998
 11
-24.42535896967815
 21
-3.977845030572198
  0
LINE
  5
1FE
100
AcDbEntity
  8
0
  6
ByLayer
 62
  256
370
   -1
100
AcDbLine
 10
-24.42535896967815
 20
-3.977845030572198
 11
-23.97266710605126
 21
-4.850090135592405
  0
LINE
  5
1FF
100
AcDbEntity
  8
0
  6
ByLayer
 62
  256
370
   -1
100
AcDbLine
 10
-23.97266710605126
 20
-4.850090135592405
 11
-23.49258327347977
 21
-5.711085104947651
  0
LINE
  5
200
100
AcDbEntity
  8
0
  6
ByLayer
 62
  256
370
   -1
100
AcDbLine
 10
-23.49258327347977
 20
-5.711085104947651
 11
-22.98698167377326
 21
-6.557347384578379
  0
LINE
  5
201
100
AcDbEntity
  8
0
  6
ByLayer
 62
  256
370
   -1
100
AcDbLine
 10
-22.98698167377326
 20
-6.557347384578379
 11
-22.45794118631259
 21
-7.385512591075886
  0
LINE
  5
202
100
AcDbEntity
  8
0
  6
ByLayer
 62
  256
370
   -1
100
AcDbLine
 10
-22.45794118631259
 20
-7.385512591075886
 11
-21.90771698771812
 21
-8.192378944408793
  0
LINE
  5
203
100
AcDbEntity
  8
0
  6
ByLayer
 62
  256
370
   -1
100
AcDbLine
 10
-21.90771698771812
 20
-8.192378944408793
 11
-21.33870887949828
 21
-8.974948126785012
  0
LINE
  5
204
100
AcDbEntity
  8
0
  6
ByLayer
 62
  256
370
   -1
100
AcDbLine
 10
-21.33870887949828
 20
-8.974948126785012
 11
-20.75342729987731
 21
-9.730461412564667
  0
LINE
  5
205
100
AcDbEntity
  8
0
  6
ByLayer
 62
  256
370
   -1
100
AcDbLine
 10
-20.75342729987731
 20
-9.730461412564667
 11
-20.15445789447748
 21
-10.45643034068065
  0
LINE
  5
206
100
AcDbEntity
  8
0
  6
ByLayer
 62
  256
370
   -1
100
AcDbLine
 10
-20.15445789447748
 20
-10.45643034068065
 11
-19.54442578441882
 21
-11.15066108888317
  0
LINE
  5
207
100
AcDbEntity
  8
0
  6
ByLayer
 62
  256
370
   -1
100
AcDbLine
 10
-19.54442578441882
 20
-11.15066108888317
 11
-18.92596042649405
 21
-11.81127226259759
  0
LINE
  5
208
100
AcDbEntity
  8
0
  6
ByLayer
 62
  256
370
   -1
100
AcDbLine
 10
-18.92596042649405
 20
-11.81127226259759
 11
-18.30166200327988
 21
-12.43670590524933
  0
LINE
  5
209
100
AcDbEntity
  8
0
  6
ByLayer
 62
  256
370
   -1
100
AcDbLine
 10
-18.30166200327988
 20
-12.43670590524933
 11
-17.67407013817116
 21
-13.02573183302904
  0
LINE
  5
20A
100
AcDbEntity
  8
0
  6
ByLayer
 62
  256
370
   -1
100
AcDbLine
 10
-17.67407013817116
 20
-13.02573183302904
 11
-17.04563559857436
 21
-13.57744561576514
  0
LINE
  5
20B
100
AcDbEntity
  8
0
  6
ByLayer
 62
  256
370
   -1
100
AcDbLine
 10
-17.04563559857436
 20
-13.57744561576514
 11
-16.41869549632866
 21
-14.0912607178869
  0
LINE
  5
20C
100
AcDbEntity
  8
0
  6
ByLayer
 62
  256
370
   -1
100
AcDbLine
 10
-16.41869549632866
 20
-14.0912607178869
 11
-15.79545233238901
 21
-14.56689546578529
  0
LINE
  5
20D
100
AcDbEntity
  8
0
  6
ByLayer
 62
  256
370
   -1
100
AcDbLine
 10
-15.79545233238901
 20
-14.56689546578529
 11
-15.17795707238391
 21
-15.00435561635256
  0
LINE
  5
20E
100
AcDbEntity
  8
0
  6
ByLayer
 62
  256
370
   -1
100
AcDbLine
 10
-15.17795707238391
 20
-15.00435561635256
 11
-14.56809628907189
 21
-15.40391336552796
  0
LINE
  5
20F
100
AcDbEntity
  8
0
  6
ByLayer
 62
  256
370
   -1
100
AcDbLine
 10
-14.56809628907189
 20
-15.40391336552796
 11
-13.96758327347978
 21
-15.76608365758966
  0
LINE
  5
210
100
AcDbEntity
  8
0
  6
ByLayer
 62
  256
370
   -1
100
AcDbLine
 10
-13.96758327347978
 20
-15.76608365758966
 11
-13.36707025788766
 21
-16.09732606793592
  0
LINE
  5
211
100
AcDbEntity
  8
0
  6
ByLayer
 62
  256
370
   -1
100
AcDbLine
 10
-13.36707025788766
 20
-16.09732606793592
 11
-12.75720947457564
 21
-16.4019748935873
  0
LINE
  5
212
100
AcDbEntity
  8
0
  6
ByLayer
 62
  256
370
   -1
100
AcDbLine
 10
-12.75720947457564
 20
-16.4019748935873
 11
-12.13971421457054
 21
-16.67753685219455
  0
LINE
  5
213
100
AcDbEntity
  8
0
  6
ByLayer
 62
  256
370
   -1
100
AcDbLine
 10
-12.13971421457054
 20
-16.67753685219455
 11
-11.51647105063089
 21
-16.92156132123847
  0
LINE
  5
214
100
AcDbEntity
  8
0
  6
ByLayer
 62
  256
370
   -1
100
AcDbLine
 10
-11.51647105063089
 20
-16.92156132123847
 11
-10.88953094838519
 21
-17.13167429271136
  0
LINE
  5
215
100
AcDbEntity
  8
0
  6
ByLayer
 62
  256
370
   -1
100
AcDbLine
 10
-10.88953094838519
 20
-17.13167429271136
 11
-10.26109640878839
 21
-17.30561421118382
  0
LINE
  5
216
100
AcDbEntity
  8
0
  6
ByLayer
 62
  256
370
   -1
100
AcDbLine
 10
-10.26109640878839
 20
-17.30561421118382
 11
-9.633504543679667
 21
-17.44126894792758
  0
LINE
  5
217
100
AcDbEntity
  8
0
  6
ByLayer
 62
  256
370
   -1
100
AcDbLine
 10
-9.633504543679667
 20
-17.44126894792758
 11
-9.009206120465503
 21
-17.53671303067056
  0
LINE
  5
218
100
AcDbEntity
  8
0
  6
ByLayer
 62
  256
370
   -1
100
AcDbLine
 10
-9.009206120465503
 20
-17.53671303067056
 11
-8.390740762540728
 21
-17.59024413872079
  0
LINE
  5
219
100
AcDbEntity
  8
0
  6
ByLayer
 62
  256
370
   -1
100
AcDbLine
 10
-8.390740762540728
 20
-17.59024413872079
 11
-7.78070865248206
 21
-17.60041779643164
  0
LINE
  5
21A
100
AcDbEntity
  8
0
  6
ByLayer
 62
  256
370
   -1
100
AcDbLine
 10
-7.78070865248206
 20
-17.60041779643164
 11
-7.181739247082246
 21
-17.56607916320352
  0
LINE
  5
21B
100
AcDbEntity
  8
0
  6
ByLayer
 62
  256
370
   -1
100
AcDbLine
 10
-7.181739247082246
 20
-17.56607916320352
 11
-6.59645766746127
 21
-17.48639083251567
  0
LINE
  5
21C
100
AcDbEntity
  8
0
  6
ByLayer
 62
  256
370
   -1
100
AcDbLine
 10
-6.59645766746127
 20
-17.48639083251567
 11
-6.027449559241435
 21
-17.36085561904306
  0
LINE
  5
21D
100
AcDbEntity
  8
0
  6
ByLayer
 62
  256
370
   -1
100
AcDbLine
 10
-6.027449559241435
 20
-17.36085561904306
 11
-5.477225360646964
 21
-17.18933344405648
  0
LINE
  5
21E
100
AcDbEntity
  8
0
  6
ByLayer
 62
  256
370
   -1
100
AcDbLine
 10
-5.477225360646964
 20
-17.18933344405648
 11
-4.948184873186284
 21
-16.97205157325424
  0
LINE
  5
21F
100
AcDbEntity
  8
0
  6
ByLayer
 62
  256
370
   -1
100
AcDbLine
 10
-4.948184873186284
 20
-16.97205157325424
 11
-4.442583273479767
 21
-16.70960773301004
  0
LINE
  5
220
100
AcDbEntity
  8
0
  6
ByLayer
 62
  256
370
   -1
100
AcDbLine
 10
-4.442583273479767
 20
-16.70960773301004
 11
2.628484538385708
 21
-12.6271248283714
  0
LINE
  5
221
100
AcDbEntity
  8
0
  6
ByLayer
 62
  256
370
   -1
100
AcDbLine
 10
2.628484538385708
 20
-12.6271248283714
 11
9.699552350251185
 21
-8.544641923732774
  0
LINE
  5
222
100
AcDbEntity
  8
0
  6
ByLayer
 62
  256
370
   -1
100
AcDbLine
 10
9.699552350251185
 20
-8.544641923732774
 11
10.17963618296288
 21
-8.238000014216345
  0
LINE
  5
223
100
AcDbEntity
  8
0
  6
ByLayer
 62
  256
370
   -1
100
AcDbLine
 10
10.17963618296288
 20
-8.238000014216345
 11
10.63232804749699
 21
-7.88847844705966
  0
LINE
  5
224
100
AcDbEntity
  8
0
  6
ByLayer
 62
  256
370
   -1
100
AcDbLine
 10
10.63232804749699
 20
-7.88847844705966
 11
11.05598270985969
 21
-7.497731398399439
  0
LINE
  5
225
100
AcDbEntity
  8
0
  6
ByLayer
 62
  256
370
   -1
100
AcDbLine
 10
11.05598270985969
 20
-7.497731398399439
 11
11.44920344464423
 21
-7.067723531736801
  0
LINE
  5
226
100
AcDbEntity
  8
0
  6
ByLayer
 62
  256
370
   -1
100
AcDbLine
 10
11.44920344464423
 20
-7.067723531736801
 11
11.81085635321557
 21
-6.600698980761879
  0
LINE
  5
227
100
AcDbEntity
  8
0
  6
ByLayer
 62
  256
370
   -1
100
AcDbLine
 10
11.81085635321557
 20
-6.600698980761879
 11
12.14007918462227
 21
-6.09914557621003
  0
LINE
  5
228
100
AcDbEntity
  8
0
  6
ByLayer
 62
  256
370
   -1
100
AcDbLine
 10
12.14007918462227
 20
-6.09914557621003
 11
12.4362845936246
 21
-5.56575544291958
  0
LINE
  5
229
100
AcDbEntity
  8
0
  6
ByLayer
 62
  256
370
   -1
100
AcDbLine
 10
12.4362845936246
 20
-5.56575544291958
 11
12.69915797312275
 21
-5.003383177570971
  0
LINE
  5
22A
100
AcDbEntity
  8
0
  6
ByLayer
 62
  256
370
   -1
100
AcDbLine
 10
12.69915797312275
 20
-5.003383177570971
 11
12.92865018443351
 21
-4.41500284215345
  0
LINE
  5
22B
100
AcDbEntity
  8
0
  6
ByLayer
 62
  256
370
   -1
100
AcDbLine
 10
12.92865018443351
 20
-4.41500284215345
 11
13.12496566882408
 21
-3.803664975388958
  0
LINE
  5
22C
100
AcDbEntity
  8
0
  6
ByLayer
 62
  256
370
   -1
100
AcDbLine
 10
13.12496566882408
 20
-3.803664975388958
 11
13.21765205852605
 21
-3.463818834494814
  0
LINE
  5
22D
100
AcDbEntity
  8
0
  6
ByLayer
 62
  256
370
   -1
100
AcDbLine
 10
13.21765205852605
 20
-3.463818834494814
 11
9.791204574388228
 21
-1.485558457163729
  0
LINE
  5
22E
100
AcDbEntity
  8
0
  6
ByLayer
 62
  256
370
   -1
100
AcDbLine
 10
9.791204574388228
 20
-1.485558457163729
 11
9.791204574388232
 21
2.330968238606052
  0
LINE
  5
22F
100
AcDbEntity
  8
0
  6
ByLayer
 62
  256
370
   -1
100
AcDbLine
 10
-8.446515461614293
 20
6.555337865453923
 11
-8.278148510946234
 21
6.633403465592503
  0
LINE
  5
230
100
AcDbEntity
  8
0
  6
ByLayer
 62
  256
370
   -1
100
AcDbLine
 10
-8.278148510946234
 20
6.633403465592503
 11
-8.096016216399457
 21
6.681743514192375
  0
LINE
  5
231
100
AcDbEntity
  8
0
  6
ByLayer
 62
  256
370
   -1
100
AcDbLine
 10
-8.096016216399457
 20
6.681743514192375
 11
-8.087270469680226
 21
6.682585608442821
  0
LINE
  5
232
100
AcDbEntity
  8
0
  6
ByLayer
 62
  256
370
   -1
100
AcDbLine
 10
-5.05669318764464
 20
1.433471779693193
 11
-5.061795336017525
 21
1.426318787984496
  0
LINE
  5
233
100
AcDbEntity
  8
0
  6
ByLayer
 62
  256
370
   -1
100
AcDbLine
 10
-5.061795336017525
 20
1.426318787984496
 11
-5.194725193398577
 21
1.292757618357372
  0
LINE
  5
234
100
AcDbEntity
  8
0
  6
ByLayer
 62
  256
370
   -1
100
AcDbLine
 10
-5.194725193398577
 20
1.292757618357372
 11
-5.346515461614296
 21
1.1859803619904
  0
LINE
  5
235
100
AcDbEntity
  8
0
  6
ByLayer
 62
  256
370
   -1
100
AcDbLine
 10
3.236411065307731
 20
-5.866112469490947
 11
-3.834656746557746
 21
-9.948595374129578
  0
LINE
  5
236
100
AcDbEntity
  8
0
  6
ByLayer
 62
  256
370
   -1
100
AcDbLine
 10
-3.834656746557746
 20
-9.948595374129578
 11
-4.039943120967399
 21
-10.48182538979152
  0
LINE
  5
237
100
AcDbEntity
  8
0
  6
ByLayer
 62
  256
370
   -1
100
AcDbLine
 10
-4.039943120967399
 20
-10.48182538979152
 11
-4.248309946711344
 21
-10.92759028253503
  0
LINE
  5
238
100
AcDbEntity
  8
0
  6
ByLayer
 62
  256
370
   -1
100
AcDbLine
 10
-4.248309946711344
 20
-10.92759028253503
 11
-4.483097436261745
 21
-11.35038246167865
  0
LINE
  5
239
100
AcDbEntity
  8
0
  6
ByLayer
 62
  256
370
   -1
100
AcDbLine
 10
-4.483097436261745
 20
-11.35038246167865
 11
-4.744056216011936
 21
-11.74793922854126
  0
LINE
  5
23A
100
AcDbEntity
  8
0
  6
ByLayer
 62
  256
370
   -1
100
AcDbLine
 10
-4.744056216011936
 20
-11.74793922854126
 11
-5.030720726218087
 21
-12.11812666789672
  0
LINE
  5
23B
100
AcDbEntity
  8
0
  6
ByLayer
 62
  256
370
   -1
100
AcDbLine
 10
-5.030720726218087
 20
-12.11812666789672
 11
-5.342407505457212
 21
-12.45897280102612
  0
LINE
  5
23C
100
AcDbEntity
  8
0
  6
ByLayer
 62
  256
370
   -1
100
AcDbLine
 10
-5.342407505457212
 20
-12.45897280102612
 11
-5.678217761007575
 21
-12.7686988062032
  0
LINE
  5
23D
100
AcDbEntity
  8
0
  6
ByLayer
 62
  256
370
   -1
100
AcDbLine
 10
-5.678217761007575
 20
-12.7686988062032
 11
-6.037044382570091
 21
-13.04574739686944
  0
LINE
  5
23E
100
AcDbEntity
  8
0
  6
ByLayer
 62
  256
370
   -1
100
AcDbLine
 10
-6.037044382570091
 20
-13.04574739686944
 11
-6.417583273479773
 21
-13.28880738806151
  0
ENDBLK
  5
79
330
77
100
AcDbEntity
  8
0
100
AcDbBlockEnd
  0
ENDSEC
  0
SECTION
  2
ENTITIES
  0
LINE
  5
23F
100
AcDbEntity
  8
Dimension
  6
ByLayer
 62
  256
370
   -1
100
AcDbLine
 10
145
 20
138.3413182772089
 11
175
 21
138.3413182772089
  0
INSERT
  5
240
100
AcDbEntity
  8
Title
  6
ByLayer
 62
  256
370
   -1
100
AcDbBlockReference
  2
Page Template
 10
0
 20
0
 30
0
 41
1
 42
1
 43
0
 50
0
 70
    1
 71
    1
 44
0
 45
0
  0
INSERT
  5
241
100
AcDbEntity
  8
0
  6
ByLayer
 62
  256
370
   -1
100
AcDbBlockReference
  2
slitting_fixture_30.0_view_isometric
 10
237.3173359514547
 20
163.945328878404
 30
0
 41
1
 42
1
 43
0
 50
0
 70
    1
 71
    1
 44
0
 45
0
  0
INSERT
  5
242
100
AcDbEntity
  8
0
  6
ByLayer
 62
  256
370
   -1
100
AcDbBlockReference
  2
slitting_fixture_30.0_view_2
 10
80
 20
110
 30
0
 41
1
 42
1
 43
0
 50
0
 70
    1
 71
    1
 44
0
 45
0
  0
INSERT
  5
243
100
AcDbEntity
  8
0
  6
ByLayer
 62
  256
370
   -1
100
AcDbBlockReference
  2
slitting_fixture_30.0_view_1
 10
160
 20
110
 30
0
 41
1
 42
1
 43
0
 50
0
 70
    1
 71
    1
 44
0
 45
0
  0
LINE
  5
244
100
AcDbEntity
  8
Dimension
  6
ByLayer
 62
  256
370
   -1
100
AcDbLine
 10
75
 20
110
 11
85
 21
110
  0
LINE
  5
245
100
AcDbEntity
  8
Dimension
  6
ByLayer
 62
  256
370
   -1
100
AcDbLine
 10
80.00000440741285
 20
105.0000040467669
 11
80.00000440741285
 21
115.0000040467669
  0
DIMENSION
  5
246
100
AcDbEntity
  8
Dimension
  6
ByLayer
 62
  256
370
   -1
100
AcDbDimension
  2
*D1
 10
141.2730548234809
 20
94.93054043997277
 30
0
 11
141.2730548234809
 21
110.0305404399728
 31
0
 70
   32
  1
%%C<>
 71
    5
  3
Standard
 53
0
210
0
220
0
230
1
100
AcDbAlignedDimension
 13
150
 23
125.1305404399728
 33
0
 14
150
 24
94.93054043997277
 34
0
 50
90
100
AcDbRotatedDimension
  0
DIMENSION
  5
247
100
AcDbEntity
  8
Dimension
  6
ByLayer
 62
  256
370
   -1
100
AcDbDimension
  2
*D2
 10
128.9329338938625
 20
129.0805404399728
 30
0
 11
128.9329338938625
 21
114.1544917704651
 31
0
 70
   32
  1
%%C<>
 71
    5
  3
Standard
 53
0
210
0
220
0
230
1
100
AcDbAlignedDimension
 13
150
 23
90.98054043997276
 33
0
 14
150
 24
129.0805404399728
 34
0
 50
90
100
AcDbRotatedDimension
  0
SOLID
  5
248
100
AcDbEntity
  8
Dimension
  6
ByLayer
 62
  256
370
   -1
100
AcDbTrace
 10
150
 20
138.3413182772089
 30
0
 11
147.5
 21
137.9250336194361
 31
0
 12
147.5
 22
138.7576029349818
 32
0
 13
147.5
 23
138.7576029349818
 33
0
  0
LINE
  5
249
100
AcDbEntity
  8
Dimension
  6
ByLayer
 62
  256
370
   -1
100
AcDbLine
 10
160
 20
125.6944595600272
 11
160
 21
139.5913182772089
  0
LINE
  5
24A
100
AcDbEntity
  8
Dimension
  6
ByLayer
 62
  256
370
   -1
100
AcDbLine
 10
150
 20
129.7055404399728
 11
150
 21
139.5913182772089
  0
SOLID
  5
24B
100
AcDbEntity
  8
Dimension
  6
ByLayer
 62
  256
370
   -1
100
AcDbTrace
 10
170
 20
138.3413182772089
 30
0
 11
172.5
 21
138.7576029349818
 31
0
 12
172.5
 22
137.9250336194361
 32
0
 13
172.5
 23
137.9250336194361
 33
0
  0
LINE
  5
24C
100
AcDbEntity
  8
Dimension
  6
ByLayer
 62
  256
370
   -1
100
AcDbLine
 10
170
 20
129.7055404399728
 11
170
 21
139.5913182772089
  0
MTEXT
  5
24D
100
AcDbEntity
  8
Dimension
  6
ByLayer
 62
  256
370
   -1
100
AcDbMText
 10
148.5016295228833
 20
143.3413182772089
 30
0
 40
2.5
 41
7.222222222222222
 71
    5
 72
    1
  1
10.00
  7
standard
210
0
220
0
230
1
 50
0
 73
    2
 44
1
  0
MTEXT
  5
24E
100
AcDbEntity
  8
Dimension
  6
ByLayer
 62
  256
370
   -1
100
AcDbMText
 10
171.2508135065598
 20
143.3413182772089
 30
0
 40
2.5
 41
7.222222222222222
 71
    5
 72
    1
  1
10.00
  7
standard
210
0
220
0
230
1
 50
0
 73
    2
 44
1
  0
LINE
  5
24F
100
AcDbEntity
  8
Dimension
  6
ByLayer
 62
  256
370
   -1
100
AcDbLine
 10
155.1563312964901
 20
138.3413182772089
 11
155.1563312964901
 21
143.2735967097624
  0
LINE
  5
250
100
AcDbEntity
  8
Dimension
  6
ByLayer
 62
  256
370
   -1
100
AcDbLine
 10
155.1563312964901
 20
143.2735967097624
 11
152.8045400762002
 21
143.2735967097624
  0
LINE
  5
251
100
AcDbEntity
  8
Dimension
  6
ByLayer
 62
  256
370
   -1
100
AcDbLine
 10
164.9967208761238
 20
138.3413182772089
 11
164.9967208761238
 21
143.1514110888252
  0
LINE
  5
252
100
AcDbEntity
  8
Dimension
  6
ByLayer
 62
  256
370
   -1
100
AcDbLine
 10
164.9967208761238
 20
143.1514110888252
 11
167.0400522505973
 21
143.1514110888252
  0
MTEXT
  5
253
100
AcDbEntity
  8
Dimension
  6
ByLayer
 62
  256
370
   -1
100
AcDbMText
 10
100.8887177947328
 20
90.33295657677279
 30
0
 40
2.5
 41
17.15277777777793
 71
    4
 72
    1
  1
%%C6.2 THRU
  7
iso
210
0
220
0
230
1
 50
0
 73
    2
 44
1
  0
LEADER
  5
254
100
AcDbEntity
  8
Dimension
  6
ByLayer
 62
  256
370
   -1
100
AcDbLeader
  3
Standard
 71
    1
 72
    0
 73
    3
 74
    0
 75
    0
 40
1
 41
10
 76
3
 76
3
 10
81.61827401500152
 20
107.35591429557
 30
0
 10
95.94886147599262
 20
90.35785638998553
 30
0
 10
99.8264940356427
 20
90.35785638998553
 30
0
  0
MTEXT
  5
255
100
AcDbEntity
  8
Dimension
  6
ByLayer
 62
  256
370
   -1
100
AcDbMText
 10
20.37388909709973
 20
37.21220497883634
 30
0
 40
2.5
 41
34.72222222222258
 71
    1
 72
    1
  1
STOCK:\P1-1/2" Aluminum Rod
  7
iso
210
0
220
0
230
1
 50
0
 73
    2
 44
1
  0
DIMENSION
  5
256
100
AcDbEntity
  8
Dimension
  6
ByLayer
 62
  256
370
   -1
100
AcDbDimension
  2
*D4
 10
96.77747987746378
 20
140.4274604566785
 30
0
 11
86.80000220370641
 21
140.4274604566785
 31
0
 70
   32
  1
(<>)
 71
    5
  3
Standard
 53
0
210
0
220
0
230
1
100
AcDbAlignedDimension
 13
80.00000440741285
 23
115.0000040467669
 33
0
 14
93.59999999999999
 24
114.76
 34
0
100
AcDbRotatedDimension
  0
DIMENSION
  5
257
100
AcDbEntity
  8
Dimension
  6
ByLayer
 62
  256
370
   -1
100
AcDbDimension
  2
*D5
 10
106.8251504047852
 20
114.7599890455473
 30
0
 11
106.8251504047852
 21
110.0000040467669
 31
0
 70
   32
  1
<> [3/8"]
 71
    5
  3
Standard
 53
0
210
0
220
0
230
1
100
AcDbAlignedDimension
 13
98.44573678136281
 23
105.2400190479866
 33
0
 14
98.44573678136281
 24
114.7599890455473
 34
0
 50
90
100
AcDbRotatedDimension
  0
MTEXT
  5
258
100
AcDbEntity
  8
Dimension
  6
ByLayer
 62
  256
370
   -1
100
AcDbMText
 10
67.55305022789322
 20
30.16322242733837
 30
0
 40
2.5
 41
81.94444673810347
 71
    7
 72
    1
  1
FEEDS AND SPEEDS:\P* BORE AT 1000-2000 RPM\P* 6.2mm DRILL:\P    6000 RPM (i.e. the fastest it will go)\P* 3/8" 2FL CARBIDE END MILL:\P    2720 RPM\P    10 IPM (1.2 seconds per turn of the handwheel)
  7
iso
210
0
220
0
230
1
 50
0
 73
    2
 44
1
  0
DIMENSION
  5
259
100
AcDbEntity
  8
Dimension
  6
ByLayer
 62
  256
370
   -1
100
AcDbDimension
  2
*D6
 10
81.69354163449356
 20
133.6196653204707
 30
0
 11
108.070756275096
 21
133.6196653204707
 31
0
 70
   32
 71
    5
 72
    0
  3
Standard
 53
0
210
0
220
0
230
1
100
AcDbAlignedDimension
 13
99.10000440741285
 23
115.9994896738152
 33
0
 14
93.59999999999999
 24
116.561263063267
 34
0
100
AcDbRotatedDimension
  0
ENDSEC
  0
SECTION
  2
OBJECTS
  0
DICTIONARY
  5
C
330
0
100
AcDbDictionary
281
    1
  3
ACAD_GROUP
350
D
  0
DICTIONARY
  5
D
330
C
100
AcDbDictionary
281
    1
  0
ENDSEC
  0
EOF
