  0
SECTION
  2
HEADER
  9
$ACADVER
  1
AC1009
  9
$INSBASE
 10
0.0
 20
0.0
 30
0.0
  9
$EXTMIN
 10
0.0
 20
0.0
 30
0.0
  9
$EXTMAX
 10
0.0
 20
0.0
 30
0.0
  0
ENDSEC
  0
SECTION
  2
TABLES
  0
TABLE
  2
VPORT
 70
0
  0
ENDTAB
  0
TABLE
  2
LTYPE
 70
1
  0
LTYPE
  2
CONTINUOUS
 70
0
  3
Solid line
 72
65
 73
0
 40
0.0
  0
ENDTAB
  0
TABLE
  2
LAYER
 70
1
  0
LAYER
  2
0
 70
64
 62
7
  6
continuous
  0
ENDTAB
  0
TABLE
  2
STYLE
 70
1
  0
STYLE
  2
STANDARD
 70
0
 40
0
 41
1.0
 50
0.0
 71
0
 42
1
 3
ARIAL.TTF
 4

  0
ENDTAB
  0
TABLE
  2
VIEW
 70
0
  0
ENDTAB
  0
ENDSEC
  0
SECTION
  2
BLOCKS
  0
BLOCK
  8
0
  2
SHAPE2DVIEW002
 70
0
 10
0.0
 20
0.0
 30
0.0
  3
SHAPE2DVIEW002
  0
LINE
  8
0
 62
0
 10
25.4
 20
31.75
 30
0.0
 11
-25.4
 21
31.75
 31
0.0
  0
LINE
  8
0
 62
0
 10
25.4
 20
31.75
 30
0.0
 11
25.4
 21
18.225514396
 31
0.0
  0
LINE
  8
0
 62
0
 10
-25.4
 20
31.75
 30
0.0
 11
-25.4
 21
18.225514396
 31
0.0
  0
LINE
  8
0
 62
0
 10
25.4
 20
18.225514396
 30
0.0
 11
-25.4
 21
18.225514396
 31
0.0
  0
CIRCLE
  8
0
 62
0
 10
-5.6399329651e-15
 20
27.25
 30
0.0
 40
2.75
  0
LINE
  8
0
 62
0
 10
25.4
 20
-18.225514396
 30
0.0
 11
25.4
 21
-31.75
 31
0.0
  0
POLYLINE
  8
0
 62
0
 70
0
 66
1
 10
0.0
 20
0.0
 30
0.0
  0
VERTEX
  8
0
 10
25.4
 20
18.225514396
 30
0.0
  0
VERTEX
  8
0
 10
25.4
 20
15.9746742555
 30
0.0
  0
VERTEX
  8
0
 10
25.4
 20
11.8468047262
 30
0.0
  0
VERTEX
  8
0
 10
25.4
 20
6.31480601515
 30
0.0
  0
VERTEX
  8
0
 10
25.4
 20
-1.90950237378e-12
 30
0.0
  0
VERTEX
  8
0
 10
25.4
 20
-6.31480601516
 30
0.0
  0
VERTEX
  8
0
 10
25.4
 20
-11.8468047262
 30
0.0
  0
VERTEX
  8
0
 10
25.4
 20
-15.9746742555
 30
0.0
  0
VERTEX
  8
0
 10
25.4
 20
-18.225514396
 30
0.0
  0
SEQEND
  8
0
  0
LINE
  8
0
 62
0
 10
-25.4
 20
-18.225514396
 30
0.0
 11
-25.4
 21
-31.75
 31
0.0
  0
POLYLINE
  8
0
 62
0
 70
0
 66
1
 10
0.0
 20
0.0
 30
0.0
  0
VERTEX
  8
0
 10
-25.4
 20
18.225514396
 30
0.0
  0
VERTEX
  8
0
 10
-25.4
 20
15.9746742555
 30
0.0
  0
VERTEX
  8
0
 10
-25.4
 20
11.8468047262
 30
0.0
  0
VERTEX
  8
0
 10
-25.4
 20
6.31480601515
 30
0.0
  0
VERTEX
  8
0
 10
-25.4
 20
-1.90950237378e-12
 30
0.0
  0
VERTEX
  8
0
 10
-25.4
 20
-6.31480601516
 30
0.0
  0
VERTEX
  8
0
 10
-25.4
 20
-11.8468047262
 30
0.0
  0
VERTEX
  8
0
 10
-25.4
 20
-15.9746742555
 30
0.0
  0
VERTEX
  8
0
 10
-25.4
 20
-18.225514396
 30
0.0
  0
SEQEND
  8
0
  0
LINE
  8
0
 62
0
 10
25.4
 20
-31.75
 30
0.0
 11
-25.4
 21
-31.75
 31
0.0
  0
CIRCLE
  8
0
 62
0
 10
-5.6399329651e-15
 20
-27.25
 30
0.0
 40
2.75
  0
LINE
  8
0
 62
0
 10
25.4
 20
-18.225514396
 30
0.0
 11
-25.4
 21
-18.225514396
 31
0.0
  0
ENDBLK
  0
ENDSEC
  0
SECTION
  2
ENTITIES
  0
INSERT
  2
SHAPE2DVIEW002
  8
0
 62
0
 10
0.0
 20
0.0
 30
0.0
  0
ENDSEC
  0
EOF
