  0
SECTION
  2
HEADER
  9
$ACADVER
  1
AC1009
  9
$INSBASE
 10
0.0
 20
0.0
 30
0.0
  9
$EXTMIN
 10
0.0
 20
0.0
 30
0.0
  9
$EXTMAX
 10
0.0
 20
0.0
 30
0.0
  0
ENDSEC
  0
SECTION
  2
TABLES
  0
TABLE
  2
VPORT
 70
0
  0
ENDTAB
  0
TABLE
  2
LTYPE
 70
1
  0
LTYPE
  2
CONTINUOUS
 70
0
  3
Solid line
 72
65
 73
0
 40
0.0
  0
ENDTAB
  0
TABLE
  2
LAYER
 70
1
  0
LAYER
  2
0
 70
64
 62
7
  6
continuous
  0
ENDTAB
  0
TABLE
  2
STYLE
 70
1
  0
STYLE
  2
STANDARD
 70
0
 40
0
 41
1.0
 50
0.0
 71
0
 42
1
 3
ARIAL.TTF
 4

  0
ENDTAB
  0
TABLE
  2
VIEW
 70
0
  0
ENDTAB
  0
ENDSEC
  0
SECTION
  2
BLOCKS
  0
BLOCK
  8
0
  2
SHAPE2DVIEW004
 70
0
 10
0.0
 20
0.0
 30
0.0
  3
SHAPE2DVIEW004
  0
LINE
  8
0
 62
0
 10
0.0973508347072
 20
46.6457218685
 30
0.0
 11
-35.9208925671
 21
26.0080296735
 31
0.0
  0
LINE
  8
0
 62
0
 10
18.0091217009
 20
36.2707926351
 30
0.0
 11
-18.0091217009
 21
15.63310044
 31
0.0
  0
LINE
  8
0
 62
0
 10
0.0973508347072
 20
46.6457218685
 30
0.0
 11
18.0091217009
 21
36.2707926351
 31
0.0
  0
LINE
  8
0
 62
0
 10
-35.9208925671
 20
26.0080296735
 30
0.0
 11
-18.0091217009
 21
15.63310044
 31
0.0
  0
LINE
  8
0
 62
0
 10
-35.9208925671
 20
26.0080296735
 30
0.0
 11
-35.9208925671
 21
-25.8958634016
 31
0.0
  0
LINE
  8
0
 62
0
 10
18.0091217009
 20
36.2707926351
 30
0.0
 11
18.0091217009
 21
25.2160925613
 31
0.0
  0
LINE
  8
0
 62
0
 10
-18.0091217009
 20
15.63310044
 30
0.0
 11
-18.0091217009
 21
4.57840036626
 31
0.0
  0
LINE
  8
0
 62
0
 10
18.0091217009
 20
25.2160925613
 30
0.0
 11
-18.0091217009
 21
4.57840036626
 31
0.0
  0
POLYLINE
  8
0
 62
0
 70
0
 66
1
 10
0.0
 20
0.0
 30
0.0
  0
VERTEX
  8
0
 10
-1.06375360763e-12
 20
24.5215242874
 30
0.0
  0
VERTEX
  8
0
 10
-1.8014886865
 20
22.1014162087
 30
0.0
  0
VERTEX
  8
0
 10
-1.37834290923
 20
19.8940811943
 30
0.0
  0
SEQEND
  8
0
  0
POLYLINE
  8
0
 62
0
 70
0
 66
1
 10
0.0
 20
0.0
 30
0.0
  0
VERTEX
  8
0
 10
-1.37834290923
 20
19.8940811943
 30
0.0
  0
VERTEX
  8
0
 10
1.37909975968
 20
21.474910087
 30
0.0
  0
VERTEX
  8
0
 10
1.37834290923
 20
24.6533545945
 30
0.0
  0
SEQEND
  8
0
  0
POLYLINE
  8
0
 62
0
 70
0
 66
1
 10
0.0
 20
0.0
 30
0.0
  0
VERTEX
  8
0
 10
1.37834290923
 20
24.6533545945
 30
0.0
  0
VERTEX
  8
0
 10
-1.06375360763e-12
 20
24.5215242874
 30
0.0
  0
SEQEND
  8
0
  0
LINE
  8
0
 62
0
 10
18.0091217009
 20
-4.57840036626
 30
0.0
 11
18.0091217009
 21
-15.63310044
 31
0.0
  0
POLYLINE
  8
0
 62
0
 70
0
 66
1
 10
0.0
 20
0.0
 30
0.0
  0
VERTEX
  8
0
 10
7.40927592963
 20
19.1426049705
 30
0.0
  0
VERTEX
  8
0
 10
7.24850077175
 20
15.277668083
 30
0.0
  0
VERTEX
  8
0
 10
7.9803333355
 20
10.9831888363
 30
0.0
  0
VERTEX
  8
0
 10
9.5545228605
 20
6.55404458156
 30
0.0
  0
VERTEX
  8
0
 10
11.8629787471
 20
2.29435934608
 30
0.0
  0
VERTEX
  8
0
 10
14.7471925203
 20
-1.50337862516
 30
0.0
  0
VERTEX
  8
0
 10
18.0091217009
 20
-4.57840036626
 30
0.0
  0
SEQEND
  8
0
  0
LINE
  8
0
 62
0
 10
-35.9208925671
 20
-25.8958634016
 30
0.0
 11
-18.0091217009
 21
-36.2707926351
 31
0.0
  0
LINE
  8
0
 62
0
 10
-18.0091217009
 20
-25.2160925613
 30
0.0
 11
-18.0091217009
 21
-36.2707926351
 31
0.0
  0
POLYLINE
  8
0
 62
0
 70
0
 66
1
 10
0.0
 20
0.0
 30
0.0
  0
VERTEX
  8
0
 10
-18.0091217009
 20
4.57840036626
 30
0.0
  0
VERTEX
  8
0
 10
-21.7649188814
 20
5.28719116406
 30
0.0
  0
VERTEX
  8
0
 10
-24.9674738582
 20
4.43605525688
 30
0.0
  0
SEQEND
  8
0
  0
POLYLINE
  8
0
 62
0
 70
0
 66
1
 10
0.0
 20
0.0
 30
0.0
  0
VERTEX
  8
0
 10
-24.9674738582
 20
4.43605525688
 30
0.0
  0
VERTEX
  8
0
 10
-27.3658892676
 20
2.0299087988
 30
0.0
  0
VERTEX
  8
0
 10
-28.641904837
 20
-1.69705412334
 30
0.0
  0
VERTEX
  8
0
 10
-28.6720097076
 20
-6.3840852541
 30
0.0
  0
VERTEX
  8
0
 10
-27.4532899037
 20
-11.5775073396
 30
0.0
  0
VERTEX
  8
0
 10
-25.1037103884
 20
-16.7746274376
 30
0.0
  0
VERTEX
  8
0
 10
-21.8506967434
 20
-21.4723946598
 30
0.0
  0
VERTEX
  8
0
 10
-18.0091217009
 20
-25.2160925613
 30
0.0
  0
SEQEND
  8
0
  0
LINE
  8
0
 62
0
 10
18.0091217009
 20
-15.63310044
 30
0.0
 11
-18.0091217009
 21
-36.2707926351
 31
0.0
  0
POLYLINE
  8
0
 62
0
 70
0
 66
1
 10
0.0
 20
0.0
 30
0.0
  0
VERTEX
  8
0
 10
-1.79149915037e-13
 20
-24.5215242874
 30
0.0
  0
VERTEX
  8
0
 10
1.8014886865
 20
-22.1014162087
 30
0.0
  0
VERTEX
  8
0
 10
1.37834290923
 20
-19.8940811943
 30
0.0
  0
SEQEND
  8
0
  0
POLYLINE
  8
0
 62
0
 70
0
 66
1
 10
0.0
 20
0.0
 30
0.0
  0
VERTEX
  8
0
 10
1.37834290923
 20
-19.8940811943
 30
0.0
  0
VERTEX
  8
0
 10
-1.37909975968
 20
-21.474910087
 30
0.0
  0
VERTEX
  8
0
 10
-1.37834290923
 20
-24.6533545945
 30
0.0
  0
SEQEND
  8
0
  0
POLYLINE
  8
0
 62
0
 70
0
 66
1
 10
0.0
 20
0.0
 30
0.0
  0
VERTEX
  8
0
 10
-1.37834290923
 20
-24.6533545945
 30
0.0
  0
VERTEX
  8
0
 10
-2.88950972172e-13
 20
-24.5215242874
 30
0.0
  0
SEQEND
  8
0
  0
LINE
  8
0
 62
0
 10
18.0091217009
 20
-4.57840036626
 30
0.0
 11
-18.0091217009
 21
-25.2160925613
 31
0.0
  0
LINE
  8
0
 62
0
 10
-1.94980618958
 20
-23.3921495658
 30
0.0
 11
-7.1054273576e-14
 21
-24.5215242874
 31
0.0
  0
ENDBLK
  0
ENDSEC
  0
SECTION
  2
ENTITIES
  0
INSERT
  2
SHAPE2DVIEW004
  8
0
 62
0
 10
0.0
 20
0.0
 30
0.0
  0
ENDSEC
  0
EOF
