<?xml version="1.0" encoding="UTF-8"?>

<svg xmlns="http://www.w3.org/2000/svg" version="1.1"
	width="297mm"
	height="210mm"
	viewBox="0 0 297 210">
	<!-- Working space 0 0 297 210 -->
	<defs>
		<radialGradient
			id="radialGradient3661"
			gradientUnits="userSpaceOnUse"
			cy="29.149"
			cx="282.65"
			gradientTransform="matrix(.14777 .23089 -.24680 .15795 -26.318 -62.617)"
			r="19.571">
				<stop stop-color="#71b2f8" offset="0"/>
				<stop stop-color="#002795" offset="1"/>
		</radialGradient>
		<radialGradient
			id="radialGradient3817"
			gradientUnits="userSpaceOnUse"
			cy="33.9"
			cx="270.58"
			gradientTransform="matrix(.26631 .065024 -.17931 .73438 -60.668 -36.938)"
			r="19.571">
				<stop stop-color="#ff6d0f" offset="0"/>
				<stop stop-color="#ff1000" offset="1"/>
		</radialGradient>
	</defs>
	<!-- Set display:none to hide FreeCAD Logo -->
	<g
		style="display:inline"
		id="freecad-logo"
		transform="translate(271, 185) scale(1)"
		fill-rule="evenodd"
		stroke-width=".45621">
		<path d="m0.22811 0.22835v13.256h2.9558v-5.1876h2.09v-2.0452h-2.09v-2.2075h5.1486v-3.8087l-8.1044-0.0075z"
			stroke="#370700"
			fill="url(#radialGradient3817)"/>
		<path d="m13.386 4.1792-1.7193 0.98645-0.75925-0.26348-0.72439-1.8513-1.1395 0.05988-0.51976 1.9144-0.72743 0.34835-1.8143-0.79367-0.76632 0.85156 0.98645 1.7193-0.26957 0.75702-1.8513 0.72439 0.065967 1.1417 1.9144 0.51976 0.34835 0.72743-0.79976 1.8121 0.85156 0.76632 1.7193-0.98645 0.76311 0.27179 0.7183 1.8491 1.1478-0.06375 0.51367-1.9166 0.72743-0.34835 1.8182 0.80198 0.76632-0.85156-0.98645-1.7193 0.2657-0.76533 1.8491-0.7183-0.05766-1.1456-1.9166-0.51367-0.34835-0.72743 0.7959-1.8204-0.85156-0.76632zm-2.5751 2.8195 0.35295 0.20478 0.30579 0.27725 0.24481 0.33087 0.17611 0.36787 0.10354 0.39656 0.01715 0.4064-0.0587 0.4063-0.13396 0.38571-0.2131 0.35681-0.26894 0.30192-0.33087 0.24481-0.36787 0.17611-0.39656 0.10354-0.40863 0.02325-0.4063-0.0587-0.38571-0.13396-0.35681-0.2131-0.2997-0.27503-0.24703-0.32478-0.17611-0.36787-0.10132-0.40264-0.02324-0.40863 0.05869-0.4063 0.13396-0.38571 0.21087-0.35072 0.27116-0.30801 0.33087-0.24481 0.36787-0.17611 0.40264-0.10132 0.40641-0.01715 0.4063 0.05869 0.38571 0.13396z" 
		stroke="#000137"
		fill="url(#radialGradient3661)"/>
	</g>
<g id="Ortho_0_0"
   transform="rotate(180,79.95,63.65) translate(79.95,63.65) scale(1,1)"
  >
<g   fill="none"
   stroke="rgb(0, 0, 0)"
   stroke-dasharray="0.2,0.1)"
   stroke-linecap="butt"
   stroke-linejoin="miter"
   stroke-width="0.150000"
   transform="scale(1,-1)"
  >
<path id= "1" d=" M -25.4 -25.4 L -25.4 0 " />
<path d="M-25.4,-4.51239e-12 L-25.4,-1.80152  L-25.4,-3.55343  L-25.4,-5.23827  L-25.4,-6.83926  L-25.4,-8.34042  L-25.4,-9.7268  L-25.4,-10.9846  L-25.4,-12.1012  L-25.4,-13.0656  L-25.4,-13.8681  L-25.4,-14.5007  L-25.4,-14.9571  L-25.4,-15.2328  L-25.4,-15.325 " /><path d="M-25.4,-15.325 L-25.4,-15.2328  L-25.4,-14.9571  L-25.4,-14.5007  L-25.4,-13.8681  L-25.4,-13.0656  L-25.4,-12.1012  L-25.4,-10.9846  L-25.4,-9.7268  L-25.4,-8.34042  L-25.4,-6.83926  L-25.4,-5.23827  L-25.4,-3.55343  L-25.4,-1.80152  L-25.4,-7.47402e-13 " /><path id= "4" d=" M -25.4 -4.51239e-12 L 25.4 -4.51239e-12 " />
<path d="M4.41314e-15,-1.5028e-12 Q0.117563,-1.50282e-12 0.235125,-1.50285e-12  Q0.468942,-1.5029e-12 0.693586,-1.50295e-12  Q0.802371,-1.50298e-12 0.911156,-1.503e-12  Q1.01421,-1.50302e-12 1.11727,-1.50305e-12  Q1.2133,-1.50307e-12 1.30933,-1.50309e-12  Q1.39713,-1.50311e-12 1.48492,-1.50313e-12  Q1.56339,-1.50315e-12 1.64185,-1.50316e-12  Q1.70998,-1.50318e-12 1.77812,-1.50319e-12  Q1.83508,-1.50321e-12 1.89203,-1.50322e-12  Q1.93709,-1.50323e-12 1.98215,-1.50324e-12  Q2.01475,-1.50325e-12 2.04735,-1.50325e-12  Q2.06707,-1.50326e-12 2.0868,-1.50326e-12  Q2.0934,-1.50326e-12 2.1,-1.50326e-12 " /><path d="M2.1,-1.50326e-12 L2.04735,-1.50325e-12  L1.89203,-1.50322e-12  L1.64185,-1.50316e-12  L1.30933,-1.50309e-12  L0.911156,-1.503e-12  L0.467294,-1.5029e-12  L4.66294e-15,-1.5028e-12  L-0.467294,-1.50269e-12  L-0.911156,-1.5026e-12  L-1.30933,-1.50251e-12  L-1.64185,-1.50243e-12  L-1.89203,-1.50238e-12  L-2.04735,-1.50234e-12  L-2.1,-1.50233e-12 " /><path d="M-2.1,-1.50233e-12 Q-2.0934,-1.50233e-12 -2.0868,-1.50233e-12  Q-2.06707,-1.50234e-12 -2.04735,-1.50234e-12  Q-2.01475,-1.50235e-12 -1.98215,-1.50236e-12  Q-1.93709,-1.50237e-12 -1.89203,-1.50238e-12  Q-1.83508,-1.50239e-12 -1.77812,-1.5024e-12  Q-1.70998,-1.50242e-12 -1.64185,-1.50243e-12  Q-1.56339,-1.50245e-12 -1.48492,-1.50247e-12  Q-1.39713,-1.50249e-12 -1.30933,-1.50251e-12  Q-1.2133,-1.50253e-12 -1.11727,-1.50255e-12  Q-1.01421,-1.50257e-12 -0.911156,-1.5026e-12  Q-0.802371,-1.50262e-12 -0.693586,-1.50264e-12  Q-0.58044,-1.50267e-12 -0.467294,-1.50269e-12  Q-0.235955,-1.50275e-12 3.91354e-15,-1.5028e-12 " /><path id= "8" d=" M 25.4 -25.4 L 25.4 0 " />
<path d="M25.4,-4.51239e-12 L25.4,-1.80152  L25.4,-3.55343  L25.4,-5.23827  L25.4,-6.83926  L25.4,-8.34042  L25.4,-9.7268  L25.4,-10.9846  L25.4,-12.1012  L25.4,-13.0656  L25.4,-13.8681  L25.4,-14.5007  L25.4,-14.9571  L25.4,-15.2328  L25.4,-15.325 " /><path d="M25.4,-15.325 L25.4,-15.2328  L25.4,-14.9571  L25.4,-14.5007  L25.4,-13.8681  L25.4,-13.0656  L25.4,-12.1012  L25.4,-10.9846  L25.4,-9.7268  L25.4,-8.34042  L25.4,-6.83926  L25.4,-5.23827  L25.4,-3.55343  L25.4,-1.80152  L25.4,-7.47402e-13 " /><path id= "11" d=" M -25.4 -25.4 L -2.17945 -25.4 " />
<path d="M-2.17945,-25.4 L-2.53202,-25.4  L-2.86841,-25.4  L-3.18645,-25.4  L-3.48412,-25.4  L-3.75952,-25.4  L-4.01087,-25.4  L-4.23658,-25.4  L-4.4352,-25.4  L-4.60547,-25.4  L-4.74628,-25.4  L-4.85675,-25.4  L-4.93616,-25.4  L-4.98402,-25.4  L-5,-25.4 " /><path d="M-5,-25.4 Q-4.98428,-25.4 -4.96856,-25.4  Q-4.9216,-25.4 -4.87464,-25.4  Q-4.79703,-25.4 -4.71942,-25.4  Q-4.61213,-25.4 -4.50484,-25.4  Q-4.36923,-25.4 -4.23362,-25.4  Q-4.07139,-25.4 -3.90916,-25.4  Q-3.72235,-25.4 -3.53553,-25.4  Q-3.32649,-25.4 -3.11745,-25.4  Q-2.8888,-25.4 -2.66016,-25.4  Q-2.41479,-25.4 -2.16942,-25.4  Q-1.91041,-25.4 -1.6514,-25.4  Q-1.382,-25.4 -1.1126,-25.4  Q-0.561797,-25.4 -6.21725e-15,-25.4 " /><path d="M-4.88498e-15,-25.4 L0.559822,-25.4  L1.1126,-25.4  L1.6514,-25.4  L2.16942,-25.4  L2.66016,-25.4  L3.11745,-25.4  L3.53553,-25.4  L3.90916,-25.4  L4.23362,-25.4  L4.50484,-25.4  L4.71942,-25.4  L4.87464,-25.4  L4.96856,-25.4  L5,-25.4 " /><path d="M5,-25.4 L4.98402,-25.4  L4.93616,-25.4  L4.85675,-25.4  L4.74628,-25.4  L4.60547,-25.4  L4.4352,-25.4  L4.23658,-25.4  L4.01087,-25.4  L3.75952,-25.4  L3.48412,-25.4  L3.18645,-25.4  L2.86841,-25.4  L2.53202,-25.4  L2.17945,-25.4 " /><path id= "16" d=" M 2.17945 -25.4 L 25.4 -25.4 " />
<path d="M2.17945,-25.4 L2.53202,-25.4  L2.86841,-25.4  L3.18645,-25.4  L3.48412,-25.4  L3.75952,-25.4  L4.01087,-25.4  L4.23658,-25.4  L4.4352,-25.4  L4.60547,-25.4  L4.74628,-25.4  L4.85675,-25.4  L4.93616,-25.4  L4.98402,-25.4  L5,-25.4 " /><path d="M5,-25.4 L4.98402,-25.4  L4.93616,-25.4  L4.85675,-25.4  L4.74628,-25.4  L4.60547,-25.4  L4.4352,-25.4  L4.23658,-25.4  L4.01087,-25.4  L3.75952,-25.4  L3.48412,-25.4  L3.18645,-25.4  L2.86841,-25.4  L2.53202,-25.4  L2.17945,-25.4 " /><path d="M-2.17945,-25.4 L-2.53202,-25.4  L-2.86841,-25.4  L-3.18645,-25.4  L-3.48412,-25.4  L-3.75952,-25.4  L-4.01087,-25.4  L-4.23658,-25.4  L-4.4352,-25.4  L-4.60547,-25.4  L-4.74628,-25.4  L-4.85675,-25.4  L-4.93616,-25.4  L-4.98402,-25.4  L-5,-25.4 " /><path d="M-5,-25.4 L-4.98402,-25.4  L-4.93616,-25.4  L-4.85675,-25.4  L-4.74628,-25.4  L-4.60547,-25.4  L-4.4352,-25.4  L-4.23658,-25.4  L-4.01087,-25.4  L-3.75952,-25.4  L-3.48412,-25.4  L-3.18645,-25.4  L-2.86841,-25.4  L-2.53202,-25.4  L-2.17945,-25.4 " /><path d="M1.33227e-15,-19.9 C0.722565,-19.9 1.44417,-19.9 2.1,-19.9 " /><path d="M2.17945,-19.9 L2.53202,-19.9  L2.86841,-19.9  L3.18645,-19.9  L3.48412,-19.9  L3.75952,-19.9  L4.01087,-19.9  L4.23658,-19.9  L4.4352,-19.9  L4.60547,-19.9  L4.74628,-19.9  L4.85675,-19.9  L4.93616,-19.9  L4.98402,-19.9  L5,-19.9 " /><path d="M5,-19.9 L4.98402,-19.9  L4.93616,-19.9  L4.85675,-19.9  L4.74628,-19.9  L4.60547,-19.9  L4.4352,-19.9  L4.23658,-19.9  L4.01087,-19.9  L3.75952,-19.9  L3.48412,-19.9  L3.18645,-19.9  L2.86841,-19.9  L2.53202,-19.9  L2.17945,-19.9 " /><path d="M-2.17945,-19.9 L-2.53202,-19.9  L-2.86841,-19.9  L-3.18645,-19.9  L-3.48412,-19.9  L-3.75952,-19.9  L-4.01087,-19.9  L-4.23658,-19.9  L-4.4352,-19.9  L-4.60547,-19.9  L-4.74628,-19.9  L-4.85675,-19.9  L-4.93616,-19.9  L-4.98402,-19.9  L-5,-19.9 " /><path d="M-5,-19.9 L-4.98402,-19.9  L-4.93616,-19.9  L-4.85675,-19.9  L-4.74628,-19.9  L-4.60547,-19.9  L-4.4352,-19.9  L-4.23658,-19.9  L-4.01087,-19.9  L-3.75952,-19.9  L-3.48412,-19.9  L-3.18645,-19.9  L-2.86841,-19.9  L-2.53202,-19.9  L-2.17945,-19.9 " /><path d="M-2.1,-19.9 C-1.44417,-19.9 -0.722565,-19.9 0,-19.9 " /><path d="M0,-19.9 Q-0.117563,-19.9 -0.235125,-19.9  Q-0.468942,-19.9 -0.693586,-19.9  Q-0.802371,-19.9 -0.911156,-19.9  Q-1.01421,-19.9 -1.11727,-19.9  Q-1.2133,-19.9 -1.30933,-19.9  Q-1.39713,-19.9 -1.48492,-19.9  Q-1.56339,-19.9 -1.64185,-19.9  Q-1.70998,-19.9 -1.77812,-19.9  Q-1.83508,-19.9 -1.89203,-19.9  Q-1.93709,-19.9 -1.98215,-19.9  Q-2.01475,-19.9 -2.04735,-19.9  Q-2.06707,-19.9 -2.0868,-19.9  Q-2.0934,-19.9 -2.1,-19.9 " /><path d="M-2.1,-19.9 L-2.04735,-19.9  L-1.89203,-19.9  L-1.64185,-19.9  L-1.30933,-19.9  L-0.911156,-19.9  L-0.467294,-19.9  L-2.77556e-16,-19.9  L0.467294,-19.9  L0.911156,-19.9  L1.30933,-19.9  L1.64185,-19.9  L1.89203,-19.9  L2.04735,-19.9  L2.1,-19.9 " /><path d="M2.1,-19.9 Q2.0934,-19.9 2.0868,-19.9  Q2.06707,-19.9 2.04735,-19.9  Q2.01475,-19.9 1.98215,-19.9  Q1.93709,-19.9 1.89203,-19.9  Q1.83508,-19.9 1.77812,-19.9  Q1.70998,-19.9 1.64185,-19.9  Q1.56339,-19.9 1.48492,-19.9  Q1.39713,-19.9 1.30933,-19.9  Q1.2133,-19.9 1.11727,-19.9  Q1.01421,-19.9 0.911156,-19.9  Q0.802371,-19.9 0.693586,-19.9  Q0.58044,-19.9 0.467294,-19.9  Q0.235955,-19.9 5.27356e-16,-19.9 " /><path id= "30" d=" M -25.4 0 L 25.4 0 " />
<path id= "31" d=" M 2.17945 -19.9 L 2.17945 -25.4 " />
<path id= "32" d=" M 2.17945 -19.9 L -2.17945 -19.9 " />
<path id= "33" d=" M -2.17945 -19.9 L -2.17945 -25.4 " />
<path id= "34" d=" M -25.4 -7.47402e-13 L 25.4 -7.47402e-13 " />
<path d="M4.41314e-15,-2.4869e-13 Q-0.117563,-2.48664e-13 -0.235125,-2.48638e-13  Q-0.468942,-2.48586e-13 -0.693586,-2.48536e-13  Q-0.802371,-2.48512e-13 -0.911156,-2.48488e-13  Q-1.01421,-2.48465e-13 -1.11727,-2.48442e-13  Q-1.2133,-2.48421e-13 -1.30933,-2.48399e-13  Q-1.39713,-2.4838e-13 -1.48492,-2.4836e-13  Q-1.56339,-2.48343e-13 -1.64185,-2.48325e-13  Q-1.70998,-2.4831e-13 -1.77812,-2.48295e-13  Q-1.83508,-2.48282e-13 -1.89203,-2.4827e-13  Q-1.93709,-2.4826e-13 -1.98215,-2.4825e-13  Q-2.01475,-2.48243e-13 -2.04735,-2.48235e-13  Q-2.06707,-2.48231e-13 -2.0868,-2.48227e-13  Q-2.0934,-2.48225e-13 -2.1,-2.48224e-13 " /><path d="M-2.1,-2.48224e-13 L-2.04735,-2.48235e-13  L-1.89203,-2.4827e-13  L-1.64185,-2.48325e-13  L-1.30933,-2.48399e-13  L-0.911156,-2.48488e-13  L-0.467294,-2.48586e-13  L4.16334e-15,-2.4869e-13  L0.467294,-2.48794e-13  L0.911156,-2.48892e-13  L1.30933,-2.48981e-13  L1.64185,-2.49055e-13  L1.89203,-2.4911e-13  L2.04735,-2.49145e-13  L2.1,-2.49156e-13 " /><path d="M2.1,-2.49156e-13 Q2.0934,-2.49155e-13 2.0868,-2.49153e-13  Q2.06707,-2.49149e-13 2.04735,-2.49145e-13  Q2.01475,-2.49137e-13 1.98215,-2.4913e-13  Q1.93709,-2.4912e-13 1.89203,-2.4911e-13  Q1.83508,-2.49097e-13 1.77812,-2.49085e-13  Q1.70998,-2.4907e-13 1.64185,-2.49055e-13  Q1.56339,-2.49037e-13 1.48492,-2.4902e-13  Q1.39713,-2.49e-13 1.30933,-2.48981e-13  Q1.2133,-2.48959e-13 1.11727,-2.48938e-13  Q1.01421,-2.48915e-13 0.911156,-2.48892e-13  Q0.802371,-2.48868e-13 0.693586,-2.48844e-13  Q0.58044,-2.48819e-13 0.467294,-2.48794e-13  Q0.235955,-2.48742e-13 1.2243e-13,-2.4869e-13 " /><path d="M-2.17945,-19.9 L-2.53202,-19.9  L-2.86841,-19.9  L-3.18645,-19.9  L-3.48412,-19.9  L-3.75952,-19.9  L-4.01087,-19.9  L-4.23658,-19.9  L-4.4352,-19.9  L-4.60547,-19.9  L-4.74628,-19.9  L-4.85675,-19.9  L-4.93616,-19.9  L-4.98402,-19.9  L-5,-19.9 " /><path d="M-5,-19.9 Q-4.98428,-19.9 -4.96856,-19.9  Q-4.9216,-19.9 -4.87464,-19.9  Q-4.79703,-19.9 -4.71942,-19.9  Q-4.61213,-19.9 -4.50484,-19.9  Q-4.36923,-19.9 -4.23362,-19.9  Q-4.07139,-19.9 -3.90916,-19.9  Q-3.72235,-19.9 -3.53553,-19.9  Q-3.32649,-19.9 -3.11745,-19.9  Q-2.8888,-19.9 -2.66016,-19.9  Q-2.41479,-19.9 -2.16942,-19.9  Q-1.91041,-19.9 -1.6514,-19.9  Q-1.382,-19.9 -1.1126,-19.9  Q-0.561797,-19.9 -4.996e-15,-19.9 " /><path d="M-3.66374e-15,-19.9 L0.559822,-19.9  L1.1126,-19.9  L1.6514,-19.9  L2.16942,-19.9  L2.66016,-19.9  L3.11745,-19.9  L3.53553,-19.9  L3.90916,-19.9  L4.23362,-19.9  L4.50484,-19.9  L4.71942,-19.9  L4.87464,-19.9  L4.96856,-19.9  L5,-19.9 " /><path d="M5,-19.9 L4.98402,-19.9  L4.93616,-19.9  L4.85675,-19.9  L4.74628,-19.9  L4.60547,-19.9  L4.4352,-19.9  L4.23658,-19.9  L4.01087,-19.9  L3.75952,-19.9  L3.48412,-19.9  L3.18645,-19.9  L2.86841,-19.9  L2.53202,-19.9  L2.17945,-19.9 " /><path d="M0,-19.9 Q-0.117563,-19.9 -0.235125,-19.9  Q-0.468942,-19.9 -0.693586,-19.9  Q-0.802371,-19.9 -0.911156,-19.9  Q-1.01421,-19.9 -1.11727,-19.9  Q-1.2133,-19.9 -1.30933,-19.9  Q-1.39713,-19.9 -1.48492,-19.9  Q-1.56339,-19.9 -1.64185,-19.9  Q-1.70998,-19.9 -1.77812,-19.9  Q-1.83508,-19.9 -1.89203,-19.9  Q-1.93709,-19.9 -1.98215,-19.9  Q-2.01475,-19.9 -2.04735,-19.9  Q-2.06707,-19.9 -2.0868,-19.9  Q-2.0934,-19.9 -2.1,-19.9 " /><path d="M-2.1,-19.9 L-2.04735,-19.9  L-1.89203,-19.9  L-1.64185,-19.9  L-1.30933,-19.9  L-0.911156,-19.9  L-0.467294,-19.9  L-2.77556e-16,-19.9  L0.467294,-19.9  L0.911156,-19.9  L1.30933,-19.9  L1.64185,-19.9  L1.89203,-19.9  L2.04735,-19.9  L2.1,-19.9 " /><path d="M2.1,-19.9 Q2.0934,-19.9 2.0868,-19.9  Q2.06707,-19.9 2.04735,-19.9  Q2.01475,-19.9 1.98215,-19.9  Q1.93709,-19.9 1.89203,-19.9  Q1.83508,-19.9 1.77812,-19.9  Q1.70998,-19.9 1.64185,-19.9  Q1.56339,-19.9 1.48492,-19.9  Q1.39713,-19.9 1.30933,-19.9  Q1.2133,-19.9 1.11727,-19.9  Q1.01421,-19.9 0.911156,-19.9  Q0.802371,-19.9 0.693586,-19.9  Q0.58044,-19.9 0.467294,-19.9  Q0.235955,-19.9 5.27356e-16,-19.9 " /></g>
<g   fill="none"
   stroke="rgb(0, 0, 0)"
   stroke-dasharray="0.02,0.1)"
   stroke-linecap="butt"
   stroke-linejoin="miter"
   stroke-width="0.150000"
   transform="scale(1,-1)"
  >
<path id= "1" d=" M 5 -19.9 L 5 -25.4 " />
<path id= "2" d=" M -5 -19.9 L -5 -25.4 " />
<path id= "3" d=" M 25.4 -15.325 L -25.4 -15.325 " />
<path id= "4" d=" M 2.1 -19.9 L 2.1 -1.5028e-12 " />
<path id= "5" d=" M -2.1 -19.9 L -2.1 -1.5028e-12 " />
<path id= "6" d=" M -5 -19.9 L -5 -25.4 " />
<path id= "7" d=" M 5 -19.9 L 5 -25.4 " />
<path id= "8" d=" M 2.1 -19.9 L 2.1 -2.4869e-13 " />
<path id= "9" d=" M -2.1 -19.9 L -2.1 -2.4869e-13 " />
</g>
<g   fill="none"
   stroke="rgb(0, 0, 0)"
   stroke-linecap="butt"
   stroke-linejoin="miter"
   stroke-width="0.350000"
   transform="scale(1,-1)"
  >
<path id= "1" d=" M -25.4 -25.4 L -25.4 0 " />
<path id= "2" d=" M -25.4 0 L 25.4 0 " />
<path id= "3" d=" M 25.4 -25.4 L 25.4 0 " />
<path id= "4" d=" M 2.17945 -25.4 L 25.4 -25.4 " />
<path id= "5" d=" M 2.17945 -19.9 L 2.17945 -25.4 " />
<path id= "6" d=" M -2.17945 -19.9 L 2.17945 -19.9 " />
<path id= "7" d=" M -2.17945 -19.9 L -2.17945 -25.4 " />
<path id= "8" d=" M -25.4 -25.4 L -2.17945 -25.4 " />
<path d="M0,-25.4 C0.751896,-25.4 1.50267,-25.4 2.17945,-25.4 " /><path d="M-2.17945,-25.4 C-1.50267,-25.4 -0.751896,-25.4 -1.33227e-15,-25.4 " /><path d="M2.1,-19.9 L2.17945,-19.9 " /><path d="M-2.17945,-19.9 L-2.1,-19.9 " /></g>
</g>



<g id="Ortho_1_0"
   transform="rotate(-6.36111e-15,207.525,63.65) translate(207.525,63.65) scale(1,1)"
  >
<g   fill="none"
   stroke="rgb(0, 0, 0)"
   stroke-dasharray="0.2,0.1)"
   stroke-linecap="butt"
   stroke-linejoin="miter"
   stroke-width="0.150000"
   transform="scale(1,-1)"
  >
<path id= "1" d=" M 31.75 25.4 L 31.75 0 " />
<path id= "2" d=" M 31.75 19.9 L 31.75 25.4 " />
<path id= "3" d=" M 31.75 19.9 L 31.75 25.4 " />
<path id= "4" d=" M 31.75 25.4 L -31.75 25.4 " />
<path id= "5" d=" M -31.75 25.4 L -31.75 0 " />
<path id= "6" d=" M -18.2255 7.47402e-13 L -31.75 0 " />
<path d="M18.2255 4.51239e-12 A18.5 18.5 0 0 1 -18.2255 7.47402e-13" /><path id= "8" d=" M 31.75 0 L 18.2255 4.51239e-12 " />
<path d="M29.35,1.5028e-12 L29.2973,1.5029e-12  L29.142,1.503e-12  L28.8918,1.50309e-12  L28.5593,1.50316e-12  L28.1612,1.50322e-12  L27.7173,1.50325e-12  L27.25,1.50326e-12  L26.7827,1.50325e-12  L26.3388,1.50322e-12  L25.9407,1.50316e-12  L25.6082,1.50309e-12  L25.358,1.503e-12  L25.2027,1.5029e-12  L25.15,1.5028e-12 " /><path d="M25.15,1.5028e-12 L25.2027,1.50269e-12  L25.358,1.5026e-12  L25.6082,1.50251e-12  L25.9407,1.50243e-12  L26.3388,1.50238e-12  L26.7827,1.50234e-12  L27.25,1.50233e-12  L27.7173,1.50234e-12  L28.1612,1.50238e-12  L28.5593,1.50243e-12  L28.8918,1.50251e-12  L29.142,1.5026e-12  L29.2973,1.50269e-12  L29.35,1.5028e-12 " /><path d="M-31.75,25.4 Q-31.5004,25.4 -31.2509,25.4  Q-30.9277,25.4 -30.6044,25.4  Q-30.2195,25.4 -29.8345,25.4  Q-29.4019,25.4 -28.9694,25.4  Q-28.5051,25.4 -28.0409,25.4  Q-27.0817,25.4 -26.132,25.4  Q-25.6768,25.4 -25.2217,25.4  Q-24.8039,25.4 -24.3862,25.4  Q-24.0211,25.4 -23.656,25.4  Q-23.3571,25.4 -23.0583,25.4  Q-22.8365,25.4 -22.6148,25.4  Q-22.4784,25.4 -22.3421,25.4  Q-22.296,25.4 -22.25,25.4 " /><path d="M-22.25,25.4 L-22.3421,25.4  L-22.6148,25.4  L-23.0583,25.4  L-23.656,25.4  L-24.3862,25.4  L-25.2217,25.4  L-26.132,25.4  L-27.0834,25.4  L-28.0409,25.4  L-28.9694,25.4  L-29.8345,25.4  L-30.6044,25.4  L-31.2509,25.4  L-31.75,25.4 " /><path d="M22.25,25.4 L22.3421,25.4  L22.6148,25.4  L23.0583,25.4  L23.656,25.4  L24.3862,25.4  L25.2217,25.4  L26.132,25.4  L27.0834,25.4  L28.0409,25.4  L28.9694,25.4  L29.8345,25.4  L30.6044,25.4  L31.2509,25.4  L31.75,25.4 " /><path d="M31.75,25.4 Q31.5004,25.4 31.2509,25.4  Q30.9277,25.4 30.6044,25.4  Q30.2195,25.4 29.8345,25.4  Q29.4019,25.4 28.9694,25.4  Q28.5051,25.4 28.0409,25.4  Q27.0817,25.4 26.132,25.4  Q25.6768,25.4 25.2217,25.4  Q24.8039,25.4 24.3862,25.4  Q24.0211,25.4 23.656,25.4  Q23.3571,25.4 23.0583,25.4  Q22.8365,25.4 22.6148,25.4  Q22.4784,25.4 22.3421,25.4  Q22.296,25.4 22.25,25.4 " /><path d="M22.25,19.9 L22.3421,19.9  L22.6148,19.9  L23.0583,19.9  L23.656,19.9  L24.3862,19.9  L25.2217,19.9  L26.132,19.9  L27.0834,19.9  L28.0409,19.9  L28.9694,19.9  L29.8345,19.9  L30.6044,19.9  L31.2509,19.9  L31.75,19.9 " /><path id= "16" d=" M 22.25 25.4 L 22.25 19.9 " />
<path d="M31.75,19.9 Q31.5004,19.9 31.2509,19.9  Q30.9277,19.9 30.6044,19.9  Q30.2195,19.9 29.8345,19.9  Q29.4019,19.9 28.9694,19.9  Q28.5051,19.9 28.0409,19.9  Q27.0817,19.9 26.132,19.9  Q25.6768,19.9 25.2217,19.9  Q24.8039,19.9 24.3862,19.9  Q24.0211,19.9 23.656,19.9  Q23.3571,19.9 23.0583,19.9  Q22.8365,19.9 22.6148,19.9  Q22.4784,19.9 22.3421,19.9  Q22.296,19.9 22.25,19.9 " /><path d="M29.35,19.9 L29.2973,19.9  L29.142,19.9  L28.8918,19.9  L28.5593,19.9  L28.1612,19.9  L27.7173,19.9  L27.25,19.9  L26.7827,19.9  L26.3388,19.9  L25.9407,19.9  L25.6082,19.9  L25.358,19.9  L25.2027,19.9  L25.15,19.9 " /><path d="M25.15,19.9 L25.2027,19.9  L25.358,19.9  L25.6082,19.9  L25.9407,19.9  L26.3388,19.9  L26.7827,19.9  L27.25,19.9  L27.7173,19.9  L28.1612,19.9  L28.5593,19.9  L28.8918,19.9  L29.142,19.9  L29.2973,19.9  L29.35,19.9 " /><path id= "20" d=" M -31.75 19.9 L -31.75 25.4 " />
<path id= "21" d=" M -31.75 19.9 L -31.75 25.4 " />
<path d="M-29.35,2.4869e-13 L-29.2973,2.48586e-13  L-29.142,2.48488e-13  L-28.8918,2.48399e-13  L-28.5593,2.48325e-13  L-28.1612,2.4827e-13  L-27.7173,2.48235e-13  L-27.25,2.48224e-13  L-26.7827,2.48235e-13  L-26.3388,2.4827e-13  L-25.9407,2.48325e-13  L-25.6082,2.48399e-13  L-25.358,2.48488e-13  L-25.2027,2.48586e-13  L-25.15,2.4869e-13 " /><path d="M-25.15,2.4869e-13 L-25.2027,2.48794e-13  L-25.358,2.48892e-13  L-25.6082,2.48981e-13  L-25.9407,2.49055e-13  L-26.3388,2.4911e-13  L-26.7827,2.49145e-13  L-27.25,2.49156e-13  L-27.7173,2.49145e-13  L-28.1612,2.4911e-13  L-28.5593,2.49055e-13  L-28.8918,2.48981e-13  L-29.142,2.48892e-13  L-29.2973,2.48794e-13  L-29.35,2.4869e-13 " /><path id= "24" d=" M 29.35 19.9 L 29.35 7.99361e-13 " />
<path id= "25" d=" M -22.25 25.4 L -22.25 19.9 " />
<path d="M-31.75,19.9 Q-31.5004,19.9 -31.2509,19.9  Q-30.9277,19.9 -30.6044,19.9  Q-30.2195,19.9 -29.8345,19.9  Q-29.4019,19.9 -28.9694,19.9  Q-28.5051,19.9 -28.0409,19.9  Q-27.0817,19.9 -26.132,19.9  Q-25.6768,19.9 -25.2217,19.9  Q-24.8039,19.9 -24.3862,19.9  Q-24.0211,19.9 -23.656,19.9  Q-23.3571,19.9 -23.0583,19.9  Q-22.8365,19.9 -22.6148,19.9  Q-22.4784,19.9 -22.3421,19.9  Q-22.296,19.9 -22.25,19.9 " /><path d="M-22.25,19.9 L-22.3421,19.9  L-22.6148,19.9  L-23.0583,19.9  L-23.656,19.9  L-24.3862,19.9  L-25.2217,19.9  L-26.132,19.9  L-27.0834,19.9  L-28.0409,19.9  L-28.9694,19.9  L-29.8345,19.9  L-30.6044,19.9  L-31.2509,19.9  L-31.75,19.9 " /><path d="M-29.35,19.9 L-29.2973,19.9  L-29.142,19.9  L-28.8918,19.9  L-28.5593,19.9  L-28.1612,19.9  L-27.7173,19.9  L-27.25,19.9  L-26.7827,19.9  L-26.3388,19.9  L-25.9407,19.9  L-25.6082,19.9  L-25.358,19.9  L-25.2027,19.9  L-25.15,19.9 " /><path d="M-25.15,19.9 L-25.2027,19.9  L-25.358,19.9  L-25.6082,19.9  L-25.9407,19.9  L-26.3388,19.9  L-26.7827,19.9  L-27.25,19.9  L-27.7173,19.9  L-28.1612,19.9  L-28.5593,19.9  L-28.8918,19.9  L-29.142,19.9  L-29.2973,19.9  L-29.35,19.9 " /><path id= "30" d=" M -29.35 19.9 L -29.35 1.3145e-13 " />
</g>
<g   fill="none"
   stroke="rgb(0, 0, 0)"
   stroke-dasharray="0.02,0.1)"
   stroke-linecap="butt"
   stroke-linejoin="miter"
   stroke-width="0.150000"
   transform="scale(1,-1)"
  >
<path id= "1" d=" M 25.15 19.9 L 25.15 1.5028e-12 " />
<path id= "2" d=" M -25.15 19.9 L -25.15 2.4869e-13 " />
</g>
<g   fill="none"
   stroke="rgb(0, 0, 0)"
   stroke-linecap="butt"
   stroke-linejoin="miter"
   stroke-width="0.350000"
   transform="scale(1,-1)"
  >
<path id= "1" d=" M 31.75 25.4 L 31.75 0 " />
<path id= "2" d=" M 31.75 0 L 18.2255 4.51239e-12 " />
<path id= "3" d=" M 31.75 25.4 L -31.75 25.4 " />
<path id= "4" d=" M -31.75 25.4 L -31.75 0 " />
<path id= "5" d=" M -18.2255 7.47402e-13 L -31.75 0 " />
<path d="M18.2255 4.51239e-12 A18.5 18.5 0 0 1 -18.2255 7.47402e-13" /></g>
</g>



<g id="Ortho_1_-1"
   transform="rotate(-4.13472e-14,207.525,152.379) translate(207.525,152.379) scale(1,1)"
  >
<g   fill="none"
   stroke="rgb(0, 0, 0)"
   stroke-dasharray="0.2,0.1)"
   stroke-linecap="butt"
   stroke-linejoin="miter"
   stroke-width="0.150000"
   transform="scale(1,-1)"
  >
<path id= "1" d=" M -4.49013 44.0704 L -4.49013 23.3314 " />
<path id= "2" d=" M 5.07313 17.81 L -4.49013 23.3314 " />
<path d="M30.8479 2.92897 A18.5 10.681 120 0 1 8.71051 23.7986" />
<path d="M8.71051 23.7986 A18.5 10.681 120 0 1 5.07313 17.81" />
<path id= "5" d=" M 40.4112 -2.59238 L 30.8479 2.92897 " />
<path id= "6" d=" M 30.8479 2.92897 L -5.07313 -17.81 " />
<path d="M20.7536 -11.9821 A2.1 1.21244 180 0 0 17.1687 -11.1248" />
<path d="M17.1687 -11.1248 A2.1 1.21244 180 0 0 21.3687 -11.1248" />
<path d="M21.3687 -11.1248 A2.1 1.21244 180 0 0 20.7536 -11.9821" />
<path d="M15.7331 7.16476 A5 2.88675 -9.73842e-15 0 1 14.2687 5.12352" />
<path d="M14.2687 5.12352 A5 2.88675 -9.73842e-15 0 1 20.9095 2.39664" />
<path d="M23.9917 4.17616 A5 2.88675 -9.73842e-15 0 1 24.2687 5.12352" />
<path d="M24.2687 5.12352 A5 2.88675 -9.73842e-15 0 1 23.9917 6.07088" />
<path d="M16.1262 7.36888 A5 2.88675 -9.73842e-15 0 1 15.7331 7.16476" />
<path d="M20.7536 4.26619 A2.1 1.21244 -9.73842e-15 0 1 20.9095 4.36687" />
<path d="M20.9095 5.88016 A2.1 1.21244 -9.73842e-15 0 1 17.1687 5.12352" />
<path d="M17.1687 5.12352 A2.1 1.21244 -9.73842e-15 0 1 20.7536 4.26619" />
<path id= "18" d=" M -4.49013 23.3314 L -40.4112 2.59238 " />
<path id= "19" d=" M -23.9917 28.3204 L -23.9917 30.9164 " />
<path id= "20" d=" M -23.9917 28.3204 L -22.0257 29.4555 " />
<path id= "21" d=" M 5.07313 17.81 L -20.2056 3.21538 " />
<path d="M-20.7536 11.9821 A2.1 1.21244 180 0 0 -17.1687 11.1248" />
<path d="M-17.1687 11.1248 A2.1 1.21244 180 0 0 -21.3687 11.1248" />
<path d="M-21.3687 11.1248 A2.1 1.21244 180 0 0 -20.7536 11.9821" />
<path d="M-16.1262 29.6184 A5 2.88675 180 0 0 -14.2687 27.373" />
<path d="M-14.2687 27.373 A5 2.88675 180 0 0 -15.7331 25.3318" />
<path d="M-15.7331 25.3318 A5 2.88675 180 0 0 -24.2687 27.373" />
<path d="M-24.2687 27.373 A5 2.88675 180 0 0 -23.9917 28.3204" />
<path d="M-20.7536 28.2304 A2.1 1.21244 180 0 0 -17.1687 27.373" />
<path d="M-17.1687 27.373 A2.1 1.21244 180 0 0 -21.3687 27.373" />
<path d="M-21.3687 27.373 A2.1 1.21244 180 0 0 -20.7536 28.2304" />
</g>
<g   fill="none"
   stroke="rgb(0, 0, 0)"
   stroke-dasharray="0.02,0.1)"
   stroke-linecap="butt"
   stroke-linejoin="miter"
   stroke-width="0.150000"
   transform="scale(1,-1)"
  >
<path id= "1" d=" M 14.2687 5.12352 L 14.2687 9.61425 " />
<path id= "2" d=" M 24.2687 5.12352 L 24.2687 9.61425 " />
<path id= "3" d=" M -27.2105 3.05959 L 8.71051 23.7986 " />
<path id= "4" d=" M 17.1687 5.12352 L 17.1687 -11.1248 " />
<path id= "5" d=" M 21.3687 5.12352 L 21.3687 -11.1248 " />
<path id= "6" d=" M -14.2687 27.373 L -14.2687 31.8638 " />
<path id= "7" d=" M -24.2687 27.373 L -24.2687 31.8638 " />
<path id= "8" d=" M -21.3687 27.373 L -21.3687 11.1248 " />
<path id= "9" d=" M -17.1687 27.373 L -17.1687 11.1248 " />
</g>
<g   fill="none"
   stroke="rgb(0, 0, 0)"
   stroke-linecap="butt"
   stroke-linejoin="miter"
   stroke-width="0.350000"
   transform="scale(1,-1)"
  >
<path id= "1" d=" M 40.4112 18.1466 L 40.4112 -2.59238 " />
<path id= "2" d=" M 40.4112 -2.59238 L 4.49013 -23.3314 " />
<path id= "3" d=" M 4.49013 -2.59238 L 4.49013 -23.3314 " />
<path id= "4" d=" M 20.9095 6.88737 L 4.49013 -2.59238 " />
<path id= "5" d=" M 20.9095 2.39664 L 20.9095 6.88737 " />
<path id= "6" d=" M 23.9917 4.17616 L 20.9095 2.39664 " />
<path id= "7" d=" M 23.9917 4.17616 L 23.9917 8.66689 " />
<path id= "8" d=" M 40.4112 18.1466 L 23.9917 8.66689 " />
<path id= "9" d=" M 40.4112 18.1466 L -4.49013 44.0704 " />
<path id= "10" d=" M 4.49013 -23.3314 L -5.07313 -17.81 " />
<path id= "11" d=" M 4.49013 -2.59238 L -40.4112 23.3314 " />
<path id= "12" d=" M -40.4112 23.3314 L -40.4112 2.59238 " />
<path id= "13" d=" M -30.8479 -2.92897 L -40.4112 2.59238 " />
<path d="M-5.07313 -17.81 A18.5 10.681 120 0 1 -27.2105 3.05959" />
<path d="M-27.2105 3.05959 A18.5 10.681 120 0 1 -30.8479 -2.92897" />
<path id= "16" d=" M -4.49013 44.0704 L -20.9095 34.5907 " />
<path d="M-20.9095 34.5907 A5 2.88675 180 0 0 -14.2687 31.8638" />
<path d="M-14.2687 31.8638 A5 2.88675 180 0 0 -15.7331 29.8225" />
<path d="M-15.7331 29.8225 A5 2.88675 180 0 0 -24.2687 31.8638" />
<path d="M-24.2687 31.8638 A5 2.88675 180 0 0 -23.9917 32.8111" />
<path id= "21" d=" M -23.9917 32.8111 L -40.4112 23.3314 " />
<path d="M15.7331 11.6555 A5 2.88675 -9.73842e-15 0 1 14.2687 9.61425" />
<path d="M14.2687 9.61425 A5 2.88675 -9.73842e-15 0 1 20.9095 6.88737" />
<path d="M23.9917 8.66689 A5 2.88675 -9.73842e-15 0 1 24.2687 9.61425" />
<path d="M24.2687 9.61425 A5 2.88675 -9.73842e-15 0 1 15.7331 11.6555" />
<path d="M23.9917 6.07088 A5 2.88675 -9.73842e-15 0 1 16.1262 7.36888" />
<path d="M20.9095 4.36687 A2.1 1.21244 -9.73842e-15 0 1 21.3687 5.12352" />
<path d="M21.3687 5.12352 A2.1 1.21244 -9.73842e-15 0 1 20.9095 5.88016" />
<path id= "29" d=" M -23.9917 30.9164 L -23.9917 32.8111 " />
<path id= "30" d=" M -22.0257 29.4555 L -20.9095 30.0999 " />
<path id= "31" d=" M -20.9095 30.0999 L -20.9095 34.5907 " />
<path id= "32" d=" M -20.2056 3.21538 L -30.8479 -2.92897 " />
<path d="M-20.9095 30.0999 A5 2.88675 180 0 0 -16.1262 29.6184" />
</g>
</g>



<g id="Ortho_0_-1"
   transform="rotate(180,79.95,136.825) translate(79.95,136.825) scale(1,1)"
  >
<g   fill="none"
   stroke="rgb(0, 0, 0)"
   stroke-dasharray="0.2,0.1)"
   stroke-linecap="butt"
   stroke-linejoin="miter"
   stroke-width="0.150000"
   transform="scale(1,-1)"
  >
<path id= "1" d=" M -25.4 31.75 L 25.4 31.75 " />
<path id= "2" d=" M -25.4 -18.2255 L -25.4 -31.75 " />
<path d="M-25.4,18.2255 L-25.4,17.2331  L-25.4,15.5552  L-25.4,13.2587  L-25.4,10.4349  L-25.4,7.19606  L-25.4,3.67103  L-25.4,-1.91314e-12  L-25.4,-3.67103  L-25.4,-7.19606  L-25.4,-10.4349  L-25.4,-13.2587  L-25.4,-15.5552  L-25.4,-17.2331  L-25.4,-18.2255 " /><path id= "4" d=" M -25.4 31.75 L -25.4 18.2255 " />
<path id= "5" d=" M 25.4 31.75 L 25.4 18.2255 " />
<path id= "6" d=" M -25.4 18.2255 L 25.4 18.2255 " />
<circle cx ="4.41869e-15" cy ="27.25" r ="2.1" /><path id= "8" d=" M 25.4 -18.2255 L 25.4 -31.75 " />
<path d="M25.4,18.2255 L25.4,17.2331  L25.4,15.5552  L25.4,13.2587  L25.4,10.4349  L25.4,7.19606  L25.4,3.67103  L25.4,-1.91314e-12  L25.4,-3.67103  L25.4,-7.19606  L25.4,-10.4349  L25.4,-13.2587  L25.4,-15.5552  L25.4,-17.2331  L25.4,-18.2255 " /><path d="M1.22125e-15 22.25 A5 5 0 0 1 2.17945 31.75" /><path d="M-2.17945 31.75 A5 5 0 0 1 -3.40147e-18 22.25" /><path id= "12" d=" M -25.4 -31.75 L 25.4 -31.75 " />
<path id= "13" d=" M -25.4 -18.2255 L 25.4 -18.2255 " />
<circle cx ="4.41869e-15" cy ="-27.25" r ="2.1" /><path d="M-2.17945 -31.75 A5 5 0 0 0 -4.94389e-15 -22.25" /><path d="M-3.71925e-15 -22.25 A5 5 0 0 0 2.17945 -31.75" /></g>
<g   fill="none"
   stroke="rgb(0, 0, 0)"
   stroke-linecap="butt"
   stroke-linejoin="miter"
   stroke-width="0.350000"
   transform="scale(1,-1)"
  >
<path id= "1" d=" M 2.17945 31.75 L 25.4 31.75 " />
<path id= "2" d=" M -2.17945 31.75 L 2.17945 31.75 " />
<path id= "3" d=" M -25.4 31.75 L -2.17945 31.75 " />
<path id= "4" d=" M -25.4 31.75 L -25.4 -31.75 " />
<path id= "5" d=" M 25.4 31.75 L 25.4 -31.75 " />
<path id= "6" d=" M -25.4 -31.75 L -2.17945 -31.75 " />
<path d="M-2.17945 -31.75 A5 5 0 0 0 -6.16514e-15 -22.25" /><path d="M-4.94049e-15 -22.25 A5 5 0 0 0 2.17945 -31.75" /><path id= "9" d=" M 2.17945 -31.75 L 25.4 -31.75 " />
<path d="M0 22.25 A5 5 0 0 1 2.17945 31.75" /><path d="M-2.17945 31.75 A5 5 0 0 1 -1.22465e-15 22.25" /><circle cx ="-9.0934e-31" cy ="27.25" r ="2.1" /><path id= "13" d=" M 2.17945 -31.75 L -2.17945 -31.75 " />
<circle cx ="-9.0934e-31" cy ="-27.25" r ="2.1" /></g>
</g>



</svg>

