  0
SECTION
  2
HEADER
  9
$ACADVER
  1
AC1014
  9
$HANDSEED
  5
FFFF
  9
$MEASUREMENT
 70
     1
  0
ENDSEC
  0
SECTION
  2
TABLES
  0
TABLE
  2
VPORT
  5
8
330
0
100
AcDbSymbolTable
 70
     4
  0
VPORT
  5
2E
330
8
100
AcDbSymbolTableRecord
100
AcDbViewportTableRecord
  2
*ACTIVE
 70
     0
 10
0.0
 20
0.0
 11
1.0
 21
1.0
 12
210.0
 22
148.5
 13
0.0
 23
0.0
 14
10.0
 24
10.0
 15
10.0
 25
10.0
 16
0.0
 26
0.0
 36
1.0
 17
0.0
 27
0.0
 37
0.0
 40
341.0
 41
1.24
 42
50.0
 43
0.0
 44
0.0
 50
0.0
 51
0.0
 71
     0
 72
   100
 73
     1
 74
     3
 75
     0
 76
     0
 77
     0
 78
     0
  0
ENDTAB
  0
TABLE
  2
LTYPE
  5
5
330
0
100
AcDbSymbolTable
 70
     1
  0
LTYPE
  5
14
330
5
100
AcDbSymbolTableRecord
100
AcDbLinetypeTableRecord
  2
BYBLOCK
 70
     0
  3

 72
    65
 73
     0
 40
0.0
  0
LTYPE
  5
15
330
5
100
AcDbSymbolTableRecord
100
AcDbLinetypeTableRecord
  2
BYLAYER
 70
     0
  3

 72
    65
 73
     0
 40
0.0
  0
LTYPE
  5
16
330
5
100
AcDbSymbolTableRecord
100
AcDbLinetypeTableRecord
  2
CONTINUOUS
 70
     0
  3
Solid line
 72
    65
 73
     0
 40
0.0
  0
ENDTAB
  0
TABLE
  2
LAYER
  5
2
100
AcDbSymbolTable
 70
2
  0
LAYER
  5
50
100
AcDbSymbolTableRecord
100
AcDbLayerTableRecord
  2
0
 70
0
  6
CONTINUOUS
  0
LAYER
  5
51
100
AcDbSymbolTableRecord
100
AcDbLayerTableRecord
  2
full3
 70
0
  6
CONTINUOUS
  0
ENDTAB
  0
TABLE
  2
STYLE
  5
3
330
0
100
AcDbSymbolTable
 70
     1
  0
STYLE
  5
11
330
3
100
AcDbSymbolTableRecord
100
AcDbTextStyleTableRecord
  2
STANDARD
 70
     0
 40
0.0
 41
1.0
 50
0.0
 71
     0
 42
2.5
  3
txt
  4

  0
ENDTAB
  0
TABLE
  2
VIEW
  5
6
330
0
100
AcDbSymbolTable
 70
     0
  0
ENDTAB
  0
TABLE
  2
UCS
  5
7
330
0
100
AcDbSymbolTable
 70
     0
  0
ENDTAB
  0
TABLE
  2
APPID
  5
9
330
0
100
AcDbSymbolTable
 70
     2
  0
APPID
  5
12
330
9
100
AcDbSymbolTableRecord
100
AcDbRegAppTableRecord
  2
ACAD
 70
     0
  0
ENDTAB
  0
TABLE
  2
DIMSTYLE
  5
A
330
0
100
AcDbSymbolTable
 70
     1
  0
DIMSTYLE
105
27
330
A
100
AcDbSymbolTableRecord
100
AcDbDimStyleTableRecord
  2
ISO-25
 70
     0
  3

  4

  5

  6

  7

 40
1.0
 41
2.5
 42
0.625
 43
3.75
 44
1.25
 45
0.0
 46
0.0
 47
0.0
 48
0.0
140
2.5
141
2.5
142
0.0
143
0.03937007874016
144
1.0
145
0.0
146
1.0
147
0.625
 71
     0
 72
     0
 73
     0
 74
     0
 75
     0
 76
     0
 77
     1
 78
     8
170
     0
171
     3
172
     1
173
     0
174
     0
175
     0
176
     0
177
     0
178
     0
270
     2
271
     2
272
     2
273
     2
274
     3
340
11
275
     0
280
     0
281
     0
282
     0
283
     0
284
     8
285
     0
286
     0
287
     3
288
     0
  0
ENDTAB
  0
TABLE
  2
BLOCK_RECORD
  5
1
330
0
100
AcDbSymbolTable
 70
     1
  0
BLOCK_RECORD
  5
1F
330
1
100
AcDbSymbolTableRecord
100
AcDbBlockTableRecord
  2
*MODEL_SPACE
  0
BLOCK_RECORD
  5
1B
330
1
100
AcDbSymbolTableRecord
100
AcDbBlockTableRecord
  2
*PAPER_SPACE
  0
ENDTAB
  0
ENDSEC
  0
SECTION
  2
BLOCKS
  0
BLOCK
  5
20
330
1F
100
AcDbEntity
  8
0
100
AcDbBlockBegin
  2
*MODEL_SPACE
 70
     0
 10
0.0
 20
0.0
 30
0.0
  3
*MODEL_SPACE
  1

  0
ENDBLK
  5
21
330
1F
100
AcDbEntity
  8
0
100
AcDbBlockEnd
  0
BLOCK
  5
1C
330
1B
100
AcDbEntity
 67
     1
  8
0
100
AcDbBlockBegin
  2
*PAPER_SPACE
  1

  0
ENDBLK
  5
1D
330
1B
100
AcDbEntity
 67
     1
  8
0
100
AcDbBlockEnd
  0
ENDSEC
  0
SECTION
  2
ENTITIES
  0
LINE
  5
100
100
AcDbEntity
  8
full3
 62
7
100
AcDbLine
 10
0.281380
 20
209.621397
 30
0.0
 11
296.293646
 21
209.621397
 31
0.0
  0
LINE
  5
101
100
AcDbEntity
  8
full3
 62
7
100
AcDbLine
 10
296.293646
 20
209.621397
 30
0.0
 11
296.293646
 21
0.274320
 31
0.0
  0
LINE
  5
102
100
AcDbEntity
  8
full3
 62
7
100
AcDbLine
 10
296.293646
 20
0.274320
 30
0.0
 11
0.281380
 21
0.274320
 31
0.0
  0
LINE
  5
103
100
AcDbEntity
  8
full3
 62
7
100
AcDbLine
 10
0.281380
 20
0.274320
 30
0.0
 11
0.281380
 21
209.621397
 31
0.0
  0
LINE
  5
104
100
AcDbEntity
  8
full3
 62
7
100
AcDbLine
 10
0.281380
 20
209.621397
 30
0.0
 11
0.281380
 21
209.621397
 31
0.0
  0
LINE
  5
105
100
AcDbEntity
  8
full3
 62
1
100
AcDbLine
 10
270.607452
 20
24.968956
 30
0.0
 11
270.607452
 21
11.754171
 31
0.0
  0
LINE
  5
106
100
AcDbEntity
  8
full3
 62
1
100
AcDbLine
 10
270.607452
 20
11.754171
 30
0.0
 11
273.553421
 21
11.754171
 31
0.0
  0
LINE
  5
107
100
AcDbEntity
  8
full3
 62
1
100
AcDbLine
 10
273.553421
 20
11.754171
 30
0.0
 11
273.553421
 21
16.925642
 31
0.0
  0
LINE
  5
108
100
AcDbEntity
  8
full3
 62
1
100
AcDbLine
 10
273.553421
 20
16.925642
 30
0.0
 11
275.636471
 21
16.925642
 31
0.0
  0
LINE
  5
109
100
AcDbEntity
  8
full3
 62
1
100
AcDbLine
 10
275.636471
 20
16.925642
 30
0.0
 11
275.636471
 21
18.964483
 31
0.0
  0
LINE
  5
10a
100
AcDbEntity
  8
full3
 62
1
100
AcDbLine
 10
275.636471
 20
18.964483
 30
0.0
 11
273.553421
 21
18.964483
 31
0.0
  0
LINE
  5
10b
100
AcDbEntity
  8
full3
 62
1
100
AcDbLine
 10
273.553421
 20
18.964483
 30
0.0
 11
273.553421
 21
21.165120
 31
0.0
  0
LINE
  5
10c
100
AcDbEntity
  8
full3
 62
1
100
AcDbLine
 10
273.553421
 20
21.165120
 30
0.0
 11
278.684898
 21
21.165120
 31
0.0
  0
LINE
  5
10d
100
AcDbEntity
  8
full3
 62
1
100
AcDbLine
 10
278.684898
 20
21.165120
 30
0.0
 11
278.684898
 21
24.961978
 31
0.0
  0
LINE
  5
10e
100
AcDbEntity
  8
full3
 62
1
100
AcDbLine
 10
278.684898
 20
24.961978
 30
0.0
 11
270.607452
 21
24.969455
 31
0.0
  0
LINE
  5
10f
100
AcDbEntity
  8
full3
 62
1
100
AcDbLine
 10
270.607452
 20
24.969455
 30
0.0
 11
270.607452
 21
24.968956
 31
0.0
  0
LINE
  5
110
100
AcDbEntity
  8
full3
 62
1
100
AcDbLine
 10
270.607452
 20
24.968956
 30
0.0
 11
270.607452
 21
24.968956
 31
0.0
  0
LINE
  5
111
100
AcDbEntity
  8
full3
 62
5
100
AcDbLine
 10
283.721582
 20
21.030390
 30
0.0
 11
282.008000
 21
20.047007
 31
0.0
  0
LINE
  5
112
100
AcDbEntity
  8
full3
 62
5
100
AcDbLine
 10
282.008000
 20
20.047007
 30
0.0
 11
281.251275
 21
20.309668
 31
0.0
  0
LINE
  5
113
100
AcDbEntity
  8
full3
 62
5
100
AcDbLine
 10
281.251275
 20
20.309668
 30
0.0
 11
280.529294
 21
22.155212
 31
0.0
  0
LINE
  5
114
100
AcDbEntity
  8
full3
 62
5
100
AcDbLine
 10
280.529294
 20
22.155212
 30
0.0
 11
279.393584
 21
22.095518
 31
0.0
  0
LINE
  5
115
100
AcDbEntity
  8
full3
 62
5
100
AcDbLine
 10
279.393584
 20
22.095518
 30
0.0
 11
278.875552
 21
20.187070
 31
0.0
  0
LINE
  5
116
100
AcDbEntity
  8
full3
 62
5
100
AcDbLine
 10
278.875552
 20
20.187070
 30
0.0
 11
278.150541
 21
19.839803
 31
0.0
  0
LINE
  5
117
100
AcDbEntity
  8
full3
 62
5
100
AcDbLine
 10
278.150541
 20
19.839803
 30
0.0
 11
276.342275
 21
20.631006
 31
0.0
  0
LINE
  5
118
100
AcDbEntity
  8
full3
 62
5
100
AcDbLine
 10
276.342275
 20
20.631006
 30
0.0
 11
275.578504
 21
19.782093
 31
0.0
  0
LINE
  5
119
100
AcDbEntity
  8
full3
 62
5
100
AcDbLine
 10
275.578504
 20
19.782093
 30
0.0
 11
276.561673
 21
18.068139
 31
0.0
  0
LINE
  5
11a
100
AcDbEntity
  8
full3
 62
5
100
AcDbLine
 10
276.561673
 20
18.068139
 30
0.0
 11
276.293000
 21
17.313473
 31
0.0
  0
LINE
  5
11b
100
AcDbEntity
  8
full3
 62
5
100
AcDbLine
 10
276.293000
 20
17.313473
 30
0.0
 11
274.447857
 21
16.591335
 31
0.0
  0
LINE
  5
11c
100
AcDbEntity
  8
full3
 62
5
100
AcDbLine
 10
274.447857
 20
16.591335
 30
0.0
 11
274.513604
 21
15.453185
 31
0.0
  0
LINE
  5
11d
100
AcDbEntity
  8
full3
 62
5
100
AcDbLine
 10
274.513604
 20
15.453185
 30
0.0
 11
276.421638
 21
14.935041
 31
0.0
  0
LINE
  5
11e
100
AcDbEntity
  8
full3
 62
5
100
AcDbLine
 10
276.421638
 20
14.935041
 30
0.0
 11
276.768829
 21
14.209872
 31
0.0
  0
LINE
  5
11f
100
AcDbEntity
  8
full3
 62
5
100
AcDbLine
 10
276.768829
 20
14.209872
 30
0.0
 11
275.971729
 21
12.403407
 31
0.0
  0
LINE
  5
120
100
AcDbEntity
  8
full3
 62
5
100
AcDbLine
 10
275.971729
 20
12.403407
 30
0.0
 11
276.820457
 21
11.639469
 31
0.0
  0
LINE
  5
121
100
AcDbEntity
  8
full3
 62
5
100
AcDbLine
 10
276.820457
 20
11.639469
 30
0.0
 11
278.534039
 21
12.622852
 31
0.0
  0
LINE
  5
122
100
AcDbEntity
  8
full3
 62
5
100
AcDbLine
 10
278.534039
 20
12.622852
 30
0.0
 11
279.294611
 21
12.351907
 31
0.0
  0
LINE
  5
123
100
AcDbEntity
  8
full3
 62
5
100
AcDbLine
 10
279.294611
 20
12.351907
 30
0.0
 11
280.010522
 21
10.508556
 31
0.0
  0
LINE
  5
124
100
AcDbEntity
  8
full3
 62
5
100
AcDbLine
 10
280.010522
 20
10.508556
 30
0.0
 11
281.154505
 21
10.572108
 31
0.0
  0
LINE
  5
125
100
AcDbEntity
  8
full3
 62
5
100
AcDbLine
 10
281.154505
 20
10.572108
 30
0.0
 11
281.666466
 21
12.482749
 31
0.0
  0
LINE
  5
126
100
AcDbEntity
  8
full3
 62
5
100
AcDbLine
 10
281.666466
 20
12.482749
 30
0.0
 11
282.391477
 21
12.830016
 31
0.0
  0
LINE
  5
127
100
AcDbEntity
  8
full3
 62
5
100
AcDbLine
 10
282.391477
 20
12.830016
 30
0.0
 11
284.203630
 21
12.030529
 31
0.0
  0
LINE
  5
128
100
AcDbEntity
  8
full3
 62
5
100
AcDbLine
 10
284.203630
 20
12.030529
 30
0.0
 11
284.967402
 21
12.879442
 31
0.0
  0
LINE
  5
129
100
AcDbEntity
  8
full3
 62
5
100
AcDbLine
 10
284.967402
 20
12.879442
 30
0.0
 11
283.984232
 21
14.593396
 31
0.0
  0
LINE
  5
12a
100
AcDbEntity
  8
full3
 62
5
100
AcDbLine
 10
283.984232
 20
14.593396
 30
0.0
 11
284.249049
 21
15.356347
 31
0.0
  0
LINE
  5
12b
100
AcDbEntity
  8
full3
 62
5
100
AcDbLine
 10
284.249049
 20
15.356347
 30
0.0
 11
286.091999
 21
16.072413
 31
0.0
  0
LINE
  5
12c
100
AcDbEntity
  8
full3
 62
5
100
AcDbLine
 10
286.091999
 20
16.072413
 30
0.0
 11
286.034531
 21
17.214451
 31
0.0
  0
LINE
  5
12d
100
AcDbEntity
  8
full3
 62
5
100
AcDbLine
 10
286.034531
 20
17.214451
 30
0.0
 11
284.124305
 21
17.726524
 31
0.0
  0
LINE
  5
12e
100
AcDbEntity
  8
full3
 62
5
100
AcDbLine
 10
284.124305
 20
17.726524
 30
0.0
 11
283.777114
 21
18.451693
 31
0.0
  0
LINE
  5
12f
100
AcDbEntity
  8
full3
 62
5
100
AcDbLine
 10
283.777114
 20
18.451693
 30
0.0
 11
284.570367
 21
20.266433
 31
0.0
  0
LINE
  5
130
100
AcDbEntity
  8
full3
 62
5
100
AcDbLine
 10
284.570367
 20
20.266433
 30
0.0
 11
283.721639
 21
21.030370
 31
0.0
  0
LINE
  5
131
100
AcDbEntity
  8
full3
 62
5
100
AcDbLine
 10
283.721639
 20
21.030370
 30
0.0
 11
283.721582
 21
21.030390
 31
0.0
  0
LINE
  5
132
100
AcDbEntity
  8
full3
 62
5
100
AcDbLine
 10
283.721582
 20
21.030390
 30
0.0
 11
283.721582
 21
21.030390
 31
0.0
  0
LINE
  5
133
100
AcDbEntity
  8
full3
 62
5
100
AcDbLine
 10
281.155046
 20
18.219656
 30
0.0
 11
281.506822
 21
18.015513
 31
0.0
  0
LINE
  5
134
100
AcDbEntity
  8
full3
 62
5
100
AcDbLine
 10
281.506822
 20
18.015513
 30
0.0
 11
281.811595
 21
17.739125
 31
0.0
  0
LINE
  5
135
100
AcDbEntity
  8
full3
 62
5
100
AcDbLine
 10
281.811595
 20
17.739125
 30
0.0
 11
282.055591
 21
17.409284
 31
0.0
  0
LINE
  5
136
100
AcDbEntity
  8
full3
 62
5
100
AcDbLine
 10
282.055591
 20
17.409284
 30
0.0
 11
282.231115
 21
17.042558
 31
0.0
  0
LINE
  5
137
100
AcDbEntity
  8
full3
 62
5
100
AcDbLine
 10
282.231115
 20
17.042558
 30
0.0
 11
282.334311
 21
16.647231
 31
0.0
  0
LINE
  5
138
100
AcDbEntity
  8
full3
 62
5
100
AcDbLine
 10
282.334311
 20
16.647231
 30
0.0
 11
282.351404
 21
16.242094
 31
0.0
  0
LINE
  5
139
100
AcDbEntity
  8
full3
 62
5
100
AcDbLine
 10
282.351404
 20
16.242094
 30
0.0
 11
282.292899
 21
15.837057
 31
0.0
  0
LINE
  5
13a
100
AcDbEntity
  8
full3
 62
5
100
AcDbLine
 10
282.292899
 20
15.837057
 30
0.0
 11
282.159385
 21
15.452547
 31
0.0
  0
LINE
  5
13b
100
AcDbEntity
  8
full3
 62
5
100
AcDbLine
 10
282.159385
 20
15.452547
 30
0.0
 11
281.946993
 21
15.096846
 31
0.0
  0
LINE
  5
13c
100
AcDbEntity
  8
full3
 62
5
100
AcDbLine
 10
281.946993
 20
15.096846
 30
0.0
 11
281.678948
 21
14.795865
 31
0.0
  0
LINE
  5
13d
100
AcDbEntity
  8
full3
 62
5
100
AcDbLine
 10
281.678948
 20
14.795865
 30
0.0
 11
281.349178
 21
14.551816
 31
0.0
  0
LINE
  5
13e
100
AcDbEntity
  8
full3
 62
5
100
AcDbLine
 10
281.349178
 20
14.551816
 30
0.0
 11
280.982532
 21
14.376253
 31
0.0
  0
LINE
  5
13f
100
AcDbEntity
  8
full3
 62
5
100
AcDbLine
 10
280.982532
 20
14.376253
 30
0.0
 11
280.587290
 21
14.273035
 31
0.0
  0
LINE
  5
140
100
AcDbEntity
  8
full3
 62
5
100
AcDbLine
 10
280.587290
 20
14.273035
 30
0.0
 11
280.180019
 21
14.249858
 31
0.0
  0
LINE
  5
141
100
AcDbEntity
  8
full3
 62
5
100
AcDbLine
 10
280.180019
 20
14.249858
 30
0.0
 11
279.775071
 21
14.308375
 31
0.0
  0
LINE
  5
142
100
AcDbEntity
  8
full3
 62
5
100
AcDbLine
 10
279.775071
 20
14.308375
 30
0.0
 11
279.390643
 21
14.441919
 31
0.0
  0
LINE
  5
143
100
AcDbEntity
  8
full3
 62
5
100
AcDbLine
 10
279.390643
 20
14.441919
 30
0.0
 11
279.035020
 21
14.654356
 31
0.0
  0
LINE
  5
144
100
AcDbEntity
  8
full3
 62
5
100
AcDbLine
 10
279.035020
 20
14.654356
 30
0.0
 11
278.736317
 21
14.928531
 31
0.0
  0
LINE
  5
145
100
AcDbEntity
  8
full3
 62
5
100
AcDbLine
 10
278.736317
 20
14.928531
 30
0.0
 11
278.490108
 21
15.252301
 31
0.0
  0
LINE
  5
146
100
AcDbEntity
  8
full3
 62
5
100
AcDbLine
 10
278.490108
 20
15.252301
 30
0.0
 11
278.314584
 21
15.619027
 31
0.0
  0
LINE
  5
147
100
AcDbEntity
  8
full3
 62
5
100
AcDbLine
 10
278.314584
 20
15.619027
 30
0.0
 11
278.213601
 21
16.020415
 31
0.0
  0
LINE
  5
148
100
AcDbEntity
  8
full3
 62
5
100
AcDbLine
 10
278.213601
 20
16.020415
 30
0.0
 11
278.190438
 21
16.427775
 31
0.0
  0
LINE
  5
149
100
AcDbEntity
  8
full3
 62
5
100
AcDbLine
 10
278.190438
 20
16.427775
 30
0.0
 11
278.248933
 21
16.832812
 31
0.0
  0
LINE
  5
14a
100
AcDbEntity
  8
full3
 62
5
100
AcDbLine
 10
278.248933
 20
16.832812
 30
0.0
 11
278.382448
 21
17.217322
 31
0.0
  0
LINE
  5
14b
100
AcDbEntity
  8
full3
 62
5
100
AcDbLine
 10
278.382448
 20
17.217322
 30
0.0
 11
278.592616
 21
17.566952
 31
0.0
  0
LINE
  5
14c
100
AcDbEntity
  8
full3
 62
5
100
AcDbLine
 10
278.592616
 20
17.566952
 30
0.0
 11
278.862875
 21
17.874004
 31
0.0
  0
LINE
  5
14d
100
AcDbEntity
  8
full3
 62
5
100
AcDbLine
 10
278.862875
 20
17.874004
 30
0.0
 11
279.192644
 21
18.118053
 31
0.0
  0
LINE
  5
14e
100
AcDbEntity
  8
full3
 62
5
100
AcDbLine
 10
279.192644
 20
18.118053
 30
0.0
 11
279.559291
 21
18.293616
 31
0.0
  0
LINE
  5
14f
100
AcDbEntity
  8
full3
 62
5
100
AcDbLine
 10
279.559291
 20
18.293616
 30
0.0
 11
279.960592
 21
18.394621
 31
0.0
  0
LINE
  5
150
100
AcDbEntity
  8
full3
 62
5
100
AcDbLine
 10
279.960592
 20
18.394621
 30
0.0
 11
280.365650
 21
18.411717
 31
0.0
  0
LINE
  5
151
100
AcDbEntity
  8
full3
 62
5
100
AcDbLine
 10
280.365650
 20
18.411717
 30
0.0
 11
280.770599
 21
18.353210
 31
0.0
  0
LINE
  5
152
100
AcDbEntity
  8
full3
 62
5
100
AcDbLine
 10
280.770599
 20
18.353210
 30
0.0
 11
281.155026
 21
18.219666
 31
0.0
  0
LINE
  5
153
100
AcDbEntity
  8
full3
 62
5
100
AcDbLine
 10
281.155026
 20
18.219666
 30
0.0
 11
281.155046
 21
18.219656
 31
0.0
  0
LINE
  5
154
100
AcDbEntity
  8
full3
 62
5
100
AcDbLine
 10
281.155046
 20
18.219656
 30
0.0
 11
281.155046
 21
18.219656
 31
0.0
  0
LINE
  5
155
100
AcDbEntity
  8
full3
 62
7
100
AcDbLine
 10
105.281015
 20
171.490324
 30
0.0
 11
105.281015
 21
146.169297
 31
0.0
  0
LINE
  5
156
100
AcDbEntity
  8
full3
 62
7
100
AcDbLine
 10
105.281015
 20
146.169297
 30
0.0
 11
105.281015
 21
147.965215
 31
0.0
  0
LINE
  5
157
100
AcDbEntity
  8
full3
 62
7
100
AcDbLine
 10
105.281015
 20
147.965215
 30
0.0
 11
105.281015
 21
149.711678
 31
0.0
  0
LINE
  5
158
100
AcDbEntity
  8
full3
 62
7
100
AcDbLine
 10
105.281015
 20
149.711678
 30
0.0
 11
105.281015
 21
151.391280
 31
0.0
  0
LINE
  5
159
100
AcDbEntity
  8
full3
 62
7
100
AcDbLine
 10
105.281015
 20
151.391280
 30
0.0
 11
105.281015
 21
152.987292
 31
0.0
  0
LINE
  5
15a
100
AcDbEntity
  8
full3
 62
7
100
AcDbLine
 10
105.281015
 20
152.987292
 30
0.0
 11
105.281015
 21
154.483785
 31
0.0
  0
LINE
  5
15b
100
AcDbEntity
  8
full3
 62
7
100
AcDbLine
 10
105.281015
 20
154.483785
 30
0.0
 11
105.281015
 21
155.865854
 31
0.0
  0
LINE
  5
15c
100
AcDbEntity
  8
full3
 62
7
100
AcDbLine
 10
105.281015
 20
155.865854
 30
0.0
 11
105.281015
 21
157.119744
 31
0.0
  0
LINE
  5
15d
100
AcDbEntity
  8
full3
 62
7
100
AcDbLine
 10
105.281015
 20
157.119744
 30
0.0
 11
105.281015
 21
158.232872
 31
0.0
  0
LINE
  5
15e
100
AcDbEntity
  8
full3
 62
7
100
AcDbLine
 10
105.281015
 20
158.232872
 30
0.0
 11
105.281015
 21
159.194273
 31
0.0
  0
LINE
  5
15f
100
AcDbEntity
  8
full3
 62
7
100
AcDbLine
 10
105.281015
 20
159.194273
 30
0.0
 11
105.281015
 21
159.994278
 31
0.0
  0
LINE
  5
160
100
AcDbEntity
  8
full3
 62
7
100
AcDbLine
 10
105.281015
 20
159.994278
 30
0.0
 11
105.281015
 21
160.624911
 31
0.0
  0
LINE
  5
161
100
AcDbEntity
  8
full3
 62
7
100
AcDbLine
 10
105.281015
 20
160.624911
 30
0.0
 11
105.281015
 21
161.079892
 31
0.0
  0
LINE
  5
162
100
AcDbEntity
  8
full3
 62
7
100
AcDbLine
 10
105.281015
 20
161.079892
 30
0.0
 11
105.281015
 21
161.354735
 31
0.0
  0
LINE
  5
163
100
AcDbEntity
  8
full3
 62
7
100
AcDbLine
 10
105.281015
 20
161.354735
 30
0.0
 11
105.281015
 21
161.446649
 31
0.0
  0
LINE
  5
164
100
AcDbEntity
  8
full3
 62
7
100
AcDbLine
 10
105.281015
 20
161.446649
 30
0.0
 11
105.281015
 21
161.354735
 31
0.0
  0
LINE
  5
165
100
AcDbEntity
  8
full3
 62
7
100
AcDbLine
 10
105.281015
 20
161.354735
 30
0.0
 11
105.281015
 21
161.079892
 31
0.0
  0
LINE
  5
166
100
AcDbEntity
  8
full3
 62
7
100
AcDbLine
 10
105.281015
 20
161.079892
 30
0.0
 11
105.281015
 21
160.624911
 31
0.0
  0
LINE
  5
167
100
AcDbEntity
  8
full3
 62
7
100
AcDbLine
 10
105.281015
 20
160.624911
 30
0.0
 11
105.281015
 21
159.994278
 31
0.0
  0
LINE
  5
168
100
AcDbEntity
  8
full3
 62
7
100
AcDbLine
 10
105.281015
 20
159.994278
 30
0.0
 11
105.281015
 21
159.194273
 31
0.0
  0
LINE
  5
169
100
AcDbEntity
  8
full3
 62
7
100
AcDbLine
 10
105.281015
 20
159.194273
 30
0.0
 11
105.281015
 21
158.232872
 31
0.0
  0
LINE
  5
16a
100
AcDbEntity
  8
full3
 62
7
100
AcDbLine
 10
105.281015
 20
158.232872
 30
0.0
 11
105.281015
 21
157.119744
 31
0.0
  0
LINE
  5
16b
100
AcDbEntity
  8
full3
 62
7
100
AcDbLine
 10
105.281015
 20
157.119744
 30
0.0
 11
105.281015
 21
155.865854
 31
0.0
  0
LINE
  5
16c
100
AcDbEntity
  8
full3
 62
7
100
AcDbLine
 10
105.281015
 20
155.865854
 30
0.0
 11
105.281015
 21
154.483785
 31
0.0
  0
LINE
  5
16d
100
AcDbEntity
  8
full3
 62
7
100
AcDbLine
 10
105.281015
 20
154.483785
 30
0.0
 11
105.281015
 21
152.987292
 31
0.0
  0
LINE
  5
16e
100
AcDbEntity
  8
full3
 62
7
100
AcDbLine
 10
105.281015
 20
152.987292
 30
0.0
 11
105.281015
 21
151.391280
 31
0.0
  0
LINE
  5
16f
100
AcDbEntity
  8
full3
 62
7
100
AcDbLine
 10
105.281015
 20
151.391280
 30
0.0
 11
105.281015
 21
149.711678
 31
0.0
  0
LINE
  5
170
100
AcDbEntity
  8
full3
 62
7
100
AcDbLine
 10
105.281015
 20
149.711678
 30
0.0
 11
105.281015
 21
147.965215
 31
0.0
  0
LINE
  5
171
100
AcDbEntity
  8
full3
 62
7
100
AcDbLine
 10
105.281015
 20
147.965215
 30
0.0
 11
105.281015
 21
146.169297
 31
0.0
  0
LINE
  5
172
100
AcDbEntity
  8
full3
 62
7
100
AcDbLine
 10
105.281015
 20
146.169297
 30
0.0
 11
54.649962
 21
146.169297
 31
0.0
  0
SPLINE
  5
173
100
AcDbEntity
  8
full3
 62
7
100
AcDbSpline
 70
8
 71
3
 72
8
 73
4
 74
0
 40
0
 40
0
 40
0
 40
0
 40
1
 40
1
 40
1
 40
1
 10
79.965489
 20
146.169297
 30
0.0
 10
79.887374
 20
146.169297
 30
0.0
 10
79.809260
 20
146.169297
 30
0.0
 10
79.731146
 20
146.169297
 30
0.0
  0
SPLINE
  5
174
100
AcDbEntity
  8
full3
 62
7
100
AcDbSpline
 70
8
 71
3
 72
8
 73
4
 74
0
 40
0
 40
0
 40
0
 40
0
 40
1
 40
1
 40
1
 40
1
 10
79.731146
 20
146.169297
 30
0.0
 10
79.575786
 20
146.169297
 30
0.0
 10
79.423474
 20
146.169297
 30
0.0
 10
79.274209
 20
146.169297
 30
0.0
  0
SPLINE
  5
175
100
AcDbEntity
  8
full3
 62
7
100
AcDbSpline
 70
8
 71
3
 72
8
 73
4
 74
0
 40
0
 40
0
 40
0
 40
0
 40
1
 40
1
 40
1
 40
1
 10
79.274209
 20
146.169297
 30
0.0
 10
79.201927
 20
146.169297
 30
0.0
 10
79.129645
 20
146.169297
 30
0.0
 10
79.057363
 20
146.169297
 30
0.0
  0
SPLINE
  5
176
100
AcDbEntity
  8
full3
 62
7
100
AcDbSpline
 70
8
 71
3
 72
8
 73
4
 74
0
 40
0
 40
0
 40
0
 40
0
 40
1
 40
1
 40
1
 40
1
 10
79.057363
 20
146.169297
 30
0.0
 10
78.988889
 20
146.169297
 30
0.0
 10
78.920413
 20
146.169297
 30
0.0
 10
78.851934
 20
146.169297
 30
0.0
  0
SPLINE
  5
177
100
AcDbEntity
  8
full3
 62
7
100
AcDbSpline
 70
8
 71
3
 72
8
 73
4
 74
0
 40
0
 40
0
 40
0
 40
0
 40
1
 40
1
 40
1
 40
1
 10
78.851934
 20
146.169297
 30
0.0
 10
78.788127
 20
146.169297
 30
0.0
 10
78.724320
 20
146.169297
 30
0.0
 10
78.660513
 20
146.169297
 30
0.0
  0
SPLINE
  5
178
100
AcDbEntity
  8
full3
 62
7
100
AcDbSpline
 70
8
 71
3
 72
8
 73
4
 74
0
 40
0
 40
0
 40
0
 40
0
 40
1
 40
1
 40
1
 40
1
 10
78.660513
 20
146.169297
 30
0.0
 10
78.602175
 20
146.169297
 30
0.0
 10
78.543839
 20
146.169297
 30
0.0
 10
78.485507
 20
146.169297
 30
0.0
  0
SPLINE
  5
179
100
AcDbEntity
  8
full3
 62
7
100
AcDbSpline
 70
8
 71
3
 72
8
 73
4
 74
0
 40
0
 40
0
 40
0
 40
0
 40
1
 40
1
 40
1
 40
1
 10
78.485507
 20
146.169297
 30
0.0
 10
78.433368
 20
146.169297
 30
0.0
 10
78.381232
 20
146.169297
 30
0.0
 10
78.329099
 20
146.169297
 30
0.0
  0
SPLINE
  5
17a
100
AcDbEntity
  8
full3
 62
7
100
AcDbSpline
 70
8
 71
3
 72
8
 73
4
 74
0
 40
0
 40
0
 40
0
 40
0
 40
1
 40
1
 40
1
 40
1
 10
78.329099
 20
146.169297
 30
0.0
 10
78.283830
 20
146.169297
 30
0.0
 10
78.238558
 20
146.169297
 30
0.0
 10
78.193282
 20
146.169297
 30
0.0
  0
SPLINE
  5
17b
100
AcDbEntity
  8
full3
 62
7
100
AcDbSpline
 70
8
 71
3
 72
8
 73
4
 74
0
 40
0
 40
0
 40
0
 40
0
 40
1
 40
1
 40
1
 40
1
 10
78.193282
 20
146.169297
 30
0.0
 10
78.155435
 20
146.169297
 30
0.0
 10
78.117592
 20
146.169297
 30
0.0
 10
78.079751
 20
146.169297
 30
0.0
  0
SPLINE
  5
17c
100
AcDbEntity
  8
full3
 62
7
100
AcDbSpline
 70
8
 71
3
 72
8
 73
4
 74
0
 40
0
 40
0
 40
0
 40
0
 40
1
 40
1
 40
1
 40
1
 10
78.079751
 20
146.169297
 30
0.0
 10
78.049811
 20
146.169297
 30
0.0
 10
78.019871
 20
146.169297
 30
0.0
 10
77.989931
 20
146.169297
 30
0.0
  0
SPLINE
  5
17d
100
AcDbEntity
  8
full3
 62
7
100
AcDbSpline
 70
8
 71
3
 72
8
 73
4
 74
0
 40
0
 40
0
 40
0
 40
0
 40
1
 40
1
 40
1
 40
1
 10
77.989931
 20
146.169297
 30
0.0
 10
77.968270
 20
146.169297
 30
0.0
 10
77.946608
 20
146.169297
 30
0.0
 10
77.924948
 20
146.169297
 30
0.0
  0
SPLINE
  5
17e
100
AcDbEntity
  8
full3
 62
7
100
AcDbSpline
 70
8
 71
3
 72
8
 73
4
 74
0
 40
0
 40
0
 40
0
 40
0
 40
1
 40
1
 40
1
 40
1
 10
77.924948
 20
146.169297
 30
0.0
 10
77.911844
 20
146.169297
 30
0.0
 10
77.898738
 20
146.169297
 30
0.0
 10
77.885629
 20
146.169297
 30
0.0
  0
SPLINE
  5
17f
100
AcDbEntity
  8
full3
 62
7
100
AcDbSpline
 70
8
 71
3
 72
8
 73
4
 74
0
 40
0
 40
0
 40
0
 40
0
 40
1
 40
1
 40
1
 40
1
 10
77.885629
 20
146.169297
 30
0.0
 10
77.881243
 20
146.169297
 30
0.0
 10
77.876858
 20
146.169297
 30
0.0
 10
77.872473
 20
146.169297
 30
0.0
  0
LINE
  5
180
100
AcDbEntity
  8
full3
 62
7
100
AcDbLine
 10
77.872473
 20
146.169297
 30
0.0
 11
77.924948
 21
146.169297
 31
0.0
  0
LINE
  5
181
100
AcDbEntity
  8
full3
 62
7
100
AcDbLine
 10
77.924948
 20
146.169297
 30
0.0
 11
78.079751
 21
146.169297
 31
0.0
  0
LINE
  5
182
100
AcDbEntity
  8
full3
 62
7
100
AcDbLine
 10
78.079751
 20
146.169297
 30
0.0
 11
78.329099
 21
146.169297
 31
0.0
  0
LINE
  5
183
100
AcDbEntity
  8
full3
 62
7
100
AcDbLine
 10
78.329099
 20
146.169297
 30
0.0
 11
78.660513
 21
146.169297
 31
0.0
  0
LINE
  5
184
100
AcDbEntity
  8
full3
 62
7
100
AcDbLine
 10
78.660513
 20
146.169297
 30
0.0
 11
79.057363
 21
146.169297
 31
0.0
  0
LINE
  5
185
100
AcDbEntity
  8
full3
 62
7
100
AcDbLine
 10
79.057363
 20
146.169297
 30
0.0
 11
79.499749
 21
146.169297
 31
0.0
  0
LINE
  5
186
100
AcDbEntity
  8
full3
 62
7
100
AcDbLine
 10
79.499749
 20
146.169297
 30
0.0
 11
79.965489
 21
146.169297
 31
0.0
  0
LINE
  5
187
100
AcDbEntity
  8
full3
 62
7
100
AcDbLine
 10
79.965489
 20
146.169297
 30
0.0
 11
80.431229
 21
146.169297
 31
0.0
  0
LINE
  5
188
100
AcDbEntity
  8
full3
 62
7
100
AcDbLine
 10
80.431229
 20
146.169297
 30
0.0
 11
80.873614
 21
146.169297
 31
0.0
  0
LINE
  5
189
100
AcDbEntity
  8
full3
 62
7
100
AcDbLine
 10
80.873614
 20
146.169297
 30
0.0
 11
81.270464
 21
146.169297
 31
0.0
  0
LINE
  5
18a
100
AcDbEntity
  8
full3
 62
7
100
AcDbLine
 10
81.270464
 20
146.169297
 30
0.0
 11
81.601878
 21
146.169297
 31
0.0
  0
LINE
  5
18b
100
AcDbEntity
  8
full3
 62
7
100
AcDbLine
 10
81.601878
 20
146.169297
 30
0.0
 11
81.851226
 21
146.169297
 31
0.0
  0
LINE
  5
18c
100
AcDbEntity
  8
full3
 62
7
100
AcDbLine
 10
81.851226
 20
146.169297
 30
0.0
 11
82.006030
 21
146.169297
 31
0.0
  0
LINE
  5
18d
100
AcDbEntity
  8
full3
 62
7
100
AcDbLine
 10
82.006030
 20
146.169297
 30
0.0
 11
82.058505
 21
146.169297
 31
0.0
  0
SPLINE
  5
18e
100
AcDbEntity
  8
full3
 62
7
100
AcDbSpline
 70
8
 71
3
 72
8
 73
4
 74
0
 40
0
 40
0
 40
0
 40
0
 40
1
 40
1
 40
1
 40
1
 10
82.058505
 20
146.169297
 30
0.0
 10
82.054119
 20
146.169297
 30
0.0
 10
82.049734
 20
146.169297
 30
0.0
 10
82.045348
 20
146.169297
 30
0.0
  0
SPLINE
  5
18f
100
AcDbEntity
  8
full3
 62
7
100
AcDbSpline
 70
8
 71
3
 72
8
 73
4
 74
0
 40
0
 40
0
 40
0
 40
0
 40
1
 40
1
 40
1
 40
1
 10
82.045348
 20
146.169297
 30
0.0
 10
82.032239
 20
146.169297
 30
0.0
 10
82.019133
 20
146.169297
 30
0.0
 10
82.006030
 20
146.169297
 30
0.0
  0
SPLINE
  5
190
100
AcDbEntity
  8
full3
 62
7
100
AcDbSpline
 70
8
 71
3
 72
8
 73
4
 74
0
 40
0
 40
0
 40
0
 40
0
 40
1
 40
1
 40
1
 40
1
 10
82.006030
 20
146.169297
 30
0.0
 10
81.984369
 20
146.169297
 30
0.0
 10
81.962707
 20
146.169297
 30
0.0
 10
81.941047
 20
146.169297
 30
0.0
  0
SPLINE
  5
191
100
AcDbEntity
  8
full3
 62
7
100
AcDbSpline
 70
8
 71
3
 72
8
 73
4
 74
0
 40
0
 40
0
 40
0
 40
0
 40
1
 40
1
 40
1
 40
1
 10
81.941047
 20
146.169297
 30
0.0
 10
81.911106
 20
146.169297
 30
0.0
 10
81.881166
 20
146.169297
 30
0.0
 10
81.851226
 20
146.169297
 30
0.0
  0
SPLINE
  5
192
100
AcDbEntity
  8
full3
 62
7
100
AcDbSpline
 70
8
 71
3
 72
8
 73
4
 74
0
 40
0
 40
0
 40
0
 40
0
 40
1
 40
1
 40
1
 40
1
 10
81.851226
 20
146.169297
 30
0.0
 10
81.813385
 20
146.169297
 30
0.0
 10
81.775542
 20
146.169297
 30
0.0
 10
81.737695
 20
146.169297
 30
0.0
  0
SPLINE
  5
193
100
AcDbEntity
  8
full3
 62
7
100
AcDbSpline
 70
8
 71
3
 72
8
 73
4
 74
0
 40
0
 40
0
 40
0
 40
0
 40
1
 40
1
 40
1
 40
1
 10
81.737695
 20
146.169297
 30
0.0
 10
81.692419
 20
146.169297
 30
0.0
 10
81.647147
 20
146.169297
 30
0.0
 10
81.601878
 20
146.169297
 30
0.0
  0
SPLINE
  5
194
100
AcDbEntity
  8
full3
 62
7
100
AcDbSpline
 70
8
 71
3
 72
8
 73
4
 74
0
 40
0
 40
0
 40
0
 40
0
 40
1
 40
1
 40
1
 40
1
 10
81.601878
 20
146.169297
 30
0.0
 10
81.549745
 20
146.169297
 30
0.0
 10
81.497609
 20
146.169297
 30
0.0
 10
81.445470
 20
146.169297
 30
0.0
  0
SPLINE
  5
195
100
AcDbEntity
  8
full3
 62
7
100
AcDbSpline
 70
8
 71
3
 72
8
 73
4
 74
0
 40
0
 40
0
 40
0
 40
0
 40
1
 40
1
 40
1
 40
1
 10
81.445470
 20
146.169297
 30
0.0
 10
81.387138
 20
146.169297
 30
0.0
 10
81.328803
 20
146.169297
 30
0.0
 10
81.270464
 20
146.169297
 30
0.0
  0
SPLINE
  5
196
100
AcDbEntity
  8
full3
 62
7
100
AcDbSpline
 70
8
 71
3
 72
8
 73
4
 74
0
 40
0
 40
0
 40
0
 40
0
 40
1
 40
1
 40
1
 40
1
 10
81.270464
 20
146.169297
 30
0.0
 10
81.206657
 20
146.169297
 30
0.0
 10
81.142850
 20
146.169297
 30
0.0
 10
81.079043
 20
146.169297
 30
0.0
  0
SPLINE
  5
197
100
AcDbEntity
  8
full3
 62
7
100
AcDbSpline
 70
8
 71
3
 72
8
 73
4
 74
0
 40
0
 40
0
 40
0
 40
0
 40
1
 40
1
 40
1
 40
1
 10
81.079043
 20
146.169297
 30
0.0
 10
81.010564
 20
146.169297
 30
0.0
 10
80.942089
 20
146.169297
 30
0.0
 10
80.873614
 20
146.169297
 30
0.0
  0
SPLINE
  5
198
100
AcDbEntity
  8
full3
 62
7
100
AcDbSpline
 70
8
 71
3
 72
8
 73
4
 74
0
 40
0
 40
0
 40
0
 40
0
 40
1
 40
1
 40
1
 40
1
 10
80.873614
 20
146.169297
 30
0.0
 10
80.801332
 20
146.169297
 30
0.0
 10
80.729050
 20
146.169297
 30
0.0
 10
80.656768
 20
146.169297
 30
0.0
  0
SPLINE
  5
199
100
AcDbEntity
  8
full3
 62
7
100
AcDbSpline
 70
8
 71
3
 72
8
 73
4
 74
0
 40
0
 40
0
 40
0
 40
0
 40
1
 40
1
 40
1
 40
1
 10
80.656768
 20
146.169297
 30
0.0
 10
80.581588
 20
146.169297
 30
0.0
 10
80.506408
 20
146.169297
 30
0.0
 10
80.431229
 20
146.169297
 30
0.0
  0
SPLINE
  5
19a
100
AcDbEntity
  8
full3
 62
7
100
AcDbSpline
 70
8
 71
3
 72
8
 73
4
 74
0
 40
0
 40
0
 40
0
 40
0
 40
1
 40
1
 40
1
 40
1
 10
80.431229
 20
146.169297
 30
0.0
 10
80.277515
 20
146.169297
 30
0.0
 10
80.122269
 20
146.169297
 30
0.0
 10
79.965489
 20
146.169297
 30
0.0
  0
LINE
  5
19b
100
AcDbEntity
  8
full3
 62
7
100
AcDbLine
 10
54.649962
 20
171.490324
 30
0.0
 11
54.649962
 21
146.169297
 31
0.0
  0
LINE
  5
19c
100
AcDbEntity
  8
full3
 62
7
100
AcDbLine
 10
54.649962
 20
146.169297
 30
0.0
 11
54.649962
 21
147.965215
 31
0.0
  0
LINE
  5
19d
100
AcDbEntity
  8
full3
 62
7
100
AcDbLine
 10
54.649962
 20
147.965215
 30
0.0
 11
54.649962
 21
149.711678
 31
0.0
  0
LINE
  5
19e
100
AcDbEntity
  8
full3
 62
7
100
AcDbLine
 10
54.649962
 20
149.711678
 30
0.0
 11
54.649962
 21
151.391280
 31
0.0
  0
LINE
  5
19f
100
AcDbEntity
  8
full3
 62
7
100
AcDbLine
 10
54.649962
 20
151.391280
 30
0.0
 11
54.649962
 21
152.987292
 31
0.0
  0
LINE
  5
1a0
100
AcDbEntity
  8
full3
 62
7
100
AcDbLine
 10
54.649962
 20
152.987292
 30
0.0
 11
54.649962
 21
154.483785
 31
0.0
  0
LINE
  5
1a1
100
AcDbEntity
  8
full3
 62
7
100
AcDbLine
 10
54.649962
 20
154.483785
 30
0.0
 11
54.649962
 21
155.865854
 31
0.0
  0
LINE
  5
1a2
100
AcDbEntity
  8
full3
 62
7
100
AcDbLine
 10
54.649962
 20
155.865854
 30
0.0
 11
54.649962
 21
157.119744
 31
0.0
  0
LINE
  5
1a3
100
AcDbEntity
  8
full3
 62
7
100
AcDbLine
 10
54.649962
 20
157.119744
 30
0.0
 11
54.649962
 21
158.232872
 31
0.0
  0
LINE
  5
1a4
100
AcDbEntity
  8
full3
 62
7
100
AcDbLine
 10
54.649962
 20
158.232872
 30
0.0
 11
54.649962
 21
159.194273
 31
0.0
  0
LINE
  5
1a5
100
AcDbEntity
  8
full3
 62
7
100
AcDbLine
 10
54.649962
 20
159.194273
 30
0.0
 11
54.649962
 21
159.994278
 31
0.0
  0
LINE
  5
1a6
100
AcDbEntity
  8
full3
 62
7
100
AcDbLine
 10
54.649962
 20
159.994278
 30
0.0
 11
54.649962
 21
160.624911
 31
0.0
  0
LINE
  5
1a7
100
AcDbEntity
  8
full3
 62
7
100
AcDbLine
 10
54.649962
 20
160.624911
 30
0.0
 11
54.649962
 21
161.079892
 31
0.0
  0
LINE
  5
1a8
100
AcDbEntity
  8
full3
 62
7
100
AcDbLine
 10
54.649962
 20
161.079892
 30
0.0
 11
54.649962
 21
161.354735
 31
0.0
  0
LINE
  5
1a9
100
AcDbEntity
  8
full3
 62
7
100
AcDbLine
 10
54.649962
 20
161.354735
 30
0.0
 11
54.649962
 21
161.446649
 31
0.0
  0
LINE
  5
1aa
100
AcDbEntity
  8
full3
 62
7
100
AcDbLine
 10
54.649962
 20
161.446649
 30
0.0
 11
54.649962
 21
161.354735
 31
0.0
  0
LINE
  5
1ab
100
AcDbEntity
  8
full3
 62
7
100
AcDbLine
 10
54.649962
 20
161.354735
 30
0.0
 11
54.649962
 21
161.079892
 31
0.0
  0
LINE
  5
1ac
100
AcDbEntity
  8
full3
 62
7
100
AcDbLine
 10
54.649962
 20
161.079892
 30
0.0
 11
54.649962
 21
160.624911
 31
0.0
  0
LINE
  5
1ad
100
AcDbEntity
  8
full3
 62
7
100
AcDbLine
 10
54.649962
 20
160.624911
 30
0.0
 11
54.649962
 21
159.994278
 31
0.0
  0
LINE
  5
1ae
100
AcDbEntity
  8
full3
 62
7
100
AcDbLine
 10
54.649962
 20
159.994278
 30
0.0
 11
54.649962
 21
159.194273
 31
0.0
  0
LINE
  5
1af
100
AcDbEntity
  8
full3
 62
7
100
AcDbLine
 10
54.649962
 20
159.194273
 30
0.0
 11
54.649962
 21
158.232872
 31
0.0
  0
LINE
  5
1b0
100
AcDbEntity
  8
full3
 62
7
100
AcDbLine
 10
54.649962
 20
158.232872
 30
0.0
 11
54.649962
 21
157.119744
 31
0.0
  0
LINE
  5
1b1
100
AcDbEntity
  8
full3
 62
7
100
AcDbLine
 10
54.649962
 20
157.119744
 30
0.0
 11
54.649962
 21
155.865854
 31
0.0
  0
LINE
  5
1b2
100
AcDbEntity
  8
full3
 62
7
100
AcDbLine
 10
54.649962
 20
155.865854
 30
0.0
 11
54.649962
 21
154.483785
 31
0.0
  0
LINE
  5
1b3
100
AcDbEntity
  8
full3
 62
7
100
AcDbLine
 10
54.649962
 20
154.483785
 30
0.0
 11
54.649962
 21
152.987292
 31
0.0
  0
LINE
  5
1b4
100
AcDbEntity
  8
full3
 62
7
100
AcDbLine
 10
54.649962
 20
152.987292
 30
0.0
 11
54.649962
 21
151.391280
 31
0.0
  0
LINE
  5
1b5
100
AcDbEntity
  8
full3
 62
7
100
AcDbLine
 10
54.649962
 20
151.391280
 30
0.0
 11
54.649962
 21
149.711678
 31
0.0
  0
LINE
  5
1b6
100
AcDbEntity
  8
full3
 62
7
100
AcDbLine
 10
54.649962
 20
149.711678
 30
0.0
 11
54.649962
 21
147.965215
 31
0.0
  0
LINE
  5
1b7
100
AcDbEntity
  8
full3
 62
7
100
AcDbLine
 10
54.649962
 20
147.965215
 30
0.0
 11
54.649962
 21
146.169297
 31
0.0
  0
LINE
  5
1b8
100
AcDbEntity
  8
full3
 62
7
100
AcDbLine
 10
105.281015
 20
171.490324
 30
0.0
 11
82.137690
 21
171.490324
 31
0.0
  0
LINE
  5
1b9
100
AcDbEntity
  8
full3
 62
7
100
AcDbLine
 10
82.137690
 20
171.490324
 30
0.0
 11
82.489088
 21
171.490324
 31
0.0
  0
LINE
  5
1ba
100
AcDbEntity
  8
full3
 62
7
100
AcDbLine
 10
82.489088
 20
171.490324
 30
0.0
 11
82.824359
 21
171.490324
 31
0.0
  0
LINE
  5
1bb
100
AcDbEntity
  8
full3
 62
7
100
AcDbLine
 10
82.824359
 20
171.490324
 30
0.0
 11
83.141341
 21
171.490324
 31
0.0
  0
LINE
  5
1bc
100
AcDbEntity
  8
full3
 62
7
100
AcDbLine
 10
83.141341
 20
171.490324
 30
0.0
 11
83.438021
 21
171.490324
 31
0.0
  0
LINE
  5
1bd
100
AcDbEntity
  8
full3
 62
7
100
AcDbLine
 10
83.438021
 20
171.490324
 30
0.0
 11
83.712505
 21
171.490324
 31
0.0
  0
LINE
  5
1be
100
AcDbEntity
  8
full3
 62
7
100
AcDbLine
 10
83.712505
 20
171.490324
 30
0.0
 11
83.963020
 21
171.490324
 31
0.0
  0
LINE
  5
1bf
100
AcDbEntity
  8
full3
 62
7
100
AcDbLine
 10
83.963020
 20
171.490324
 30
0.0
 11
84.187979
 21
171.490324
 31
0.0
  0
LINE
  5
1c0
100
AcDbEntity
  8
full3
 62
7
100
AcDbLine
 10
84.187979
 20
171.490324
 30
0.0
 11
84.385938
 21
171.490324
 31
0.0
  0
LINE
  5
1c1
100
AcDbEntity
  8
full3
 62
7
100
AcDbLine
 10
84.385938
 20
171.490324
 30
0.0
 11
84.555642
 21
171.490324
 31
0.0
  0
LINE
  5
1c2
100
AcDbEntity
  8
full3
 62
7
100
AcDbLine
 10
84.555642
 20
171.490324
 30
0.0
 11
84.695984
 21
171.490324
 31
0.0
  0
LINE
  5
1c3
100
AcDbEntity
  8
full3
 62
7
100
AcDbLine
 10
84.695984
 20
171.490324
 30
0.0
 11
84.806086
 21
171.490324
 31
0.0
  0
LINE
  5
1c4
100
AcDbEntity
  8
full3
 62
7
100
AcDbLine
 10
84.806086
 20
171.490324
 30
0.0
 11
84.885232
 21
171.490324
 31
0.0
  0
LINE
  5
1c5
100
AcDbEntity
  8
full3
 62
7
100
AcDbLine
 10
84.885232
 20
171.490324
 30
0.0
 11
84.932933
 21
171.490324
 31
0.0
  0
LINE
  5
1c6
100
AcDbEntity
  8
full3
 62
7
100
AcDbLine
 10
84.932933
 20
171.490324
 30
0.0
 11
84.948860
 21
171.490324
 31
0.0
  0
SPLINE
  5
1c7
100
AcDbEntity
  8
full3
 62
7
100
AcDbSpline
 70
8
 71
3
 72
8
 73
4
 74
0
 40
0
 40
0
 40
0
 40
0
 40
1
 40
1
 40
1
 40
1
 10
84.948860
 20
171.490324
 30
0.0
 10
84.938415
 20
171.490324
 30
0.0
 10
84.927970
 20
171.490324
 30
0.0
 10
84.917524
 20
171.490324
 30
0.0
  0
SPLINE
  5
1c8
100
AcDbEntity
  8
full3
 62
7
100
AcDbSpline
 70
8
 71
3
 72
8
 73
4
 74
0
 40
0
 40
0
 40
0
 40
0
 40
1
 40
1
 40
1
 40
1
 10
84.917524
 20
171.490324
 30
0.0
 10
84.886322
 20
171.490324
 30
0.0
 10
84.855120
 20
171.490324
 30
0.0
 10
84.823917
 20
171.490324
 30
0.0
  0
SPLINE
  5
1c9
100
AcDbEntity
  8
full3
 62
7
100
AcDbSpline
 70
8
 71
3
 72
8
 73
4
 74
0
 40
0
 40
0
 40
0
 40
0
 40
1
 40
1
 40
1
 40
1
 10
84.823917
 20
171.490324
 30
0.0
 10
84.772349
 20
171.490324
 30
0.0
 10
84.720781
 20
171.490324
 30
0.0
 10
84.669213
 20
171.490324
 30
0.0
  0
SPLINE
  5
1ca
100
AcDbEntity
  8
full3
 62
7
100
AcDbSpline
 70
8
 71
3
 72
8
 73
4
 74
0
 40
0
 40
0
 40
0
 40
0
 40
1
 40
1
 40
1
 40
1
 10
84.669213
 20
171.490324
 30
0.0
 10
84.597924
 20
171.490324
 30
0.0
 10
84.526636
 20
171.490324
 30
0.0
 10
84.455347
 20
171.490324
 30
0.0
  0
SPLINE
  5
1cb
100
AcDbEntity
  8
full3
 62
7
100
AcDbSpline
 70
8
 71
3
 72
8
 73
4
 74
0
 40
0
 40
0
 40
0
 40
0
 40
1
 40
1
 40
1
 40
1
 10
84.455347
 20
171.490324
 30
0.0
 10
84.365240
 20
171.490324
 30
0.0
 10
84.275135
 20
171.490324
 30
0.0
 10
84.185029
 20
171.490324
 30
0.0
  0
SPLINE
  5
1cc
100
AcDbEntity
  8
full3
 62
7
100
AcDbSpline
 70
8
 71
3
 72
8
 73
4
 74
0
 40
0
 40
0
 40
0
 40
0
 40
1
 40
1
 40
1
 40
1
 10
84.185029
 20
171.490324
 30
0.0
 10
84.077235
 20
171.490324
 30
0.0
 10
83.969441
 20
171.490324
 30
0.0
 10
83.861648
 20
171.490324
 30
0.0
  0
SPLINE
  5
1cd
100
AcDbEntity
  8
full3
 62
7
100
AcDbSpline
 70
8
 71
3
 72
8
 73
4
 74
0
 40
0
 40
0
 40
0
 40
0
 40
1
 40
1
 40
1
 40
1
 10
83.861648
 20
171.490324
 30
0.0
 10
83.737522
 20
171.490324
 30
0.0
 10
83.613393
 20
171.490324
 30
0.0
 10
83.489260
 20
171.490324
 30
0.0
  0
SPLINE
  5
1ce
100
AcDbEntity
  8
full3
 62
7
100
AcDbSpline
 70
8
 71
3
 72
8
 73
4
 74
0
 40
0
 40
0
 40
0
 40
0
 40
1
 40
1
 40
1
 40
1
 10
83.489260
 20
171.490324
 30
0.0
 10
83.350364
 20
171.490324
 30
0.0
 10
83.211467
 20
171.490324
 30
0.0
 10
83.072571
 20
171.490324
 30
0.0
  0
SPLINE
  5
1cf
100
AcDbEntity
  8
full3
 62
7
100
AcDbSpline
 70
8
 71
3
 72
8
 73
4
 74
0
 40
0
 40
0
 40
0
 40
0
 40
1
 40
1
 40
1
 40
1
 10
83.072571
 20
171.490324
 30
0.0
 10
82.920644
 20
171.490324
 30
0.0
 10
82.768721
 20
171.490324
 30
0.0
 10
82.616802
 20
171.490324
 30
0.0
  0
SPLINE
  5
1d0
100
AcDbEntity
  8
full3
 62
7
100
AcDbSpline
 70
8
 71
3
 72
8
 73
4
 74
0
 40
0
 40
0
 40
0
 40
0
 40
1
 40
1
 40
1
 40
1
 10
82.616802
 20
171.490324
 30
0.0
 10
82.453766
 20
171.490324
 30
0.0
 10
82.290730
 20
171.490324
 30
0.0
 10
82.127694
 20
171.490324
 30
0.0
  0
SPLINE
  5
1d1
100
AcDbEntity
  8
full3
 62
7
100
AcDbSpline
 70
8
 71
3
 72
8
 73
4
 74
0
 40
0
 40
0
 40
0
 40
0
 40
1
 40
1
 40
1
 40
1
 10
82.127694
 20
171.490324
 30
0.0
 10
81.955595
 20
171.490324
 30
0.0
 10
81.783496
 20
171.490324
 30
0.0
 10
81.611396
 20
171.490324
 30
0.0
  0
SPLINE
  5
1d2
100
AcDbEntity
  8
full3
 62
7
100
AcDbSpline
 70
8
 71
3
 72
8
 73
4
 74
0
 40
0
 40
0
 40
0
 40
0
 40
1
 40
1
 40
1
 40
1
 10
81.611396
 20
171.490324
 30
0.0
 10
81.432394
 20
171.490324
 30
0.0
 10
81.253391
 20
171.490324
 30
0.0
 10
81.074388
 20
171.490324
 30
0.0
  0
SPLINE
  5
1d3
100
AcDbEntity
  8
full3
 62
7
100
AcDbSpline
 70
8
 71
3
 72
8
 73
4
 74
0
 40
0
 40
0
 40
0
 40
0
 40
1
 40
1
 40
1
 40
1
 10
81.074388
 20
171.490324
 30
0.0
 10
80.708408
 20
171.490324
 30
0.0
 10
80.338774
 20
171.490324
 30
0.0
 10
79.965489
 20
171.490324
 30
0.0
  0
LINE
  5
1d4
100
AcDbEntity
  8
full3
 62
7
100
AcDbLine
 10
79.965489
 20
171.490324
 30
0.0
 11
79.407528
 21
171.490324
 31
0.0
  0
LINE
  5
1d5
100
AcDbEntity
  8
full3
 62
7
100
AcDbLine
 10
79.407528
 20
171.490324
 30
0.0
 11
78.856589
 21
171.490324
 31
0.0
  0
LINE
  5
1d6
100
AcDbEntity
  8
full3
 62
7
100
AcDbLine
 10
78.856589
 20
171.490324
 30
0.0
 11
78.319581
 21
171.490324
 31
0.0
  0
LINE
  5
1d7
100
AcDbEntity
  8
full3
 62
7
100
AcDbLine
 10
78.319581
 20
171.490324
 30
0.0
 11
77.803284
 21
171.490324
 31
0.0
  0
LINE
  5
1d8
100
AcDbEntity
  8
full3
 62
7
100
AcDbLine
 10
77.803284
 20
171.490324
 30
0.0
 11
77.314176
 21
171.490324
 31
0.0
  0
LINE
  5
1d9
100
AcDbEntity
  8
full3
 62
7
100
AcDbLine
 10
77.314176
 20
171.490324
 30
0.0
 11
76.858406
 21
171.490324
 31
0.0
  0
LINE
  5
1da
100
AcDbEntity
  8
full3
 62
7
100
AcDbLine
 10
76.858406
 20
171.490324
 30
0.0
 11
76.441717
 21
171.490324
 31
0.0
  0
LINE
  5
1db
100
AcDbEntity
  8
full3
 62
7
100
AcDbLine
 10
76.441717
 20
171.490324
 30
0.0
 11
76.069329
 21
171.490324
 31
0.0
  0
LINE
  5
1dc
100
AcDbEntity
  8
full3
 62
7
100
AcDbLine
 10
76.069329
 20
171.490324
 30
0.0
 11
75.745949
 21
171.490324
 31
0.0
  0
LINE
  5
1dd
100
AcDbEntity
  8
full3
 62
7
100
AcDbLine
 10
75.745949
 20
171.490324
 30
0.0
 11
75.475631
 21
171.490324
 31
0.0
  0
LINE
  5
1de
100
AcDbEntity
  8
full3
 62
7
100
AcDbLine
 10
75.475631
 20
171.490324
 30
0.0
 11
75.261764
 21
171.490324
 31
0.0
  0
LINE
  5
1df
100
AcDbEntity
  8
full3
 62
7
100
AcDbLine
 10
75.261764
 20
171.490324
 30
0.0
 11
75.107060
 21
171.490324
 31
0.0
  0
LINE
  5
1e0
100
AcDbEntity
  8
full3
 62
7
100
AcDbLine
 10
75.107060
 20
171.490324
 30
0.0
 11
75.013453
 21
171.490324
 31
0.0
  0
LINE
  5
1e1
100
AcDbEntity
  8
full3
 62
7
100
AcDbLine
 10
75.013453
 20
171.490324
 30
0.0
 11
74.982117
 21
171.490324
 31
0.0
  0
LINE
  5
1e2
100
AcDbEntity
  8
full3
 62
7
100
AcDbLine
 10
74.982117
 20
171.490324
 30
0.0
 11
74.998044
 21
171.490324
 31
0.0
  0
LINE
  5
1e3
100
AcDbEntity
  8
full3
 62
7
100
AcDbLine
 10
74.998044
 20
171.490324
 30
0.0
 11
75.045745
 21
171.490324
 31
0.0
  0
LINE
  5
1e4
100
AcDbEntity
  8
full3
 62
7
100
AcDbLine
 10
75.045745
 20
171.490324
 30
0.0
 11
75.124891
 21
171.490324
 31
0.0
  0
LINE
  5
1e5
100
AcDbEntity
  8
full3
 62
7
100
AcDbLine
 10
75.124891
 20
171.490324
 30
0.0
 11
75.234994
 21
171.490324
 31
0.0
  0
LINE
  5
1e6
100
AcDbEntity
  8
full3
 62
7
100
AcDbLine
 10
75.234994
 20
171.490324
 30
0.0
 11
75.375335
 21
171.490324
 31
0.0
  0
LINE
  5
1e7
100
AcDbEntity
  8
full3
 62
7
100
AcDbLine
 10
75.375335
 20
171.490324
 30
0.0
 11
75.545039
 21
171.490324
 31
0.0
  0
LINE
  5
1e8
100
AcDbEntity
  8
full3
 62
7
100
AcDbLine
 10
75.545039
 20
171.490324
 30
0.0
 11
75.742998
 21
171.490324
 31
0.0
  0
LINE
  5
1e9
100
AcDbEntity
  8
full3
 62
7
100
AcDbLine
 10
75.742998
 20
171.490324
 30
0.0
 11
75.967958
 21
171.490324
 31
0.0
  0
LINE
  5
1ea
100
AcDbEntity
  8
full3
 62
7
100
AcDbLine
 10
75.967958
 20
171.490324
 30
0.0
 11
76.218472
 21
171.490324
 31
0.0
  0
LINE
  5
1eb
100
AcDbEntity
  8
full3
 62
7
100
AcDbLine
 10
76.218472
 20
171.490324
 30
0.0
 11
76.492956
 21
171.490324
 31
0.0
  0
LINE
  5
1ec
100
AcDbEntity
  8
full3
 62
7
100
AcDbLine
 10
76.492956
 20
171.490324
 30
0.0
 11
76.789636
 21
171.490324
 31
0.0
  0
LINE
  5
1ed
100
AcDbEntity
  8
full3
 62
7
100
AcDbLine
 10
76.789636
 20
171.490324
 30
0.0
 11
77.106618
 21
171.490324
 31
0.0
  0
LINE
  5
1ee
100
AcDbEntity
  8
full3
 62
7
100
AcDbLine
 10
77.106618
 20
171.490324
 30
0.0
 11
77.441889
 21
171.490324
 31
0.0
  0
LINE
  5
1ef
100
AcDbEntity
  8
full3
 62
7
100
AcDbLine
 10
77.441889
 20
171.490324
 30
0.0
 11
77.793287
 21
171.490324
 31
0.0
  0
LINE
  5
1f0
100
AcDbEntity
  8
full3
 62
7
100
AcDbLine
 10
77.793287
 20
171.490324
 30
0.0
 11
54.649962
 21
171.490324
 31
0.0
  0
LINE
  5
1f1
100
AcDbEntity
  8
full3
 62
7
100
AcDbLine
 10
77.793287
 20
171.490324
 30
0.0
 11
77.441889
 21
171.490324
 31
0.0
  0
LINE
  5
1f2
100
AcDbEntity
  8
full3
 62
7
100
AcDbLine
 10
77.441889
 20
171.490324
 30
0.0
 11
77.106618
 21
171.490324
 31
0.0
  0
LINE
  5
1f3
100
AcDbEntity
  8
full3
 62
7
100
AcDbLine
 10
77.106618
 20
171.490324
 30
0.0
 11
76.789636
 21
171.490324
 31
0.0
  0
LINE
  5
1f4
100
AcDbEntity
  8
full3
 62
7
100
AcDbLine
 10
76.789636
 20
171.490324
 30
0.0
 11
76.492956
 21
171.490324
 31
0.0
  0
LINE
  5
1f5
100
AcDbEntity
  8
full3
 62
7
100
AcDbLine
 10
76.492956
 20
171.490324
 30
0.0
 11
76.218472
 21
171.490324
 31
0.0
  0
LINE
  5
1f6
100
AcDbEntity
  8
full3
 62
7
100
AcDbLine
 10
76.218472
 20
171.490324
 30
0.0
 11
75.967958
 21
171.490324
 31
0.0
  0
LINE
  5
1f7
100
AcDbEntity
  8
full3
 62
7
100
AcDbLine
 10
75.967958
 20
171.490324
 30
0.0
 11
75.742998
 21
171.490324
 31
0.0
  0
LINE
  5
1f8
100
AcDbEntity
  8
full3
 62
7
100
AcDbLine
 10
75.742998
 20
171.490324
 30
0.0
 11
75.545039
 21
171.490324
 31
0.0
  0
LINE
  5
1f9
100
AcDbEntity
  8
full3
 62
7
100
AcDbLine
 10
75.545039
 20
171.490324
 30
0.0
 11
75.375335
 21
171.490324
 31
0.0
  0
LINE
  5
1fa
100
AcDbEntity
  8
full3
 62
7
100
AcDbLine
 10
75.375335
 20
171.490324
 30
0.0
 11
75.234994
 21
171.490324
 31
0.0
  0
LINE
  5
1fb
100
AcDbEntity
  8
full3
 62
7
100
AcDbLine
 10
75.234994
 20
171.490324
 30
0.0
 11
75.124891
 21
171.490324
 31
0.0
  0
LINE
  5
1fc
100
AcDbEntity
  8
full3
 62
7
100
AcDbLine
 10
75.124891
 20
171.490324
 30
0.0
 11
75.045745
 21
171.490324
 31
0.0
  0
LINE
  5
1fd
100
AcDbEntity
  8
full3
 62
7
100
AcDbLine
 10
75.045745
 20
171.490324
 30
0.0
 11
74.998044
 21
171.490324
 31
0.0
  0
LINE
  5
1fe
100
AcDbEntity
  8
full3
 62
7
100
AcDbLine
 10
74.998044
 20
171.490324
 30
0.0
 11
74.982117
 21
171.490324
 31
0.0
  0
LINE
  5
1ff
100
AcDbEntity
  8
full3
 62
7
100
AcDbLine
 10
74.982117
 20
171.490324
 30
0.0
 11
74.998044
 21
171.490324
 31
0.0
  0
LINE
  5
200
100
AcDbEntity
  8
full3
 62
7
100
AcDbLine
 10
74.998044
 20
171.490324
 30
0.0
 11
75.045745
 21
171.490324
 31
0.0
  0
LINE
  5
201
100
AcDbEntity
  8
full3
 62
7
100
AcDbLine
 10
75.045745
 20
171.490324
 30
0.0
 11
75.124891
 21
171.490324
 31
0.0
  0
LINE
  5
202
100
AcDbEntity
  8
full3
 62
7
100
AcDbLine
 10
75.124891
 20
171.490324
 30
0.0
 11
75.234994
 21
171.490324
 31
0.0
  0
LINE
  5
203
100
AcDbEntity
  8
full3
 62
7
100
AcDbLine
 10
75.234994
 20
171.490324
 30
0.0
 11
75.375335
 21
171.490324
 31
0.0
  0
LINE
  5
204
100
AcDbEntity
  8
full3
 62
7
100
AcDbLine
 10
75.375335
 20
171.490324
 30
0.0
 11
75.545039
 21
171.490324
 31
0.0
  0
LINE
  5
205
100
AcDbEntity
  8
full3
 62
7
100
AcDbLine
 10
75.545039
 20
171.490324
 30
0.0
 11
75.742998
 21
171.490324
 31
0.0
  0
LINE
  5
206
100
AcDbEntity
  8
full3
 62
7
100
AcDbLine
 10
75.742998
 20
171.490324
 30
0.0
 11
75.967958
 21
171.490324
 31
0.0
  0
LINE
  5
207
100
AcDbEntity
  8
full3
 62
7
100
AcDbLine
 10
75.967958
 20
171.490324
 30
0.0
 11
76.218472
 21
171.490324
 31
0.0
  0
LINE
  5
208
100
AcDbEntity
  8
full3
 62
7
100
AcDbLine
 10
76.218472
 20
171.490324
 30
0.0
 11
76.492956
 21
171.490324
 31
0.0
  0
LINE
  5
209
100
AcDbEntity
  8
full3
 62
7
100
AcDbLine
 10
76.492956
 20
171.490324
 30
0.0
 11
76.789636
 21
171.490324
 31
0.0
  0
LINE
  5
20a
100
AcDbEntity
  8
full3
 62
7
100
AcDbLine
 10
76.789636
 20
171.490324
 30
0.0
 11
77.106618
 21
171.490324
 31
0.0
  0
LINE
  5
20b
100
AcDbEntity
  8
full3
 62
7
100
AcDbLine
 10
77.106618
 20
171.490324
 30
0.0
 11
77.441889
 21
171.490324
 31
0.0
  0
LINE
  5
20c
100
AcDbEntity
  8
full3
 62
7
100
AcDbLine
 10
77.441889
 20
171.490324
 30
0.0
 11
77.793287
 21
171.490324
 31
0.0
  0
LINE
  5
20d
100
AcDbEntity
  8
full3
 62
7
100
AcDbLine
 10
82.137690
 20
171.490324
 30
0.0
 11
82.489088
 21
171.490324
 31
0.0
  0
LINE
  5
20e
100
AcDbEntity
  8
full3
 62
7
100
AcDbLine
 10
82.489088
 20
171.490324
 30
0.0
 11
82.824359
 21
171.490324
 31
0.0
  0
LINE
  5
20f
100
AcDbEntity
  8
full3
 62
7
100
AcDbLine
 10
82.824359
 20
171.490324
 30
0.0
 11
83.141341
 21
171.490324
 31
0.0
  0
LINE
  5
210
100
AcDbEntity
  8
full3
 62
7
100
AcDbLine
 10
83.141341
 20
171.490324
 30
0.0
 11
83.438021
 21
171.490324
 31
0.0
  0
LINE
  5
211
100
AcDbEntity
  8
full3
 62
7
100
AcDbLine
 10
83.438021
 20
171.490324
 30
0.0
 11
83.712505
 21
171.490324
 31
0.0
  0
LINE
  5
212
100
AcDbEntity
  8
full3
 62
7
100
AcDbLine
 10
83.712505
 20
171.490324
 30
0.0
 11
83.963020
 21
171.490324
 31
0.0
  0
LINE
  5
213
100
AcDbEntity
  8
full3
 62
7
100
AcDbLine
 10
83.963020
 20
171.490324
 30
0.0
 11
84.187979
 21
171.490324
 31
0.0
  0
LINE
  5
214
100
AcDbEntity
  8
full3
 62
7
100
AcDbLine
 10
84.187979
 20
171.490324
 30
0.0
 11
84.385938
 21
171.490324
 31
0.0
  0
LINE
  5
215
100
AcDbEntity
  8
full3
 62
7
100
AcDbLine
 10
84.385938
 20
171.490324
 30
0.0
 11
84.555642
 21
171.490324
 31
0.0
  0
LINE
  5
216
100
AcDbEntity
  8
full3
 62
7
100
AcDbLine
 10
84.555642
 20
171.490324
 30
0.0
 11
84.695984
 21
171.490324
 31
0.0
  0
LINE
  5
217
100
AcDbEntity
  8
full3
 62
7
100
AcDbLine
 10
84.695984
 20
171.490324
 30
0.0
 11
84.806086
 21
171.490324
 31
0.0
  0
LINE
  5
218
100
AcDbEntity
  8
full3
 62
7
100
AcDbLine
 10
84.806086
 20
171.490324
 30
0.0
 11
84.885232
 21
171.490324
 31
0.0
  0
LINE
  5
219
100
AcDbEntity
  8
full3
 62
7
100
AcDbLine
 10
84.885232
 20
171.490324
 30
0.0
 11
84.932933
 21
171.490324
 31
0.0
  0
LINE
  5
21a
100
AcDbEntity
  8
full3
 62
7
100
AcDbLine
 10
84.932933
 20
171.490324
 30
0.0
 11
84.948860
 21
171.490324
 31
0.0
  0
LINE
  5
21b
100
AcDbEntity
  8
full3
 62
7
100
AcDbLine
 10
84.948860
 20
171.490324
 30
0.0
 11
84.932933
 21
171.490324
 31
0.0
  0
LINE
  5
21c
100
AcDbEntity
  8
full3
 62
7
100
AcDbLine
 10
84.932933
 20
171.490324
 30
0.0
 11
84.885232
 21
171.490324
 31
0.0
  0
LINE
  5
21d
100
AcDbEntity
  8
full3
 62
7
100
AcDbLine
 10
84.885232
 20
171.490324
 30
0.0
 11
84.806086
 21
171.490324
 31
0.0
  0
LINE
  5
21e
100
AcDbEntity
  8
full3
 62
7
100
AcDbLine
 10
84.806086
 20
171.490324
 30
0.0
 11
84.695984
 21
171.490324
 31
0.0
  0
LINE
  5
21f
100
AcDbEntity
  8
full3
 62
7
100
AcDbLine
 10
84.695984
 20
171.490324
 30
0.0
 11
84.555642
 21
171.490324
 31
0.0
  0
LINE
  5
220
100
AcDbEntity
  8
full3
 62
7
100
AcDbLine
 10
84.555642
 20
171.490324
 30
0.0
 11
84.385938
 21
171.490324
 31
0.0
  0
LINE
  5
221
100
AcDbEntity
  8
full3
 62
7
100
AcDbLine
 10
84.385938
 20
171.490324
 30
0.0
 11
84.187979
 21
171.490324
 31
0.0
  0
LINE
  5
222
100
AcDbEntity
  8
full3
 62
7
100
AcDbLine
 10
84.187979
 20
171.490324
 30
0.0
 11
83.963020
 21
171.490324
 31
0.0
  0
LINE
  5
223
100
AcDbEntity
  8
full3
 62
7
100
AcDbLine
 10
83.963020
 20
171.490324
 30
0.0
 11
83.712505
 21
171.490324
 31
0.0
  0
LINE
  5
224
100
AcDbEntity
  8
full3
 62
7
100
AcDbLine
 10
83.712505
 20
171.490324
 30
0.0
 11
83.438021
 21
171.490324
 31
0.0
  0
LINE
  5
225
100
AcDbEntity
  8
full3
 62
7
100
AcDbLine
 10
83.438021
 20
171.490324
 30
0.0
 11
83.141341
 21
171.490324
 31
0.0
  0
LINE
  5
226
100
AcDbEntity
  8
full3
 62
7
100
AcDbLine
 10
83.141341
 20
171.490324
 30
0.0
 11
82.824359
 21
171.490324
 31
0.0
  0
LINE
  5
227
100
AcDbEntity
  8
full3
 62
7
100
AcDbLine
 10
82.824359
 20
171.490324
 30
0.0
 11
82.489088
 21
171.490324
 31
0.0
  0
LINE
  5
228
100
AcDbEntity
  8
full3
 62
7
100
AcDbLine
 10
82.489088
 20
171.490324
 30
0.0
 11
82.137690
 21
171.490324
 31
0.0
  0
SPLINE
  5
229
100
AcDbEntity
  8
full3
 62
7
100
AcDbSpline
 70
8
 71
3
 72
8
 73
4
 74
0
 40
0
 40
0
 40
0
 40
0
 40
1
 40
1
 40
1
 40
1
 10
79.965489
 20
166.007424
 30
0.0
 10
79.245327
 20
166.007424
 30
0.0
 10
78.526122
 20
166.007424
 30
0.0
 10
77.872473
 20
166.007424
 30
0.0
  0
LINE
  5
22a
100
AcDbEntity
  8
full3
 62
7
100
AcDbLine
 10
77.793287
 20
166.007424
 30
0.0
 11
77.441889
 21
166.007424
 31
0.0
  0
LINE
  5
22b
100
AcDbEntity
  8
full3
 62
7
100
AcDbLine
 10
77.441889
 20
166.007424
 30
0.0
 11
77.106618
 21
166.007424
 31
0.0
  0
LINE
  5
22c
100
AcDbEntity
  8
full3
 62
7
100
AcDbLine
 10
77.106618
 20
166.007424
 30
0.0
 11
76.789636
 21
166.007424
 31
0.0
  0
LINE
  5
22d
100
AcDbEntity
  8
full3
 62
7
100
AcDbLine
 10
76.789636
 20
166.007424
 30
0.0
 11
76.492956
 21
166.007424
 31
0.0
  0
LINE
  5
22e
100
AcDbEntity
  8
full3
 62
7
100
AcDbLine
 10
76.492956
 20
166.007424
 30
0.0
 11
76.218472
 21
166.007424
 31
0.0
  0
LINE
  5
22f
100
AcDbEntity
  8
full3
 62
7
100
AcDbLine
 10
76.218472
 20
166.007424
 30
0.0
 11
75.967958
 21
166.007424
 31
0.0
  0
LINE
  5
230
100
AcDbEntity
  8
full3
 62
7
100
AcDbLine
 10
75.967958
 20
166.007424
 30
0.0
 11
75.742998
 21
166.007424
 31
0.0
  0
LINE
  5
231
100
AcDbEntity
  8
full3
 62
7
100
AcDbLine
 10
75.742998
 20
166.007424
 30
0.0
 11
75.545039
 21
166.007424
 31
0.0
  0
LINE
  5
232
100
AcDbEntity
  8
full3
 62
7
100
AcDbLine
 10
75.545039
 20
166.007424
 30
0.0
 11
75.375335
 21
166.007424
 31
0.0
  0
LINE
  5
233
100
AcDbEntity
  8
full3
 62
7
100
AcDbLine
 10
75.375335
 20
166.007424
 30
0.0
 11
75.234994
 21
166.007424
 31
0.0
  0
LINE
  5
234
100
AcDbEntity
  8
full3
 62
7
100
AcDbLine
 10
75.234994
 20
166.007424
 30
0.0
 11
75.124891
 21
166.007424
 31
0.0
  0
LINE
  5
235
100
AcDbEntity
  8
full3
 62
7
100
AcDbLine
 10
75.124891
 20
166.007424
 30
0.0
 11
75.045745
 21
166.007424
 31
0.0
  0
LINE
  5
236
100
AcDbEntity
  8
full3
 62
7
100
AcDbLine
 10
75.045745
 20
166.007424
 30
0.0
 11
74.998044
 21
166.007424
 31
0.0
  0
LINE
  5
237
100
AcDbEntity
  8
full3
 62
7
100
AcDbLine
 10
74.998044
 20
166.007424
 30
0.0
 11
74.982117
 21
166.007424
 31
0.0
  0
LINE
  5
238
100
AcDbEntity
  8
full3
 62
7
100
AcDbLine
 10
74.982117
 20
166.007424
 30
0.0
 11
74.998044
 21
166.007424
 31
0.0
  0
LINE
  5
239
100
AcDbEntity
  8
full3
 62
7
100
AcDbLine
 10
74.998044
 20
166.007424
 30
0.0
 11
75.045745
 21
166.007424
 31
0.0
  0
LINE
  5
23a
100
AcDbEntity
  8
full3
 62
7
100
AcDbLine
 10
75.045745
 20
166.007424
 30
0.0
 11
75.124891
 21
166.007424
 31
0.0
  0
LINE
  5
23b
100
AcDbEntity
  8
full3
 62
7
100
AcDbLine
 10
75.124891
 20
166.007424
 30
0.0
 11
75.234994
 21
166.007424
 31
0.0
  0
LINE
  5
23c
100
AcDbEntity
  8
full3
 62
7
100
AcDbLine
 10
75.234994
 20
166.007424
 30
0.0
 11
75.375335
 21
166.007424
 31
0.0
  0
LINE
  5
23d
100
AcDbEntity
  8
full3
 62
7
100
AcDbLine
 10
75.375335
 20
166.007424
 30
0.0
 11
75.545039
 21
166.007424
 31
0.0
  0
LINE
  5
23e
100
AcDbEntity
  8
full3
 62
7
100
AcDbLine
 10
75.545039
 20
166.007424
 30
0.0
 11
75.742998
 21
166.007424
 31
0.0
  0
LINE
  5
23f
100
AcDbEntity
  8
full3
 62
7
100
AcDbLine
 10
75.742998
 20
166.007424
 30
0.0
 11
75.967958
 21
166.007424
 31
0.0
  0
LINE
  5
240
100
AcDbEntity
  8
full3
 62
7
100
AcDbLine
 10
75.967958
 20
166.007424
 30
0.0
 11
76.218472
 21
166.007424
 31
0.0
  0
LINE
  5
241
100
AcDbEntity
  8
full3
 62
7
100
AcDbLine
 10
76.218472
 20
166.007424
 30
0.0
 11
76.492956
 21
166.007424
 31
0.0
  0
LINE
  5
242
100
AcDbEntity
  8
full3
 62
7
100
AcDbLine
 10
76.492956
 20
166.007424
 30
0.0
 11
76.789636
 21
166.007424
 31
0.0
  0
LINE
  5
243
100
AcDbEntity
  8
full3
 62
7
100
AcDbLine
 10
76.789636
 20
166.007424
 30
0.0
 11
77.106618
 21
166.007424
 31
0.0
  0
LINE
  5
244
100
AcDbEntity
  8
full3
 62
7
100
AcDbLine
 10
77.106618
 20
166.007424
 30
0.0
 11
77.441889
 21
166.007424
 31
0.0
  0
LINE
  5
245
100
AcDbEntity
  8
full3
 62
7
100
AcDbLine
 10
77.441889
 20
166.007424
 30
0.0
 11
77.793287
 21
166.007424
 31
0.0
  0
LINE
  5
246
100
AcDbEntity
  8
full3
 62
7
100
AcDbLine
 10
82.137690
 20
166.007424
 30
0.0
 11
82.489088
 21
166.007424
 31
0.0
  0
LINE
  5
247
100
AcDbEntity
  8
full3
 62
7
100
AcDbLine
 10
82.489088
 20
166.007424
 30
0.0
 11
82.824359
 21
166.007424
 31
0.0
  0
LINE
  5
248
100
AcDbEntity
  8
full3
 62
7
100
AcDbLine
 10
82.824359
 20
166.007424
 30
0.0
 11
83.141341
 21
166.007424
 31
0.0
  0
LINE
  5
249
100
AcDbEntity
  8
full3
 62
7
100
AcDbLine
 10
83.141341
 20
166.007424
 30
0.0
 11
83.438021
 21
166.007424
 31
0.0
  0
LINE
  5
24a
100
AcDbEntity
  8
full3
 62
7
100
AcDbLine
 10
83.438021
 20
166.007424
 30
0.0
 11
83.712505
 21
166.007424
 31
0.0
  0
LINE
  5
24b
100
AcDbEntity
  8
full3
 62
7
100
AcDbLine
 10
83.712505
 20
166.007424
 30
0.0
 11
83.963020
 21
166.007424
 31
0.0
  0
LINE
  5
24c
100
AcDbEntity
  8
full3
 62
7
100
AcDbLine
 10
83.963020
 20
166.007424
 30
0.0
 11
84.187979
 21
166.007424
 31
0.0
  0
LINE
  5
24d
100
AcDbEntity
  8
full3
 62
7
100
AcDbLine
 10
84.187979
 20
166.007424
 30
0.0
 11
84.385938
 21
166.007424
 31
0.0
  0
LINE
  5
24e
100
AcDbEntity
  8
full3
 62
7
100
AcDbLine
 10
84.385938
 20
166.007424
 30
0.0
 11
84.555642
 21
166.007424
 31
0.0
  0
LINE
  5
24f
100
AcDbEntity
  8
full3
 62
7
100
AcDbLine
 10
84.555642
 20
166.007424
 30
0.0
 11
84.695984
 21
166.007424
 31
0.0
  0
LINE
  5
250
100
AcDbEntity
  8
full3
 62
7
100
AcDbLine
 10
84.695984
 20
166.007424
 30
0.0
 11
84.806086
 21
166.007424
 31
0.0
  0
LINE
  5
251
100
AcDbEntity
  8
full3
 62
7
100
AcDbLine
 10
84.806086
 20
166.007424
 30
0.0
 11
84.885232
 21
166.007424
 31
0.0
  0
LINE
  5
252
100
AcDbEntity
  8
full3
 62
7
100
AcDbLine
 10
84.885232
 20
166.007424
 30
0.0
 11
84.932933
 21
166.007424
 31
0.0
  0
LINE
  5
253
100
AcDbEntity
  8
full3
 62
7
100
AcDbLine
 10
84.932933
 20
166.007424
 30
0.0
 11
84.948860
 21
166.007424
 31
0.0
  0
LINE
  5
254
100
AcDbEntity
  8
full3
 62
7
100
AcDbLine
 10
84.948860
 20
166.007424
 30
0.0
 11
84.932933
 21
166.007424
 31
0.0
  0
LINE
  5
255
100
AcDbEntity
  8
full3
 62
7
100
AcDbLine
 10
84.932933
 20
166.007424
 30
0.0
 11
84.885232
 21
166.007424
 31
0.0
  0
LINE
  5
256
100
AcDbEntity
  8
full3
 62
7
100
AcDbLine
 10
84.885232
 20
166.007424
 30
0.0
 11
84.806086
 21
166.007424
 31
0.0
  0
LINE
  5
257
100
AcDbEntity
  8
full3
 62
7
100
AcDbLine
 10
84.806086
 20
166.007424
 30
0.0
 11
84.695984
 21
166.007424
 31
0.0
  0
LINE
  5
258
100
AcDbEntity
  8
full3
 62
7
100
AcDbLine
 10
84.695984
 20
166.007424
 30
0.0
 11
84.555642
 21
166.007424
 31
0.0
  0
LINE
  5
259
100
AcDbEntity
  8
full3
 62
7
100
AcDbLine
 10
84.555642
 20
166.007424
 30
0.0
 11
84.385938
 21
166.007424
 31
0.0
  0
LINE
  5
25a
100
AcDbEntity
  8
full3
 62
7
100
AcDbLine
 10
84.385938
 20
166.007424
 30
0.0
 11
84.187979
 21
166.007424
 31
0.0
  0
LINE
  5
25b
100
AcDbEntity
  8
full3
 62
7
100
AcDbLine
 10
84.187979
 20
166.007424
 30
0.0
 11
83.963020
 21
166.007424
 31
0.0
  0
LINE
  5
25c
100
AcDbEntity
  8
full3
 62
7
100
AcDbLine
 10
83.963020
 20
166.007424
 30
0.0
 11
83.712505
 21
166.007424
 31
0.0
  0
LINE
  5
25d
100
AcDbEntity
  8
full3
 62
7
100
AcDbLine
 10
83.712505
 20
166.007424
 30
0.0
 11
83.438021
 21
166.007424
 31
0.0
  0
LINE
  5
25e
100
AcDbEntity
  8
full3
 62
7
100
AcDbLine
 10
83.438021
 20
166.007424
 30
0.0
 11
83.141341
 21
166.007424
 31
0.0
  0
LINE
  5
25f
100
AcDbEntity
  8
full3
 62
7
100
AcDbLine
 10
83.141341
 20
166.007424
 30
0.0
 11
82.824359
 21
166.007424
 31
0.0
  0
LINE
  5
260
100
AcDbEntity
  8
full3
 62
7
100
AcDbLine
 10
82.824359
 20
166.007424
 30
0.0
 11
82.489088
 21
166.007424
 31
0.0
  0
LINE
  5
261
100
AcDbEntity
  8
full3
 62
7
100
AcDbLine
 10
82.489088
 20
166.007424
 30
0.0
 11
82.137690
 21
166.007424
 31
0.0
  0
SPLINE
  5
262
100
AcDbEntity
  8
full3
 62
7
100
AcDbSpline
 70
8
 71
3
 72
8
 73
4
 74
0
 40
0
 40
0
 40
0
 40
0
 40
1
 40
1
 40
1
 40
1
 10
82.058505
 20
166.007424
 30
0.0
 10
81.404856
 20
166.007424
 30
0.0
 10
80.685651
 20
166.007424
 30
0.0
 10
79.965489
 20
166.007424
 30
0.0
  0
SPLINE
  5
263
100
AcDbEntity
  8
full3
 62
7
100
AcDbSpline
 70
8
 71
3
 72
8
 73
4
 74
0
 40
0
 40
0
 40
0
 40
0
 40
1
 40
1
 40
1
 40
1
 10
79.965489
 20
166.007424
 30
0.0
 10
80.043603
 20
166.007424
 30
0.0
 10
80.121718
 20
166.007424
 30
0.0
 10
80.199832
 20
166.007424
 30
0.0
  0
SPLINE
  5
264
100
AcDbEntity
  8
full3
 62
7
100
AcDbSpline
 70
8
 71
3
 72
8
 73
4
 74
0
 40
0
 40
0
 40
0
 40
0
 40
1
 40
1
 40
1
 40
1
 10
80.199832
 20
166.007424
 30
0.0
 10
80.355191
 20
166.007424
 30
0.0
 10
80.507503
 20
166.007424
 30
0.0
 10
80.656768
 20
166.007424
 30
0.0
  0
SPLINE
  5
265
100
AcDbEntity
  8
full3
 62
7
100
AcDbSpline
 70
8
 71
3
 72
8
 73
4
 74
0
 40
0
 40
0
 40
0
 40
0
 40
1
 40
1
 40
1
 40
1
 10
80.656768
 20
166.007424
 30
0.0
 10
80.729050
 20
166.007424
 30
0.0
 10
80.801332
 20
166.007424
 30
0.0
 10
80.873614
 20
166.007424
 30
0.0
  0
SPLINE
  5
266
100
AcDbEntity
  8
full3
 62
7
100
AcDbSpline
 70
8
 71
3
 72
8
 73
4
 74
0
 40
0
 40
0
 40
0
 40
0
 40
1
 40
1
 40
1
 40
1
 10
80.873614
 20
166.007424
 30
0.0
 10
80.942089
 20
166.007424
 30
0.0
 10
81.010565
 20
166.007424
 30
0.0
 10
81.079043
 20
166.007424
 30
0.0
  0
SPLINE
  5
267
100
AcDbEntity
  8
full3
 62
7
100
AcDbSpline
 70
8
 71
3
 72
8
 73
4
 74
0
 40
0
 40
0
 40
0
 40
0
 40
1
 40
1
 40
1
 40
1
 10
81.079043
 20
166.007424
 30
0.0
 10
81.142850
 20
166.007424
 30
0.0
 10
81.206657
 20
166.007424
 30
0.0
 10
81.270464
 20
166.007424
 30
0.0
  0
SPLINE
  5
268
100
AcDbEntity
  8
full3
 62
7
100
AcDbSpline
 70
8
 71
3
 72
8
 73
4
 74
0
 40
0
 40
0
 40
0
 40
0
 40
1
 40
1
 40
1
 40
1
 10
81.270464
 20
166.007424
 30
0.0
 10
81.328802
 20
166.007424
 30
0.0
 10
81.387138
 20
166.007424
 30
0.0
 10
81.445470
 20
166.007424
 30
0.0
  0
SPLINE
  5
269
100
AcDbEntity
  8
full3
 62
7
100
AcDbSpline
 70
8
 71
3
 72
8
 73
4
 74
0
 40
0
 40
0
 40
0
 40
0
 40
1
 40
1
 40
1
 40
1
 10
81.445470
 20
166.007424
 30
0.0
 10
81.497609
 20
166.007424
 30
0.0
 10
81.549746
 20
166.007424
 30
0.0
 10
81.601878
 20
166.007424
 30
0.0
  0
SPLINE
  5
26a
100
AcDbEntity
  8
full3
 62
7
100
AcDbSpline
 70
8
 71
3
 72
8
 73
4
 74
0
 40
0
 40
0
 40
0
 40
0
 40
1
 40
1
 40
1
 40
1
 10
81.601878
 20
166.007424
 30
0.0
 10
81.647147
 20
166.007424
 30
0.0
 10
81.692419
 20
166.007424
 30
0.0
 10
81.737695
 20
166.007424
 30
0.0
  0
SPLINE
  5
26b
100
AcDbEntity
  8
full3
 62
7
100
AcDbSpline
 70
8
 71
3
 72
8
 73
4
 74
0
 40
0
 40
0
 40
0
 40
0
 40
1
 40
1
 40
1
 40
1
 10
81.737695
 20
166.007424
 30
0.0
 10
81.775542
 20
166.007424
 30
0.0
 10
81.813385
 20
166.007424
 30
0.0
 10
81.851226
 20
166.007424
 30
0.0
  0
SPLINE
  5
26c
100
AcDbEntity
  8
full3
 62
7
100
AcDbSpline
 70
8
 71
3
 72
8
 73
4
 74
0
 40
0
 40
0
 40
0
 40
0
 40
1
 40
1
 40
1
 40
1
 10
81.851226
 20
166.007424
 30
0.0
 10
81.881166
 20
166.007424
 30
0.0
 10
81.911106
 20
166.007424
 30
0.0
 10
81.941047
 20
166.007424
 30
0.0
  0
SPLINE
  5
26d
100
AcDbEntity
  8
full3
 62
7
100
AcDbSpline
 70
8
 71
3
 72
8
 73
4
 74
0
 40
0
 40
0
 40
0
 40
0
 40
1
 40
1
 40
1
 40
1
 10
81.941047
 20
166.007424
 30
0.0
 10
81.962707
 20
166.007424
 30
0.0
 10
81.984369
 20
166.007424
 30
0.0
 10
82.006030
 20
166.007424
 30
0.0
  0
SPLINE
  5
26e
100
AcDbEntity
  8
full3
 62
7
100
AcDbSpline
 70
8
 71
3
 72
8
 73
4
 74
0
 40
0
 40
0
 40
0
 40
0
 40
1
 40
1
 40
1
 40
1
 10
82.006030
 20
166.007424
 30
0.0
 10
82.019133
 20
166.007424
 30
0.0
 10
82.032239
 20
166.007424
 30
0.0
 10
82.045348
 20
166.007424
 30
0.0
  0
SPLINE
  5
26f
100
AcDbEntity
  8
full3
 62
7
100
AcDbSpline
 70
8
 71
3
 72
8
 73
4
 74
0
 40
0
 40
0
 40
0
 40
0
 40
1
 40
1
 40
1
 40
1
 10
82.045348
 20
166.007424
 30
0.0
 10
82.049734
 20
166.007424
 30
0.0
 10
82.054119
 20
166.007424
 30
0.0
 10
82.058505
 20
166.007424
 30
0.0
  0
LINE
  5
270
100
AcDbEntity
  8
full3
 62
7
100
AcDbLine
 10
82.058505
 20
166.007424
 30
0.0
 11
82.006030
 21
166.007424
 31
0.0
  0
LINE
  5
271
100
AcDbEntity
  8
full3
 62
7
100
AcDbLine
 10
82.006030
 20
166.007424
 30
0.0
 11
81.851226
 21
166.007424
 31
0.0
  0
LINE
  5
272
100
AcDbEntity
  8
full3
 62
7
100
AcDbLine
 10
81.851226
 20
166.007424
 30
0.0
 11
81.601878
 21
166.007424
 31
0.0
  0
LINE
  5
273
100
AcDbEntity
  8
full3
 62
7
100
AcDbLine
 10
81.601878
 20
166.007424
 30
0.0
 11
81.270464
 21
166.007424
 31
0.0
  0
LINE
  5
274
100
AcDbEntity
  8
full3
 62
7
100
AcDbLine
 10
81.270464
 20
166.007424
 30
0.0
 11
80.873614
 21
166.007424
 31
0.0
  0
LINE
  5
275
100
AcDbEntity
  8
full3
 62
7
100
AcDbLine
 10
80.873614
 20
166.007424
 30
0.0
 11
80.431229
 21
166.007424
 31
0.0
  0
LINE
  5
276
100
AcDbEntity
  8
full3
 62
7
100
AcDbLine
 10
80.431229
 20
166.007424
 30
0.0
 11
79.965489
 21
166.007424
 31
0.0
  0
LINE
  5
277
100
AcDbEntity
  8
full3
 62
7
100
AcDbLine
 10
79.965489
 20
166.007424
 30
0.0
 11
79.499749
 21
166.007424
 31
0.0
  0
LINE
  5
278
100
AcDbEntity
  8
full3
 62
7
100
AcDbLine
 10
79.499749
 20
166.007424
 30
0.0
 11
79.057363
 21
166.007424
 31
0.0
  0
LINE
  5
279
100
AcDbEntity
  8
full3
 62
7
100
AcDbLine
 10
79.057363
 20
166.007424
 30
0.0
 11
78.660513
 21
166.007424
 31
0.0
  0
LINE
  5
27a
100
AcDbEntity
  8
full3
 62
7
100
AcDbLine
 10
78.660513
 20
166.007424
 30
0.0
 11
78.329099
 21
166.007424
 31
0.0
  0
LINE
  5
27b
100
AcDbEntity
  8
full3
 62
7
100
AcDbLine
 10
78.329099
 20
166.007424
 30
0.0
 11
78.079751
 21
166.007424
 31
0.0
  0
LINE
  5
27c
100
AcDbEntity
  8
full3
 62
7
100
AcDbLine
 10
78.079751
 20
166.007424
 30
0.0
 11
77.924948
 21
166.007424
 31
0.0
  0
LINE
  5
27d
100
AcDbEntity
  8
full3
 62
7
100
AcDbLine
 10
77.924948
 20
166.007424
 30
0.0
 11
77.872473
 21
166.007424
 31
0.0
  0
SPLINE
  5
27e
100
AcDbEntity
  8
full3
 62
7
100
AcDbSpline
 70
8
 71
3
 72
8
 73
4
 74
0
 40
0
 40
0
 40
0
 40
0
 40
1
 40
1
 40
1
 40
1
 10
77.872473
 20
166.007424
 30
0.0
 10
77.876858
 20
166.007424
 30
0.0
 10
77.881243
 20
166.007424
 30
0.0
 10
77.885629
 20
166.007424
 30
0.0
  0
SPLINE
  5
27f
100
AcDbEntity
  8
full3
 62
7
100
AcDbSpline
 70
8
 71
3
 72
8
 73
4
 74
0
 40
0
 40
0
 40
0
 40
0
 40
1
 40
1
 40
1
 40
1
 10
77.885629
 20
166.007424
 30
0.0
 10
77.898738
 20
166.007424
 30
0.0
 10
77.911844
 20
166.007424
 30
0.0
 10
77.924948
 20
166.007424
 30
0.0
  0
SPLINE
  5
280
100
AcDbEntity
  8
full3
 62
7
100
AcDbSpline
 70
8
 71
3
 72
8
 73
4
 74
0
 40
0
 40
0
 40
0
 40
0
 40
1
 40
1
 40
1
 40
1
 10
77.924948
 20
166.007424
 30
0.0
 10
77.946608
 20
166.007424
 30
0.0
 10
77.968270
 20
166.007424
 30
0.0
 10
77.989931
 20
166.007424
 30
0.0
  0
SPLINE
  5
281
100
AcDbEntity
  8
full3
 62
7
100
AcDbSpline
 70
8
 71
3
 72
8
 73
4
 74
0
 40
0
 40
0
 40
0
 40
0
 40
1
 40
1
 40
1
 40
1
 10
77.989931
 20
166.007424
 30
0.0
 10
78.019871
 20
166.007424
 30
0.0
 10
78.049811
 20
166.007424
 30
0.0
 10
78.079751
 20
166.007424
 30
0.0
  0
SPLINE
  5
282
100
AcDbEntity
  8
full3
 62
7
100
AcDbSpline
 70
8
 71
3
 72
8
 73
4
 74
0
 40
0
 40
0
 40
0
 40
0
 40
1
 40
1
 40
1
 40
1
 10
78.079751
 20
166.007424
 30
0.0
 10
78.117592
 20
166.007424
 30
0.0
 10
78.155435
 20
166.007424
 30
0.0
 10
78.193282
 20
166.007424
 30
0.0
  0
SPLINE
  5
283
100
AcDbEntity
  8
full3
 62
7
100
AcDbSpline
 70
8
 71
3
 72
8
 73
4
 74
0
 40
0
 40
0
 40
0
 40
0
 40
1
 40
1
 40
1
 40
1
 10
78.193282
 20
166.007424
 30
0.0
 10
78.238558
 20
166.007424
 30
0.0
 10
78.283830
 20
166.007424
 30
0.0
 10
78.329099
 20
166.007424
 30
0.0
  0
SPLINE
  5
284
100
AcDbEntity
  8
full3
 62
7
100
AcDbSpline
 70
8
 71
3
 72
8
 73
4
 74
0
 40
0
 40
0
 40
0
 40
0
 40
1
 40
1
 40
1
 40
1
 10
78.329099
 20
166.007424
 30
0.0
 10
78.381232
 20
166.007424
 30
0.0
 10
78.433368
 20
166.007424
 30
0.0
 10
78.485507
 20
166.007424
 30
0.0
  0
SPLINE
  5
285
100
AcDbEntity
  8
full3
 62
7
100
AcDbSpline
 70
8
 71
3
 72
8
 73
4
 74
0
 40
0
 40
0
 40
0
 40
0
 40
1
 40
1
 40
1
 40
1
 10
78.485507
 20
166.007424
 30
0.0
 10
78.543839
 20
166.007424
 30
0.0
 10
78.602174
 20
166.007424
 30
0.0
 10
78.660513
 20
166.007424
 30
0.0
  0
SPLINE
  5
286
100
AcDbEntity
  8
full3
 62
7
100
AcDbSpline
 70
8
 71
3
 72
8
 73
4
 74
0
 40
0
 40
0
 40
0
 40
0
 40
1
 40
1
 40
1
 40
1
 10
78.660513
 20
166.007424
 30
0.0
 10
78.724320
 20
166.007424
 30
0.0
 10
78.788127
 20
166.007424
 30
0.0
 10
78.851934
 20
166.007424
 30
0.0
  0
SPLINE
  5
287
100
AcDbEntity
  8
full3
 62
7
100
AcDbSpline
 70
8
 71
3
 72
8
 73
4
 74
0
 40
0
 40
0
 40
0
 40
0
 40
1
 40
1
 40
1
 40
1
 10
78.851934
 20
166.007424
 30
0.0
 10
78.920413
 20
166.007424
 30
0.0
 10
78.988889
 20
166.007424
 30
0.0
 10
79.057363
 20
166.007424
 30
0.0
  0
SPLINE
  5
288
100
AcDbEntity
  8
full3
 62
7
100
AcDbSpline
 70
8
 71
3
 72
8
 73
4
 74
0
 40
0
 40
0
 40
0
 40
0
 40
1
 40
1
 40
1
 40
1
 10
79.057363
 20
166.007424
 30
0.0
 10
79.129645
 20
166.007424
 30
0.0
 10
79.201927
 20
166.007424
 30
0.0
 10
79.274209
 20
166.007424
 30
0.0
  0
SPLINE
  5
289
100
AcDbEntity
  8
full3
 62
7
100
AcDbSpline
 70
8
 71
3
 72
8
 73
4
 74
0
 40
0
 40
0
 40
0
 40
0
 40
1
 40
1
 40
1
 40
1
 10
79.274209
 20
166.007424
 30
0.0
 10
79.349389
 20
166.007424
 30
0.0
 10
79.424569
 20
166.007424
 30
0.0
 10
79.499749
 20
166.007424
 30
0.0
  0
SPLINE
  5
28a
100
AcDbEntity
  8
full3
 62
7
100
AcDbSpline
 70
8
 71
3
 72
8
 73
4
 74
0
 40
0
 40
0
 40
0
 40
0
 40
1
 40
1
 40
1
 40
1
 10
79.499749
 20
166.007424
 30
0.0
 10
79.653462
 20
166.007424
 30
0.0
 10
79.808708
 20
166.007424
 30
0.0
 10
79.965489
 20
166.007424
 30
0.0
  0
LINE
  5
28b
100
AcDbEntity
  8
full3
 62
7
100
AcDbLine
 10
105.281015
 20
146.169297
 30
0.0
 11
54.649962
 21
146.169297
 31
0.0
  0
LINE
  5
28c
100
AcDbEntity
  8
full3
 62
7
100
AcDbLine
 10
77.793287
 20
166.007424
 30
0.0
 11
77.793287
 21
171.490324
 31
0.0
  0
LINE
  5
28d
100
AcDbEntity
  8
full3
 62
7
100
AcDbLine
 10
77.793287
 20
166.007424
 30
0.0
 11
82.137690
 21
166.007424
 31
0.0
  0
LINE
  5
28e
100
AcDbEntity
  8
full3
 62
7
100
AcDbLine
 10
82.137690
 20
166.007424
 30
0.0
 11
82.137690
 21
171.490324
 31
0.0
  0
LINE
  5
28f
100
AcDbEntity
  8
full3
 62
7
100
AcDbLine
 10
105.281015
 20
146.169297
 30
0.0
 11
54.649962
 21
146.169297
 31
0.0
  0
SPLINE
  5
290
100
AcDbEntity
  8
full3
 62
7
100
AcDbSpline
 70
8
 71
3
 72
8
 73
4
 74
0
 40
0
 40
0
 40
0
 40
0
 40
1
 40
1
 40
1
 40
1
 10
79.965489
 20
146.169297
 30
0.0
 10
80.043603
 20
146.169297
 30
0.0
 10
80.121718
 20
146.169297
 30
0.0
 10
80.199832
 20
146.169297
 30
0.0
  0
SPLINE
  5
291
100
AcDbEntity
  8
full3
 62
7
100
AcDbSpline
 70
8
 71
3
 72
8
 73
4
 74
0
 40
0
 40
0
 40
0
 40
0
 40
1
 40
1
 40
1
 40
1
 10
80.199832
 20
146.169297
 30
0.0
 10
80.355191
 20
146.169297
 30
0.0
 10
80.507503
 20
146.169297
 30
0.0
 10
80.656768
 20
146.169297
 30
0.0
  0
SPLINE
  5
292
100
AcDbEntity
  8
full3
 62
7
100
AcDbSpline
 70
8
 71
3
 72
8
 73
4
 74
0
 40
0
 40
0
 40
0
 40
0
 40
1
 40
1
 40
1
 40
1
 10
80.656768
 20
146.169297
 30
0.0
 10
80.729050
 20
146.169297
 30
0.0
 10
80.801332
 20
146.169297
 30
0.0
 10
80.873614
 20
146.169297
 30
0.0
  0
SPLINE
  5
293
100
AcDbEntity
  8
full3
 62
7
100
AcDbSpline
 70
8
 71
3
 72
8
 73
4
 74
0
 40
0
 40
0
 40
0
 40
0
 40
1
 40
1
 40
1
 40
1
 10
80.873614
 20
146.169297
 30
0.0
 10
80.942089
 20
146.169297
 30
0.0
 10
81.010565
 20
146.169297
 30
0.0
 10
81.079043
 20
146.169297
 30
0.0
  0
SPLINE
  5
294
100
AcDbEntity
  8
full3
 62
7
100
AcDbSpline
 70
8
 71
3
 72
8
 73
4
 74
0
 40
0
 40
0
 40
0
 40
0
 40
1
 40
1
 40
1
 40
1
 10
81.079043
 20
146.169297
 30
0.0
 10
81.142850
 20
146.169297
 30
0.0
 10
81.206657
 20
146.169297
 30
0.0
 10
81.270464
 20
146.169297
 30
0.0
  0
SPLINE
  5
295
100
AcDbEntity
  8
full3
 62
7
100
AcDbSpline
 70
8
 71
3
 72
8
 73
4
 74
0
 40
0
 40
0
 40
0
 40
0
 40
1
 40
1
 40
1
 40
1
 10
81.270464
 20
146.169297
 30
0.0
 10
81.328802
 20
146.169297
 30
0.0
 10
81.387138
 20
146.169297
 30
0.0
 10
81.445470
 20
146.169297
 30
0.0
  0
SPLINE
  5
296
100
AcDbEntity
  8
full3
 62
7
100
AcDbSpline
 70
8
 71
3
 72
8
 73
4
 74
0
 40
0
 40
0
 40
0
 40
0
 40
1
 40
1
 40
1
 40
1
 10
81.445470
 20
146.169297
 30
0.0
 10
81.497609
 20
146.169297
 30
0.0
 10
81.549746
 20
146.169297
 30
0.0
 10
81.601878
 20
146.169297
 30
0.0
  0
SPLINE
  5
297
100
AcDbEntity
  8
full3
 62
7
100
AcDbSpline
 70
8
 71
3
 72
8
 73
4
 74
0
 40
0
 40
0
 40
0
 40
0
 40
1
 40
1
 40
1
 40
1
 10
81.601878
 20
146.169297
 30
0.0
 10
81.647147
 20
146.169297
 30
0.0
 10
81.692419
 20
146.169297
 30
0.0
 10
81.737695
 20
146.169297
 30
0.0
  0
SPLINE
  5
298
100
AcDbEntity
  8
full3
 62
7
100
AcDbSpline
 70
8
 71
3
 72
8
 73
4
 74
0
 40
0
 40
0
 40
0
 40
0
 40
1
 40
1
 40
1
 40
1
 10
81.737695
 20
146.169297
 30
0.0
 10
81.775542
 20
146.169297
 30
0.0
 10
81.813385
 20
146.169297
 30
0.0
 10
81.851226
 20
146.169297
 30
0.0
  0
SPLINE
  5
299
100
AcDbEntity
  8
full3
 62
7
100
AcDbSpline
 70
8
 71
3
 72
8
 73
4
 74
0
 40
0
 40
0
 40
0
 40
0
 40
1
 40
1
 40
1
 40
1
 10
81.851226
 20
146.169297
 30
0.0
 10
81.881166
 20
146.169297
 30
0.0
 10
81.911106
 20
146.169297
 30
0.0
 10
81.941047
 20
146.169297
 30
0.0
  0
SPLINE
  5
29a
100
AcDbEntity
  8
full3
 62
7
100
AcDbSpline
 70
8
 71
3
 72
8
 73
4
 74
0
 40
0
 40
0
 40
0
 40
0
 40
1
 40
1
 40
1
 40
1
 10
81.941047
 20
146.169297
 30
0.0
 10
81.962707
 20
146.169297
 30
0.0
 10
81.984369
 20
146.169297
 30
0.0
 10
82.006030
 20
146.169297
 30
0.0
  0
SPLINE
  5
29b
100
AcDbEntity
  8
full3
 62
7
100
AcDbSpline
 70
8
 71
3
 72
8
 73
4
 74
0
 40
0
 40
0
 40
0
 40
0
 40
1
 40
1
 40
1
 40
1
 10
82.006030
 20
146.169297
 30
0.0
 10
82.019133
 20
146.169297
 30
0.0
 10
82.032239
 20
146.169297
 30
0.0
 10
82.045348
 20
146.169297
 30
0.0
  0
SPLINE
  5
29c
100
AcDbEntity
  8
full3
 62
7
100
AcDbSpline
 70
8
 71
3
 72
8
 73
4
 74
0
 40
0
 40
0
 40
0
 40
0
 40
1
 40
1
 40
1
 40
1
 10
82.045348
 20
146.169297
 30
0.0
 10
82.049734
 20
146.169297
 30
0.0
 10
82.054119
 20
146.169297
 30
0.0
 10
82.058505
 20
146.169297
 30
0.0
  0
LINE
  5
29d
100
AcDbEntity
  8
full3
 62
7
100
AcDbLine
 10
82.058505
 20
146.169297
 30
0.0
 11
82.006030
 21
146.169297
 31
0.0
  0
LINE
  5
29e
100
AcDbEntity
  8
full3
 62
7
100
AcDbLine
 10
82.006030
 20
146.169297
 30
0.0
 11
81.851226
 21
146.169297
 31
0.0
  0
LINE
  5
29f
100
AcDbEntity
  8
full3
 62
7
100
AcDbLine
 10
81.851226
 20
146.169297
 30
0.0
 11
81.601878
 21
146.169297
 31
0.0
  0
LINE
  5
2a0
100
AcDbEntity
  8
full3
 62
7
100
AcDbLine
 10
81.601878
 20
146.169297
 30
0.0
 11
81.270464
 21
146.169297
 31
0.0
  0
LINE
  5
2a1
100
AcDbEntity
  8
full3
 62
7
100
AcDbLine
 10
81.270464
 20
146.169297
 30
0.0
 11
80.873614
 21
146.169297
 31
0.0
  0
LINE
  5
2a2
100
AcDbEntity
  8
full3
 62
7
100
AcDbLine
 10
80.873614
 20
146.169297
 30
0.0
 11
80.431229
 21
146.169297
 31
0.0
  0
LINE
  5
2a3
100
AcDbEntity
  8
full3
 62
7
100
AcDbLine
 10
80.431229
 20
146.169297
 30
0.0
 11
79.965489
 21
146.169297
 31
0.0
  0
LINE
  5
2a4
100
AcDbEntity
  8
full3
 62
7
100
AcDbLine
 10
79.965489
 20
146.169297
 30
0.0
 11
79.499749
 21
146.169297
 31
0.0
  0
LINE
  5
2a5
100
AcDbEntity
  8
full3
 62
7
100
AcDbLine
 10
79.499749
 20
146.169297
 30
0.0
 11
79.057363
 21
146.169297
 31
0.0
  0
LINE
  5
2a6
100
AcDbEntity
  8
full3
 62
7
100
AcDbLine
 10
79.057363
 20
146.169297
 30
0.0
 11
78.660513
 21
146.169297
 31
0.0
  0
LINE
  5
2a7
100
AcDbEntity
  8
full3
 62
7
100
AcDbLine
 10
78.660513
 20
146.169297
 30
0.0
 11
78.329099
 21
146.169297
 31
0.0
  0
LINE
  5
2a8
100
AcDbEntity
  8
full3
 62
7
100
AcDbLine
 10
78.329099
 20
146.169297
 30
0.0
 11
78.079751
 21
146.169297
 31
0.0
  0
LINE
  5
2a9
100
AcDbEntity
  8
full3
 62
7
100
AcDbLine
 10
78.079751
 20
146.169297
 30
0.0
 11
77.924948
 21
146.169297
 31
0.0
  0
LINE
  5
2aa
100
AcDbEntity
  8
full3
 62
7
100
AcDbLine
 10
77.924948
 20
146.169297
 30
0.0
 11
77.872473
 21
146.169297
 31
0.0
  0
SPLINE
  5
2ab
100
AcDbEntity
  8
full3
 62
7
100
AcDbSpline
 70
8
 71
3
 72
8
 73
4
 74
0
 40
0
 40
0
 40
0
 40
0
 40
1
 40
1
 40
1
 40
1
 10
77.872473
 20
146.169297
 30
0.0
 10
77.876858
 20
146.169297
 30
0.0
 10
77.881243
 20
146.169297
 30
0.0
 10
77.885629
 20
146.169297
 30
0.0
  0
SPLINE
  5
2ac
100
AcDbEntity
  8
full3
 62
7
100
AcDbSpline
 70
8
 71
3
 72
8
 73
4
 74
0
 40
0
 40
0
 40
0
 40
0
 40
1
 40
1
 40
1
 40
1
 10
77.885629
 20
146.169297
 30
0.0
 10
77.898738
 20
146.169297
 30
0.0
 10
77.911845
 20
146.169297
 30
0.0
 10
77.924948
 20
146.169297
 30
0.0
  0
SPLINE
  5
2ad
100
AcDbEntity
  8
full3
 62
7
100
AcDbSpline
 70
8
 71
3
 72
8
 73
4
 74
0
 40
0
 40
0
 40
0
 40
0
 40
1
 40
1
 40
1
 40
1
 10
77.924948
 20
146.169297
 30
0.0
 10
77.946609
 20
146.169297
 30
0.0
 10
77.968270
 20
146.169297
 30
0.0
 10
77.989931
 20
146.169297
 30
0.0
  0
SPLINE
  5
2ae
100
AcDbEntity
  8
full3
 62
7
100
AcDbSpline
 70
8
 71
3
 72
8
 73
4
 74
0
 40
0
 40
0
 40
0
 40
0
 40
1
 40
1
 40
1
 40
1
 10
77.989931
 20
146.169297
 30
0.0
 10
78.019871
 20
146.169297
 30
0.0
 10
78.049811
 20
146.169297
 30
0.0
 10
78.079751
 20
146.169297
 30
0.0
  0
SPLINE
  5
2af
100
AcDbEntity
  8
full3
 62
7
100
AcDbSpline
 70
8
 71
3
 72
8
 73
4
 74
0
 40
0
 40
0
 40
0
 40
0
 40
1
 40
1
 40
1
 40
1
 10
78.079751
 20
146.169297
 30
0.0
 10
78.117591
 20
146.169297
 30
0.0
 10
78.155435
 20
146.169297
 30
0.0
 10
78.193282
 20
146.169297
 30
0.0
  0
SPLINE
  5
2b0
100
AcDbEntity
  8
full3
 62
7
100
AcDbSpline
 70
8
 71
3
 72
8
 73
4
 74
0
 40
0
 40
0
 40
0
 40
0
 40
1
 40
1
 40
1
 40
1
 10
78.193282
 20
146.169297
 30
0.0
 10
78.238558
 20
146.169297
 30
0.0
 10
78.283830
 20
146.169297
 30
0.0
 10
78.329099
 20
146.169297
 30
0.0
  0
SPLINE
  5
2b1
100
AcDbEntity
  8
full3
 62
7
100
AcDbSpline
 70
8
 71
3
 72
8
 73
4
 74
0
 40
0
 40
0
 40
0
 40
0
 40
1
 40
1
 40
1
 40
1
 10
78.329099
 20
146.169297
 30
0.0
 10
78.381232
 20
146.169297
 30
0.0
 10
78.433368
 20
146.169297
 30
0.0
 10
78.485507
 20
146.169297
 30
0.0
  0
SPLINE
  5
2b2
100
AcDbEntity
  8
full3
 62
7
100
AcDbSpline
 70
8
 71
3
 72
8
 73
4
 74
0
 40
0
 40
0
 40
0
 40
0
 40
1
 40
1
 40
1
 40
1
 10
78.485507
 20
146.169297
 30
0.0
 10
78.543839
 20
146.169297
 30
0.0
 10
78.602174
 20
146.169297
 30
0.0
 10
78.660513
 20
146.169297
 30
0.0
  0
SPLINE
  5
2b3
100
AcDbEntity
  8
full3
 62
7
100
AcDbSpline
 70
8
 71
3
 72
8
 73
4
 74
0
 40
0
 40
0
 40
0
 40
0
 40
1
 40
1
 40
1
 40
1
 10
78.660513
 20
146.169297
 30
0.0
 10
78.724320
 20
146.169297
 30
0.0
 10
78.788127
 20
146.169297
 30
0.0
 10
78.851934
 20
146.169297
 30
0.0
  0
SPLINE
  5
2b4
100
AcDbEntity
  8
full3
 62
7
100
AcDbSpline
 70
8
 71
3
 72
8
 73
4
 74
0
 40
0
 40
0
 40
0
 40
0
 40
1
 40
1
 40
1
 40
1
 10
78.851934
 20
146.169297
 30
0.0
 10
78.920413
 20
146.169297
 30
0.0
 10
78.988889
 20
146.169297
 30
0.0
 10
79.057363
 20
146.169297
 30
0.0
  0
SPLINE
  5
2b5
100
AcDbEntity
  8
full3
 62
7
100
AcDbSpline
 70
8
 71
3
 72
8
 73
4
 74
0
 40
0
 40
0
 40
0
 40
0
 40
1
 40
1
 40
1
 40
1
 10
79.057363
 20
146.169297
 30
0.0
 10
79.129645
 20
146.169297
 30
0.0
 10
79.201927
 20
146.169297
 30
0.0
 10
79.274209
 20
146.169297
 30
0.0
  0
SPLINE
  5
2b6
100
AcDbEntity
  8
full3
 62
7
100
AcDbSpline
 70
8
 71
3
 72
8
 73
4
 74
0
 40
0
 40
0
 40
0
 40
0
 40
1
 40
1
 40
1
 40
1
 10
79.274209
 20
146.169297
 30
0.0
 10
79.349389
 20
146.169297
 30
0.0
 10
79.424569
 20
146.169297
 30
0.0
 10
79.499749
 20
146.169297
 30
0.0
  0
SPLINE
  5
2b7
100
AcDbEntity
  8
full3
 62
7
100
AcDbSpline
 70
8
 71
3
 72
8
 73
4
 74
0
 40
0
 40
0
 40
0
 40
0
 40
1
 40
1
 40
1
 40
1
 10
79.499749
 20
146.169297
 30
0.0
 10
79.653462
 20
146.169297
 30
0.0
 10
79.808708
 20
146.169297
 30
0.0
 10
79.965489
 20
146.169297
 30
0.0
  0
LINE
  5
2b8
100
AcDbEntity
  8
full3
 62
7
100
AcDbLine
 10
82.137690
 20
166.007424
 30
0.0
 11
82.489088
 21
166.007424
 31
0.0
  0
LINE
  5
2b9
100
AcDbEntity
  8
full3
 62
7
100
AcDbLine
 10
82.489088
 20
166.007424
 30
0.0
 11
82.824359
 21
166.007424
 31
0.0
  0
LINE
  5
2ba
100
AcDbEntity
  8
full3
 62
7
100
AcDbLine
 10
82.824359
 20
166.007424
 30
0.0
 11
83.141341
 21
166.007424
 31
0.0
  0
LINE
  5
2bb
100
AcDbEntity
  8
full3
 62
7
100
AcDbLine
 10
83.141341
 20
166.007424
 30
0.0
 11
83.438021
 21
166.007424
 31
0.0
  0
LINE
  5
2bc
100
AcDbEntity
  8
full3
 62
7
100
AcDbLine
 10
83.438021
 20
166.007424
 30
0.0
 11
83.712505
 21
166.007424
 31
0.0
  0
LINE
  5
2bd
100
AcDbEntity
  8
full3
 62
7
100
AcDbLine
 10
83.712505
 20
166.007424
 30
0.0
 11
83.963020
 21
166.007424
 31
0.0
  0
LINE
  5
2be
100
AcDbEntity
  8
full3
 62
7
100
AcDbLine
 10
83.963020
 20
166.007424
 30
0.0
 11
84.187979
 21
166.007424
 31
0.0
  0
LINE
  5
2bf
100
AcDbEntity
  8
full3
 62
7
100
AcDbLine
 10
84.187979
 20
166.007424
 30
0.0
 11
84.385938
 21
166.007424
 31
0.0
  0
LINE
  5
2c0
100
AcDbEntity
  8
full3
 62
7
100
AcDbLine
 10
84.385938
 20
166.007424
 30
0.0
 11
84.555642
 21
166.007424
 31
0.0
  0
LINE
  5
2c1
100
AcDbEntity
  8
full3
 62
7
100
AcDbLine
 10
84.555642
 20
166.007424
 30
0.0
 11
84.695984
 21
166.007424
 31
0.0
  0
LINE
  5
2c2
100
AcDbEntity
  8
full3
 62
7
100
AcDbLine
 10
84.695984
 20
166.007424
 30
0.0
 11
84.806086
 21
166.007424
 31
0.0
  0
LINE
  5
2c3
100
AcDbEntity
  8
full3
 62
7
100
AcDbLine
 10
84.806086
 20
166.007424
 30
0.0
 11
84.885232
 21
166.007424
 31
0.0
  0
LINE
  5
2c4
100
AcDbEntity
  8
full3
 62
7
100
AcDbLine
 10
84.885232
 20
166.007424
 30
0.0
 11
84.932933
 21
166.007424
 31
0.0
  0
LINE
  5
2c5
100
AcDbEntity
  8
full3
 62
7
100
AcDbLine
 10
84.932933
 20
166.007424
 30
0.0
 11
84.948860
 21
166.007424
 31
0.0
  0
SPLINE
  5
2c6
100
AcDbEntity
  8
full3
 62
7
100
AcDbSpline
 70
8
 71
3
 72
8
 73
4
 74
0
 40
0
 40
0
 40
0
 40
0
 40
1
 40
1
 40
1
 40
1
 10
84.948860
 20
166.007424
 30
0.0
 10
84.938415
 20
166.007424
 30
0.0
 10
84.927970
 20
166.007424
 30
0.0
 10
84.917524
 20
166.007424
 30
0.0
  0
SPLINE
  5
2c7
100
AcDbEntity
  8
full3
 62
7
100
AcDbSpline
 70
8
 71
3
 72
8
 73
4
 74
0
 40
0
 40
0
 40
0
 40
0
 40
1
 40
1
 40
1
 40
1
 10
84.917524
 20
166.007424
 30
0.0
 10
84.886322
 20
166.007424
 30
0.0
 10
84.855120
 20
166.007424
 30
0.0
 10
84.823917
 20
166.007424
 30
0.0
  0
SPLINE
  5
2c8
100
AcDbEntity
  8
full3
 62
7
100
AcDbSpline
 70
8
 71
3
 72
8
 73
4
 74
0
 40
0
 40
0
 40
0
 40
0
 40
1
 40
1
 40
1
 40
1
 10
84.823917
 20
166.007424
 30
0.0
 10
84.772349
 20
166.007424
 30
0.0
 10
84.720781
 20
166.007424
 30
0.0
 10
84.669213
 20
166.007424
 30
0.0
  0
SPLINE
  5
2c9
100
AcDbEntity
  8
full3
 62
7
100
AcDbSpline
 70
8
 71
3
 72
8
 73
4
 74
0
 40
0
 40
0
 40
0
 40
0
 40
1
 40
1
 40
1
 40
1
 10
84.669213
 20
166.007424
 30
0.0
 10
84.597924
 20
166.007424
 30
0.0
 10
84.526636
 20
166.007424
 30
0.0
 10
84.455347
 20
166.007424
 30
0.0
  0
SPLINE
  5
2ca
100
AcDbEntity
  8
full3
 62
7
100
AcDbSpline
 70
8
 71
3
 72
8
 73
4
 74
0
 40
0
 40
0
 40
0
 40
0
 40
1
 40
1
 40
1
 40
1
 10
84.455347
 20
166.007424
 30
0.0
 10
84.365240
 20
166.007424
 30
0.0
 10
84.275135
 20
166.007424
 30
0.0
 10
84.185029
 20
166.007424
 30
0.0
  0
SPLINE
  5
2cb
100
AcDbEntity
  8
full3
 62
7
100
AcDbSpline
 70
8
 71
3
 72
8
 73
4
 74
0
 40
0
 40
0
 40
0
 40
0
 40
1
 40
1
 40
1
 40
1
 10
84.185029
 20
166.007424
 30
0.0
 10
84.077235
 20
166.007424
 30
0.0
 10
83.969441
 20
166.007424
 30
0.0
 10
83.861648
 20
166.007424
 30
0.0
  0
SPLINE
  5
2cc
100
AcDbEntity
  8
full3
 62
7
100
AcDbSpline
 70
8
 71
3
 72
8
 73
4
 74
0
 40
0
 40
0
 40
0
 40
0
 40
1
 40
1
 40
1
 40
1
 10
83.861648
 20
166.007424
 30
0.0
 10
83.737522
 20
166.007424
 30
0.0
 10
83.613393
 20
166.007424
 30
0.0
 10
83.489260
 20
166.007424
 30
0.0
  0
SPLINE
  5
2cd
100
AcDbEntity
  8
full3
 62
7
100
AcDbSpline
 70
8
 71
3
 72
8
 73
4
 74
0
 40
0
 40
0
 40
0
 40
0
 40
1
 40
1
 40
1
 40
1
 10
83.489260
 20
166.007424
 30
0.0
 10
83.350364
 20
166.007424
 30
0.0
 10
83.211467
 20
166.007424
 30
0.0
 10
83.072571
 20
166.007424
 30
0.0
  0
SPLINE
  5
2ce
100
AcDbEntity
  8
full3
 62
7
100
AcDbSpline
 70
8
 71
3
 72
8
 73
4
 74
0
 40
0
 40
0
 40
0
 40
0
 40
1
 40
1
 40
1
 40
1
 10
83.072571
 20
166.007424
 30
0.0
 10
82.920644
 20
166.007424
 30
0.0
 10
82.768721
 20
166.007424
 30
0.0
 10
82.616802
 20
166.007424
 30
0.0
  0
SPLINE
  5
2cf
100
AcDbEntity
  8
full3
 62
7
100
AcDbSpline
 70
8
 71
3
 72
8
 73
4
 74
0
 40
0
 40
0
 40
0
 40
0
 40
1
 40
1
 40
1
 40
1
 10
82.616802
 20
166.007424
 30
0.0
 10
82.453766
 20
166.007424
 30
0.0
 10
82.290730
 20
166.007424
 30
0.0
 10
82.127694
 20
166.007424
 30
0.0
  0
SPLINE
  5
2d0
100
AcDbEntity
  8
full3
 62
7
100
AcDbSpline
 70
8
 71
3
 72
8
 73
4
 74
0
 40
0
 40
0
 40
0
 40
0
 40
1
 40
1
 40
1
 40
1
 10
82.127694
 20
166.007424
 30
0.0
 10
81.955595
 20
166.007424
 30
0.0
 10
81.783496
 20
166.007424
 30
0.0
 10
81.611396
 20
166.007424
 30
0.0
  0
SPLINE
  5
2d1
100
AcDbEntity
  8
full3
 62
7
100
AcDbSpline
 70
8
 71
3
 72
8
 73
4
 74
0
 40
0
 40
0
 40
0
 40
0
 40
1
 40
1
 40
1
 40
1
 10
81.611396
 20
166.007424
 30
0.0
 10
81.432394
 20
166.007424
 30
0.0
 10
81.253391
 20
166.007424
 30
0.0
 10
81.074388
 20
166.007424
 30
0.0
  0
SPLINE
  5
2d2
100
AcDbEntity
  8
full3
 62
7
100
AcDbSpline
 70
8
 71
3
 72
8
 73
4
 74
0
 40
0
 40
0
 40
0
 40
0
 40
1
 40
1
 40
1
 40
1
 10
81.074388
 20
166.007424
 30
0.0
 10
80.708408
 20
166.007424
 30
0.0
 10
80.338774
 20
166.007424
 30
0.0
 10
79.965489
 20
166.007424
 30
0.0
  0
LINE
  5
2d3
100
AcDbEntity
  8
full3
 62
7
100
AcDbLine
 10
79.965489
 20
166.007424
 30
0.0
 11
79.407528
 21
166.007424
 31
0.0
  0
LINE
  5
2d4
100
AcDbEntity
  8
full3
 62
7
100
AcDbLine
 10
79.407528
 20
166.007424
 30
0.0
 11
78.856589
 21
166.007424
 31
0.0
  0
LINE
  5
2d5
100
AcDbEntity
  8
full3
 62
7
100
AcDbLine
 10
78.856589
 20
166.007424
 30
0.0
 11
78.319581
 21
166.007424
 31
0.0
  0
LINE
  5
2d6
100
AcDbEntity
  8
full3
 62
7
100
AcDbLine
 10
78.319581
 20
166.007424
 30
0.0
 11
77.803284
 21
166.007424
 31
0.0
  0
LINE
  5
2d7
100
AcDbEntity
  8
full3
 62
7
100
AcDbLine
 10
77.803284
 20
166.007424
 30
0.0
 11
77.314176
 21
166.007424
 31
0.0
  0
LINE
  5
2d8
100
AcDbEntity
  8
full3
 62
7
100
AcDbLine
 10
77.314176
 20
166.007424
 30
0.0
 11
76.858406
 21
166.007424
 31
0.0
  0
LINE
  5
2d9
100
AcDbEntity
  8
full3
 62
7
100
AcDbLine
 10
76.858406
 20
166.007424
 30
0.0
 11
76.441717
 21
166.007424
 31
0.0
  0
LINE
  5
2da
100
AcDbEntity
  8
full3
 62
7
100
AcDbLine
 10
76.441717
 20
166.007424
 30
0.0
 11
76.069329
 21
166.007424
 31
0.0
  0
LINE
  5
2db
100
AcDbEntity
  8
full3
 62
7
100
AcDbLine
 10
76.069329
 20
166.007424
 30
0.0
 11
75.745949
 21
166.007424
 31
0.0
  0
LINE
  5
2dc
100
AcDbEntity
  8
full3
 62
7
100
AcDbLine
 10
75.745949
 20
166.007424
 30
0.0
 11
75.475631
 21
166.007424
 31
0.0
  0
LINE
  5
2dd
100
AcDbEntity
  8
full3
 62
7
100
AcDbLine
 10
75.475631
 20
166.007424
 30
0.0
 11
75.261764
 21
166.007424
 31
0.0
  0
LINE
  5
2de
100
AcDbEntity
  8
full3
 62
7
100
AcDbLine
 10
75.261764
 20
166.007424
 30
0.0
 11
75.107060
 21
166.007424
 31
0.0
  0
LINE
  5
2df
100
AcDbEntity
  8
full3
 62
7
100
AcDbLine
 10
75.107060
 20
166.007424
 30
0.0
 11
75.013453
 21
166.007424
 31
0.0
  0
LINE
  5
2e0
100
AcDbEntity
  8
full3
 62
7
100
AcDbLine
 10
75.013453
 20
166.007424
 30
0.0
 11
74.982117
 21
166.007424
 31
0.0
  0
LINE
  5
2e1
100
AcDbEntity
  8
full3
 62
7
100
AcDbLine
 10
74.982117
 20
166.007424
 30
0.0
 11
74.998044
 21
166.007424
 31
0.0
  0
LINE
  5
2e2
100
AcDbEntity
  8
full3
 62
7
100
AcDbLine
 10
74.998044
 20
166.007424
 30
0.0
 11
75.045745
 21
166.007424
 31
0.0
  0
LINE
  5
2e3
100
AcDbEntity
  8
full3
 62
7
100
AcDbLine
 10
75.045745
 20
166.007424
 30
0.0
 11
75.124891
 21
166.007424
 31
0.0
  0
LINE
  5
2e4
100
AcDbEntity
  8
full3
 62
7
100
AcDbLine
 10
75.124891
 20
166.007424
 30
0.0
 11
75.234994
 21
166.007424
 31
0.0
  0
LINE
  5
2e5
100
AcDbEntity
  8
full3
 62
7
100
AcDbLine
 10
75.234994
 20
166.007424
 30
0.0
 11
75.375335
 21
166.007424
 31
0.0
  0
LINE
  5
2e6
100
AcDbEntity
  8
full3
 62
7
100
AcDbLine
 10
75.375335
 20
166.007424
 30
0.0
 11
75.545039
 21
166.007424
 31
0.0
  0
LINE
  5
2e7
100
AcDbEntity
  8
full3
 62
7
100
AcDbLine
 10
75.545039
 20
166.007424
 30
0.0
 11
75.742998
 21
166.007424
 31
0.0
  0
LINE
  5
2e8
100
AcDbEntity
  8
full3
 62
7
100
AcDbLine
 10
75.742998
 20
166.007424
 30
0.0
 11
75.967958
 21
166.007424
 31
0.0
  0
LINE
  5
2e9
100
AcDbEntity
  8
full3
 62
7
100
AcDbLine
 10
75.967958
 20
166.007424
 30
0.0
 11
76.218472
 21
166.007424
 31
0.0
  0
LINE
  5
2ea
100
AcDbEntity
  8
full3
 62
7
100
AcDbLine
 10
76.218472
 20
166.007424
 30
0.0
 11
76.492956
 21
166.007424
 31
0.0
  0
LINE
  5
2eb
100
AcDbEntity
  8
full3
 62
7
100
AcDbLine
 10
76.492956
 20
166.007424
 30
0.0
 11
76.789636
 21
166.007424
 31
0.0
  0
LINE
  5
2ec
100
AcDbEntity
  8
full3
 62
7
100
AcDbLine
 10
76.789636
 20
166.007424
 30
0.0
 11
77.106618
 21
166.007424
 31
0.0
  0
LINE
  5
2ed
100
AcDbEntity
  8
full3
 62
7
100
AcDbLine
 10
77.106618
 20
166.007424
 30
0.0
 11
77.441889
 21
166.007424
 31
0.0
  0
LINE
  5
2ee
100
AcDbEntity
  8
full3
 62
7
100
AcDbLine
 10
77.441889
 20
166.007424
 30
0.0
 11
77.793287
 21
166.007424
 31
0.0
  0
SPLINE
  5
2ef
100
AcDbEntity
  8
full3
 62
7
100
AcDbSpline
 70
8
 71
3
 72
8
 73
4
 74
0
 40
0
 40
0
 40
0
 40
0
 40
1
 40
1
 40
1
 40
1
 10
79.965489
 20
166.007424
 30
0.0
 10
80.043603
 20
166.007424
 30
0.0
 10
80.121718
 20
166.007424
 30
0.0
 10
80.199832
 20
166.007424
 30
0.0
  0
SPLINE
  5
2f0
100
AcDbEntity
  8
full3
 62
7
100
AcDbSpline
 70
8
 71
3
 72
8
 73
4
 74
0
 40
0
 40
0
 40
0
 40
0
 40
1
 40
1
 40
1
 40
1
 10
80.199832
 20
166.007424
 30
0.0
 10
80.355191
 20
166.007424
 30
0.0
 10
80.507503
 20
166.007424
 30
0.0
 10
80.656768
 20
166.007424
 30
0.0
  0
SPLINE
  5
2f1
100
AcDbEntity
  8
full3
 62
7
100
AcDbSpline
 70
8
 71
3
 72
8
 73
4
 74
0
 40
0
 40
0
 40
0
 40
0
 40
1
 40
1
 40
1
 40
1
 10
80.656768
 20
166.007424
 30
0.0
 10
80.729050
 20
166.007424
 30
0.0
 10
80.801332
 20
166.007424
 30
0.0
 10
80.873614
 20
166.007424
 30
0.0
  0
SPLINE
  5
2f2
100
AcDbEntity
  8
full3
 62
7
100
AcDbSpline
 70
8
 71
3
 72
8
 73
4
 74
0
 40
0
 40
0
 40
0
 40
0
 40
1
 40
1
 40
1
 40
1
 10
80.873614
 20
166.007424
 30
0.0
 10
80.942089
 20
166.007424
 30
0.0
 10
81.010565
 20
166.007424
 30
0.0
 10
81.079043
 20
166.007424
 30
0.0
  0
SPLINE
  5
2f3
100
AcDbEntity
  8
full3
 62
7
100
AcDbSpline
 70
8
 71
3
 72
8
 73
4
 74
0
 40
0
 40
0
 40
0
 40
0
 40
1
 40
1
 40
1
 40
1
 10
81.079043
 20
166.007424
 30
0.0
 10
81.142850
 20
166.007424
 30
0.0
 10
81.206657
 20
166.007424
 30
0.0
 10
81.270464
 20
166.007424
 30
0.0
  0
SPLINE
  5
2f4
100
AcDbEntity
  8
full3
 62
7
100
AcDbSpline
 70
8
 71
3
 72
8
 73
4
 74
0
 40
0
 40
0
 40
0
 40
0
 40
1
 40
1
 40
1
 40
1
 10
81.270464
 20
166.007424
 30
0.0
 10
81.328802
 20
166.007424
 30
0.0
 10
81.387138
 20
166.007424
 30
0.0
 10
81.445470
 20
166.007424
 30
0.0
  0
SPLINE
  5
2f5
100
AcDbEntity
  8
full3
 62
7
100
AcDbSpline
 70
8
 71
3
 72
8
 73
4
 74
0
 40
0
 40
0
 40
0
 40
0
 40
1
 40
1
 40
1
 40
1
 10
81.445470
 20
166.007424
 30
0.0
 10
81.497609
 20
166.007424
 30
0.0
 10
81.549746
 20
166.007424
 30
0.0
 10
81.601878
 20
166.007424
 30
0.0
  0
SPLINE
  5
2f6
100
AcDbEntity
  8
full3
 62
7
100
AcDbSpline
 70
8
 71
3
 72
8
 73
4
 74
0
 40
0
 40
0
 40
0
 40
0
 40
1
 40
1
 40
1
 40
1
 10
81.601878
 20
166.007424
 30
0.0
 10
81.647147
 20
166.007424
 30
0.0
 10
81.692419
 20
166.007424
 30
0.0
 10
81.737695
 20
166.007424
 30
0.0
  0
SPLINE
  5
2f7
100
AcDbEntity
  8
full3
 62
7
100
AcDbSpline
 70
8
 71
3
 72
8
 73
4
 74
0
 40
0
 40
0
 40
0
 40
0
 40
1
 40
1
 40
1
 40
1
 10
81.737695
 20
166.007424
 30
0.0
 10
81.775542
 20
166.007424
 30
0.0
 10
81.813385
 20
166.007424
 30
0.0
 10
81.851226
 20
166.007424
 30
0.0
  0
SPLINE
  5
2f8
100
AcDbEntity
  8
full3
 62
7
100
AcDbSpline
 70
8
 71
3
 72
8
 73
4
 74
0
 40
0
 40
0
 40
0
 40
0
 40
1
 40
1
 40
1
 40
1
 10
81.851226
 20
166.007424
 30
0.0
 10
81.881166
 20
166.007424
 30
0.0
 10
81.911106
 20
166.007424
 30
0.0
 10
81.941047
 20
166.007424
 30
0.0
  0
SPLINE
  5
2f9
100
AcDbEntity
  8
full3
 62
7
100
AcDbSpline
 70
8
 71
3
 72
8
 73
4
 74
0
 40
0
 40
0
 40
0
 40
0
 40
1
 40
1
 40
1
 40
1
 10
81.941047
 20
166.007424
 30
0.0
 10
81.962707
 20
166.007424
 30
0.0
 10
81.984369
 20
166.007424
 30
0.0
 10
82.006030
 20
166.007424
 30
0.0
  0
SPLINE
  5
2fa
100
AcDbEntity
  8
full3
 62
7
100
AcDbSpline
 70
8
 71
3
 72
8
 73
4
 74
0
 40
0
 40
0
 40
0
 40
0
 40
1
 40
1
 40
1
 40
1
 10
82.006030
 20
166.007424
 30
0.0
 10
82.019133
 20
166.007424
 30
0.0
 10
82.032239
 20
166.007424
 30
0.0
 10
82.045348
 20
166.007424
 30
0.0
  0
SPLINE
  5
2fb
100
AcDbEntity
  8
full3
 62
7
100
AcDbSpline
 70
8
 71
3
 72
8
 73
4
 74
0
 40
0
 40
0
 40
0
 40
0
 40
1
 40
1
 40
1
 40
1
 10
82.045348
 20
166.007424
 30
0.0
 10
82.049734
 20
166.007424
 30
0.0
 10
82.054119
 20
166.007424
 30
0.0
 10
82.058505
 20
166.007424
 30
0.0
  0
LINE
  5
2fc
100
AcDbEntity
  8
full3
 62
7
100
AcDbLine
 10
82.058505
 20
166.007424
 30
0.0
 11
82.006030
 21
166.007424
 31
0.0
  0
LINE
  5
2fd
100
AcDbEntity
  8
full3
 62
7
100
AcDbLine
 10
82.006030
 20
166.007424
 30
0.0
 11
81.851226
 21
166.007424
 31
0.0
  0
LINE
  5
2fe
100
AcDbEntity
  8
full3
 62
7
100
AcDbLine
 10
81.851226
 20
166.007424
 30
0.0
 11
81.601878
 21
166.007424
 31
0.0
  0
LINE
  5
2ff
100
AcDbEntity
  8
full3
 62
7
100
AcDbLine
 10
81.601878
 20
166.007424
 30
0.0
 11
81.270464
 21
166.007424
 31
0.0
  0
LINE
  5
300
100
AcDbEntity
  8
full3
 62
7
100
AcDbLine
 10
81.270464
 20
166.007424
 30
0.0
 11
80.873614
 21
166.007424
 31
0.0
  0
LINE
  5
301
100
AcDbEntity
  8
full3
 62
7
100
AcDbLine
 10
80.873614
 20
166.007424
 30
0.0
 11
80.431229
 21
166.007424
 31
0.0
  0
LINE
  5
302
100
AcDbEntity
  8
full3
 62
7
100
AcDbLine
 10
80.431229
 20
166.007424
 30
0.0
 11
79.965489
 21
166.007424
 31
0.0
  0
LINE
  5
303
100
AcDbEntity
  8
full3
 62
7
100
AcDbLine
 10
79.965489
 20
166.007424
 30
0.0
 11
79.499749
 21
166.007424
 31
0.0
  0
LINE
  5
304
100
AcDbEntity
  8
full3
 62
7
100
AcDbLine
 10
79.499749
 20
166.007424
 30
0.0
 11
79.057363
 21
166.007424
 31
0.0
  0
LINE
  5
305
100
AcDbEntity
  8
full3
 62
7
100
AcDbLine
 10
79.057363
 20
166.007424
 30
0.0
 11
78.660513
 21
166.007424
 31
0.0
  0
LINE
  5
306
100
AcDbEntity
  8
full3
 62
7
100
AcDbLine
 10
78.660513
 20
166.007424
 30
0.0
 11
78.329099
 21
166.007424
 31
0.0
  0
LINE
  5
307
100
AcDbEntity
  8
full3
 62
7
100
AcDbLine
 10
78.329099
 20
166.007424
 30
0.0
 11
78.079751
 21
166.007424
 31
0.0
  0
LINE
  5
308
100
AcDbEntity
  8
full3
 62
7
100
AcDbLine
 10
78.079751
 20
166.007424
 30
0.0
 11
77.924948
 21
166.007424
 31
0.0
  0
LINE
  5
309
100
AcDbEntity
  8
full3
 62
7
100
AcDbLine
 10
77.924948
 20
166.007424
 30
0.0
 11
77.872473
 21
166.007424
 31
0.0
  0
SPLINE
  5
30a
100
AcDbEntity
  8
full3
 62
7
100
AcDbSpline
 70
8
 71
3
 72
8
 73
4
 74
0
 40
0
 40
0
 40
0
 40
0
 40
1
 40
1
 40
1
 40
1
 10
77.872473
 20
166.007424
 30
0.0
 10
77.876858
 20
166.007424
 30
0.0
 10
77.881243
 20
166.007424
 30
0.0
 10
77.885629
 20
166.007424
 30
0.0
  0
SPLINE
  5
30b
100
AcDbEntity
  8
full3
 62
7
100
AcDbSpline
 70
8
 71
3
 72
8
 73
4
 74
0
 40
0
 40
0
 40
0
 40
0
 40
1
 40
1
 40
1
 40
1
 10
77.885629
 20
166.007424
 30
0.0
 10
77.898738
 20
166.007424
 30
0.0
 10
77.911844
 20
166.007424
 30
0.0
 10
77.924948
 20
166.007424
 30
0.0
  0
SPLINE
  5
30c
100
AcDbEntity
  8
full3
 62
7
100
AcDbSpline
 70
8
 71
3
 72
8
 73
4
 74
0
 40
0
 40
0
 40
0
 40
0
 40
1
 40
1
 40
1
 40
1
 10
77.924948
 20
166.007424
 30
0.0
 10
77.946608
 20
166.007424
 30
0.0
 10
77.968270
 20
166.007424
 30
0.0
 10
77.989931
 20
166.007424
 30
0.0
  0
SPLINE
  5
30d
100
AcDbEntity
  8
full3
 62
7
100
AcDbSpline
 70
8
 71
3
 72
8
 73
4
 74
0
 40
0
 40
0
 40
0
 40
0
 40
1
 40
1
 40
1
 40
1
 10
77.989931
 20
166.007424
 30
0.0
 10
78.019871
 20
166.007424
 30
0.0
 10
78.049811
 20
166.007424
 30
0.0
 10
78.079751
 20
166.007424
 30
0.0
  0
SPLINE
  5
30e
100
AcDbEntity
  8
full3
 62
7
100
AcDbSpline
 70
8
 71
3
 72
8
 73
4
 74
0
 40
0
 40
0
 40
0
 40
0
 40
1
 40
1
 40
1
 40
1
 10
78.079751
 20
166.007424
 30
0.0
 10
78.117592
 20
166.007424
 30
0.0
 10
78.155435
 20
166.007424
 30
0.0
 10
78.193282
 20
166.007424
 30
0.0
  0
SPLINE
  5
30f
100
AcDbEntity
  8
full3
 62
7
100
AcDbSpline
 70
8
 71
3
 72
8
 73
4
 74
0
 40
0
 40
0
 40
0
 40
0
 40
1
 40
1
 40
1
 40
1
 10
78.193282
 20
166.007424
 30
0.0
 10
78.238558
 20
166.007424
 30
0.0
 10
78.283830
 20
166.007424
 30
0.0
 10
78.329099
 20
166.007424
 30
0.0
  0
SPLINE
  5
310
100
AcDbEntity
  8
full3
 62
7
100
AcDbSpline
 70
8
 71
3
 72
8
 73
4
 74
0
 40
0
 40
0
 40
0
 40
0
 40
1
 40
1
 40
1
 40
1
 10
78.329099
 20
166.007424
 30
0.0
 10
78.381232
 20
166.007424
 30
0.0
 10
78.433368
 20
166.007424
 30
0.0
 10
78.485507
 20
166.007424
 30
0.0
  0
SPLINE
  5
311
100
AcDbEntity
  8
full3
 62
7
100
AcDbSpline
 70
8
 71
3
 72
8
 73
4
 74
0
 40
0
 40
0
 40
0
 40
0
 40
1
 40
1
 40
1
 40
1
 10
78.485507
 20
166.007424
 30
0.0
 10
78.543839
 20
166.007424
 30
0.0
 10
78.602174
 20
166.007424
 30
0.0
 10
78.660513
 20
166.007424
 30
0.0
  0
SPLINE
  5
312
100
AcDbEntity
  8
full3
 62
7
100
AcDbSpline
 70
8
 71
3
 72
8
 73
4
 74
0
 40
0
 40
0
 40
0
 40
0
 40
1
 40
1
 40
1
 40
1
 10
78.660513
 20
166.007424
 30
0.0
 10
78.724320
 20
166.007424
 30
0.0
 10
78.788127
 20
166.007424
 30
0.0
 10
78.851934
 20
166.007424
 30
0.0
  0
SPLINE
  5
313
100
AcDbEntity
  8
full3
 62
7
100
AcDbSpline
 70
8
 71
3
 72
8
 73
4
 74
0
 40
0
 40
0
 40
0
 40
0
 40
1
 40
1
 40
1
 40
1
 10
78.851934
 20
166.007424
 30
0.0
 10
78.920413
 20
166.007424
 30
0.0
 10
78.988889
 20
166.007424
 30
0.0
 10
79.057363
 20
166.007424
 30
0.0
  0
SPLINE
  5
314
100
AcDbEntity
  8
full3
 62
7
100
AcDbSpline
 70
8
 71
3
 72
8
 73
4
 74
0
 40
0
 40
0
 40
0
 40
0
 40
1
 40
1
 40
1
 40
1
 10
79.057363
 20
166.007424
 30
0.0
 10
79.129645
 20
166.007424
 30
0.0
 10
79.201927
 20
166.007424
 30
0.0
 10
79.274209
 20
166.007424
 30
0.0
  0
SPLINE
  5
315
100
AcDbEntity
  8
full3
 62
7
100
AcDbSpline
 70
8
 71
3
 72
8
 73
4
 74
0
 40
0
 40
0
 40
0
 40
0
 40
1
 40
1
 40
1
 40
1
 10
79.274209
 20
166.007424
 30
0.0
 10
79.349389
 20
166.007424
 30
0.0
 10
79.424569
 20
166.007424
 30
0.0
 10
79.499749
 20
166.007424
 30
0.0
  0
SPLINE
  5
316
100
AcDbEntity
  8
full3
 62
7
100
AcDbSpline
 70
8
 71
3
 72
8
 73
4
 74
0
 40
0
 40
0
 40
0
 40
0
 40
1
 40
1
 40
1
 40
1
 10
79.499749
 20
166.007424
 30
0.0
 10
79.653462
 20
166.007424
 30
0.0
 10
79.808708
 20
166.007424
 30
0.0
 10
79.965489
 20
166.007424
 30
0.0
  0
LINE
  5
317
100
AcDbEntity
  8
full3
 62
7
100
AcDbLine
 10
74.982117
 20
166.007424
 30
0.0
 11
74.982117
 21
171.490324
 31
0.0
  0
LINE
  5
318
100
AcDbEntity
  8
full3
 62
7
100
AcDbLine
 10
84.948860
 20
166.007424
 30
0.0
 11
84.948860
 21
171.490324
 31
0.0
  0
LINE
  5
319
100
AcDbEntity
  8
full3
 62
7
100
AcDbLine
 10
54.649962
 20
161.446649
 30
0.0
 11
105.281015
 21
161.446649
 31
0.0
  0
LINE
  5
31a
100
AcDbEntity
  8
full3
 62
7
100
AcDbLine
 10
77.872473
 20
166.007424
 30
0.0
 11
77.872473
 21
146.169297
 31
0.0
  0
LINE
  5
31b
100
AcDbEntity
  8
full3
 62
7
100
AcDbLine
 10
82.058505
 20
166.007424
 30
0.0
 11
82.058505
 21
146.169297
 31
0.0
  0
LINE
  5
31c
100
AcDbEntity
  8
full3
 62
7
100
AcDbLine
 10
84.948860
 20
166.007424
 30
0.0
 11
84.948860
 21
171.490324
 31
0.0
  0
LINE
  5
31d
100
AcDbEntity
  8
full3
 62
7
100
AcDbLine
 10
74.982117
 20
166.007424
 30
0.0
 11
74.982117
 21
171.490324
 31
0.0
  0
LINE
  5
31e
100
AcDbEntity
  8
full3
 62
7
100
AcDbLine
 10
77.872473
 20
166.007424
 30
0.0
 11
77.872473
 21
146.169297
 31
0.0
  0
LINE
  5
31f
100
AcDbEntity
  8
full3
 62
7
100
AcDbLine
 10
82.058505
 20
166.007424
 30
0.0
 11
82.058505
 21
146.169297
 31
0.0
  0
LINE
  5
320
100
AcDbEntity
  8
full3
 62
7
100
AcDbLine
 10
105.281015
 20
171.490324
 30
0.0
 11
105.281015
 21
146.169297
 31
0.0
  0
LINE
  5
321
100
AcDbEntity
  8
full3
 62
7
100
AcDbLine
 10
105.281015
 20
146.169297
 30
0.0
 11
54.649962
 21
146.169297
 31
0.0
  0
LINE
  5
322
100
AcDbEntity
  8
full3
 62
7
100
AcDbLine
 10
54.649962
 20
171.490324
 30
0.0
 11
54.649962
 21
146.169297
 31
0.0
  0
LINE
  5
323
100
AcDbEntity
  8
full3
 62
7
100
AcDbLine
 10
77.793287
 20
171.490324
 30
0.0
 11
54.649962
 21
171.490324
 31
0.0
  0
LINE
  5
324
100
AcDbEntity
  8
full3
 62
7
100
AcDbLine
 10
77.793287
 20
166.007424
 30
0.0
 11
77.793287
 21
171.490324
 31
0.0
  0
LINE
  5
325
100
AcDbEntity
  8
full3
 62
7
100
AcDbLine
 10
82.137690
 20
166.007424
 30
0.0
 11
77.793287
 21
166.007424
 31
0.0
  0
LINE
  5
326
100
AcDbEntity
  8
full3
 62
7
100
AcDbLine
 10
82.137690
 20
166.007424
 30
0.0
 11
82.137690
 21
171.490324
 31
0.0
  0
LINE
  5
327
100
AcDbEntity
  8
full3
 62
7
100
AcDbLine
 10
105.281015
 20
171.490324
 30
0.0
 11
82.137690
 21
171.490324
 31
0.0
  0
SPLINE
  5
328
100
AcDbEntity
  8
full3
 62
7
100
AcDbSpline
 70
8
 71
3
 72
8
 73
4
 74
0
 40
0
 40
0
 40
0
 40
0
 40
1
 40
1
 40
1
 40
1
 10
79.965489
 20
171.490324
 30
0.0
 10
79.216093
 20
171.490324
 30
0.0
 10
78.467816
 20
171.490324
 30
0.0
 10
77.793287
 20
171.490324
 30
0.0
  0
SPLINE
  5
329
100
AcDbEntity
  8
full3
 62
7
100
AcDbSpline
 70
8
 71
3
 72
8
 73
4
 74
0
 40
0
 40
0
 40
0
 40
0
 40
1
 40
1
 40
1
 40
1
 10
82.137690
 20
171.490324
 30
0.0
 10
81.463161
 20
171.490324
 30
0.0
 10
80.714884
 20
171.490324
 30
0.0
 10
79.965489
 20
171.490324
 30
0.0
  0
LINE
  5
32a
100
AcDbEntity
  8
full3
 62
7
100
AcDbLine
 10
77.872473
 20
166.007424
 30
0.0
 11
77.793287
 21
166.007424
 31
0.0
  0
LINE
  5
32b
100
AcDbEntity
  8
full3
 62
7
100
AcDbLine
 10
82.137690
 20
166.007424
 30
0.0
 11
82.058505
 21
166.007424
 31
0.0
  0
LINE
  5
32c
100
AcDbEntity
  8
full3
 62
7
100
AcDbLine
 10
238.760616
 20
171.490324
 30
0.0
 11
238.760616
 21
146.169297
 31
0.0
  0
LINE
  5
32d
100
AcDbEntity
  8
full3
 62
7
100
AcDbLine
 10
238.760616
 20
166.007424
 30
0.0
 11
238.760616
 21
171.490324
 31
0.0
  0
LINE
  5
32e
100
AcDbEntity
  8
full3
 62
7
100
AcDbLine
 10
238.760616
 20
166.007424
 30
0.0
 11
238.760616
 21
171.490324
 31
0.0
  0
LINE
  5
32f
100
AcDbEntity
  8
full3
 62
7
100
AcDbLine
 10
238.760616
 20
171.490324
 30
0.0
 11
175.471800
 21
171.490324
 31
0.0
  0
LINE
  5
330
100
AcDbEntity
  8
full3
 62
7
100
AcDbLine
 10
175.471800
 20
171.490324
 30
0.0
 11
175.471800
 21
146.169297
 31
0.0
  0
LINE
  5
331
100
AcDbEntity
  8
full3
 62
7
100
AcDbLine
 10
188.951321
 20
146.169297
 30
0.0
 11
175.471800
 21
146.169297
 31
0.0
  0
SPLINE
  5
332
100
AcDbEntity
  8
full3
 62
7
100
AcDbSpline
 70
8
 71
3
 72
8
 73
4
 74
0
 40
0
 40
0
 40
0
 40
0
 40
1
 40
1
 40
1
 40
1
 10
225.281095
 20
146.169297
 30
0.0
 10
223.742918
 20
155.000599
 30
0.0
 10
216.078574
 20
161.446566
 30
0.0
 10
207.116208
 20
161.446566
 30
0.0
  0
SPLINE
  5
333
100
AcDbEntity
  8
full3
 62
7
100
AcDbSpline
 70
8
 71
3
 72
8
 73
4
 74
0
 40
0
 40
0
 40
0
 40
0
 40
1
 40
1
 40
1
 40
1
 10
207.116208
 20
161.446566
 30
0.0
 10
198.153842
 20
161.446566
 30
0.0
 10
190.489498
 20
155.000599
 30
0.0
 10
188.951321
 20
146.169297
 30
0.0
  0
LINE
  5
334
100
AcDbEntity
  8
full3
 62
7
100
AcDbLine
 10
238.760616
 20
146.169297
 30
0.0
 11
225.281095
 21
146.169297
 31
0.0
  0
LINE
  5
335
100
AcDbEntity
  8
full3
 62
7
100
AcDbLine
 10
236.368598
 20
146.169297
 30
0.0
 11
236.316073
 21
146.169297
 31
0.0
  0
LINE
  5
336
100
AcDbEntity
  8
full3
 62
7
100
AcDbLine
 10
236.316073
 20
146.169297
 30
0.0
 11
236.161289
 21
146.169297
 31
0.0
  0
LINE
  5
337
100
AcDbEntity
  8
full3
 62
7
100
AcDbLine
 10
236.161289
 20
146.169297
 30
0.0
 11
235.911921
 21
146.169297
 31
0.0
  0
LINE
  5
338
100
AcDbEntity
  8
full3
 62
7
100
AcDbLine
 10
235.911921
 20
146.169297
 30
0.0
 11
235.580527
 21
146.169297
 31
0.0
  0
LINE
  5
339
100
AcDbEntity
  8
full3
 62
7
100
AcDbLine
 10
235.580527
 20
146.169297
 30
0.0
 11
235.183751
 21
146.169297
 31
0.0
  0
LINE
  5
33a
100
AcDbEntity
  8
full3
 62
7
100
AcDbLine
 10
235.183751
 20
146.169297
 30
0.0
 11
234.741328
 21
146.169297
 31
0.0
  0
LINE
  5
33b
100
AcDbEntity
  8
full3
 62
7
100
AcDbLine
 10
234.741328
 20
146.169297
 30
0.0
 11
234.275582
 21
146.169297
 31
0.0
  0
LINE
  5
33c
100
AcDbEntity
  8
full3
 62
7
100
AcDbLine
 10
234.275582
 20
146.169297
 30
0.0
 11
233.809836
 21
146.169297
 31
0.0
  0
LINE
  5
33d
100
AcDbEntity
  8
full3
 62
7
100
AcDbLine
 10
233.809836
 20
146.169297
 30
0.0
 11
233.367412
 21
146.169297
 31
0.0
  0
LINE
  5
33e
100
AcDbEntity
  8
full3
 62
7
100
AcDbLine
 10
233.367412
 20
146.169297
 30
0.0
 11
232.970636
 21
146.169297
 31
0.0
  0
LINE
  5
33f
100
AcDbEntity
  8
full3
 62
7
100
AcDbLine
 10
232.970636
 20
146.169297
 30
0.0
 11
232.639242
 21
146.169297
 31
0.0
  0
LINE
  5
340
100
AcDbEntity
  8
full3
 62
7
100
AcDbLine
 10
232.639242
 20
146.169297
 30
0.0
 11
232.389874
 21
146.169297
 31
0.0
  0
LINE
  5
341
100
AcDbEntity
  8
full3
 62
7
100
AcDbLine
 10
232.389874
 20
146.169297
 30
0.0
 11
232.235090
 21
146.169297
 31
0.0
  0
LINE
  5
342
100
AcDbEntity
  8
full3
 62
7
100
AcDbLine
 10
232.235090
 20
146.169297
 30
0.0
 11
232.182566
 21
146.169297
 31
0.0
  0
LINE
  5
343
100
AcDbEntity
  8
full3
 62
7
100
AcDbLine
 10
232.182566
 20
146.169297
 30
0.0
 11
232.235090
 21
146.169297
 31
0.0
  0
LINE
  5
344
100
AcDbEntity
  8
full3
 62
7
100
AcDbLine
 10
232.235090
 20
146.169297
 30
0.0
 11
232.389874
 21
146.169297
 31
0.0
  0
LINE
  5
345
100
AcDbEntity
  8
full3
 62
7
100
AcDbLine
 10
232.389874
 20
146.169297
 30
0.0
 11
232.639242
 21
146.169297
 31
0.0
  0
LINE
  5
346
100
AcDbEntity
  8
full3
 62
7
100
AcDbLine
 10
232.639242
 20
146.169297
 30
0.0
 11
232.970636
 21
146.169297
 31
0.0
  0
LINE
  5
347
100
AcDbEntity
  8
full3
 62
7
100
AcDbLine
 10
232.970636
 20
146.169297
 30
0.0
 11
233.367412
 21
146.169297
 31
0.0
  0
LINE
  5
348
100
AcDbEntity
  8
full3
 62
7
100
AcDbLine
 10
233.367412
 20
146.169297
 30
0.0
 11
233.809836
 21
146.169297
 31
0.0
  0
LINE
  5
349
100
AcDbEntity
  8
full3
 62
7
100
AcDbLine
 10
233.809836
 20
146.169297
 30
0.0
 11
234.275582
 21
146.169297
 31
0.0
  0
LINE
  5
34a
100
AcDbEntity
  8
full3
 62
7
100
AcDbLine
 10
234.275582
 20
146.169297
 30
0.0
 11
234.741328
 21
146.169297
 31
0.0
  0
LINE
  5
34b
100
AcDbEntity
  8
full3
 62
7
100
AcDbLine
 10
234.741328
 20
146.169297
 30
0.0
 11
235.183751
 21
146.169297
 31
0.0
  0
LINE
  5
34c
100
AcDbEntity
  8
full3
 62
7
100
AcDbLine
 10
235.183751
 20
146.169297
 30
0.0
 11
235.580527
 21
146.169297
 31
0.0
  0
LINE
  5
34d
100
AcDbEntity
  8
full3
 62
7
100
AcDbLine
 10
235.580527
 20
146.169297
 30
0.0
 11
235.911921
 21
146.169297
 31
0.0
  0
LINE
  5
34e
100
AcDbEntity
  8
full3
 62
7
100
AcDbLine
 10
235.911921
 20
146.169297
 30
0.0
 11
236.161289
 21
146.169297
 31
0.0
  0
LINE
  5
34f
100
AcDbEntity
  8
full3
 62
7
100
AcDbLine
 10
236.161289
 20
146.169297
 30
0.0
 11
236.316073
 21
146.169297
 31
0.0
  0
LINE
  5
350
100
AcDbEntity
  8
full3
 62
7
100
AcDbLine
 10
236.316073
 20
146.169297
 30
0.0
 11
236.368598
 21
146.169297
 31
0.0
  0
SPLINE
  5
351
100
AcDbEntity
  8
full3
 62
7
100
AcDbSpline
 70
8
 71
3
 72
8
 73
4
 74
0
 40
0
 40
0
 40
0
 40
0
 40
1
 40
1
 40
1
 40
1
 10
175.471800
 20
171.490324
 30
0.0
 10
175.637647
 20
171.490324
 30
0.0
 10
175.803460
 20
171.490324
 30
0.0
 10
175.969240
 20
171.490324
 30
0.0
  0
SPLINE
  5
352
100
AcDbEntity
  8
full3
 62
7
100
AcDbSpline
 70
8
 71
3
 72
8
 73
4
 74
0
 40
0
 40
0
 40
0
 40
0
 40
1
 40
1
 40
1
 40
1
 10
175.969240
 20
171.490324
 30
0.0
 10
176.183991
 20
171.490324
 30
0.0
 10
176.398774
 20
171.490324
 30
0.0
 10
176.613590
 20
171.490324
 30
0.0
  0
SPLINE
  5
353
100
AcDbEntity
  8
full3
 62
7
100
AcDbSpline
 70
8
 71
3
 72
8
 73
4
 74
0
 40
0
 40
0
 40
0
 40
0
 40
1
 40
1
 40
1
 40
1
 10
176.613590
 20
171.490324
 30
0.0
 10
176.869337
 20
171.490324
 30
0.0
 10
177.125116
 20
171.490324
 30
0.0
 10
177.380930
 20
171.490324
 30
0.0
  0
SPLINE
  5
354
100
AcDbEntity
  8
full3
 62
7
100
AcDbSpline
 70
8
 71
3
 72
8
 73
4
 74
0
 40
0
 40
0
 40
0
 40
0
 40
1
 40
1
 40
1
 40
1
 10
177.380930
 20
171.490324
 30
0.0
 10
177.668371
 20
171.490324
 30
0.0
 10
177.955779
 20
171.490324
 30
0.0
 10
178.243153
 20
171.490324
 30
0.0
  0
SPLINE
  5
355
100
AcDbEntity
  8
full3
 62
7
100
AcDbSpline
 70
8
 71
3
 72
8
 73
4
 74
0
 40
0
 40
0
 40
0
 40
0
 40
1
 40
1
 40
1
 40
1
 10
178.243153
 20
171.490324
 30
0.0
 10
178.551656
 20
171.490324
 30
0.0
 10
178.860127
 20
171.490324
 30
0.0
 10
179.168565
 20
171.490324
 30
0.0
  0
SPLINE
  5
356
100
AcDbEntity
  8
full3
 62
7
100
AcDbSpline
 70
8
 71
3
 72
8
 73
4
 74
0
 40
0
 40
0
 40
0
 40
0
 40
1
 40
1
 40
1
 40
1
 10
179.168565
 20
171.490324
 30
0.0
 10
179.805905
 20
171.490324
 30
0.0
 10
180.440089
 20
171.490324
 30
0.0
 10
181.071116
 20
171.490324
 30
0.0
  0
SPLINE
  5
357
100
AcDbEntity
  8
full3
 62
7
100
AcDbSpline
 70
8
 71
3
 72
8
 73
4
 74
0
 40
0
 40
0
 40
0
 40
0
 40
1
 40
1
 40
1
 40
1
 10
181.071116
 20
171.490324
 30
0.0
 10
181.373574
 20
171.490324
 30
0.0
 10
181.675998
 20
171.490324
 30
0.0
 10
181.978389
 20
171.490324
 30
0.0
  0
SPLINE
  5
358
100
AcDbEntity
  8
full3
 62
7
100
AcDbSpline
 70
8
 71
3
 72
8
 73
4
 74
0
 40
0
 40
0
 40
0
 40
0
 40
1
 40
1
 40
1
 40
1
 10
181.978389
 20
171.490324
 30
0.0
 10
182.255995
 20
171.490324
 30
0.0
 10
182.533569
 20
171.490324
 30
0.0
 10
182.811110
 20
171.490324
 30
0.0
  0
SPLINE
  5
359
100
AcDbEntity
  8
full3
 62
7
100
AcDbSpline
 70
8
 71
3
 72
8
 73
4
 74
0
 40
0
 40
0
 40
0
 40
0
 40
1
 40
1
 40
1
 40
1
 10
182.811110
 20
171.490324
 30
0.0
 10
183.053701
 20
171.490324
 30
0.0
 10
183.296291
 20
171.490324
 30
0.0
 10
183.538882
 20
171.490324
 30
0.0
  0
SPLINE
  5
35a
100
AcDbEntity
  8
full3
 62
7
100
AcDbSpline
 70
8
 71
3
 72
8
 73
4
 74
0
 40
0
 40
0
 40
0
 40
0
 40
1
 40
1
 40
1
 40
1
 10
183.538882
 20
171.490324
 30
0.0
 10
183.737486
 20
171.490324
 30
0.0
 10
183.936056
 20
171.490324
 30
0.0
 10
184.134594
 20
171.490324
 30
0.0
  0
SPLINE
  5
35b
100
AcDbEntity
  8
full3
 62
7
100
AcDbSpline
 70
8
 71
3
 72
8
 73
4
 74
0
 40
0
 40
0
 40
0
 40
0
 40
1
 40
1
 40
1
 40
1
 10
184.134594
 20
171.490324
 30
0.0
 10
184.281969
 20
171.490324
 30
0.0
 10
184.429310
 20
171.490324
 30
0.0
 10
184.576619
 20
171.490324
 30
0.0
  0
SPLINE
  5
35c
100
AcDbEntity
  8
full3
 62
7
100
AcDbSpline
 70
8
 71
3
 72
8
 73
4
 74
0
 40
0
 40
0
 40
0
 40
0
 40
1
 40
1
 40
1
 40
1
 10
184.576619
 20
171.490324
 30
0.0
 10
184.667246
 20
171.490324
 30
0.0
 10
184.757847
 20
171.490324
 30
0.0
 10
184.848412
 20
171.490324
 30
0.0
  0
SPLINE
  5
35d
100
AcDbEntity
  8
full3
 62
7
100
AcDbSpline
 70
8
 71
3
 72
8
 73
4
 74
0
 40
0
 40
0
 40
0
 40
0
 40
1
 40
1
 40
1
 40
1
 10
184.848412
 20
171.490324
 30
0.0
 10
184.879040
 20
171.490324
 30
0.0
 10
184.909638
 20
171.490324
 30
0.0
 10
184.940206
 20
171.490324
 30
0.0
  0
LINE
  5
35e
100
AcDbEntity
  8
full3
 62
7
100
AcDbLine
 10
184.940206
 20
171.490324
 30
0.0
 11
184.848412
 21
171.490324
 31
0.0
  0
LINE
  5
35f
100
AcDbEntity
  8
full3
 62
7
100
AcDbLine
 10
184.848412
 20
171.490324
 30
0.0
 11
184.576619
 21
171.490324
 31
0.0
  0
LINE
  5
360
100
AcDbEntity
  8
full3
 62
7
100
AcDbLine
 10
184.576619
 20
171.490324
 30
0.0
 11
184.134594
 21
171.490324
 31
0.0
  0
LINE
  5
361
100
AcDbEntity
  8
full3
 62
7
100
AcDbLine
 10
184.134594
 20
171.490324
 30
0.0
 11
183.538882
 21
171.490324
 31
0.0
  0
LINE
  5
362
100
AcDbEntity
  8
full3
 62
7
100
AcDbLine
 10
183.538882
 20
171.490324
 30
0.0
 11
182.811110
 21
171.490324
 31
0.0
  0
LINE
  5
363
100
AcDbEntity
  8
full3
 62
7
100
AcDbLine
 10
182.811110
 20
171.490324
 30
0.0
 11
181.978389
 21
171.490324
 31
0.0
  0
LINE
  5
364
100
AcDbEntity
  8
full3
 62
7
100
AcDbLine
 10
181.978389
 20
171.490324
 30
0.0
 11
181.071116
 21
171.490324
 31
0.0
  0
LINE
  5
365
100
AcDbEntity
  8
full3
 62
7
100
AcDbLine
 10
181.071116
 20
171.490324
 30
0.0
 11
180.122880
 21
171.490324
 31
0.0
  0
LINE
  5
366
100
AcDbEntity
  8
full3
 62
7
100
AcDbLine
 10
180.122880
 20
171.490324
 30
0.0
 11
179.168565
 21
171.490324
 31
0.0
  0
LINE
  5
367
100
AcDbEntity
  8
full3
 62
7
100
AcDbLine
 10
179.168565
 20
171.490324
 30
0.0
 11
178.243153
 21
171.490324
 31
0.0
  0
LINE
  5
368
100
AcDbEntity
  8
full3
 62
7
100
AcDbLine
 10
178.243153
 20
171.490324
 30
0.0
 11
177.380930
 21
171.490324
 31
0.0
  0
LINE
  5
369
100
AcDbEntity
  8
full3
 62
7
100
AcDbLine
 10
177.380930
 20
171.490324
 30
0.0
 11
176.613590
 21
171.490324
 31
0.0
  0
LINE
  5
36a
100
AcDbEntity
  8
full3
 62
7
100
AcDbLine
 10
176.613590
 20
171.490324
 30
0.0
 11
175.969240
 21
171.490324
 31
0.0
  0
LINE
  5
36b
100
AcDbEntity
  8
full3
 62
7
100
AcDbLine
 10
175.969240
 20
171.490324
 30
0.0
 11
175.471800
 21
171.490324
 31
0.0
  0
LINE
  5
36c
100
AcDbEntity
  8
full3
 62
7
100
AcDbLine
 10
229.292210
 20
171.490324
 30
0.0
 11
229.384004
 21
171.490324
 31
0.0
  0
LINE
  5
36d
100
AcDbEntity
  8
full3
 62
7
100
AcDbLine
 10
229.384004
 20
171.490324
 30
0.0
 11
229.655797
 21
171.490324
 31
0.0
  0
LINE
  5
36e
100
AcDbEntity
  8
full3
 62
7
100
AcDbLine
 10
229.655797
 20
171.490324
 30
0.0
 11
230.097822
 21
171.490324
 31
0.0
  0
LINE
  5
36f
100
AcDbEntity
  8
full3
 62
7
100
AcDbLine
 10
230.097822
 20
171.490324
 30
0.0
 11
230.693534
 21
171.490324
 31
0.0
  0
LINE
  5
370
100
AcDbEntity
  8
full3
 62
7
100
AcDbLine
 10
230.693534
 20
171.490324
 30
0.0
 11
231.421306
 21
171.490324
 31
0.0
  0
LINE
  5
371
100
AcDbEntity
  8
full3
 62
7
100
AcDbLine
 10
231.421306
 20
171.490324
 30
0.0
 11
232.254027
 21
171.490324
 31
0.0
  0
LINE
  5
372
100
AcDbEntity
  8
full3
 62
7
100
AcDbLine
 10
232.254027
 20
171.490324
 30
0.0
 11
233.161300
 21
171.490324
 31
0.0
  0
LINE
  5
373
100
AcDbEntity
  8
full3
 62
7
100
AcDbLine
 10
233.161300
 20
171.490324
 30
0.0
 11
234.109536
 21
171.490324
 31
0.0
  0
LINE
  5
374
100
AcDbEntity
  8
full3
 62
7
100
AcDbLine
 10
234.109536
 20
171.490324
 30
0.0
 11
235.063851
 21
171.490324
 31
0.0
  0
LINE
  5
375
100
AcDbEntity
  8
full3
 62
7
100
AcDbLine
 10
235.063851
 20
171.490324
 30
0.0
 11
235.989263
 21
171.490324
 31
0.0
  0
LINE
  5
376
100
AcDbEntity
  8
full3
 62
7
100
AcDbLine
 10
235.989263
 20
171.490324
 30
0.0
 11
236.851486
 21
171.490324
 31
0.0
  0
LINE
  5
377
100
AcDbEntity
  8
full3
 62
7
100
AcDbLine
 10
236.851486
 20
171.490324
 30
0.0
 11
237.618826
 21
171.490324
 31
0.0
  0
LINE
  5
378
100
AcDbEntity
  8
full3
 62
7
100
AcDbLine
 10
237.618826
 20
171.490324
 30
0.0
 11
238.263176
 21
171.490324
 31
0.0
  0
LINE
  5
379
100
AcDbEntity
  8
full3
 62
7
100
AcDbLine
 10
238.263176
 20
171.490324
 30
0.0
 11
238.760616
 21
171.490324
 31
0.0
  0
SPLINE
  5
37a
100
AcDbEntity
  8
full3
 62
7
100
AcDbSpline
 70
8
 71
3
 72
8
 73
4
 74
0
 40
0
 40
0
 40
0
 40
0
 40
1
 40
1
 40
1
 40
1
 10
238.760616
 20
171.490324
 30
0.0
 10
238.594769
 20
171.490324
 30
0.0
 10
238.428955
 20
171.490324
 30
0.0
 10
238.263176
 20
171.490324
 30
0.0
  0
SPLINE
  5
37b
100
AcDbEntity
  8
full3
 62
7
100
AcDbSpline
 70
8
 71
3
 72
8
 73
4
 74
0
 40
0
 40
0
 40
0
 40
0
 40
1
 40
1
 40
1
 40
1
 10
238.263176
 20
171.490324
 30
0.0
 10
238.048425
 20
171.490324
 30
0.0
 10
237.833642
 20
171.490324
 30
0.0
 10
237.618826
 20
171.490324
 30
0.0
  0
SPLINE
  5
37c
100
AcDbEntity
  8
full3
 62
7
100
AcDbSpline
 70
8
 71
3
 72
8
 73
4
 74
0
 40
0
 40
0
 40
0
 40
0
 40
1
 40
1
 40
1
 40
1
 10
237.618826
 20
171.490324
 30
0.0
 10
237.363079
 20
171.490324
 30
0.0
 10
237.107300
 20
171.490324
 30
0.0
 10
236.851486
 20
171.490324
 30
0.0
  0
SPLINE
  5
37d
100
AcDbEntity
  8
full3
 62
7
100
AcDbSpline
 70
8
 71
3
 72
8
 73
4
 74
0
 40
0
 40
0
 40
0
 40
0
 40
1
 40
1
 40
1
 40
1
 10
236.851486
 20
171.490324
 30
0.0
 10
236.564045
 20
171.490324
 30
0.0
 10
236.276637
 20
171.490324
 30
0.0
 10
235.989263
 20
171.490324
 30
0.0
  0
SPLINE
  5
37e
100
AcDbEntity
  8
full3
 62
7
100
AcDbSpline
 70
8
 71
3
 72
8
 73
4
 74
0
 40
0
 40
0
 40
0
 40
0
 40
1
 40
1
 40
1
 40
1
 10
235.989263
 20
171.490324
 30
0.0
 10
235.680760
 20
171.490324
 30
0.0
 10
235.372289
 20
171.490324
 30
0.0
 10
235.063851
 20
171.490324
 30
0.0
  0
SPLINE
  5
37f
100
AcDbEntity
  8
full3
 62
7
100
AcDbSpline
 70
8
 71
3
 72
8
 73
4
 74
0
 40
0
 40
0
 40
0
 40
0
 40
1
 40
1
 40
1
 40
1
 10
235.063851
 20
171.490324
 30
0.0
 10
234.426511
 20
171.490324
 30
0.0
 10
233.792327
 20
171.490324
 30
0.0
 10
233.161300
 20
171.490324
 30
0.0
  0
SPLINE
  5
380
100
AcDbEntity
  8
full3
 62
7
100
AcDbSpline
 70
8
 71
3
 72
8
 73
4
 74
0
 40
0
 40
0
 40
0
 40
0
 40
1
 40
1
 40
1
 40
1
 10
233.161300
 20
171.490324
 30
0.0
 10
232.858842
 20
171.490324
 30
0.0
 10
232.556418
 20
171.490324
 30
0.0
 10
232.254027
 20
171.490324
 30
0.0
  0
SPLINE
  5
381
100
AcDbEntity
  8
full3
 62
7
100
AcDbSpline
 70
8
 71
3
 72
8
 73
4
 74
0
 40
0
 40
0
 40
0
 40
0
 40
1
 40
1
 40
1
 40
1
 10
232.254027
 20
171.490324
 30
0.0
 10
231.976421
 20
171.490324
 30
0.0
 10
231.698847
 20
171.490324
 30
0.0
 10
231.421306
 20
171.490324
 30
0.0
  0
SPLINE
  5
382
100
AcDbEntity
  8
full3
 62
7
100
AcDbSpline
 70
8
 71
3
 72
8
 73
4
 74
0
 40
0
 40
0
 40
0
 40
0
 40
1
 40
1
 40
1
 40
1
 10
231.421306
 20
171.490324
 30
0.0
 10
231.178715
 20
171.490324
 30
0.0
 10
230.936125
 20
171.490324
 30
0.0
 10
230.693534
 20
171.490324
 30
0.0
  0
SPLINE
  5
383
100
AcDbEntity
  8
full3
 62
7
100
AcDbSpline
 70
8
 71
3
 72
8
 73
4
 74
0
 40
0
 40
0
 40
0
 40
0
 40
1
 40
1
 40
1
 40
1
 10
230.693534
 20
171.490324
 30
0.0
 10
230.494930
 20
171.490324
 30
0.0
 10
230.296360
 20
171.490324
 30
0.0
 10
230.097822
 20
171.490324
 30
0.0
  0
SPLINE
  5
384
100
AcDbEntity
  8
full3
 62
7
100
AcDbSpline
 70
8
 71
3
 72
8
 73
4
 74
0
 40
0
 40
0
 40
0
 40
0
 40
1
 40
1
 40
1
 40
1
 10
230.097822
 20
171.490324
 30
0.0
 10
229.950447
 20
171.490324
 30
0.0
 10
229.803106
 20
171.490324
 30
0.0
 10
229.655797
 20
171.490324
 30
0.0
  0
SPLINE
  5
385
100
AcDbEntity
  8
full3
 62
7
100
AcDbSpline
 70
8
 71
3
 72
8
 73
4
 74
0
 40
0
 40
0
 40
0
 40
0
 40
1
 40
1
 40
1
 40
1
 10
229.655797
 20
171.490324
 30
0.0
 10
229.565169
 20
171.490324
 30
0.0
 10
229.474569
 20
171.490324
 30
0.0
 10
229.384004
 20
171.490324
 30
0.0
  0
SPLINE
  5
386
100
AcDbEntity
  8
full3
 62
7
100
AcDbSpline
 70
8
 71
3
 72
8
 73
4
 74
0
 40
0
 40
0
 40
0
 40
0
 40
1
 40
1
 40
1
 40
1
 10
229.384004
 20
171.490324
 30
0.0
 10
229.353376
 20
171.490324
 30
0.0
 10
229.322778
 20
171.490324
 30
0.0
 10
229.292210
 20
171.490324
 30
0.0
  0
LINE
  5
387
100
AcDbEntity
  8
full3
 62
7
100
AcDbLine
 10
229.292210
 20
166.007424
 30
0.0
 11
229.384004
 21
166.007424
 31
0.0
  0
LINE
  5
388
100
AcDbEntity
  8
full3
 62
7
100
AcDbLine
 10
229.384004
 20
166.007424
 30
0.0
 11
229.655797
 21
166.007424
 31
0.0
  0
LINE
  5
389
100
AcDbEntity
  8
full3
 62
7
100
AcDbLine
 10
229.655797
 20
166.007424
 30
0.0
 11
230.097822
 21
166.007424
 31
0.0
  0
LINE
  5
38a
100
AcDbEntity
  8
full3
 62
7
100
AcDbLine
 10
230.097822
 20
166.007424
 30
0.0
 11
230.693534
 21
166.007424
 31
0.0
  0
LINE
  5
38b
100
AcDbEntity
  8
full3
 62
7
100
AcDbLine
 10
230.693534
 20
166.007424
 30
0.0
 11
231.421306
 21
166.007424
 31
0.0
  0
LINE
  5
38c
100
AcDbEntity
  8
full3
 62
7
100
AcDbLine
 10
231.421306
 20
166.007424
 30
0.0
 11
232.254027
 21
166.007424
 31
0.0
  0
LINE
  5
38d
100
AcDbEntity
  8
full3
 62
7
100
AcDbLine
 10
232.254027
 20
166.007424
 30
0.0
 11
233.161300
 21
166.007424
 31
0.0
  0
LINE
  5
38e
100
AcDbEntity
  8
full3
 62
7
100
AcDbLine
 10
233.161300
 20
166.007424
 30
0.0
 11
234.109536
 21
166.007424
 31
0.0
  0
LINE
  5
38f
100
AcDbEntity
  8
full3
 62
7
100
AcDbLine
 10
234.109536
 20
166.007424
 30
0.0
 11
235.063851
 21
166.007424
 31
0.0
  0
LINE
  5
390
100
AcDbEntity
  8
full3
 62
7
100
AcDbLine
 10
235.063851
 20
166.007424
 30
0.0
 11
235.989263
 21
166.007424
 31
0.0
  0
LINE
  5
391
100
AcDbEntity
  8
full3
 62
7
100
AcDbLine
 10
235.989263
 20
166.007424
 30
0.0
 11
236.851486
 21
166.007424
 31
0.0
  0
LINE
  5
392
100
AcDbEntity
  8
full3
 62
7
100
AcDbLine
 10
236.851486
 20
166.007424
 30
0.0
 11
237.618826
 21
166.007424
 31
0.0
  0
LINE
  5
393
100
AcDbEntity
  8
full3
 62
7
100
AcDbLine
 10
237.618826
 20
166.007424
 30
0.0
 11
238.263176
 21
166.007424
 31
0.0
  0
LINE
  5
394
100
AcDbEntity
  8
full3
 62
7
100
AcDbLine
 10
238.263176
 20
166.007424
 30
0.0
 11
238.760616
 21
166.007424
 31
0.0
  0
LINE
  5
395
100
AcDbEntity
  8
full3
 62
7
100
AcDbLine
 10
229.292210
 20
171.490324
 30
0.0
 11
229.292210
 21
166.007424
 31
0.0
  0
SPLINE
  5
396
100
AcDbEntity
  8
full3
 62
7
100
AcDbSpline
 70
8
 71
3
 72
8
 73
4
 74
0
 40
0
 40
0
 40
0
 40
0
 40
1
 40
1
 40
1
 40
1
 10
238.760616
 20
166.007424
 30
0.0
 10
238.594769
 20
166.007424
 30
0.0
 10
238.428955
 20
166.007424
 30
0.0
 10
238.263176
 20
166.007424
 30
0.0
  0
SPLINE
  5
397
100
AcDbEntity
  8
full3
 62
7
100
AcDbSpline
 70
8
 71
3
 72
8
 73
4
 74
0
 40
0
 40
0
 40
0
 40
0
 40
1
 40
1
 40
1
 40
1
 10
238.263176
 20
166.007424
 30
0.0
 10
238.048425
 20
166.007424
 30
0.0
 10
237.833642
 20
166.007424
 30
0.0
 10
237.618826
 20
166.007424
 30
0.0
  0
SPLINE
  5
398
100
AcDbEntity
  8
full3
 62
7
100
AcDbSpline
 70
8
 71
3
 72
8
 73
4
 74
0
 40
0
 40
0
 40
0
 40
0
 40
1
 40
1
 40
1
 40
1
 10
237.618826
 20
166.007424
 30
0.0
 10
237.363079
 20
166.007424
 30
0.0
 10
237.107300
 20
166.007424
 30
0.0
 10
236.851486
 20
166.007424
 30
0.0
  0
SPLINE
  5
399
100
AcDbEntity
  8
full3
 62
7
100
AcDbSpline
 70
8
 71
3
 72
8
 73
4
 74
0
 40
0
 40
0
 40
0
 40
0
 40
1
 40
1
 40
1
 40
1
 10
236.851486
 20
166.007424
 30
0.0
 10
236.564045
 20
166.007424
 30
0.0
 10
236.276637
 20
166.007424
 30
0.0
 10
235.989263
 20
166.007424
 30
0.0
  0
SPLINE
  5
39a
100
AcDbEntity
  8
full3
 62
7
100
AcDbSpline
 70
8
 71
3
 72
8
 73
4
 74
0
 40
0
 40
0
 40
0
 40
0
 40
1
 40
1
 40
1
 40
1
 10
235.989263
 20
166.007424
 30
0.0
 10
235.680760
 20
166.007424
 30
0.0
 10
235.372289
 20
166.007424
 30
0.0
 10
235.063851
 20
166.007424
 30
0.0
  0
SPLINE
  5
39b
100
AcDbEntity
  8
full3
 62
7
100
AcDbSpline
 70
8
 71
3
 72
8
 73
4
 74
0
 40
0
 40
0
 40
0
 40
0
 40
1
 40
1
 40
1
 40
1
 10
235.063851
 20
166.007424
 30
0.0
 10
234.426511
 20
166.007424
 30
0.0
 10
233.792327
 20
166.007424
 30
0.0
 10
233.161300
 20
166.007424
 30
0.0
  0
SPLINE
  5
39c
100
AcDbEntity
  8
full3
 62
7
100
AcDbSpline
 70
8
 71
3
 72
8
 73
4
 74
0
 40
0
 40
0
 40
0
 40
0
 40
1
 40
1
 40
1
 40
1
 10
233.161300
 20
166.007424
 30
0.0
 10
232.858842
 20
166.007424
 30
0.0
 10
232.556418
 20
166.007424
 30
0.0
 10
232.254027
 20
166.007424
 30
0.0
  0
SPLINE
  5
39d
100
AcDbEntity
  8
full3
 62
7
100
AcDbSpline
 70
8
 71
3
 72
8
 73
4
 74
0
 40
0
 40
0
 40
0
 40
0
 40
1
 40
1
 40
1
 40
1
 10
232.254027
 20
166.007424
 30
0.0
 10
231.976421
 20
166.007424
 30
0.0
 10
231.698847
 20
166.007424
 30
0.0
 10
231.421306
 20
166.007424
 30
0.0
  0
SPLINE
  5
39e
100
AcDbEntity
  8
full3
 62
7
100
AcDbSpline
 70
8
 71
3
 72
8
 73
4
 74
0
 40
0
 40
0
 40
0
 40
0
 40
1
 40
1
 40
1
 40
1
 10
231.421306
 20
166.007424
 30
0.0
 10
231.178715
 20
166.007424
 30
0.0
 10
230.936125
 20
166.007424
 30
0.0
 10
230.693534
 20
166.007424
 30
0.0
  0
SPLINE
  5
39f
100
AcDbEntity
  8
full3
 62
7
100
AcDbSpline
 70
8
 71
3
 72
8
 73
4
 74
0
 40
0
 40
0
 40
0
 40
0
 40
1
 40
1
 40
1
 40
1
 10
230.693534
 20
166.007424
 30
0.0
 10
230.494930
 20
166.007424
 30
0.0
 10
230.296360
 20
166.007424
 30
0.0
 10
230.097822
 20
166.007424
 30
0.0
  0
SPLINE
  5
3a0
100
AcDbEntity
  8
full3
 62
7
100
AcDbSpline
 70
8
 71
3
 72
8
 73
4
 74
0
 40
0
 40
0
 40
0
 40
0
 40
1
 40
1
 40
1
 40
1
 10
230.097822
 20
166.007424
 30
0.0
 10
229.950447
 20
166.007424
 30
0.0
 10
229.803106
 20
166.007424
 30
0.0
 10
229.655797
 20
166.007424
 30
0.0
  0
SPLINE
  5
3a1
100
AcDbEntity
  8
full3
 62
7
100
AcDbSpline
 70
8
 71
3
 72
8
 73
4
 74
0
 40
0
 40
0
 40
0
 40
0
 40
1
 40
1
 40
1
 40
1
 10
229.655797
 20
166.007424
 30
0.0
 10
229.565169
 20
166.007424
 30
0.0
 10
229.474569
 20
166.007424
 30
0.0
 10
229.384004
 20
166.007424
 30
0.0
  0
SPLINE
  5
3a2
100
AcDbEntity
  8
full3
 62
7
100
AcDbSpline
 70
8
 71
3
 72
8
 73
4
 74
0
 40
0
 40
0
 40
0
 40
0
 40
1
 40
1
 40
1
 40
1
 10
229.384004
 20
166.007424
 30
0.0
 10
229.353376
 20
166.007424
 30
0.0
 10
229.322778
 20
166.007424
 30
0.0
 10
229.292210
 20
166.007424
 30
0.0
  0
LINE
  5
3a3
100
AcDbEntity
  8
full3
 62
7
100
AcDbLine
 10
236.368598
 20
166.007424
 30
0.0
 11
236.316073
 21
166.007424
 31
0.0
  0
LINE
  5
3a4
100
AcDbEntity
  8
full3
 62
7
100
AcDbLine
 10
236.316073
 20
166.007424
 30
0.0
 11
236.161289
 21
166.007424
 31
0.0
  0
LINE
  5
3a5
100
AcDbEntity
  8
full3
 62
7
100
AcDbLine
 10
236.161289
 20
166.007424
 30
0.0
 11
235.911921
 21
166.007424
 31
0.0
  0
LINE
  5
3a6
100
AcDbEntity
  8
full3
 62
7
100
AcDbLine
 10
235.911921
 20
166.007424
 30
0.0
 11
235.580527
 21
166.007424
 31
0.0
  0
LINE
  5
3a7
100
AcDbEntity
  8
full3
 62
7
100
AcDbLine
 10
235.580527
 20
166.007424
 30
0.0
 11
235.183751
 21
166.007424
 31
0.0
  0
LINE
  5
3a8
100
AcDbEntity
  8
full3
 62
7
100
AcDbLine
 10
235.183751
 20
166.007424
 30
0.0
 11
234.741328
 21
166.007424
 31
0.0
  0
LINE
  5
3a9
100
AcDbEntity
  8
full3
 62
7
100
AcDbLine
 10
234.741328
 20
166.007424
 30
0.0
 11
234.275582
 21
166.007424
 31
0.0
  0
LINE
  5
3aa
100
AcDbEntity
  8
full3
 62
7
100
AcDbLine
 10
234.275582
 20
166.007424
 30
0.0
 11
233.809836
 21
166.007424
 31
0.0
  0
LINE
  5
3ab
100
AcDbEntity
  8
full3
 62
7
100
AcDbLine
 10
233.809836
 20
166.007424
 30
0.0
 11
233.367412
 21
166.007424
 31
0.0
  0
LINE
  5
3ac
100
AcDbEntity
  8
full3
 62
7
100
AcDbLine
 10
233.367412
 20
166.007424
 30
0.0
 11
232.970636
 21
166.007424
 31
0.0
  0
LINE
  5
3ad
100
AcDbEntity
  8
full3
 62
7
100
AcDbLine
 10
232.970636
 20
166.007424
 30
0.0
 11
232.639242
 21
166.007424
 31
0.0
  0
LINE
  5
3ae
100
AcDbEntity
  8
full3
 62
7
100
AcDbLine
 10
232.639242
 20
166.007424
 30
0.0
 11
232.389874
 21
166.007424
 31
0.0
  0
LINE
  5
3af
100
AcDbEntity
  8
full3
 62
7
100
AcDbLine
 10
232.389874
 20
166.007424
 30
0.0
 11
232.235090
 21
166.007424
 31
0.0
  0
LINE
  5
3b0
100
AcDbEntity
  8
full3
 62
7
100
AcDbLine
 10
232.235090
 20
166.007424
 30
0.0
 11
232.182566
 21
166.007424
 31
0.0
  0
LINE
  5
3b1
100
AcDbEntity
  8
full3
 62
7
100
AcDbLine
 10
232.182566
 20
166.007424
 30
0.0
 11
232.235090
 21
166.007424
 31
0.0
  0
LINE
  5
3b2
100
AcDbEntity
  8
full3
 62
7
100
AcDbLine
 10
232.235090
 20
166.007424
 30
0.0
 11
232.389874
 21
166.007424
 31
0.0
  0
LINE
  5
3b3
100
AcDbEntity
  8
full3
 62
7
100
AcDbLine
 10
232.389874
 20
166.007424
 30
0.0
 11
232.639242
 21
166.007424
 31
0.0
  0
LINE
  5
3b4
100
AcDbEntity
  8
full3
 62
7
100
AcDbLine
 10
232.639242
 20
166.007424
 30
0.0
 11
232.970636
 21
166.007424
 31
0.0
  0
LINE
  5
3b5
100
AcDbEntity
  8
full3
 62
7
100
AcDbLine
 10
232.970636
 20
166.007424
 30
0.0
 11
233.367412
 21
166.007424
 31
0.0
  0
LINE
  5
3b6
100
AcDbEntity
  8
full3
 62
7
100
AcDbLine
 10
233.367412
 20
166.007424
 30
0.0
 11
233.809836
 21
166.007424
 31
0.0
  0
LINE
  5
3b7
100
AcDbEntity
  8
full3
 62
7
100
AcDbLine
 10
233.809836
 20
166.007424
 30
0.0
 11
234.275582
 21
166.007424
 31
0.0
  0
LINE
  5
3b8
100
AcDbEntity
  8
full3
 62
7
100
AcDbLine
 10
234.275582
 20
166.007424
 30
0.0
 11
234.741328
 21
166.007424
 31
0.0
  0
LINE
  5
3b9
100
AcDbEntity
  8
full3
 62
7
100
AcDbLine
 10
234.741328
 20
166.007424
 30
0.0
 11
235.183751
 21
166.007424
 31
0.0
  0
LINE
  5
3ba
100
AcDbEntity
  8
full3
 62
7
100
AcDbLine
 10
235.183751
 20
166.007424
 30
0.0
 11
235.580527
 21
166.007424
 31
0.0
  0
LINE
  5
3bb
100
AcDbEntity
  8
full3
 62
7
100
AcDbLine
 10
235.580527
 20
166.007424
 30
0.0
 11
235.911921
 21
166.007424
 31
0.0
  0
LINE
  5
3bc
100
AcDbEntity
  8
full3
 62
7
100
AcDbLine
 10
235.911921
 20
166.007424
 30
0.0
 11
236.161289
 21
166.007424
 31
0.0
  0
LINE
  5
3bd
100
AcDbEntity
  8
full3
 62
7
100
AcDbLine
 10
236.161289
 20
166.007424
 30
0.0
 11
236.316073
 21
166.007424
 31
0.0
  0
LINE
  5
3be
100
AcDbEntity
  8
full3
 62
7
100
AcDbLine
 10
236.316073
 20
166.007424
 30
0.0
 11
236.368598
 21
166.007424
 31
0.0
  0
LINE
  5
3bf
100
AcDbEntity
  8
full3
 62
7
100
AcDbLine
 10
175.471800
 20
166.007424
 30
0.0
 11
175.471800
 21
171.490324
 31
0.0
  0
LINE
  5
3c0
100
AcDbEntity
  8
full3
 62
7
100
AcDbLine
 10
175.471800
 20
166.007424
 30
0.0
 11
175.471800
 21
171.490324
 31
0.0
  0
LINE
  5
3c1
100
AcDbEntity
  8
full3
 62
7
100
AcDbLine
 10
177.863818
 20
146.169297
 30
0.0
 11
177.916343
 21
146.169297
 31
0.0
  0
LINE
  5
3c2
100
AcDbEntity
  8
full3
 62
7
100
AcDbLine
 10
177.916343
 20
146.169297
 30
0.0
 11
178.071127
 21
146.169297
 31
0.0
  0
LINE
  5
3c3
100
AcDbEntity
  8
full3
 62
7
100
AcDbLine
 10
178.071127
 20
146.169297
 30
0.0
 11
178.320495
 21
146.169297
 31
0.0
  0
LINE
  5
3c4
100
AcDbEntity
  8
full3
 62
7
100
AcDbLine
 10
178.320495
 20
146.169297
 30
0.0
 11
178.651889
 21
146.169297
 31
0.0
  0
LINE
  5
3c5
100
AcDbEntity
  8
full3
 62
7
100
AcDbLine
 10
178.651889
 20
146.169297
 30
0.0
 11
179.048665
 21
146.169297
 31
0.0
  0
LINE
  5
3c6
100
AcDbEntity
  8
full3
 62
7
100
AcDbLine
 10
179.048665
 20
146.169297
 30
0.0
 11
179.491088
 21
146.169297
 31
0.0
  0
LINE
  5
3c7
100
AcDbEntity
  8
full3
 62
7
100
AcDbLine
 10
179.491088
 20
146.169297
 30
0.0
 11
179.956834
 21
146.169297
 31
0.0
  0
LINE
  5
3c8
100
AcDbEntity
  8
full3
 62
7
100
AcDbLine
 10
179.956834
 20
146.169297
 30
0.0
 11
180.422580
 21
146.169297
 31
0.0
  0
LINE
  5
3c9
100
AcDbEntity
  8
full3
 62
7
100
AcDbLine
 10
180.422580
 20
146.169297
 30
0.0
 11
180.865004
 21
146.169297
 31
0.0
  0
LINE
  5
3ca
100
AcDbEntity
  8
full3
 62
7
100
AcDbLine
 10
180.865004
 20
146.169297
 30
0.0
 11
181.261780
 21
146.169297
 31
0.0
  0
LINE
  5
3cb
100
AcDbEntity
  8
full3
 62
7
100
AcDbLine
 10
181.261780
 20
146.169297
 30
0.0
 11
181.593174
 21
146.169297
 31
0.0
  0
LINE
  5
3cc
100
AcDbEntity
  8
full3
 62
7
100
AcDbLine
 10
181.593174
 20
146.169297
 30
0.0
 11
181.842542
 21
146.169297
 31
0.0
  0
LINE
  5
3cd
100
AcDbEntity
  8
full3
 62
7
100
AcDbLine
 10
181.842542
 20
146.169297
 30
0.0
 11
181.997326
 21
146.169297
 31
0.0
  0
LINE
  5
3ce
100
AcDbEntity
  8
full3
 62
7
100
AcDbLine
 10
181.997326
 20
146.169297
 30
0.0
 11
182.049850
 21
146.169297
 31
0.0
  0
LINE
  5
3cf
100
AcDbEntity
  8
full3
 62
7
100
AcDbLine
 10
182.049850
 20
146.169297
 30
0.0
 11
181.997326
 21
146.169297
 31
0.0
  0
LINE
  5
3d0
100
AcDbEntity
  8
full3
 62
7
100
AcDbLine
 10
181.997326
 20
146.169297
 30
0.0
 11
181.842542
 21
146.169297
 31
0.0
  0
LINE
  5
3d1
100
AcDbEntity
  8
full3
 62
7
100
AcDbLine
 10
181.842542
 20
146.169297
 30
0.0
 11
181.593174
 21
146.169297
 31
0.0
  0
LINE
  5
3d2
100
AcDbEntity
  8
full3
 62
7
100
AcDbLine
 10
181.593174
 20
146.169297
 30
0.0
 11
181.261780
 21
146.169297
 31
0.0
  0
LINE
  5
3d3
100
AcDbEntity
  8
full3
 62
7
100
AcDbLine
 10
181.261780
 20
146.169297
 30
0.0
 11
180.865004
 21
146.169297
 31
0.0
  0
LINE
  5
3d4
100
AcDbEntity
  8
full3
 62
7
100
AcDbLine
 10
180.865004
 20
146.169297
 30
0.0
 11
180.422580
 21
146.169297
 31
0.0
  0
LINE
  5
3d5
100
AcDbEntity
  8
full3
 62
7
100
AcDbLine
 10
180.422580
 20
146.169297
 30
0.0
 11
179.956834
 21
146.169297
 31
0.0
  0
LINE
  5
3d6
100
AcDbEntity
  8
full3
 62
7
100
AcDbLine
 10
179.956834
 20
146.169297
 30
0.0
 11
179.491088
 21
146.169297
 31
0.0
  0
LINE
  5
3d7
100
AcDbEntity
  8
full3
 62
7
100
AcDbLine
 10
179.491088
 20
146.169297
 30
0.0
 11
179.048665
 21
146.169297
 31
0.0
  0
LINE
  5
3d8
100
AcDbEntity
  8
full3
 62
7
100
AcDbLine
 10
179.048665
 20
146.169297
 30
0.0
 11
178.651889
 21
146.169297
 31
0.0
  0
LINE
  5
3d9
100
AcDbEntity
  8
full3
 62
7
100
AcDbLine
 10
178.651889
 20
146.169297
 30
0.0
 11
178.320495
 21
146.169297
 31
0.0
  0
LINE
  5
3da
100
AcDbEntity
  8
full3
 62
7
100
AcDbLine
 10
178.320495
 20
146.169297
 30
0.0
 11
178.071127
 21
146.169297
 31
0.0
  0
LINE
  5
3db
100
AcDbEntity
  8
full3
 62
7
100
AcDbLine
 10
178.071127
 20
146.169297
 30
0.0
 11
177.916343
 21
146.169297
 31
0.0
  0
LINE
  5
3dc
100
AcDbEntity
  8
full3
 62
7
100
AcDbLine
 10
177.916343
 20
146.169297
 30
0.0
 11
177.863818
 21
146.169297
 31
0.0
  0
LINE
  5
3dd
100
AcDbEntity
  8
full3
 62
7
100
AcDbLine
 10
236.368598
 20
166.007424
 30
0.0
 11
236.368598
 21
146.169297
 31
0.0
  0
LINE
  5
3de
100
AcDbEntity
  8
full3
 62
7
100
AcDbLine
 10
184.940206
 20
171.490324
 30
0.0
 11
184.940206
 21
166.007424
 31
0.0
  0
SPLINE
  5
3df
100
AcDbEntity
  8
full3
 62
7
100
AcDbSpline
 70
8
 71
3
 72
8
 73
4
 74
0
 40
0
 40
0
 40
0
 40
0
 40
1
 40
1
 40
1
 40
1
 10
175.471800
 20
166.007424
 30
0.0
 10
175.637647
 20
166.007424
 30
0.0
 10
175.803460
 20
166.007424
 30
0.0
 10
175.969240
 20
166.007424
 30
0.0
  0
SPLINE
  5
3e0
100
AcDbEntity
  8
full3
 62
7
100
AcDbSpline
 70
8
 71
3
 72
8
 73
4
 74
0
 40
0
 40
0
 40
0
 40
0
 40
1
 40
1
 40
1
 40
1
 10
175.969240
 20
166.007424
 30
0.0
 10
176.183991
 20
166.007424
 30
0.0
 10
176.398774
 20
166.007424
 30
0.0
 10
176.613590
 20
166.007424
 30
0.0
  0
SPLINE
  5
3e1
100
AcDbEntity
  8
full3
 62
7
100
AcDbSpline
 70
8
 71
3
 72
8
 73
4
 74
0
 40
0
 40
0
 40
0
 40
0
 40
1
 40
1
 40
1
 40
1
 10
176.613590
 20
166.007424
 30
0.0
 10
176.869337
 20
166.007424
 30
0.0
 10
177.125116
 20
166.007424
 30
0.0
 10
177.380930
 20
166.007424
 30
0.0
  0
SPLINE
  5
3e2
100
AcDbEntity
  8
full3
 62
7
100
AcDbSpline
 70
8
 71
3
 72
8
 73
4
 74
0
 40
0
 40
0
 40
0
 40
0
 40
1
 40
1
 40
1
 40
1
 10
177.380930
 20
166.007424
 30
0.0
 10
177.668371
 20
166.007424
 30
0.0
 10
177.955779
 20
166.007424
 30
0.0
 10
178.243153
 20
166.007424
 30
0.0
  0
SPLINE
  5
3e3
100
AcDbEntity
  8
full3
 62
7
100
AcDbSpline
 70
8
 71
3
 72
8
 73
4
 74
0
 40
0
 40
0
 40
0
 40
0
 40
1
 40
1
 40
1
 40
1
 10
178.243153
 20
166.007424
 30
0.0
 10
178.551656
 20
166.007424
 30
0.0
 10
178.860127
 20
166.007424
 30
0.0
 10
179.168565
 20
166.007424
 30
0.0
  0
SPLINE
  5
3e4
100
AcDbEntity
  8
full3
 62
7
100
AcDbSpline
 70
8
 71
3
 72
8
 73
4
 74
0
 40
0
 40
0
 40
0
 40
0
 40
1
 40
1
 40
1
 40
1
 10
179.168565
 20
166.007424
 30
0.0
 10
179.805905
 20
166.007424
 30
0.0
 10
180.440089
 20
166.007424
 30
0.0
 10
181.071116
 20
166.007424
 30
0.0
  0
SPLINE
  5
3e5
100
AcDbEntity
  8
full3
 62
7
100
AcDbSpline
 70
8
 71
3
 72
8
 73
4
 74
0
 40
0
 40
0
 40
0
 40
0
 40
1
 40
1
 40
1
 40
1
 10
181.071116
 20
166.007424
 30
0.0
 10
181.373574
 20
166.007424
 30
0.0
 10
181.675998
 20
166.007424
 30
0.0
 10
181.978389
 20
166.007424
 30
0.0
  0
SPLINE
  5
3e6
100
AcDbEntity
  8
full3
 62
7
100
AcDbSpline
 70
8
 71
3
 72
8
 73
4
 74
0
 40
0
 40
0
 40
0
 40
0
 40
1
 40
1
 40
1
 40
1
 10
181.978389
 20
166.007424
 30
0.0
 10
182.255995
 20
166.007424
 30
0.0
 10
182.533569
 20
166.007424
 30
0.0
 10
182.811110
 20
166.007424
 30
0.0
  0
SPLINE
  5
3e7
100
AcDbEntity
  8
full3
 62
7
100
AcDbSpline
 70
8
 71
3
 72
8
 73
4
 74
0
 40
0
 40
0
 40
0
 40
0
 40
1
 40
1
 40
1
 40
1
 10
182.811110
 20
166.007424
 30
0.0
 10
183.053701
 20
166.007424
 30
0.0
 10
183.296291
 20
166.007424
 30
0.0
 10
183.538882
 20
166.007424
 30
0.0
  0
SPLINE
  5
3e8
100
AcDbEntity
  8
full3
 62
7
100
AcDbSpline
 70
8
 71
3
 72
8
 73
4
 74
0
 40
0
 40
0
 40
0
 40
0
 40
1
 40
1
 40
1
 40
1
 10
183.538882
 20
166.007424
 30
0.0
 10
183.737486
 20
166.007424
 30
0.0
 10
183.936056
 20
166.007424
 30
0.0
 10
184.134594
 20
166.007424
 30
0.0
  0
SPLINE
  5
3e9
100
AcDbEntity
  8
full3
 62
7
100
AcDbSpline
 70
8
 71
3
 72
8
 73
4
 74
0
 40
0
 40
0
 40
0
 40
0
 40
1
 40
1
 40
1
 40
1
 10
184.134594
 20
166.007424
 30
0.0
 10
184.281969
 20
166.007424
 30
0.0
 10
184.429310
 20
166.007424
 30
0.0
 10
184.576619
 20
166.007424
 30
0.0
  0
SPLINE
  5
3ea
100
AcDbEntity
  8
full3
 62
7
100
AcDbSpline
 70
8
 71
3
 72
8
 73
4
 74
0
 40
0
 40
0
 40
0
 40
0
 40
1
 40
1
 40
1
 40
1
 10
184.576619
 20
166.007424
 30
0.0
 10
184.667246
 20
166.007424
 30
0.0
 10
184.757847
 20
166.007424
 30
0.0
 10
184.848412
 20
166.007424
 30
0.0
  0
SPLINE
  5
3eb
100
AcDbEntity
  8
full3
 62
7
100
AcDbSpline
 70
8
 71
3
 72
8
 73
4
 74
0
 40
0
 40
0
 40
0
 40
0
 40
1
 40
1
 40
1
 40
1
 10
184.848412
 20
166.007424
 30
0.0
 10
184.879040
 20
166.007424
 30
0.0
 10
184.909638
 20
166.007424
 30
0.0
 10
184.940206
 20
166.007424
 30
0.0
  0
LINE
  5
3ec
100
AcDbEntity
  8
full3
 62
7
100
AcDbLine
 10
184.940206
 20
166.007424
 30
0.0
 11
184.848412
 21
166.007424
 31
0.0
  0
LINE
  5
3ed
100
AcDbEntity
  8
full3
 62
7
100
AcDbLine
 10
184.848412
 20
166.007424
 30
0.0
 11
184.576619
 21
166.007424
 31
0.0
  0
LINE
  5
3ee
100
AcDbEntity
  8
full3
 62
7
100
AcDbLine
 10
184.576619
 20
166.007424
 30
0.0
 11
184.134594
 21
166.007424
 31
0.0
  0
LINE
  5
3ef
100
AcDbEntity
  8
full3
 62
7
100
AcDbLine
 10
184.134594
 20
166.007424
 30
0.0
 11
183.538882
 21
166.007424
 31
0.0
  0
LINE
  5
3f0
100
AcDbEntity
  8
full3
 62
7
100
AcDbLine
 10
183.538882
 20
166.007424
 30
0.0
 11
182.811110
 21
166.007424
 31
0.0
  0
LINE
  5
3f1
100
AcDbEntity
  8
full3
 62
7
100
AcDbLine
 10
182.811110
 20
166.007424
 30
0.0
 11
181.978389
 21
166.007424
 31
0.0
  0
LINE
  5
3f2
100
AcDbEntity
  8
full3
 62
7
100
AcDbLine
 10
181.978389
 20
166.007424
 30
0.0
 11
181.071116
 21
166.007424
 31
0.0
  0
LINE
  5
3f3
100
AcDbEntity
  8
full3
 62
7
100
AcDbLine
 10
181.071116
 20
166.007424
 30
0.0
 11
180.122880
 21
166.007424
 31
0.0
  0
LINE
  5
3f4
100
AcDbEntity
  8
full3
 62
7
100
AcDbLine
 10
180.122880
 20
166.007424
 30
0.0
 11
179.168565
 21
166.007424
 31
0.0
  0
LINE
  5
3f5
100
AcDbEntity
  8
full3
 62
7
100
AcDbLine
 10
179.168565
 20
166.007424
 30
0.0
 11
178.243153
 21
166.007424
 31
0.0
  0
LINE
  5
3f6
100
AcDbEntity
  8
full3
 62
7
100
AcDbLine
 10
178.243153
 20
166.007424
 30
0.0
 11
177.380930
 21
166.007424
 31
0.0
  0
LINE
  5
3f7
100
AcDbEntity
  8
full3
 62
7
100
AcDbLine
 10
177.380930
 20
166.007424
 30
0.0
 11
176.613590
 21
166.007424
 31
0.0
  0
LINE
  5
3f8
100
AcDbEntity
  8
full3
 62
7
100
AcDbLine
 10
176.613590
 20
166.007424
 30
0.0
 11
175.969240
 21
166.007424
 31
0.0
  0
LINE
  5
3f9
100
AcDbEntity
  8
full3
 62
7
100
AcDbLine
 10
175.969240
 20
166.007424
 30
0.0
 11
175.471800
 21
166.007424
 31
0.0
  0
LINE
  5
3fa
100
AcDbEntity
  8
full3
 62
7
100
AcDbLine
 10
177.863818
 20
166.007424
 30
0.0
 11
177.916343
 21
166.007424
 31
0.0
  0
LINE
  5
3fb
100
AcDbEntity
  8
full3
 62
7
100
AcDbLine
 10
177.916343
 20
166.007424
 30
0.0
 11
178.071127
 21
166.007424
 31
0.0
  0
LINE
  5
3fc
100
AcDbEntity
  8
full3
 62
7
100
AcDbLine
 10
178.071127
 20
166.007424
 30
0.0
 11
178.320495
 21
166.007424
 31
0.0
  0
LINE
  5
3fd
100
AcDbEntity
  8
full3
 62
7
100
AcDbLine
 10
178.320495
 20
166.007424
 30
0.0
 11
178.651889
 21
166.007424
 31
0.0
  0
LINE
  5
3fe
100
AcDbEntity
  8
full3
 62
7
100
AcDbLine
 10
178.651889
 20
166.007424
 30
0.0
 11
179.048665
 21
166.007424
 31
0.0
  0
LINE
  5
3ff
100
AcDbEntity
  8
full3
 62
7
100
AcDbLine
 10
179.048665
 20
166.007424
 30
0.0
 11
179.491088
 21
166.007424
 31
0.0
  0
LINE
  5
400
100
AcDbEntity
  8
full3
 62
7
100
AcDbLine
 10
179.491088
 20
166.007424
 30
0.0
 11
179.956834
 21
166.007424
 31
0.0
  0
LINE
  5
401
100
AcDbEntity
  8
full3
 62
7
100
AcDbLine
 10
179.956834
 20
166.007424
 30
0.0
 11
180.422580
 21
166.007424
 31
0.0
  0
LINE
  5
402
100
AcDbEntity
  8
full3
 62
7
100
AcDbLine
 10
180.422580
 20
166.007424
 30
0.0
 11
180.865004
 21
166.007424
 31
0.0
  0
LINE
  5
403
100
AcDbEntity
  8
full3
 62
7
100
AcDbLine
 10
180.865004
 20
166.007424
 30
0.0
 11
181.261780
 21
166.007424
 31
0.0
  0
LINE
  5
404
100
AcDbEntity
  8
full3
 62
7
100
AcDbLine
 10
181.261780
 20
166.007424
 30
0.0
 11
181.593174
 21
166.007424
 31
0.0
  0
LINE
  5
405
100
AcDbEntity
  8
full3
 62
7
100
AcDbLine
 10
181.593174
 20
166.007424
 30
0.0
 11
181.842542
 21
166.007424
 31
0.0
  0
LINE
  5
406
100
AcDbEntity
  8
full3
 62
7
100
AcDbLine
 10
181.842542
 20
166.007424
 30
0.0
 11
181.997326
 21
166.007424
 31
0.0
  0
LINE
  5
407
100
AcDbEntity
  8
full3
 62
7
100
AcDbLine
 10
181.997326
 20
166.007424
 30
0.0
 11
182.049850
 21
166.007424
 31
0.0
  0
LINE
  5
408
100
AcDbEntity
  8
full3
 62
7
100
AcDbLine
 10
182.049850
 20
166.007424
 30
0.0
 11
181.997326
 21
166.007424
 31
0.0
  0
LINE
  5
409
100
AcDbEntity
  8
full3
 62
7
100
AcDbLine
 10
181.997326
 20
166.007424
 30
0.0
 11
181.842542
 21
166.007424
 31
0.0
  0
LINE
  5
40a
100
AcDbEntity
  8
full3
 62
7
100
AcDbLine
 10
181.842542
 20
166.007424
 30
0.0
 11
181.593174
 21
166.007424
 31
0.0
  0
LINE
  5
40b
100
AcDbEntity
  8
full3
 62
7
100
AcDbLine
 10
181.593174
 20
166.007424
 30
0.0
 11
181.261780
 21
166.007424
 31
0.0
  0
LINE
  5
40c
100
AcDbEntity
  8
full3
 62
7
100
AcDbLine
 10
181.261780
 20
166.007424
 30
0.0
 11
180.865004
 21
166.007424
 31
0.0
  0
LINE
  5
40d
100
AcDbEntity
  8
full3
 62
7
100
AcDbLine
 10
180.865004
 20
166.007424
 30
0.0
 11
180.422580
 21
166.007424
 31
0.0
  0
LINE
  5
40e
100
AcDbEntity
  8
full3
 62
7
100
AcDbLine
 10
180.422580
 20
166.007424
 30
0.0
 11
179.956834
 21
166.007424
 31
0.0
  0
LINE
  5
40f
100
AcDbEntity
  8
full3
 62
7
100
AcDbLine
 10
179.956834
 20
166.007424
 30
0.0
 11
179.491088
 21
166.007424
 31
0.0
  0
LINE
  5
410
100
AcDbEntity
  8
full3
 62
7
100
AcDbLine
 10
179.491088
 20
166.007424
 30
0.0
 11
179.048665
 21
166.007424
 31
0.0
  0
LINE
  5
411
100
AcDbEntity
  8
full3
 62
7
100
AcDbLine
 10
179.048665
 20
166.007424
 30
0.0
 11
178.651889
 21
166.007424
 31
0.0
  0
LINE
  5
412
100
AcDbEntity
  8
full3
 62
7
100
AcDbLine
 10
178.651889
 20
166.007424
 30
0.0
 11
178.320495
 21
166.007424
 31
0.0
  0
LINE
  5
413
100
AcDbEntity
  8
full3
 62
7
100
AcDbLine
 10
178.320495
 20
166.007424
 30
0.0
 11
178.071127
 21
166.007424
 31
0.0
  0
LINE
  5
414
100
AcDbEntity
  8
full3
 62
7
100
AcDbLine
 10
178.071127
 20
166.007424
 30
0.0
 11
177.916343
 21
166.007424
 31
0.0
  0
LINE
  5
415
100
AcDbEntity
  8
full3
 62
7
100
AcDbLine
 10
177.916343
 20
166.007424
 30
0.0
 11
177.863818
 21
166.007424
 31
0.0
  0
LINE
  5
416
100
AcDbEntity
  8
full3
 62
7
100
AcDbLine
 10
177.863818
 20
166.007424
 30
0.0
 11
177.863818
 21
146.169297
 31
0.0
  0
LINE
  5
417
100
AcDbEntity
  8
full3
 62
7
100
AcDbLine
 10
232.182566
 20
166.007424
 30
0.0
 11
232.182566
 21
146.169297
 31
0.0
  0
LINE
  5
418
100
AcDbEntity
  8
full3
 62
7
100
AcDbLine
 10
182.049850
 20
166.007424
 30
0.0
 11
182.049850
 21
146.169297
 31
0.0
  0
LINE
  5
419
100
AcDbEntity
  8
full3
 62
7
100
AcDbLine
 10
238.760616
 20
171.490324
 30
0.0
 11
238.760616
 21
146.169297
 31
0.0
  0
LINE
  5
41a
100
AcDbEntity
  8
full3
 62
7
100
AcDbLine
 10
238.760616
 20
146.169297
 30
0.0
 11
225.281095
 21
146.169297
 31
0.0
  0
LINE
  5
41b
100
AcDbEntity
  8
full3
 62
7
100
AcDbLine
 10
238.760616
 20
171.490324
 30
0.0
 11
175.471800
 21
171.490324
 31
0.0
  0
LINE
  5
41c
100
AcDbEntity
  8
full3
 62
7
100
AcDbLine
 10
175.471800
 20
171.490324
 30
0.0
 11
175.471800
 21
146.169297
 31
0.0
  0
LINE
  5
41d
100
AcDbEntity
  8
full3
 62
7
100
AcDbLine
 10
188.951321
 20
146.169297
 30
0.0
 11
175.471800
 21
146.169297
 31
0.0
  0
SPLINE
  5
41e
100
AcDbEntity
  8
full3
 62
7
100
AcDbSpline
 70
8
 71
3
 72
8
 73
4
 74
0
 40
0
 40
0
 40
0
 40
0
 40
1
 40
1
 40
1
 40
1
 10
225.281095
 20
146.169297
 30
0.0
 10
223.742918
 20
155.000599
 30
0.0
 10
216.078574
 20
161.446566
 30
0.0
 10
207.116208
 20
161.446566
 30
0.0
  0
SPLINE
  5
41f
100
AcDbEntity
  8
full3
 62
7
100
AcDbSpline
 70
8
 71
3
 72
8
 73
4
 74
0
 40
0
 40
0
 40
0
 40
0
 40
1
 40
1
 40
1
 40
1
 10
207.116208
 20
161.446566
 30
0.0
 10
198.153842
 20
161.446566
 30
0.0
 10
190.489498
 20
155.000599
 30
0.0
 10
188.951321
 20
146.169297
 30
0.0
  0
LINE
  5
420
100
AcDbEntity
  8
full3
 62
7
100
AcDbLine
 10
202.641011
 20
101.649549
 30
0.0
 11
202.641011
 21
80.975030
 31
0.0
  0
LINE
  5
421
100
AcDbEntity
  8
full3
 62
7
100
AcDbLine
 10
212.172466
 20
75.470797
 30
0.0
 11
202.641011
 21
80.975030
 31
0.0
  0
SPLINE
  5
422
100
AcDbEntity
  8
full3
 62
7
100
AcDbSpline
 70
8
 71
3
 72
8
 73
4
 74
0
 40
0
 40
0
 40
0
 40
0
 40
1
 40
1
 40
1
 40
1
 10
237.861516
 20
60.636035
 30
0.0
 10
237.026292
 20
66.655750
 30
0.0
 10
233.590317
 20
73.179134
 30
0.0
 10
228.950383
 20
77.554300
 30
0.0
  0
SPLINE
  5
423
100
AcDbEntity
  8
full3
 62
7
100
AcDbSpline
 70
8
 71
3
 72
8
 73
4
 74
0
 40
0
 40
0
 40
0
 40
0
 40
1
 40
1
 40
1
 40
1
 10
228.950383
 20
77.554300
 30
0.0
 10
224.310449
 20
81.929465
 30
0.0
 10
219.239025
 20
83.428022
 30
0.0
 10
215.797749
 20
81.440777
 30
0.0
  0
SPLINE
  5
424
100
AcDbEntity
  8
full3
 62
7
100
AcDbSpline
 70
8
 71
3
 72
8
 73
4
 74
0
 40
0
 40
0
 40
0
 40
0
 40
1
 40
1
 40
1
 40
1
 10
215.797749
 20
81.440777
 30
0.0
 10
213.899305
 20
80.344462
 30
0.0
 10
212.633230
 20
78.259536
 30
0.0
 10
212.172466
 20
75.470797
 30
0.0
  0
LINE
  5
425
100
AcDbEntity
  8
full3
 62
7
100
AcDbLine
 10
247.393011
 20
55.131852
 30
0.0
 11
237.861516
 21
60.636035
 31
0.0
  0
LINE
  5
426
100
AcDbEntity
  8
full3
 62
7
100
AcDbLine
 10
237.861516
 20
60.636035
 30
0.0
 11
202.059950
 21
39.961546
 31
0.0
  0
SPLINE
  5
427
100
AcDbEntity
  8
full3
 62
7
100
AcDbSpline
 70
8
 71
3
 72
8
 73
4
 74
0
 40
0
 40
0
 40
0
 40
0
 40
1
 40
1
 40
1
 40
1
 10
227.800787
 20
45.771326
 30
0.0
 10
227.202191
 20
45.425662
 30
0.0
 10
226.301969
 20
45.322258
 30
0.0
 10
225.519878
 20
45.509330
 30
0.0
  0
SPLINE
  5
428
100
AcDbEntity
  8
full3
 62
7
100
AcDbSpline
 70
8
 71
3
 72
8
 73
4
 74
0
 40
0
 40
0
 40
0
 40
0
 40
1
 40
1
 40
1
 40
1
 10
225.519878
 20
45.509330
 30
0.0
 10
224.737786
 20
45.696402
 30
0.0
 10
224.227836
 20
46.137110
 30
0.0
 10
224.227809
 20
46.625961
 30
0.0
  0
SPLINE
  5
429
100
AcDbEntity
  8
full3
 62
7
100
AcDbSpline
 70
8
 71
3
 72
8
 73
4
 74
0
 40
0
 40
0
 40
0
 40
0
 40
1
 40
1
 40
1
 40
1
 10
224.227809
 20
46.625961
 30
0.0
 10
224.227809
 20
47.293491
 30
0.0
 10
225.164885
 20
47.834631
 30
0.0
 10
226.320825
 20
47.834631
 30
0.0
  0
SPLINE
  5
42a
100
AcDbEntity
  8
full3
 62
7
100
AcDbSpline
 70
8
 71
3
 72
8
 73
4
 74
0
 40
0
 40
0
 40
0
 40
0
 40
1
 40
1
 40
1
 40
1
 10
226.320825
 20
47.834631
 30
0.0
 10
227.476766
 20
47.834631
 30
0.0
 10
228.413841
 20
47.293491
 30
0.0
 10
228.413841
 20
46.625961
 30
0.0
  0
SPLINE
  5
42b
100
AcDbEntity
  8
full3
 62
7
100
AcDbSpline
 70
8
 71
3
 72
8
 73
4
 74
0
 40
0
 40
0
 40
0
 40
0
 40
1
 40
1
 40
1
 40
1
 10
228.413841
 20
46.625961
 30
0.0
 10
228.413823
 20
46.305407
 30
0.0
 10
228.193302
 20
45.997987
 30
0.0
 10
227.800787
 20
45.771326
 30
0.0
  0
SPLINE
  5
42c
100
AcDbEntity
  8
full3
 62
7
100
AcDbSpline
 70
8
 71
3
 72
8
 73
4
 74
0
 40
0
 40
0
 40
0
 40
0
 40
1
 40
1
 40
1
 40
1
 10
222.796984
 20
64.858655
 30
0.0
 10
221.862445
 20
64.318962
 30
0.0
 10
221.337437
 20
63.586989
 30
0.0
 10
221.337454
 20
62.823762
 30
0.0
  0
SPLINE
  5
42d
100
AcDbEntity
  8
full3
 62
7
100
AcDbSpline
 70
8
 71
3
 72
8
 73
4
 74
0
 40
0
 40
0
 40
0
 40
0
 40
1
 40
1
 40
1
 40
1
 10
221.337454
 20
62.823762
 30
0.0
 10
221.337458
 20
61.892322
 30
0.0
 10
222.118125
 20
61.018486
 30
0.0
 10
223.432538
 20
60.478637
 30
0.0
  0
SPLINE
  5
42e
100
AcDbEntity
  8
full3
 62
7
100
AcDbSpline
 70
8
 71
3
 72
8
 73
4
 74
0
 40
0
 40
0
 40
0
 40
0
 40
1
 40
1
 40
1
 40
1
 10
223.432538
 20
60.478637
 30
0.0
 10
224.746951
 20
59.938789
 30
0.0
 10
226.432539
 20
59.799699
 30
0.0
 10
227.956168
 20
60.105360
 30
0.0
  0
SPLINE
  5
42f
100
AcDbEntity
  8
full3
 62
7
100
AcDbSpline
 70
8
 71
3
 72
8
 73
4
 74
0
 40
0
 40
0
 40
0
 40
0
 40
1
 40
1
 40
1
 40
1
 10
231.028118
 20
61.879347
 30
0.0
 10
231.210851
 20
62.183036
 30
0.0
 10
231.304170
 20
62.502261
 30
0.0
 10
231.304197
 20
62.823762
 30
0.0
  0
SPLINE
  5
430
100
AcDbEntity
  8
full3
 62
7
100
AcDbSpline
 70
8
 71
3
 72
8
 73
4
 74
0
 40
0
 40
0
 40
0
 40
0
 40
1
 40
1
 40
1
 40
1
 10
231.304197
 20
62.823762
 30
0.0
 10
231.304170
 20
63.145262
 30
0.0
 10
231.210848
 20
63.464487
 30
0.0
 10
231.028118
 20
63.768176
 30
0.0
  0
SPLINE
  5
431
100
AcDbEntity
  8
full3
 62
7
100
AcDbSpline
 70
8
 71
3
 72
8
 73
4
 74
0
 40
0
 40
0
 40
0
 40
0
 40
1
 40
1
 40
1
 40
1
 10
223.188776
 20
65.062140
 30
0.0
 10
223.052056
 20
64.998350
 30
0.0
 10
222.921276
 20
64.930426
 30
0.0
 10
222.796984
 20
64.858655
 30
0.0
  0
SPLINE
  5
432
100
AcDbEntity
  8
full3
 62
7
100
AcDbSpline
 70
8
 71
3
 72
8
 73
4
 74
0
 40
0
 40
0
 40
0
 40
0
 40
1
 40
1
 40
1
 40
1
 10
227.800787
 20
61.969097
 30
0.0
 10
227.855773
 20
62.000860
 30
0.0
 10
227.907643
 20
62.034368
 30
0.0
 10
227.956168
 20
62.069464
 30
0.0
  0
SPLINE
  5
433
100
AcDbEntity
  8
full3
 62
7
100
AcDbSpline
 70
8
 71
3
 72
8
 73
4
 74
0
 40
0
 40
0
 40
0
 40
0
 40
1
 40
1
 40
1
 40
1
 10
227.956168
 20
63.578049
 30
0.0
 10
227.401240
 20
63.979234
 30
0.0
 10
226.467946
 20
64.134163
 30
0.0
 10
225.628806
 20
63.964395
 30
0.0
  0
SPLINE
  5
434
100
AcDbEntity
  8
full3
 62
7
100
AcDbSpline
 70
8
 71
3
 72
8
 73
4
 74
0
 40
0
 40
0
 40
0
 40
0
 40
1
 40
1
 40
1
 40
1
 10
225.628806
 20
63.964395
 30
0.0
 10
224.789667
 20
63.794628
 30
0.0
 10
224.227854
 20
63.337224
 30
0.0
 10
224.227809
 20
62.823762
 30
0.0
  0
SPLINE
  5
435
100
AcDbEntity
  8
full3
 62
7
100
AcDbSpline
 70
8
 71
3
 72
8
 73
4
 74
0
 40
0
 40
0
 40
0
 40
0
 40
1
 40
1
 40
1
 40
1
 10
224.227809
 20
62.823762
 30
0.0
 10
224.227815
 20
62.334905
 30
0.0
 10
224.737757
 20
61.894186
 30
0.0
 10
225.519854
 20
61.707107
 30
0.0
  0
SPLINE
  5
436
100
AcDbEntity
  8
full3
 62
7
100
AcDbSpline
 70
8
 71
3
 72
8
 73
4
 74
0
 40
0
 40
0
 40
0
 40
0
 40
1
 40
1
 40
1
 40
1
 10
225.519854
 20
61.707107
 30
0.0
 10
226.301950
 20
61.520027
 30
0.0
 10
227.202185
 20
61.623430
 30
0.0
 10
227.800787
 20
61.969097
 30
0.0
  0
LINE
  5
437
100
AcDbEntity
  8
full3
 62
7
100
AcDbLine
 10
202.641011
 20
80.975030
 30
0.0
 11
166.839405
 21
60.300491
 31
0.0
  0
LINE
  5
438
100
AcDbEntity
  8
full3
 62
7
100
AcDbLine
 10
183.204298
 20
85.948518
 30
0.0
 11
183.204298
 21
88.536447
 31
0.0
  0
LINE
  5
439
100
AcDbEntity
  8
full3
 62
7
100
AcDbLine
 10
183.204298
 20
85.948518
 30
0.0
 11
185.163760
 21
87.080089
 31
0.0
  0
LINE
  5
43a
100
AcDbEntity
  8
full3
 62
7
100
AcDbLine
 10
212.172466
 20
75.470797
 30
0.0
 11
186.977807
 21
60.921554
 31
0.0
  0
SPLINE
  5
43b
100
AcDbEntity
  8
full3
 62
7
100
AcDbSpline
 70
8
 71
3
 72
8
 73
4
 74
0
 40
0
 40
0
 40
0
 40
0
 40
1
 40
1
 40
1
 40
1
 10
186.431629
 20
69.661017
 30
0.0
 10
187.030225
 20
70.006681
 30
0.0
 10
187.930447
 20
70.110086
 30
0.0
 10
188.712538
 20
69.923013
 30
0.0
  0
SPLINE
  5
43c
100
AcDbEntity
  8
full3
 62
7
100
AcDbSpline
 70
8
 71
3
 72
8
 73
4
 74
0
 40
0
 40
0
 40
0
 40
0
 40
1
 40
1
 40
1
 40
1
 10
188.712538
 20
69.923013
 30
0.0
 10
189.494630
 20
69.735941
 30
0.0
 10
190.004580
 20
69.295233
 30
0.0
 10
190.004607
 20
68.806383
 30
0.0
  0
SPLINE
  5
43d
100
AcDbEntity
  8
full3
 62
7
100
AcDbSpline
 70
8
 71
3
 72
8
 73
4
 74
0
 40
0
 40
0
 40
0
 40
0
 40
1
 40
1
 40
1
 40
1
 10
190.004607
 20
68.806383
 30
0.0
 10
190.004607
 20
68.138853
 30
0.0
 10
189.067531
 20
67.597712
 30
0.0
 10
187.911591
 20
67.597712
 30
0.0
  0
SPLINE
  5
43e
100
AcDbEntity
  8
full3
 62
7
100
AcDbSpline
 70
8
 71
3
 72
8
 73
4
 74
0
 40
0
 40
0
 40
0
 40
0
 40
1
 40
1
 40
1
 40
1
 10
187.911591
 20
67.597712
 30
0.0
 10
186.755650
 20
67.597712
 30
0.0
 10
185.818575
 20
68.138853
 30
0.0
 10
185.818575
 20
68.806383
 30
0.0
  0
SPLINE
  5
43f
100
AcDbEntity
  8
full3
 62
7
100
AcDbSpline
 70
8
 71
3
 72
8
 73
4
 74
0
 40
0
 40
0
 40
0
 40
0
 40
1
 40
1
 40
1
 40
1
 10
185.818575
 20
68.806383
 30
0.0
 10
185.818593
 20
69.126936
 30
0.0
 10
186.039114
 20
69.434356
 30
0.0
 10
186.431629
 20
69.661017
 30
0.0
  0
SPLINE
  5
440
100
AcDbEntity
  8
full3
 62
7
100
AcDbSpline
 70
8
 71
3
 72
8
 73
4
 74
0
 40
0
 40
0
 40
0
 40
0
 40
1
 40
1
 40
1
 40
1
 10
191.043640
 20
87.242483
 30
0.0
 10
192.214533
 20
86.696118
 30
0.0
 10
192.894992
 20
85.873380
 30
0.0
 10
192.894962
 20
85.004064
 30
0.0
  0
SPLINE
  5
441
100
AcDbEntity
  8
full3
 62
7
100
AcDbSpline
 70
8
 71
3
 72
8
 73
4
 74
0
 40
0
 40
0
 40
0
 40
0
 40
1
 40
1
 40
1
 40
1
 10
192.894962
 20
85.004064
 30
0.0
 10
192.894961
 20
84.240850
 30
0.0
 10
192.369954
 20
83.508894
 30
0.0
 10
191.435432
 20
82.969210
 30
0.0
  0
SPLINE
  5
442
100
AcDbEntity
  8
full3
 62
7
100
AcDbSpline
 70
8
 71
3
 72
8
 73
4
 74
0
 40
0
 40
0
 40
0
 40
0
 40
1
 40
1
 40
1
 40
1
 10
191.435432
 20
82.969210
 30
0.0
 10
190.010213
 20
82.146150
 30
0.0
 10
187.866763
 20
81.899920
 30
0.0
 10
186.004582
 20
82.345338
 30
0.0
  0
SPLINE
  5
443
100
AcDbEntity
  8
full3
 62
7
100
AcDbSpline
 70
8
 71
3
 72
8
 73
4
 74
0
 40
0
 40
0
 40
0
 40
0
 40
1
 40
1
 40
1
 40
1
 10
186.004582
 20
82.345338
 30
0.0
 10
184.142401
 20
82.790756
 30
0.0
 10
182.928221
 20
83.840103
 30
0.0
 10
182.928219
 20
85.004064
 30
0.0
  0
SPLINE
  5
444
100
AcDbEntity
  8
full3
 62
7
100
AcDbSpline
 70
8
 71
3
 72
8
 73
4
 74
0
 40
0
 40
0
 40
0
 40
0
 40
1
 40
1
 40
1
 40
1
 10
182.928219
 20
85.004064
 30
0.0
 10
182.928238
 20
85.325577
 30
0.0
 10
183.021558
 20
85.644817
 30
0.0
 10
183.204298
 20
85.948518
 30
0.0
  0
SPLINE
  5
445
100
AcDbEntity
  8
full3
 62
7
100
AcDbSpline
 70
8
 71
3
 72
8
 73
4
 74
0
 40
0
 40
0
 40
0
 40
0
 40
1
 40
1
 40
1
 40
1
 10
186.431629
 20
85.858798
 30
0.0
 10
187.030247
 20
86.204475
 30
0.0
 10
187.930511
 20
86.307873
 30
0.0
 10
188.712618
 20
86.120775
 30
0.0
  0
SPLINE
  5
446
100
AcDbEntity
  8
full3
 62
7
100
AcDbSpline
 70
8
 71
3
 72
8
 73
4
 74
0
 40
0
 40
0
 40
0
 40
0
 40
1
 40
1
 40
1
 40
1
 10
188.712618
 20
86.120775
 30
0.0
 10
189.494726
 20
85.933679
 30
0.0
 10
190.004649
 20
85.492933
 30
0.0
 10
190.004607
 20
85.004064
 30
0.0
  0
SPLINE
  5
447
100
AcDbEntity
  8
full3
 62
7
100
AcDbSpline
 70
8
 71
3
 72
8
 73
4
 74
0
 40
0
 40
0
 40
0
 40
0
 40
1
 40
1
 40
1
 40
1
 10
190.004607
 20
85.004064
 30
0.0
 10
190.004607
 20
84.336534
 30
0.0
 10
189.067531
 20
83.795394
 30
0.0
 10
187.911591
 20
83.795394
 30
0.0
  0
SPLINE
  5
448
100
AcDbEntity
  8
full3
 62
7
100
AcDbSpline
 70
8
 71
3
 72
8
 73
4
 74
0
 40
0
 40
0
 40
0
 40
0
 40
1
 40
1
 40
1
 40
1
 10
187.911591
 20
83.795394
 30
0.0
 10
186.755650
 20
83.795394
 30
0.0
 10
185.818575
 20
84.336534
 30
0.0
 10
185.818575
 20
85.004064
 30
0.0
  0
SPLINE
  5
449
100
AcDbEntity
  8
full3
 62
7
100
AcDbSpline
 70
8
 71
3
 72
8
 73
4
 74
0
 40
0
 40
0
 40
0
 40
0
 40
1
 40
1
 40
1
 40
1
 10
185.818575
 20
85.004064
 30
0.0
 10
185.818547
 20
85.324651
 30
0.0
 10
186.039072
 20
85.632112
 30
0.0
 10
186.431629
 20
85.858798
 30
0.0
  0
LINE
  5
44a
100
AcDbEntity
  8
full3
 62
7
100
AcDbLine
 10
221.337454
 20
62.823762
 30
0.0
 11
221.337454
 21
67.300529
 31
0.0
  0
LINE
  5
44b
100
AcDbEntity
  8
full3
 62
7
100
AcDbLine
 10
231.304197
 20
62.823762
 30
0.0
 11
231.304197
 21
67.300529
 31
0.0
  0
LINE
  5
44c
100
AcDbEntity
  8
full3
 62
7
100
AcDbLine
 10
179.996203
 20
60.766249
 30
0.0
 11
215.797749
 21
81.440777
 31
0.0
  0
LINE
  5
44d
100
AcDbEntity
  8
full3
 62
7
100
AcDbLine
 10
224.227809
 20
62.823762
 30
0.0
 11
224.227809
 21
46.625961
 31
0.0
  0
LINE
  5
44e
100
AcDbEntity
  8
full3
 62
7
100
AcDbLine
 10
228.413841
 20
62.823762
 30
0.0
 11
228.413841
 21
46.625961
 31
0.0
  0
LINE
  5
44f
100
AcDbEntity
  8
full3
 62
7
100
AcDbLine
 10
192.894962
 20
85.004064
 30
0.0
 11
192.894962
 21
89.480901
 31
0.0
  0
LINE
  5
450
100
AcDbEntity
  8
full3
 62
7
100
AcDbLine
 10
182.928219
 20
85.004064
 30
0.0
 11
182.928219
 21
89.480901
 31
0.0
  0
LINE
  5
451
100
AcDbEntity
  8
full3
 62
7
100
AcDbLine
 10
185.818575
 20
85.004064
 30
0.0
 11
185.818575
 21
68.806383
 31
0.0
  0
LINE
  5
452
100
AcDbEntity
  8
full3
 62
7
100
AcDbLine
 10
190.004607
 20
85.004064
 30
0.0
 11
190.004607
 21
68.806383
 31
0.0
  0
LINE
  5
453
100
AcDbEntity
  8
full3
 62
7
100
AcDbLine
 10
247.393011
 20
75.806351
 30
0.0
 11
247.393011
 21
55.131852
 31
0.0
  0
LINE
  5
454
100
AcDbEntity
  8
full3
 62
7
100
AcDbLine
 10
247.393011
 20
55.131852
 30
0.0
 11
211.591405
 21
34.457313
 31
0.0
  0
LINE
  5
455
100
AcDbEntity
  8
full3
 62
7
100
AcDbLine
 10
211.591405
 20
55.131852
 30
0.0
 11
211.591405
 21
34.457313
 31
0.0
  0
LINE
  5
456
100
AcDbEntity
  8
full3
 62
7
100
AcDbLine
 10
227.956168
 20
64.582128
 30
0.0
 11
211.591405
 21
55.131852
 31
0.0
  0
LINE
  5
457
100
AcDbEntity
  8
full3
 62
7
100
AcDbLine
 10
227.956168
 20
60.105360
 30
0.0
 11
227.956168
 21
64.582128
 31
0.0
  0
LINE
  5
458
100
AcDbEntity
  8
full3
 62
7
100
AcDbLine
 10
231.028118
 20
61.879347
 30
0.0
 11
227.956168
 21
60.105360
 31
0.0
  0
LINE
  5
459
100
AcDbEntity
  8
full3
 62
7
100
AcDbLine
 10
231.028118
 20
61.879347
 30
0.0
 11
231.028118
 21
66.356115
 31
0.0
  0
LINE
  5
45a
100
AcDbEntity
  8
full3
 62
7
100
AcDbLine
 10
247.393011
 20
75.806351
 30
0.0
 11
231.028118
 21
66.356115
 31
0.0
  0
LINE
  5
45b
100
AcDbEntity
  8
full3
 62
7
100
AcDbLine
 10
247.393011
 20
75.806351
 30
0.0
 11
202.641011
 21
101.649549
 31
0.0
  0
LINE
  5
45c
100
AcDbEntity
  8
full3
 62
7
100
AcDbLine
 10
211.591405
 20
34.457313
 30
0.0
 11
202.059950
 21
39.961546
 31
0.0
  0
LINE
  5
45d
100
AcDbEntity
  8
full3
 62
7
100
AcDbLine
 10
211.591405
 20
55.131852
 30
0.0
 11
166.839405
 21
80.975030
 31
0.0
  0
LINE
  5
45e
100
AcDbEntity
  8
full3
 62
7
100
AcDbLine
 10
166.839405
 20
80.975030
 30
0.0
 11
166.839405
 21
60.300491
 31
0.0
  0
LINE
  5
45f
100
AcDbEntity
  8
full3
 62
7
100
AcDbLine
 10
176.370900
 20
54.796308
 30
0.0
 11
166.839405
 21
60.300491
 31
0.0
  0
SPLINE
  5
460
100
AcDbEntity
  8
full3
 62
7
100
AcDbSpline
 70
8
 71
3
 72
8
 73
4
 74
0
 40
0
 40
0
 40
0
 40
0
 40
1
 40
1
 40
1
 40
1
 10
202.059950
 20
39.961546
 30
0.0
 10
201.224714
 20
45.981253
 30
0.0
 10
197.788740
 20
52.504619
 30
0.0
 10
193.148814
 20
56.879772
 30
0.0
  0
SPLINE
  5
461
100
AcDbEntity
  8
full3
 62
7
100
AcDbSpline
 70
8
 71
3
 72
8
 73
4
 74
0
 40
0
 40
0
 40
0
 40
0
 40
1
 40
1
 40
1
 40
1
 10
193.148814
 20
56.879772
 30
0.0
 10
188.508889
 20
61.254925
 30
0.0
 10
183.437477
 20
62.753481
 30
0.0
 10
179.996203
 20
60.766249
 30
0.0
  0
SPLINE
  5
462
100
AcDbEntity
  8
full3
 62
7
100
AcDbSpline
 70
8
 71
3
 72
8
 73
4
 74
0
 40
0
 40
0
 40
0
 40
0
 40
1
 40
1
 40
1
 40
1
 10
179.996203
 20
60.766249
 30
0.0
 10
178.097757
 20
59.669945
 30
0.0
 10
176.831674
 20
57.585034
 30
0.0
 10
176.370900
 20
54.796308
 30
0.0
  0
LINE
  5
463
100
AcDbEntity
  8
full3
 62
7
100
AcDbLine
 10
202.641011
 20
101.649549
 30
0.0
 11
186.276248
 21
92.199323
 31
0.0
  0
SPLINE
  5
464
100
AcDbEntity
  8
full3
 62
7
100
AcDbSpline
 70
8
 71
3
 72
8
 73
4
 74
0
 40
0
 40
0
 40
0
 40
0
 40
1
 40
1
 40
1
 40
1
 10
186.276248
 20
92.199323
 30
0.0
 10
187.799882
 20
92.504986
 30
0.0
 10
189.485477
 20
92.365893
 30
0.0
 10
190.799892
 20
91.826040
 30
0.0
  0
SPLINE
  5
465
100
AcDbEntity
  8
full3
 62
7
100
AcDbSpline
 70
8
 71
3
 72
8
 73
4
 74
0
 40
0
 40
0
 40
0
 40
0
 40
1
 40
1
 40
1
 40
1
 10
190.799892
 20
91.826040
 30
0.0
 10
192.114306
 20
91.286187
 30
0.0
 10
192.894969
 20
90.412344
 30
0.0
 10
192.894962
 20
89.480901
 30
0.0
  0
SPLINE
  5
466
100
AcDbEntity
  8
full3
 62
7
100
AcDbSpline
 70
8
 71
3
 72
8
 73
4
 74
0
 40
0
 40
0
 40
0
 40
0
 40
1
 40
1
 40
1
 40
1
 10
192.894962
 20
89.480901
 30
0.0
 10
192.895007
 20
88.717653
 30
0.0
 10
192.369997
 20
87.985656
 30
0.0
 10
191.435432
 20
87.445948
 30
0.0
  0
SPLINE
  5
467
100
AcDbEntity
  8
full3
 62
7
100
AcDbSpline
 70
8
 71
3
 72
8
 73
4
 74
0
 40
0
 40
0
 40
0
 40
0
 40
1
 40
1
 40
1
 40
1
 10
191.435432
 20
87.445948
 30
0.0
 10
190.010191
 20
86.622875
 30
0.0
 10
187.866698
 20
86.376652
 30
0.0
 10
186.004502
 20
86.822095
 30
0.0
  0
SPLINE
  5
468
100
AcDbEntity
  8
full3
 62
7
100
AcDbSpline
 70
8
 71
3
 72
8
 73
4
 74
0
 40
0
 40
0
 40
0
 40
0
 40
1
 40
1
 40
1
 40
1
 10
186.004502
 20
86.822095
 30
0.0
 10
184.142306
 20
87.267539
 30
0.0
 10
182.928152
 20
88.316923
 30
0.0
 10
182.928219
 20
89.480901
 30
0.0
  0
SPLINE
  5
469
100
AcDbEntity
  8
full3
 62
7
100
AcDbSpline
 70
8
 71
3
 72
8
 73
4
 74
0
 40
0
 40
0
 40
0
 40
0
 40
1
 40
1
 40
1
 40
1
 10
182.928219
 20
89.480901
 30
0.0
 10
182.928258
 20
89.802382
 30
0.0
 10
183.021578
 20
90.121586
 30
0.0
 10
183.204298
 20
90.425256
 30
0.0
  0
LINE
  5
46a
100
AcDbEntity
  8
full3
 62
7
100
AcDbLine
 10
183.204298
 20
90.425256
 30
0.0
 11
166.839405
 21
80.975030
 31
0.0
  0
SPLINE
  5
46b
100
AcDbEntity
  8
full3
 62
7
100
AcDbSpline
 70
8
 71
3
 72
8
 73
4
 74
0
 40
0
 40
0
 40
0
 40
0
 40
1
 40
1
 40
1
 40
1
 10
222.796984
 20
69.335433
 30
0.0
 10
221.862440
 20
68.795737
 30
0.0
 10
221.337432
 20
68.063761
 30
0.0
 10
221.337454
 20
67.300529
 30
0.0
  0
SPLINE
  5
46c
100
AcDbEntity
  8
full3
 62
7
100
AcDbSpline
 70
8
 71
3
 72
8
 73
4
 74
0
 40
0
 40
0
 40
0
 40
0
 40
1
 40
1
 40
1
 40
1
 10
221.337454
 20
67.300529
 30
0.0
 10
221.337458
 20
66.369090
 30
0.0
 10
222.118125
 20
65.495253
 30
0.0
 10
223.432538
 20
64.955405
 30
0.0
  0
SPLINE
  5
46d
100
AcDbEntity
  8
full3
 62
7
100
AcDbSpline
 70
8
 71
3
 72
8
 73
4
 74
0
 40
0
 40
0
 40
0
 40
0
 40
1
 40
1
 40
1
 40
1
 10
223.432538
 20
64.955405
 30
0.0
 10
224.746951
 20
64.415556
 30
0.0
 10
226.432539
 20
64.276466
 30
0.0
 10
227.956168
 20
64.582128
 30
0.0
  0
SPLINE
  5
46e
100
AcDbEntity
  8
full3
 62
7
100
AcDbSpline
 70
8
 71
3
 72
8
 73
4
 74
0
 40
0
 40
0
 40
0
 40
0
 40
1
 40
1
 40
1
 40
1
 10
231.028118
 20
66.356115
 30
0.0
 10
231.210851
 20
66.659804
 30
0.0
 10
231.304170
 20
66.979029
 30
0.0
 10
231.304197
 20
67.300529
 30
0.0
  0
SPLINE
  5
46f
100
AcDbEntity
  8
full3
 62
7
100
AcDbSpline
 70
8
 71
3
 72
8
 73
4
 74
0
 40
0
 40
0
 40
0
 40
0
 40
1
 40
1
 40
1
 40
1
 10
231.304197
 20
67.300529
 30
0.0
 10
231.304230
 20
68.464499
 30
0.0
 10
230.090062
 20
69.513864
 30
0.0
 10
228.227874
 20
69.959295
 30
0.0
  0
SPLINE
  5
470
100
AcDbEntity
  8
full3
 62
7
100
AcDbSpline
 70
8
 71
3
 72
8
 73
4
 74
0
 40
0
 40
0
 40
0
 40
0
 40
1
 40
1
 40
1
 40
1
 10
228.227874
 20
69.959295
 30
0.0
 10
226.365686
 20
70.404726
 30
0.0
 10
224.222214
 20
70.158499
 30
0.0
 10
222.796984
 20
69.335433
 30
0.0
  0
SPLINE
  5
471
100
AcDbEntity
  8
full3
 62
7
100
AcDbSpline
 70
8
 71
3
 72
8
 73
4
 74
0
 40
0
 40
0
 40
0
 40
0
 40
1
 40
1
 40
1
 40
1
 10
231.028118
 20
63.768176
 30
0.0
 10
230.495638
 20
64.653247
 30
0.0
 10
229.250348
 20
65.333208
 30
0.0
 10
227.690306
 20
65.590709
 30
0.0
  0
SPLINE
  5
472
100
AcDbEntity
  8
full3
 62
7
100
AcDbSpline
 70
8
 71
3
 72
8
 73
4
 74
0
 40
0
 40
0
 40
0
 40
0
 40
1
 40
1
 40
1
 40
1
 10
227.690306
 20
65.590709
 30
0.0
 10
226.130263
 20
65.848210
 30
0.0
 10
224.450806
 20
65.651009
 30
0.0
 10
223.188776
 20
65.062140
 30
0.0
  0
SPLINE
  5
473
100
AcDbEntity
  8
full3
 62
7
100
AcDbSpline
 70
8
 71
3
 72
8
 73
4
 74
0
 40
0
 40
0
 40
0
 40
0
 40
1
 40
1
 40
1
 40
1
 10
227.956168
 20
62.069464
 30
0.0
 10
228.252435
 20
62.283650
 30
0.0
 10
228.413821
 20
62.549633
 30
0.0
 10
228.413841
 20
62.823762
 30
0.0
  0
SPLINE
  5
474
100
AcDbEntity
  8
full3
 62
7
100
AcDbSpline
 70
8
 71
3
 72
8
 73
4
 74
0
 40
0
 40
0
 40
0
 40
0
 40
1
 40
1
 40
1
 40
1
 10
228.413841
 20
62.823762
 30
0.0
 10
228.413817
 20
63.097887
 30
0.0
 10
228.252432
 20
63.363866
 30
0.0
 10
227.956168
 20
63.578049
 30
0.0
  0
LINE
  5
475
100
AcDbEntity
  8
full3
 62
7
100
AcDbLine
 10
183.204298
 20
88.536447
 30
0.0
 11
183.204298
 21
90.425256
 31
0.0
  0
LINE
  5
476
100
AcDbEntity
  8
full3
 62
7
100
AcDbLine
 10
185.163760
 20
87.080089
 30
0.0
 11
186.276248
 21
87.722486
 31
0.0
  0
LINE
  5
477
100
AcDbEntity
  8
full3
 62
7
100
AcDbLine
 10
186.276248
 20
87.722486
 30
0.0
 11
186.276248
 21
92.199323
 31
0.0
  0
LINE
  5
478
100
AcDbEntity
  8
full3
 62
7
100
AcDbLine
 10
186.977807
 20
60.921554
 30
0.0
 11
176.370900
 21
54.796308
 31
0.0
  0
SPLINE
  5
479
100
AcDbEntity
  8
full3
 62
7
100
AcDbSpline
 70
8
 71
3
 72
8
 73
4
 74
0
 40
0
 40
0
 40
0
 40
0
 40
1
 40
1
 40
1
 40
1
 10
186.276248
 20
87.722486
 30
0.0
 10
187.902282
 20
88.048706
 30
0.0
 10
189.704723
 20
87.867228
 30
0.0
 10
191.043640
 20
87.242483
 30
0.0
  0
LINE
  5
47a
100
AcDbEntity
  8
full3
 62
7
100
AcDbLine
 10
105.281015
 20
41.570528
 30
0.0
 11
54.649962
 21
41.570528
 31
0.0
  0
LINE
  5
47b
100
AcDbEntity
  8
full3
 62
7
100
AcDbLine
 10
105.281015
 20
91.390645
 30
0.0
 11
105.281015
 21
104.873095
 31
0.0
  0
LINE
  5
47c
100
AcDbEntity
  8
full3
 62
7
100
AcDbLine
 10
105.281015
 20
55.052978
 30
0.0
 11
105.281015
 21
56.042292
 31
0.0
  0
LINE
  5
47d
100
AcDbEntity
  8
full3
 62
7
100
AcDbLine
 10
105.281015
 20
56.042292
 30
0.0
 11
105.281015
 21
57.714975
 31
0.0
  0
LINE
  5
47e
100
AcDbEntity
  8
full3
 62
7
100
AcDbLine
 10
105.281015
 20
57.714975
 30
0.0
 11
105.281015
 21
60.004335
 31
0.0
  0
LINE
  5
47f
100
AcDbEntity
  8
full3
 62
7
100
AcDbLine
 10
105.281015
 20
60.004335
 30
0.0
 11
105.281015
 21
62.819355
 31
0.0
  0
LINE
  5
480
100
AcDbEntity
  8
full3
 62
7
100
AcDbLine
 10
105.281015
 20
62.819355
 30
0.0
 11
105.281015
 21
66.048125
 31
0.0
  0
LINE
  5
481
100
AcDbEntity
  8
full3
 62
7
100
AcDbLine
 10
105.281015
 20
66.048125
 30
0.0
 11
105.281015
 21
69.562195
 31
0.0
  0
LINE
  5
482
100
AcDbEntity
  8
full3
 62
7
100
AcDbLine
 10
105.281015
 20
69.562195
 30
0.0
 11
105.281015
 21
73.221811
 31
0.0
  0
LINE
  5
483
100
AcDbEntity
  8
full3
 62
7
100
AcDbLine
 10
105.281015
 20
73.221811
 30
0.0
 11
105.281015
 21
76.881427
 31
0.0
  0
LINE
  5
484
100
AcDbEntity
  8
full3
 62
7
100
AcDbLine
 10
105.281015
 20
76.881427
 30
0.0
 11
105.281015
 21
80.395497
 31
0.0
  0
LINE
  5
485
100
AcDbEntity
  8
full3
 62
7
100
AcDbLine
 10
105.281015
 20
80.395497
 30
0.0
 11
105.281015
 21
83.624267
 31
0.0
  0
LINE
  5
486
100
AcDbEntity
  8
full3
 62
7
100
AcDbLine
 10
105.281015
 20
83.624267
 30
0.0
 11
105.281015
 21
86.439287
 31
0.0
  0
LINE
  5
487
100
AcDbEntity
  8
full3
 62
7
100
AcDbLine
 10
105.281015
 20
86.439287
 30
0.0
 11
105.281015
 21
88.728647
 31
0.0
  0
LINE
  5
488
100
AcDbEntity
  8
full3
 62
7
100
AcDbLine
 10
105.281015
 20
88.728647
 30
0.0
 11
105.281015
 21
90.401330
 31
0.0
  0
LINE
  5
489
100
AcDbEntity
  8
full3
 62
7
100
AcDbLine
 10
105.281015
 20
90.401330
 30
0.0
 11
105.281015
 21
91.390645
 31
0.0
  0
LINE
  5
48a
100
AcDbEntity
  8
full3
 62
7
100
AcDbLine
 10
105.281015
 20
41.570528
 30
0.0
 11
105.281015
 21
55.052978
 31
0.0
  0
LINE
  5
48b
100
AcDbEntity
  8
full3
 62
7
100
AcDbLine
 10
54.649962
 20
41.570528
 30
0.0
 11
54.649962
 21
55.052978
 31
0.0
  0
LINE
  5
48c
100
AcDbEntity
  8
full3
 62
7
100
AcDbLine
 10
105.281015
 20
55.052978
 30
0.0
 11
54.649962
 21
55.052978
 31
0.0
  0
SPLINE
  5
48d
100
AcDbEntity
  8
full3
 62
7
100
AcDbSpline
 70
8
 71
3
 72
8
 73
4
 74
0
 40
0
 40
0
 40
0
 40
0
 40
1
 40
1
 40
1
 40
1
 10
77.872473
 20
46.056536
 30
0.0
 10
77.872473
 20
44.900344
 30
0.0
 10
78.809548
 20
43.963066
 30
0.0
 10
79.965489
 20
43.963066
 30
0.0
  0
SPLINE
  5
48e
100
AcDbEntity
  8
full3
 62
7
100
AcDbSpline
 70
8
 71
3
 72
8
 73
4
 74
0
 40
0
 40
0
 40
0
 40
0
 40
1
 40
1
 40
1
 40
1
 10
79.965489
 20
43.963066
 30
0.0
 10
81.121429
 20
43.963066
 30
0.0
 10
82.058505
 20
44.900344
 30
0.0
 10
82.058505
 20
46.056536
 30
0.0
  0
SPLINE
  5
48f
100
AcDbEntity
  8
full3
 62
7
100
AcDbSpline
 70
8
 71
3
 72
8
 73
4
 74
0
 40
0
 40
0
 40
0
 40
0
 40
1
 40
1
 40
1
 40
1
 10
82.058505
 20
46.056536
 30
0.0
 10
82.058505
 20
47.212728
 30
0.0
 10
81.121429
 20
48.150007
 30
0.0
 10
79.965489
 20
48.150007
 30
0.0
  0
SPLINE
  5
490
100
AcDbEntity
  8
full3
 62
7
100
AcDbSpline
 70
8
 71
3
 72
8
 73
4
 74
0
 40
0
 40
0
 40
0
 40
0
 40
1
 40
1
 40
1
 40
1
 10
79.965489
 20
48.150007
 30
0.0
 10
78.809548
 20
48.150007
 30
0.0
 10
77.872473
 20
47.212728
 30
0.0
 10
77.872473
 20
46.056536
 30
0.0
  0
LINE
  5
491
100
AcDbEntity
  8
full3
 62
7
100
AcDbLine
 10
77.872473
 20
46.056536
 30
0.0
 11
77.872473
 21
46.056536
 31
0.0
  0
LINE
  5
492
100
AcDbEntity
  8
full3
 62
7
100
AcDbLine
 10
54.649962
 20
91.390645
 30
0.0
 11
54.649962
 21
104.873095
 31
0.0
  0
LINE
  5
493
100
AcDbEntity
  8
full3
 62
7
100
AcDbLine
 10
54.649962
 20
55.052978
 30
0.0
 11
54.649962
 21
56.042292
 31
0.0
  0
LINE
  5
494
100
AcDbEntity
  8
full3
 62
7
100
AcDbLine
 10
54.649962
 20
56.042292
 30
0.0
 11
54.649962
 21
57.714975
 31
0.0
  0
LINE
  5
495
100
AcDbEntity
  8
full3
 62
7
100
AcDbLine
 10
54.649962
 20
57.714975
 30
0.0
 11
54.649962
 21
60.004335
 31
0.0
  0
LINE
  5
496
100
AcDbEntity
  8
full3
 62
7
100
AcDbLine
 10
54.649962
 20
60.004335
 30
0.0
 11
54.649962
 21
62.819355
 31
0.0
  0
LINE
  5
497
100
AcDbEntity
  8
full3
 62
7
100
AcDbLine
 10
54.649962
 20
62.819355
 30
0.0
 11
54.649962
 21
66.048125
 31
0.0
  0
LINE
  5
498
100
AcDbEntity
  8
full3
 62
7
100
AcDbLine
 10
54.649962
 20
66.048125
 30
0.0
 11
54.649962
 21
69.562195
 31
0.0
  0
LINE
  5
499
100
AcDbEntity
  8
full3
 62
7
100
AcDbLine
 10
54.649962
 20
69.562195
 30
0.0
 11
54.649962
 21
73.221811
 31
0.0
  0
LINE
  5
49a
100
AcDbEntity
  8
full3
 62
7
100
AcDbLine
 10
54.649962
 20
73.221811
 30
0.0
 11
54.649962
 21
76.881427
 31
0.0
  0
LINE
  5
49b
100
AcDbEntity
  8
full3
 62
7
100
AcDbLine
 10
54.649962
 20
76.881427
 30
0.0
 11
54.649962
 21
80.395497
 31
0.0
  0
LINE
  5
49c
100
AcDbEntity
  8
full3
 62
7
100
AcDbLine
 10
54.649962
 20
80.395497
 30
0.0
 11
54.649962
 21
83.624267
 31
0.0
  0
LINE
  5
49d
100
AcDbEntity
  8
full3
 62
7
100
AcDbLine
 10
54.649962
 20
83.624267
 30
0.0
 11
54.649962
 21
86.439287
 31
0.0
  0
LINE
  5
49e
100
AcDbEntity
  8
full3
 62
7
100
AcDbLine
 10
54.649962
 20
86.439287
 30
0.0
 11
54.649962
 21
88.728647
 31
0.0
  0
LINE
  5
49f
100
AcDbEntity
  8
full3
 62
7
100
AcDbLine
 10
54.649962
 20
88.728647
 30
0.0
 11
54.649962
 21
90.401330
 31
0.0
  0
LINE
  5
4a0
100
AcDbEntity
  8
full3
 62
7
100
AcDbLine
 10
54.649962
 20
90.401330
 30
0.0
 11
54.649962
 21
91.390645
 31
0.0
  0
SPLINE
  5
4a1
100
AcDbEntity
  8
full3
 62
7
100
AcDbSpline
 70
8
 71
3
 72
8
 73
4
 74
0
 40
0
 40
0
 40
0
 40
0
 40
1
 40
1
 40
1
 40
1
 10
79.965489
 20
51.040990
 30
0.0
 10
77.642556
 20
51.040990
 30
0.0
 10
75.627722
 20
49.435701
 30
0.0
 10
75.108299
 20
47.171094
 30
0.0
  0
SPLINE
  5
4a2
100
AcDbEntity
  8
full3
 62
7
100
AcDbSpline
 70
8
 71
3
 72
8
 73
4
 74
0
 40
0
 40
0
 40
0
 40
0
 40
1
 40
1
 40
1
 40
1
 10
75.108299
 20
47.171094
 30
0.0
 10
74.588875
 20
44.906488
 30
0.0
 10
75.702647
 20
42.583291
 30
0.0
 10
77.793287
 20
41.570528
 30
0.0
  0
SPLINE
  5
4a3
100
AcDbEntity
  8
full3
 62
7
100
AcDbSpline
 70
8
 71
3
 72
8
 73
4
 74
0
 40
0
 40
0
 40
0
 40
0
 40
1
 40
1
 40
1
 40
1
 10
82.137690
 20
41.570528
 30
0.0
 10
84.228330
 20
42.583291
 30
0.0
 10
85.342102
 20
44.906488
 30
0.0
 10
84.822679
 20
47.171094
 30
0.0
  0
SPLINE
  5
4a4
100
AcDbEntity
  8
full3
 62
7
100
AcDbSpline
 70
8
 71
3
 72
8
 73
4
 74
0
 40
0
 40
0
 40
0
 40
0
 40
1
 40
1
 40
1
 40
1
 10
84.822679
 20
47.171094
 30
0.0
 10
84.303255
 20
49.435701
 30
0.0
 10
82.288421
 20
51.040990
 30
0.0
 10
79.965489
 20
51.040990
 30
0.0
  0
LINE
  5
4a5
100
AcDbEntity
  8
full3
 62
7
100
AcDbLine
 10
105.281015
 20
104.873095
 30
0.0
 11
54.649962
 21
104.873095
 31
0.0
  0
LINE
  5
4a6
100
AcDbEntity
  8
full3
 62
7
100
AcDbLine
 10
105.281015
 20
91.390645
 30
0.0
 11
54.649962
 21
91.390645
 31
0.0
  0
SPLINE
  5
4a7
100
AcDbEntity
  8
full3
 62
7
100
AcDbSpline
 70
8
 71
3
 72
8
 73
4
 74
0
 40
0
 40
0
 40
0
 40
0
 40
1
 40
1
 40
1
 40
1
 10
77.872473
 20
100.387086
 30
0.0
 10
77.872473
 20
99.230894
 30
0.0
 10
78.809548
 20
98.293615
 30
0.0
 10
79.965489
 20
98.293615
 30
0.0
  0
SPLINE
  5
4a8
100
AcDbEntity
  8
full3
 62
7
100
AcDbSpline
 70
8
 71
3
 72
8
 73
4
 74
0
 40
0
 40
0
 40
0
 40
0
 40
1
 40
1
 40
1
 40
1
 10
79.965489
 20
98.293615
 30
0.0
 10
81.121429
 20
98.293615
 30
0.0
 10
82.058505
 20
99.230894
 30
0.0
 10
82.058505
 20
100.387086
 30
0.0
  0
SPLINE
  5
4a9
100
AcDbEntity
  8
full3
 62
7
100
AcDbSpline
 70
8
 71
3
 72
8
 73
4
 74
0
 40
0
 40
0
 40
0
 40
0
 40
1
 40
1
 40
1
 40
1
 10
82.058505
 20
100.387086
 30
0.0
 10
82.058505
 20
101.543278
 30
0.0
 10
81.121429
 20
102.480557
 30
0.0
 10
79.965489
 20
102.480557
 30
0.0
  0
SPLINE
  5
4aa
100
AcDbEntity
  8
full3
 62
7
100
AcDbSpline
 70
8
 71
3
 72
8
 73
4
 74
0
 40
0
 40
0
 40
0
 40
0
 40
1
 40
1
 40
1
 40
1
 10
79.965489
 20
102.480557
 30
0.0
 10
78.809548
 20
102.480557
 30
0.0
 10
77.872473
 20
101.543278
 30
0.0
 10
77.872473
 20
100.387086
 30
0.0
  0
LINE
  5
4ab
100
AcDbEntity
  8
full3
 62
7
100
AcDbLine
 10
77.872473
 20
100.387086
 30
0.0
 11
77.872473
 21
100.387086
 31
0.0
  0
SPLINE
  5
4ac
100
AcDbEntity
  8
full3
 62
7
100
AcDbSpline
 70
8
 71
3
 72
8
 73
4
 74
0
 40
0
 40
0
 40
0
 40
0
 40
1
 40
1
 40
1
 40
1
 10
82.137690
 20
104.873095
 30
0.0
 10
84.228330
 20
103.860331
 30
0.0
 10
85.342102
 20
101.537134
 30
0.0
 10
84.822679
 20
99.272528
 30
0.0
  0
SPLINE
  5
4ad
100
AcDbEntity
  8
full3
 62
7
100
AcDbSpline
 70
8
 71
3
 72
8
 73
4
 74
0
 40
0
 40
0
 40
0
 40
0
 40
1
 40
1
 40
1
 40
1
 10
84.822679
 20
99.272528
 30
0.0
 10
84.303255
 20
97.007921
 30
0.0
 10
82.288421
 20
95.402632
 30
0.0
 10
79.965489
 20
95.402632
 30
0.0
  0
SPLINE
  5
4ae
100
AcDbEntity
  8
full3
 62
7
100
AcDbSpline
 70
8
 71
3
 72
8
 73
4
 74
0
 40
0
 40
0
 40
0
 40
0
 40
1
 40
1
 40
1
 40
1
 10
79.965489
 20
95.402632
 30
0.0
 10
77.642556
 20
95.402632
 30
0.0
 10
75.627722
 20
97.007921
 30
0.0
 10
75.108299
 20
99.272528
 30
0.0
  0
SPLINE
  5
4af
100
AcDbEntity
  8
full3
 62
7
100
AcDbSpline
 70
8
 71
3
 72
8
 73
4
 74
0
 40
0
 40
0
 40
0
 40
0
 40
1
 40
1
 40
1
 40
1
 10
75.108299
 20
99.272528
 30
0.0
 10
74.588875
 20
101.537134
 30
0.0
 10
75.702647
 20
103.860331
 30
0.0
 10
77.793287
 20
104.873095
 30
0.0
  0
LINE
  5
4b0
100
AcDbEntity
  8
full3
 62
7
100
AcDbLine
 10
77.793287
 20
41.570528
 30
0.0
 11
54.649962
 21
41.570528
 31
0.0
  0
LINE
  5
4b1
100
AcDbEntity
  8
full3
 62
7
100
AcDbLine
 10
82.137690
 20
41.570528
 30
0.0
 11
77.793287
 21
41.570528
 31
0.0
  0
LINE
  5
4b2
100
AcDbEntity
  8
full3
 62
7
100
AcDbLine
 10
105.281015
 20
41.570528
 30
0.0
 11
82.137690
 21
41.570528
 31
0.0
  0
LINE
  5
4b3
100
AcDbEntity
  8
full3
 62
7
100
AcDbLine
 10
105.281015
 20
41.570528
 30
0.0
 11
105.281015
 21
104.873095
 31
0.0
  0
LINE
  5
4b4
100
AcDbEntity
  8
full3
 62
7
100
AcDbLine
 10
54.649962
 20
41.570528
 30
0.0
 11
54.649962
 21
104.873095
 31
0.0
  0
LINE
  5
4b5
100
AcDbEntity
  8
full3
 62
7
100
AcDbLine
 10
105.281015
 20
104.873095
 30
0.0
 11
82.137690
 21
104.873095
 31
0.0
  0
SPLINE
  5
4b6
100
AcDbEntity
  8
full3
 62
7
100
AcDbSpline
 70
8
 71
3
 72
8
 73
4
 74
0
 40
0
 40
0
 40
0
 40
0
 40
1
 40
1
 40
1
 40
1
 10
82.137690
 20
104.873095
 30
0.0
 10
84.228330
 20
103.860331
 30
0.0
 10
85.342102
 20
101.537134
 30
0.0
 10
84.822679
 20
99.272528
 30
0.0
  0
SPLINE
  5
4b7
100
AcDbEntity
  8
full3
 62
7
100
AcDbSpline
 70
8
 71
3
 72
8
 73
4
 74
0
 40
0
 40
0
 40
0
 40
0
 40
1
 40
1
 40
1
 40
1
 10
84.822679
 20
99.272528
 30
0.0
 10
84.303255
 20
97.007921
 30
0.0
 10
82.288421
 20
95.402632
 30
0.0
 10
79.965489
 20
95.402632
 30
0.0
  0
SPLINE
  5
4b8
100
AcDbEntity
  8
full3
 62
7
100
AcDbSpline
 70
8
 71
3
 72
8
 73
4
 74
0
 40
0
 40
0
 40
0
 40
0
 40
1
 40
1
 40
1
 40
1
 10
79.965489
 20
95.402632
 30
0.0
 10
77.642556
 20
95.402632
 30
0.0
 10
75.627722
 20
97.007921
 30
0.0
 10
75.108299
 20
99.272528
 30
0.0
  0
SPLINE
  5
4b9
100
AcDbEntity
  8
full3
 62
7
100
AcDbSpline
 70
8
 71
3
 72
8
 73
4
 74
0
 40
0
 40
0
 40
0
 40
0
 40
1
 40
1
 40
1
 40
1
 10
75.108299
 20
99.272528
 30
0.0
 10
74.588875
 20
101.537134
 30
0.0
 10
75.702647
 20
103.860331
 30
0.0
 10
77.793287
 20
104.873095
 30
0.0
  0
LINE
  5
4ba
100
AcDbEntity
  8
full3
 62
7
100
AcDbLine
 10
77.793287
 20
104.873095
 30
0.0
 11
54.649962
 21
104.873095
 31
0.0
  0
SPLINE
  5
4bb
100
AcDbEntity
  8
full3
 62
7
100
AcDbSpline
 70
8
 71
3
 72
8
 73
4
 74
0
 40
0
 40
0
 40
0
 40
0
 40
1
 40
1
 40
1
 40
1
 10
79.965489
 20
51.040990
 30
0.0
 10
77.642556
 20
51.040990
 30
0.0
 10
75.627722
 20
49.435701
 30
0.0
 10
75.108299
 20
47.171094
 30
0.0
  0
SPLINE
  5
4bc
100
AcDbEntity
  8
full3
 62
7
100
AcDbSpline
 70
8
 71
3
 72
8
 73
4
 74
0
 40
0
 40
0
 40
0
 40
0
 40
1
 40
1
 40
1
 40
1
 10
75.108299
 20
47.171094
 30
0.0
 10
74.588875
 20
44.906488
 30
0.0
 10
75.702647
 20
42.583291
 30
0.0
 10
77.793287
 20
41.570528
 30
0.0
  0
SPLINE
  5
4bd
100
AcDbEntity
  8
full3
 62
7
100
AcDbSpline
 70
8
 71
3
 72
8
 73
4
 74
0
 40
0
 40
0
 40
0
 40
0
 40
1
 40
1
 40
1
 40
1
 10
82.137690
 20
41.570528
 30
0.0
 10
84.228330
 20
42.583291
 30
0.0
 10
85.342102
 20
44.906488
 30
0.0
 10
84.822679
 20
47.171094
 30
0.0
  0
SPLINE
  5
4be
100
AcDbEntity
  8
full3
 62
7
100
AcDbSpline
 70
8
 71
3
 72
8
 73
4
 74
0
 40
0
 40
0
 40
0
 40
0
 40
1
 40
1
 40
1
 40
1
 10
84.822679
 20
47.171094
 30
0.0
 10
84.303255
 20
49.435701
 30
0.0
 10
82.288421
 20
51.040990
 30
0.0
 10
79.965489
 20
51.040990
 30
0.0
  0
SPLINE
  5
4bf
100
AcDbEntity
  8
full3
 62
7
100
AcDbSpline
 70
8
 71
3
 72
8
 73
4
 74
0
 40
0
 40
0
 40
0
 40
0
 40
1
 40
1
 40
1
 40
1
 10
77.872473
 20
46.056536
 30
0.0
 10
77.872473
 20
44.900344
 30
0.0
 10
78.809548
 20
43.963066
 30
0.0
 10
79.965489
 20
43.963066
 30
0.0
  0
SPLINE
  5
4c0
100
AcDbEntity
  8
full3
 62
7
100
AcDbSpline
 70
8
 71
3
 72
8
 73
4
 74
0
 40
0
 40
0
 40
0
 40
0
 40
1
 40
1
 40
1
 40
1
 10
79.965489
 20
43.963066
 30
0.0
 10
81.121429
 20
43.963066
 30
0.0
 10
82.058505
 20
44.900344
 30
0.0
 10
82.058505
 20
46.056536
 30
0.0
  0
SPLINE
  5
4c1
100
AcDbEntity
  8
full3
 62
7
100
AcDbSpline
 70
8
 71
3
 72
8
 73
4
 74
0
 40
0
 40
0
 40
0
 40
0
 40
1
 40
1
 40
1
 40
1
 10
82.058505
 20
46.056536
 30
0.0
 10
82.058505
 20
47.212728
 30
0.0
 10
81.121429
 20
48.150007
 30
0.0
 10
79.965489
 20
48.150007
 30
0.0
  0
SPLINE
  5
4c2
100
AcDbEntity
  8
full3
 62
7
100
AcDbSpline
 70
8
 71
3
 72
8
 73
4
 74
0
 40
0
 40
0
 40
0
 40
0
 40
1
 40
1
 40
1
 40
1
 10
79.965489
 20
48.150007
 30
0.0
 10
78.809548
 20
48.150007
 30
0.0
 10
77.872473
 20
47.212728
 30
0.0
 10
77.872473
 20
46.056536
 30
0.0
  0
LINE
  5
4c3
100
AcDbEntity
  8
full3
 62
7
100
AcDbLine
 10
77.872473
 20
46.056536
 30
0.0
 11
77.872473
 21
46.056536
 31
0.0
  0
LINE
  5
4c4
100
AcDbEntity
  8
full3
 62
7
100
AcDbLine
 10
77.793287
 20
104.873095
 30
0.0
 11
82.137690
 21
104.873095
 31
0.0
  0
SPLINE
  5
4c5
100
AcDbEntity
  8
full3
 62
7
100
AcDbSpline
 70
8
 71
3
 72
8
 73
4
 74
0
 40
0
 40
0
 40
0
 40
0
 40
1
 40
1
 40
1
 40
1
 10
77.872473
 20
100.387086
 30
0.0
 10
77.872473
 20
99.230894
 30
0.0
 10
78.809548
 20
98.293615
 30
0.0
 10
79.965489
 20
98.293615
 30
0.0
  0
SPLINE
  5
4c6
100
AcDbEntity
  8
full3
 62
7
100
AcDbSpline
 70
8
 71
3
 72
8
 73
4
 74
0
 40
0
 40
0
 40
0
 40
0
 40
1
 40
1
 40
1
 40
1
 10
79.965489
 20
98.293615
 30
0.0
 10
81.121429
 20
98.293615
 30
0.0
 10
82.058505
 20
99.230894
 30
0.0
 10
82.058505
 20
100.387086
 30
0.0
  0
SPLINE
  5
4c7
100
AcDbEntity
  8
full3
 62
7
100
AcDbSpline
 70
8
 71
3
 72
8
 73
4
 74
0
 40
0
 40
0
 40
0
 40
0
 40
1
 40
1
 40
1
 40
1
 10
82.058505
 20
100.387086
 30
0.0
 10
82.058505
 20
101.543278
 30
0.0
 10
81.121429
 20
102.480557
 30
0.0
 10
79.965489
 20
102.480557
 30
0.0
  0
SPLINE
  5
4c8
100
AcDbEntity
  8
full3
 62
7
100
AcDbSpline
 70
8
 71
3
 72
8
 73
4
 74
0
 40
0
 40
0
 40
0
 40
0
 40
1
 40
1
 40
1
 40
1
 10
79.965489
 20
102.480557
 30
0.0
 10
78.809548
 20
102.480557
 30
0.0
 10
77.872473
 20
101.543278
 30
0.0
 10
77.872473
 20
100.387086
 30
0.0
  0
LINE
  5
4c9
100
AcDbEntity
  8
full3
 62
7
100
AcDbLine
 10
77.872473
 20
100.387086
 30
0.0
 11
77.872473
 21
100.387086
 31
0.0
  0
ENDSEC
  0
SECTION
  2
OBJECTS
  0
DICTIONARY
  5
C
330
0
100
AcDbDictionary
  3
ACAD_GROUP
350
D
  3
ACAD_MLINESTYLE
350
17
  0
DICTIONARY
  5
D
330
C
100
AcDbDictionary
  0
DICTIONARY
  5
1A
330
C
100
AcDbDictionary
  0
DICTIONARY
  5
17
330
C
100
AcDbDictionary
  3
STANDARD
350
18
  0
DICTIONARY
  5
19
330
C
100
AcDbDictionary
  0
ENDSEC
  0
EOF
