  0
SECTION
  2
HEADER
  9
$ACADVER
  1
AC1009
  9
$INSBASE
 10
0.0
 20
0.0
 30
0.0
  9
$EXTMIN
 10
0.0
 20
0.0
 30
0.0
  9
$EXTMAX
 10
0.0
 20
0.0
 30
0.0
  0
ENDSEC
  0
SECTION
  2
TABLES
  0
TABLE
  2
VPORT
 70
0
  0
ENDTAB
  0
TABLE
  2
LTYPE
 70
1
  0
LTYPE
  2
CONTINUOUS
 70
0
  3
Solid line
 72
65
 73
0
 40
0.0
  0
ENDTAB
  0
TABLE
  2
LAYER
 70
1
  0
LAYER
  2
0
 70
64
 62
7
  6
continuous
  0
ENDTAB
  0
TABLE
  2
STYLE
 70
1
  0
STYLE
  2
STANDARD
 70
0
 40
0
 41
1.0
 50
0.0
 71
0
 42
1
 3
ARIAL.TTF
 4

  0
ENDTAB
  0
TABLE
  2
VIEW
 70
0
  0
ENDTAB
  0
ENDSEC
  0
SECTION
  2
BLOCKS
  0
BLOCK
  8
0
  2
SHAPE2DVIEW005
 70
0
 10
0.0
 20
0.0
 30
0.0
  3
SHAPE2DVIEW005
  0
LINE
  8
0
 62
0
 10
-40.3463607749
 20
-24.4698304717
 30
0.0
 11
-22.1432865932
 21
-33.4124771905
 31
0.0
  0
LINE
  8
0
 62
0
 10
-40.3463607749
 20
-0.6625225765
 30
0.0
 11
-40.3463607749
 21
19.3820688316
 31
0.0
  0
LINE
  8
0
 62
0
 10
-36.4047502238
 20
-2.59892245654
 30
0.0
 11
-40.3463607749
 21
-0.6625225765
 31
0.0
  0
LINE
  8
0
 62
0
 10
-36.4047502238
 20
-4.69930606855
 30
0.0
 11
-36.4047502238
 21
-2.59892245654
 31
0.0
  0
LINE
  8
0
 62
0
 10
-38.0676014171
 20
-5.54472798567
 30
0.0
 11
-40.3463607749
 21
-4.42523906362
 31
0.0
  0
LINE
  8
0
 62
0
 10
-40.3463607749
 20
-24.4698304717
 30
0.0
 11
-40.3463607749
 21
-4.42523906362
 31
0.0
  0
LINE
  8
0
 62
0
 10
-40.3463607749
 20
-24.4698304717
 30
0.0
 11
3.94021241157
 21
-1.49677539411
 31
0.0
  0
LINE
  8
0
 62
0
 10
3.94021241157
 20
-1.49677539411
 30
0.0
 11
22.1432865932
 21
-10.4394221129
 31
0.0
  0
LINE
  8
0
 62
0
 10
12.710953971
 20
-15.3323158558
 30
0.0
 11
22.1432865932
 21
-10.4394221129
 31
0.0
  0
POLYLINE
  8
0
 62
0
 70
0
 66
1
 10
0.0
 20
0.0
 30
0.0
  0
VERTEX
  8
0
 10
-12.710953971
 20
-28.5195834475
 30
0.0
  0
VERTEX
  8
0
 10
-15.3242926776
 20
-25.9217411204
 30
0.0
  0
VERTEX
  8
0
 10
-16.2246157273
 20
-23.0437804915
 30
0.0
  0
SEQEND
  8
0
  0
POLYLINE
  8
0
 62
0
 70
0
 66
1
 10
0.0
 20
0.0
 30
0.0
  0
VERTEX
  8
0
 10
-16.2246157273
 20
-23.0437804915
 30
0.0
  0
VERTEX
  8
0
 10
-15.3426893361
 20
-20.1946491839
 30
0.0
  0
VERTEX
  8
0
 10
-12.7809960175
 20
-17.6171637241
 30
0.0
  0
VERTEX
  8
0
 10
-8.78377630607
 20
-15.5570703229
 30
0.0
  0
VERTEX
  8
0
 10
-3.73213869419
 20
-14.2107852764
 30
0.0
  0
VERTEX
  8
0
 10
1.89227654476
 20
-13.7066679697
 30
0.0
  0
VERTEX
  8
0
 10
7.55321857462
 20
-14.0927826578
 30
0.0
  0
VERTEX
  8
0
 10
12.710953971
 20
-15.3323158558
 30
0.0
  0
SEQEND
  8
0
  0
LINE
  8
0
 62
0
 10
-22.1432865932
 20
-33.4124771905
 30
0.0
 11
-12.710953971
 21
-28.5195834475
 31
0.0
  0
LINE
  8
0
 62
0
 10
-12.710953971
 20
-28.5195834475
 30
0.0
 11
-12.710953971
 21
-17.5679775355
 31
0.0
  0
LINE
  8
0
 62
0
 10
-40.3463607749
 20
19.3820688316
 30
0.0
 11
3.94021241157
 21
42.3551239092
 31
0.0
  0
LINE
  8
0
 62
0
 10
3.94021241157
 20
42.3551239092
 30
0.0
 11
22.1432865932
 21
33.4124771905
 31
0.0
  0
LINE
  8
0
 62
0
 10
3.94021241157
 20
-1.49677539411
 30
0.0
 11
3.94021241157
 21
18.547816014
 31
0.0
  0
POLYLINE
  8
0
 62
0
 70
0
 66
1
 10
0.0
 20
0.0
 30
0.0
  0
VERTEX
  8
0
 10
3.94021241157
 20
18.547816014
 30
0.0
  0
VERTEX
  8
0
 10
1.55485662121
 20
14.9775178804
 30
0.0
  0
VERTEX
  8
0
 10
-1.40288160857
 20
14.3134675075
 30
0.0
  0
SEQEND
  8
0
  0
POLYLINE
  8
0
 62
0
 70
0
 66
1
 10
0.0
 20
0.0
 30
0.0
  0
VERTEX
  8
0
 10
-1.40288160857
 20
14.3134675075
 30
0.0
  0
VERTEX
  8
0
 10
-2.68533790767
 20
16.9922605058
 30
0.0
  0
SEQEND
  8
0
  0
POLYLINE
  8
0
 62
0
 70
0
 66
1
 10
0.0
 20
0.0
 30
0.0
  0
VERTEX
  8
0
 10
-2.68533790767
 20
16.9922605058
 30
0.0
  0
VERTEX
  8
0
 10
-0.693547940149
 20
21.9246303846
 30
0.0
  0
VERTEX
  8
0
 10
3.00646928716
 20
23.2888574533
 30
0.0
  0
SEQEND
  8
0
  0
POLYLINE
  8
0
 62
0
 70
0
 66
1
 10
0.0
 20
0.0
 30
0.0
  0
VERTEX
  8
0
 10
3.00646928716
 20
23.2888574533
 30
0.0
  0
VERTEX
  8
0
 10
3.94021241157
 20
22.3105325011
 30
0.0
  0
SEQEND
  8
0
  0
LINE
  8
0
 62
0
 10
3.94021241157
 20
22.3105325011
 30
0.0
 11
3.94021241157
 21
42.3551239092
 31
0.0
  0
POLYLINE
  8
0
 62
0
 70
0
 66
1
 10
0.0
 20
0.0
 30
0.0
  0
VERTEX
  8
0
 10
-33.7208104557
 20
0.893032931711
 30
0.0
  0
VERTEX
  8
0
 10
-35.0032667548
 20
3.57182592997
 30
0.0
  0
SEQEND
  8
0
  0
POLYLINE
  8
0
 62
0
 70
0
 66
1
 10
0.0
 20
0.0
 30
0.0
  0
VERTEX
  8
0
 10
-35.0032667548
 20
3.57182592997
 30
0.0
  0
VERTEX
  8
0
 10
-37.9610049846
 20
2.90777555709
 30
0.0
  0
VERTEX
  8
0
 10
-40.3463607749
 20
-0.6625225765
 30
0.0
  0
SEQEND
  8
0
  0
POLYLINE
  8
0
 62
0
 70
0
 66
1
 10
0.0
 20
0.0
 30
0.0
  0
VERTEX
  8
0
 10
-40.3463607749
 20
-4.42523906362
 30
0.0
  0
VERTEX
  8
0
 10
-39.4126176505
 20
-5.40356401578
 30
0.0
  0
SEQEND
  8
0
  0
POLYLINE
  8
0
 62
0
 70
0
 66
1
 10
0.0
 20
0.0
 30
0.0
  0
VERTEX
  8
0
 10
-39.4126176505
 20
-5.40356401578
 30
0.0
  0
VERTEX
  8
0
 10
-35.7126004232
 20
-4.0393369471
 30
0.0
  0
VERTEX
  8
0
 10
-33.7208104557
 20
0.893032931711
 30
0.0
  0
SEQEND
  8
0
  0
POLYLINE
  8
0
 62
0
 70
0
 66
1
 10
0.0
 20
0.0
 30
0.0
  0
VERTEX
  8
0
 10
-33.7290708116
 20
1.18565301702
 30
0.0
  0
VERTEX
  8
0
 10
-36.4047502238
 20
-2.59892245654
 30
0.0
  0
SEQEND
  8
0
  0
LINE
  8
0
 62
0
 10
22.1432865932
 20
-10.4394221129
 30
0.0
 11
22.1432865932
 21
33.4124771905
 31
0.0
  0
LINE
  8
0
 62
0
 10
7.88182296272
 20
20.3741326211
 30
0.0
 11
3.94021241157
 21
22.3105325011
 31
0.0
  0
LINE
  8
0
 62
0
 10
7.88182296272
 20
20.3741326211
 30
0.0
 11
7.88182296272
 21
16.611416134
 31
0.0
  0
LINE
  8
0
 62
0
 10
7.88182296272
 20
16.611416134
 30
0.0
 11
3.94021241157
 21
18.547816014
 31
0.0
  0
POLYLINE
  8
0
 62
0
 70
0
 66
1
 10
0.0
 20
0.0
 30
0.0
  0
VERTEX
  8
0
 10
1.26453299943
 20
14.7632405404
 30
0.0
  0
VERTEX
  8
0
 10
1.25627264348
 20
15.0558606257
 30
0.0
  0
SEQEND
  8
0
  0
POLYLINE
  8
0
 62
0
 70
0
 66
1
 10
0.0
 20
0.0
 30
0.0
  0
VERTEX
  8
0
 10
1.25627264348
 20
15.0558606257
 30
0.0
  0
VERTEX
  8
0
 10
2.6030372628
 20
19.1619296007
 30
0.0
  0
VERTEX
  8
0
 10
5.60306360495
 20
21.4936215431
 30
0.0
  0
SEQEND
  8
0
  0
POLYLINE
  8
0
 62
0
 70
0
 66
1
 10
0.0
 20
0.0
 30
0.0
  0
VERTEX
  8
0
 10
6.20799972417
 20
17.6245014297
 30
0.0
  0
VERTEX
  8
0
 10
6.20050059439
 20
17.4374014489
 30
0.0
  0
SEQEND
  8
0
  0
POLYLINE
  8
0
 62
0
 70
0
 66
1
 10
0.0
 20
0.0
 30
0.0
  0
VERTEX
  8
0
 10
4.30614743274
 20
18.3680426645
 30
0.0
  0
VERTEX
  8
0
 10
5.66936807855
 20
18.749594489
 30
0.0
  0
SEQEND
  8
0
  0
POLYLINE
  8
0
 62
0
 70
0
 66
1
 10
0.0
 20
0.0
 30
0.0
  0
VERTEX
  8
0
 10
5.66936807855
 20
18.749594489
 30
0.0
  0
VERTEX
  8
0
 10
6.20799972417
 20
17.6245014297
 30
0.0
  0
SEQEND
  8
0
  0
LINE
  8
0
 62
0
 10
-2.68533790767
 20
16.9922605058
 30
0.0
 11
1.25627264348
 21
15.0558606257
 31
0.0
  0
ENDBLK
  0
ENDSEC
  0
SECTION
  2
ENTITIES
  0
INSERT
  2
SHAPE2DVIEW005
  8
0
 62
0
 10
0.0
 20
0.0
 30
0.0
  0
ENDSEC
  0
EOF
