999
dxfrw 0.6.3
  0
SECTION
  2
HEADER
  9
$ACADVER
  1
AC1021
  9
$DWGCODEPAGE
  3
ANSI_1252
  9
$INSBASE
 10
0
 20
0
 30
0
  9
$EXTMIN
 10
-1.224646799147353e-15
 20
0
 30
0
  9
$EXTMAX
 10
279.4
 20
215.9
 30
0
  9
$LIMMIN
 10
0
 20
0
  9
$LIMMAX
 10
420
 20
297
  9
$ORTHOMODE
 70
    0
  9
$REGENMODE
 70
    1
  9
$FILLMODE
 70
    1
  9
$QTEXTMODE
 70
    0
  9
$MIRRTEXT
 70
    0
  9
$LTSCALE
 40
1
  9
$ATTMODE
 70
    0
  9
$TEXTSIZE
 40
2.5
  9
$TRACEWID
 40
15.68
  9
$TEXTSTYLE
  7
STANDARD
  9
$CLAYER
  8
dims
  9
$CELTYPE
  6
BYLAYER
  9
$CECOLOR
 62
  256
  9
$CELTSCALE
 40
1
  9
$DISPSILH
 70
    0
  9
$DIMSCALE
 40
1
  9
$DIMASZ
 40
2.5
  9
$DIMEXO
 40
0.625
  9
$DIMDLI
 40
3.75
  9
$DIMRND
 40
0
  9
$DIMDLE
 40
0
  9
$DIMEXE
 40
1.25
  9
$DIMTP
 40
0
  9
$DIMTM
 40
0
  9
$DIMTXT
 40
2.5
  9
$DIMCEN
 40
2.5
  9
$DIMTSZ
 40
0
  9
$DIMTOL
 70
    0
  9
$DIMLIM
 70
    0
  9
$DIMTIH
 70
    1
  9
$DIMTOH
 70
    0
  9
$DIMSE1
 70
    0
  9
$DIMSE2
 70
    0
  9
$DIMTAD
 70
    1
  9
$DIMZIN
 70
    1
  9
$DIMBLK
  1

  9
$DIMASO
 70
    1
  9
$DIMSHO
 70
    1
  9
$DIMPOST
  1

  9
$DIMAPOST
  1

  9
$DIMALT
 70
    0
  9
$DIMALTD
 70
    3
  9
$DIMALTF
 40
0.03937
  9
$DIMLFAC
 40
1
  9
$DIMTOFL
 70
    1
  9
$DIMTVP
 40
0
  9
$DIMTIX
 70
    0
  9
$DIMSOXD
 70
    0
  9
$DIMSAH
 70
    0
  9
$DIMBLK1
  1

  9
$DIMBLK2
  1

  9
$DIMSTYLE
  2
STANDARD
  9
$DIMCLRD
 70
    0
  9
$DIMCLRE
 70
    0
  9
$DIMCLRT
 70
    0
  9
$DIMTFAC
 40
1
  9
$DIMGAP
 40
1
  9
$DIMJUST
 70
    0
  9
$DIMSD1
 70
    0
  9
$DIMSD2
 70
    0
  9
$DIMTOLJ
 70
    0
  9
$DIMTZIN
 70
    8
  9
$DIMALTZ
 70
    0
  9
$DIMALTTZ
 70
    0
  9
$DIMUPT
 70
    0
  9
$DIMDEC
 70
    1
  9
$DIMTDEC
 70
    2
  9
$DIMALTU
 70
    2
  9
$DIMALTTD
 70
    3
  9
$DIMTXSTY
  7
standard
  9
$DIMAUNIT
 70
    0
  9
$DIMADEC
 70
    1
  9
$DIMALTRND
 40
0
  9
$DIMAZIN
 70
    0
  9
$DIMDSEP
 70
    0
  9
$DIMATFIT
 70
    3
  9
$DIMFRAC
 70
    0
  9
$DIMLDRBLK
  1
STANDARD
  9
$DIMLUNIT
 70
    2
  9
$DIMLWD
 70
   -2
  9
$DIMLWE
 70
   -2
  9
$DIMTMOVE
 70
    0
  9
$DIMFXL
 40
1
  9
$DIMFXLON
 70
    0
  9
$DIMJOGANG
 40
0.7854
  9
$DIMTFILL
 70
    0
  9
$DIMTFILLCLR
 70
    0
  9
$DIMARCSYM
 70
    0
  9
$DIMLTYPE
  6

  9
$DIMLTEX1
  6

  9
$DIMLTEX2
  6

  9
$LUNITS
 70
    2
  9
$LUPREC
 70
    4
  9
$SKETCHINC
 40
1
  9
$FILLETRAD
 40
0
  9
$AUNITS
 70
    0
  9
$AUPREC
 70
    2
  9
$MENU
  1
.
  9
$ELEVATION
 40
0
  9
$PELEVATION
 40
0
  9
$THICKNESS
 40
0
  9
$LIMCHECK
 70
    0
  9
$CHAMFERA
 40
0
  9
$CHAMFERB
 40
0
  9
$CHAMFERC
 40
0
  9
$CHAMFERD
 40
0
  9
$SKPOLY
 70
    0
  9
$USRTIMER
 70
    1
  9
$ANGBASE
 50
0
  9
$ANGDIR
 70
    0
  9
$PDMODE
 70
   34
  9
$PDSIZE
 40
0
  9
$PLINEWID
 40
0
  9
$SPLFRAME
 70
    0
  9
$SPLINETYPE
 70
    2
  9
$SPLINESEGS
 70
    8
  9
$HANDSEED
  5
20000
  9
$SURFTAB1
 70
    6
  9
$SURFTAB2
 70
    6
  9
$SURFTYPE
 70
    6
  9
$SURFU
 70
    6
  9
$SURFV
 70
    6
  9
$UCSBASE
  2

  9
$UCSNAME
  2

  9
$UCSORG
 10
0
 20
0
 30
0
  9
$UCSXDIR
 10
1
 20
0
 30
0
  9
$UCSYDIR
 10
0
 20
1
 30
0
  9
$UCSORTHOREF
  2

  9
$UCSORTHOVIEW
 70
    0
  9
$UCSORGTOP
 10
0
 20
0
 30
0
  9
$UCSORGBOTTOM
 10
0
 20
0
 30
0
  9
$UCSORGLEFT
 10
0
 20
0
 30
0
  9
$UCSORGRIGHT
 10
0
 20
0
 30
0
  9
$UCSORGFRONT
 10
0
 20
0
 30
0
  9
$UCSORGBACK
 10
0
 20
0
 30
0
  9
$PUCSBASE
  2

  9
$PUCSNAME
  2

  9
$PUCSORG
 10
0
 20
0
 30
0
  9
$PUCSXDIR
 10
1
 20
0
 30
0
  9
$PUCSYDIR
 10
0
 20
1
 30
0
  9
$PUCSORTHOREF
  2

  9
$PUCSORTHOVIEW
 70
    0
  9
$PUCSORGTOP
 10
0
 20
0
 30
0
  9
$PUCSORGBOTTOM
 10
0
 20
0
 30
0
  9
$PUCSORGLEFT
 10
0
 20
0
 30
0
  9
$PUCSORGRIGHT
 10
0
 20
0
 30
0
  9
$PUCSORGFRONT
 10
0
 20
0
 30
0
  9
$PUCSORGBACK
 10
0
 20
0
 30
0
  9
$USERI1
 70
    0
  9
$USERI2
 70
    0
  9
$USERI3
 70
    0
  9
$USERI4
 70
    0
  9
$USERI5
 70
    0
  9
$USERR1
 40
0
  9
$USERR2
 40
0
  9
$USERR3
 40
0
  9
$USERR4
 40
0
  9
$USERR5
 40
0
  9
$WORLDVIEW
 70
    1
  9
$SHADEDGE
 70
    3
  9
$SHADEDIF
 70
   70
  9
$TILEMODE
 70
    1
  9
$MAXACTVP
 70
   64
  9
$PINSBASE
 10
1.224646799147353e-15
 20
0
 30
0
  9
$PLIMCHECK
 70
    0
  9
$PEXTMIN
 10
0
 20
0
 30
0
  9
$PEXTMAX
 10
0
 20
0
 30
0
  9
$GRIDMODE
 70
    1
  9
$SNAPSTYLE
 70
    0
  9
$GRIDUNIT
 10
0
 20
0
  9
$PLIMMIN
 10
0
 20
0
  9
$PLIMMAX
 10
279.4
 20
215.9
  9
$UNITMODE
 70
    0
  9
$VISRETAIN
 70
    1
  9
$PLINEGEN
 70
    0
  9
$PSLTSCALE
 70
    1
  9
$TREEDEPTH
 70
 3020
  9
$CMLSTYLE
  2
Standard
  9
$CMLJUST
 70
    0
  9
$CMLSCALE
 40
20
  9
$PROXYGRAPHICS
 70
    1
  9
$MEASUREMENT
 70
    1
  9
$CELWEIGHT
370
   -1
  9
$ENDCAPS
280
    0
  9
$JOINSTYLE
280
    0
  9
$LWDISPLAY
290
    0
  9
$INSUNITS
 70
    4
  9
$HYPERLINKBASE
  1

  9
$STYLESHEET
  1

  9
$XEDIT
290
    1
  9
$CEPSNTYPE
380
    0
  9
$PSTYLEMODE
290
    1
  9
$EXTNAMES
290
    1
  9
$PSVPSCALE
 40
1
  9
$OLESTARTUP
290
    0
  9
$SORTENTS
280
  127
  9
$INDEXCTL
280
    0
  9
$HIDETEXT
280
    1
  9
$XCLIPFRAME
290
    0
  9
$HALOGAP
280
    0
  9
$OBSCOLOR
 70
  257
  9
$OBSLTYPE
280
    0
  9
$INTERSECTIONDISPLAY
280
    0
  9
$INTERSECTIONCOLOR
 70
  257
  9
$DIMASSOC
280
    1
  9
$PROJECTNAME
  1

  9
$CAMERADISPLAY
290
    0
  9
$LENSLENGTH
 40
50
  9
$CAMERAHEIGHT
 40
0
  9
$STEPSPERSEC
 40
2
  9
$STEPSIZE
 40
50
  9
$3DDWFPREC
 40
2
  9
$PSOLWIDTH
 40
5
  9
$PSOLHEIGHT
 40
80
  9
$LOFTANG1
 40
1.570796326794897
  9
$LOFTANG2
 40
1.570796326794897
  9
$LOFTMAG1
 40
0
  9
$LOFTMAG2
 40
0
  9
$LOFTPARAM
 70
    7
  9
$LOFTNORMALS
280
    1
  9
$LATITUDE
 40
1
  9
$LONGITUDE
 40
1
  9
$NORTHDIRECTION
 40
0
  9
$TIMEZONE
 70
-8000
  9
$LIGHTGLYPHDISPLAY
280
    1
  9
$TILEMODELIGHTSYNCH
280
    1
  9
$SOLIDHIST
280
    1
  9
$SHOWHIST
280
    1
  9
$DWFFRAME
280
    2
  9
$DGNFRAME
280
    0
  9
$REALWORLDSCALE
290
    1
  9
$INTERFERECOLOR
 62
    1
  9
$CSHADOW
280
    0
  9
$SHADOWPLANELOCATION
 40
0
  0
ENDSEC
  0
SECTION
  2
CLASSES
  0
ENDSEC
  0
SECTION
  2
TABLES
  0
TABLE
  2
VPORT
  5
8
330
0
100
AcDbSymbolTable
 70
    1
  0
VPORT
  5
31
330
2
100
AcDbSymbolTableRecord
100
AcDbViewportTableRecord
  2
*ACTIVE
 70
    0
 10
0
 20
0
 11
1
 21
1
 12
190.5271367521368
 22
110.2566239316239
 13
0
 23
0
 14
10
 24
10
 15
10
 25
10
 16
0
 26
0
 36
1
 17
0
 27
0
 37
0
 40
225.1264957264957
 41
2.141393442622951
 42
50
 43
0
 44
0
 50
0
 51
0
 71
    0
 72
  100
 73
    1
 74
    3
 75
    0
 76
    1
 77
    0
 78
    0
281
    0
 65
    1
110
0
120
0
130
0
111
1
121
0
131
0
112
0
122
1
132
0
 79
    0
146
0
348
10020
 60
    7
 61
    5
292
1
282
    1
141
0
142
0
 63
  250
421
3358443
  0
ENDTAB
  0
TABLE
  2
LTYPE
  5
5
330
0
100
AcDbSymbolTable
 70
    4
  0
LTYPE
  5
14
330
5
100
AcDbSymbolTableRecord
100
AcDbLinetypeTableRecord
  2
ByBlock
 70
    0
  3

 72
   65
 73
    0
 40
0
  0
LTYPE
  5
15
330
5
100
AcDbSymbolTableRecord
100
AcDbLinetypeTableRecord
  2
ByLayer
 70
    0
  3

 72
   65
 73
    0
 40
0
  0
LTYPE
  5
16
330
5
100
AcDbSymbolTableRecord
100
AcDbLinetypeTableRecord
  2
Continuous
 70
    0
  3
Solid line
 72
   65
 73
    0
 40
0
  0
LTYPE
  5
32
330
5
100
AcDbSymbolTableRecord
100
AcDbLinetypeTableRecord
  2
DOT
 70
    0
  3
Dot . . . . . . . . . . . . . . . . . . . . . .
 72
   65
 73
    2
 40
6.35
 49
0
 74
    0
 49
-6.35
 74
    0
  0
LTYPE
  5
33
330
5
100
AcDbSymbolTableRecord
100
AcDbLinetypeTableRecord
  2
DOTTINY
 70
    0
  3
Dot (.15x) .....................................
 72
   65
 73
    2
 40
0.9525
 49
0
 74
    0
 49
-0.9525
 74
    0
  0
LTYPE
  5
34
330
5
100
AcDbSymbolTableRecord
100
AcDbLinetypeTableRecord
  2
DOT2
 70
    0
  3
Dot (.5x) .....................................
 72
   65
 73
    2
 40
3.175
 49
0
 74
    0
 49
-3.175
 74
    0
  0
LTYPE
  5
35
330
5
100
AcDbSymbolTableRecord
100
AcDbLinetypeTableRecord
  2
DOTX2
 70
    0
  3
Dot (2x) .  .  .  .  .  .  .  .  .  .  .  .  .
 72
   65
 73
    2
 40
12.7
 49
0
 74
    0
 49
-12.7
 74
    0
  0
LTYPE
  5
36
330
5
100
AcDbSymbolTableRecord
100
AcDbLinetypeTableRecord
  2
DASHED
 70
    0
  3
Dashed _ _ _ _ _ _ _ _ _ _ _ _ _ _ _ _ _
 72
   65
 73
    2
 40
19.05
 49
12.7
 74
    0
 49
-6.35
 74
    0
  0
LTYPE
  5
37
330
5
100
AcDbSymbolTableRecord
100
AcDbLinetypeTableRecord
  2
DASHEDTINY
 70
    0
  3
Dashed (.15x) _ _ _ _ _ _ _ _ _ _ _ _ _ _ _ _ _
 72
   65
 73
    2
 40
2.8575
 49
1.905
 74
    0
 49
-0.9525
 74
    0
  0
LTYPE
  5
38
330
5
100
AcDbSymbolTableRecord
100
AcDbLinetypeTableRecord
  2
DASHED2
 70
    0
  3
Dashed (.5x) _ _ _ _ _ _ _ _ _ _ _ _ _ _ _ _ _
 72
   65
 73
    2
 40
9.524999999999999
 49
6.35
 74
    0
 49
-3.175
 74
    0
  0
LTYPE
  5
39
330
5
100
AcDbSymbolTableRecord
100
AcDbLinetypeTableRecord
  2
DASHEDX2
 70
    0
  3
Dashed (2x) ____  ____  ____  ____  ____  ___
 72
   65
 73
    2
 40
38.09999999999999
 49
25.4
 74
    0
 49
-12.7
 74
    0
  0
LTYPE
  5
3A
330
5
100
AcDbSymbolTableRecord
100
AcDbLinetypeTableRecord
  2
DASHDOT
 70
    0
  3
Dash dot __ . __ . __ . __ . __ . __ . __ . __
 72
   65
 73
    4
 40
25.4
 49
12.7
 74
    0
 49
-6.35
 74
    0
 49
0
 74
    0
 49
-6.35
 74
    0
  0
LTYPE
  5
3B
330
5
100
AcDbSymbolTableRecord
100
AcDbLinetypeTableRecord
  2
DASHDOTTINY
 70
    0
  3
Dash dot (.15x) _._._._._._._._._._._._._._._.
 72
   65
 73
    4
 40
3.81
 49
1.905
 74
    0
 49
-0.9525
 74
    0
 49
0
 74
    0
 49
-0.9525
 74
    0
  0
LTYPE
  5
3C
330
5
100
AcDbSymbolTableRecord
100
AcDbLinetypeTableRecord
  2
DASHDOT2
 70
    0
  3
Dash dot (.5x) _._._._._._._._._._._._._._._.
 72
   65
 73
    4
 40
12.7
 49
6.35
 74
    0
 49
-3.175
 74
    0
 49
0
 74
    0
 49
-3.175
 74
    0
  0
LTYPE
  5
3D
330
5
100
AcDbSymbolTableRecord
100
AcDbLinetypeTableRecord
  2
DASHDOTX2
 70
    0
  3
Dash dot (2x) ____  .  ____  .  ____  .  ___
 72
   65
 73
    4
 40
50.8
 49
25.4
 74
    0
 49
-12.7
 74
    0
 49
0
 74
    0
 49
-12.7
 74
    0
  0
LTYPE
  5
3E
330
5
100
AcDbSymbolTableRecord
100
AcDbLinetypeTableRecord
  2
DIVIDE
 70
    0
  3
Divide ____ . . ____ . . ____ . . ____ . . ____
 72
   65
 73
    6
 40
31.75
 49
12.7
 74
    0
 49
-6.35
 74
    0
 49
0
 74
    0
 49
-6.35
 74
    0
 49
0
 74
    0
 49
-6.35
 74
    0
  0
LTYPE
  5
3F
330
5
100
AcDbSymbolTableRecord
100
AcDbLinetypeTableRecord
  2
DIVIDETINY
 70
    0
  3
Divide (.15x) __..__..__..__..__..__..__..__.._
 72
   65
 73
    6
 40
4.7625
 49
1.905
 74
    0
 49
-0.9525
 74
    0
 49
0
 74
    0
 49
-0.9525
 74
    0
 49
0
 74
    0
 49
-0.9525
 74
    0
  0
LTYPE
  5
40
330
5
100
AcDbSymbolTableRecord
100
AcDbLinetypeTableRecord
  2
DIVIDE2
 70
    0
  3
Divide (.5x) __..__..__..__..__..__..__..__.._
 72
   65
 73
    6
 40
15.875
 49
6.35
 74
    0
 49
-3.175
 74
    0
 49
0
 74
    0
 49
-3.175
 74
    0
 49
0
 74
    0
 49
-3.175
 74
    0
  0
LTYPE
  5
41
330
5
100
AcDbSymbolTableRecord
100
AcDbLinetypeTableRecord
  2
DIVIDEX2
 70
    0
  3
Divide (2x) ________  .  .  ________  .  .  _
 72
   65
 73
    6
 40
63.5
 49
25.4
 74
    0
 49
-12.7
 74
    0
 49
0
 74
    0
 49
-12.7
 74
    0
 49
0
 74
    0
 49
-12.7
 74
    0
  0
LTYPE
  5
42
330
5
100
AcDbSymbolTableRecord
100
AcDbLinetypeTableRecord
  2
BORDER
 70
    0
  3
Border __ __ . __ __ . __ __ . __ __ . __ __ .
 72
   65
 73
    6
 40
44.45
 49
12.7
 74
    0
 49
-6.35
 74
    0
 49
12.7
 74
    0
 49
-6.35
 74
    0
 49
0
 74
    0
 49
-6.35
 74
    0
  0
LTYPE
  5
43
330
5
100
AcDbSymbolTableRecord
100
AcDbLinetypeTableRecord
  2
BORDERTINY
 70
    0
  3
Border (.15x) __.__.__.__.__.__.__.__.__.__.__.
 72
   65
 73
    6
 40
6.6675
 49
1.905
 74
    0
 49
-0.9525
 74
    0
 49
1.905
 74
    0
 49
-0.9525
 74
    0
 49
0
 74
    0
 49
-0.9525
 74
    0
  0
LTYPE
  5
44
330
5
100
AcDbSymbolTableRecord
100
AcDbLinetypeTableRecord
  2
BORDER2
 70
    0
  3
Border (.5x) __.__.__.__.__.__.__.__.__.__.__.
 72
   65
 73
    6
 40
22.225
 49
6.35
 74
    0
 49
-3.175
 74
    0
 49
6.35
 74
    0
 49
-3.175
 74
    0
 49
0
 74
    0
 49
-3.175
 74
    0
  0
LTYPE
  5
45
330
5
100
AcDbSymbolTableRecord
100
AcDbLinetypeTableRecord
  2
BORDERX2
 70
    0
  3
Border (2x) ____  ____  .  ____  ____  .  ___
 72
   65
 73
    6
 40
88.89999999999999
 49
25.4
 74
    0
 49
-12.7
 74
    0
 49
25.4
 74
    0
 49
-12.7
 74
    0
 49
0
 74
    0
 49
-12.7
 74
    0
  0
LTYPE
  5
46
330
5
100
AcDbSymbolTableRecord
100
AcDbLinetypeTableRecord
  2
CENTER
 70
    0
  3
Center ____ _ ____ _ ____ _ ____ _ ____ _ ____
 72
   65
 73
    4
 40
50.8
 49
31.75
 74
    0
 49
-6.35
 74
    0
 49
6.35
 74
    0
 49
-6.35
 74
    0
  0
LTYPE
  5
47
330
5
100
AcDbSymbolTableRecord
100
AcDbLinetypeTableRecord
  2
CENTERTINY
 70
    0
  3
Center (.15x) ___ _ ___ _ ___ _ ___ _ ___ _ ___
 72
   65
 73
    4
 40
7.619999999999999
 49
4.7625
 74
    0
 49
-0.9525
 74
    0
 49
0.9525
 74
    0
 49
-0.9525
 74
    0
  0
LTYPE
  5
48
330
5
100
AcDbSymbolTableRecord
100
AcDbLinetypeTableRecord
  2
CENTER2
 70
    0
  3
Center (.5x) ___ _ ___ _ ___ _ ___ _ ___ _ ___
 72
   65
 73
    4
 40
28.575
 49
19.05
 74
    0
 49
-3.175
 74
    0
 49
3.175
 74
    0
 49
-3.175
 74
    0
  0
LTYPE
  5
49
330
5
100
AcDbSymbolTableRecord
100
AcDbLinetypeTableRecord
  2
CENTERX2
 70
    0
  3
Center (2x) ________  __  ________  __  _____
 72
   65
 73
    4
 40
101.6
 49
63.5
 74
    0
 49
-12.7
 74
    0
 49
12.7
 74
    0
 49
-12.7
 74
    0
  0
ENDTAB
  0
TABLE
  2
LAYER
  5
2
330
0
100
AcDbSymbolTable
 70
    1
  0
LAYER
  5
10
330
2
100
AcDbSymbolTableRecord
100
AcDbLayerTableRecord
  2
0
 70
    0
 62
    7
  6
CONTINUOUS
370
   50
390
F
  0
LAYER
  5
4A
330
2
100
AcDbSymbolTableRecord
100
AcDbLayerTableRecord
  2
dims
 70
    0
 62
    7
  6
CONTINUOUS
370
   25
390
F
  0
LAYER
  5
4B
330
2
100
AcDbSymbolTableRecord
100
AcDbLayerTableRecord
  2
dims_dotted
 70
    0
 62
    7
  6
DASHEDTINY
370
   25
390
F
  0
LAYER
  5
4C
330
2
100
AcDbSymbolTableRecord
100
AcDbLayerTableRecord
  2
frame
 70
    0
 62
    7
  6
CONTINUOUS
370
   25
390
F
  0
LAYER
  5
4D
330
2
100
AcDbSymbolTableRecord
100
AcDbLayerTableRecord
  2
hatches
 70
    0
 62
    7
  6
CONTINUOUS
370
   18
390
F
  0
LAYER
  5
4E
330
2
100
AcDbSymbolTableRecord
100
AcDbLayerTableRecord
  2
logo
 70
    0
 62
    7
  6
CONTINUOUS
370
   70
390
F
  0
LAYER
  5
4F
330
2
100
AcDbSymbolTableRecord
100
AcDbLayerTableRecord
  2
paper_bounds
 70
    0
 62
    6
  6
CONTINUOUS
290
0
370
    0
390
F
  0
LAYER
  5
50
330
2
100
AcDbSymbolTableRecord
100
AcDbLayerTableRecord
  2
title
 70
    0
 62
    7
  6
CONTINUOUS
370
   35
390
F
  0
ENDTAB
  0
TABLE
  2
STYLE
  5
3
330
0
100
AcDbSymbolTable
 70
    3
  0
STYLE
  5
51
330
2
100
AcDbSymbolTableRecord
100
AcDbTextStyleTableRecord
  2
iso
 70
    0
 40
0
 41
1
 50
0
 71
    0
 42
1
  3
iso
  4

  0
STYLE
  5
52
330
2
100
AcDbSymbolTableRecord
100
AcDbTextStyleTableRecord
  2
simplex
 70
    0
 40
0
 41
1
 50
0
 71
    0
 42
1
  3
simplex
  4

  0
STYLE
  5
53
330
2
100
AcDbSymbolTableRecord
100
AcDbTextStyleTableRecord
  2
Standard
 70
    0
 40
0
 41
1
 50
0
 71
    0
 42
1
  3
txt
  4

  0
ENDTAB
  0
TABLE
  2
VIEW
  5
6
330
0
100
AcDbSymbolTable
 70
    0
  0
ENDTAB
  0
TABLE
  2
UCS
  5
7
330
0
100
AcDbSymbolTable
 70
    0
  0
ENDTAB
  0
TABLE
  2
APPID
  5
9
330
0
100
AcDbSymbolTable
 70
    1
  0
APPID
  5
12
330
9
100
AcDbSymbolTableRecord
100
AcDbRegAppTableRecord
  2
ACAD
 70
    0
  0
APPID
  5
54
330
9
100
AcDbSymbolTableRecord
100
AcDbRegAppTableRecord
  2
LibreCad
 70
    0
  0
ENDTAB
  0
TABLE
  2
DIMSTYLE
  5
A
330
0
100
AcDbSymbolTable
 70
    1
100
AcDbDimStyleTable
 71
    1
  0
DIMSTYLE
105
55
330
A
100
AcDbSymbolTableRecord
100
AcDbDimStyleTableRecord
  2
Standard
 70
    0
 40
1
 41
2.5
 42
0.625
 43
0.38
 44
1.25
 45
0
 46
0
 47
0
 48
0
 49
1
140
2.5
141
0.09
142
0
143
25.4
144
1
145
0
146
1
147
1
148
0
 71
    0
 72
    0
 73
    1
 74
    1
 75
    0
 76
    0
 77
    0
 78
    1
 79
    0
170
    0
171
    2
172
    0
173
    0
174
    0
175
    0
176
    0
177
    0
178
    0
179
    1
271
    1
272
    4
273
    2
274
    2
275
    0
276
    0
277
    2
278
    0
279
    0
280
    0
281
    0
282
    0
283
    1
284
    0
285
    0
286
    0
288
    0
289
    3
340
standard
341

371
   -2
372
   -2
  0
ENDTAB
  0
TABLE
  2
BLOCK_RECORD
  5
1
330
0
100
AcDbSymbolTable
 70
    2
  0
BLOCK_RECORD
  5
1F
330
1
100
AcDbSymbolTableRecord
100
AcDbBlockTableRecord
  2
*Model_Space
 70
    0
280
    1
281
    0
  0
BLOCK_RECORD
  5
1E
330
1
100
AcDbSymbolTableRecord
100
AcDbBlockTableRecord
  2
*Paper_Space
 70
    0
280
    1
281
    0
  0
BLOCK_RECORD
  5
56
330
1
100
AcDbSymbolTableRecord
100
AcDbBlockTableRecord
  2
*D1
 70
    0
280
    1
281
    0
  0
BLOCK_RECORD
  5
59
330
1
100
AcDbSymbolTableRecord
100
AcDbBlockTableRecord
  2
*D7
 70
    0
280
    1
281
    0
  0
BLOCK_RECORD
  5
5C
330
1
100
AcDbSymbolTableRecord
100
AcDbBlockTableRecord
  2
*D3
 70
    0
280
    1
281
    0
  0
BLOCK_RECORD
  5
5F
330
1
100
AcDbSymbolTableRecord
100
AcDbBlockTableRecord
  2
*D8
 70
    0
280
    1
281
    0
  0
BLOCK_RECORD
  5
62
330
1
100
AcDbSymbolTableRecord
100
AcDbBlockTableRecord
  2
*D6
 70
    0
280
    1
281
    0
  0
BLOCK_RECORD
  5
65
330
1
100
AcDbSymbolTableRecord
100
AcDbBlockTableRecord
  2
*D2
 70
    0
280
    1
281
    0
  0
BLOCK_RECORD
  5
68
330
1
100
AcDbSymbolTableRecord
100
AcDbBlockTableRecord
  2
*D4
 70
    0
280
    1
281
    0
  0
BLOCK_RECORD
  5
6B
330
1
100
AcDbSymbolTableRecord
100
AcDbBlockTableRecord
  2
*D5
 70
    0
280
    1
281
    0
  0
BLOCK_RECORD
  5
6E
330
1
100
AcDbSymbolTableRecord
100
AcDbBlockTableRecord
  2
template
 70
    0
280
    1
281
    0
  0
ENDTAB
  0
ENDSEC
  0
SECTION
  2
BLOCKS
  0
BLOCK
  5
20
330
1F
100
AcDbEntity
  8
0
100
AcDbBlockBegin
  2
*Model_Space
 70
    0
 10
0
 20
0
 30
0
  3
*Model_Space
  1

  0
ENDBLK
  5
21
330
1F
100
AcDbEntity
  8
0
100
AcDbBlockEnd
  0
BLOCK
  5
1C
330
1B
100
AcDbEntity
  8
0
100
AcDbBlockBegin
  2
*Paper_Space
 70
    0
 10
0
 20
0
 30
0
  3
*Paper_Space
  1

  0
ENDBLK
  5
1D
330
1F
100
AcDbEntity
  8
0
100
AcDbBlockEnd
  0
BLOCK
  5
57
330
56
100
AcDbEntity
  8
0
100
AcDbBlockBegin
  2
*D1
 70
    1
 10
0
 20
0
  3
*D1
  1

  0
LINE
  5
71
100
AcDbEntity
  8
dims
  6
ByBlock
 62
    0
370
   -2
100
AcDbLine
 10
60
 20
135.1515803484782
 11
65.00694444444413
 21
135.1515803484782
  0
MTEXT
  5
72
100
AcDbEntity
  8
dims
  6
CONTINUOUS
 62
    0
370
   -2
100
AcDbMText
 10
75
 20
135.1515803484782
 30
0
 40
2.5
 41
17.98611111111173
 71
    5
 72
    1
  1
30 minimum
  7
standard
210
0
220
0
230
1
 50
0
 73
    2
 44
1
  0
SOLID
  5
73
100
AcDbEntity
  8
dims
  6
ByBlock
 62
    0
370
   -2
100
AcDbTrace
 10
60
 20
135.1515803484782
 30
0
 11
62.5
 21
135.5678650062511
 31
0
 12
62.5
 22
134.7352956907054
 32
0
 13
62.5
 23
134.7352956907054
 33
0
  0
SOLID
  5
74
100
AcDbEntity
  8
dims
  6
ByBlock
 62
    0
370
   -2
100
AcDbTrace
 10
90
 20
135.1515803484782
 30
0
 11
87.5
 21
134.7352956907054
 31
0
 12
87.5
 22
135.5678650062511
 32
0
 13
87.5
 23
135.5678650062511
 33
0
  0
LINE
  5
75
100
AcDbEntity
  8
dims
  6
ByBlock
 62
    0
370
   -2
100
AcDbLine
 10
84.99305555555587
 20
135.1515803484782
 11
90
 21
135.1515803484782
  0
LINE
  5
76
100
AcDbEntity
  8
dims
  6
ByBlock
 62
    0
370
   -2
100
AcDbLine
 10
60
 20
131.2625
 11
60
 21
136.4015803484782
  0
LINE
  5
77
100
AcDbEntity
  8
dims
  6
ByBlock
 62
    0
370
   -2
100
AcDbLine
 10
90
 20
131.2625
 11
90
 21
136.4015803484782
  0
ENDBLK
  5
58
330
56
100
AcDbEntity
  8
0
100
AcDbBlockEnd
  0
BLOCK
  5
5A
330
59
100
AcDbEntity
  8
0
100
AcDbBlockBegin
  2
*D7
 70
    1
 10
0
 20
0
  3
*D7
  1

  0
LINE
  5
78
100
AcDbEntity
  8
dims
  6
ByBlock
 62
    0
370
   -2
100
AcDbLine
 10
32.04720571808959
 20
130.6375
 11
32.04720571808959
 21
112.25
  0
MTEXT
  5
79
100
AcDbEntity
  8
dims
  6
CONTINUOUS
 62
    0
370
   -2
100
AcDbMText
 10
32.04720571808959
 20
110
 30
0
 40
2.5
 41
20.62500000000031
 71
    5
 72
    1
  1
41.3 [1-5/8"]
  7
standard
210
0
220
0
230
1
 50
0
 73
    2
 44
1
  0
SOLID
  5
7A
100
AcDbEntity
  8
dims
  6
ByBlock
 62
    0
370
   -2
100
AcDbTrace
 10
32.04720571808959
 20
130.6375
 30
0
 11
32.46349037586243
 21
128.1375
 31
0
 12
31.63092106031675
 22
128.1375
 32
0
 13
31.63092106031675
 23
128.1375
 33
0
  0
SOLID
  5
7B
100
AcDbEntity
  8
dims
  6
ByBlock
 62
    0
370
   -2
100
AcDbTrace
 10
32.04720571808959
 20
89.3625
 30
0
 11
31.63092106031675
 21
91.8625
 31
0
 12
32.46349037586243
 22
91.8625
 32
0
 13
32.46349037586243
 23
91.8625
 33
0
  0
LINE
  5
7C
100
AcDbEntity
  8
dims
  6
ByBlock
 62
    0
370
   -2
100
AcDbLine
 10
32.04720571808959
 20
107.75
 11
32.04720571808959
 21
89.3625
  0
LINE
  5
7D
100
AcDbEntity
  8
dims
  6
ByBlock
 62
    0
370
   -2
100
AcDbLine
 10
49.37499999999999
 20
130.6375
 11
30.79720571808959
 21
130.6375
  0
LINE
  5
7E
100
AcDbEntity
  8
dims
  6
ByBlock
 62
    0
370
   -2
100
AcDbLine
 10
49.375
 20
89.3625
 11
30.79720571808959
 21
89.3625
  0
ENDBLK
  5
5B
330
59
100
AcDbEntity
  8
0
100
AcDbBlockEnd
  0
BLOCK
  5
5D
330
5C
100
AcDbEntity
  8
0
100
AcDbBlockBegin
  2
*D3
 70
    1
 10
0
 20
0
  3
*D3
  1

  0
LINE
  5
7F
100
AcDbEntity
  8
dims
  6
ByBlock
 62
    0
370
   -2
100
AcDbLine
 10
124.625
 20
91
 11
136.7321981638502
 21
91
  0
LINE
  5
80
100
AcDbEntity
  8
dims
  6
ByBlock
 62
    0
370
   -2
100
AcDbLine
 10
124.6010292130623
 20
97.41796531532211
 11
135.1567875492999
 21
100.8742374397342
  0
ARC
  5
81
100
AcDbEntity
  8
dims
  6
ByBlock
 62
    0
370
   -2
100
AcDbCircle
 10
105
 20
91
 40
30.48219816385021
100
AcDbArc
 50
0
 51
18.12999999999997
  0
SOLID
  5
82
100
AcDbEntity
  8
dims
  6
ByBlock
 62
    0
370
   -2
100
AcDbTrace
 10
135.4821981638502
 20
91
 30
0
 11
134.9637733502861
 21
93.48083224523103
 31
0
 12
135.795642731967
 22
93.51496429776152
 32
0
 13
135.795642731967
 23
93.51496429776152
 33
0
  0
SOLID
  5
83
100
AcDbEntity
  8
dims
  6
ByBlock
 62
    0
370
   -2
100
AcDbTrace
 10
133.9688463848719
 20
100.4852698448662
 30
0
 11
135.0493210403211
 21
98.19270197559193
 31
0
 12
134.2481305248757
 22
97.96628328566442
 32
0
 13
134.2481305248757
 23
97.96628328566442
 33
0
  0
MTEXT
  5
84
100
AcDbEntity
  8
dims
  6
CONTINUOUS
 62
    0
370
   -2
100
AcDbMText
 10
136.0889929316713
 20
95.9601733560858
 30
0
 40
2.5
 41
4.166666666666667
 71
    8
 72
    1
  1
18%%D
  7
standard
210
0
220
0
230
1
 50
279.0649999999999
 73
    2
 44
1
  0
ENDBLK
  5
5E
330
5C
100
AcDbEntity
  8
0
100
AcDbBlockEnd
  0
BLOCK
  5
60
330
5F
100
AcDbEntity
  8
0
100
AcDbBlockBegin
  2
*D8
 70
    1
 10
0
 20
0
  3
*D8
  1

  0
LINE
  5
85
100
AcDbEntity
  8
dims
  6
CONTINUOUS
 62
    7
370
    0
100
AcDbLine
 10
70
 20
155.1780355019187
 11
80.64170041657086
 21
165.3536443872904
  0
SOLID
  5
86
100
AcDbEntity
  8
dims
  6
CONTINUOUS
 62
    7
370
    0
100
AcDbTrace
 10
70
 20
155.1780355019187
 30
0
 11
71.51919868925776
 21
157.2066626876911
 31
0
 12
72.09458878503249
 22
156.6049169748916
 32
0
 13
72.09458878503249
 23
156.6049169748916
 33
0
  0
ENDBLK
  5
61
330
5F
100
AcDbEntity
  8
0
100
AcDbBlockEnd
  0
BLOCK
  5
63
330
62
100
AcDbEntity
  8
0
100
AcDbBlockBegin
  2
*D6
 70
    1
 10
0
 20
0
  3
*D6
  1

  0
LINE
  5
87
100
AcDbEntity
  8
dims
  6
ByBlock
 62
    0
370
   -2
100
AcDbLine
 10
52.83042697354307
 20
135.6375
 11
52.83042697354307
 21
123.5
  0
MTEXT
  5
88
100
AcDbEntity
  8
dims
  6
CONTINUOUS
 62
    0
370
   -2
100
AcDbMText
 10
48.56481172879543
 20
120.6745808933991
 30
0
 40
2.5
 41
17.84722222222238
 71
    5
 72
    1
  1
2.1 [0.083"]
  7
standard
210
0
220
0
230
1
 50
0
 73
    2
 44
1
  0
SOLID
  5
89
100
AcDbEntity
  8
dims
  6
ByBlock
 62
    0
370
   -2
100
AcDbTrace
 10
52.83042697354307
 20
130.6375
 30
0
 11
52.41414231577023
 21
133.1375
 31
0
 12
53.24671163131591
 22
133.1375
 32
0
 13
53.24671163131591
 23
133.1375
 33
0
  0
SOLID
  5
8A
100
AcDbEntity
  8
dims
  6
ByBlock
 62
    0
370
   -2
100
AcDbTrace
 10
52.83042697354307
 20
128.5
 30
0
 11
53.24671163131591
 21
126
 31
0
 12
52.41414231577023
 22
126
 32
0
 13
52.41414231577023
 23
126
 33
0
  0
LINE
  5
8B
100
AcDbEntity
  8
dims
  6
ByBlock
 62
    0
370
   -2
100
AcDbLine
 10
59.375
 20
130.6375
 11
51.58042697354307
 21
130.6375
  0
LINE
  5
8C
100
AcDbEntity
  8
dims
  6
ByBlock
 62
    0
370
   -2
100
AcDbLine
 10
59.375
 20
128.5
 11
51.58042697354307
 21
128.5
  0
ENDBLK
  5
64
330
62
100
AcDbEntity
  8
0
100
AcDbBlockEnd
  0
BLOCK
  5
66
330
65
100
AcDbEntity
  8
0
100
AcDbBlockBegin
  2
*D2
 70
    1
 10
0
 20
0
  3
*D2
  1

  0
LINE
  5
8D
100
AcDbEntity
  8
dims
  6
ByBlock
 62
    0
370
   -2
100
AcDbLine
 10
95.0000000000001
 20
84.5565265962048
 11
100.9444444444444
 21
84.5565265962048
  0
MTEXT
  5
8E
100
AcDbEntity
  8
dims
  6
CONTINUOUS
 62
    0
370
   -2
100
AcDbMText
 10
102.5
 20
84.5565265962048
 30
0
 40
2.5
 41
1.111111111111266
 71
    5
 72
    1
  1
5
  7
standard
210
0
220
0
230
1
 50
0
 73
    2
 44
1
  0
SOLID
  5
8F
100
AcDbEntity
  8
dims
  6
ByBlock
 62
    0
370
   -2
100
AcDbTrace
 10
100.0000000000001
 20
84.5565265962048
 30
0
 11
97.5000000000001
 21
84.14024193843197
 31
0
 12
97.5000000000001
 22
84.97281125397764
 32
0
 13
97.5000000000001
 23
84.97281125397764
 33
0
  0
SOLID
  5
90
100
AcDbEntity
  8
dims
  6
ByBlock
 62
    0
370
   -2
100
AcDbTrace
 10
105
 20
84.5565265962048
 30
0
 11
107.5
 21
84.97281125397764
 31
0
 12
107.5
 22
84.14024193843197
 32
0
 13
107.5
 23
84.14024193843197
 33
0
  0
LINE
  5
91
100
AcDbEntity
  8
dims
  6
ByBlock
 62
    0
370
   -2
100
AcDbLine
 10
104.0555555555556
 20
84.5565265962048
 11
110
 21
84.5565265962048
  0
LINE
  5
92
100
AcDbEntity
  8
dims
  6
ByBlock
 62
    0
370
   -2
100
AcDbLine
 10
100.0000000000001
 20
88.7375
 11
100.0000000000001
 21
83.3065265962048
  0
LINE
  5
93
100
AcDbEntity
  8
dims
  6
ByBlock
 62
    0
370
   -2
100
AcDbLine
 10
105
 20
90.375
 11
105
 21
83.3065265962048
  0
ENDBLK
  5
67
330
65
100
AcDbEntity
  8
0
100
AcDbBlockEnd
  0
BLOCK
  5
69
330
68
100
AcDbEntity
  8
0
100
AcDbBlockBegin
  2
*D4
 70
    1
 10
0
 20
0
  3
*D4
  1

  0
LINE
  5
94
100
AcDbEntity
  8
dims
  6
ByBlock
 62
    0
370
   -2
100
AcDbLine
 10
173
 20
136.657637758559
 11
179.9444444444445
 21
136.657637758559
  0
MTEXT
  5
95
100
AcDbEntity
  8
dims
  6
CONTINUOUS
 62
    0
370
   -2
100
AcDbMText
 10
181.5
 20
136.657637758559
 30
0
 40
2.5
 41
1.111111111111111
 71
    5
 72
    1
  1
7
  7
standard
210
0
220
0
230
1
 50
0
 73
    2
 44
1
  0
SOLID
  5
96
100
AcDbEntity
  8
dims
  6
ByBlock
 62
    0
370
   -2
100
AcDbTrace
 10
178
 20
136.657637758559
 30
0
 11
175.5
 21
136.2413531007861
 31
0
 12
175.5
 22
137.0739224163318
 32
0
 13
175.5
 23
137.0739224163318
 33
0
  0
SOLID
  5
97
100
AcDbEntity
  8
dims
  6
ByBlock
 62
    0
370
   -2
100
AcDbTrace
 10
185
 20
136.657637758559
 30
0
 11
187.5
 21
137.0739224163318
 31
0
 12
187.5
 22
136.2413531007861
 32
0
 13
187.5
 23
136.2413531007861
 33
0
  0
LINE
  5
98
100
AcDbEntity
  8
dims
  6
ByBlock
 62
    0
370
   -2
100
AcDbLine
 10
183.0555555555555
 20
136.657637758559
 11
190
 21
136.657637758559
  0
LINE
  5
99
100
AcDbEntity
  8
dims
  6
ByBlock
 62
    0
370
   -2
100
AcDbLine
 10
178
 20
131.2625
 11
178
 21
137.907637758559
  0
LINE
  5
9A
100
AcDbEntity
  8
dims
  6
ByBlock
 62
    0
370
   -2
100
AcDbLine
 10
185
 20
129.625
 11
185
 21
137.907637758559
  0
ENDBLK
  5
6A
330
68
100
AcDbEntity
  8
0
100
AcDbBlockEnd
  0
BLOCK
  5
6C
330
6B
100
AcDbEntity
  8
0
100
AcDbBlockBegin
  2
*D5
 70
    1
 10
0
 20
0
  3
*D5
  1

  0
LINE
  5
9B
100
AcDbEntity
  8
dims
  6
ByBlock
 62
    0
370
   -2
100
AcDbLine
 10
90
 20
135.1061996989584
 11
105
 21
135.1061996989584
  0
MTEXT
  5
9C
100
AcDbEntity
  8
dims
  6
CONTINUOUS
 62
    0
370
   -2
100
AcDbMText
 10
108.3049735921329
 20
135.1061996989584
 30
0
 40
2.5
 41
0
 71
    5
 72
    1
  1

  7
standard
210
0
220
0
230
1
 50
0
 73
    2
 44
1
  0
SOLID
  5
9D
100
AcDbEntity
  8
dims
  6
ByBlock
 62
    0
370
   -2
100
AcDbTrace
 10
90
 20
135.1061996989584
 30
0
 11
92.5
 21
135.5224843567312
 31
0
 12
92.5
 22
134.6899150411855
 32
0
 13
92.5
 23
134.6899150411855
 33
0
  0
SOLID
  5
9E
100
AcDbEntity
  8
dims
  6
ByBlock
 62
    0
370
   -2
100
AcDbTrace
 10
105
 20
135.1061996989584
 30
0
 11
102.5
 21
134.6899150411855
 31
0
 12
102.5
 22
135.5224843567312
 32
0
 13
102.5
 23
135.5224843567312
 33
0
  0
LINE
  5
9F
100
AcDbEntity
  8
dims
  6
ByBlock
 62
    0
370
   -2
100
AcDbLine
 10
90
 20
139.375
 11
90
 21
133.8561996989584
  0
LINE
  5
A0
100
AcDbEntity
  8
dims
  6
ByBlock
 62
    0
370
   -2
100
AcDbLine
 10
105
 20
129.625
 11
105
 21
136.3561996989584
  0
ENDBLK
  5
6D
330
6B
100
AcDbEntity
  8
0
100
AcDbBlockEnd
  0
BLOCK
  5
6F
330
6E
100
AcDbEntity
  8
0
100
AcDbBlockBegin
  2
template
 70
    0
 10
0
 20
0
  3
template
  1

  0
LWPOLYLINE
  5
A1
100
AcDbEntity
  8
frame
  6
ByLayer
 62
  256
370
   -1
100
AcDbPolyline
 90
    4
 70
    1
 43
0
 10
10
 20
10
 10
269.4
 20
10
 10
269.4
 20
205.9
 10
10
 20
205.9
  0
LINE
  5
A2
100
AcDbEntity
  8
paper_bounds
  6
ByLayer
 62
  256
370
   -1
100
AcDbLine
 10
0
 20
215.9
 11
20
 21
215.9
  0
LINE
  5
A3
100
AcDbEntity
  8
paper_bounds
  6
ByLayer
 62
  256
370
   -1
100
AcDbLine
 10
279.4
 20
0
 11
259.4
 21
0
  0
LINE
  5
A4
100
AcDbEntity
  8
paper_bounds
  6
ByLayer
 62
  256
370
   -1
100
AcDbLine
 10
279.4
 20
0
 11
279.4
 21
20
  0
LINE
  5
A5
100
AcDbEntity
  8
paper_bounds
  6
ByLayer
 62
  256
370
   -1
100
AcDbLine
 10
0
 20
215.9
 11
-1.224646799147353e-15
 21
195.9
  0
LINE
  5
A6
100
AcDbEntity
  8
frame
  6
ByLayer
 62
  256
370
   -1
100
AcDbLine
 10
10
 20
20
 11
269.4
 21
20
  0
LINE
  5
A7
100
AcDbEntity
  8
frame
  6
ByLayer
 62
  256
370
   -1
100
AcDbLine
 10
47.20000000000011
 20
20
 11
47.20000000000011
 21
10
  0
MTEXT
  5
A8
100
AcDbEntity
  8
logo
  6
ByLayer
 62
  256
370
   -1
100
AcDbMText
 10
13
 20
15.5
 30
0
 40
5
 41
31.42858333333333
 71
    4
 72
    1
  1
upcycles
  7
simplex
210
0
220
0
230
1
 50
0
 73
    2
 44
1
  0
ENDBLK
  5
70
330
6E
100
AcDbEntity
  8
0
100
AcDbBlockEnd
  0
ENDSEC
  0
SECTION
  2
ENTITIES
  0
HATCH
  5
A9
100
AcDbEntity
  8
hatches
  6
ByLayer
 62
  256
370
   -1
100
AcDbHatch
 10
0
 20
0
 30
0
210
0
220
0
230
1
  2
ansi31
 70
    0
 71
    0
 91
    1
 92
    0
 93
   12
 72
    1
 10
180
 20
130.6375
 11
185
 21
129
 72
    1
 10
185
 20
129
 11
185
 21
128.5
 72
    1
 10
185
 20
128.5
 11
180
 21
128.5
 72
    1
 10
180
 20
128.5
 11
178
 21
128.5
 72
    1
 10
178
 20
128.5
 11
178
 21
130.6375
 72
    1
 10
178
 20
130.6375
 11
180
 21
130.6375
 72
    1
 10
185
 20
91.50000000000001
 11
185
 21
91
 72
    1
 10
185
 20
91
 11
180
 21
89.3625
 72
    1
 10
180
 20
89.36250000000001
 11
178
 21
89.36250000000001
 72
    1
 10
178
 20
89.36250000000001
 11
178
 21
91.5
 72
    1
 10
178
 20
91.5
 11
180
 21
91.5
 72
    1
 10
180
 20
91.5
 11
185
 21
91.5
 97
    0
 75
    0
 76
    1
 52
0
 41
1
 77
    0
 78
    0
 98
    0
  0
HATCH
  5
AA
100
AcDbEntity
  8
hatches
  6
ByLayer
 62
  256
370
   -1
100
AcDbHatch
 10
0
 20
0
 30
0
210
0
220
0
230
1
  2
ansi31
 70
    0
 71
    0
 91
    1
 92
    0
 93
    5
 72
    1
 10
105
 20
128.5
 11
60
 21
128.5
 72
    1
 10
60
 20
128.5
 11
60
 21
130.6375
 72
    1
 10
60
 20
130.6375
 11
100
 21
130.6375
 72
    1
 10
100
 20
130.6375
 11
105
 21
129
 72
    1
 10
105
 20
129
 11
105
 21
128.5
 97
    0
 75
    0
 76
    1
 52
0
 41
1
 77
    0
 78
    0
 98
    0
  0
HATCH
  5
AB
100
AcDbEntity
  8
hatches
  6
ByLayer
 62
  256
370
   -1
100
AcDbHatch
 10
0
 20
0
 30
0
210
0
220
0
230
1
  2
ansi31
 70
    0
 71
    0
 91
    1
 92
    0
 93
    5
 72
    1
 10
60
 20
91.50000000000001
 11
105
 21
91.50000000000001
 72
    1
 10
105
 20
91.50000000000001
 11
105
 21
91
 72
    1
 10
105
 20
91
 11
100
 21
89.3625
 72
    1
 10
100
 20
89.3625
 11
60
 21
89.3625
 72
    1
 10
60
 20
89.3625
 11
60
 21
91.50000000000001
 97
    0
 75
    0
 76
    1
 52
0
 41
1
 77
    0
 78
    0
 98
    0
  0
INSERT
  5
AC
100
AcDbEntity
  8
0
  6
ByLayer
 62
  256
370
   -1
100
AcDbBlockReference
  2
template
 10
0
 20
0
 30
0
 41
1
 42
1
 43
0
 50
0
 70
    1
 71
    1
 44
0
 45
0
  0
MTEXT
  5
AD
100
AcDbEntity
  8
title
  6
ByLayer
 62
  256
370
   -1
100
AcDbMText
 10
160.1456692483029
 20
15.10808200455688
 30
0
 40
3
 41
121.083332061321
 71
    5
 72
    1
  1
HEAD TUBE REINFORCEMENT RINGS FOR 37MM HEAD TUBES
  7
iso
210
0
220
0
230
1
 50
0
 73
    2
 44
1
  0
LINE
  5
AE
100
AcDbEntity
  8
0
  6
ByLayer
 62
  256
370
   -1
100
AcDbLine
 10
60
 20
130.6375
 11
100
 21
130.6375
  0
LINE
  5
AF
100
AcDbEntity
  8
0
  6
ByLayer
 62
  256
370
   -1
100
AcDbLine
 10
100
 20
130.6375
 11
105
 21
129
  0
LINE
  5
B0
100
AcDbEntity
  8
0
  6
ByLayer
 62
  256
370
   -1
100
AcDbLine
 10
60
 20
89.3625
 11
100
 21
89.3625
  0
LINE
  5
B1
100
AcDbEntity
  8
0
  6
ByLayer
 62
  256
370
   -1
100
AcDbLine
 10
100
 20
89.3625
 11
105
 21
91
  0
LINE
  5
B2
100
AcDbEntity
  8
0
  6
ByLayer
 62
  256
370
   -1
100
AcDbLine
 10
60
 20
128.5
 11
105
 21
128.5
  0
LINE
  5
B3
100
AcDbEntity
  8
0
  6
ByLayer
 62
  256
370
   -1
100
AcDbLine
 10
105
 20
91.50000000000001
 11
60
 21
91.50000000000001
  0
LINE
  5
B4
100
AcDbEntity
  8
dims
  6
ByLayer
 62
  256
370
   -1
100
AcDbLine
 10
90
 20
130.6375
 11
90
 21
140
  0
LINE
  5
B5
100
AcDbEntity
  8
dims
  6
ByLayer
 62
  256
370
   -1
100
AcDbLine
 10
90
 20
140
 11
80
 21
140
  0
LINE
  5
B6
100
AcDbEntity
  8
dims
  6
ByLayer
 62
  256
370
   -1
100
AcDbLine
 10
80
 20
140
 11
80
 21
150
  0
LINE
  5
B7
100
AcDbEntity
  8
dims
  6
ByLayer
 62
  256
370
   -1
100
AcDbLine
 10
80
 20
150
 11
70
 21
150
  0
LINE
  5
B8
100
AcDbEntity
  8
dims
  6
ByLayer
 62
  256
370
   -1
100
AcDbLine
 10
70
 20
150
 11
70
 21
160
  0
LINE
  5
B9
100
AcDbEntity
  8
dims
  6
ByLayer
 62
  256
370
   -1
100
AcDbLine
 10
70
 20
160
 11
50
 21
160
  0
LINE
  5
BA
100
AcDbEntity
  8
dims
  6
ByLayer
 62
  256
370
   -1
100
AcDbLine
 10
60
 20
130.6375
 11
50
 21
130.6375
  0
LINE
  5
BB
100
AcDbEntity
  8
dims
  6
ByLayer
 62
  256
370
   -1
100
AcDbLine
 10
50
 20
130.6375
 11
50
 21
160
  0
LINE
  5
BC
100
AcDbEntity
  8
dims
  6
ByLayer
 62
  256
370
   -1
100
AcDbLine
 10
90
 20
89.3625
 11
90
 21
80
  0
LINE
  5
BD
100
AcDbEntity
  8
dims
  6
ByLayer
 62
  256
370
   -1
100
AcDbLine
 10
90
 20
80
 11
80
 21
80
  0
LINE
  5
BE
100
AcDbEntity
  8
dims
  6
ByLayer
 62
  256
370
   -1
100
AcDbLine
 10
80
 20
80
 11
80
 21
70
  0
LINE
  5
BF
100
AcDbEntity
  8
dims
  6
ByLayer
 62
  256
370
   -1
100
AcDbLine
 10
80
 20
70
 11
70
 21
70
  0
LINE
  5
C0
100
AcDbEntity
  8
dims
  6
ByLayer
 62
  256
370
   -1
100
AcDbLine
 10
70
 20
70
 11
70
 21
60
  0
LINE
  5
C1
100
AcDbEntity
  8
dims
  6
ByLayer
 62
  256
370
   -1
100
AcDbLine
 10
70
 20
60
 11
50
 21
60
  0
LINE
  5
C2
100
AcDbEntity
  8
dims
  6
ByLayer
 62
  256
370
   -1
100
AcDbLine
 10
60
 20
89.3625
 11
50
 21
89.3625
  0
LINE
  5
C3
100
AcDbEntity
  8
dims
  6
ByLayer
 62
  256
370
   -1
100
AcDbLine
 10
50
 20
89.3625
 11
50
 21
60
  0
LINE
  5
C4
100
AcDbEntity
  8
hatches
  6
ByLayer
 62
  256
370
   -1
100
AcDbLine
 10
60
 20
128.5
 11
60
 21
130.6375
  0
LINE
  5
C5
100
AcDbEntity
  8
hatches
  6
ByLayer
 62
  256
370
   -1
100
AcDbLine
 10
60
 20
130.6375
 11
100
 21
130.6375
  0
LINE
  5
C6
100
AcDbEntity
  8
hatches
  6
ByLayer
 62
  256
370
   -1
100
AcDbLine
 10
100
 20
130.6375
 11
105
 21
129
  0
LINE
  5
C7
100
AcDbEntity
  8
hatches
  6
ByLayer
 62
  256
370
   -1
100
AcDbLine
 10
105
 20
129
 11
105
 21
128.5
  0
LINE
  5
C8
100
AcDbEntity
  8
hatches
  6
ByLayer
 62
  256
370
   -1
100
AcDbLine
 10
105
 20
128.5
 11
60
 21
128.5
  0
LINE
  5
C9
100
AcDbEntity
  8
hatches
  6
ByLayer
 62
  256
370
   -1
100
AcDbLine
 10
60
 20
89.3625
 11
60
 21
91.50000000000001
  0
LINE
  5
CA
100
AcDbEntity
  8
hatches
  6
ByLayer
 62
  256
370
   -1
100
AcDbLine
 10
60
 20
91.50000000000001
 11
105
 21
91.50000000000001
  0
LINE
  5
CB
100
AcDbEntity
  8
hatches
  6
ByLayer
 62
  256
370
   -1
100
AcDbLine
 10
105
 20
91.50000000000001
 11
105
 21
91
  0
LINE
  5
CC
100
AcDbEntity
  8
hatches
  6
ByLayer
 62
  256
370
   -1
100
AcDbLine
 10
105
 20
91
 11
100
 21
89.3625
  0
LINE
  5
CD
100
AcDbEntity
  8
hatches
  6
ByLayer
 62
  256
370
   -1
100
AcDbLine
 10
100
 20
89.3625
 11
60
 21
89.3625
  0
DIMENSION
  5
CE
100
AcDbEntity
  8
dims
  6
ByLayer
 62
  256
370
   -1
100
AcDbDimension
  2
*D1
 10
88.28525603781975
 20
135.1515803484782
 30
0
 11
75
 21
135.1515803484782
 31
0
 70
   32
  1
30 minimum
 71
    5
 72
    0
  3
Standard
 53
0
210
0
220
0
230
1
100
AcDbAlignedDimension
 13
60
 23
130.6375
 33
0
 14
90
 24
130.6375
 34
0
100
AcDbRotatedDimension
  0
LINE
  5
CF
100
AcDbEntity
  8
dims_dotted
  6
ByLayer
 62
  256
370
   -1
100
AcDbLine
 10
105
 20
91
 11
124
 21
91
  0
LINE
  5
D0
100
AcDbEntity
  8
dims_dotted
  6
ByLayer
 62
  256
370
   -1
100
AcDbLine
 10
105
 20
91
 11
124.0070586308483
 21
97.22348151788812
  0
DIMENSION
  5
D1
100
AcDbEntity
  8
dims
  6
ByLayer
 62
  256
370
   -1
100
AcDbDimension
  2
*D2
 10
105
 20
84.5565265962048
 30
0
 11
102.5
 21
84.5565265962048
 31
0
 70
   32
  1
5
 71
    5
 72
    0
  3
Standard
 53
0
210
0
220
0
230
1
100
AcDbAlignedDimension
 13
100.0000000000001
 23
89.3625
 33
0
 14
105
 24
91
 34
0
100
AcDbRotatedDimension
  0
LINE
  5
D2
100
AcDbEntity
  8
dims_dotted
  6
ByLayer
 62
  256
370
   -1
100
AcDbLine
 10
60
 20
91.50000000000001
 11
60
 21
128.5
  0
LINE
  5
D3
100
AcDbEntity
  8
0
  6
ByLayer
 62
  256
370
   -1
100
AcDbLine
 10
60
 20
128.5
 11
60
 21
130.6375
  0
LINE
  5
D4
100
AcDbEntity
  8
0
  6
ByLayer
 62
  256
370
   -1
100
AcDbLine
 10
60
 20
91.50000000000001
 11
60
 21
89.3625
  0
LINE
  5
D5
100
AcDbEntity
  8
dims_dotted
  6
ByLayer
 62
  256
370
   -1
100
AcDbLine
 10
105
 20
91.50000000000001
 11
105
 21
128.5
  0
LINE
  5
D6
100
AcDbEntity
  8
0
  6
ByLayer
 62
  256
370
   -1
100
AcDbLine
 10
105
 20
91.50000000000001
 11
105
 21
91
  0
LINE
  5
D7
100
AcDbEntity
  8
0
  6
ByLayer
 62
  256
370
   -1
100
AcDbLine
 10
105
 20
128.5
 11
105
 21
129
  0
LINE
  5
D8
100
AcDbEntity
  8
0
  6
ByLayer
 62
  256
370
   -1
100
AcDbLine
 10
180
 20
130.6375
 11
185
 21
129
  0
LINE
  5
D9
100
AcDbEntity
  8
0
  6
ByLayer
 62
  256
370
   -1
100
AcDbLine
 10
185
 20
129
 11
185
 21
128.5
  0
LINE
  5
DA
100
AcDbEntity
  8
0
  6
ByLayer
 62
  256
370
   -1
100
AcDbLine
 10
185
 20
91.50000000000001
 11
185
 21
91
  0
LINE
  5
DB
100
AcDbEntity
  8
0
  6
ByLayer
 62
  256
370
   -1
100
AcDbLine
 10
185
 20
91
 11
180
 21
89.3625
  0
LINE
  5
DC
100
AcDbEntity
  8
0
  6
ByLayer
 62
  256
370
   -1
100
AcDbLine
 10
185
 20
128.5
 11
180
 21
128.5
  0
LINE
  5
DD
100
AcDbEntity
  8
0
  6
ByLayer
 62
  256
370
   -1
100
AcDbLine
 10
185
 20
91.5
 11
180
 21
91.5
  0
LINE
  5
DE
100
AcDbEntity
  8
0
  6
ByLayer
 62
  256
370
   -1
100
AcDbLine
 10
180
 20
130.6375
 11
178
 21
130.6375
  0
LINE
  5
DF
100
AcDbEntity
  8
0
  6
ByLayer
 62
  256
370
   -1
100
AcDbLine
 10
180
 20
128.5
 11
178
 21
128.5
  0
LINE
  5
E0
100
AcDbEntity
  8
0
  6
ByLayer
 62
  256
370
   -1
100
AcDbLine
 10
180
 20
91.5
 11
178
 21
91.5
  0
LINE
  5
E1
100
AcDbEntity
  8
0
  6
ByLayer
 62
  256
370
   -1
100
AcDbLine
 10
180
 20
89.36250000000001
 11
178
 21
89.36250000000001
  0
LINE
  5
E2
100
AcDbEntity
  8
0
  6
ByLayer
 62
  256
370
   -1
100
AcDbLine
 10
178
 20
89.36250000000001
 11
178
 21
91.5
  0
LINE
  5
E3
100
AcDbEntity
  8
0
  6
ByLayer
 62
  256
370
   -1
100
AcDbLine
 10
178
 20
128.5
 11
178
 21
130.6375
  0
LINE
  5
E4
100
AcDbEntity
  8
dims_dotted
  6
ByLayer
 62
  256
370
   -1
100
AcDbLine
 10
178
 20
128.5
 11
178
 21
91.5
  0
LINE
  5
E5
100
AcDbEntity
  8
dims_dotted
  6
ByLayer
 62
  256
370
   -1
100
AcDbLine
 10
185
 20
91.50000000000001
 11
185
 21
128.5
  0
DIMENSION
  5
E6
100
AcDbEntity
  8
dims
  6
ByLayer
 62
  256
370
   -1
100
AcDbDimension
  2
*D3
 10
124.0070586308483
 20
97.2234815178881
 30
0
 11
30
 21
10
 31
0
 70
   34
  1
18%%D
 71
    5
 72
    0
  3
Standard
 53
0
210
0
220
0
230
1
100
AcDb2LineAngularDimension
 13
105
 23
91
 33
0
 14
124
 24
91
 34
0
 15
105
 25
91
 35
0
 16
135.1510904510173
 26
95.4806416409714
 36
0
  0
DIMENSION
  5
E7
100
AcDbEntity
  8
dims
  6
ByLayer
 62
  256
370
   -1
100
AcDbDimension
  2
*D4
 10
185
 20
136.657637758559
 30
0
 11
181.5
 21
136.657637758559
 31
0
 70
   32
  1
7
 71
    5
  3
Standard
 53
0
210
0
220
0
230
1
100
AcDbAlignedDimension
 13
178
 23
130.6375
 33
0
 14
185
 24
129
 34
0
100
AcDbRotatedDimension
  0
DIMENSION
  5
E8
100
AcDbEntity
  8
dims
  6
ByLayer
 62
  256
370
   -1
100
AcDbDimension
  2
*D5
 10
104.878071707703
 20
135.1061996989584
 30
0
 11
108.3049735921329
 21
135.1061996989584
 31
0
 70
   32
  1
 
 71
    5
 72
    0
  3
Standard
 53
0
210
0
220
0
230
1
100
AcDbAlignedDimension
 13
90
 23
140
 33
0
 14
105
 24
129
 34
0
100
AcDbRotatedDimension
  0
MTEXT
  5
E9
100
AcDbEntity
  8
dims
  6
ByLayer
 62
  256
370
   -1
100
AcDbMText
 10
106.9530421956225
 20
135.1061996989584
 30
0
 40
2.5
 41
19.09722222222299
 71
    4
 72
    1
  1
15 minimum\P55 maximum
  7
iso
210
0
220
0
230
1
 50
0
 73
    2
 44
1
  0
DIMENSION
  5
EA
100
AcDbEntity
  8
dims
  6
ByLayer
 62
  256
370
   -1
100
AcDbDimension
  2
*D6
 10
52.83042697354307
 20
128.5
 30
0
 11
48.56481172879543
 21
120.6745808933991
 31
0
 70
   32
  1
2.1 [0.083"]
 71
    5
  3
Standard
 53
0
210
0
220
0
230
1
100
AcDbAlignedDimension
 13
60
 23
130.6375
 33
0
 14
60
 24
128.5
 34
0
 50
90
100
AcDbRotatedDimension
  0
DIMENSION
  5
EB
100
AcDbEntity
  8
dims
  6
ByLayer
 62
  256
370
   -1
100
AcDbDimension
  2
*D7
 10
32.04720571808959
 20
89.3625
 30
0
 11
32.04720571808959
 21
110
 31
0
 70
   32
  1
41.3 [1-5/8"]
 71
    5
 72
    0
  3
Standard
 53
0
210
0
220
0
230
1
100
AcDbAlignedDimension
 13
49.99999999999999
 23
130.6375
 33
0
 14
50
 24
89.3625
 34
0
 50
90
100
AcDbRotatedDimension
  0
MTEXT
  5
EC
100
AcDbEntity
  8
dims
  6
ByLayer
 62
  256
370
   -1
100
AcDbMText
 10
82.29175886912549
 20
165.5151225556373
 30
0
 40
2.5
 41
29.30555555555571
 71
    4
 72
    1
  1
FOUR JAW CHUCK
  7
iso
210
0
220
0
230
1
 50
0
 73
    2
 44
1
  0
LEADER
  5
ED
100
AcDbEntity
  8
dims
  6
ByLayer
 62
  256
370
   -1
100
AcDbLeader
  3
Standard
 71
    1
 72
    0
 73
    3
 74
    0
 75
    0
 40
1
 41
10
 76
2
 76
2
 10
70
 20
155.1780355019187
 30
0
 10
80.64170041657086
 20
165.3536443872904
 30
0
  0
MTEXT
  5
EE
100
AcDbEntity
  8
dims
  6
ByLayer
 62
  256
370
   -1
100
AcDbMText
 10
158.3728189556756
 20
64.0525860894036
 30
0
 40
2.5
 41
103.0555594127106
 71
    4
 72
    1
  1
Notes:\P1. Before chucking, use a flex hone to remove inside scale.\P2.
  7
iso
210
0
220
0
230
1
 50
0
 73
    2
 44
1
  0
ENDSEC
  0
SECTION
  2
OBJECTS
  0
DICTIONARY
  5
C
330
0
100
AcDbDictionary
281
    1
  3
ACAD_GROUP
350
D
  0
DICTIONARY
  5
D
330
C
100
AcDbDictionary
281
    1
  0
ENDSEC
  0
EOF
