999
dxfrw 0.6.3
  0
SECTION
  2
HEADER
  9
$ACADVER
  1
AC1021
  9
$DWGCODEPAGE
  3
ANSI_1252
  9
$INSBASE
 10
0
 20
0
 30
0
  9
$EXTMIN
 10
0
 20
0
 30
0
  9
$EXTMAX
 10
269.946001641993
 20
183.2212832612157
 30
0
  9
$LIMMIN
 10
0
 20
0
  9
$LIMMAX
 10
420
 20
297
  9
$ORTHOMODE
 70
    0
  9
$REGENMODE
 70
    1
  9
$FILLMODE
 70
    1
  9
$QTEXTMODE
 70
    0
  9
$MIRRTEXT
 70
    0
  9
$LTSCALE
 40
1
  9
$ATTMODE
 70
    0
  9
$TEXTSIZE
 40
2.5
  9
$TRACEWID
 40
15.68
  9
$TEXTSTYLE
  7
STANDARD
  9
$CLAYER
  8
Dimension
  9
$CELTYPE
  6
BYLAYER
  9
$CECOLOR
 62
  256
  9
$CELTSCALE
 40
1
  9
$DISPSILH
 70
    0
  9
$DIMSCALE
 40
1
  9
$DIMASZ
 40
2.5
  9
$DIMEXO
 40
0.625
  9
$DIMDLI
 40
3.75
  9
$DIMRND
 40
0
  9
$DIMDLE
 40
0
  9
$DIMEXE
 40
1.25
  9
$DIMTP
 40
0
  9
$DIMTM
 40
0
  9
$DIMTXT
 40
2.5
  9
$DIMCEN
 40
2.5
  9
$DIMTSZ
 40
0
  9
$DIMTOL
 70
    0
  9
$DIMLIM
 70
    0
  9
$DIMTIH
 70
    1
  9
$DIMTOH
 70
    0
  9
$DIMSE1
 70
    0
  9
$DIMSE2
 70
    0
  9
$DIMTAD
 70
    1
  9
$DIMZIN
 70
    1
  9
$DIMBLK
  1

  9
$DIMASO
 70
    1
  9
$DIMSHO
 70
    1
  9
$DIMPOST
  1

  9
$DIMAPOST
  1

  9
$DIMALT
 70
    0
  9
$DIMALTD
 70
    3
  9
$DIMALTF
 40
0.03937
  9
$DIMLFAC
 40
1
  9
$DIMTOFL
 70
    1
  9
$DIMTVP
 40
0
  9
$DIMTIX
 70
    0
  9
$DIMSOXD
 70
    0
  9
$DIMSAH
 70
    0
  9
$DIMBLK1
  1

  9
$DIMBLK2
  1

  9
$DIMSTYLE
  2
STANDARD
  9
$DIMCLRD
 70
    0
  9
$DIMCLRE
 70
    0
  9
$DIMCLRT
 70
    0
  9
$DIMTFAC
 40
1
  9
$DIMGAP
 40
0.625
  9
$DIMJUST
 70
    0
  9
$DIMSD1
 70
    0
  9
$DIMSD2
 70
    0
  9
$DIMTOLJ
 70
    0
  9
$DIMTZIN
 70
    8
  9
$DIMALTZ
 70
    0
  9
$DIMALTTZ
 70
    0
  9
$DIMUPT
 70
    0
  9
$DIMDEC
 70
    2
  9
$DIMTDEC
 70
    2
  9
$DIMALTU
 70
    2
  9
$DIMALTTD
 70
    3
  9
$DIMTXSTY
  7
standard
  9
$DIMAUNIT
 70
    0
  9
$DIMADEC
 70
    2
  9
$DIMALTRND
 40
0
  9
$DIMAZIN
 70
    0
  9
$DIMDSEP
 70
    0
  9
$DIMATFIT
 70
    3
  9
$DIMFRAC
 70
    0
  9
$DIMLDRBLK
  1
STANDARD
  9
$DIMLUNIT
 70
    2
  9
$DIMLWD
 70
   -2
  9
$DIMLWE
 70
   -2
  9
$DIMTMOVE
 70
    0
  9
$DIMFXL
 40
1
  9
$DIMFXLON
 70
    0
  9
$DIMJOGANG
 40
0.7854
  9
$DIMTFILL
 70
    0
  9
$DIMTFILLCLR
 70
    0
  9
$DIMARCSYM
 70
    0
  9
$DIMLTYPE
  6

  9
$DIMLTEX1
  6

  9
$DIMLTEX2
  6

  9
$LUNITS
 70
    2
  9
$LUPREC
 70
    4
  9
$SKETCHINC
 40
1
  9
$FILLETRAD
 40
0
  9
$AUNITS
 70
    0
  9
$AUPREC
 70
    2
  9
$MENU
  1
.
  9
$ELEVATION
 40
0
  9
$PELEVATION
 40
0
  9
$THICKNESS
 40
0
  9
$LIMCHECK
 70
    0
  9
$CHAMFERA
 40
0
  9
$CHAMFERB
 40
0
  9
$CHAMFERC
 40
0
  9
$CHAMFERD
 40
0
  9
$SKPOLY
 70
    0
  9
$USRTIMER
 70
    1
  9
$ANGBASE
 50
0
  9
$ANGDIR
 70
    0
  9
$PDMODE
 70
   34
  9
$PDSIZE
 40
0
  9
$PLINEWID
 40
0
  9
$SPLFRAME
 70
    0
  9
$SPLINETYPE
 70
    2
  9
$SPLINESEGS
 70
    8
  9
$HANDSEED
  5
20000
  9
$SURFTAB1
 70
    6
  9
$SURFTAB2
 70
    6
  9
$SURFTYPE
 70
    6
  9
$SURFU
 70
    6
  9
$SURFV
 70
    6
  9
$UCSBASE
  2

  9
$UCSNAME
  2

  9
$UCSORG
 10
0
 20
0
 30
0
  9
$UCSXDIR
 10
1
 20
0
 30
0
  9
$UCSYDIR
 10
0
 20
1
 30
0
  9
$UCSORTHOREF
  2

  9
$UCSORTHOVIEW
 70
    0
  9
$UCSORGTOP
 10
0
 20
0
 30
0
  9
$UCSORGBOTTOM
 10
0
 20
0
 30
0
  9
$UCSORGLEFT
 10
0
 20
0
 30
0
  9
$UCSORGRIGHT
 10
0
 20
0
 30
0
  9
$UCSORGFRONT
 10
0
 20
0
 30
0
  9
$UCSORGBACK
 10
0
 20
0
 30
0
  9
$PUCSBASE
  2

  9
$PUCSNAME
  2

  9
$PUCSORG
 10
0
 20
0
 30
0
  9
$PUCSXDIR
 10
1
 20
0
 30
0
  9
$PUCSYDIR
 10
0
 20
1
 30
0
  9
$PUCSORTHOREF
  2

  9
$PUCSORTHOVIEW
 70
    0
  9
$PUCSORGTOP
 10
0
 20
0
 30
0
  9
$PUCSORGBOTTOM
 10
0
 20
0
 30
0
  9
$PUCSORGLEFT
 10
0
 20
0
 30
0
  9
$PUCSORGRIGHT
 10
0
 20
0
 30
0
  9
$PUCSORGFRONT
 10
0
 20
0
 30
0
  9
$PUCSORGBACK
 10
0
 20
0
 30
0
  9
$USERI1
 70
    0
  9
$USERI2
 70
    0
  9
$USERI3
 70
    0
  9
$USERI4
 70
    0
  9
$USERI5
 70
    0
  9
$USERR1
 40
0
  9
$USERR2
 40
0
  9
$USERR3
 40
0
  9
$USERR4
 40
0
  9
$USERR5
 40
0
  9
$WORLDVIEW
 70
    1
  9
$SHADEDGE
 70
    3
  9
$SHADEDIF
 70
   70
  9
$TILEMODE
 70
    1
  9
$MAXACTVP
 70
   64
  9
$PINSBASE
 10
1.224646799147353e-15
 20
0
 30
0
  9
$PLIMCHECK
 70
    0
  9
$PEXTMIN
 10
0
 20
0
 30
0
  9
$PEXTMAX
 10
0
 20
0
 30
0
  9
$GRIDMODE
 70
    1
  9
$SNAPSTYLE
 70
    0
  9
$GRIDUNIT
 10
0
 20
0
  9
$PLIMMIN
 10
0
 20
0
  9
$PLIMMAX
 10
279.4
 20
215.9
  9
$UNITMODE
 70
    0
  9
$VISRETAIN
 70
    1
  9
$PLINEGEN
 70
    0
  9
$PSLTSCALE
 70
    1
  9
$TREEDEPTH
 70
 3020
  9
$CMLSTYLE
  2
Standard
  9
$CMLJUST
 70
    0
  9
$CMLSCALE
 40
20
  9
$PROXYGRAPHICS
 70
    1
  9
$MEASUREMENT
 70
    1
  9
$CELWEIGHT
370
   -1
  9
$ENDCAPS
280
    0
  9
$JOINSTYLE
280
    0
  9
$LWDISPLAY
290
    0
  9
$INSUNITS
 70
    4
  9
$HYPERLINKBASE
  1

  9
$STYLESHEET
  1

  9
$XEDIT
290
    1
  9
$CEPSNTYPE
380
    0
  9
$PSTYLEMODE
290
    1
  9
$EXTNAMES
290
    1
  9
$PSVPSCALE
 40
1
  9
$OLESTARTUP
290
    0
  9
$SORTENTS
280
  127
  9
$INDEXCTL
280
    0
  9
$HIDETEXT
280
    1
  9
$XCLIPFRAME
290
    0
  9
$HALOGAP
280
    0
  9
$OBSCOLOR
 70
  257
  9
$OBSLTYPE
280
    0
  9
$INTERSECTIONDISPLAY
280
    0
  9
$INTERSECTIONCOLOR
 70
  257
  9
$DIMASSOC
280
    1
  9
$PROJECTNAME
  1

  9
$CAMERADISPLAY
290
    0
  9
$LENSLENGTH
 40
50
  9
$CAMERAHEIGHT
 40
0
  9
$STEPSPERSEC
 40
2
  9
$STEPSIZE
 40
50
  9
$3DDWFPREC
 40
2
  9
$PSOLWIDTH
 40
5
  9
$PSOLHEIGHT
 40
80
  9
$LOFTANG1
 40
1.570796326794897
  9
$LOFTANG2
 40
1.570796326794897
  9
$LOFTMAG1
 40
0
  9
$LOFTMAG2
 40
0
  9
$LOFTPARAM
 70
    7
  9
$LOFTNORMALS
280
    1
  9
$LATITUDE
 40
1
  9
$LONGITUDE
 40
1
  9
$NORTHDIRECTION
 40
0
  9
$TIMEZONE
 70
-8000
  9
$LIGHTGLYPHDISPLAY
280
    1
  9
$TILEMODELIGHTSYNCH
280
    1
  9
$SOLIDHIST
280
    1
  9
$SHOWHIST
280
    1
  9
$DWFFRAME
280
    2
  9
$DGNFRAME
280
    0
  9
$REALWORLDSCALE
290
    1
  9
$INTERFERECOLOR
 62
    1
  9
$CSHADOW
280
    0
  9
$SHADOWPLANELOCATION
 40
0
  0
ENDSEC
  0
SECTION
  2
CLASSES
  0
ENDSEC
  0
SECTION
  2
TABLES
  0
TABLE
  2
VPORT
  5
8
330
0
100
AcDbSymbolTable
 70
    1
  0
VPORT
  5
31
330
2
100
AcDbSymbolTableRecord
100
AcDbViewportTableRecord
  2
*ACTIVE
 70
    0
 10
0
 20
0
 11
1
 21
1
 12
142.025798413765
 22
97.16737683826983
 13
0
 23
0
 14
10
 24
10
 15
10
 25
10
 16
0
 26
0
 36
1
 17
0
 27
0
 37
0
 40
174.777102747431
 41
1.635879218472469
 42
50
 43
0
 44
0
 50
0
 51
0
 71
    0
 72
  100
 73
    1
 74
    3
 75
    0
 76
    1
 77
    0
 78
    0
281
    0
 65
    1
110
0
120
0
130
0
111
1
121
0
131
0
112
0
122
1
132
0
 79
    0
146
0
348
10020
 60
    7
 61
    5
292
1
282
    1
141
0
142
0
 63
  250
421
3358443
  0
ENDTAB
  0
TABLE
  2
LTYPE
  5
5
330
0
100
AcDbSymbolTable
 70
    4
  0
LTYPE
  5
14
330
5
100
AcDbSymbolTableRecord
100
AcDbLinetypeTableRecord
  2
ByBlock
 70
    0
  3

 72
   65
 73
    0
 40
0
  0
LTYPE
  5
15
330
5
100
AcDbSymbolTableRecord
100
AcDbLinetypeTableRecord
  2
ByLayer
 70
    0
  3

 72
   65
 73
    0
 40
0
  0
LTYPE
  5
16
330
5
100
AcDbSymbolTableRecord
100
AcDbLinetypeTableRecord
  2
Continuous
 70
    0
  3
Solid line
 72
   65
 73
    0
 40
0
  0
LTYPE
  5
32
330
5
100
AcDbSymbolTableRecord
100
AcDbLinetypeTableRecord
  2
DOT
 70
    0
  3
Dot . . . . . . . . . . . . . . . . . . . . . .
 72
   65
 73
    2
 40
6.35
 49
0
 74
    0
 49
-6.35
 74
    0
  0
LTYPE
  5
33
330
5
100
AcDbSymbolTableRecord
100
AcDbLinetypeTableRecord
  2
DOTTINY
 70
    0
  3
Dot (.15x) .....................................
 72
   65
 73
    2
 40
0.9525
 49
0
 74
    0
 49
-0.9525
 74
    0
  0
LTYPE
  5
34
330
5
100
AcDbSymbolTableRecord
100
AcDbLinetypeTableRecord
  2
DOT2
 70
    0
  3
Dot (.5x) .....................................
 72
   65
 73
    2
 40
3.175
 49
0
 74
    0
 49
-3.175
 74
    0
  0
LTYPE
  5
35
330
5
100
AcDbSymbolTableRecord
100
AcDbLinetypeTableRecord
  2
DOTX2
 70
    0
  3
Dot (2x) .  .  .  .  .  .  .  .  .  .  .  .  .
 72
   65
 73
    2
 40
12.7
 49
0
 74
    0
 49
-12.7
 74
    0
  0
LTYPE
  5
36
330
5
100
AcDbSymbolTableRecord
100
AcDbLinetypeTableRecord
  2
DASHED
 70
    0
  3
Dashed _ _ _ _ _ _ _ _ _ _ _ _ _ _ _ _ _
 72
   65
 73
    2
 40
19.05
 49
12.7
 74
    0
 49
-6.35
 74
    0
  0
LTYPE
  5
37
330
5
100
AcDbSymbolTableRecord
100
AcDbLinetypeTableRecord
  2
DASHEDTINY
 70
    0
  3
Dashed (.15x) _ _ _ _ _ _ _ _ _ _ _ _ _ _ _ _ _
 72
   65
 73
    2
 40
2.8575
 49
1.905
 74
    0
 49
-0.9525
 74
    0
  0
LTYPE
  5
38
330
5
100
AcDbSymbolTableRecord
100
AcDbLinetypeTableRecord
  2
DASHED2
 70
    0
  3
Dashed (.5x) _ _ _ _ _ _ _ _ _ _ _ _ _ _ _ _ _
 72
   65
 73
    2
 40
9.524999999999999
 49
6.35
 74
    0
 49
-3.175
 74
    0
  0
LTYPE
  5
39
330
5
100
AcDbSymbolTableRecord
100
AcDbLinetypeTableRecord
  2
DASHEDX2
 70
    0
  3
Dashed (2x) ____  ____  ____  ____  ____  ___
 72
   65
 73
    2
 40
38.09999999999999
 49
25.4
 74
    0
 49
-12.7
 74
    0
  0
LTYPE
  5
3A
330
5
100
AcDbSymbolTableRecord
100
AcDbLinetypeTableRecord
  2
DASHDOT
 70
    0
  3
Dash dot __ . __ . __ . __ . __ . __ . __ . __
 72
   65
 73
    4
 40
25.4
 49
12.7
 74
    0
 49
-6.35
 74
    0
 49
0
 74
    0
 49
-6.35
 74
    0
  0
LTYPE
  5
3B
330
5
100
AcDbSymbolTableRecord
100
AcDbLinetypeTableRecord
  2
DASHDOTTINY
 70
    0
  3
Dash dot (.15x) _._._._._._._._._._._._._._._.
 72
   65
 73
    4
 40
3.81
 49
1.905
 74
    0
 49
-0.9525
 74
    0
 49
0
 74
    0
 49
-0.9525
 74
    0
  0
LTYPE
  5
3C
330
5
100
AcDbSymbolTableRecord
100
AcDbLinetypeTableRecord
  2
DASHDOT2
 70
    0
  3
Dash dot (.5x) _._._._._._._._._._._._._._._.
 72
   65
 73
    4
 40
12.7
 49
6.35
 74
    0
 49
-3.175
 74
    0
 49
0
 74
    0
 49
-3.175
 74
    0
  0
LTYPE
  5
3D
330
5
100
AcDbSymbolTableRecord
100
AcDbLinetypeTableRecord
  2
DASHDOTX2
 70
    0
  3
Dash dot (2x) ____  .  ____  .  ____  .  ___
 72
   65
 73
    4
 40
50.8
 49
25.4
 74
    0
 49
-12.7
 74
    0
 49
0
 74
    0
 49
-12.7
 74
    0
  0
LTYPE
  5
3E
330
5
100
AcDbSymbolTableRecord
100
AcDbLinetypeTableRecord
  2
DIVIDE
 70
    0
  3
Divide ____ . . ____ . . ____ . . ____ . . ____
 72
   65
 73
    6
 40
31.75
 49
12.7
 74
    0
 49
-6.35
 74
    0
 49
0
 74
    0
 49
-6.35
 74
    0
 49
0
 74
    0
 49
-6.35
 74
    0
  0
LTYPE
  5
3F
330
5
100
AcDbSymbolTableRecord
100
AcDbLinetypeTableRecord
  2
DIVIDETINY
 70
    0
  3
Divide (.15x) __..__..__..__..__..__..__..__.._
 72
   65
 73
    6
 40
4.7625
 49
1.905
 74
    0
 49
-0.9525
 74
    0
 49
0
 74
    0
 49
-0.9525
 74
    0
 49
0
 74
    0
 49
-0.9525
 74
    0
  0
LTYPE
  5
40
330
5
100
AcDbSymbolTableRecord
100
AcDbLinetypeTableRecord
  2
DIVIDE2
 70
    0
  3
Divide (.5x) __..__..__..__..__..__..__..__.._
 72
   65
 73
    6
 40
15.875
 49
6.35
 74
    0
 49
-3.175
 74
    0
 49
0
 74
    0
 49
-3.175
 74
    0
 49
0
 74
    0
 49
-3.175
 74
    0
  0
LTYPE
  5
41
330
5
100
AcDbSymbolTableRecord
100
AcDbLinetypeTableRecord
  2
DIVIDEX2
 70
    0
  3
Divide (2x) ________  .  .  ________  .  .  _
 72
   65
 73
    6
 40
63.5
 49
25.4
 74
    0
 49
-12.7
 74
    0
 49
0
 74
    0
 49
-12.7
 74
    0
 49
0
 74
    0
 49
-12.7
 74
    0
  0
LTYPE
  5
42
330
5
100
AcDbSymbolTableRecord
100
AcDbLinetypeTableRecord
  2
BORDER
 70
    0
  3
Border __ __ . __ __ . __ __ . __ __ . __ __ .
 72
   65
 73
    6
 40
44.45
 49
12.7
 74
    0
 49
-6.35
 74
    0
 49
12.7
 74
    0
 49
-6.35
 74
    0
 49
0
 74
    0
 49
-6.35
 74
    0
  0
LTYPE
  5
43
330
5
100
AcDbSymbolTableRecord
100
AcDbLinetypeTableRecord
  2
BORDERTINY
 70
    0
  3
Border (.15x) __.__.__.__.__.__.__.__.__.__.__.
 72
   65
 73
    6
 40
6.6675
 49
1.905
 74
    0
 49
-0.9525
 74
    0
 49
1.905
 74
    0
 49
-0.9525
 74
    0
 49
0
 74
    0
 49
-0.9525
 74
    0
  0
LTYPE
  5
44
330
5
100
AcDbSymbolTableRecord
100
AcDbLinetypeTableRecord
  2
BORDER2
 70
    0
  3
Border (.5x) __.__.__.__.__.__.__.__.__.__.__.
 72
   65
 73
    6
 40
22.225
 49
6.35
 74
    0
 49
-3.175
 74
    0
 49
6.35
 74
    0
 49
-3.175
 74
    0
 49
0
 74
    0
 49
-3.175
 74
    0
  0
LTYPE
  5
45
330
5
100
AcDbSymbolTableRecord
100
AcDbLinetypeTableRecord
  2
BORDERX2
 70
    0
  3
Border (2x) ____  ____  .  ____  ____  .  ___
 72
   65
 73
    6
 40
88.89999999999999
 49
25.4
 74
    0
 49
-12.7
 74
    0
 49
25.4
 74
    0
 49
-12.7
 74
    0
 49
0
 74
    0
 49
-12.7
 74
    0
  0
LTYPE
  5
46
330
5
100
AcDbSymbolTableRecord
100
AcDbLinetypeTableRecord
  2
CENTER
 70
    0
  3
Center ____ _ ____ _ ____ _ ____ _ ____ _ ____
 72
   65
 73
    4
 40
50.8
 49
31.75
 74
    0
 49
-6.35
 74
    0
 49
6.35
 74
    0
 49
-6.35
 74
    0
  0
LTYPE
  5
47
330
5
100
AcDbSymbolTableRecord
100
AcDbLinetypeTableRecord
  2
CENTERTINY
 70
    0
  3
Center (.15x) ___ _ ___ _ ___ _ ___ _ ___ _ ___
 72
   65
 73
    4
 40
7.619999999999999
 49
4.7625
 74
    0
 49
-0.9525
 74
    0
 49
0.9525
 74
    0
 49
-0.9525
 74
    0
  0
LTYPE
  5
48
330
5
100
AcDbSymbolTableRecord
100
AcDbLinetypeTableRecord
  2
CENTER2
 70
    0
  3
Center (.5x) ___ _ ___ _ ___ _ ___ _ ___ _ ___
 72
   65
 73
    4
 40
28.575
 49
19.05
 74
    0
 49
-3.175
 74
    0
 49
3.175
 74
    0
 49
-3.175
 74
    0
  0
LTYPE
  5
49
330
5
100
AcDbSymbolTableRecord
100
AcDbLinetypeTableRecord
  2
CENTERX2
 70
    0
  3
Center (2x) ________  __  ________  __  _____
 72
   65
 73
    4
 40
101.6
 49
63.5
 74
    0
 49
-12.7
 74
    0
 49
12.7
 74
    0
 49
-12.7
 74
    0
  0
ENDTAB
  0
TABLE
  2
LAYER
  5
2
330
0
100
AcDbSymbolTable
 70
    1
  0
LAYER
  5
10
330
2
100
AcDbSymbolTableRecord
100
AcDbLayerTableRecord
  2
0
 70
    0
 62
    7
  6
CONTINUOUS
370
   50
390
F
  0
LAYER
  5
4A
330
2
100
AcDbSymbolTableRecord
100
AcDbLayerTableRecord
  2
1
 70
    0
 62
    7
  6
CONTINUOUS
370
   50
390
F
  0
LAYER
  5
4B
330
2
100
AcDbSymbolTableRecord
100
AcDbLayerTableRecord
  2
2
 70
    0
 62
    7
  6
CONTINUOUS
370
   50
390
F
  0
LAYER
  5
4C
330
2
100
AcDbSymbolTableRecord
100
AcDbLayerTableRecord
  2
Center
 70
    0
 62
    7
  6
CENTERTINY
370
   25
390
F
  0
LAYER
  5
4D
330
2
100
AcDbSymbolTableRecord
100
AcDbLayerTableRecord
  2
Construction
 70
    1
 62
    6
  6
CONTINUOUS
290
0
370
   35
390
F
  0
LAYER
  5
4E
330
2
100
AcDbSymbolTableRecord
100
AcDbLayerTableRecord
  2
Dimension
 70
    0
 62
    7
  6
CONTINUOUS
370
   25
390
F
  0
LAYER
  5
4F
330
2
100
AcDbSymbolTableRecord
100
AcDbLayerTableRecord
  2
Frame
 70
    0
 62
    7
  6
CONTINUOUS
370
   25
390
F
  0
LAYER
  5
50
330
2
100
AcDbSymbolTableRecord
100
AcDbLayerTableRecord
  2
Hatching
 70
    0
 62
    7
  6
CONTINUOUS
370
   25
390
F
  0
LAYER
  5
51
330
2
100
AcDbSymbolTableRecord
100
AcDbLayerTableRecord
  2
Hidden
 70
    0
 62
    7
  6
DASHEDTINY
370
   25
390
F
  0
LAYER
  5
52
330
2
100
AcDbSymbolTableRecord
100
AcDbLayerTableRecord
  2
Logo
 70
    0
 62
    7
  6
CONTINUOUS
370
   70
390
F
  0
LAYER
  5
53
330
2
100
AcDbSymbolTableRecord
100
AcDbLayerTableRecord
  2
Notes
 70
    0
 62
    7
  6
CONTINUOUS
370
   25
390
F
  0
LAYER
  5
54
330
2
100
AcDbSymbolTableRecord
100
AcDbLayerTableRecord
  2
Paper Bounds
 70
    0
 62
    6
  6
CONTINUOUS
370
    0
390
F
  0
LAYER
  5
55
330
2
100
AcDbSymbolTableRecord
100
AcDbLayerTableRecord
  2
Phantom
 70
    0
 62
    7
  6
DASHDOTTINY
370
   25
390
F
  0
LAYER
  5
56
330
2
100
AcDbSymbolTableRecord
100
AcDbLayerTableRecord
  2
Title
 70
    0
 62
    7
  6
CONTINUOUS
370
   50
390
F
  0
ENDTAB
  0
TABLE
  2
STYLE
  5
3
330
0
100
AcDbSymbolTable
 70
    3
  0
STYLE
  5
57
330
2
100
AcDbSymbolTableRecord
100
AcDbTextStyleTableRecord
  2
iso
 70
    0
 40
0
 41
1
 50
0
 71
    0
 42
1
  3
iso
  4

  0
STYLE
  5
58
330
2
100
AcDbSymbolTableRecord
100
AcDbTextStyleTableRecord
  2
simplex
 70
    0
 40
0
 41
1
 50
0
 71
    0
 42
1
  3
simplex
  4

  0
STYLE
  5
59
330
2
100
AcDbSymbolTableRecord
100
AcDbTextStyleTableRecord
  2
Standard
 70
    0
 40
0
 41
1
 50
0
 71
    0
 42
1
  3
txt
  4

  0
ENDTAB
  0
TABLE
  2
VIEW
  5
6
330
0
100
AcDbSymbolTable
 70
    0
  0
ENDTAB
  0
TABLE
  2
UCS
  5
7
330
0
100
AcDbSymbolTable
 70
    0
  0
ENDTAB
  0
TABLE
  2
APPID
  5
9
330
0
100
AcDbSymbolTable
 70
    1
  0
APPID
  5
12
330
9
100
AcDbSymbolTableRecord
100
AcDbRegAppTableRecord
  2
ACAD
 70
    0
  0
APPID
  5
5A
330
9
100
AcDbSymbolTableRecord
100
AcDbRegAppTableRecord
  2
LibreCad
 70
    0
  0
ENDTAB
  0
TABLE
  2
DIMSTYLE
  5
A
330
0
100
AcDbSymbolTable
 70
    1
100
AcDbDimStyleTable
 71
    1
  0
DIMSTYLE
105
5B
330
A
100
AcDbSymbolTableRecord
100
AcDbDimStyleTableRecord
  2
Standard
 70
    0
 40
1
 41
2.5
 42
0.625
 43
0.38
 44
1.25
 45
0
 46
0
 47
0
 48
0
 49
1
140
2.5
141
0.09
142
0
143
25.4
144
1
145
0
146
1
147
0.625
148
0
 71
    0
 72
    0
 73
    1
 74
    1
 75
    0
 76
    0
 77
    0
 78
    1
 79
    0
170
    0
171
    2
172
    0
173
    0
174
    0
175
    0
176
    0
177
    0
178
    0
179
    2
271
    2
272
    4
273
    2
274
    2
275
    0
276
    0
277
    2
278
    0
279
    0
280
    0
281
    0
282
    0
283
    1
284
    0
285
    0
286
    0
288
    0
289
    3
340
standard
341

371
   -2
372
   -2
  0
ENDTAB
  0
TABLE
  2
BLOCK_RECORD
  5
1
330
0
100
AcDbSymbolTable
 70
    2
  0
BLOCK_RECORD
  5
1F
330
1
100
AcDbSymbolTableRecord
100
AcDbBlockTableRecord
  2
*Model_Space
 70
    0
280
    1
281
    0
  0
BLOCK_RECORD
  5
1E
330
1
100
AcDbSymbolTableRecord
100
AcDbBlockTableRecord
  2
*Paper_Space
 70
    0
280
    1
281
    0
  0
BLOCK_RECORD
  5
5C
330
1
100
AcDbSymbolTableRecord
100
AcDbBlockTableRecord
  2
*D1
 70
    0
280
    1
281
    0
  0
BLOCK_RECORD
  5
5F
330
1
100
AcDbSymbolTableRecord
100
AcDbBlockTableRecord
  2
*D2
 70
    0
280
    1
281
    0
  0
BLOCK_RECORD
  5
62
330
1
100
AcDbSymbolTableRecord
100
AcDbBlockTableRecord
  2
*D4
 70
    0
280
    1
281
    0
  0
BLOCK_RECORD
  5
65
330
1
100
AcDbSymbolTableRecord
100
AcDbBlockTableRecord
  2
*D8
 70
    0
280
    1
281
    0
  0
BLOCK_RECORD
  5
68
330
1
100
AcDbSymbolTableRecord
100
AcDbBlockTableRecord
  2
*D3
 70
    0
280
    1
281
    0
  0
BLOCK_RECORD
  5
6B
330
1
100
AcDbSymbolTableRecord
100
AcDbBlockTableRecord
  2
*D6
 70
    0
280
    1
281
    0
  0
BLOCK_RECORD
  5
6E
330
1
100
AcDbSymbolTableRecord
100
AcDbBlockTableRecord
  2
*D9
 70
    0
280
    1
281
    0
  0
BLOCK_RECORD
  5
71
330
1
100
AcDbSymbolTableRecord
100
AcDbBlockTableRecord
  2
*D5
 70
    0
280
    1
281
    0
  0
BLOCK_RECORD
  5
74
330
1
100
AcDbSymbolTableRecord
100
AcDbBlockTableRecord
  2
*D7
 70
    0
280
    1
281
    0
  0
BLOCK_RECORD
  5
77
330
1
100
AcDbSymbolTableRecord
100
AcDbBlockTableRecord
  2
Page Template
 70
    0
280
    1
281
    0
  0
BLOCK_RECORD
  5
7A
330
1
100
AcDbSymbolTableRecord
100
AcDbBlockTableRecord
  2
fly_cutter_0.750_view1
 70
    0
280
    1
281
    0
  0
BLOCK_RECORD
  5
7D
330
1
100
AcDbSymbolTableRecord
100
AcDbBlockTableRecord
  2
fly_cutter_0.750_view2
 70
    0
280
    1
281
    0
  0
ENDTAB
  0
ENDSEC
  0
SECTION
  2
BLOCKS
  0
BLOCK
  5
20
330
1F
100
AcDbEntity
  8
0
100
AcDbBlockBegin
  2
*Model_Space
 70
    0
 10
0
 20
0
 30
0
  3
*Model_Space
  1

  0
ENDBLK
  5
21
330
1F
100
AcDbEntity
  8
0
100
AcDbBlockEnd
  0
BLOCK
  5
1C
330
1B
100
AcDbEntity
  8
0
100
AcDbBlockBegin
  2
*Paper_Space
 70
    0
 10
0
 20
0
 30
0
  3
*Paper_Space
  1

  0
ENDBLK
  5
1D
330
1F
100
AcDbEntity
  8
0
100
AcDbBlockEnd
  0
BLOCK
  5
5D
330
5C
100
AcDbEntity
  8
0
100
AcDbBlockBegin
  2
*D1
 70
    1
 10
0
 20
0
  3
*D1
  1

  0
SOLID
  5
80
100
AcDbEntity
  8
Dimension
  6
ByBlock
 62
    0
370
   -2
100
AcDbTrace
 10
83.25068875862212
 20
175.811353388993
 30
0
 11
85.75068875862212
 21
176.2276380467659
 31
0
 12
85.75068875862212
 22
175.3950687312202
 32
0
 13
85.75068875862212
 23
175.3950687312202
 33
0
  0
SOLID
  5
81
100
AcDbEntity
  8
Dimension
  6
ByBlock
 62
    0
370
   -2
100
AcDbTrace
 10
79.25068875862216
 20
175.811353388993
 30
0
 11
76.75068875862216
 21
175.3950687312202
 31
0
 12
76.75068875862216
 22
176.2276380467659
 32
0
 13
76.75068875862216
 23
176.2276380467659
 33
0
  0
LINE
  5
82
100
AcDbEntity
  8
Dimension
  6
ByLayer
 62
  256
370
   -1
100
AcDbLine
 10
88.25068875862212
 20
175.811353388993
 11
83.25068875862212
 21
175.811353388993
  0
LINE
  5
83
100
AcDbEntity
  8
Dimension
  6
ByLayer
 62
  256
370
   -1
100
AcDbLine
 10
74.25068875862216
 20
175.811353388993
 11
79.25068875862216
 21
175.811353388993
  0
MTEXT
  5
84
100
AcDbEntity
  8
Dimension
  6
CONTINUOUS
 62
    0
370
   -2
100
AcDbMText
 10
70.5701332030666
 20
175.811353388993
 30
0
 40
2.5
 41
6.111111111111112
 71
    5
 72
    1
  1
4.00
  7
standard
210
0
220
0
230
1
 50
0
 73
    2
 44
1
  0
LINE
  5
85
100
AcDbEntity
  8
Dimension
  6
ByBlock
 62
    0
370
   -2
100
AcDbLine
 10
83.25068875862212
 20
168.5622366316119
 11
83.25068875862212
 21
177.061353388993
  0
LINE
  5
86
100
AcDbEntity
  8
Dimension
  6
ByBlock
 62
    0
370
   -2
100
AcDbLine
 10
79.25068875862216
 20
168.5622366316119
 11
79.25068875862216
 21
177.061353388993
  0
ENDBLK
  5
5E
330
5C
100
AcDbEntity
  8
0
100
AcDbBlockEnd
  0
BLOCK
  5
60
330
5F
100
AcDbEntity
  8
0
100
AcDbBlockBegin
  2
*D2
 70
    1
 10
0
 20
0
  3
*D2
  1

  0
SOLID
  5
87
100
AcDbEntity
  8
Dimension
  6
ByBlock
 62
    0
370
   -2
100
AcDbTrace
 10
64.42445300832756
 20
167.9372366316119
 30
0
 11
64.00816835055473
 21
170.4372366316119
 31
0
 12
64.8407376661004
 22
170.4372366316119
 32
0
 13
64.8407376661004
 23
170.4372366316119
 33
0
  0
SOLID
  5
88
100
AcDbEntity
  8
Dimension
  6
ByBlock
 62
    0
370
   -2
100
AcDbTrace
 10
64.42445300832756
 20
164.9092477958163
 30
0
 11
64.8407376661004
 21
162.4092477958163
 31
0
 12
64.00816835055473
 22
162.4092477958163
 32
0
 13
64.00816835055473
 23
162.4092477958163
 33
0
  0
LINE
  5
89
100
AcDbEntity
  8
Dimension
  6
ByLayer
 62
  256
370
   -1
100
AcDbLine
 10
64.42445300832756
 20
172.9372366316119
 11
64.42445300832756
 21
167.9372366316119
  0
LINE
  5
8A
100
AcDbEntity
  8
Dimension
  6
ByLayer
 62
  256
370
   -1
100
AcDbLine
 10
64.42445300832756
 20
159.9092477958163
 11
64.42445300832756
 21
164.9092477958163
  0
MTEXT
  5
8B
100
AcDbEntity
  8
Dimension
  6
CONTINUOUS
 62
    0
370
   -2
100
AcDbMText
 10
64.42445300832756
 20
158.0342477958163
 30
0
 40
2.5
 41
5.833333333333643
 71
    5
 72
    1
  1
3.03
  7
standard
210
0
220
0
230
1
 50
0
 73
    2
 44
1
  0
LINE
  5
8C
100
AcDbEntity
  8
Dimension
  6
ByBlock
 62
    0
370
   -2
100
AcDbLine
 10
78.62568875862216
 20
167.9372366316119
 11
63.17445300832756
 21
167.9372366316119
  0
LINE
  5
8D
100
AcDbEntity
  8
Dimension
  6
ByBlock
 62
    0
370
   -2
100
AcDbLine
 10
78.70580933851765
 20
164.9092477958163
 11
63.17445300832756
 21
164.9092477958163
  0
ENDBLK
  5
61
330
5F
100
AcDbEntity
  8
0
100
AcDbBlockEnd
  0
BLOCK
  5
63
330
62
100
AcDbEntity
  8
0
100
AcDbBlockBegin
  2
*D4
 70
    1
 10
0
 20
0
  3
*D4
  1

  0
SOLID
  5
8E
100
AcDbEntity
  8
Dimension
  6
ByBlock
 62
    0
370
   -2
100
AcDbTrace
 10
83.83080933851765
 20
180.8105948421363
 30
0
 11
81.33080933851765
 21
180.3943101843635
 31
0
 12
81.33080933851765
 22
181.2268794999092
 32
0
 13
81.33080933851765
 23
181.2268794999092
 33
0
  0
SOLID
  5
8F
100
AcDbEntity
  8
Dimension
  6
ByBlock
 62
    0
370
   -2
100
AcDbTrace
 10
93.72056817872665
 20
180.8105948421363
 30
0
 11
96.22056817872665
 21
181.2268794999092
 31
0
 12
96.22056817872665
 22
180.3943101843635
 32
0
 13
96.22056817872665
 23
180.3943101843635
 33
0
  0
LINE
  5
90
100
AcDbEntity
  8
Dimension
  6
ByLayer
 62
  256
370
   -1
100
AcDbLine
 10
78.83080933851765
 20
180.8105948421363
 11
83.83080933851765
 21
180.8105948421363
  0
LINE
  5
91
100
AcDbEntity
  8
Dimension
  6
ByLayer
 62
  256
370
   -1
100
AcDbLine
 10
98.72056817872665
 20
180.8105948421363
 11
93.72056817872665
 21
180.8105948421363
  0
MTEXT
  5
92
100
AcDbEntity
  8
Dimension
  6
CONTINUOUS
 62
    0
370
   -2
100
AcDbMText
 10
88.77568875862215
 20
180.8105948421363
 30
0
 40
2.5
 41
5.833333333333488
 71
    5
 72
    1
  1
9.89
  7
standard
210
0
220
0
230
1
 50
0
 73
    2
 44
1
  0
LINE
  5
93
100
AcDbEntity
  8
Dimension
  6
ByBlock
 62
    0
370
   -2
100
AcDbLine
 10
83.83080933851765
 20
170.0342477958163
 11
83.83080933851765
 21
182.0605948421363
  0
LINE
  5
94
100
AcDbEntity
  8
Dimension
  6
ByBlock
 62
    0
370
   -2
100
AcDbLine
 10
93.72056817872665
 20
168.2904164795874
 11
93.72056817872665
 21
182.0605948421363
  0
ENDBLK
  5
64
330
62
100
AcDbEntity
  8
0
100
AcDbBlockEnd
  0
BLOCK
  5
66
330
65
100
AcDbEntity
  8
0
100
AcDbBlockBegin
  2
*D8
 70
    1
 10
0
 20
0
  3
*D8
  1

  0
LINE
  5
95
100
AcDbEntity
  8
Dimension
  6
CONTINUOUS
 62
    7
370
    0
100
AcDbLine
 10
94.35933309576679
 20
164.6867577893397
 11
103.0309819243496
 21
179.3732155188978
  0
LINE
  5
96
100
AcDbEntity
  8
Dimension
  6
CONTINUOUS
 62
    7
370
    0
100
AcDbLine
 10
103.0309819243496
 20
179.3732155188978
 11
106.4446590363009
 21
179.3732155188978
  0
SOLID
  5
97
100
AcDbEntity
  8
Dimension
  6
CONTINUOUS
 62
    7
370
    0
100
AcDbTrace
 10
94.35933309576679
 20
164.6867577893397
 30
0
 11
95.27196477792882
 21
167.051159686017
 31
0
 12
95.98888926207948
 22
166.6278501666184
 32
0
 13
95.98888926207948
 23
166.6278501666184
 33
0
  0
ENDBLK
  5
67
330
65
100
AcDbEntity
  8
0
100
AcDbBlockEnd
  0
BLOCK
  5
69
330
68
100
AcDbEntity
  8
0
100
AcDbBlockBegin
  2
*D3
 70
    1
 10
0
 20
0
  3
*D3
  1

  0
SOLID
  5
98
100
AcDbEntity
  8
Dimension
  6
ByBlock
 62
    0
370
   -2
100
AcDbTrace
 10
72.46793406168594
 20
164.9092477958163
 30
0
 11
72.0516494039131
 21
167.4092477958163
 31
0
 12
72.88421871945877
 22
167.4092477958163
 32
0
 13
72.88421871945877
 23
167.4092477958163
 33
0
  0
SOLID
  5
99
100
AcDbEntity
  8
Dimension
  6
ByBlock
 62
    0
370
   -2
100
AcDbTrace
 10
72.46793406168594
 20
163.1654164795874
 30
0
 11
72.88421871945877
 21
160.6654164795874
 31
0
 12
72.0516494039131
 22
160.6654164795874
 32
0
 13
72.0516494039131
 23
160.6654164795874
 33
0
  0
LINE
  5
9A
100
AcDbEntity
  8
Dimension
  6
ByLayer
 62
  256
370
   -1
100
AcDbLine
 10
72.46793406168594
 20
169.9092477958163
 11
72.46793406168594
 21
164.9092477958163
  0
LINE
  5
9B
100
AcDbEntity
  8
Dimension
  6
ByLayer
 62
  256
370
   -1
100
AcDbLine
 10
72.46793406168594
 20
158.1654164795874
 11
72.46793406168594
 21
163.1654164795874
  0
MTEXT
  5
9C
100
AcDbEntity
  8
Dimension
  6
CONTINUOUS
 62
    0
370
   -2
100
AcDbMText
 10
72.46793406168594
 20
156.2904164795874
 30
0
 40
2.5
 41
5.555555555555555
 71
    5
 72
    1
  1
1.74
  7
standard
210
0
220
0
230
1
 50
0
 73
    2
 44
1
  0
LINE
  5
9D
100
AcDbEntity
  8
Dimension
  6
ByBlock
 62
    0
370
   -2
100
AcDbLine
 10
78.70580933851765
 20
164.9092477958163
 11
71.21793406168594
 21
164.9092477958163
  0
LINE
  5
9E
100
AcDbEntity
  8
Dimension
  6
ByBlock
 62
    0
370
   -2
100
AcDbLine
 10
88.59556817872665
 20
163.1654164795874
 11
71.21793406168594
 21
163.1654164795874
  0
ENDBLK
  5
6A
330
68
100
AcDbEntity
  8
0
100
AcDbBlockEnd
  0
BLOCK
  5
6C
330
6B
100
AcDbEntity
  8
0
100
AcDbBlockBegin
  2
*D6
 70
    1
 10
0
 20
0
  3
*D6
  1

  0
SOLID
  5
9F
100
AcDbEntity
  8
Dimension
  6
ByBlock
 62
    0
370
   -2
100
AcDbTrace
 10
120.4571408674914
 20
161.3767352683809
 30
0
 11
120.481300953224
 21
163.9110417231244
 31
0
 12
121.3012216700935
 22
163.7664675786984
 32
0
 13
121.3012216700935
 23
163.7664675786984
 33
0
  0
SOLID
  5
A0
100
AcDbEntity
  8
Dimension
  6
ByBlock
 62
    0
370
   -2
100
AcDbTrace
 10
119.5433173325192
 20
156.1941844681542
 30
0
 11
119.5191572467866
 21
153.6598780134107
 31
0
 12
118.6992365299171
 22
153.8044521578366
 32
0
 13
118.6992365299171
 23
153.8044521578366
 33
0
  0
LINE
  5
A1
100
AcDbEntity
  8
Dimension
  6
ByLayer
 62
  256
370
   -1
100
AcDbLine
 10
121.3253817558261
 20
166.3007740334419
 11
120.4571408674914
 21
161.3767352683809
  0
LINE
  5
A2
100
AcDbEntity
  8
Dimension
  6
ByLayer
 62
  256
370
   -1
100
AcDbLine
 10
118.6750764441845
 20
151.2701457030931
 11
119.5433173325192
 21
156.1941844681542
  0
MTEXT
  5
A3
100
AcDbEntity
  8
Dimension
  6
CONTINUOUS
 62
    0
370
   -2
100
AcDbMText
 10
126.3258511742267
 20
158.8212095732702
 30
0
 40
2.5
 41
18.40277777777809
 71
    5
 72
    1
  1
5.26 [.207"]
  7
standard
210
0
220
0
230
1
 50
0
 73
    2
 44
1
  0
LINE
  5
A4
100
AcDbEntity
  8
Dimension
  6
ByBlock
 62
    0
370
   -2
100
AcDbLine
 10
98.91619360425479
 20
165.1749854609077
 11
121.6881505587567
 21
161.1596750462972
  0
LINE
  5
A5
100
AcDbEntity
  8
Dimension
  6
ByBlock
 62
    0
370
   -2
100
AcDbLine
 10
97.33607302429745
 20
160.1099208068782
 11
120.7743270237845
 21
155.9771242460705
  0
ENDBLK
  5
6D
330
6B
100
AcDbEntity
  8
0
100
AcDbBlockEnd
  0
BLOCK
  5
6F
330
6E
100
AcDbEntity
  8
0
100
AcDbBlockBegin
  2
*D9
 70
    1
 10
0
 20
0
  3
*D9
  1

  0
SOLID
  5
A6
100
AcDbEntity
  8
Dimension
  6
ByBlock
 62
    0
370
   -2
100
AcDbTrace
 10
53.4551461727115
 20
47.07299673778337
 30
0
 11
53.03886151493866
 21
49.57299673778337
 31
0
 12
53.87143083048434
 22
49.57299673778337
 32
0
 13
53.87143083048434
 23
49.57299673778337
 33
0
  0
SOLID
  5
A7
100
AcDbEntity
  8
Dimension
  6
ByBlock
 62
    0
370
   -2
100
AcDbTrace
 10
53.45514617271151
 20
167.9372366316119
 30
0
 11
53.87143083048435
 21
165.4372366316119
 31
0
 12
53.03886151493867
 22
165.4372366316119
 32
0
 13
53.03886151493867
 23
165.4372366316119
 33
0
  0
LINE
  5
A8
100
AcDbEntity
  8
Dimension
  6
ByLayer
 62
  256
370
   -1
100
AcDbLine
 10
53.4551461727115
 20
47.07299673778337
 11
53.45514617271151
 21
105.6301166846976
  0
LINE
  5
A9
100
AcDbEntity
  8
Dimension
  6
ByLayer
 62
  256
370
   -1
100
AcDbLine
 10
53.45514617271151
 20
109.3801166846976
 11
53.45514617271151
 21
167.9372366316119
  0
MTEXT
  5
AA
100
AcDbEntity
  8
Dimension
  6
CONTINUOUS
 62
    0
370
   -2
100
AcDbMText
 10
53.45514617271151
 20
107.5051166846976
 30
0
 40
2.5
 41
17.22222222222238
 71
    5
 72
    1
  1
121.00%%P5.00
  7
standard
210
0
220
0
230
1
 50
0
 73
    2
 44
1
  0
LINE
  5
AB
100
AcDbEntity
  8
Dimension
  6
ByBlock
 62
    0
370
   -2
100
AcDbLine
 10
78.62568875862215
 20
47.07299673778338
 11
52.2051461727115
 21
47.07299673778337
  0
LINE
  5
AC
100
AcDbEntity
  8
Dimension
  6
ByBlock
 62
    0
370
   -2
100
AcDbLine
 10
78.62568875862216
 20
167.9372366316119
 11
52.20514617271151
 21
167.9372366316119
  0
ENDBLK
  5
70
330
6E
100
AcDbEntity
  8
0
100
AcDbBlockEnd
  0
BLOCK
  5
72
330
71
100
AcDbEntity
  8
0
100
AcDbBlockBegin
  2
*D5
 70
    1
 10
0
 20
0
  3
*D5
  1

  0
LINE
  5
AD
100
AcDbEntity
  8
Dimension
  6
ByBlock
 62
    0
370
   -2
100
AcDbLine
 10
98.91619360425479
 20
165.1749854609077
 11
113.0184296893824
 21
162.6883807507791
  0
LINE
  5
AE
100
AcDbEntity
  8
Dimension
  6
ByBlock
 62
    0
370
   -2
100
AcDbLine
 10
98.71756638457141
 20
167.9372366316119
 11
113.4776450754367
 21
167.9372366316119
  0
ARC
  5
AF
100
AcDbEntity
  8
Dimension
  6
ByBlock
 62
    0
370
   -2
100
AcDbCircle
 10
83.25068875862212
 20
167.9372366316119
 40
28.97695631681458
100
AcDbArc
 50
349.9999999999999
 51
0
  0
SOLID
  5
B0
100
AcDbEntity
  8
Dimension
  6
ByBlock
 62
    0
370
   -2
100
AcDbTrace
 10
111.7874199981172
 20
162.9054409728628
 30
0
 11
111.7632599123846
 21
160.3711345181193
 31
0
 12
110.9433391955151
 22
160.5157086625452
 32
0
 13
110.9433391955151
 23
160.5157086625452
 33
0
  0
SOLID
  5
B1
100
AcDbEntity
  8
Dimension
  6
ByBlock
 62
    0
370
   -2
100
AcDbTrace
 10
112.2276450754367
 20
167.9372366316119
 30
0
 11
111.8113604176639
 21
170.4372366316119
 31
0
 12
112.6439297332095
 22
170.4372366316119
 32
0
 13
112.6439297332095
 23
170.4372366316119
 33
0
  0
MTEXT
  5
B2
100
AcDbEntity
  8
Dimension
  6
CONTINUOUS
 62
    0
370
   -2
100
AcDbMText
 10
111.4947573219616
 20
165.4662008204707
 30
0
 40
2.5
 41
0
 71
    8
 72
    1
  1

  7
standard
210
0
220
0
230
1
 50
84.99999999999993
 73
    2
 44
1
  0
ENDBLK
  5
73
330
71
100
AcDbEntity
  8
0
100
AcDbBlockEnd
  0
BLOCK
  5
75
330
74
100
AcDbEntity
  8
0
100
AcDbBlockBegin
  2
*D7
 70
    1
 10
0
 20
0
  3
*D7
  1

  0
SOLID
  5
B3
100
AcDbEntity
  8
Dimension
  6
ByBlock
 62
    0
370
   -2
100
AcDbTrace
 10
98.30068875862217
 20
39.17066843754304
 30
0
 11
100.8006887586222
 21
39.58695309531588
 31
0
 12
100.8006887586222
 22
38.7543837797702
 32
0
 13
100.8006887586222
 23
38.7543837797702
 33
0
  0
SOLID
  5
B4
100
AcDbEntity
  8
Dimension
  6
ByBlock
 62
    0
370
   -2
100
AcDbTrace
 10
79.25068875862215
 20
39.17066843754304
 30
0
 11
76.75068875862215
 21
38.7543837797702
 31
0
 12
76.75068875862215
 22
39.58695309531588
 32
0
 13
76.75068875862215
 23
39.58695309531588
 33
0
  0
LINE
  5
B5
100
AcDbEntity
  8
Dimension
  6
ByLayer
 62
  256
370
   -1
100
AcDbLine
 10
103.3006887586222
 20
39.17066843754304
 11
98.30068875862217
 21
39.17066843754304
  0
LINE
  5
B6
100
AcDbEntity
  8
Dimension
  6
ByLayer
 62
  256
370
   -1
100
AcDbLine
 10
74.25068875862215
 20
39.17066843754304
 11
79.25068875862215
 21
39.17066843754304
  0
MTEXT
  5
B7
100
AcDbEntity
  8
Dimension
  6
CONTINUOUS
 62
    0
370
   -2
100
AcDbMText
 10
64.00763320306643
 20
39.17066843754304
 30
0
 40
2.5
 41
19.23611111111142
 71
    5
 72
    1
  1
19.05 [3/4"]
  7
standard
210
0
220
0
230
1
 50
0
 73
    2
 44
1
  0
LINE
  5
B8
100
AcDbEntity
  8
Dimension
  6
ByBlock
 62
    0
370
   -2
100
AcDbLine
 10
98.30068875862217
 20
46.44799673778338
 11
98.30068875862217
 21
37.92066843754304
  0
LINE
  5
B9
100
AcDbEntity
  8
Dimension
  6
ByBlock
 62
    0
370
   -2
100
AcDbLine
 10
79.25068875862215
 20
46.44799673778338
 11
79.25068875862215
 21
37.92066843754304
  0
ENDBLK
  5
76
330
74
100
AcDbEntity
  8
0
100
AcDbBlockEnd
  0
BLOCK
  5
78
330
77
100
AcDbEntity
  8
0
100
AcDbBlockBegin
  2
Page Template
 70
    0
 10
0
 20
0
  3
Page Template
  1

  0
LWPOLYLINE
  5
BA
100
AcDbEntity
  8
Frame
  6
ByLayer
 62
  256
370
   -1
100
AcDbPolyline
 90
    4
 70
    1
 43
0
 10
10
 20
10
 10
269.4
 20
10
 10
269.4
 20
205.9
 10
10
 20
205.9
  0
LINE
  5
BB
100
AcDbEntity
  8
Paper Bounds
  6
ByLayer
 62
  256
370
   -1
100
AcDbLine
 10
0
 20
215.9
 11
20
 21
215.9
  0
LINE
  5
BC
100
AcDbEntity
  8
Paper Bounds
  6
ByLayer
 62
  256
370
   -1
100
AcDbLine
 10
279.4
 20
0
 11
259.4
 21
0
  0
LINE
  5
BD
100
AcDbEntity
  8
Paper Bounds
  6
ByLayer
 62
  256
370
   -1
100
AcDbLine
 10
279.4
 20
0
 11
279.4
 21
20
  0
LINE
  5
BE
100
AcDbEntity
  8
Paper Bounds
  6
ByLayer
 62
  256
370
   -1
100
AcDbLine
 10
0
 20
215.9
 11
-1.224646799147353e-15
 21
195.9
  0
LINE
  5
BF
100
AcDbEntity
  8
Frame
  6
ByLayer
 62
  256
370
   -1
100
AcDbLine
 10
10
 20
20
 11
269.4
 21
20
  0
LINE
  5
C0
100
AcDbEntity
  8
Frame
  6
ByLayer
 62
  256
370
   -1
100
AcDbLine
 10
47.20000000000011
 20
20
 11
47.20000000000011
 21
10
  0
MTEXT
  5
C1
100
AcDbEntity
  8
Logo
  6
ByLayer
 62
  256
370
   -1
100
AcDbMText
 10
13
 20
15.5
 30
0
 40
5
 41
31.42858333333333
 71
    4
 72
    1
  1
upcycles
  7
simplex
210
0
220
0
230
1
 50
0
 73
    2
 44
1
  0
MTEXT
  5
C2
100
AcDbEntity
  8
Title
  6
ByLayer
 62
  256
370
   -1
100
AcDbMText
 10
158.3
 20
15
 30
0
 40
4
 41
124.9999991519919
 71
    5
 72
    1
  1
BORING FLY CUTTER, 3/4" HEAD - SCALE: 1:1
  7
iso
210
0
220
0
230
1
 50
0
 73
    2
 44
1
  0
ENDBLK
  5
79
330
77
100
AcDbEntity
  8
0
100
AcDbBlockEnd
  0
BLOCK
  5
7B
330
7A
100
AcDbEntity
  8
0
100
AcDbBlockBegin
  2
fly_cutter_0.750_view1
 70
    0
 10
0
 20
0
  3
fly_cutter_0.750_view1
  1

  0
LINE
  5
C3
100
AcDbEntity
  8
0
  6
ByLayer
 62
  256
370
   -1
100
AcDbLine
 10
-3.279431821335187
 20
15.50249754752375
 11
-3.27943182127334
 21
20.84618009256159
  0
LINE
  5
C4
100
AcDbEntity
  8
0
  6
ByLayer
 62
  256
370
   -1
100
AcDbLine
 10
-19.16919066141857
 20
23.22128326121571
 11
-19.16919066148236
 21
18.30429074799254
  0
LINE
  5
C5
100
AcDbEntity
  8
0
  6
ByLayer
 62
  256
370
   -1
100
AcDbLine
 10
-3.27943182127334
 20
20.84618009256159
 11
-16.74931124137785
 21
23.22128326121569
  0
LINE
  5
C6
100
AcDbEntity
  8
0
  6
ByLayer
 62
  256
370
   -1
100
AcDbLine
 10
-20.74592397242294
 20
18.58231137209317
 11
-20.74931124137784
 21
18.58290863900083
  0
LINE
  5
C7
100
AcDbEntity
  8
0
  6
ByLayer
 62
  256
370
   -1
100
AcDbLine
 10
-20.74931124137785
 20
-53.19295663261283
 11
-20.74931124137785
 21
-97.64295663261282
  0
LINE
  5
C8
100
AcDbEntity
  8
0
  6
ByLayer
 62
  256
370
   -1
100
AcDbLine
 10
-1.699311241377846
 20
-97.64295663261282
 11
-1.699311241377846
 21
-53.19295663261283
  0
LINE
  5
C9
100
AcDbEntity
  8
0
  6
ByLayer
 62
  256
370
   -1
100
AcDbLine
 10
-1.699311241377846
 20
15.22387965650456
 11
-1.702698510332755
 21
15.22447692341223
  0
LINE
  5
CA
100
AcDbEntity
  8
0
  6
ByLayer
 62
  256
370
   -1
100
AcDbLine
 10
-1.699311241377846
 20
-53.19295663261283
 11
-1.699311241377846
 21
20.56756220155327
  0
LINE
  5
CB
100
AcDbEntity
  8
0
  6
ByLayer
 62
  256
370
   -1
100
AcDbLine
 10
-20.74931124137784
 20
23.22128326121571
 11
-20.74931124137785
 21
-53.19295663261283
  0
LINE
  5
CC
100
AcDbEntity
  8
0
  6
ByLayer
 62
  256
370
   -1
100
AcDbLine
 10
-20.74931124137784
 20
18.58290863900083
 11
-1.699311241377846
 21
15.22387965650456
  0
CIRCLE
  5
CD
100
AcDbEntity
  8
0
  6
ByLayer
 62
  256
370
   -1
100
AcDbCircle
 10
-16.16919066148235
 20
20.19329442542007
 40
1.650000000000002
  0
CIRCLE
  5
CE
100
AcDbEntity
  8
0
  6
ByLayer
 62
  256
370
   -1
100
AcDbCircle
 10
-6.279431821273346
 20
18.44946310919119
 40
1.650000000000004
  0
LINE
  5
CF
100
AcDbEntity
  8
0
  6
ByLayer
 62
  256
370
   -1
100
AcDbLine
 10
-20.74931124137784
 20
23.22128326121571
 11
-16.74931124137782
 21
23.22128326121569
  0
LINE
  5
D0
100
AcDbEntity
  8
0
  6
ByLayer
 62
  256
370
   -1
100
AcDbLine
 10
-1.699311241377846
 20
20.56756220155327
 11
-3.27943182127334
 21
20.84618009256159
  0
LINE
  5
D1
100
AcDbEntity
  8
0
  6
ByLayer
 62
  256
370
   -1
100
AcDbLine
 10
-20.74931124137785
 20
-97.64295663261282
 11
-1.699311241377846
 21
-97.64295663261282
  0
ENDBLK
  5
7C
330
7A
100
AcDbEntity
  8
0
100
AcDbBlockEnd
  0
BLOCK
  5
7E
330
7D
100
AcDbEntity
  8
0
100
AcDbBlockBegin
  2
fly_cutter_0.750_view2
 70
    0
 10
0
 20
0
  3
fly_cutter_0.750_view2
  1

  0
LINE
  5
D2
100
AcDbEntity
  8
0
  6
ByLayer
 62
  256
370
   -1
100
AcDbLine
 10
-14.27047926884013
 20
16.9033941477527
 11
-14.27047926884013
 21
-53.19295663261283
  0
LINE
  5
D3
100
AcDbEntity
  8
0
  6
ByLayer
 62
  256
370
   -1
100
AcDbLine
 10
-14.27047926884013
 20
-53.19295663261283
 11
-14.27047926884013
 21
-97.64295663261282
  0
LINE
  5
D4
100
AcDbEntity
  8
0
  6
ByLayer
 62
  256
370
   -1
100
AcDbLine
 10
4.779520731159874
 20
-97.64295663261282
 11
4.779520731159874
 21
-53.19295663261283
  0
LINE
  5
D5
100
AcDbEntity
  8
0
  6
ByLayer
 62
  256
370
   -1
100
AcDbLine
 10
4.779520731159874
 20
-53.19295663261283
 11
4.779520731159876
 21
22.24707669280142
  0
LINE
  5
D6
100
AcDbEntity
  8
0
  6
ByLayer
 62
  256
370
   -1
100
AcDbLine
 10
3.013386627675541
 20
23.22128326121571
 11
0.01702073115987623
 21
23.22128326121571
  0
LINE
  5
D7
100
AcDbEntity
  8
0
  6
ByLayer
 62
  256
370
   -1
100
AcDbLine
 10
0.01702073115987623
 20
23.22128326121571
 11
0.01702073115988245
 21
20.79257447735647
  0
LINE
  5
D8
100
AcDbEntity
  8
0
  6
ByLayer
 62
  256
370
   -1
100
AcDbLine
 10
0.01702073115988245
 20
20.79257447735647
 11
0.01702073115656333
 21
15.44889193230637
  0
LINE
  5
D9
100
AcDbEntity
  8
0
  6
ByLayer
 62
  256
370
   -1
100
AcDbLine
 10
-4.999479268840126
 20
15.22447692341223
 11
-4.999479268840126
 21
20.56815946846095
  0
LINE
  5
DA
100
AcDbEntity
  8
0
  6
ByLayer
 62
  256
370
   -1
100
AcDbLine
 10
-4.999479268840126
 20
20.56815946846095
 11
-4.999479268840126
 21
23.2212832612157
  0
LINE
  5
DB
100
AcDbEntity
  8
0
  6
ByLayer
 62
  256
370
   -1
100
AcDbLine
 10
-4.999479268840126
 20
23.2212832612157
 11
-9.99947926884013
 21
23.22128326121571
  0
LINE
  5
DC
100
AcDbEntity
  8
0
  6
ByLayer
 62
  256
370
   -1
100
AcDbLine
 10
-9.99947926884013
 20
23.22128326121571
 11
-9.999479268840128
 21
20.84618009256159
  0
LINE
  5
DD
100
AcDbEntity
  8
0
  6
ByLayer
 62
  256
370
   -1
100
AcDbLine
 10
-9.999479268840128
 20
20.84618009256159
 11
-9.999479268936568
 21
15.50249754752375
  0
LINE
  5
DE
100
AcDbEntity
  8
0
  6
ByLayer
 62
  256
370
   -1
100
AcDbLine
 10
-14.27047926884013
 20
-97.64295663261282
 11
4.779520731159874
 21
-97.64295663261282
  0
ELLIPSE
  5
DF
100
AcDbEntity
  8
0
  6
ByLayer
 62
  256
370
   -1
100
AcDbEllipse
 10
-4.74573
 20
22.2471
 30
0
 11
9.525460000000001
 21
0
 31
0
 40
0.1763158944554907
 41
5.235976761332876
 42
0.6187962669874052
  0
ELLIPSE
  5
E0
100
AcDbEntity
  8
0
  6
ByLayer
 62
  256
370
   -1
100
AcDbEllipse
 10
-4.74573
 20
22.2471
 30
0
 11
9.525460000000001
 21
0
 31
0
 40
0.1763158944554907
 41
4.128165021691371
 42
4.685747510392591
  0
ELLIPSE
  5
E1
100
AcDbEntity
  8
0
  6
ByLayer
 62
  256
370
   -1
100
AcDbEllipse
 10
-4.74548
 20
16.9034
 30
0
 11
9.525
 21
0
 31
0
 40
0.1763265091863516
 41
4.685719393150829
 42
5.235984922288784
  0
ELLIPSE
  5
E2
100
AcDbEntity
  8
0
  6
ByLayer
 62
  256
370
   -1
100
AcDbEllipse
 10
-4.74548
 20
16.9034
 30
0
 11
9.525
 21
0
 31
0
 40
0.1763265091863516
 41
2.155078732429799
 42
4.128109699138404
  0
ELLIPSE
  5
E3
100
AcDbEntity
  8
0
  6
ByLayer
 62
  256
370
   -1
100
AcDbEllipse
 10
-4.74548
 20
16.9034
 30
0
 11
9.525
 21
0
 31
0
 40
0.1763265091863516
 41
1.047197462559444
 42
1.597466078177678
  0
ENDBLK
  5
7F
330
7D
100
AcDbEntity
  8
0
100
AcDbBlockEnd
  0
ENDSEC
  0
SECTION
  2
ENTITIES
  0
INSERT
  5
E4
100
AcDbEntity
  8
Title
  6
ByLayer
 62
  256
370
   -1
100
AcDbBlockReference
  2
Page Template
 10
0
 20
0
 30
0
 41
1
 42
1
 43
0
 50
0
 70
    1
 71
    1
 44
0
 45
0
  0
LINE
  5
E5
100
AcDbEntity
  8
Construction
  6
ByLayer
 62
  256
370
   -1
100
AcDbLine
 10
83.25068875862212
 20
183.2212832612157
 11
98.09256638457141
 21
183.2212832612157
  0
LINE
  5
E6
100
AcDbEntity
  8
Construction
  6
ByLayer
 62
  256
370
   -1
100
AcDbLine
 10
83.25068875862212
 20
183.2212832612157
 11
98.30068875862216
 21
180.5675622015533
  0
LINE
  5
E7
100
AcDbEntity
  8
0
  6
ByLayer
 62
  256
370
   -1
100
AcDbLine
 10
96.72056817866482
 20
160.2184509179199
 11
96.72056817872667
 21
165.5621334629578
  0
LINE
  5
E8
100
AcDbEntity
  8
0
  6
ByLayer
 62
  256
370
   -1
100
AcDbLine
 10
80.83080933858143
 20
167.9372366316119
 11
80.83080933851764
 21
163.0202441183887
  0
LINE
  5
E9
100
AcDbEntity
  8
0
  6
ByLayer
 62
  256
370
   -1
100
AcDbLine
 10
96.72056817872667
 20
165.5621334629578
 11
83.25068875862215
 21
167.9372366316119
  0
LINE
  5
EA
100
AcDbEntity
  8
0
  6
ByLayer
 62
  256
370
   -1
100
AcDbLine
 10
79.25407602757706
 20
163.2982647424894
 11
79.25068875862216
 21
163.298862009397
  0
LINE
  5
EB
100
AcDbEntity
  8
0
  6
ByLayer
 62
  256
370
   -1
100
AcDbLine
 10
79.25068875862215
 20
91.5229967377834
 11
79.25068875862215
 21
47.07299673778338
  0
LINE
  5
EC
100
AcDbEntity
  8
0
  6
ByLayer
 62
  256
370
   -1
100
AcDbLine
 10
98.30068875862216
 20
47.07299673778338
 11
98.30068875862216
 21
91.5229967377834
  0
LINE
  5
ED
100
AcDbEntity
  8
0
  6
ByLayer
 62
  256
370
   -1
100
AcDbLine
 10
98.30068875862216
 20
159.9398330269008
 11
98.29730148966725
 21
159.9404302938084
  0
LINE
  5
EE
100
AcDbEntity
  8
0
  6
ByLayer
 62
  256
370
   -1
100
AcDbLine
 10
98.30068875862216
 20
91.5229967377834
 11
98.30068875862216
 21
165.2835155719495
  0
LINE
  5
EF
100
AcDbEntity
  8
0
  6
ByLayer
 62
  256
370
   -1
100
AcDbLine
 10
79.25068875862216
 20
167.9372366316119
 11
79.25068875862215
 21
91.5229967377834
  0
CIRCLE
  5
F0
100
AcDbEntity
  8
0
  6
ByLayer
 62
  256
370
   -1
100
AcDbCircle
 10
83.83080933851765
 20
164.9092477958163
 40
1.650000000000002
  0
CIRCLE
  5
F1
100
AcDbEntity
  8
0
  6
ByLayer
 62
  256
370
   -1
100
AcDbCircle
 10
93.72056817872665
 20
163.1654164795874
 40
1.650000000000004
  0
LINE
  5
F2
100
AcDbEntity
  8
0
  6
ByLayer
 62
  256
370
   -1
100
AcDbLine
 10
79.25068875862216
 20
167.9372366316119
 11
83.25068875862218
 21
167.9372366316119
  0
LINE
  5
F3
100
AcDbEntity
  8
0
  6
ByLayer
 62
  256
370
   -1
100
AcDbLine
 10
98.30068875862216
 20
165.2835155719495
 11
96.72056817872667
 21
165.5621334629578
  0
LINE
  5
F4
100
AcDbEntity
  8
0
  6
ByLayer
 62
  256
370
   -1
100
AcDbLine
 10
79.25068875862215
 20
47.07299673778338
 11
98.30068875862216
 21
47.07299673778338
  0
LINE
  5
F5
100
AcDbEntity
  8
0
  6
ByLayer
 62
  256
370
   -1
100
AcDbLine
 10
155.7295207311599
 20
161.6193475181489
 11
155.7295207311599
 21
91.5229967377834
  0
LINE
  5
F6
100
AcDbEntity
  8
0
  6
ByLayer
 62
  256
370
   -1
100
AcDbLine
 10
155.7295207311599
 20
91.5229967377834
 11
155.7295207311599
 21
47.07299673778338
  0
LINE
  5
F7
100
AcDbEntity
  8
0
  6
ByLayer
 62
  256
370
   -1
100
AcDbLine
 10
174.7795207311599
 20
47.07299673778338
 11
174.7795207311599
 21
91.5229967377834
  0
LINE
  5
F8
100
AcDbEntity
  8
0
  6
ByLayer
 62
  256
370
   -1
100
AcDbLine
 10
174.7795207311599
 20
91.5229967377834
 11
174.7795207311599
 21
166.9630300631976
  0
LINE
  5
F9
100
AcDbEntity
  8
0
  6
ByLayer
 62
  256
370
   -1
100
AcDbLine
 10
173.0133866276755
 20
167.9372366316119
 11
170.0170207311599
 21
167.9372366316119
  0
LINE
  5
FA
100
AcDbEntity
  8
0
  6
ByLayer
 62
  256
370
   -1
100
AcDbLine
 10
170.0170207311599
 20
167.9372366316119
 11
170.0170207311599
 21
165.5085278477527
  0
LINE
  5
FB
100
AcDbEntity
  8
0
  6
ByLayer
 62
  256
370
   -1
100
AcDbLine
 10
170.0170207311599
 20
165.5085278477527
 11
170.0170207311565
 21
160.1648453027026
  0
LINE
  5
FC
100
AcDbEntity
  8
0
  6
ByLayer
 62
  256
370
   -1
100
AcDbLine
 10
165.0005207311599
 20
159.9404302938084
 11
165.0005207311599
 21
165.2841128388571
  0
LINE
  5
FD
100
AcDbEntity
  8
0
  6
ByLayer
 62
  256
370
   -1
100
AcDbLine
 10
165.0005207311599
 20
165.2841128388571
 11
165.0005207311599
 21
167.9372366316119
  0
LINE
  5
FE
100
AcDbEntity
  8
0
  6
ByLayer
 62
  256
370
   -1
100
AcDbLine
 10
165.0005207311599
 20
167.9372366316119
 11
160.0005207311599
 21
167.9372366316119
  0
LINE
  5
FF
100
AcDbEntity
  8
0
  6
ByLayer
 62
  256
370
   -1
100
AcDbLine
 10
160.0005207311599
 20
167.9372366316119
 11
160.0005207311599
 21
165.5621334629578
  0
LINE
  5
100
100
AcDbEntity
  8
0
  6
ByLayer
 62
  256
370
   -1
100
AcDbLine
 10
160.0005207311599
 20
165.5621334629578
 11
160.0005207310634
 21
160.2184509179199
  0
LINE
  5
101
100
AcDbEntity
  8
0
  6
ByLayer
 62
  256
370
   -1
100
AcDbLine
 10
155.7295207311599
 20
47.07299673778338
 11
174.7795207311599
 21
47.07299673778338
  0
ELLIPSE
  5
102
100
AcDbEntity
  8
0
  6
ByLayer
 62
  256
370
   -1
100
AcDbEllipse
 10
165.25427
 20
166.9630533703962
 30
0
 11
9.525460000000001
 21
0
 31
0
 40
0.1763158944554907
 41
5.23597676133288
 42
0.6187962669874025
  0
ELLIPSE
  5
103
100
AcDbEntity
  8
0
  6
ByLayer
 62
  256
370
   -1
100
AcDbEllipse
 10
165.25427
 20
166.9630533703962
 30
0
 11
9.525460000000001
 21
0
 31
0
 40
0.1763158944554907
 41
4.128165021691371
 42
4.685747510392591
  0
ELLIPSE
  5
104
100
AcDbEntity
  8
0
  6
ByLayer
 62
  256
370
   -1
100
AcDbEllipse
 10
165.25452
 20
161.6193533703962
 30
0
 11
9.525
 21
0
 31
0
 40
0.1763265091863516
 41
4.685719393150828
 42
5.235984922288788
  0
ELLIPSE
  5
105
100
AcDbEntity
  8
0
  6
ByLayer
 62
  256
370
   -1
100
AcDbEllipse
 10
165.25452
 20
161.6193533703962
 30
0
 11
9.525
 21
0
 31
0
 40
0.1763265091863516
 41
2.155078732429802
 42
4.128109699138401
  0
ELLIPSE
  5
106
100
AcDbEntity
  8
0
  6
ByLayer
 62
  256
370
   -1
100
AcDbEllipse
 10
165.25452
 20
161.6193533703962
 30
0
 11
9.525
 21
0
 31
0
 40
0.1763265091863516
 41
1.047197462559445
 42
1.597466078177677
  0
LINE
  5
107
100
AcDbEntity
  8
Center
  6
ByLayer
 62
  256
370
   -1
100
AcDbLine
 10
79.33080933851765
 20
164.9092477958163
 11
88.33080933851765
 21
164.9092477958163
  0
LINE
  5
108
100
AcDbEntity
  8
Center
  6
ByLayer
 62
  256
370
   -1
100
AcDbLine
 10
83.83080933851765
 20
160.4092477958163
 11
83.83080933851765
 21
169.4092477958163
  0
LINE
  5
109
100
AcDbEntity
  8
Center
  6
ByLayer
 62
  256
370
   -1
100
AcDbLine
 10
93.72056817872665
 20
158.6654164795874
 11
93.72056817872665
 21
167.6654164795874
  0
LINE
  5
10A
100
AcDbEntity
  8
Center
  6
ByLayer
 62
  256
370
   -1
100
AcDbLine
 10
89.22056817872665
 20
163.1654164795874
 11
98.22056817872665
 21
163.1654164795874
  0
DIMENSION
  5
10B
100
AcDbEntity
  8
Dimension
  6
ByLayer
 62
  256
370
   -1
100
AcDbDimension
  2
*D1
 10
79.25068875862216
 20
175.811353388993
 30
0
 11
70.5701332030666
 21
175.811353388993
 31
0
 70
   32
 71
    5
 72
    0
  3
Standard
 53
0
210
0
220
0
230
1
100
AcDbAlignedDimension
 13
83.25068875862212
 23
167.9372366316119
 33
0
 14
79.25068875862216
 24
167.9372366316119
 34
0
100
AcDbRotatedDimension
  0
DIMENSION
  5
10C
100
AcDbEntity
  8
Dimension
  6
ByLayer
 62
  256
370
   -1
100
AcDbDimension
  2
*D2
 10
64.42445300832756
 20
164.9092477958163
 30
0
 11
64.42445300832756
 21
158.0342477958163
 31
0
 70
   32
 71
    5
 72
    0
  3
Standard
 53
0
210
0
220
0
230
1
100
AcDbAlignedDimension
 13
79.25068875862216
 23
167.9372366316119
 33
0
 14
79.33080933851765
 24
164.9092477958163
 34
0
 50
90
100
AcDbRotatedDimension
  0
DIMENSION
  5
10D
100
AcDbEntity
  8
Dimension
  6
ByLayer
 62
  256
370
   -1
100
AcDbDimension
  2
*D3
 10
72.46793406168594
 20
163.1654164795874
 30
0
 11
72.46793406168594
 21
156.2904164795874
 31
0
 70
   32
 71
    5
 72
    0
  3
Standard
 53
0
210
0
220
0
230
1
100
AcDbAlignedDimension
 13
79.33080933851765
 23
164.9092477958163
 33
0
 14
89.22056817872665
 24
163.1654164795874
 34
0
 50
90
100
AcDbRotatedDimension
  0
LINE
  5
10E
100
AcDbEntity
  8
0
  6
ByLayer
 62
  256
370
   -1
100
AcDbLine
 10
80.83080933851764
 20
163.0202441183887
 11
96.72056817866482
 21
160.21845091792
  0
DIMENSION
  5
10F
100
AcDbEntity
  8
Dimension
  6
ByLayer
 62
  256
370
   -1
100
AcDbDimension
  2
*D4
 10
93.72056817872665
 20
180.8105948421363
 30
0
 11
88.77568875862215
 21
180.8105948421363
 31
0
 70
   32
 71
    5
 72
    0
  3
Standard
 53
0
210
0
220
0
230
1
100
AcDbAlignedDimension
 13
83.83080933851765
 23
169.4092477958163
 33
0
 14
93.72056817872665
 24
167.6654164795874
 34
0
100
AcDbRotatedDimension
  0
DIMENSION
  5
110
100
AcDbEntity
  8
Dimension
  6
ByLayer
 62
  256
370
   -1
100
AcDbDimension
  2
*D5
 10
98.09256638457141
 20
167.9372366316119
 30
0
 11
0
 21
-15.28404662960379
 31
0
 70
   34
  1
 
 71
    5
 72
    0
  3
Standard
 53
0
210
0
220
0
230
1
100
AcDb2LineAngularDimension
 13
83.25068875862212
 23
167.9372366316119
 33
0
 14
98.30068875862216
 24
165.2835155719495
 34
0
 15
83.25068875862212
 25
167.9372366316119
 35
0
 16
112.1187174819963
 26
165.4270742836703
 36
0
  0
MTEXT
  5
111
100
AcDbEntity
  8
Dimension
  6
ByLayer
 62
  256
370
   -1
100
AcDbMText
 10
115.014438998884
 20
164.9746177966566
 30
0
 40
2.5
 41
4.166666666666667
 71
    5
 72
    1
  1
10%%D
  7
iso
210
0
220
0
230
1
 50
0
 73
    2
 44
1
  0
DIMENSION
  5
112
100
AcDbEntity
  8
Dimension
  6
ByLayer
 62
  256
370
   -1
100
AcDbDimension
  2
*D6
 10
119.5433173325192
 20
156.1941844681542
 30
0
 11
126.3258511742267
 21
158.8212095732702
 31
0
 70
   32
  1
<> [.207"]
 71
    5
 72
    0
  3
Standard
 53
0
210
0
220
0
230
1
100
AcDbAlignedDimension
 13
98.30068875862216
 23
165.2835155719495
 33
0
 14
96.72056817866482
 24
160.21845091792
 34
0
 50
80
100
AcDbRotatedDimension
  0
SOLID
  5
113
100
AcDbEntity
  8
Dimension
  6
ByLayer
 62
  256
370
   -1
100
AcDbTrace
 10
160.0005207311599
 20
173.7579293508104
 30
0
 11
157.5005207311599
 21
173.3416446930376
 31
0
 12
157.5005207311599
 22
174.1742140085832
 32
0
 13
157.5005207311599
 23
174.1742140085832
 33
0
  0
SOLID
  5
114
100
AcDbEntity
  8
Dimension
  6
ByLayer
 62
  256
370
   -1
100
AcDbTrace
 10
174.7795207311599
 20
173.7579293508104
 30
0
 11
177.2795207311599
 21
174.1742140085832
 31
0
 12
177.2795207311599
 22
173.3416446930376
 32
0
 13
177.2795207311599
 23
173.3416446930376
 33
0
  0
LINE
  5
115
100
AcDbEntity
  8
Dimension
  6
ByLayer
 62
  256
370
   -1
100
AcDbLine
 10
160.0005207311599
 20
168.5622366316119
 11
160.0005207311599
 21
175.0079293508104
  0
LINE
  5
116
100
AcDbEntity
  8
Dimension
  6
ByLayer
 62
  256
370
   -1
100
AcDbLine
 10
155.0005207311599
 20
173.7579293508104
 11
179.7795207311599
 21
173.7579293508104
  0
LINE
  5
117
100
AcDbEntity
  8
Dimension
  6
ByLayer
 62
  256
370
   -1
100
AcDbLine
 10
174.7795207311599
 20
167.9664772679059
 11
174.7795207311599
 21
175.0079293508104
  0
LINE
  5
118
100
AcDbEntity
  8
Dimension
  6
ByLayer
 62
  256
370
   -1
100
AcDbLine
 10
165.0005207311599
 20
168.5622366316119
 11
165.0005207311599
 21
175.0079293508104
  0
LINE
  5
119
100
AcDbEntity
  8
Dimension
  6
ByLayer
 62
  256
370
   -1
100
AcDbLine
 10
170.0170207311599
 20
168.5622366316119
 11
170.0170207311599
 21
175.0079293508104
  0
CIRCLE
  5
11A
100
AcDbEntity
  8
Dimension
  6
ByLayer
 62
  256
370
   -1
100
AcDbCircle
 10
165.0005207311599
 20
173.7579293508104
 40
0.28
  0
CIRCLE
  5
11B
100
AcDbEntity
  8
Dimension
  6
ByLayer
 62
  256
370
   -1
100
AcDbCircle
 10
170.0170207311599
 20
173.7579293508104
 40
0.28
  0
MTEXT
  5
11C
100
AcDbEntity
  8
Dimension
  6
ByLayer
 62
  256
370
   -1
100
AcDbMText
 10
154.5620316854019
 20
179.1694446724441
 30
0
 40
2.5
 41
5.833333333333488
 71
    5
 72
    1
  1
5.00
  7
iso
210
0
220
0
230
1
 50
0
 73
    2
 44
1
  0
MTEXT
  5
11D
100
AcDbEntity
  8
Dimension
  6
ByLayer
 62
  256
370
   -1
100
AcDbMText
 10
180.6355715389021
 20
179.1694446724441
 30
0
 40
2.5
 41
6.111111111111267
 71
    5
 72
    1
  1
4.76
  7
iso
210
0
220
0
230
1
 50
0
 73
    2
 44
1
  0
LINE
  5
11E
100
AcDbEntity
  8
Dimension
  6
ByLayer
 62
  256
370
   -1
100
AcDbLine
 10
162.1604049457165
 20
173.7579293508104
 11
162.1604049457165
 21
179.0964804241682
  0
LINE
  5
11F
100
AcDbEntity
  8
Dimension
  6
ByLayer
 62
  256
370
   -1
100
AcDbLine
 10
162.1604049457165
 20
179.0964804241682
 11
158.5040229984411
 21
179.0964804241682
  0
LINE
  5
120
100
AcDbEntity
  8
Dimension
  6
ByLayer
 62
  256
370
   -1
100
AcDbLine
 10
172.5016056268261
 20
173.7579293508104
 11
172.5016056268261
 21
179.0202782444819
  0
LINE
  5
121
100
AcDbEntity
  8
Dimension
  6
ByLayer
 62
  256
370
   -1
100
AcDbLine
 10
172.5016056268261
 20
179.0202782444819
 11
176.5077138444366
 21
179.0202782444819
  0
MTEXT
  5
122
100
AcDbEntity
  8
Dimension
  6
ByLayer
 62
  256
370
   -1
100
AcDbMText
 10
167.6737529699494
 20
181.7445268385736
 30
0
 40
2.5
 41
5.833333333333488
 71
    5
 72
    1
  1
5.02
  7
iso
210
0
220
0
230
1
 50
0
 73
    2
 44
1
  0
LINE
  5
123
100
AcDbEntity
  8
Dimension
  6
ByLayer
 62
  256
370
   -1
100
AcDbLine
 10
167.5348640810602
 20
173.7579293508104
 11
167.5348640810602
 21
179.5308307177534
  0
DIMENSION
  5
124
100
AcDbEntity
  8
Dimension
  6
ByLayer
 62
  256
370
   -1
100
AcDbDimension
  2
*D7
 10
92.43095983571358
 20
39.17066843754304
 30
0
 11
64.00763320306643
 21
39.17066843754304
 31
0
 70
   32
  1
19.05 [3/4"]
 71
    5
 72
    0
  3
Standard
 53
0
210
0
220
0
230
1
100
AcDbAlignedDimension
 13
98.30068875862217
 23
47.07299673778338
 33
0
 14
79.25068875862215
 24
47.07299673778338
 34
0
100
AcDbRotatedDimension
  0
MTEXT
  5
125
100
AcDbEntity
  8
Dimension
  6
ByLayer
 62
  256
370
   -1
100
AcDbMText
 10
107.2722171240467
 20
177.4077650605016
 30
0
 40
2.5
 41
23.47222222222253
 71
    4
 72
    1
  1
2X %%C3.3 THRU\PTAP M4
  7
iso
210
0
220
0
230
1
 50
0
 73
    2
 44
1
  0
LEADER
  5
126
100
AcDbEntity
  8
Dimension
  6
ByLayer
 62
  256
370
   -1
100
AcDbLeader
  3
Standard
 71
    1
 72
    0
 73
    3
 74
    0
 75
    0
 40
1
 41
10
 76
3
 76
3
 10
94.35933309576679
 20
164.6867577893397
 30
0
 10
103.0309819243496
 20
179.3732155188978
 30
0
 10
106.4446590363009
 20
179.3732155188978
 30
0
  0
MTEXT
  5
127
100
AcDbEntity
  8
Dimension
  6
ByLayer
 62
  256
370
   -1
100
AcDbMText
 10
205.4268640266923
 20
73.29960957470901
 30
0
 40
2.5
 41
42.7083333333338
 71
    1
 72
    1
  1
STOCK:\P3/4" ROD 4140 PREHARD
  7
iso
210
0
220
0
230
1
 50
0
 73
    2
 44
1
  0
MTEXT
  5
128
100
AcDbEntity
  8
Dimension
  6
ByLayer
 62
  256
370
   -1
100
AcDbMText
 10
205.9905333770438
 20
120.858949344576
 30
0
 40
2.5
 41
45.69444444444506
 71
    1
 72
    1
  1
MILLING:\P3/16" CARBIDE = 1750 RPM\P3/8" CARBIDE = 1115 RPM\P3/4" HSS = 325 RPM\P1-1/8" HSS = 210 RPM\P3.3mm HSS = 1115 RPM
  7
iso
210
0
220
0
230
1
 50
0
 73
    2
 44
1
  0
MTEXT
  5
129
100
AcDbEntity
  8
Dimension
  6
ByLayer
 62
  256
370
   -1
100
AcDbMText
 10
205.6941469230851
 20
90.47948300220951
 30
0
 40
2.5
 41
33.68055502555033
 71
    1
 72
    1
  1
HSS PARTING:\PSTART AT 260 RPM\PFINISH AT 370 RPM
  7
iso
210
0
220
0
230
1
 50
0
 73
    2
 44
1
  0
MTEXT
  5
12A
100
AcDbEntity
  8
Dimension
  6
ByLayer
 62
  256
370
   -1
100
AcDbMText
 10
205.2932225784959
 20
59.74801304512282
 30
0
 40
2.5
 41
52.50000128571936
 71
    1
 72
    1
  1
NOTES:\P1. Unless otherwise specified,\P  dimensions are in millimeters.\P2. Designed for 3/16" tool bit.\P3. 30mm minimum insertion into\P  collet!
  7
iso
210
0
220
0
230
1
 50
0
 73
    2
 44
1
  0
DIMENSION
  5
12B
100
AcDbEntity
  8
Dimension
  6
ByLayer
 62
  256
370
   -1
100
AcDbDimension
  2
*D9
 10
53.45514617271151
 20
167.9372366316119
 30
0
 11
53.45514617271151
 21
107.5051166846976
 31
0
 70
   32
  1
121.00%%P5.00
 71
    5
 72
    0
  3
Standard
 53
0
210
0
220
0
230
1
100
AcDbAlignedDimension
 13
79.25068875862215
 23
47.07299673778338
 33
0
 14
79.25068875862216
 24
167.9372366316119
 34
0
 50
90
100
AcDbRotatedDimension
  0
ENDSEC
  0
SECTION
  2
OBJECTS
  0
DICTIONARY
  5
C
330
0
100
AcDbDictionary
281
    1
  3
ACAD_GROUP
350
D
  0
DICTIONARY
  5
D
330
C
100
AcDbDictionary
281
    1
  0
ENDSEC
  0
EOF
