999
dxfrw 0.6.3
  0
SECTION
  2
HEADER
  9
$ACADVER
  1
AC1021
  9
$DWGCODEPAGE
  3
ANSI_1252
  9
$INSBASE
 10
0
 20
0
 30
0
  9
$EXTMIN
 10
10000000000
 20
10000000000
 30
0
  9
$EXTMAX
 10
-10000000000
 20
-10000000000
 30
0
  9
$LIMMIN
 10
0
 20
0
  9
$LIMMAX
 10
420
 20
297
  9
$ORTHOMODE
 70
    0
  9
$REGENMODE
 70
    1
  9
$FILLMODE
 70
    1
  9
$QTEXTMODE
 70
    0
  9
$MIRRTEXT
 70
    0
  9
$LTSCALE
 40
1
  9
$ATTMODE
 70
    0
  9
$TEXTSIZE
 40
2.5
  9
$TRACEWID
 40
15.68
  9
$TEXTSTYLE
  7
STANDARD
  9
$CLAYER
  8
0
  9
$CELTYPE
  6
BYLAYER
  9
$CECOLOR
 62
  256
  9
$CELTSCALE
 40
1
  9
$DISPSILH
 70
    0
  9
$DIMSCALE
 40
1
  9
$DIMASZ
 40
2.5
  9
$DIMEXO
 40
0.625
  9
$DIMDLI
 40
3.75
  9
$DIMRND
 40
0
  9
$DIMDLE
 40
0
  9
$DIMEXE
 40
1.25
  9
$DIMTP
 40
0
  9
$DIMTM
 40
0
  9
$DIMTXT
 40
2.5
  9
$DIMCEN
 40
2.5
  9
$DIMTSZ
 40
0
  9
$DIMTOL
 70
    0
  9
$DIMLIM
 70
    0
  9
$DIMTIH
 70
    0
  9
$DIMTOH
 70
    0
  9
$DIMSE1
 70
    0
  9
$DIMSE2
 70
    0
  9
$DIMTAD
 70
    1
  9
$DIMZIN
 70
    8
  9
$DIMBLK
  1

  9
$DIMASO
 70
    1
  9
$DIMSHO
 70
    1
  9
$DIMPOST
  1

  9
$DIMAPOST
  1

  9
$DIMALT
 70
    0
  9
$DIMALTD
 70
    3
  9
$DIMALTF
 40
0.03937
  9
$DIMLFAC
 40
1
  9
$DIMTOFL
 70
    1
  9
$DIMTVP
 40
0
  9
$DIMTIX
 70
    0
  9
$DIMSOXD
 70
    0
  9
$DIMSAH
 70
    0
  9
$DIMBLK1
  1

  9
$DIMBLK2
  1

  9
$DIMSTYLE
  2
STANDARD
  9
$DIMCLRD
 70
    0
  9
$DIMCLRE
 70
    0
  9
$DIMCLRT
 70
    0
  9
$DIMTFAC
 40
1
  9
$DIMGAP
 40
0.625
  9
$DIMJUST
 70
    0
  9
$DIMSD1
 70
    0
  9
$DIMSD2
 70
    0
  9
$DIMTOLJ
 70
    0
  9
$DIMTZIN
 70
    8
  9
$DIMALTZ
 70
    0
  9
$DIMALTTZ
 70
    0
  9
$DIMUPT
 70
    0
  9
$DIMDEC
 70
    2
  9
$DIMTDEC
 70
    2
  9
$DIMALTU
 70
    2
  9
$DIMALTTD
 70
    3
  9
$DIMTXSTY
  7
STANDARD
  9
$DIMAUNIT
 70
    0
  9
$DIMADEC
 70
    0
  9
$DIMALTRND
 40
0
  9
$DIMAZIN
 70
    0
  9
$DIMDSEP
 70
   44
  9
$DIMATFIT
 70
    3
  9
$DIMFRAC
 70
    0
  9
$DIMLDRBLK
  1
STANDARD
  9
$DIMLUNIT
 70
    2
  9
$DIMLWD
 70
   -2
  9
$DIMLWE
 70
   -2
  9
$DIMTMOVE
 70
    0
  9
$DIMFXL
 40
1
  9
$DIMFXLON
 70
    0
  9
$DIMJOGANG
 40
0.7854
  9
$DIMTFILL
 70
    0
  9
$DIMTFILLCLR
 70
    0
  9
$DIMARCSYM
 70
    0
  9
$DIMLTYPE
  6

  9
$DIMLTEX1
  6

  9
$DIMLTEX2
  6

  9
$LUNITS
 70
    2
  9
$LUPREC
 70
    4
  9
$SKETCHINC
 40
1
  9
$FILLETRAD
 40
0
  9
$AUNITS
 70
    0
  9
$AUPREC
 70
    2
  9
$MENU
  1
.
  9
$ELEVATION
 40
0
  9
$PELEVATION
 40
0
  9
$THICKNESS
 40
0
  9
$LIMCHECK
 70
    0
  9
$CHAMFERA
 40
0
  9
$CHAMFERB
 40
0
  9
$CHAMFERC
 40
0
  9
$CHAMFERD
 40
0
  9
$SKPOLY
 70
    0
  9
$USRTIMER
 70
    1
  9
$ANGBASE
 50
0
  9
$ANGDIR
 70
    0
  9
$PDMODE
 70
   34
  9
$PDSIZE
 40
0
  9
$PLINEWID
 40
0
  9
$SPLFRAME
 70
    0
  9
$SPLINETYPE
 70
    2
  9
$SPLINESEGS
 70
    8
  9
$HANDSEED
  5
20000
  9
$SURFTAB1
 70
    6
  9
$SURFTAB2
 70
    6
  9
$SURFTYPE
 70
    6
  9
$SURFU
 70
    6
  9
$SURFV
 70
    6
  9
$UCSBASE
  2

  9
$UCSNAME
  2

  9
$UCSORG
 10
0
 20
0
 30
0
  9
$UCSXDIR
 10
1
 20
0
 30
0
  9
$UCSYDIR
 10
0
 20
1
 30
0
  9
$UCSORTHOREF
  2

  9
$UCSORTHOVIEW
 70
    0
  9
$UCSORGTOP
 10
0
 20
0
 30
0
  9
$UCSORGBOTTOM
 10
0
 20
0
 30
0
  9
$UCSORGLEFT
 10
0
 20
0
 30
0
  9
$UCSORGRIGHT
 10
0
 20
0
 30
0
  9
$UCSORGFRONT
 10
0
 20
0
 30
0
  9
$UCSORGBACK
 10
0
 20
0
 30
0
  9
$PUCSBASE
  2

  9
$PUCSNAME
  2

  9
$PUCSORG
 10
0
 20
0
 30
0
  9
$PUCSXDIR
 10
1
 20
0
 30
0
  9
$PUCSYDIR
 10
0
 20
1
 30
0
  9
$PUCSORTHOREF
  2

  9
$PUCSORTHOVIEW
 70
    0
  9
$PUCSORGTOP
 10
0
 20
0
 30
0
  9
$PUCSORGBOTTOM
 10
0
 20
0
 30
0
  9
$PUCSORGLEFT
 10
0
 20
0
 30
0
  9
$PUCSORGRIGHT
 10
0
 20
0
 30
0
  9
$PUCSORGFRONT
 10
0
 20
0
 30
0
  9
$PUCSORGBACK
 10
0
 20
0
 30
0
  9
$USERI1
 70
    0
  9
$USERI2
 70
    0
  9
$USERI3
 70
    0
  9
$USERI4
 70
    0
  9
$USERI5
 70
    0
  9
$USERR1
 40
0
  9
$USERR2
 40
0
  9
$USERR3
 40
0
  9
$USERR4
 40
0
  9
$USERR5
 40
0
  9
$WORLDVIEW
 70
    1
  9
$SHADEDGE
 70
    3
  9
$SHADEDIF
 70
   70
  9
$TILEMODE
 70
    1
  9
$MAXACTVP
 70
   64
  9
$PINSBASE
 10
0
 20
0
 30
0
  9
$PLIMCHECK
 70
    0
  9
$PEXTMIN
 10
0
 20
0
 30
0
  9
$PEXTMAX
 10
0
 20
0
 30
0
  9
$GRIDMODE
 70
    0
  9
$SNAPSTYLE
 70
    0
  9
$PLIMMIN
 10
0
 20
0
  9
$PLIMMAX
 10
297
 20
210
  9
$UNITMODE
 70
    0
  9
$VISRETAIN
 70
    1
  9
$PLINEGEN
 70
    0
  9
$PSLTSCALE
 70
    1
  9
$TREEDEPTH
 70
 3020
  9
$CMLSTYLE
  2
Standard
  9
$CMLJUST
 70
    0
  9
$CMLSCALE
 40
20
  9
$PROXYGRAPHICS
 70
    1
  9
$MEASUREMENT
 70
    1
  9
$CELWEIGHT
370
   -1
  9
$ENDCAPS
280
    0
  9
$JOINSTYLE
280
    0
  9
$LWDISPLAY
290
    0
  9
$INSUNITS
 70
    0
  9
$HYPERLINKBASE
  1

  9
$STYLESHEET
  1

  9
$XEDIT
290
    1
  9
$CEPSNTYPE
380
    0
  9
$PSTYLEMODE
290
    1
  9
$EXTNAMES
290
    1
  9
$PSVPSCALE
 40
0
  9
$OLESTARTUP
290
    0
  9
$SORTENTS
280
  127
  9
$INDEXCTL
280
    0
  9
$HIDETEXT
280
    1
  9
$XCLIPFRAME
290
    0
  9
$HALOGAP
280
    0
  9
$OBSCOLOR
 70
  257
  9
$OBSLTYPE
280
    0
  9
$INTERSECTIONDISPLAY
280
    0
  9
$INTERSECTIONCOLOR
 70
  257
  9
$DIMASSOC
280
    1
  9
$PROJECTNAME
  1

  9
$CAMERADISPLAY
290
    0
  9
$LENSLENGTH
 40
50
  9
$CAMERAHEIGHT
 40
0
  9
$STEPSPERSEC
 40
2
  9
$STEPSIZE
 40
50
  9
$3DDWFPREC
 40
2
  9
$PSOLWIDTH
 40
5
  9
$PSOLHEIGHT
 40
80
  9
$LOFTANG1
 40
1.570796326794897
  9
$LOFTANG2
 40
1.570796326794897
  9
$LOFTMAG1
 40
0
  9
$LOFTMAG2
 40
0
  9
$LOFTPARAM
 70
    7
  9
$LOFTNORMALS
280
    1
  9
$LATITUDE
 40
1
  9
$LONGITUDE
 40
1
  9
$NORTHDIRECTION
 40
0
  9
$TIMEZONE
 70
-8000
  9
$LIGHTGLYPHDISPLAY
280
    1
  9
$TILEMODELIGHTSYNCH
280
    1
  9
$SOLIDHIST
280
    1
  9
$SHOWHIST
280
    1
  9
$DWFFRAME
280
    2
  9
$DGNFRAME
280
    0
  9
$REALWORLDSCALE
290
    1
  9
$INTERFERECOLOR
 62
    1
  9
$CSHADOW
280
    0
  9
$SHADOWPLANELOCATION
 40
0
  0
ENDSEC
  0
SECTION
  2
CLASSES
  0
ENDSEC
  0
SECTION
  2
TABLES
  0
TABLE
  2
VPORT
  5
8
330
0
100
AcDbSymbolTable
 70
    1
  0
VPORT
  5
31
330
2
100
AcDbSymbolTableRecord
100
AcDbViewportTableRecord
  2
*ACTIVE
 70
    0
 10
0
 20
0
 11
1
 21
1
 12
186.7204513357385
 22
88.44652958008663
 13
0
 23
0
 14
10
 24
10
 15
10
 25
10
 16
0
 26
0
 36
1
 17
0
 27
0
 37
0
 40
304.0349454315478
 41
1.844444444444445
 42
50
 43
0
 44
0
 50
0
 51
0
 71
    0
 72
  100
 73
    1
 74
    3
 75
    0
 76
    0
 77
    0
 78
    0
281
    0
 65
    1
110
0
120
0
130
0
111
1
121
0
131
0
112
0
122
1
132
0
 79
    0
146
0
348
10020
 60
    7
 61
    5
292
1
282
    1
141
0
142
0
 63
  250
421
3358443
  0
ENDTAB
  0
TABLE
  2
LTYPE
  5
5
330
0
100
AcDbSymbolTable
 70
    4
  0
LTYPE
  5
14
330
5
100
AcDbSymbolTableRecord
100
AcDbLinetypeTableRecord
  2
ByBlock
 70
    0
  3

 72
   65
 73
    0
 40
0
  0
LTYPE
  5
15
330
5
100
AcDbSymbolTableRecord
100
AcDbLinetypeTableRecord
  2
ByLayer
 70
    0
  3

 72
   65
 73
    0
 40
0
  0
LTYPE
  5
16
330
5
100
AcDbSymbolTableRecord
100
AcDbLinetypeTableRecord
  2
Continuous
 70
    0
  3
Solid line
 72
   65
 73
    0
 40
0
  0
LTYPE
  5
32
330
5
100
AcDbSymbolTableRecord
100
AcDbLinetypeTableRecord
  2
DOT
 70
    0
  3
Dot . . . . . . . . . . . . . . . . . . . . . .
 72
   65
 73
    2
 40
6.35
 49
0
 74
    0
 49
-6.35
 74
    0
  0
LTYPE
  5
33
330
5
100
AcDbSymbolTableRecord
100
AcDbLinetypeTableRecord
  2
DOTTINY
 70
    0
  3
Dot (.15x) .....................................
 72
   65
 73
    2
 40
0.9525
 49
0
 74
    0
 49
-0.9525
 74
    0
  0
LTYPE
  5
34
330
5
100
AcDbSymbolTableRecord
100
AcDbLinetypeTableRecord
  2
DOT2
 70
    0
  3
Dot (.5x) .....................................
 72
   65
 73
    2
 40
3.175
 49
0
 74
    0
 49
-3.175
 74
    0
  0
LTYPE
  5
35
330
5
100
AcDbSymbolTableRecord
100
AcDbLinetypeTableRecord
  2
DOTX2
 70
    0
  3
Dot (2x) .  .  .  .  .  .  .  .  .  .  .  .  .
 72
   65
 73
    2
 40
12.7
 49
0
 74
    0
 49
-12.7
 74
    0
  0
LTYPE
  5
36
330
5
100
AcDbSymbolTableRecord
100
AcDbLinetypeTableRecord
  2
DASHED
 70
    0
  3
Dashed _ _ _ _ _ _ _ _ _ _ _ _ _ _ _ _ _
 72
   65
 73
    2
 40
19.05
 49
12.7
 74
    0
 49
-6.35
 74
    0
  0
LTYPE
  5
37
330
5
100
AcDbSymbolTableRecord
100
AcDbLinetypeTableRecord
  2
DASHEDTINY
 70
    0
  3
Dashed (.15x) _ _ _ _ _ _ _ _ _ _ _ _ _ _ _ _ _
 72
   65
 73
    2
 40
2.8575
 49
1.905
 74
    0
 49
-0.9525
 74
    0
  0
LTYPE
  5
38
330
5
100
AcDbSymbolTableRecord
100
AcDbLinetypeTableRecord
  2
DASHED2
 70
    0
  3
Dashed (.5x) _ _ _ _ _ _ _ _ _ _ _ _ _ _ _ _ _
 72
   65
 73
    2
 40
9.524999999999999
 49
6.35
 74
    0
 49
-3.175
 74
    0
  0
LTYPE
  5
39
330
5
100
AcDbSymbolTableRecord
100
AcDbLinetypeTableRecord
  2
DASHEDX2
 70
    0
  3
Dashed (2x) ____  ____  ____  ____  ____  ___
 72
   65
 73
    2
 40
38.09999999999999
 49
25.4
 74
    0
 49
-12.7
 74
    0
  0
LTYPE
  5
3A
330
5
100
AcDbSymbolTableRecord
100
AcDbLinetypeTableRecord
  2
DASHDOT
 70
    0
  3
Dash dot __ . __ . __ . __ . __ . __ . __ . __
 72
   65
 73
    4
 40
25.4
 49
12.7
 74
    0
 49
-6.35
 74
    0
 49
0
 74
    0
 49
-6.35
 74
    0
  0
LTYPE
  5
3B
330
5
100
AcDbSymbolTableRecord
100
AcDbLinetypeTableRecord
  2
DASHDOTTINY
 70
    0
  3
Dash dot (.15x) _._._._._._._._._._._._._._._.
 72
   65
 73
    4
 40
3.81
 49
1.905
 74
    0
 49
-0.9525
 74
    0
 49
0
 74
    0
 49
-0.9525
 74
    0
  0
LTYPE
  5
3C
330
5
100
AcDbSymbolTableRecord
100
AcDbLinetypeTableRecord
  2
DASHDOT2
 70
    0
  3
Dash dot (.5x) _._._._._._._._._._._._._._._.
 72
   65
 73
    4
 40
12.7
 49
6.35
 74
    0
 49
-3.175
 74
    0
 49
0
 74
    0
 49
-3.175
 74
    0
  0
LTYPE
  5
3D
330
5
100
AcDbSymbolTableRecord
100
AcDbLinetypeTableRecord
  2
DASHDOTX2
 70
    0
  3
Dash dot (2x) ____  .  ____  .  ____  .  ___
 72
   65
 73
    4
 40
50.8
 49
25.4
 74
    0
 49
-12.7
 74
    0
 49
0
 74
    0
 49
-12.7
 74
    0
  0
LTYPE
  5
3E
330
5
100
AcDbSymbolTableRecord
100
AcDbLinetypeTableRecord
  2
DIVIDE
 70
    0
  3
Divide ____ . . ____ . . ____ . . ____ . . ____
 72
   65
 73
    6
 40
31.75
 49
12.7
 74
    0
 49
-6.35
 74
    0
 49
0
 74
    0
 49
-6.35
 74
    0
 49
0
 74
    0
 49
-6.35
 74
    0
  0
LTYPE
  5
3F
330
5
100
AcDbSymbolTableRecord
100
AcDbLinetypeTableRecord
  2
DIVIDETINY
 70
    0
  3
Divide (.15x) __..__..__..__..__..__..__..__.._
 72
   65
 73
    6
 40
4.7625
 49
1.905
 74
    0
 49
-0.9525
 74
    0
 49
0
 74
    0
 49
-0.9525
 74
    0
 49
0
 74
    0
 49
-0.9525
 74
    0
  0
LTYPE
  5
40
330
5
100
AcDbSymbolTableRecord
100
AcDbLinetypeTableRecord
  2
DIVIDE2
 70
    0
  3
Divide (.5x) __..__..__..__..__..__..__..__.._
 72
   65
 73
    6
 40
15.875
 49
6.35
 74
    0
 49
-3.175
 74
    0
 49
0
 74
    0
 49
-3.175
 74
    0
 49
0
 74
    0
 49
-3.175
 74
    0
  0
LTYPE
  5
41
330
5
100
AcDbSymbolTableRecord
100
AcDbLinetypeTableRecord
  2
DIVIDEX2
 70
    0
  3
Divide (2x) ________  .  .  ________  .  .  _
 72
   65
 73
    6
 40
63.5
 49
25.4
 74
    0
 49
-12.7
 74
    0
 49
0
 74
    0
 49
-12.7
 74
    0
 49
0
 74
    0
 49
-12.7
 74
    0
  0
LTYPE
  5
42
330
5
100
AcDbSymbolTableRecord
100
AcDbLinetypeTableRecord
  2
BORDER
 70
    0
  3
Border __ __ . __ __ . __ __ . __ __ . __ __ .
 72
   65
 73
    6
 40
44.45
 49
12.7
 74
    0
 49
-6.35
 74
    0
 49
12.7
 74
    0
 49
-6.35
 74
    0
 49
0
 74
    0
 49
-6.35
 74
    0
  0
LTYPE
  5
43
330
5
100
AcDbSymbolTableRecord
100
AcDbLinetypeTableRecord
  2
BORDERTINY
 70
    0
  3
Border (.15x) __.__.__.__.__.__.__.__.__.__.__.
 72
   65
 73
    6
 40
6.6675
 49
1.905
 74
    0
 49
-0.9525
 74
    0
 49
1.905
 74
    0
 49
-0.9525
 74
    0
 49
0
 74
    0
 49
-0.9525
 74
    0
  0
LTYPE
  5
44
330
5
100
AcDbSymbolTableRecord
100
AcDbLinetypeTableRecord
  2
BORDER2
 70
    0
  3
Border (.5x) __.__.__.__.__.__.__.__.__.__.__.
 72
   65
 73
    6
 40
22.225
 49
6.35
 74
    0
 49
-3.175
 74
    0
 49
6.35
 74
    0
 49
-3.175
 74
    0
 49
0
 74
    0
 49
-3.175
 74
    0
  0
LTYPE
  5
45
330
5
100
AcDbSymbolTableRecord
100
AcDbLinetypeTableRecord
  2
BORDERX2
 70
    0
  3
Border (2x) ____  ____  .  ____  ____  .  ___
 72
   65
 73
    6
 40
88.89999999999999
 49
25.4
 74
    0
 49
-12.7
 74
    0
 49
25.4
 74
    0
 49
-12.7
 74
    0
 49
0
 74
    0
 49
-12.7
 74
    0
  0
LTYPE
  5
46
330
5
100
AcDbSymbolTableRecord
100
AcDbLinetypeTableRecord
  2
CENTER
 70
    0
  3
Center ____ _ ____ _ ____ _ ____ _ ____ _ ____
 72
   65
 73
    4
 40
50.8
 49
31.75
 74
    0
 49
-6.35
 74
    0
 49
6.35
 74
    0
 49
-6.35
 74
    0
  0
LTYPE
  5
47
330
5
100
AcDbSymbolTableRecord
100
AcDbLinetypeTableRecord
  2
CENTERTINY
 70
    0
  3
Center (.15x) ___ _ ___ _ ___ _ ___ _ ___ _ ___
 72
   65
 73
    4
 40
7.619999999999999
 49
4.7625
 74
    0
 49
-0.9525
 74
    0
 49
0.9525
 74
    0
 49
-0.9525
 74
    0
  0
LTYPE
  5
48
330
5
100
AcDbSymbolTableRecord
100
AcDbLinetypeTableRecord
  2
CENTER2
 70
    0
  3
Center (.5x) ___ _ ___ _ ___ _ ___ _ ___ _ ___
 72
   65
 73
    4
 40
28.575
 49
19.05
 74
    0
 49
-3.175
 74
    0
 49
3.175
 74
    0
 49
-3.175
 74
    0
  0
LTYPE
  5
49
330
5
100
AcDbSymbolTableRecord
100
AcDbLinetypeTableRecord
  2
CENTERX2
 70
    0
  3
Center (2x) ________  __  ________  __  _____
 72
   65
 73
    4
 40
101.6
 49
63.5
 74
    0
 49
-12.7
 74
    0
 49
12.7
 74
    0
 49
-12.7
 74
    0
  0
ENDTAB
  0
TABLE
  2
LAYER
  5
2
330
0
100
AcDbSymbolTable
 70
    1
  0
LAYER
  5
10
330
2
100
AcDbSymbolTableRecord
100
AcDbLayerTableRecord
  2
0
 70
    0
 62
    7
  6
CONTINUOUS
370
   -3
390
F
  0
ENDTAB
  0
TABLE
  2
STYLE
  5
3
330
0
100
AcDbSymbolTable
 70
    3
  0
STYLE
  5
4A
330
2
100
AcDbSymbolTableRecord
100
AcDbTextStyleTableRecord
  2
Standard
 70
    0
 40
0
 41
1
 50
0
 71
    0
 42
1
  3
txt
  4

  0
ENDTAB
  0
TABLE
  2
VIEW
  5
6
330
0
100
AcDbSymbolTable
 70
    0
  0
ENDTAB
  0
TABLE
  2
UCS
  5
7
330
0
100
AcDbSymbolTable
 70
    0
  0
ENDTAB
  0
TABLE
  2
APPID
  5
9
330
0
100
AcDbSymbolTable
 70
    1
  0
APPID
  5
12
330
9
100
AcDbSymbolTableRecord
100
AcDbRegAppTableRecord
  2
ACAD
 70
    0
  0
APPID
  5
4B
330
9
100
AcDbSymbolTableRecord
100
AcDbRegAppTableRecord
  2
LibreCad
 70
    0
  0
ENDTAB
  0
TABLE
  2
DIMSTYLE
  5
A
330
0
100
AcDbSymbolTable
 70
    1
100
AcDbDimStyleTable
 71
    1
  0
DIMSTYLE
105
4C
330
A
100
AcDbSymbolTableRecord
100
AcDbDimStyleTableRecord
  2
Standard
 70
    0
 40
1
 41
2.5
 42
0.625
 43
0.38
 44
1.25
 45
0
 46
0
 47
0
 48
0
 49
1
140
2.5
141
0.09
142
0
143
25.4
144
1
145
0
146
1
147
0.625
148
0
 71
    0
 72
    0
 73
    0
 74
    1
 75
    0
 76
    0
 77
    0
 78
    8
 79
    0
170
    0
171
    2
172
    0
173
    0
174
    0
175
    0
176
    0
177
    0
178
    0
179
    0
271
    2
272
    4
273
    2
274
    2
275
    0
276
    0
277
    2
278
   44
279
    0
280
    0
281
    0
282
    0
283
    1
284
    0
285
    0
286
    0
288
    0
289
    3
340
STANDARD
341

371
   -2
372
   -2
  0
ENDTAB
  0
TABLE
  2
BLOCK_RECORD
  5
1
330
0
100
AcDbSymbolTable
 70
    2
  0
BLOCK_RECORD
  5
1F
330
1
100
AcDbSymbolTableRecord
100
AcDbBlockTableRecord
  2
*Model_Space
 70
    0
280
    1
281
    0
  0
BLOCK_RECORD
  5
1E
330
1
100
AcDbSymbolTableRecord
100
AcDbBlockTableRecord
  2
*Paper_Space
 70
    0
280
    1
281
    0
  0
ENDTAB
  0
ENDSEC
  0
SECTION
  2
BLOCKS
  0
BLOCK
  5
20
330
1F
100
AcDbEntity
  8
0
100
AcDbBlockBegin
  2
*Model_Space
 70
    0
 10
0
 20
0
 30
0
  3
*Model_Space
  1

  0
ENDBLK
  5
21
330
1F
100
AcDbEntity
  8
0
100
AcDbBlockEnd
  0
BLOCK
  5
1C
330
1B
100
AcDbEntity
  8
0
100
AcDbBlockBegin
  2
*Paper_Space
 70
    0
 10
0
 20
0
 30
0
  3
*Paper_Space
  1

  0
ENDBLK
  5
1D
330
1F
100
AcDbEntity
  8
0
100
AcDbBlockEnd
  0
ENDSEC
  0
SECTION
  2
ENTITIES
  0
LWPOLYLINE
  5
4D
100
AcDbEntity
  8
0
  6
ByLayer
 62
  256
370
   -1
100
AcDbPolyline
 90
    6
 70
    0
 43
0
 10
145.6639969121203
 20
77.10319198454839
 10
145.6639969121203
 20
146.505401363405
 10
98.42926392885894
 20
119.234415560419
 10
80.46875168672059
 20
129.6039221382011
 10
127.703484669982
 20
156.8749079411872
 10
145.6639969121203
 20
146.505401363405
  0
LWPOLYLINE
  5
4E
100
AcDbEntity
  8
0
  6
ByLayer
 62
  256
370
   -1
100
AcDbPolyline
 90
    6
 70
    0
 43
0
 10
80.46875168672059
 20
129.6039221382011
 10
80.46875168672059
 20
125.5214392335625
 10
98.42926392885894
 20
115.1519326557804
 10
94.18662324173965
 20
112.7024429129972
 10
76.22611099960129
 20
123.0719494907793
 10
80.46875168672059
 20
125.5214392335625
  0
LWPOLYLINE
  5
4F
100
AcDbEntity
  8
0
  6
ByLayer
 62
  256
370
   -1
100
AcDbPolyline
 90
  100
 70
    0
 43
0
 10
98.42926392885894
 20
119.234415560419
 10
98.42926392885894
 20
115.1519326557804
 10
98.7066538369815
 20
115.3017738672077
 10
98.98721510842067
 20
115.4322207666884
 10
99.26916420641714
 20
115.5415134025293
 10
99.55059943718733
 20
115.6280875197504
 10
99.82953768331762
 20
115.6906235396135
 10
100.1039565815278
 20
115.7280903820692
 10
100.3718404652165
 20
115.7397815850145
 10
100.6312280174829
 20
115.725341490239
 10
100.8802593513546
 20
115.6847797942149
 10
101.1172201861165
 20
115.6184734618184
 10
101.3405809472244
 20
115.5271558010549
 10
101.5490288856474
 20
115.4118933508527
 10
113.5698441658187
 20
108.4716724129671
 10
113.7623072096228
 20
108.3338310149858
 10
113.9379686512411
 20
108.1750331387337
 10
114.0962725401733
 20
107.9971089121561
 10
114.2369201551641
 20
107.8020435498601
 10
114.3618902115796
 20
107.5880543643934
 10
114.4722407668946
 20
107.3522473749183
 10
114.5665626976772
 20
107.0952674690815
 10
114.643590967219
 20
106.8180888620944
 10
114.7022433278111
 20
106.5220134994078
 10
114.7416553191571
 20
106.208657823302
 10
114.7612095575655
 20
105.879927723467
 10
114.760557546421
 20
105.5379821450548
 10
114.7396326101051
 20
105.185186818954
 10
114.698653109564
 20
104.8240600230978
 10
114.6381156920522
 20
104.4572130102191
 10
114.5587789973557
 20
104.0872880959266
 10
114.4616388113224
 20
103.716897296703
 10
114.3478962043058
 20
103.3485645535747
 10
114.2189205137456
 20
102.9846739569728
 10
114.0762092326702
 20
102.6274259695264
 10
113.9368940366985
 20
102.2774607979402
 10
113.8117941989895
 20
101.9202488785996
 10
113.7026169533908
 20
101.5582243622476
 10
113.6109250740485
 20
101.1940525248112
 10
113.5380844955024
 20
100.8305755263529
 10
113.4852156478771
 20
100.4707466469764
 10
113.4531515896514
 20
100.1175557977648
 10
113.4424057495473
 20
99.77394981901533
 10
113.4531515896514
 20
99.44275206761935
 10
113.4852156478771
 20
99.1265856037035
 10
113.5380844955024
 20
98.82780441114345
 10
113.6109250740485
 20
98.54843646794826
 10
113.7026169533908
 20
98.29014129295336
 10
113.8117941989895
 20
98.05418380087303
 10
113.9368940366985
 20
97.84142473148619
 10
114.0762092326702
 20
97.65232689169295
 10
114.2189205137456
 20
97.45986769733705
 10
114.3478962043058
 20
97.24490540006283
 10
114.4616388113224
 20
97.00791130649321
 10
114.5587789973557
 20
96.74968833238054
 10
114.6381156920522
 20
96.47137354216736
 10
114.698653109564
 20
96.17442911788164
 10
114.7396326101051
 20
95.86062137336269
 10
114.760557546421
 20
95.53198808249151
 10
114.7612095575655
 20
95.19079538169881
 10
114.7416553191571
 20
94.83948599224605
 10
114.7022433278111
 20
94.48062126851443
 10
114.643590967219
 20
94.11681999347492
 10
114.5665626976772
 20
93.75069680217753
 10
114.4722407668946
 20
93.38480331208498
 10
114.3618902115796
 20
93.02157447697726
 10
114.2369201551641
 20
92.66328230008622
 10
114.0962725401733
 20
92.3058110610387
 10
113.9379686512411
 20
91.94509324868358
 10
113.7623072096228
 20
91.58345901122235
 10
113.5698441658187
 20
91.22338043294234
 10
113.3613962273958
 20
90.86742303601919
 10
113.1380354692524
 20
90.51819058859076
 10
112.9010746319213
 20
90.17826544882428
 10
112.6520432976542
 20
89.85014713696168
 10
112.3926557453878
 20
89.53619209593515
 10
112.1247718651924
 20
89.23855763787827
 10
111.8503529634889
 20
88.95915282711303
 10
111.5714147173586
 20
88.69959870399495
 10
111.2899794865885
 20
88.46119940872683
 10
111.008030388592
 20
88.24492526931562
 10
110.7274691171528
 20
88.05140791761715
 10
110.4500792090302
 20
87.88094685279432
 10
101.7526658004357
 20
82.85949288008881
 10
89.7318505202644
 20
89.79971381797448
 10
89.7318505202644
 20
110.1304786830749
 10
101.7526658004357
 20
103.1902577451892
 10
110.4500792090302
 20
108.2117117178947
 10
110.7274691171528
 20
108.361552929322
 10
111.008030388592
 20
108.4919998288027
 10
111.2899794865885
 20
108.6012924646436
 10
111.5714147173586
 20
108.6878665818647
 10
111.8503529634889
 20
108.7504026017278
 10
112.1247718651924
 20
108.787869444501
 10
112.3926557458169
 20
108.7995606471267
 10
112.6520432976543
 20
108.7851205523533
 10
112.9010746315259
 20
108.7445588563292
 10
113.1380354662877
 20
108.6782525239328
 10
113.3613962273957
 20
108.5869348631692
 10
113.5698441658187
 20
108.4716724129671
  0
LWPOLYLINE
  5
50
100
AcDbEntity
  8
0
  6
ByLayer
 62
  256
370
   -1
100
AcDbPolyline
 90
   11
 70
    0
 43
0
 10
108.9581478268349
 20
105.5185513467692
 10
108.9067830087199
 20
105.314519383096
 10
108.8304782921792
 20
105.0768574125205
 10
108.7361855402662
 20
104.8357831544876
 10
108.6246959824627
 20
104.5950270565747
 10
108.4973880155721
 20
104.3584693604228
 10
108.3561770246892
 20
104.1299385789155
 10
108.2034209066822
 20
103.9130077406445
 10
108.0417908509839
 20
103.7108106930787
 10
107.8741219052224
 20
103.5258978848381
 10
107.7231074505548
 20
103.3793986656531
  0
LWPOLYLINE
  5
51
100
AcDbEntity
  8
0
  6
ByLayer
 62
  256
370
   -1
100
AcDbPolyline
 90
   17
 70
    0
 43
0
 10
110.3019911861263
 20
106.730470866841
 10
110.2960724819714
 20
106.5752413193502
 10
110.2567163491039
 20
106.2216110226147
 10
110.1885595957149
 20
105.8474491641612
 10
110.0902103116684
 20
105.456784925753
 10
109.9610792529072
 20
105.054587744779
 10
109.8015069035159
 20
104.6466159234927
 10
109.612832271104
 20
104.2391825347646
 10
109.3973880155721
 20
103.8388541181521
 10
109.1584155646948
 20
103.4521097114559
 10
108.8999052159124
 20
103.0849959923735
 10
108.6263774293459
 20
102.7428163734159
 10
108.3426299826725
 20
102.4298870056241
 10
108.053479469884
 20
102.1493819079916
 10
107.7635241720307
 20
101.9032754988906
 10
107.4769494179437
 20
101.6923769396649
 10
107.3454760384761
 20
101.6096364177639
  0
LWPOLYLINE
  5
52
100
AcDbEntity
  8
0
  6
ByLayer
 62
  256
370
   -1
100
AcDbPolyline
 90
   11
 70
    0
 43
0
 10
108.9581478268349
 20
95.14904476898715
 10
108.9067830087199
 20
94.94501280531391
 10
108.8304782921792
 20
94.70735083473838
 10
108.7361855402662
 20
94.46627657670558
 10
108.6246959824627
 20
94.2255204787925
 10
108.4973880155721
 20
93.9889627826407
 10
108.3561770246893
 20
93.7604320011334
 10
108.2034209066823
 20
93.54350116286238
 10
108.0417908509839
 20
93.34130411529658
 10
107.8741219052224
 20
93.15639130705594
 10
107.7231074505548
 20
93.00989208787104
  0
LWPOLYLINE
  5
53
100
AcDbEntity
  8
0
  6
ByLayer
 62
  256
370
   -1
100
AcDbPolyline
 90
   17
 70
    0
 43
0
 10
110.3019911861263
 20
96.3609642890589
 10
110.2960724819714
 20
96.20573474156794
 10
110.2567163491039
 20
95.85210444483258
 10
110.1885595957149
 20
95.47794258637919
 10
110.0902103116684
 20
95.08727834797079
 10
109.9610792529072
 20
94.68508116699682
 10
109.8015069035159
 20
94.27710934571058
 10
109.612832271104
 20
93.86967595698252
 10
109.3973880155721
 20
93.46934754037005
 10
109.1584155646948
 20
93.0826031336738
 10
108.8999052159124
 20
92.71548941459135
 10
108.6263774293459
 20
92.37330979563379
 10
108.3426299826725
 20
92.06038042784198
 10
108.053479469884
 20
91.77987533020953
 10
107.7635241720306
 20
91.5337689211085
 10
107.4769494179437
 20
91.32287036188282
 10
107.3454760384761
 20
91.24012983998178
  0
LWPOLYLINE
  5
54
100
AcDbEntity
  8
0
  6
ByLayer
 62
  256
370
   -1
100
AcDbPolyline
 90
   87
 70
    0
 43
0
 10
90.08540391085768
 20
89.59558967274255
 10
89.7318505202644
 20
89.39146552751062
 10
89.7318505202644
 20
69.06070066241023
 10
101.7526658004357
 20
62.12047972452456
 10
110.4500792090302
 20
67.14193369723009
 10
110.7274691171528
 20
67.31239476205286
 10
111.008030388592
 20
67.50591211375134
 10
111.2899794865885
 20
67.72218625316256
 10
111.5714147173586
 20
67.96058554843066
 10
111.8503529634889
 20
68.22013967154878
 10
112.1247718616991
 20
68.49954447859773
 10
112.3926557453878
 20
68.79717894037091
 10
112.6520432976542
 20
69.11113398139743
 10
112.9010746319213
 20
69.43925229326
 10
113.1380354692524
 20
69.7791774330265
 10
113.3613962273958
 20
70.12840988045497
 10
113.5698441658186
 20
70.48436727737808
 10
113.7623072096228
 20
70.84444585565808
 10
113.9379686512411
 20
71.20608009311931
 10
114.0962725401733
 20
71.56679790547446
 10
114.2369201551641
 20
71.92426914452199
 10
114.3618902115796
 20
72.282561321413
 10
114.4722407668946
 20
72.64579015652072
 10
114.5665626976772
 20
73.01168364661325
 10
114.643590967219
 20
73.37780683791064
 10
114.7022433278111
 20
73.74160811295016
 10
114.7416553191571
 20
74.10047283668183
 10
114.7612095575655
 20
74.45178222613461
 10
114.760557546421
 20
74.79297492692726
 10
114.7396326101051
 20
75.12160821779844
 10
114.698653109564
 20
75.43541596231738
 10
114.6381156920522
 20
75.73236038660315
 10
114.5587789973557
 20
76.01067517681626
 10
114.4616388113224
 20
76.26889815092899
 10
114.3478962043058
 20
76.50589224449857
 10
114.2189205137456
 20
76.72085454177279
 10
114.0762092326702
 20
76.9133137361287
 10
113.9368940366985
 20
77.10241157592192
 10
113.8117941989895
 20
77.31517064530877
 10
113.7026169533908
 20
77.55112813738916
 10
113.6109250740485
 20
77.80942331238407
 10
113.5380844955024
 20
78.08879125557921
 10
113.4852156478771
 20
78.38757244813928
 10
113.4531515896514
 20
78.70373891205509
 10
113.4424057495473
 20
79.03493666345113
 10
113.4531515896514
 20
79.37854264220056
 10
113.4852156478771
 20
79.7317334914122
 10
113.5380844955024
 20
80.09156237078872
 10
113.6109250740485
 20
80.4550393692469
 10
113.7026169533908
 20
80.81921120668338
 10
113.8117941989895
 20
81.18123572303536
 10
113.9368940366985
 20
81.53844764237591
 10
114.0762092326702
 20
81.88841281396211
 10
114.2189205137456
 20
82.24566080140855
 10
114.3478962043058
 20
82.60955139801042
 10
114.4616388113224
 20
82.97788414113879
 10
114.5587789973557
 20
83.34827494036233
 10
114.6381156920522
 20
83.71819985465483
 10
114.698653109564
 20
84.08504686753355
 10
114.7396326101051
 20
84.44617366338986
 10
114.760557546421
 20
84.79896898949048
 10
114.7612095575655
 20
85.14091456790275
 10
114.7416553191571
 20
85.46964466773775
 10
114.7022433278111
 20
85.78300034384361
 10
114.643590967219
 20
86.07907570653023
 10
114.5665626976772
 20
86.35625431351724
 10
114.4722407668946
 20
86.61323421935415
 10
114.3618902115796
 20
86.84904120882914
 10
114.2369201551641
 20
87.06303039429591
 10
114.0962725401733
 20
87.25809575659186
 10
113.9379686512411
 20
87.43601998316944
 10
113.7623072096228
 20
87.59481785942154
 10
113.5698441658187
 20
87.73265925740279
 10
113.3613962273958
 20
87.84792170760494
 10
113.1380354662877
 20
87.9392393683685
 10
112.9010746315259
 20
88.00554570076493
 10
112.6520432976542
 20
88.04610739678904
 10
112.3926557458169
 20
88.0605474915624
 10
112.1247718651924
 20
88.04885628893675
 10
111.8503529634889
 20
88.01138944616353
 10
111.5714147173586
 20
87.94885342630045
 10
111.2899794865885
 20
87.86227930907933
 10
111.008030388592
 20
87.75298667323847
 10
110.7274691171528
 20
87.62253977375777
 10
110.4500792090302
 20
87.47269856233046
 10
101.7526658004357
 20
82.45124458962495
 10
89.7318505202644
 20
89.39146552751062
  0
LWPOLYLINE
  5
55
100
AcDbEntity
  8
0
  6
ByLayer
 62
  256
370
   -1
100
AcDbPolyline
 90
   11
 70
    0
 43
0
 10
108.9581478268349
 20
84.77953819120503
 10
108.9067830087199
 20
84.57550622753179
 10
108.8304782921792
 20
84.33784425695626
 10
108.7361855402662
 20
84.09676999892345
 10
108.6246959824627
 20
83.85601390101041
 10
108.4973880155721
 20
83.61945620485861
 10
108.3561770246893
 20
83.39092542335129
 10
108.2034209066823
 20
83.17399458508028
 10
108.0417908509839
 20
82.97179753751445
 10
107.8741219052223
 20
82.78688472927382
 10
107.7231074505548
 20
82.6403855100889
  0
LWPOLYLINE
  5
56
100
AcDbEntity
  8
0
  6
ByLayer
 62
  256
370
   -1
100
AcDbPolyline
 90
   17
 70
    0
 43
0
 10
110.3019911861263
 20
85.99145771127675
 10
110.2960724819714
 20
85.83622816378582
 10
110.2567163491039
 20
85.48259786705042
 10
110.1885595957149
 20
85.10843600859704
 10
110.0902103116684
 20
84.71777177018869
 10
109.9610792529072
 20
84.31557458921471
 10
109.8015069035159
 20
83.90760276792844
 10
109.612832271104
 20
83.50016937920037
 10
109.3973880155721
 20
83.09984096258792
 10
109.1584155646948
 20
82.7130965558917
 10
108.8999052159124
 20
82.34598283680918
 10
108.6263774293459
 20
82.0038032178517
 10
108.3426299826725
 20
81.69087385005983
 10
108.053479469884
 20
81.41036875242739
 10
107.7635241720307
 20
81.16426234332637
 10
107.4769494179437
 20
80.9533637841007
 10
107.3454760384761
 20
80.87062326219967
  0
LWPOLYLINE
  5
57
100
AcDbEntity
  8
0
  6
ByLayer
 62
  256
370
   -1
100
AcDbPolyline
 90
   11
 70
    0
 43
0
 10
108.9581478268349
 20
74.41003161342289
 10
108.9067830087199
 20
74.20599964974966
 10
108.8304782921792
 20
73.96833767917411
 10
108.7361855402662
 20
73.72726342114129
 10
108.6246959824628
 20
73.48650732322824
 10
108.4973880155721
 20
73.24994962707648
 10
108.3561770246892
 20
73.02141884556914
 10
108.2034209066823
 20
72.8044880072981
 10
108.0417908509839
 20
72.60229095973236
 10
107.8741219052224
 20
72.41737815149169
 10
107.7231074505548
 20
72.27087893230681
  0
LWPOLYLINE
  5
58
100
AcDbEntity
  8
0
  6
ByLayer
 62
  256
370
   -1
100
AcDbPolyline
 90
   17
 70
    0
 43
0
 10
110.3019911861263
 20
75.62195113349463
 10
110.2960724819714
 20
75.46672158600381
 10
110.2567163491039
 20
75.1130912892684
 10
110.1885595957149
 20
74.73892943081493
 10
110.0902103116684
 20
74.34826519240659
 10
109.9610792529072
 20
73.9460680114326
 10
109.8015069035159
 20
73.53809619014632
 10
109.612832271104
 20
73.13066280141828
 10
109.3973880155721
 20
72.73033438480581
 10
109.1584155646948
 20
72.34358997810955
 10
108.8999052159124
 20
71.97647625902711
 10
108.6263774293459
 20
71.63429664006956
 10
108.3426299826725
 20
71.32136727227773
 10
108.053479469884
 20
71.04086217464527
 10
107.7635241720306
 20
70.79475576554427
 10
107.4769494179437
 20
70.58385720631858
 10
107.3454760384761
 20
70.50111668441754
  0
LWPOLYLINE
  5
59
100
AcDbEntity
  8
0
  6
ByLayer
 62
  256
370
   -1
100
AcDbPolyline
 90
   86
 70
    0
 43
0
 10
90.08540391085766
 20
68.8565765171783
 10
89.7318505202644
 20
68.65245237194637
 10
101.7526658004357
 20
61.7122314340607
 10
101.7526658004357
 20
41.38146656896031
 10
110.4500792090302
 20
46.40292054166583
 10
110.7274691171528
 20
46.57338160648865
 10
111.008030388592
 20
46.76689895818708
 10
111.2899794865885
 20
46.98317309759832
 10
111.5714147173586
 20
47.22157239286643
 10
111.850352963489
 20
47.48112651598453
 10
112.1247718651924
 20
47.7605313267498
 10
112.3926557458169
 20
48.05816578530429
 10
112.6520432976542
 20
48.37212082583316
 10
112.9010746315259
 20
48.70023913715212
 10
113.1380354662877
 20
49.0401642730229
 10
113.3613962273957
 20
49.38939672489069
 10
113.5698441658187
 20
49.74535412181384
 10
113.7623072096228
 20
50.10543270009381
 10
113.9379686512411
 20
50.46706693755505
 10
114.0962725401733
 20
50.82778474991019
 10
114.2369201551641
 20
51.18525598895773
 10
114.3618902115796
 20
51.54354816584883
 10
114.4722407668946
 20
51.90677700095648
 10
114.5665626976773
 20
52.27267049104904
 10
114.643590967219
 20
52.63879368234643
 10
114.7022433278111
 20
53.00259495738594
 10
114.7416553191571
 20
53.36145968111757
 10
114.7612095575655
 20
53.71276907057034
 10
114.760557546421
 20
54.05396177136302
 10
114.7396326101051
 20
54.38259506223417
 10
114.698653109564
 20
54.69640280675311
 10
114.6381156920522
 20
54.99334723103888
 10
114.5587789973557
 20
55.27166202125203
 10
114.4616388113224
 20
55.52988499536475
 10
114.3478962043058
 20
55.76687908893433
 10
114.2189205137456
 20
55.98184138620854
 10
114.0762092326702
 20
56.17430058056445
 10
113.9368940366985
 20
56.36339842035764
 10
113.8117941989895
 20
56.57615748974452
 10
113.7026169533908
 20
56.8121149818249
 10
113.6109250740485
 20
57.0704101568198
 10
113.5380844955024
 20
57.34977810001496
 10
113.4852156478771
 20
57.64855929257503
 10
113.4531515896514
 20
57.96472575649086
 10
113.4424057495473
 20
58.29592350788685
 10
113.4531515896514
 20
58.6395294866363
 10
113.4852156478771
 20
58.99272033584798
 10
113.5380844955024
 20
59.35254921522444
 10
113.6109250740485
 20
59.71602621368265
 10
113.7026169533908
 20
60.08019805111914
 10
113.8117941989895
 20
60.44222256747113
 10
113.9368940366985
 20
60.79943448681166
 10
114.0762092326702
 20
61.14939965839785
 10
114.2189205137456
 20
61.50664764584428
 10
114.3478962043058
 20
61.87053824244617
 10
114.4616388113224
 20
62.23887098557449
 10
114.5587789973557
 20
62.60926178479809
 10
114.6381156920522
 20
62.97918669909058
 10
114.698653109564
 20
63.34603371196931
 10
114.7396326101051
 20
63.7071605078256
 10
114.760557546421
 20
64.05995583392624
 10
114.7612095575655
 20
64.4019014123385
 10
114.7416553191571
 20
64.73063151217355
 10
114.7022433278111
 20
65.04398718827936
 10
114.6435909672191
 20
65.34006255096598
 10
114.5665626976772
 20
65.617241157953
 10
114.4722407668946
 20
65.87422106378986
 10
114.3618902115796
 20
66.1100280532649
 10
114.2369201551641
 20
66.32401723873166
 10
114.0962725401733
 20
66.51908260102761
 10
113.9379686512411
 20
66.69700682760521
 10
113.7623072096228
 20
66.85580470385729
 10
113.5698441658187
 20
66.99364610183854
 10
113.3613962273957
 20
67.10890855204069
 10
113.1380354662877
 20
67.20022621280427
 10
112.9010746315259
 20
67.26653254520069
 10
112.6520432976542
 20
67.3070942412248
 10
112.3926557458169
 20
67.32153433599817
 10
112.1247718651924
 20
67.30984313337247
 10
111.8503529634889
 20
67.27237629059931
 10
111.5714147173586
 20
67.20984027073619
 10
111.2899794865885
 20
67.1232661535151
 10
111.008030388592
 20
67.0139735176742
 10
110.7274691171528
 20
66.88352661819353
 10
110.4500792090302
 20
66.73368540676623
 10
101.7526658004357
 20
61.7122314340607
  0
LWPOLYLINE
  5
5A
100
AcDbEntity
  8
0
  6
ByLayer
 62
  256
370
   -1
100
AcDbPolyline
 90
   17
 70
    0
 43
0
 10
110.3019911861263
 20
65.25244455571251
 10
110.2960724819714
 20
65.09721500822168
 10
110.2567163491039
 20
64.74358471148622
 10
110.1885595957149
 20
64.36942285303277
 10
110.0902103116684
 20
63.97875861462444
 10
109.9610792529072
 20
63.57656143365045
 10
109.8015069035159
 20
63.16858961236417
 10
109.612832271104
 20
62.76115622363611
 10
109.3973880155721
 20
62.36082780702365
 10
109.1584155646948
 20
61.97408340032743
 10
108.8999052159124
 20
61.60696968124495
 10
108.6263774293459
 20
61.26479006228746
 10
108.3426299826725
 20
60.95186069449559
 10
108.053479469884
 20
60.67135559686314
 10
107.7635241720307
 20
60.42524918776212
 10
107.4769494179437
 20
60.21435062853644
 10
107.3454760384761
 20
60.13161010663541
  0
LWPOLYLINE
  5
5B
100
AcDbEntity
  8
0
  6
ByLayer
 62
  256
370
   -1
100
AcDbPolyline
 90
   11
 70
    0
 43
0
 10
108.9581478268349
 20
64.04052503564073
 10
108.9067830087199
 20
63.83649307196752
 10
108.8304782921792
 20
63.59883110139199
 10
108.7361855402662
 20
63.3577568433592
 10
108.6246959824627
 20
63.11700074544616
 10
108.4973880155721
 20
62.88044304929434
 10
108.3561770246892
 20
62.65191226778702
 10
108.2034209066823
 20
62.43498142951601
 10
108.0417908509839
 20
62.23278438195021
 10
107.8741219052224
 20
62.04787157370958
 10
107.7231074505548
 20
61.90137235452461
  0
LWPOLYLINE
  5
5C
100
AcDbEntity
  8
0
  6
ByLayer
 62
  256
370
   -1
100
AcDbPolyline
 90
   17
 70
    0
 43
0
 10
110.3019911861263
 20
54.88293797793041
 10
110.2960724819714
 20
54.72770843043955
 10
110.2567163491039
 20
54.37407813370413
 10
110.1885595957149
 20
53.9999162752507
 10
110.0902103116684
 20
53.60925203684234
 10
109.9610792529072
 20
53.20705485586835
 10
109.8015069035159
 20
52.79908303458208
 10
109.612832271104
 20
52.39164964585404
 10
109.3973880155721
 20
51.99132122924156
 10
109.1584155646948
 20
51.60457682254532
 10
108.8999052159124
 20
51.23746310346284
 10
108.6263774293459
 20
50.89528348450535
 10
108.3426299826725
 20
50.58235411671347
 10
108.053479469884
 20
50.30184901908104
 10
107.7635241720307
 20
50.05574260998006
 10
107.4769494179437
 20
49.84484405075434
 10
107.3454760384761
 20
49.76210352885329
  0
LWPOLYLINE
  5
5D
100
AcDbEntity
  8
0
  6
ByLayer
 62
  256
370
   -1
100
AcDbPolyline
 90
    3
 70
    0
 43
0
 10
145.6639969121203
 20
109.5997559104705
 10
155.8463345666986
 20
103.7209805259631
 10
155.8463345666986
 20
82.98196737039883
  0
LWPOLYLINE
  5
5E
100
AcDbEntity
  8
0
  6
ByLayer
 62
  256
370
   -1
100
AcDbPolyline
 90
    5
 70
    0
 43
0
 10
76.22611099960139
 20
72.44916146443802
 10
35.3553390633657
 20
48.85241027967417
 10
35.3553390633657
 20
43.66765699078313
 10
0
 20
64.0800715116448
 10
76.22611099960129
 20
108.0892372265962
  0
LWPOLYLINE
  5
5F
100
AcDbEntity
  8
0
  6
ByLayer
 62
  256
370
   -1
100
AcDbPolyline
 90
    3
 70
    0
 43
0
 10
35.3553390633657
 20
48.85241027967417
 10
48.08326112617729
 20
41.50394105216397
 10
76.2261110086955
 20
57.75222301131079
  0
LWPOLYLINE
  5
60
100
AcDbEntity
  8
0
  6
ByLayer
 62
  256
370
   -1
100
AcDbPolyline
 90
    3
 70
    0
 43
0
 10
66.0437733505151
 20
15.58017459980033
 10
48.08326112617729
 20
5.210668029926548
 10
48.08326112617729
 20
41.50394105216397
  0
LWPOLYLINE
  5
61
100
AcDbEntity
  8
0
  6
ByLayer
 62
  256
370
   -1
100
AcDbPolyline
 90
   11
 70
    0
 43
0
 10
48.08326112617729
 20
5.210668029926548
 10
176.7766953168988
 20
-69.09052082605078
 10
284.5397687574908
 20
-6.873481352210895
 10
257.2454470004311
 20
8.884902657894337
 10
257.2454469833575
 20
39.99342238138324
 10
149.4823735305984
 20
-22.22361708535031
 10
78.7716954118729
 20
18.60121196107682
 10
78.7716954118729
 20
23.78596524996786
 10
186.5347688647027
 20
86.00300471666058
 10
173.8068468033449
 20
93.35147394501013
 10
113.4489068559682
 20
58.50380106866093
  0
LWPOLYLINE
  5
62
100
AcDbEntity
  8
0
  6
ByLayer
 62
  256
370
   -1
100
AcDbPolyline
 90
    6
 70
    0
 43
0
 10
0
 20
64.0800715116448
 10
0
 20
32.97155177829843
 10
0
 20
1.4210854715202e-14
 10
176.7766953168988
 20
-102.0620726043492
 10
284.5397687574908
 20
-39.84503313050929
 10
284.5397687574908
 20
-6.873481352210895
  0
LWPOLYLINE
  5
63
100
AcDbEntity
  8
0
  6
ByLayer
 62
  256
370
   -1
100
AcDbPolyline
 90
   11
 70
    0
 43
0
 10
108.9581478268349
 20
53.67101845785871
 10
108.9067830087199
 20
53.4669864941854
 10
108.8304782921792
 20
53.22932452360986
 10
108.7361855402662
 20
52.98825026557706
 10
108.6246959824627
 20
52.74749416766403
 10
108.4973880155721
 20
52.5109364715122
 10
108.3561770246892
 20
52.28240569000491
 10
108.2034209066822
 20
52.06547485173389
 10
108.0417908509839
 20
51.86327780416809
 10
107.8741219052224
 20
51.67836499592745
 10
107.7231074505548
 20
51.53186577674252
  0
LWPOLYLINE
  5
64
100
AcDbEntity
  8
0
  6
ByLayer
 62
  256
370
   -1
100
AcDbPolyline
 90
    3
 70
    0
 43
0
 10
92.77240967936652
 20
46.56621985785139
 10
66.0437733504444
 20
31.13443447827657
 10
66.0437733504444
 20
-5.15883854396084
  0
LWPOLYLINE
  5
65
100
AcDbEntity
  8
0
  6
ByLayer
 62
  256
370
   -1
100
AcDbPolyline
 90
    3
 70
    0
 43
0
 10
186.5347688647027
 20
86.00300471666058
 10
186.5347688647028
 20
80.81825142776954
 10
257.2454469833575
 20
39.99342238138324
  0
LWPOLYLINE
  5
66
100
AcDbEntity
  8
0
  6
ByLayer
 62
  256
370
   -1
100
AcDbPolyline
 90
    3
 70
    0
 43
0
 10
257.2454470004311
 20
8.884902657894337
 10
149.4823735305276
 20
-53.33213681865585
 10
149.4823735305984
 20
-22.22361708535031
  0
LWPOLYLINE
  5
67
100
AcDbEntity
  8
0
  6
ByLayer
 62
  256
370
   -1
100
AcDbPolyline
 90
    3
 70
    0
 43
0
 10
89.7318505202644
 20
68.65245237194637
 10
89.7318505202644
 20
48.32168750684599
 10
101.7526658004357
 20
41.38146656896031
  0
LWPOLYLINE
  5
68
100
AcDbEntity
  8
0
  6
ByLayer
 62
  256
370
   -1
100
AcDbPolyline
 90
   65
 70
    0
 43
0
 10
113.5613490462511
 20
105.0273750522766
 10
113.5487636754295
 20
104.6972991832164
 10
113.509407542562
 20
104.343668886481
 10
113.4412507891731
 20
103.9695070280275
 10
113.3429015051266
 20
103.5788427896192
 10
113.2137704463653
 20
103.1766456086452
 10
113.054198096974
 20
102.768673787359
 10
112.8655234645621
 20
102.3612403986309
 10
112.6500792090302
 20
101.9609119820184
 10
112.4111067629207
 20
101.5741675825445
 10
112.1525964093705
 20
101.2070538562397
 10
111.879068622804
 20
100.8648742372822
 10
111.5953211761307
 20
100.5519448694904
 10
111.3061706633422
 20
100.2714397718579
 10
111.0162153654888
 20
100.0253333627569
 10
110.7296406114019
 20
99.81443480353123
 10
110.4500792090302
 20
99.63849761815359
 10
110.1705178066587
 20
99.49162510170265
 10
109.8839430525717
 20
99.37161563809818
 10
109.5939877547183
 20
99.28291050866203
 10
109.3048372419298
 20
99.22953335350496
 10
109.0210897952565
 20
99.21481939185939
 10
108.74756200869
 20
99.24115632840689
 10
108.4890516551397
 20
99.30976801029061
 10
108.2500792090303
 20
99.42057079758403
 10
108.0346349573692
 20
99.57212561307266
 10
107.8459603210865
 20
99.76169630544663
 10
107.6863879716952
 20
99.9854098489804
 10
107.5572569129339
 20
100.2384993268813
 10
107.4589076288874
 20
100.5155995940519
 10
107.3907508754985
 20
100.8110608126728
 10
107.351394742631
 20
101.1192465615977
 10
107.3388093718094
 20
101.4347900961946
 10
107.351394742631
 20
101.7648659652548
 10
107.3907508754985
 20
102.1184962619902
 10
107.4589076288874
 20
102.4926581204437
 10
107.5572569129339
 20
102.883322358852
 10
107.6863879716952
 20
103.285519539826
 10
107.8459603210864
 20
103.6934913611123
 10
108.0346349534984
 20
104.1009247498403
 10
108.2500792090302
 20
104.5012531664528
 10
108.4890516599075
 20
104.887997573149
 10
108.74756200869
 20
105.2551112922315
 10
109.0210897952565
 20
105.597290911189
 10
109.3048372419298
 20
105.9102202789808
 10
109.5939877547183
 20
106.1907253766133
 10
109.8839430525717
 20
106.4368317857143
 10
110.1705178066586
 20
106.6477303449399
 10
110.4500792090302
 20
106.8236675303176
 10
110.7296406114018
 20
106.9705400467685
 10
111.0162153654888
 20
107.090549510373
 10
111.3061706633422
 20
107.1792546398091
 10
111.5953211761307
 20
107.2326317949662
 10
111.879068622804
 20
107.2473457566118
 10
112.1525964093705
 20
107.2210088200643
 10
112.411106758153
 20
107.1523971398975
 10
112.6500792090303
 20
107.0415943508871
 10
112.8655234645621
 20
106.890039532128
 10
113.054198096974
 20
106.7004688430245
 10
113.2137704463653
 20
106.4767552994908
 10
113.3429015051266
 20
106.2236658215899
 10
113.4412507891731
 20
105.9465655544193
 10
113.509407542562
 20
105.6511043357982
 10
113.5487636754295
 20
105.3429185868734
 10
113.5613490462511
 20
105.0273750522766
  0
LWPOLYLINE
  5
69
100
AcDbEntity
  8
0
  6
ByLayer
 62
  256
370
   -1
100
AcDbPolyline
 90
   65
 70
    0
 43
0
 10
108.2500792090302
 20
94.13174658867064
 10
108.4890516599075
 20
94.51849099536685
 10
108.74756200869
 20
94.88560471444936
 10
109.0210897952565
 20
95.22778433340689
 10
109.3048372419298
 20
95.54071370119871
 10
109.5939877547183
 20
95.82121879883118
 10
109.8839430525717
 20
96.06732520793221
 10
110.1705178066587
 20
96.27822376715787
 10
110.4500792090302
 20
96.45416095253546
 10
110.7296406114018
 20
96.60103346898637
 10
111.0162153654888
 20
96.72104293259085
 10
111.3061706633422
 20
96.80974806202704
 10
111.5953211761307
 20
96.86312521718406
 10
111.879068622804
 20
96.87783917882967
 10
112.1525964093705
 20
96.85150224228218
 10
112.411106758153
 20
96.7828905621154
 10
112.6500792090303
 20
96.67208777310498
 10
112.8655234645621
 20
96.52053295434587
 10
113.054198096974
 20
96.33096226524242
 10
113.2137704463653
 20
96.10724872170866
 10
113.3429015051265
 20
95.85415924380777
 10
113.4412507891731
 20
95.57705897663715
 10
113.509407542562
 20
95.28159775801612
 10
113.5487636754295
 20
94.97341200909131
 10
113.5613490462511
 20
94.65786847449446
 10
113.5487636754295
 20
94.3277926054343
 10
113.509407542562
 20
93.97416230869887
 10
113.4412507891731
 20
93.60000045024543
 10
113.3429015051266
 20
93.20933621183705
 10
113.2137704463653
 20
92.80713903086308
 10
113.054198096974
 20
92.39916720957683
 10
112.8655234606913
 20
91.99173381310857
 10
112.6500792090302
 20
91.5914054042363
 10
112.4111067629207
 20
91.20466100476233
 10
112.1525964093705
 20
90.83754727845758
 10
111.879068622804
 20
90.49536765950003
 10
111.5953211761307
 20
90.18243829170824
 10
111.3061706633422
 20
89.90193319407578
 10
111.0162153654888
 20
89.65582678497472
 10
110.7296406114018
 20
89.44492822574907
 10
110.4500792090302
 20
89.26899104037147
 10
110.1705178066587
 20
89.12211852392056
 10
109.8839430525717
 20
89.00210906031609
 10
109.5939877547183
 20
88.91340393087989
 10
109.3048372419298
 20
88.86002677572286
 10
109.0210897952565
 20
88.84531281407726
 10
108.74756200869
 20
88.87164975062477
 10
108.4890516599075
 20
88.94026143079151
 10
108.2500792090302
 20
89.05106421980192
 10
108.0346349573692
 20
89.20261903529055
 10
107.8459603210864
 20
89.39218972766453
 10
107.6863879716952
 20
89.61590327119825
 10
107.5572569129339
 20
89.86899274909911
 10
107.4589076288874
 20
90.14609301626979
 10
107.3907508754984
 20
90.44155423489079
 10
107.351394742631
 20
90.74973998381554
 10
107.3388093718094
 20
91.06528351841246
 10
107.351394742631
 20
91.39535938747264
 10
107.3907508754984
 20
91.74898968420814
 10
107.4589076288874
 20
92.12315154266153
 10
107.5572569129339
 20
92.51381578106984
 10
107.6863879716952
 20
92.91601296204388
 10
107.8459603210864
 20
93.32398478333013
 10
108.0346349573692
 20
93.73141817979834
 10
108.2500792090302
 20
94.13174658867064
  0
LWPOLYLINE
  5
6A
100
AcDbEntity
  8
0
  6
ByLayer
 62
  256
370
   -1
100
AcDbPolyline
 90
   65
 70
    0
 43
0
 10
111.5953211761307
 20
86.49361863940196
 10
111.3061706633422
 20
86.44024148424492
 10
111.0162153654888
 20
86.3515363548087
 10
110.7296406114018
 20
86.23152689120423
 10
110.4500792090302
 20
86.08465437475331
 10
110.1705178066587
 20
85.90871718937574
 10
109.8839430525717
 20
85.69781863015007
 10
109.5939877547183
 20
85.45171222104905
 10
109.3048372419298
 20
85.17120712341658
 10
109.0210897952565
 20
84.85827775562475
 10
108.74756200869
 20
84.51609813666721
 10
108.4890516551397
 20
84.14898441036243
 10
108.2500792090302
 20
83.76224001088852
 10
108.0346349573692
 20
83.36191160201622
 10
107.8459603210865
 20
82.95447820554799
 10
107.6863879716952
 20
82.54650638426173
 10
107.5572569129339
 20
82.14430920328775
 10
107.4589076288874
 20
81.75364496487937
 10
107.3907508754984
 20
81.37948310642599
 10
107.351394742631
 20
81.02585280969058
 10
107.3388093718094
 20
80.69577694063037
 10
107.351394742631
 20
80.3802334060334
 10
107.3907508754985
 20
80.07204765710861
 10
107.4589076288874
 20
79.77658643848763
 10
107.5572569129339
 20
79.49948617131702
 10
107.6863879716952
 20
79.24639669341613
 10
107.8459603210864
 20
79.0226831498824
 10
108.0346349573692
 20
78.83311245750841
 10
108.2500792090302
 20
78.68155764201981
 10
108.4890516551397
 20
78.57075485472632
 10
108.74756200869
 20
78.50214317284266
 10
109.0210897952565
 20
78.47580623629511
 10
109.3048372419298
 20
78.49052019794075
 10
109.5939877547183
 20
78.54389735309775
 10
109.8839430525717
 20
78.63260248253395
 10
110.1705178066587
 20
78.75261194613844
 10
110.4500792090302
 20
78.89948446258933
 10
110.7296406114019
 20
79.075421647967
 10
111.0162153654888
 20
79.28632020719262
 10
111.3061706633422
 20
79.53242661629363
 10
111.5953211761307
 20
79.81293171392608
 10
111.879068622804
 20
80.12586108171794
 10
112.1525964093705
 20
80.46804070067546
 10
112.4111067629207
 20
80.83515442698024
 10
112.6500792090302
 20
81.22189882645415
 10
112.8655234645621
 20
81.6222272430666
 10
113.054198096974
 20
82.02966063179468
 10
113.2137704463653
 20
82.43763245308094
 10
113.3429015051266
 20
82.83982963405495
 10
113.4412507891731
 20
83.23049387246328
 10
113.509407542562
 20
83.60465573091673
 10
113.5487636754295
 20
83.95828602765218
 10
113.5613490462511
 20
84.28836189671235
 10
113.5487636754295
 20
84.60390543130919
 10
113.509407542562
 20
84.91209118023397
 10
113.4412507891731
 20
85.20755239885501
 10
113.3429015051266
 20
85.48465266602565
 10
113.2137704463653
 20
85.73774214392657
 10
113.054198096974
 20
85.96145568746027
 10
112.8655234645621
 20
86.15102637656372
 10
112.6500792090303
 20
86.30258119532286
 10
112.411106758153
 20
86.41338398433331
 10
112.1525964093705
 20
86.48199566450002
 10
111.879068622804
 20
86.50833260104757
 10
111.5953211761307
 20
86.49361863940196
  0
LWPOLYLINE
  5
6B
100
AcDbEntity
  8
0
  6
ByLayer
 62
  256
370
   -1
100
AcDbPolyline
 90
   65
 70
    0
 43
0
 10
108.2500792090302
 20
73.39273343310637
 10
108.0346349573692
 20
72.99240502423409
 10
107.8459603210864
 20
72.58497162776587
 10
107.6863879716952
 20
72.17699980647959
 10
107.5572569129339
 20
71.77480262550561
 10
107.4589076288874
 20
71.38413838709729
 10
107.3907508754985
 20
71.00997652864388
 10
107.351394742631
 20
70.6563462319084
 10
107.3388093718094
 20
70.32627036284821
 10
107.351394742631
 20
70.01072682825131
 10
107.3907508754985
 20
69.70254107932649
 10
107.4589076288874
 20
69.40707986070551
 10
107.5572569129339
 20
69.12997959353487
 10
107.6863879716952
 20
68.87689011563403
 10
107.8459603210864
 20
68.65317657210028
 10
108.0346349573692
 20
68.46360587972629
 10
108.2500792090302
 20
68.31205106423769
 10
108.4890516551398
 20
68.20124827694423
 10
108.74756200869
 20
68.13263659506052
 10
109.0210897952565
 20
68.10629965851301
 10
109.3048372419298
 20
68.12101362015864
 10
109.5939877547183
 20
68.17439077531566
 10
109.8839430525717
 20
68.26309590475184
 10
110.1705178066587
 20
68.38310536835633
 10
110.4500792090302
 20
68.52997788480721
 10
110.7296406114018
 20
68.70591507018482
 10
111.0162153654888
 20
68.91681362941048
 10
111.3061706633422
 20
69.16292003851149
 10
111.5953211761307
 20
69.44342513614396
 10
111.879068622804
 20
69.7563545039358
 10
112.1525964093705
 20
70.09853412289335
 10
112.4111067629207
 20
70.46564784919812
 10
112.6500792090302
 20
70.85239224867203
 10
112.8655234606913
 20
71.25272065754432
 10
113.054198096974
 20
71.66015405401254
 10
113.2137704463653
 20
72.0681258752988
 10
113.3429015051266
 20
72.47032305627283
 10
113.4412507891731
 20
72.86098729468119
 10
113.509407542562
 20
73.23514915313463
 10
113.5487636754295
 20
73.58877944987005
 10
113.5613490462511
 20
73.91885531893021
 10
113.5487636754295
 20
74.23439885352705
 10
113.509407542562
 20
74.54258460245188
 10
113.4412507891731
 20
74.83804582107288
 10
113.3429015051265
 20
75.11514608824352
 10
113.2137704463653
 20
75.36823556614441
 10
113.054198096974
 20
75.59194910967815
 10
112.8655234645621
 20
75.78151979878162
 10
112.6500792090303
 20
75.93307461754075
 10
112.411106758153
 20
76.04387740655116
 10
112.1525964093705
 20
76.11248908671793
 10
111.879068622804
 20
76.13882602326544
 10
111.5953211761307
 20
76.12411206161983
 10
111.3061706633422
 20
76.07073490646279
 10
111.0162153654888
 20
75.9820297770266
 10
110.7296406114018
 20
75.86202031342211
 10
110.4500792090302
 20
75.71514779697122
 10
110.1705178066587
 20
75.53921061159362
 10
109.8839430525717
 20
75.32831205236798
 10
109.5939877547183
 20
75.08220564326695
 10
109.3048372419298
 20
74.80170054563447
 10
109.0210897952565
 20
74.48877117784264
 10
108.74756200869
 20
74.14659155888509
 10
108.4890516599075
 20
73.77947783980262
 10
108.2500792090302
 20
73.39273343310637
  0
LWPOLYLINE
  5
6C
100
AcDbEntity
  8
0
  6
ByLayer
 62
  256
370
   -1
100
AcDbPolyline
 90
   65
 70
    0
 43
0
 10
110.7296406114018
 20
55.12300715785787
 10
110.4500792090302
 20
54.97613464140696
 10
110.1705178066587
 20
54.80019745602937
 10
109.8839430525717
 20
54.58929889680371
 10
109.5939877547183
 20
54.34319248770269
 10
109.3048372419298
 20
54.06268739007022
 10
109.0210897952565
 20
53.74975802227839
 10
108.74756200869
 20
53.40757840332085
 10
108.4890516599075
 20
53.04046468423837
 10
108.2500792090302
 20
52.65372027754215
 10
108.0346349534984
 20
52.25339186092968
 10
107.8459603210864
 20
51.84595847220164
 10
107.6863879716952
 20
51.43798665091536
 10
107.5572569129339
 20
51.03578946994135
 10
107.4589076288874
 20
50.64512523153301
 10
107.3907508754985
 20
50.27096337307958
 10
107.351394742631
 20
49.91733307634416
 10
107.3388093718094
 20
49.58725720728395
 10
107.351394742631
 20
49.27171367268717
 10
107.3907508754985
 20
48.96352792376231
 10
107.4589076288874
 20
48.6680667051413
 10
107.5572569129339
 20
48.39096643797066
 10
107.6863879716952
 20
48.13787696006978
 10
107.8459603210865
 20
47.91416341653601
 10
108.0346349573692
 20
47.72459272416204
 10
108.2500792090302
 20
47.57303790867345
 10
108.4890516599075
 20
47.46223511966299
 10
108.74756200869
 20
47.39362343949629
 10
109.0210897952565
 20
47.36728650294874
 10
109.3048372419298
 20
47.38200046459437
 10
109.5939877547183
 20
47.43537761975139
 10
109.8839430525717
 20
47.52408274918758
 10
110.1705178066587
 20
47.64409221279207
 10
110.4500792090302
 20
47.79096472924298
 10
110.7296406114018
 20
47.96690191462058
 10
111.0162153654888
 20
48.17780047384623
 10
111.3061706633422
 20
48.42390688294726
 10
111.5953211761307
 20
48.70441198057971
 10
111.879068622804
 20
49.01734134837154
 10
112.1525964093705
 20
49.35952096732909
 10
112.411106758153
 20
49.72663468641156
 10
112.6500792090303
 20
50.11337909310781
 10
112.8655234645621
 20
50.51370750972028
 10
113.054198096974
 20
50.92114089844831
 10
113.2137704463653
 20
51.32911271973458
 10
113.3429015051266
 20
51.73130990070858
 10
113.4412507891731
 20
52.12197413911693
 10
113.509407542562
 20
52.49613599757036
 10
113.5487636754295
 20
52.84976629430579
 10
113.5613490462511
 20
53.17984216336596
 10
113.5487636754295
 20
53.4953856979628
 10
113.509407542562
 20
53.80357144688762
 10
113.4412507891731
 20
54.09903266550864
 10
113.3429015051265
 20
54.37613293267927
 10
113.2137704463653
 20
54.62922241058017
 10
113.054198096974
 20
54.8529359541139
 10
112.8655234645621
 20
55.04250664321736
 10
112.6500792090303
 20
55.19406146197649
 10
112.411106758153
 20
55.30486425098692
 10
112.1525964093705
 20
55.37347593115366
 10
111.879068622804
 20
55.39981286770117
 10
111.5953211761307
 20
55.38509890605557
 10
111.3061706633422
 20
55.33172175089854
 10
111.0162153654888
 20
55.24301662146235
 10
110.7296406114018
 20
55.12300715785787
  0
LWPOLYLINE
  5
6D
100
AcDbEntity
  8
0
  6
ByLayer
 62
  256
370
   -1
100
AcDbPolyline
 90
   65
 70
    0
 43
0
 10
111.0162153654888
 20
65.61252319924446
 10
110.7296406114018
 20
65.49251373563997
 10
110.4500792090302
 20
65.3456412191891
 10
110.1705178066587
 20
65.16970403381148
 10
109.8839430525717
 20
64.95880547458577
 10
109.5939877547183
 20
64.71269906548477
 10
109.3048372419298
 20
64.43219396785233
 10
109.0210897952565
 20
64.1192646000605
 10
108.74756200869
 20
63.77708498110294
 10
108.4890516551397
 20
63.40997125479818
 10
108.2500792090302
 20
63.02322685532429
 10
108.0346349573692
 20
62.62289844645194
 10
107.8459603210864
 20
62.21546504998375
 10
107.6863879716952
 20
61.80749322869749
 10
107.5572569129339
 20
61.40529604772348
 10
107.4589076288874
 20
61.01463180931515
 10
107.3907508754985
 20
60.64046995086171
 10
107.3513947429636
 20
60.28683965857581
 10
107.3388093718094
 20
59.9567637850661
 10
107.351394742631
 20
59.64122025046917
 10
107.3907508754985
 20
59.33303450154443
 10
107.4589076288874
 20
59.0375732829234
 10
107.5572569129339
 20
58.76047301575279
 10
107.6863879716952
 20
58.50738353785189
 10
107.8459603210865
 20
58.28366999431816
 10
108.0346349534984
 20
58.0940993052147
 10
108.2500792090302
 20
57.94254448645556
 10
108.4890516599075
 20
57.83174169744514
 10
108.74756200869
 20
57.7631300172784
 10
109.0210897952565
 20
57.73679308073088
 10
109.3048372419298
 20
57.75150704237647
 10
109.5939877547183
 20
57.80488419753354
 10
109.8839430525717
 20
57.89358932696973
 10
110.1705178066587
 20
58.01359879057419
 10
110.4500792090302
 20
58.1604713070251
 10
110.7296406114018
 20
58.33640849240268
 10
111.0162153654888
 20
58.54730705162837
 10
111.3061706633422
 20
58.79341346072938
 10
111.5953211761307
 20
59.07391855836184
 10
111.879068622804
 20
59.38684792615369
 10
112.1525964093705
 20
59.72902754511119
 10
112.4111067629207
 20
60.09614127141597
 10
112.6500792090302
 20
60.48288567088991
 10
112.8655234645621
 20
60.88321408750238
 10
113.054198096974
 20
61.29064747623043
 10
113.2137704463653
 20
61.6986192975167
 10
113.3429015051266
 20
62.10081647849071
 10
113.4412507891731
 20
62.49148071689903
 10
113.509407542562
 20
62.86564257535248
 10
113.5487636754295
 20
63.21927287208794
 10
113.5613490462511
 20
63.54934874114809
 10
113.5487636754295
 20
63.86489227574492
 10
113.509407542562
 20
64.17307802466973
 10
113.4412507891731
 20
64.46853924329076
 10
113.3429015051266
 20
64.74563951046142
 10
113.2137704463653
 20
64.9987289883623
 10
113.054198096974
 20
65.22244253189604
 10
112.8655234645621
 20
65.41201322099948
 10
112.6500792090303
 20
65.56356803975861
 10
112.411106758153
 20
65.67437082876906
 10
112.1525964093705
 20
65.74298250893578
 10
111.879068622804
 20
65.76931944548329
 10
111.5953211761307
 20
65.75460548383768
 10
111.3061706633422
 20
65.70122832868066
 10
111.0162153654888
 20
65.61252319924446
  0
LINE
  5
6E
100
AcDbEntity
  8
0
  6
ByLayer
 62
  256
370
   -1
100
AcDbLine
 10
76.22611099960129
 20
123.0719494907793
 11
76.22611099960129
 21
37.01320986099702
  0
LINE
  5
6F
100
AcDbEntity
  8
0
  6
ByLayer
 62
  256
370
   -1
100
AcDbLine
 10
89.7318505202644
 20
110.1304786830749
 11
94.18662324173965
 21
112.7024429129972
  0
LINE
  5
70
100
AcDbEntity
  8
0
  6
ByLayer
 62
  256
370
   -1
100
AcDbLine
 10
101.7526658004357
 20
82.85949288008881
 11
101.7526658004357
 21
103.1902577451892
  0
LINE
  5
71
100
AcDbEntity
  8
0
  6
ByLayer
 62
  256
370
   -1
100
AcDbLine
 10
113.5698441658187
 20
87.73265925740279
 11
111.6953351164409
 21
88.81490756165945
  0
LINE
  5
72
100
AcDbEntity
  8
0
  6
ByLayer
 62
  256
370
   -1
100
AcDbLine
 10
101.7526658004357
 20
62.12047972452456
 11
101.7526658004357
 21
82.45124458962495
  0
LINE
  5
73
100
AcDbEntity
  8
0
  6
ByLayer
 62
  256
370
   -1
100
AcDbLine
 10
145.6639969121203
 20
97.84220513876969
 11
155.8463345666986
 21
103.7209805259631
  0
LINE
  5
74
100
AcDbEntity
  8
0
  6
ByLayer
 62
  256
370
   -1
100
AcDbLine
 10
176.7766953168988
 20
-102.0620726043492
 11
176.7766953168988
 21
-69.09052082605078
  0
LINE
  5
75
100
AcDbEntity
  8
0
  6
ByLayer
 62
  256
370
   -1
100
AcDbLine
 10
66.0437733504444
 20
31.13443447827657
 11
78.7716954118729
 21
23.78596524996786
  0
LINE
  5
76
100
AcDbEntity
  8
0
  6
ByLayer
 62
  256
370
   -1
100
AcDbLine
 10
186.5347688647028
 20
80.81825142776954
 11
78.7716954118729
 21
18.60121196107682
  0
LINE
  5
77
100
AcDbEntity
  8
0
  6
ByLayer
 62
  256
370
   -1
100
AcDbLine
 10
111.6953351164409
 20
68.07589440609522
 11
113.5698441658187
 21
66.99364610183854
  0
ENDSEC
  0
SECTION
  2
OBJECTS
  0
DICTIONARY
  5
C
330
0
100
AcDbDictionary
281
    1
  3
ACAD_GROUP
350
D
  0
DICTIONARY
  5
D
330
C
100
AcDbDictionary
281
    1
  0
ENDSEC
  0
EOF
