999
dxfrw 0.6.3
  0
SECTION
  2
HEADER
  9
$ACADVER
  1
AC1021
  9
$DWGCODEPAGE
  3
ANSI_1252
  9
$INSBASE
 10
0
 20
0
 30
0
  9
$EXTMIN
 10
10000000000
 20
10000000000
 30
0
  9
$EXTMAX
 10
-10000000000
 20
-10000000000
 30
0
  9
$LIMMIN
 10
0
 20
0
  9
$LIMMAX
 10
420
 20
297
  9
$ORTHOMODE
 70
    0
  9
$REGENMODE
 70
    1
  9
$FILLMODE
 70
    1
  9
$QTEXTMODE
 70
    0
  9
$MIRRTEXT
 70
    0
  9
$LTSCALE
 40
1
  9
$ATTMODE
 70
    0
  9
$TEXTSIZE
 40
2.5
  9
$TRACEWID
 40
15.68
  9
$TEXTSTYLE
  7
STANDARD
  9
$CLAYER
  8
0
  9
$CELTYPE
  6
BYLAYER
  9
$CECOLOR
 62
  256
  9
$CELTSCALE
 40
1
  9
$DISPSILH
 70
    0
  9
$DIMSCALE
 40
1
  9
$DIMASZ
 40
2.5
  9
$DIMEXO
 40
0.625
  9
$DIMDLI
 40
3.75
  9
$DIMRND
 40
0
  9
$DIMDLE
 40
0
  9
$DIMEXE
 40
1.25
  9
$DIMTP
 40
0
  9
$DIMTM
 40
0
  9
$DIMTXT
 40
2.5
  9
$DIMCEN
 40
2.5
  9
$DIMTSZ
 40
0
  9
$DIMTOL
 70
    0
  9
$DIMLIM
 70
    0
  9
$DIMTIH
 70
    0
  9
$DIMTOH
 70
    0
  9
$DIMSE1
 70
    0
  9
$DIMSE2
 70
    0
  9
$DIMTAD
 70
    1
  9
$DIMZIN
 70
    8
  9
$DIMBLK
  1

  9
$DIMASO
 70
    1
  9
$DIMSHO
 70
    1
  9
$DIMPOST
  1

  9
$DIMAPOST
  1

  9
$DIMALT
 70
    0
  9
$DIMALTD
 70
    3
  9
$DIMALTF
 40
0.03937
  9
$DIMLFAC
 40
1
  9
$DIMTOFL
 70
    1
  9
$DIMTVP
 40
0
  9
$DIMTIX
 70
    0
  9
$DIMSOXD
 70
    0
  9
$DIMSAH
 70
    0
  9
$DIMBLK1
  1

  9
$DIMBLK2
  1

  9
$DIMSTYLE
  2
STANDARD
  9
$DIMCLRD
 70
    0
  9
$DIMCLRE
 70
    0
  9
$DIMCLRT
 70
    0
  9
$DIMTFAC
 40
1
  9
$DIMGAP
 40
0.625
  9
$DIMJUST
 70
    0
  9
$DIMSD1
 70
    0
  9
$DIMSD2
 70
    0
  9
$DIMTOLJ
 70
    0
  9
$DIMTZIN
 70
    8
  9
$DIMALTZ
 70
    0
  9
$DIMALTTZ
 70
    0
  9
$DIMUPT
 70
    0
  9
$DIMDEC
 70
    2
  9
$DIMTDEC
 70
    2
  9
$DIMALTU
 70
    2
  9
$DIMALTTD
 70
    3
  9
$DIMTXSTY
  7
STANDARD
  9
$DIMAUNIT
 70
    0
  9
$DIMADEC
 70
    0
  9
$DIMALTRND
 40
0
  9
$DIMAZIN
 70
    0
  9
$DIMDSEP
 70
   44
  9
$DIMATFIT
 70
    3
  9
$DIMFRAC
 70
    0
  9
$DIMLDRBLK
  1
STANDARD
  9
$DIMLUNIT
 70
    2
  9
$DIMLWD
 70
   -2
  9
$DIMLWE
 70
   -2
  9
$DIMTMOVE
 70
    0
  9
$DIMFXL
 40
1
  9
$DIMFXLON
 70
    0
  9
$DIMJOGANG
 40
0.7854
  9
$DIMTFILL
 70
    0
  9
$DIMTFILLCLR
 70
    0
  9
$DIMARCSYM
 70
    0
  9
$DIMLTYPE
  6

  9
$DIMLTEX1
  6

  9
$DIMLTEX2
  6

  9
$LUNITS
 70
    2
  9
$LUPREC
 70
    4
  9
$SKETCHINC
 40
1
  9
$FILLETRAD
 40
0
  9
$AUNITS
 70
    0
  9
$AUPREC
 70
    2
  9
$MENU
  1
.
  9
$ELEVATION
 40
0
  9
$PELEVATION
 40
0
  9
$THICKNESS
 40
0
  9
$LIMCHECK
 70
    0
  9
$CHAMFERA
 40
0
  9
$CHAMFERB
 40
0
  9
$CHAMFERC
 40
0
  9
$CHAMFERD
 40
0
  9
$SKPOLY
 70
    0
  9
$USRTIMER
 70
    1
  9
$ANGBASE
 50
0
  9
$ANGDIR
 70
    0
  9
$PDMODE
 70
   34
  9
$PDSIZE
 40
0
  9
$PLINEWID
 40
0
  9
$SPLFRAME
 70
    0
  9
$SPLINETYPE
 70
    2
  9
$SPLINESEGS
 70
    8
  9
$HANDSEED
  5
20000
  9
$SURFTAB1
 70
    6
  9
$SURFTAB2
 70
    6
  9
$SURFTYPE
 70
    6
  9
$SURFU
 70
    6
  9
$SURFV
 70
    6
  9
$UCSBASE
  2

  9
$UCSNAME
  2

  9
$UCSORG
 10
0
 20
0
 30
0
  9
$UCSXDIR
 10
1
 20
0
 30
0
  9
$UCSYDIR
 10
0
 20
1
 30
0
  9
$UCSORTHOREF
  2

  9
$UCSORTHOVIEW
 70
    0
  9
$UCSORGTOP
 10
0
 20
0
 30
0
  9
$UCSORGBOTTOM
 10
0
 20
0
 30
0
  9
$UCSORGLEFT
 10
0
 20
0
 30
0
  9
$UCSORGRIGHT
 10
0
 20
0
 30
0
  9
$UCSORGFRONT
 10
0
 20
0
 30
0
  9
$UCSORGBACK
 10
0
 20
0
 30
0
  9
$PUCSBASE
  2

  9
$PUCSNAME
  2

  9
$PUCSORG
 10
0
 20
0
 30
0
  9
$PUCSXDIR
 10
1
 20
0
 30
0
  9
$PUCSYDIR
 10
0
 20
1
 30
0
  9
$PUCSORTHOREF
  2

  9
$PUCSORTHOVIEW
 70
    0
  9
$PUCSORGTOP
 10
0
 20
0
 30
0
  9
$PUCSORGBOTTOM
 10
0
 20
0
 30
0
  9
$PUCSORGLEFT
 10
0
 20
0
 30
0
  9
$PUCSORGRIGHT
 10
0
 20
0
 30
0
  9
$PUCSORGFRONT
 10
0
 20
0
 30
0
  9
$PUCSORGBACK
 10
0
 20
0
 30
0
  9
$USERI1
 70
    0
  9
$USERI2
 70
    0
  9
$USERI3
 70
    0
  9
$USERI4
 70
    0
  9
$USERI5
 70
    0
  9
$USERR1
 40
0
  9
$USERR2
 40
0
  9
$USERR3
 40
0
  9
$USERR4
 40
0
  9
$USERR5
 40
0
  9
$WORLDVIEW
 70
    1
  9
$SHADEDGE
 70
    3
  9
$SHADEDIF
 70
   70
  9
$TILEMODE
 70
    1
  9
$MAXACTVP
 70
   64
  9
$PINSBASE
 10
0
 20
0
 30
0
  9
$PLIMCHECK
 70
    0
  9
$PEXTMIN
 10
0
 20
0
 30
0
  9
$PEXTMAX
 10
0
 20
0
 30
0
  9
$GRIDMODE
 70
    0
  9
$SNAPSTYLE
 70
    0
  9
$PLIMMIN
 10
0
 20
0
  9
$PLIMMAX
 10
297
 20
210
  9
$UNITMODE
 70
    0
  9
$VISRETAIN
 70
    1
  9
$PLINEGEN
 70
    0
  9
$PSLTSCALE
 70
    1
  9
$TREEDEPTH
 70
 3020
  9
$CMLSTYLE
  2
Standard
  9
$CMLJUST
 70
    0
  9
$CMLSCALE
 40
20
  9
$PROXYGRAPHICS
 70
    1
  9
$MEASUREMENT
 70
    1
  9
$CELWEIGHT
370
   -1
  9
$ENDCAPS
280
    0
  9
$JOINSTYLE
280
    0
  9
$LWDISPLAY
290
    0
  9
$INSUNITS
 70
    0
  9
$HYPERLINKBASE
  1

  9
$STYLESHEET
  1

  9
$XEDIT
290
    1
  9
$CEPSNTYPE
380
    0
  9
$PSTYLEMODE
290
    1
  9
$EXTNAMES
290
    1
  9
$PSVPSCALE
 40
0
  9
$OLESTARTUP
290
    0
  9
$SORTENTS
280
  127
  9
$INDEXCTL
280
    0
  9
$HIDETEXT
280
    1
  9
$XCLIPFRAME
290
    0
  9
$HALOGAP
280
    0
  9
$OBSCOLOR
 70
  257
  9
$OBSLTYPE
280
    0
  9
$INTERSECTIONDISPLAY
280
    0
  9
$INTERSECTIONCOLOR
 70
  257
  9
$DIMASSOC
280
    1
  9
$PROJECTNAME
  1

  9
$CAMERADISPLAY
290
    0
  9
$LENSLENGTH
 40
50
  9
$CAMERAHEIGHT
 40
0
  9
$STEPSPERSEC
 40
2
  9
$STEPSIZE
 40
50
  9
$3DDWFPREC
 40
2
  9
$PSOLWIDTH
 40
5
  9
$PSOLHEIGHT
 40
80
  9
$LOFTANG1
 40
1.570796326794897
  9
$LOFTANG2
 40
1.570796326794897
  9
$LOFTMAG1
 40
0
  9
$LOFTMAG2
 40
0
  9
$LOFTPARAM
 70
    7
  9
$LOFTNORMALS
280
    1
  9
$LATITUDE
 40
1
  9
$LONGITUDE
 40
1
  9
$NORTHDIRECTION
 40
0
  9
$TIMEZONE
 70
-8000
  9
$LIGHTGLYPHDISPLAY
280
    1
  9
$TILEMODELIGHTSYNCH
280
    1
  9
$SOLIDHIST
280
    1
  9
$SHOWHIST
280
    1
  9
$DWFFRAME
280
    2
  9
$DGNFRAME
280
    0
  9
$REALWORLDSCALE
290
    1
  9
$INTERFERECOLOR
 62
    1
  9
$CSHADOW
280
    0
  9
$SHADOWPLANELOCATION
 40
0
  0
ENDSEC
  0
SECTION
  2
CLASSES
  0
ENDSEC
  0
SECTION
  2
TABLES
  0
TABLE
  2
VPORT
  5
8
330
0
100
AcDbSymbolTable
 70
    1
  0
VPORT
  5
31
330
2
100
AcDbSymbolTableRecord
100
AcDbViewportTableRecord
  2
*ACTIVE
 70
    0
 10
0
 20
0
 11
1
 21
1
 12
165.6205026246268
 22
71.39229213282172
 13
0
 23
0
 14
10
 24
10
 15
10
 25
10
 16
0
 26
0
 36
1
 17
0
 27
0
 37
0
 40
237.9743071094057
 41
1.844444444444445
 42
50
 43
0
 44
0
 50
0
 51
0
 71
    0
 72
  100
 73
    1
 74
    3
 75
    0
 76
    0
 77
    0
 78
    0
281
    0
 65
    1
110
0
120
0
130
0
111
1
121
0
131
0
112
0
122
1
132
0
 79
    0
146
0
348
10020
 60
    7
 61
    5
292
1
282
    1
141
0
142
0
 63
  250
421
3358443
  0
ENDTAB
  0
TABLE
  2
LTYPE
  5
5
330
0
100
AcDbSymbolTable
 70
    4
  0
LTYPE
  5
14
330
5
100
AcDbSymbolTableRecord
100
AcDbLinetypeTableRecord
  2
ByBlock
 70
    0
  3

 72
   65
 73
    0
 40
0
  0
LTYPE
  5
15
330
5
100
AcDbSymbolTableRecord
100
AcDbLinetypeTableRecord
  2
ByLayer
 70
    0
  3

 72
   65
 73
    0
 40
0
  0
LTYPE
  5
16
330
5
100
AcDbSymbolTableRecord
100
AcDbLinetypeTableRecord
  2
Continuous
 70
    0
  3
Solid line
 72
   65
 73
    0
 40
0
  0
LTYPE
  5
32
330
5
100
AcDbSymbolTableRecord
100
AcDbLinetypeTableRecord
  2
DOT
 70
    0
  3
Dot . . . . . . . . . . . . . . . . . . . . . .
 72
   65
 73
    2
 40
6.35
 49
0
 74
    0
 49
-6.35
 74
    0
  0
LTYPE
  5
33
330
5
100
AcDbSymbolTableRecord
100
AcDbLinetypeTableRecord
  2
DOTTINY
 70
    0
  3
Dot (.15x) .....................................
 72
   65
 73
    2
 40
0.9525
 49
0
 74
    0
 49
-0.9525
 74
    0
  0
LTYPE
  5
34
330
5
100
AcDbSymbolTableRecord
100
AcDbLinetypeTableRecord
  2
DOT2
 70
    0
  3
Dot (.5x) .....................................
 72
   65
 73
    2
 40
3.175
 49
0
 74
    0
 49
-3.175
 74
    0
  0
LTYPE
  5
35
330
5
100
AcDbSymbolTableRecord
100
AcDbLinetypeTableRecord
  2
DOTX2
 70
    0
  3
Dot (2x) .  .  .  .  .  .  .  .  .  .  .  .  .
 72
   65
 73
    2
 40
12.7
 49
0
 74
    0
 49
-12.7
 74
    0
  0
LTYPE
  5
36
330
5
100
AcDbSymbolTableRecord
100
AcDbLinetypeTableRecord
  2
DASHED
 70
    0
  3
Dashed _ _ _ _ _ _ _ _ _ _ _ _ _ _ _ _ _
 72
   65
 73
    2
 40
19.05
 49
12.7
 74
    0
 49
-6.35
 74
    0
  0
LTYPE
  5
37
330
5
100
AcDbSymbolTableRecord
100
AcDbLinetypeTableRecord
  2
DASHEDTINY
 70
    0
  3
Dashed (.15x) _ _ _ _ _ _ _ _ _ _ _ _ _ _ _ _ _
 72
   65
 73
    2
 40
2.8575
 49
1.905
 74
    0
 49
-0.9525
 74
    0
  0
LTYPE
  5
38
330
5
100
AcDbSymbolTableRecord
100
AcDbLinetypeTableRecord
  2
DASHED2
 70
    0
  3
Dashed (.5x) _ _ _ _ _ _ _ _ _ _ _ _ _ _ _ _ _
 72
   65
 73
    2
 40
9.524999999999999
 49
6.35
 74
    0
 49
-3.175
 74
    0
  0
LTYPE
  5
39
330
5
100
AcDbSymbolTableRecord
100
AcDbLinetypeTableRecord
  2
DASHEDX2
 70
    0
  3
Dashed (2x) ____  ____  ____  ____  ____  ___
 72
   65
 73
    2
 40
38.09999999999999
 49
25.4
 74
    0
 49
-12.7
 74
    0
  0
LTYPE
  5
3A
330
5
100
AcDbSymbolTableRecord
100
AcDbLinetypeTableRecord
  2
DASHDOT
 70
    0
  3
Dash dot __ . __ . __ . __ . __ . __ . __ . __
 72
   65
 73
    4
 40
25.4
 49
12.7
 74
    0
 49
-6.35
 74
    0
 49
0
 74
    0
 49
-6.35
 74
    0
  0
LTYPE
  5
3B
330
5
100
AcDbSymbolTableRecord
100
AcDbLinetypeTableRecord
  2
DASHDOTTINY
 70
    0
  3
Dash dot (.15x) _._._._._._._._._._._._._._._.
 72
   65
 73
    4
 40
3.81
 49
1.905
 74
    0
 49
-0.9525
 74
    0
 49
0
 74
    0
 49
-0.9525
 74
    0
  0
LTYPE
  5
3C
330
5
100
AcDbSymbolTableRecord
100
AcDbLinetypeTableRecord
  2
DASHDOT2
 70
    0
  3
Dash dot (.5x) _._._._._._._._._._._._._._._.
 72
   65
 73
    4
 40
12.7
 49
6.35
 74
    0
 49
-3.175
 74
    0
 49
0
 74
    0
 49
-3.175
 74
    0
  0
LTYPE
  5
3D
330
5
100
AcDbSymbolTableRecord
100
AcDbLinetypeTableRecord
  2
DASHDOTX2
 70
    0
  3
Dash dot (2x) ____  .  ____  .  ____  .  ___
 72
   65
 73
    4
 40
50.8
 49
25.4
 74
    0
 49
-12.7
 74
    0
 49
0
 74
    0
 49
-12.7
 74
    0
  0
LTYPE
  5
3E
330
5
100
AcDbSymbolTableRecord
100
AcDbLinetypeTableRecord
  2
DIVIDE
 70
    0
  3
Divide ____ . . ____ . . ____ . . ____ . . ____
 72
   65
 73
    6
 40
31.75
 49
12.7
 74
    0
 49
-6.35
 74
    0
 49
0
 74
    0
 49
-6.35
 74
    0
 49
0
 74
    0
 49
-6.35
 74
    0
  0
LTYPE
  5
3F
330
5
100
AcDbSymbolTableRecord
100
AcDbLinetypeTableRecord
  2
DIVIDETINY
 70
    0
  3
Divide (.15x) __..__..__..__..__..__..__..__.._
 72
   65
 73
    6
 40
4.7625
 49
1.905
 74
    0
 49
-0.9525
 74
    0
 49
0
 74
    0
 49
-0.9525
 74
    0
 49
0
 74
    0
 49
-0.9525
 74
    0
  0
LTYPE
  5
40
330
5
100
AcDbSymbolTableRecord
100
AcDbLinetypeTableRecord
  2
DIVIDE2
 70
    0
  3
Divide (.5x) __..__..__..__..__..__..__..__.._
 72
   65
 73
    6
 40
15.875
 49
6.35
 74
    0
 49
-3.175
 74
    0
 49
0
 74
    0
 49
-3.175
 74
    0
 49
0
 74
    0
 49
-3.175
 74
    0
  0
LTYPE
  5
41
330
5
100
AcDbSymbolTableRecord
100
AcDbLinetypeTableRecord
  2
DIVIDEX2
 70
    0
  3
Divide (2x) ________  .  .  ________  .  .  _
 72
   65
 73
    6
 40
63.5
 49
25.4
 74
    0
 49
-12.7
 74
    0
 49
0
 74
    0
 49
-12.7
 74
    0
 49
0
 74
    0
 49
-12.7
 74
    0
  0
LTYPE
  5
42
330
5
100
AcDbSymbolTableRecord
100
AcDbLinetypeTableRecord
  2
BORDER
 70
    0
  3
Border __ __ . __ __ . __ __ . __ __ . __ __ .
 72
   65
 73
    6
 40
44.45
 49
12.7
 74
    0
 49
-6.35
 74
    0
 49
12.7
 74
    0
 49
-6.35
 74
    0
 49
0
 74
    0
 49
-6.35
 74
    0
  0
LTYPE
  5
43
330
5
100
AcDbSymbolTableRecord
100
AcDbLinetypeTableRecord
  2
BORDERTINY
 70
    0
  3
Border (.15x) __.__.__.__.__.__.__.__.__.__.__.
 72
   65
 73
    6
 40
6.6675
 49
1.905
 74
    0
 49
-0.9525
 74
    0
 49
1.905
 74
    0
 49
-0.9525
 74
    0
 49
0
 74
    0
 49
-0.9525
 74
    0
  0
LTYPE
  5
44
330
5
100
AcDbSymbolTableRecord
100
AcDbLinetypeTableRecord
  2
BORDER2
 70
    0
  3
Border (.5x) __.__.__.__.__.__.__.__.__.__.__.
 72
   65
 73
    6
 40
22.225
 49
6.35
 74
    0
 49
-3.175
 74
    0
 49
6.35
 74
    0
 49
-3.175
 74
    0
 49
0
 74
    0
 49
-3.175
 74
    0
  0
LTYPE
  5
45
330
5
100
AcDbSymbolTableRecord
100
AcDbLinetypeTableRecord
  2
BORDERX2
 70
    0
  3
Border (2x) ____  ____  .  ____  ____  .  ___
 72
   65
 73
    6
 40
88.89999999999999
 49
25.4
 74
    0
 49
-12.7
 74
    0
 49
25.4
 74
    0
 49
-12.7
 74
    0
 49
0
 74
    0
 49
-12.7
 74
    0
  0
LTYPE
  5
46
330
5
100
AcDbSymbolTableRecord
100
AcDbLinetypeTableRecord
  2
CENTER
 70
    0
  3
Center ____ _ ____ _ ____ _ ____ _ ____ _ ____
 72
   65
 73
    4
 40
50.8
 49
31.75
 74
    0
 49
-6.35
 74
    0
 49
6.35
 74
    0
 49
-6.35
 74
    0
  0
LTYPE
  5
47
330
5
100
AcDbSymbolTableRecord
100
AcDbLinetypeTableRecord
  2
CENTERTINY
 70
    0
  3
Center (.15x) ___ _ ___ _ ___ _ ___ _ ___ _ ___
 72
   65
 73
    4
 40
7.619999999999999
 49
4.7625
 74
    0
 49
-0.9525
 74
    0
 49
0.9525
 74
    0
 49
-0.9525
 74
    0
  0
LTYPE
  5
48
330
5
100
AcDbSymbolTableRecord
100
AcDbLinetypeTableRecord
  2
CENTER2
 70
    0
  3
Center (.5x) ___ _ ___ _ ___ _ ___ _ ___ _ ___
 72
   65
 73
    4
 40
28.575
 49
19.05
 74
    0
 49
-3.175
 74
    0
 49
3.175
 74
    0
 49
-3.175
 74
    0
  0
LTYPE
  5
49
330
5
100
AcDbSymbolTableRecord
100
AcDbLinetypeTableRecord
  2
CENTERX2
 70
    0
  3
Center (2x) ________  __  ________  __  _____
 72
   65
 73
    4
 40
101.6
 49
63.5
 74
    0
 49
-12.7
 74
    0
 49
12.7
 74
    0
 49
-12.7
 74
    0
  0
ENDTAB
  0
TABLE
  2
LAYER
  5
2
330
0
100
AcDbSymbolTable
 70
    1
  0
LAYER
  5
10
330
2
100
AcDbSymbolTableRecord
100
AcDbLayerTableRecord
  2
0
 70
    0
 62
    7
  6
CONTINUOUS
370
   -3
390
F
  0
ENDTAB
  0
TABLE
  2
STYLE
  5
3
330
0
100
AcDbSymbolTable
 70
    3
  0
STYLE
  5
4A
330
2
100
AcDbSymbolTableRecord
100
AcDbTextStyleTableRecord
  2
Standard
 70
    0
 40
0
 41
1
 50
0
 71
    0
 42
1
  3
txt
  4

  0
ENDTAB
  0
TABLE
  2
VIEW
  5
6
330
0
100
AcDbSymbolTable
 70
    0
  0
ENDTAB
  0
TABLE
  2
UCS
  5
7
330
0
100
AcDbSymbolTable
 70
    0
  0
ENDTAB
  0
TABLE
  2
APPID
  5
9
330
0
100
AcDbSymbolTable
 70
    1
  0
APPID
  5
12
330
9
100
AcDbSymbolTableRecord
100
AcDbRegAppTableRecord
  2
ACAD
 70
    0
  0
APPID
  5
4B
330
9
100
AcDbSymbolTableRecord
100
AcDbRegAppTableRecord
  2
LibreCad
 70
    0
  0
ENDTAB
  0
TABLE
  2
DIMSTYLE
  5
A
330
0
100
AcDbSymbolTable
 70
    1
100
AcDbDimStyleTable
 71
    1
  0
DIMSTYLE
105
4C
330
A
100
AcDbSymbolTableRecord
100
AcDbDimStyleTableRecord
  2
Standard
 70
    0
 40
1
 41
2.5
 42
0.625
 43
0.38
 44
1.25
 45
0
 46
0
 47
0
 48
0
 49
1
140
2.5
141
0.09
142
0
143
25.4
144
1
145
0
146
1
147
0.625
148
0
 71
    0
 72
    0
 73
    0
 74
    1
 75
    0
 76
    0
 77
    0
 78
    8
 79
    0
170
    0
171
    2
172
    0
173
    0
174
    0
175
    0
176
    0
177
    0
178
    0
179
    0
271
    2
272
    4
273
    2
274
    2
275
    0
276
    0
277
    2
278
   44
279
    0
280
    0
281
    0
282
    0
283
    1
284
    0
285
    0
286
    0
288
    0
289
    3
340
STANDARD
341

371
   -2
372
   -2
  0
ENDTAB
  0
TABLE
  2
BLOCK_RECORD
  5
1
330
0
100
AcDbSymbolTable
 70
    2
  0
BLOCK_RECORD
  5
1F
330
1
100
AcDbSymbolTableRecord
100
AcDbBlockTableRecord
  2
*Model_Space
 70
    0
280
    1
281
    0
  0
BLOCK_RECORD
  5
1E
330
1
100
AcDbSymbolTableRecord
100
AcDbBlockTableRecord
  2
*Paper_Space
 70
    0
280
    1
281
    0
  0
ENDTAB
  0
ENDSEC
  0
SECTION
  2
BLOCKS
  0
BLOCK
  5
20
330
1F
100
AcDbEntity
  8
0
100
AcDbBlockBegin
  2
*Model_Space
 70
    0
 10
0
 20
0
 30
0
  3
*Model_Space
  1

  0
ENDBLK
  5
21
330
1F
100
AcDbEntity
  8
0
100
AcDbBlockEnd
  0
BLOCK
  5
1C
330
1B
100
AcDbEntity
  8
0
100
AcDbBlockBegin
  2
*Paper_Space
 70
    0
 10
0
 20
0
 30
0
  3
*Paper_Space
  1

  0
ENDBLK
  5
1D
330
1F
100
AcDbEntity
  8
0
100
AcDbBlockEnd
  0
ENDSEC
  0
SECTION
  2
ENTITIES
  0
LWPOLYLINE
  5
4D
100
AcDbEntity
  8
0
  6
ByLayer
 62
  256
370
   -1
100
AcDbPolyline
 90
    5
 70
    0
 43
0
 10
157.7024898618212
 20
112.3452256588413
 10
144.1967503411582
 20
120.1427680067011
 10
56.19731142249229
 20
69.33626825847335
 10
74.15782366463063
 20
58.96676168069123
 10
108.6292792474748
 20
78.86886584080453
  0
LWPOLYLINE
  5
4E
100
AcDbEntity
  8
0
  6
ByLayer
 62
  256
370
   -1
100
AcDbPolyline
 90
    6
 70
    0
 43
0
 10
56.19731142249229
 20
60.88552863440753
 10
35.35533906336559
 20
48.85241027967415
 10
35.35533906343629
 20
43.66765699074227
 10
0
 20
64.08007151164477
 10
107.763073440592
 20
126.2971109854846
 10
131.3097292567934
 20
112.7024429145908
  0
LWPOLYLINE
  5
4F
100
AcDbEntity
  8
0
  6
ByLayer
 62
  256
370
   -1
100
AcDbPolyline
 90
   14
 70
    0
 43
0
 10
0
 20
64.08007151164477
 10
0
 20
32.9715517782984
 10
0
 20
-9.769962616701378e-15
 10
176.7766953168987
 20
-102.0620726043492
 10
284.5397687574908
 20
-39.84503313050931
 10
284.5397687573493
 20
-6.873481352210894
 10
257.2454470004311
 20
8.884902657894305
 10
257.2454469833574
 20
39.99342238138316
 10
186.5347688647734
 20
80.81825142781032
 10
78.77169541187286
 20
18.60121196107677
 10
78.77169541187284
 20
23.78596524996783
 10
186.5347688647027
 20
86.00300471666054
 10
173.8068468033448
 20
93.35147394501007
 10
171.9363719770215
 20
92.27155480051985
  0
LWPOLYLINE
  5
50
100
AcDbEntity
  8
0
  6
ByLayer
 62
  256
370
   -1
100
AcDbPolyline
 90
    3
 70
    0
 43
0
 10
56.19731143387409
 20
46.18859018260105
 10
48.08326112617719
 20
41.50394105216395
 10
35.35533906336559
 20
48.85241027967415
  0
LWPOLYLINE
  5
51
100
AcDbEntity
  8
0
  6
ByLayer
 62
  256
370
   -1
100
AcDbPolyline
 90
    4
 70
    0
 43
0
 10
48.08326112617719
 20
41.50394105216395
 10
48.08326112617719
 20
5.210668029926532
 10
56.19731143387409
 20
9.895317160363632
 10
66.04377335051498
 20
4.2104597222256
  0
LWPOLYLINE
  5
52
100
AcDbEntity
  8
0
  6
ByLayer
 62
  256
370
   -1
100
AcDbPolyline
 90
    3
 70
    0
 43
0
 10
284.5397687573493
 20
-6.873481352210894
 10
176.7766953168987
 20
-69.09052082605078
 10
48.08326112617719
 20
5.210668029926532
  0
LWPOLYLINE
  5
53
100
AcDbEntity
  8
0
  6
ByLayer
 62
  256
370
   -1
100
AcDbPolyline
 90
   11
 70
    0
 43
0
 10
168.3727951160345
 20
97.73121520617107
 10
168.3214302979195
 20
97.52718324249783
 10
168.2451255813787
 20
97.28952127192228
 10
168.1508328294658
 20
97.04844701388951
 10
168.0393432716623
 20
96.80769091597647
 10
167.9120353047717
 20
96.57113321982466
 10
167.7708243138888
 20
96.34260243831733
 10
167.6180681958818
 20
96.12567160004632
 10
167.4564381401835
 20
95.9234745524805
 10
167.2887691944219
 20
95.73856174423985
 10
167.1377547397544
 20
95.59206252505497
  0
LWPOLYLINE
  5
54
100
AcDbEntity
  8
0
  6
ByLayer
 62
  256
370
   -1
100
AcDbPolyline
 90
    3
 70
    0
 43
0
 10
78.77169541187284
 20
23.78596524996783
 10
66.04377335051498
 20
31.13443447831736
 10
122.8918004140923
 20
63.95565820637285
  0
LWPOLYLINE
  5
55
100
AcDbEntity
  8
0
  6
ByLayer
 62
  256
370
   -1
100
AcDbPolyline
 90
   11
 70
    0
 43
0
 10
159.3925389949653
 20
92.54646191728001
 10
159.3411741768504
 20
92.34242995360677
 10
159.2648694603096
 20
92.10476798303121
 10
159.1705767083966
 20
91.86369372499843
 10
159.0590871505932
 20
91.62293762708539
 10
158.9317791837025
 20
91.38637993093359
 10
158.7905681928196
 20
91.15784914942626
 10
158.6378120748127
 20
90.94091831115524
 10
158.4761820191143
 20
90.73872126358943
 10
158.3085130733528
 20
90.5538084553488
 10
158.1574986186852
 20
90.40730923616388
  0
LWPOLYLINE
  5
56
100
AcDbEntity
  8
0
  6
ByLayer
 62
  256
370
   -1
100
AcDbPolyline
 90
   87
 70
    0
 43
0
 10
144.5503037317514
 20
104.3435591657496
 10
144.5503037317514
 20
104.7518074562135
 10
156.5711190119227
 20
97.81158651832779
 10
156.5711190119227
 20
87.76867857291676
 10
156.5800476703541
 20
87.45353126001555
 10
156.6073579772785
 20
87.14533462189081
 10
156.653682327192
 20
86.84651322253133
 10
156.7194245577534
 20
86.55949610455382
 10
156.8047358989655
 20
86.28666048738636
 10
156.9094981121761
 20
86.03027332584595
 10
157.0333151737972
 20
85.79243347901847
 10
157.1755144388391
 20
85.57501731671805
 10
157.3351575652255
 20
85.37963070295999
 10
157.5110609529827
 20
85.20756976479196
 10
157.7018247452099
 20
85.05979250390504
 10
157.9058689243988
 20
84.93690251896535
 10
158.1214745986458
 20
84.83914533273195
 10
158.3468283143563
 20
84.76641699995112
 10
158.5800671589873
 20
84.71828392390674
 10
158.8193225256294
 20
84.69401219749105
 10
159.0671276245865
 20
84.69277954665621
 10
159.3265177455193
 20
84.71511665716922
 10
159.5962298376275
 20
84.76192142189589
 10
159.8747876874348
 20
84.83380228715662
 10
160.1605226532521
 20
84.93104553423528
 10
160.4516026248528
 20
85.05359158656881
 10
160.7460683615027
 20
85.201022169273
 10
161.0418759135472
 20
85.37255961669385
 10
161.3369431601289
 20
85.56707880616629
 10
161.6291983890571
 20
85.78313149259742
 10
161.9166285127566
 20
86.01898194048151
 10
162.1973245386784
 20
86.27265199068724
 10
162.4695222871175
 20
86.54197325913221
 10
162.7316364962039
 20
86.82464361786542
 10
162.9822871517793
 20
87.11828514066214
 10
163.2203173438211
 20
87.42050072920327
 10
163.4537384748687
 20
87.71613381384108
 10
163.7005431526977
 20
88.0030794109766
 10
163.9594769578519
 20
88.27864193735631
 10
164.2290130807436
 20
88.54013535290572
 10
164.5073731058267
 20
88.78495564358211
 10
164.7925596325694
 20
89.01065584838271
 10
165.082399851258
 20
89.2150195619604
 10
165.3745984376952
 20
89.39612872185023
 10
165.6667970241325
 20
89.55242142703311
 10
165.9566372428211
 20
89.68273637001913
 10
166.2418237695638
 20
89.78634120118689
 10
166.5201837946468
 20
89.86294338133719
 10
166.7897199175385
 20
89.91268347200342
 10
167.0486537226928
 20
89.93611194983991
 10
167.2954584005218
 20
89.93415184706809
 10
167.5288795315694
 20
89.90805026811996
 10
167.7669097236111
 20
89.88068827048002
 10
168.0175603791866
 20
89.87647319462137
 10
168.279674588273
 20
89.89646625423713
 10
168.551872336712
 20
89.94145187246026
 10
168.8325683626339
 20
90.01190167450737
 10
169.1199984863333
 20
90.10794694520554
 10
169.4122537152616
 20
90.22936152896202
 10
169.7073209618432
 20
90.37555664797547
 10
170.0031285138878
 20
90.54558834015708
 10
170.2975942505377
 20
90.73817750209678
 10
170.5886742221384
 20
90.95174164968199
 10
170.8744091879557
 20
91.18443672146638
 10
171.152967037763
 20
91.43420675534789
 10
171.4226791298711
 20
91.69883868858592
 10
171.682069250804
 20
91.97601949036428
 10
171.9298743497611
 20
92.26339282237799
 10
172.1691297164032
 20
92.56393284946544
 10
172.4023685610342
 20
92.88138694497619
 10
172.6277222767446
 20
93.21433133461366
 10
172.8433279509916
 20
93.56104850897772
 10
173.0473721301806
 20
93.91954841747999
 10
173.23813592477
 20
94.28760073674211
 10
173.4140393104381
 20
94.66277740728322
 10
173.5736824365513
 20
95.04250402441386
 10
173.7158817013768
 20
95.42411775399491
 10
173.8396987632144
 20
95.8049292291573
 10
173.944460976425
 20
96.18228537469376
 10
174.0297723176371
 20
96.55363004348871
 10
174.0955145481985
 20
96.91655975048968
 10
174.141838898112
 20
97.26887190163437
 10
174.1691492050363
 20
97.608603765868
 10
174.1780778634678
 20
97.93406100546696
 10
174.1780778634678
 20
107.9769689508779
 10
162.1572625832964
 20
114.9171898887636
 10
144.5503037317514
 20
104.7518074562135
  0
LWPOLYLINE
  5
57
100
AcDbEntity
  8
0
  6
ByLayer
 62
  256
370
   -1
100
AcDbPolyline
 90
   17
 70
    0
 43
0
 10
169.7166384753259
 20
98.94313472624282
 10
169.710719771171
 20
98.78790517875198
 10
169.6713636383035
 20
98.43427488201654
 10
169.6032068849145
 20
98.06011302356313
 10
169.504857600868
 20
97.66944878515477
 10
169.3757265421067
 20
97.26725160418074
 10
169.2161541927155
 20
96.8592797828945
 10
169.0274795603035
 20
96.45184639416645
 10
168.8120353047717
 20
96.05151797755398
 10
168.5730628538944
 20
95.66477357085775
 10
168.3145525051119
 20
95.29765985177526
 10
168.0410247185455
 20
94.95548023281775
 10
167.7572772718721
 20
94.64255086502591
 10
167.4681267590836
 20
94.36204576739344
 10
167.1781714612302
 20
94.11593935829242
 10
166.8915967071433
 20
93.90504079906675
 10
166.7601233276757
 20
93.82230027716572
  0
LWPOLYLINE
  5
58
100
AcDbEntity
  8
0
  6
ByLayer
 62
  256
370
   -1
100
AcDbPolyline
 90
   17
 70
    0
 43
0
 10
160.7363823542567
 20
93.75838143735174
 10
160.7304636501018
 20
93.6031518898608
 10
160.6911075172343
 20
93.24952159312549
 10
160.6229507638454
 20
92.875359734672
 10
160.5246014797989
 20
92.48469549626371
 10
160.3954704210376
 20
92.0824983152897
 10
160.2358980716463
 20
91.67452649400343
 10
160.0472234392344
 20
91.26709310527541
 10
159.8317791837026
 20
90.86676468866293
 10
159.5928067328253
 20
90.48002028196667
 10
159.3342963840428
 20
90.11290656288422
 10
159.0607685974763
 20
89.7707269439267
 10
158.777021150803
 20
89.45779757613484
 10
158.4878706380145
 20
89.17729247850239
 10
158.1979153401611
 20
88.93118606940138
 10
157.9113405860741
 20
88.72028751017571
 10
157.7798672066065
 20
88.63754698827466
  0
LWPOLYLINE
  5
59
100
AcDbEntity
  8
0
  6
ByLayer
 62
  256
370
   -1
100
AcDbPolyline
 90
    4
 70
    0
 43
0
 10
257.2454470004311
 20
8.884902657894305
 10
149.4823735305276
 20
-53.3321368186559
 10
149.4823735305276
 20
-22.22361708530955
 10
78.77169541187286
 20
18.60121196107677
  0
LWPOLYLINE
  5
5A
100
AcDbEntity
  8
0
  6
ByLayer
 62
  256
370
   -1
100
AcDbPolyline
 90
   11
 70
    0
 43
0
 10
150.4122828738962
 20
87.36170862838901
 10
150.3609180557812
 20
87.15767666471569
 10
150.2846133392405
 20
86.92001469414019
 10
150.1903205873275
 20
86.67894043610738
 10
150.078831029524
 20
86.43818433819435
 10
149.9515230626334
 20
86.20162664204254
 10
149.8103120689332
 20
85.97309585626748
 10
149.6575559537435
 20
85.7561650222642
 10
149.4959258980452
 20
85.55396797469839
 10
149.3282569522836
 20
85.36905516645774
 10
149.177242497616
 20
85.22255594727281
  0
LWPOLYLINE
  5
5B
100
AcDbEntity
  8
0
  6
ByLayer
 62
  256
370
   -1
100
AcDbPolyline
 90
   17
 70
    0
 43
0
 10
151.7561262331875
 20
88.57362814846071
 10
151.7502075290327
 20
88.41839860096987
 10
151.7108513961651
 20
88.06476830423438
 10
151.6426946427762
 20
87.690606445781
 10
151.5443453587297
 20
87.29994220737265
 10
151.4152142999685
 20
86.89774502639867
 10
151.2556419505772
 20
86.48977320511239
 10
151.0669673181652
 20
86.08233981638433
 10
150.8515230626334
 20
85.68201139977187
 10
150.6125506117561
 20
85.29526699307563
 10
150.3540402629736
 20
84.92815327399316
 10
150.0805124764071
 20
84.58597365503563
 10
149.7967650297338
 20
84.27304428724379
 10
149.5076145169453
 20
83.99253918961132
 10
149.2176592190919
 20
83.7464327805103
 10
148.9310844650049
 20
83.53553422128464
 10
148.7996110855374
 20
83.45279369938361
  0
LWPOLYLINE
  5
5C
100
AcDbEntity
  8
0
  6
ByLayer
 62
  256
370
   -1
100
AcDbPolyline
 90
   11
 70
    0
 43
0
 10
141.432026752827
 20
82.17695533949794
 10
141.380661934712
 20
81.97292337582464
 10
141.3043572181713
 20
81.73526140524908
 10
141.2100644662584
 20
81.49418714721635
 10
141.0985749084549
 20
81.25343104930329
 10
140.9712669415642
 20
81.01687335315145
 10
140.8300559506814
 20
80.78834257164416
 10
140.6772998326744
 20
80.57141173337313
 10
140.515669776976
 20
80.36921468580732
 10
140.3480008312144
 20
80.1843018775667
 10
140.1969863765469
 20
80.03780265838175
  0
LWPOLYLINE
  5
5D
100
AcDbEntity
  8
0
  6
ByLayer
 62
  256
370
   -1
100
AcDbPolyline
 90
   87
 70
    0
 43
0
 10
126.5897914896131
 20
93.97405258796748
 10
126.5897914896131
 20
94.38230087843134
 10
138.6106067697844
 20
87.44207994054567
 10
138.6106067697844
 20
77.39917199513464
 10
138.6195354282158
 20
77.08402468223342
 10
138.6468457351402
 20
76.77582804410864
 10
138.6931700850537
 20
76.47700664474918
 10
138.7589123156151
 20
76.18998952677173
 10
138.8442236568272
 20
75.91715390960425
 10
138.9489858700378
 20
75.66076674806384
 10
139.0728029316589
 20
75.42292690123635
 10
139.2150021967009
 20
75.20551073893593
 10
139.3746453230872
 20
75.01012412517785
 10
139.5505487108444
 20
74.83806318700984
 10
139.7413125030716
 20
74.69028592612293
 10
139.9453566822605
 20
74.56739594118324
 10
140.1609623565076
 20
74.46963875494983
 10
140.386316072218
 20
74.396910422169
 10
140.619554916849
 20
74.34877734612461
 10
140.8588102834911
 20
74.32450561970893
 10
141.1066153824482
 20
74.32327296887409
 10
141.366005503381
 20
74.34561007938709
 10
141.6357175954892
 20
74.39241484411376
 10
141.9142754452965
 20
74.46429570937451
 10
142.2000104111138
 20
74.56153895645315
 10
142.4910903827145
 20
74.6840850087867
 10
142.7855561193644
 20
74.83151559149087
 10
143.081363671409
 20
75.00305303891174
 10
143.3764309179906
 20
75.1975722283842
 10
143.6686861469188
 20
75.41362491481532
 10
143.9561162706183
 20
75.64947536269939
 10
144.2368122965401
 20
75.90314541290512
 10
144.5090100449791
 20
76.17246668135012
 10
144.7711242540656
 20
76.4551370400833
 10
145.021774909641
 20
76.74877856288001
 10
145.2598051016828
 20
77.05099415142115
 10
145.4932262327304
 20
77.34662723605898
 10
145.7400309105594
 20
77.63357283319451
 10
145.9989647157136
 20
77.90913535957421
 10
146.2685008386053
 20
78.17062877512362
 10
146.5468608636884
 20
78.41544906579998
 10
146.8320473904311
 20
78.64114927060058
 10
147.1218876091197
 20
78.84551298417828
 10
147.4140861955569
 20
79.0266221440681
 10
147.7062847819942
 20
79.18291484925099
 10
147.9961250006828
 20
79.31322979223702
 10
148.2813115274255
 20
79.41683462340472
 10
148.5596715525086
 20
79.49343680355501
 10
148.8292076754002
 20
79.5431768942213
 10
149.0881414805545
 20
79.56660537205781
 10
149.3349461583835
 20
79.56464526928598
 10
149.5683672894311
 20
79.53854369033785
 10
149.8063974814729
 20
79.51118169269789
 10
150.0570481370483
 20
79.50696661683925
 10
150.3191623461347
 20
79.52695967645499
 10
150.5913600945737
 20
79.57194529467816
 10
150.8720561204955
 20
79.64239509672524
 10
151.159486244195
 20
79.73844036742342
 10
151.4517414731233
 20
79.8598549511799
 10
151.7468087197049
 20
80.00605007019338
 10
152.0426162717494
 20
80.17608176237498
 10
152.3370820083994
 20
80.36867092431467
 10
152.6281619800001
 20
80.58223507189989
 10
152.9138969458174
 20
80.81493014368426
 10
153.1924547956247
 20
81.06470017756574
 10
153.4621668877328
 20
81.32933211080379
 10
153.7215570086657
 20
81.60651291258218
 10
153.9693621076227
 20
81.89388624459588
 10
154.2086174742648
 20
82.19442627168333
 10
154.4418563188959
 20
82.51188036719408
 10
154.6672100346063
 20
82.84482475683156
 10
154.8828157088533
 20
83.19154193119559
 10
155.0868598880423
 20
83.5500418396979
 10
155.2776236826317
 20
83.91809415895997
 10
155.4535270682997
 20
84.29327082950108
 10
155.613170194413
 20
84.67299744663175
 10
155.7553694592385
 20
85.05461117621279
 10
155.8791865210761
 20
85.43542265137519
 10
155.9839487342866
 20
85.81277879691162
 10
156.0692600754988
 20
86.18412346570661
 10
156.1350023060602
 20
86.54705317270758
 10
156.1813266559736
 20
86.89936532385224
 10
156.2086369628981
 20
87.23909718808586
 10
156.2175656213294
 20
87.56455442768484
 10
156.2175656213294
 20
97.60746237309587
 10
144.1967503411582
 20
104.5476833109815
 10
126.5897914896131
 20
94.38230087843134
  0
LWPOLYLINE
  5
5E
100
AcDbEntity
  8
0
  6
ByLayer
 62
  256
370
   -1
100
AcDbPolyline
 90
   17
 70
    0
 43
0
 10
142.7758701121184
 20
83.38887485956961
 10
142.7699514079635
 20
83.23364531207878
 10
142.730595275096
 20
82.88001501534332
 10
142.662438521707
 20
82.5058531568899
 10
142.5640892376605
 20
82.11518891848159
 10
142.4349581788993
 20
81.71299173750758
 10
142.275385829508
 20
81.30501991622133
 10
142.0867111970961
 20
80.89758652749329
 10
141.8712669415642
 20
80.49725811088081
 10
141.6322944906869
 20
80.11051370418456
 10
141.3737841419045
 20
79.74339998510212
 10
141.100256355338
 20
79.40122036614459
 10
140.8165089086646
 20
79.08829099835272
 10
140.5273583958761
 20
78.80778590072028
 10
140.2374030980228
 20
78.56167949161926
 10
139.9508283439358
 20
78.35078093239358
 10
139.8193549644682
 20
78.26804041049253
  0
LWPOLYLINE
  5
5F
100
AcDbEntity
  8
0
  6
ByLayer
 62
  256
370
   -1
100
AcDbPolyline
 90
   11
 70
    0
 43
0
 10
132.4517706317579
 20
76.99220205060685
 10
132.4004058136429
 20
76.78817008693358
 10
132.3241010971022
 20
76.55050811635806
 10
132.2298083451892
 20
76.30943385832526
 10
132.1183187873857
 20
76.06867776041221
 10
131.9910108204951
 20
75.83212006426039
 10
131.8497998296122
 20
75.60358928275311
 10
131.6970437116053
 20
75.38665844448207
 10
131.5354136559068
 20
75.18446139691628
 10
131.3677447101454
 20
74.99954858867567
 10
131.2167302554777
 20
74.85304936949068
  0
LWPOLYLINE
  5
60
100
AcDbEntity
  8
0
  6
ByLayer
 62
  256
370
   -1
100
AcDbPolyline
 90
   17
 70
    0
 43
0
 10
133.7956139910492
 20
78.20412157067858
 10
133.7896952868943
 20
78.04889202318775
 10
133.7503391540269
 20
77.6952617264523
 10
133.6821824006379
 20
77.32109986799888
 10
133.5838331165914
 20
76.93043562959053
 10
133.4547020578301
 20
76.52823844861651
 10
133.2951297084389
 20
76.12026662733027
 10
133.1064550760269
 20
75.71283323860222
 10
132.8910108204951
 20
75.31250482198975
 10
132.6520383696178
 20
74.92576041529351
 10
132.3935280208353
 20
74.55864669621103
 10
132.1200002342688
 20
74.21646707725351
 10
131.8362527875955
 20
73.90353770946167
 10
131.547102274807
 20
73.6230326118292
 10
131.2571469769536
 20
73.37692620272819
 10
130.9705722228667
 20
73.16602764350252
 10
130.8390988433991
 20
73.08328712160149
  0
LWPOLYLINE
  5
61
100
AcDbEntity
  8
0
  6
ByLayer
 62
  256
370
   -1
100
AcDbPolyline
 90
   11
 70
    0
 43
0
 10
123.4715145106887
 20
71.80744876171582
 10
123.4201496925738
 20
71.60341679804253
 10
123.343844976033
 20
71.365754827467
 10
123.24955222412
 20
71.12468056943418
 10
123.1380626663165
 20
70.88392447152114
 10
123.0107546994259
 20
70.64736677536936
 10
122.869543708543
 20
70.41883599386202
 10
122.7167875905361
 20
70.20190515559102
 10
122.5551575348377
 20
69.99970810802522
 10
122.3874885890762
 20
69.81479529978456
 10
122.2364741344086
 20
69.66829608059966
  0
LWPOLYLINE
  5
62
100
AcDbEntity
  8
0
  6
ByLayer
 62
  256
370
   -1
100
AcDbPolyline
 90
   17
 70
    0
 43
0
 10
124.8153578699801
 20
73.01936828178752
 10
124.8094391658252
 20
72.86413873429666
 10
124.7700830329577
 20
72.51050843756126
 10
124.7019262795688
 20
72.13634657910784
 10
124.6035769955222
 20
71.74568234069947
 10
124.474445936761
 20
71.34348515972546
 10
124.3148735873697
 20
70.93551333843921
 10
124.1261989549578
 20
70.52807994971117
 10
123.9107546994259
 20
70.12775153309869
 10
123.6717822485487
 20
69.74100712640242
 10
123.4132718997662
 20
69.37389340731998
 10
123.1397441131997
 20
69.03171378836245
 10
122.8559966665263
 20
68.7187844205706
 10
122.5668461537379
 20
68.43827932293816
 10
122.2768908558845
 20
68.19217291383714
 10
121.9903161017975
 20
67.98127435461146
 10
121.8588427223299
 20
67.89853383271041
  0
LWPOLYLINE
  5
63
100
AcDbEntity
  8
0
  6
ByLayer
 62
  256
370
   -1
100
AcDbPolyline
 90
   65
 70
    0
 43
0
 10
172.0647264982298
 20
99.25425821028894
 10
172.2801707498908
 20
99.1027033948003
 10
172.4688453861736
 20
98.91313270242632
 10
172.6284177355649
 20
98.68941915889262
 10
172.7575487943261
 20
98.43632968099172
 10
172.8558980783726
 20
98.15922941382107
 10
172.9240548317616
 20
97.86376819520005
 10
172.9634109646291
 20
97.55558244627521
 10
172.9759963354506
 20
97.24003891167838
 10
172.963410964629
 20
96.90996304261822
 10
172.9240548317616
 20
96.55633274588278
 10
172.8558980783726
 20
96.18217088742936
 10
172.7575487943261
 20
95.79150664902099
 10
172.6284177355649
 20
95.38930946804699
 10
172.4688453861736
 20
94.98133764676074
 10
172.2801707537616
 20
94.57390425803268
 10
172.0647264982298
 20
94.17357584142022
 10
171.8257540521203
 20
93.78683144194629
 10
171.5672436985701
 20
93.41971771564151
 10
171.2937159120036
 20
93.07753809668399
 10
171.0099684653302
 20
92.76460872889214
 10
170.7208179525418
 20
92.4841036312597
 10
170.4308626546884
 20
92.23799722215868
 10
170.1442879006015
 20
92.02709866293306
 10
169.8647264982298
 20
91.85116147755541
 10
169.5851650958582
 20
91.7042889611045
 10
169.2985903417712
 20
91.58427949750002
 10
169.0086350439179
 20
91.49557436806381
 10
168.7194845311294
 20
91.44219721290679
 10
168.4357370844561
 20
91.42748325126118
 10
168.1622092978896
 20
91.4538201878087
 10
167.9036989443393
 20
91.52243186969237
 10
167.6647264982298
 20
91.63323465698588
 10
167.449282242698
 20
91.784789475745
 10
167.260607610286
 20
91.97436016484845
 10
167.1010352608947
 20
92.19807370838218
 10
166.9719042021335
 20
92.45116318628308
 10
166.873554918087
 20
92.72826345345372
 10
166.805398164698
 20
93.02372467207472
 10
166.7660420318306
 20
93.33191042099958
 10
166.753456661009
 20
93.64745395559639
 10
166.7660420318306
 20
93.97752982465659
 10
166.805398164698
 20
94.33116012139202
 10
166.873554918087
 20
94.70532197984544
 10
166.9719042021335
 20
95.0959862182538
 10
167.1010352608947
 20
95.49818339922777
 10
167.260607610286
 20
95.90615522051405
 10
167.4492822465688
 20
96.31358861698229
 10
167.6647264982298
 20
96.71391702585456
 10
167.9036989443393
 20
97.10066142532848
 10
168.1622092978895
 20
97.46777515163329
 10
168.4357370844561
 20
97.80995477059081
 10
168.7194845311294
 20
98.12288413838267
 10
169.0086350439178
 20
98.40338923601512
 10
169.2985903417712
 20
98.64949564511609
 10
169.5851650958581
 20
98.86039420434172
 10
169.8647264982298
 20
99.03633138971938
 10
170.1442879006013
 20
99.18320390617028
 10
170.4308626546884
 20
99.30321336977478
 10
170.7208179525418
 20
99.39191849921095
 10
171.0099684653302
 20
99.44529565436798
 10
171.2937159120036
 20
99.46000961601361
 10
171.5672436985701
 20
99.43367267946608
 10
171.8257540521203
 20
99.36506099758238
 10
172.0647264982298
 20
99.25425821028894
  0
LWPOLYLINE
  5
64
100
AcDbEntity
  8
0
  6
ByLayer
 62
  256
370
   -1
100
AcDbPolyline
 90
   65
 70
    0
 43
0
 10
163.0844703771606
 20
94.06950492139786
 10
163.2999146326925
 20
93.91795010263871
 10
163.4885892651045
 20
93.72837941353528
 10
163.6481616144957
 20
93.50466587000155
 10
163.777292673257
 20
93.25157639210065
 10
163.8756419573035
 20
92.97447612493001
 10
163.9437987106924
 20
92.67901490630898
 10
163.9831548435599
 20
92.37082915738416
 10
163.9957402143815
 20
92.05528562278732
 10
163.9831548435599
 20
91.72520975372719
 10
163.9437987106924
 20
91.37157945699165
 10
163.8756419573035
 20
90.99741759853829
 10
163.777292673257
 20
90.60675336012996
 10
163.6481616144958
 20
90.20455617915594
 10
163.4885892651045
 20
89.79658435786968
 10
163.2999146326925
 20
89.38915096914162
 10
163.0844703771606
 20
88.98882255252914
 10
162.8454979310512
 20
88.60207815305522
 10
162.5869875775009
 20
88.23496442675044
 10
162.3134597909344
 20
87.89278480779295
 10
162.029712344261
 20
87.57985544000105
 10
161.7405618314726
 20
87.29935034236861
 10
161.4506065336192
 20
87.05324393326759
 10
161.1640317795324
 20
86.84234537404201
 10
160.8844703771607
 20
86.66640818866432
 10
160.6049089747891
 20
86.51953567221342
 10
160.3183342207021
 20
86.39952620860895
 10
160.0283789228487
 20
86.31082107917275
 10
159.7392284100603
 20
86.25744392401572
 10
159.4554809633869
 20
86.24272996237012
 10
159.1819531768204
 20
86.26906689891764
 10
158.9234428280379
 20
86.33767857908437
 10
158.6844703771606
 20
86.4484813680948
 10
158.4690261254997
 20
86.60003618358341
 10
158.2803514892169
 20
86.78960687595739
 10
158.1207791398256
 20
87.01332041949112
 10
157.9916480810643
 20
87.26640989739201
 10
157.8932987970178
 20
87.54351016456263
 10
157.8251420436289
 20
87.83897138318363
 10
157.7857859107614
 20
88.1471571321084
 10
157.7732005399398
 20
88.46270066670533
 10
157.7857859107614
 20
88.79277653576548
 10
157.8251420436289
 20
89.14640683250097
 10
157.8932987970178
 20
89.52056869095438
 10
157.9916480810643
 20
89.91123292936271
 10
158.1207791398256
 20
90.31343011033674
 10
158.2803514892169
 20
90.72140193162299
 10
158.4690261254996
 20
91.1288353280912
 10
158.6844703771606
 20
91.5291637369635
 10
158.9234428232701
 20
91.91590813643741
 10
159.1819531768204
 20
92.2830218627422
 10
159.4554809633869
 20
92.62520148169973
 10
159.7392284100602
 20
92.93813084949156
 10
160.0283789228487
 20
93.21863594712403
 10
160.3183342207021
 20
93.46474235622502
 10
160.604908974789
 20
93.67564091545064
 10
160.8844703771607
 20
93.85157810082832
 10
161.1640317795322
 20
93.9984506172792
 10
161.4506065336192
 20
94.11846008088372
 10
161.7405618314726
 20
94.20716521031991
 10
162.0297123442611
 20
94.26054236547692
 10
162.3134597909344
 20
94.27525632712253
 10
162.5869875775009
 20
94.24891939057501
 10
162.8454979310511
 20
94.18030770869133
 10
163.0844703771606
 20
94.06950492139786
  0
LWPOLYLINE
  5
65
100
AcDbEntity
  8
0
  6
ByLayer
 62
  256
370
   -1
100
AcDbPolyline
 90
   65
 70
    0
 43
0
 10
154.7970365521878
 20
88.0668231032096
 10
154.8953858362343
 20
87.78972283603896
 10
154.9635425896233
 20
87.49426161741798
 10
155.0028987224908
 20
87.18607586849319
 10
155.0154840933123
 20
86.87053233389626
 10
155.0028987224908
 20
86.54045646483614
 10
154.9635425896233
 20
86.18682616810061
 10
154.8953858362343
 20
85.8126643096472
 10
154.7970365521878
 20
85.42200007123888
 10
154.6679054934266
 20
85.01980289026488
 10
154.5083331440353
 20
84.61183106897862
 10
154.3196585077525
 20
84.20439767251041
 10
154.1042142560915
 20
83.80406926363807
 10
153.865241809982
 20
83.41732486416419
 10
153.6067314564317
 20
83.05021113785939
 10
153.3332036698652
 20
82.70803151890186
 10
153.0494562231919
 20
82.39510215111004
 10
152.7603057104034
 20
82.11459705347755
 10
152.47035041255
 20
81.86849064437655
 10
152.1837756584631
 20
81.65759208515088
 10
151.9042142560915
 20
81.48165489977328
 10
151.6246528537199
 20
81.33478238332241
 10
151.338078099633
 20
81.21477291971792
 10
151.0481228017796
 20
81.1260677902817
 10
150.7589722889911
 20
81.07269063512466
 10
150.4752248423177
 20
81.05797667347908
 10
150.2016970557513
 20
81.08431361002658
 10
149.9431867069688
 20
81.15292529019331
 10
149.7042142560915
 20
81.26372807920373
 10
149.4887700005597
 20
81.41528289796288
 10
149.3000953681477
 20
81.60485358706633
 10
149.1405230187565
 20
81.82856713060006
 10
149.0113919599952
 20
82.08165660850095
 10
148.9130426759487
 20
82.3587568756716
 10
148.8448859225597
 20
82.65421809429262
 10
148.8055297896923
 20
82.96240384321746
 10
148.7929444188707
 20
83.27794737781427
 10
148.8055297896923
 20
83.60802324687447
 10
148.8448859225597
 20
83.96165354360993
 10
148.9130426759487
 20
84.33581540206332
 10
149.0113919599952
 20
84.72647964047168
 10
149.1405230187565
 20
85.12867682144567
 10
149.3000953681477
 20
85.53664864273192
 10
149.4887700044305
 20
85.94408203920017
 10
149.7042142560915
 20
86.34441044807244
 10
149.943186702201
 20
86.73115484754635
 10
150.2016970557513
 20
87.09826857385114
 10
150.4752248423177
 20
87.44044819280867
 10
150.7589722889911
 20
87.75337756060051
 10
151.0481228017796
 20
88.03388265823297
 10
151.338078099633
 20
88.27998906733397
 10
151.6246528537199
 20
88.49088762655957
 10
151.9042142560915
 20
88.66682481193726
 10
152.1837756584631
 20
88.81369732838816
 10
152.4703504125501
 20
88.93370679199265
 10
152.7603057104034
 20
89.02241192142883
 10
153.0494562231919
 20
89.07578907658586
 10
153.3332036698652
 20
89.09050303823149
 10
153.6067314564317
 20
89.06416610168397
 10
153.865241809982
 20
88.99555441980026
 10
154.1042142560915
 20
88.88475163250679
 10
154.3196585077525
 20
88.7331968170182
 10
154.5083331440353
 20
88.54362612464422
 10
154.6679054934266
 20
88.31991258111044
 10
154.7970365521878
 20
88.0668231032096
  0
LWPOLYLINE
  5
66
100
AcDbEntity
  8
0
  6
ByLayer
 62
  256
370
   -1
100
AcDbPolyline
 90
   65
 70
    0
 43
0
 10
145.3394023905542
 20
83.54844352485659
 10
145.5280770229662
 20
83.35887283575316
 10
145.6876493723574
 20
83.13515929221943
 10
145.8167804311187
 20
82.88206981431853
 10
145.9151297151652
 20
82.60496954714789
 10
145.9832864685541
 20
82.30950832852686
 10
146.0226426014216
 20
82.00132257960203
 10
146.0352279722431
 20
81.68577904500519
 10
146.0226426014216
 20
81.35570317594502
 10
145.9832864685541
 20
81.00207287920958
 10
145.9151297151652
 20
80.62791102075617
 10
145.8167804311187
 20
80.2372467823478
 10
145.6876493723574
 20
79.83504960137381
 10
145.5280770229662
 20
79.42707778008754
 10
145.3394023905542
 20
79.01964439135951
 10
145.1239581350223
 20
78.61931597474702
 10
144.8849856841451
 20
78.23257156805079
 10
144.6264753353626
 20
77.86545784896832
 10
144.3529475487961
 20
77.5232782300108
 10
144.0692001021228
 20
77.21034886221895
 10
143.7800495893343
 20
76.92984376458649
 10
143.4900942914809
 20
76.68373735548549
 10
143.2035195373939
 20
76.47283879625979
 10
142.9239581350224
 20
76.2969016108822
 10
142.6443967326508
 20
76.1500290944313
 10
142.3578219785638
 20
76.03001963082683
 10
142.0678666807104
 20
75.94131450139064
 10
141.7787161679219
 20
75.88793734623361
 10
141.4949687212486
 20
75.873223384588
 10
141.2214409346821
 20
75.89956032113552
 10
140.9629305811318
 20
75.96817200301921
 10
140.7239581350223
 20
76.07897479031267
 10
140.5085138833614
 20
76.23052960580128
 10
140.3198392470785
 20
76.42010029817526
 10
140.1602668976873
 20
76.643813841709
 10
140.031135838926
 20
76.89690331960986
 10
139.9327865548795
 20
77.17400358678056
 10
139.8646298014906
 20
77.46946480540153
 10
139.8252736686231
 20
77.77765055432627
 10
139.8126882978015
 20
78.09319408892321
 10
139.8252736686231
 20
78.42326995798336
 10
139.8646298014906
 20
78.77690025471888
 10
139.9327865548795
 20
79.15106211317227
 10
140.031135838926
 20
79.54172635158059
 10
140.1602668976873
 20
79.94392353255459
 10
140.3198392470785
 20
80.35189535384087
 10
140.5085138833613
 20
80.75932875030911
 10
140.7239581350223
 20
81.15965715918138
 10
140.9629305811318
 20
81.54640155865532
 10
141.2214409346821
 20
81.9135152849601
 10
141.4949687212486
 20
82.25569490391761
 10
141.778716167922
 20
82.56862427170947
 10
142.0678666807104
 20
82.84912936934192
 10
142.3578219785637
 20
83.09523577844291
 10
142.6443967326507
 20
83.30613433766854
 10
142.9239581350224
 20
83.4820715230462
 10
143.2035195373939
 20
83.62894403949709
 10
143.4900942914809
 20
83.7489535031016
 10
143.7800495893343
 20
83.83765863253777
 10
144.0692001021228
 20
83.8910357876948
 10
144.3529475487961
 20
83.9057497493404
 10
144.6264753353626
 20
83.87941281279289
 10
144.8849856889128
 20
83.81080113090921
 10
145.1239581350223
 20
83.69999834361573
 10
145.3394023905542
 20
83.54844352485659
  0
LWPOLYLINE
  5
67
100
AcDbEntity
  8
0
  6
ByLayer
 62
  256
370
   -1
100
AcDbPolyline
 90
   87
 70
    0
 43
0
 10
138.2570533791911
 20
87.23795579531374
 10
120.6500945276461
 20
77.07257336276355
 10
120.6500945276461
 20
67.02966541735252
 10
120.6590231860775
 20
66.71451810445127
 10
120.6863334930019
 20
66.40632146632655
 10
120.7326578429154
 20
66.10750006696708
 10
120.7984000734768
 20
65.82048294898959
 10
120.8837114146889
 20
65.54764733182212
 10
120.9884736278995
 20
65.29126017028172
 10
121.1122906897371
 20
65.0534203230837
 10
121.2544899545625
 20
64.83600416115381
 10
121.4141330806758
 20
64.64061754769469
 10
121.5900364663438
 20
64.46855661128718
 10
121.7808002609333
 20
64.32077934834076
 10
121.9848444401222
 20
64.1978893634011
 10
122.2004501143692
 20
64.10013217716772
 10
122.4258038300797
 20
64.02740384438688
 10
122.6590426747107
 20
63.97927076834249
 10
122.8982980413528
 20
63.9549990419268
 10
123.1461031403099
 20
63.95376639109195
 10
123.4054932612427
 20
63.97610350160497
 10
123.6752053533509
 20
64.02290826633164
 10
123.9537632031581
 20
64.09478913159239
 10
124.2394981689755
 20
64.19203237867104
 10
124.5305781405762
 20
64.31457843100456
 10
124.8250438772261
 20
64.46200901370875
 10
125.1208514292706
 20
64.63354646112961
 10
125.4159186758523
 20
64.82806565060204
 10
125.7081739047805
 20
65.04411833703321
 10
125.99560402848
 20
65.27996878491727
 10
126.2763000544018
 20
65.533638835123
 10
126.5484978028408
 20
65.80296010356797
 10
126.8106120119273
 20
66.08563046230118
 10
127.0612626675027
 20
66.37927198509787
 10
127.2992928595445
 20
66.68148757363903
 10
127.532713990592
 20
66.97712065827682
 10
127.7795186684211
 20
67.26406625541236
 10
128.0384524735753
 20
67.53962878179208
 10
128.307988596467
 20
67.8011221973415
 10
128.5863486215501
 20
68.04594248801789
 10
128.8715351482928
 20
68.27164269281845
 10
129.1613753669814
 20
68.47600640639615
 10
129.4535739534186
 20
68.65711556628598
 10
129.7457725398559
 20
68.81340827146887
 10
130.0356127585445
 20
68.94372321445492
 10
130.3207992852872
 20
69.04732804562261
 10
130.5991593103702
 20
69.12393022577292
 10
130.8686954332619
 20
69.17367031643919
 10
131.1276292384162
 20
69.19709879427568
 10
131.3744339162452
 20
69.19513869150384
 10
131.6078550472928
 20
69.16903711255573
 10
131.8458852393346
 20
69.14167511491574
 10
132.0965358949099
 20
69.13746003905713
 10
132.3586501039964
 20
69.15745309867285
 10
132.6308478524354
 20
69.20243871689604
 10
132.9115438783572
 20
69.27288851894313
 10
133.1989740020567
 20
69.36893378964128
 10
133.491229230985
 20
69.49034837339777
 10
133.7862964775667
 20
69.63654349241123
 10
134.0821040296112
 20
69.80657518459284
 10
134.3765697662611
 20
69.99916434653254
 10
134.6676497378618
 20
70.21272849411774
 10
134.9533847036791
 20
70.44542356590215
 10
135.2319425534864
 20
70.69519359978362
 10
135.5016546455945
 20
70.95982553302167
 10
135.7610447665273
 20
71.23700633480004
 10
136.0088498654844
 20
71.52437966681376
 10
136.2481052321265
 20
71.82491969390117
 10
136.4813440767576
 20
72.14237378941196
 10
136.706697792468
 20
72.47531817904944
 10
136.9223034667151
 20
72.82203535341345
 10
137.126347645904
 20
73.18053526191576
 10
137.3171114404934
 20
73.54858758117784
 10
137.4930148261614
 20
73.92376425171896
 10
137.6526579522747
 20
74.30349086884964
 10
137.7948572171002
 20
74.68510459843067
 10
137.9186742789378
 20
75.06591607359307
 10
138.0234364921483
 20
75.4432722191295
 10
138.1087478333605
 20
75.81461688792447
 10
138.1744900639218
 20
76.17754659492545
 10
138.2208144138353
 20
76.52985874607013
 10
138.2481247207597
 20
76.86959061030376
 10
138.2570533791911
 20
77.19504784990271
 10
138.2570533791911
 20
87.23795579531374
 10
126.2362380990198
 20
94.17817673319941
 10
108.6292792474748
 20
84.01279430064922
 10
120.6500945276461
 20
77.07257336276355
  0
LWPOLYLINE
  5
68
100
AcDbEntity
  8
0
  6
ByLayer
 62
  256
370
   -1
100
AcDbPolyline
 90
   65
 70
    0
 43
0
 10
137.003030347485
 20
77.12475503963582
 10
137.0423864803525
 20
76.81656929071097
 10
137.054971851174
 20
76.50102575611415
 10
137.0423864803524
 20
76.17094988705398
 10
137.003030347485
 20
75.81731959031855
 10
136.934873594096
 20
75.44315773186513
 10
136.8365243100495
 20
75.05249349345674
 10
136.7073932512882
 20
74.65029631248275
 10
136.547820901897
 20
74.2423244911965
 10
136.359146269485
 20
73.83489110246843
 10
136.1437020139532
 20
73.43456268585598
 10
135.9047295630759
 20
73.04781827915974
 10
135.6462192142934
 20
72.68070456007729
 10
135.3726914277269
 20
72.33852494111976
 10
135.0889439810536
 20
72.02559557332792
 10
134.7997934682651
 20
71.74509047569543
 10
134.5098381704117
 20
71.49898406659443
 10
134.2232634163248
 20
71.28808550736876
 10
133.9437020139532
 20
71.11214832199116
 10
133.6641406115816
 20
70.96527580554027
 10
133.3775658574947
 20
70.8452663419358
 10
133.0876105596413
 20
70.75656121249958
 10
132.7984600468528
 20
70.70318405734253
 10
132.5147126001795
 20
70.68847009569696
 10
132.241184813613
 20
70.71480703224445
 10
131.9826744600627
 20
70.78341871412813
 10
131.7437020139532
 20
70.89422150142163
 10
131.5282577622922
 20
71.04577631691021
 10
131.3395831260094
 20
71.23534700928421
 10
131.1800107766182
 20
71.45906055281795
 10
131.0508797178569
 20
71.71215003071883
 10
130.9525304338104
 20
71.98925029788947
 10
130.8843736804214
 20
72.28471151651046
 10
130.845017547554
 20
72.59289726543525
 10
130.8324321767324
 20
72.90844080003215
 10
130.8450175478866
 20
73.23851667354188
 10
130.8843736804214
 20
73.59214696582781
 10
130.9525304338104
 20
73.9663088242812
 10
131.0508797178569
 20
74.35697306268956
 10
131.1800107766181
 20
74.75917024366353
 10
131.3395831260094
 20
75.16714206494983
 10
131.5282577622922
 20
75.57457546141804
 10
131.7437020139532
 20
75.97490387029032
 10
131.9826744648305
 20
76.36164827698657
 10
132.241184813613
 20
76.72876199606904
 10
132.5147126001795
 20
77.07094161502656
 10
132.7984600468528
 20
77.38387098281839
 10
133.0876105596413
 20
77.66437608045086
 10
133.3775658574947
 20
77.91048248955188
 10
133.6641406115816
 20
78.12138104877754
 10
133.9437020139532
 20
78.29731823415516
 10
134.2232634163248
 20
78.44419075060604
 10
134.5098381704117
 20
78.56420021421052
 10
134.7997934682651
 20
78.65290534364672
 10
135.0889439810536
 20
78.70628249880376
 10
135.3726914277269
 20
78.72099646044937
 10
135.6462192142934
 20
78.69465952390185
 10
135.9047295630759
 20
78.62604784373512
 10
136.1437020139532
 20
78.51524505472469
 10
136.359146269485
 20
78.36369023596554
 10
136.547820901897
 20
78.1741195468621
 10
136.7073932512882
 20
77.95040600332835
 10
136.8365243100495
 20
77.69731652542748
 10
136.934873594096
 20
77.42021625825683
 10
137.003030347485
 20
77.12475503963582
  0
LWPOLYLINE
  5
69
100
AcDbEntity
  8
0
  6
ByLayer
 62
  256
370
   -1
100
AcDbPolyline
 90
   65
 70
    0
 43
0
 10
127.3788901484159
 20
73.17893694707448
 10
127.5675647808279
 20
72.98936625797104
 10
127.7271371302191
 20
72.76565271443731
 10
127.8562681889804
 20
72.51256323653641
 10
127.9546174730269
 20
72.23546296936577
 10
128.0227742264158
 20
71.94000175074474
 10
128.0621303592833
 20
71.63181600181991
 10
128.0747157301048
 20
71.31627246722307
 10
128.0621303592833
 20
70.98619659816291
 10
128.0227742264158
 20
70.63256630142746
 10
127.9546174730269
 20
70.25840444297405
 10
127.8562681889804
 20
69.86774020456568
 10
127.7271371302191
 20
69.46554302359169
 10
127.5675647808279
 20
69.05757120230543
 10
127.3788901484159
 20
68.65013781357737
 10
127.163445892884
 20
68.24980939696489
 10
126.9244734420068
 20
67.86306499026867
 10
126.6659630932243
 20
67.4959512711862
 10
126.3924353066578
 20
67.15377165222868
 10
126.1086878599845
 20
66.84084228443682
 10
125.819537347196
 20
66.56033718680438
 10
125.5295820493426
 20
66.31423077770337
 10
125.2430072952556
 20
66.10333221847768
 10
124.963445892884
 20
65.92739503310008
 10
124.6838844905125
 20
65.78052251664919
 10
124.3973097364255
 20
65.66051305304471
 10
124.1073544385721
 20
65.5718079236085
 10
123.8182039257836
 20
65.51843076845149
 10
123.5344564791103
 20
65.50371680680588
 10
123.2609286925438
 20
65.53005374335339
 10
123.0024183437613
 20
65.59866542352012
 10
122.763445892884
 20
65.70946821253055
 10
122.548001641223
 20
65.86102302801918
 10
122.3593270049402
 20
66.05059372039315
 10
122.199754655549
 20
66.27430726392687
 10
122.0706235967877
 20
66.52739674182777
 10
121.9722743127412
 20
66.80449700899841
 10
121.9041175593523
 20
67.09995822761942
 10
121.8647614264848
 20
67.40814397654414
 10
121.8521760556632
 20
67.72368751114109
 10
121.8647614268174
 20
68.05376338465084
 10
121.9041175593523
 20
68.40739367693674
 10
121.9722743127412
 20
68.78155553539017
 10
122.0706235967877
 20
69.1722197737985
 10
122.199754655549
 20
69.57441695477247
 10
122.3593270049403
 20
69.98238877605877
 10
122.548001641223
 20
70.38982217252695
 10
122.763445892884
 20
70.79015058139927
 10
123.0024183389935
 20
71.17689498087319
 10
123.2609286925438
 20
71.54400870717798
 10
123.5344564791103
 20
71.88618832613548
 10
123.8182039257836
 20
72.19911769392733
 10
124.1073544385721
 20
72.47962279155979
 10
124.3973097364255
 20
72.72572920066082
 10
124.6838844905125
 20
72.93662775988649
 10
124.963445892884
 20
73.11256494526405
 10
125.2430072952556
 20
73.25943746171497
 10
125.5295820493426
 20
73.37944692531946
 10
125.819537347196
 20
73.46815205475565
 10
126.1086878599845
 20
73.5215292099127
 10
126.3924353066578
 20
73.5362431715583
 10
126.6659630932243
 20
73.5099062350108
 10
126.9244734420068
 20
73.44129455484405
 10
127.163445892884
 20
73.33049176583361
 10
127.3788901484159
 20
73.17893694707448
  0
LWPOLYLINE
  5
6A
100
AcDbEntity
  8
0
  6
ByLayer
 62
  256
370
   -1
100
AcDbPolyline
 90
    8
 70
    0
 43
0
 10
108.9676583462564
 20
72.23148111135141
 10
108.8628961345176
 20
72.48786826970779
 10
108.7775847933055
 20
72.76070388687528
 10
108.7118425627441
 20
73.04772100485273
 10
108.6655182128306
 20
73.34654240421223
 10
108.6382079059062
 20
73.65473904233697
 10
108.6292792474748
 20
73.96988635523817
 10
108.6292792474748
 20
84.01279430064922
  0
LWPOLYLINE
  5
6B
100
AcDbEntity
  8
0
  6
ByLayer
 62
  256
370
   -1
100
AcDbPolyline
 90
    8
 70
    0
 43
0
 10
108.9676583462564
 20
72.23148111135141
 10
109.0914754093493
 20
71.99364126133987
 10
109.2336746743912
 20
71.77622509903946
 10
109.3933178007776
 20
71.5808384852814
 10
109.5692211885348
 20
71.40877754711342
 10
109.759984980762
 20
71.26100028622645
 10
109.9640291599509
 20
71.13811030128679
 10
121.9848444401222
 20
64.1978893634011
  0
LINE
  5
6C
100
AcDbEntity
  8
0
  6
ByLayer
 62
  256
370
   -1
100
AcDbLine
 10
165.6927964892292
 20
89.56411103598003
 11
165.6927964892292
 21
88.66682481193726
  0
LINE
  5
6D
100
AcDbEntity
  8
0
  6
ByLayer
 62
  256
370
   -1
100
AcDbLine
 10
74.15782366463063
 20
58.96676168069123
 11
74.15782366463061
 21
35.81908361139018
  0
LINE
  5
6E
100
AcDbEntity
  8
0
  6
ByLayer
 62
  256
370
   -1
100
AcDbLine
 10
176.7766953168987
 20
-69.09052082605078
 11
176.7766953168987
 21
-102.0620726043492
  0
LINE
  5
6F
100
AcDbEntity
  8
0
  6
ByLayer
 62
  256
370
   -1
100
AcDbLine
 10
156.5711190119227
 20
97.81158651832779
 11
174.1780778634678
 21
107.9769689508779
  0
LINE
  5
70
100
AcDbEntity
  8
0
  6
ByLayer
 62
  256
370
   -1
100
AcDbLine
 10
186.5347688647734
 20
80.81825142781032
 11
186.5347688647027
 21
86.00300471666054
  0
LINE
  5
71
100
AcDbEntity
  8
0
  6
ByLayer
 62
  256
370
   -1
100
AcDbLine
 10
167.7944670091918
 20
89.88022485238555
 11
162.9547298661987
 21
87.08600131007145
  0
LINE
  5
72
100
AcDbEntity
  8
0
  6
ByLayer
 62
  256
370
   -1
100
AcDbLine
 10
158.8128248983689
 20
84.6946713619371
 11
153.9758597348832
 21
81.90204822273778
  0
LINE
  5
73
100
AcDbEntity
  8
0
  6
ByLayer
 62
  256
370
   -1
100
AcDbLine
 10
149.8339547670535
 20
79.51071827460343
 11
144.9942176240604
 21
76.71649473228935
  0
LINE
  5
74
100
AcDbEntity
  8
0
  6
ByLayer
 62
  256
370
   -1
100
AcDbLine
 10
140.8523126562306
 20
74.32516478415496
 11
136.0153474927449
 21
71.53254164495566
  0
LINE
  5
75
100
AcDbEntity
  8
0
  6
ByLayer
 62
  256
370
   -1
100
AcDbLine
 10
131.8734425249152
 20
69.1412116968213
 11
127.0337053819221
 21
66.34698815450722
  0
LINE
  5
76
100
AcDbEntity
  8
0
  6
ByLayer
 62
  256
370
   -1
100
AcDbLine
 10
66.04377335051498
 20
31.13443447831736
 11
66.0437733504443
 21
-5.158838543960884
  0
LINE
  5
77
100
AcDbEntity
  8
0
  6
ByLayer
 62
  256
370
   -1
100
AcDbLine
 10
257.2454469833574
 20
39.99342238138316
 11
149.4823735305276
 21
-22.22361708530955
  0
LINE
  5
78
100
AcDbEntity
  8
0
  6
ByLayer
 62
  256
370
   -1
100
AcDbLine
 10
138.6106067697844
 20
87.44207994054567
 11
156.2175656213294
 21
97.60746237309587
  0
LINE
  5
79
100
AcDbEntity
  8
0
  6
ByLayer
 62
  256
370
   -1
100
AcDbLine
 10
56.19731143387409
 20
9.895317160363632
 11
56.19731142249229
 21
69.33626825847335
  0
LINE
  5
7A
100
AcDbEntity
  8
0
  6
ByLayer
 62
  256
370
   -1
100
AcDbLine
 10
157.9058689243988
 20
84.93690251896535
 11
156.031359875021
 21
86.01915082322202
  0
LINE
  5
7B
100
AcDbEntity
  8
0
  6
ByLayer
 62
  256
370
   -1
100
AcDbLine
 10
139.9453566822605
 20
74.56739594118324
 11
138.0708476328827
 21
75.64964424543993
  0
ENDSEC
  0
SECTION
  2
OBJECTS
  0
DICTIONARY
  5
C
330
0
100
AcDbDictionary
281
    1
  3
ACAD_GROUP
350
D
  0
DICTIONARY
  5
D
330
C
100
AcDbDictionary
281
    1
  0
ENDSEC
  0
EOF
