999
dxfrw 0.6.3
  0
SECTION
  2
HEADER
  9
$ACADVER
  1
AC1021
  9
$DWGCODEPAGE
  3
ANSI_1252
  9
$INSBASE
 10
0
 20
0
 30
0
  9
$EXTMIN
 10
-10
 20
-52.516717
 30
0
  9
$EXTMAX
 10
350
 20
46.8316578165889
 30
0
  9
$LIMMIN
 10
0
 20
0
  9
$LIMMAX
 10
420
 20
297
  9
$ORTHOMODE
 70
    0
  9
$REGENMODE
 70
    1
  9
$FILLMODE
 70
    1
  9
$QTEXTMODE
 70
    0
  9
$MIRRTEXT
 70
    0
  9
$LTSCALE
 40
1
  9
$ATTMODE
 70
    0
  9
$TEXTSIZE
 40
2.5
  9
$TRACEWID
 40
15.68
  9
$TEXTSTYLE
  7
STANDARD
  9
$CLAYER
  8
0
  9
$CELTYPE
  6
BYLAYER
  9
$CECOLOR
 62
  256
  9
$CELTSCALE
 40
1
  9
$DISPSILH
 70
    0
  9
$DIMSCALE
 40
2.5
  9
$DIMASZ
 40
2.5
  9
$DIMEXO
 40
0.625
  9
$DIMDLI
 40
3.75
  9
$DIMRND
 40
0
  9
$DIMDLE
 40
0
  9
$DIMEXE
 40
1.25
  9
$DIMTP
 40
0
  9
$DIMTM
 40
0
  9
$DIMTXT
 40
2.5
  9
$DIMCEN
 40
2.5
  9
$DIMTSZ
 40
0
  9
$DIMTOL
 70
    0
  9
$DIMLIM
 70
    0
  9
$DIMTIH
 70
    0
  9
$DIMTOH
 70
    0
  9
$DIMSE1
 70
    0
  9
$DIMSE2
 70
    0
  9
$DIMTAD
 70
    1
  9
$DIMZIN
 70
    8
  9
$DIMBLK
  1

  9
$DIMASO
 70
    1
  9
$DIMSHO
 70
    1
  9
$DIMPOST
  1

  9
$DIMAPOST
  1

  9
$DIMALT
 70
    0
  9
$DIMALTD
 70
    3
  9
$DIMALTF
 40
0.03937
  9
$DIMLFAC
 40
1
  9
$DIMTOFL
 70
    1
  9
$DIMTVP
 40
0
  9
$DIMTIX
 70
    0
  9
$DIMSOXD
 70
    0
  9
$DIMSAH
 70
    0
  9
$DIMBLK1
  1

  9
$DIMBLK2
  1

  9
$DIMSTYLE
  2
Standard
  9
$DIMCLRD
 70
    0
  9
$DIMCLRE
 70
    0
  9
$DIMCLRT
 70
    0
  9
$DIMTFAC
 40
1
  9
$DIMGAP
 40
0.625
  9
$DIMJUST
 70
    0
  9
$DIMSD1
 70
    0
  9
$DIMSD2
 70
    0
  9
$DIMTOLJ
 70
    0
  9
$DIMTZIN
 70
    8
  9
$DIMALTZ
 70
    0
  9
$DIMALTTZ
 70
    0
  9
$DIMUPT
 70
    0
  9
$DIMDEC
 70
    2
  9
$DIMTDEC
 70
    2
  9
$DIMALTU
 70
    2
  9
$DIMALTTD
 70
    3
  9
$DIMTXSTY
  7
STANDARD
  9
$DIMAUNIT
 70
    0
  9
$DIMADEC
 70
    0
  9
$DIMALTRND
 40
0
  9
$DIMAZIN
 70
    0
  9
$DIMDSEP
 70
   44
  9
$DIMATFIT
 70
    3
  9
$DIMFRAC
 70
    0
  9
$DIMLDRBLK
  1
STANDARD
  9
$DIMLUNIT
 70
    2
  9
$DIMLWD
 70
   -2
  9
$DIMLWE
 70
   -2
  9
$DIMTMOVE
 70
    0
  9
$DIMFXL
 40
1
  9
$DIMFXLON
 70
    0
  9
$DIMJOGANG
 40
0.7854
  9
$DIMTFILL
 70
    0
  9
$DIMTFILLCLR
 70
    0
  9
$DIMARCSYM
 70
    0
  9
$DIMLTYPE
  6

  9
$DIMLTEX1
  6

  9
$DIMLTEX2
  6

  9
$LUNITS
 70
    2
  9
$LUPREC
 70
    4
  9
$SKETCHINC
 40
1
  9
$FILLETRAD
 40
0
  9
$AUNITS
 70
    0
  9
$AUPREC
 70
    2
  9
$MENU
  1
.
  9
$ELEVATION
 40
0
  9
$PELEVATION
 40
0
  9
$THICKNESS
 40
0
  9
$LIMCHECK
 70
    0
  9
$CHAMFERA
 40
0
  9
$CHAMFERB
 40
0
  9
$CHAMFERC
 40
0
  9
$CHAMFERD
 40
0
  9
$SKPOLY
 70
    0
  9
$USRTIMER
 70
    1
  9
$ANGBASE
 50
0
  9
$ANGDIR
 70
    0
  9
$PDMODE
 70
   34
  9
$PDSIZE
 40
0
  9
$PLINEWID
 40
0
  9
$SPLFRAME
 70
    0
  9
$SPLINETYPE
 70
    2
  9
$SPLINESEGS
 70
    8
  9
$HANDSEED
  5
20000
  9
$SURFTAB1
 70
    6
  9
$SURFTAB2
 70
    6
  9
$SURFTYPE
 70
    6
  9
$SURFU
 70
    6
  9
$SURFV
 70
    6
  9
$UCSBASE
  2

  9
$UCSNAME
  2

  9
$UCSORG
 10
0
 20
0
 30
0
  9
$UCSXDIR
 10
1
 20
0
 30
0
  9
$UCSYDIR
 10
0
 20
1
 30
0
  9
$UCSORTHOREF
  2

  9
$UCSORTHOVIEW
 70
    0
  9
$UCSORGTOP
 10
0
 20
0
 30
0
  9
$UCSORGBOTTOM
 10
0
 20
0
 30
0
  9
$UCSORGLEFT
 10
0
 20
0
 30
0
  9
$UCSORGRIGHT
 10
0
 20
0
 30
0
  9
$UCSORGFRONT
 10
0
 20
0
 30
0
  9
$UCSORGBACK
 10
0
 20
0
 30
0
  9
$PUCSBASE
  2

  9
$PUCSNAME
  2

  9
$PUCSORG
 10
0
 20
0
 30
0
  9
$PUCSXDIR
 10
1
 20
0
 30
0
  9
$PUCSYDIR
 10
0
 20
1
 30
0
  9
$PUCSORTHOREF
  2

  9
$PUCSORTHOVIEW
 70
    0
  9
$PUCSORGTOP
 10
0
 20
0
 30
0
  9
$PUCSORGBOTTOM
 10
0
 20
0
 30
0
  9
$PUCSORGLEFT
 10
0
 20
0
 30
0
  9
$PUCSORGRIGHT
 10
0
 20
0
 30
0
  9
$PUCSORGFRONT
 10
0
 20
0
 30
0
  9
$PUCSORGBACK
 10
0
 20
0
 30
0
  9
$USERI1
 70
    0
  9
$USERI2
 70
    0
  9
$USERI3
 70
    0
  9
$USERI4
 70
    0
  9
$USERI5
 70
    0
  9
$USERR1
 40
0
  9
$USERR2
 40
0
  9
$USERR3
 40
0
  9
$USERR4
 40
0
  9
$USERR5
 40
0
  9
$WORLDVIEW
 70
    1
  9
$SHADEDGE
 70
    3
  9
$SHADEDIF
 70
   70
  9
$TILEMODE
 70
    1
  9
$MAXACTVP
 70
   64
  9
$PINSBASE
 10
0
 20
0
 30
0
  9
$PLIMCHECK
 70
    0
  9
$PEXTMIN
 10
0
 20
0
 30
0
  9
$PEXTMAX
 10
0
 20
0
 30
0
  9
$GRIDMODE
 70
    1
  9
$SNAPSTYLE
 70
    0
  9
$PLIMMIN
 10
0
 20
0
  9
$PLIMMAX
 10
279.4
 20
215.9
  9
$UNITMODE
 70
    0
  9
$VISRETAIN
 70
    1
  9
$PLINEGEN
 70
    0
  9
$PSLTSCALE
 70
    1
  9
$TREEDEPTH
 70
 3020
  9
$CMLSTYLE
  2
Standard
  9
$CMLJUST
 70
    0
  9
$CMLSCALE
 40
20
  9
$PROXYGRAPHICS
 70
    1
  9
$MEASUREMENT
 70
    1
  9
$CELWEIGHT
370
   -1
  9
$ENDCAPS
280
    0
  9
$JOINSTYLE
280
    0
  9
$LWDISPLAY
290
    0
  9
$INSUNITS
 70
    4
  9
$HYPERLINKBASE
  1

  9
$STYLESHEET
  1

  9
$XEDIT
290
    1
  9
$CEPSNTYPE
380
    0
  9
$PSTYLEMODE
290
    1
  9
$EXTNAMES
290
    1
  9
$PSVPSCALE
 40
1
  9
$OLESTARTUP
290
    0
  9
$SORTENTS
280
  127
  9
$INDEXCTL
280
    0
  9
$HIDETEXT
280
    1
  9
$XCLIPFRAME
290
    0
  9
$HALOGAP
280
    0
  9
$OBSCOLOR
 70
  257
  9
$OBSLTYPE
280
    0
  9
$INTERSECTIONDISPLAY
280
    0
  9
$INTERSECTIONCOLOR
 70
  257
  9
$DIMASSOC
280
    1
  9
$PROJECTNAME
  1

  9
$CAMERADISPLAY
290
    0
  9
$LENSLENGTH
 40
50
  9
$CAMERAHEIGHT
 40
0
  9
$STEPSPERSEC
 40
2
  9
$STEPSIZE
 40
50
  9
$3DDWFPREC
 40
2
  9
$PSOLWIDTH
 40
5
  9
$PSOLHEIGHT
 40
80
  9
$LOFTANG1
 40
1.570796326794897
  9
$LOFTANG2
 40
1.570796326794897
  9
$LOFTMAG1
 40
0
  9
$LOFTMAG2
 40
0
  9
$LOFTPARAM
 70
    7
  9
$LOFTNORMALS
280
    1
  9
$LATITUDE
 40
1
  9
$LONGITUDE
 40
1
  9
$NORTHDIRECTION
 40
0
  9
$TIMEZONE
 70
-8000
  9
$LIGHTGLYPHDISPLAY
280
    1
  9
$TILEMODELIGHTSYNCH
280
    1
  9
$SOLIDHIST
280
    1
  9
$SHOWHIST
280
    1
  9
$DWFFRAME
280
    2
  9
$DGNFRAME
280
    0
  9
$REALWORLDSCALE
290
    1
  9
$INTERFERECOLOR
 62
    1
  9
$CSHADOW
280
    0
  9
$SHADOWPLANELOCATION
 40
0
  0
ENDSEC
  0
SECTION
  2
CLASSES
  0
ENDSEC
  0
SECTION
  2
TABLES
  0
TABLE
  2
VPORT
  5
8
330
0
100
AcDbSymbolTable
 70
    1
  0
VPORT
  5
31
330
2
100
AcDbSymbolTableRecord
100
AcDbViewportTableRecord
  2
*ACTIVE
 70
    0
 10
0
 20
0
 11
1
 21
1
 12
325.1765097690991
 22
108.6445381882787
 13
0
 23
0
 14
10
 24
10
 15
10
 25
10
 16
0
 26
0
 36
1
 17
0
 27
0
 37
0
 40
426.2500000000065
 41
1.856127886323268
 42
50
 43
0
 44
0
 50
0
 51
0
 71
    0
 72
  100
 73
    1
 74
    3
 75
    0
 76
    1
 77
    0
 78
    0
281
    0
 65
    1
110
0
120
0
130
0
111
1
121
0
131
0
112
0
122
1
132
0
 79
    0
146
0
348
10020
 60
    7
 61
    5
292
1
282
    1
141
0
142
0
 63
  250
421
3358443
  0
ENDTAB
  0
TABLE
  2
LTYPE
  5
5
330
0
100
AcDbSymbolTable
 70
    4
  0
LTYPE
  5
14
330
5
100
AcDbSymbolTableRecord
100
AcDbLinetypeTableRecord
  2
ByBlock
 70
    0
  3

 72
   65
 73
    0
 40
0
  0
LTYPE
  5
15
330
5
100
AcDbSymbolTableRecord
100
AcDbLinetypeTableRecord
  2
ByLayer
 70
    0
  3

 72
   65
 73
    0
 40
0
  0
LTYPE
  5
16
330
5
100
AcDbSymbolTableRecord
100
AcDbLinetypeTableRecord
  2
Continuous
 70
    0
  3
Solid line
 72
   65
 73
    0
 40
0
  0
LTYPE
  5
32
330
5
100
AcDbSymbolTableRecord
100
AcDbLinetypeTableRecord
  2
DOT
 70
    0
  3
Dot . . . . . . . . . . . . . . . . . . . . . .
 72
   65
 73
    2
 40
6.35
 49
0
 74
    0
 49
-6.35
 74
    0
  0
LTYPE
  5
33
330
5
100
AcDbSymbolTableRecord
100
AcDbLinetypeTableRecord
  2
DOTTINY
 70
    0
  3
Dot (.15x) .....................................
 72
   65
 73
    2
 40
0.9525
 49
0
 74
    0
 49
-0.9525
 74
    0
  0
LTYPE
  5
34
330
5
100
AcDbSymbolTableRecord
100
AcDbLinetypeTableRecord
  2
DOT2
 70
    0
  3
Dot (.5x) .....................................
 72
   65
 73
    2
 40
3.175
 49
0
 74
    0
 49
-3.175
 74
    0
  0
LTYPE
  5
35
330
5
100
AcDbSymbolTableRecord
100
AcDbLinetypeTableRecord
  2
DOTX2
 70
    0
  3
Dot (2x) .  .  .  .  .  .  .  .  .  .  .  .  .
 72
   65
 73
    2
 40
12.7
 49
0
 74
    0
 49
-12.7
 74
    0
  0
LTYPE
  5
36
330
5
100
AcDbSymbolTableRecord
100
AcDbLinetypeTableRecord
  2
DASHED
 70
    0
  3
Dashed _ _ _ _ _ _ _ _ _ _ _ _ _ _ _ _ _
 72
   65
 73
    2
 40
19.05
 49
12.7
 74
    0
 49
-6.35
 74
    0
  0
LTYPE
  5
37
330
5
100
AcDbSymbolTableRecord
100
AcDbLinetypeTableRecord
  2
DASHEDTINY
 70
    0
  3
Dashed (.15x) _ _ _ _ _ _ _ _ _ _ _ _ _ _ _ _ _
 72
   65
 73
    2
 40
2.8575
 49
1.905
 74
    0
 49
-0.9525
 74
    0
  0
LTYPE
  5
38
330
5
100
AcDbSymbolTableRecord
100
AcDbLinetypeTableRecord
  2
DASHED2
 70
    0
  3
Dashed (.5x) _ _ _ _ _ _ _ _ _ _ _ _ _ _ _ _ _
 72
   65
 73
    2
 40
9.524999999999999
 49
6.35
 74
    0
 49
-3.175
 74
    0
  0
LTYPE
  5
39
330
5
100
AcDbSymbolTableRecord
100
AcDbLinetypeTableRecord
  2
DASHEDX2
 70
    0
  3
Dashed (2x) ____  ____  ____  ____  ____  ___
 72
   65
 73
    2
 40
38.09999999999999
 49
25.4
 74
    0
 49
-12.7
 74
    0
  0
LTYPE
  5
3A
330
5
100
AcDbSymbolTableRecord
100
AcDbLinetypeTableRecord
  2
DASHDOT
 70
    0
  3
Dash dot __ . __ . __ . __ . __ . __ . __ . __
 72
   65
 73
    4
 40
25.4
 49
12.7
 74
    0
 49
-6.35
 74
    0
 49
0
 74
    0
 49
-6.35
 74
    0
  0
LTYPE
  5
3B
330
5
100
AcDbSymbolTableRecord
100
AcDbLinetypeTableRecord
  2
DASHDOTTINY
 70
    0
  3
Dash dot (.15x) _._._._._._._._._._._._._._._.
 72
   65
 73
    4
 40
3.81
 49
1.905
 74
    0
 49
-0.9525
 74
    0
 49
0
 74
    0
 49
-0.9525
 74
    0
  0
LTYPE
  5
3C
330
5
100
AcDbSymbolTableRecord
100
AcDbLinetypeTableRecord
  2
DASHDOT2
 70
    0
  3
Dash dot (.5x) _._._._._._._._._._._._._._._.
 72
   65
 73
    4
 40
12.7
 49
6.35
 74
    0
 49
-3.175
 74
    0
 49
0
 74
    0
 49
-3.175
 74
    0
  0
LTYPE
  5
3D
330
5
100
AcDbSymbolTableRecord
100
AcDbLinetypeTableRecord
  2
DASHDOTX2
 70
    0
  3
Dash dot (2x) ____  .  ____  .  ____  .  ___
 72
   65
 73
    4
 40
50.8
 49
25.4
 74
    0
 49
-12.7
 74
    0
 49
0
 74
    0
 49
-12.7
 74
    0
  0
LTYPE
  5
3E
330
5
100
AcDbSymbolTableRecord
100
AcDbLinetypeTableRecord
  2
DIVIDE
 70
    0
  3
Divide ____ . . ____ . . ____ . . ____ . . ____
 72
   65
 73
    6
 40
31.75
 49
12.7
 74
    0
 49
-6.35
 74
    0
 49
0
 74
    0
 49
-6.35
 74
    0
 49
0
 74
    0
 49
-6.35
 74
    0
  0
LTYPE
  5
3F
330
5
100
AcDbSymbolTableRecord
100
AcDbLinetypeTableRecord
  2
DIVIDETINY
 70
    0
  3
Divide (.15x) __..__..__..__..__..__..__..__.._
 72
   65
 73
    6
 40
4.7625
 49
1.905
 74
    0
 49
-0.9525
 74
    0
 49
0
 74
    0
 49
-0.9525
 74
    0
 49
0
 74
    0
 49
-0.9525
 74
    0
  0
LTYPE
  5
40
330
5
100
AcDbSymbolTableRecord
100
AcDbLinetypeTableRecord
  2
DIVIDE2
 70
    0
  3
Divide (.5x) __..__..__..__..__..__..__..__.._
 72
   65
 73
    6
 40
15.875
 49
6.35
 74
    0
 49
-3.175
 74
    0
 49
0
 74
    0
 49
-3.175
 74
    0
 49
0
 74
    0
 49
-3.175
 74
    0
  0
LTYPE
  5
41
330
5
100
AcDbSymbolTableRecord
100
AcDbLinetypeTableRecord
  2
DIVIDEX2
 70
    0
  3
Divide (2x) ________  .  .  ________  .  .  _
 72
   65
 73
    6
 40
63.5
 49
25.4
 74
    0
 49
-12.7
 74
    0
 49
0
 74
    0
 49
-12.7
 74
    0
 49
0
 74
    0
 49
-12.7
 74
    0
  0
LTYPE
  5
42
330
5
100
AcDbSymbolTableRecord
100
AcDbLinetypeTableRecord
  2
BORDER
 70
    0
  3
Border __ __ . __ __ . __ __ . __ __ . __ __ .
 72
   65
 73
    6
 40
44.45
 49
12.7
 74
    0
 49
-6.35
 74
    0
 49
12.7
 74
    0
 49
-6.35
 74
    0
 49
0
 74
    0
 49
-6.35
 74
    0
  0
LTYPE
  5
43
330
5
100
AcDbSymbolTableRecord
100
AcDbLinetypeTableRecord
  2
BORDERTINY
 70
    0
  3
Border (.15x) __.__.__.__.__.__.__.__.__.__.__.
 72
   65
 73
    6
 40
6.6675
 49
1.905
 74
    0
 49
-0.9525
 74
    0
 49
1.905
 74
    0
 49
-0.9525
 74
    0
 49
0
 74
    0
 49
-0.9525
 74
    0
  0
LTYPE
  5
44
330
5
100
AcDbSymbolTableRecord
100
AcDbLinetypeTableRecord
  2
BORDER2
 70
    0
  3
Border (.5x) __.__.__.__.__.__.__.__.__.__.__.
 72
   65
 73
    6
 40
22.225
 49
6.35
 74
    0
 49
-3.175
 74
    0
 49
6.35
 74
    0
 49
-3.175
 74
    0
 49
0
 74
    0
 49
-3.175
 74
    0
  0
LTYPE
  5
45
330
5
100
AcDbSymbolTableRecord
100
AcDbLinetypeTableRecord
  2
BORDERX2
 70
    0
  3
Border (2x) ____  ____  .  ____  ____  .  ___
 72
   65
 73
    6
 40
88.89999999999999
 49
25.4
 74
    0
 49
-12.7
 74
    0
 49
25.4
 74
    0
 49
-12.7
 74
    0
 49
0
 74
    0
 49
-12.7
 74
    0
  0
LTYPE
  5
46
330
5
100
AcDbSymbolTableRecord
100
AcDbLinetypeTableRecord
  2
CENTER
 70
    0
  3
Center ____ _ ____ _ ____ _ ____ _ ____ _ ____
 72
   65
 73
    4
 40
50.8
 49
31.75
 74
    0
 49
-6.35
 74
    0
 49
6.35
 74
    0
 49
-6.35
 74
    0
  0
LTYPE
  5
47
330
5
100
AcDbSymbolTableRecord
100
AcDbLinetypeTableRecord
  2
CENTERTINY
 70
    0
  3
Center (.15x) ___ _ ___ _ ___ _ ___ _ ___ _ ___
 72
   65
 73
    4
 40
7.619999999999999
 49
4.7625
 74
    0
 49
-0.9525
 74
    0
 49
0.9525
 74
    0
 49
-0.9525
 74
    0
  0
LTYPE
  5
48
330
5
100
AcDbSymbolTableRecord
100
AcDbLinetypeTableRecord
  2
CENTER2
 70
    0
  3
Center (.5x) ___ _ ___ _ ___ _ ___ _ ___ _ ___
 72
   65
 73
    4
 40
28.575
 49
19.05
 74
    0
 49
-3.175
 74
    0
 49
3.175
 74
    0
 49
-3.175
 74
    0
  0
LTYPE
  5
49
330
5
100
AcDbSymbolTableRecord
100
AcDbLinetypeTableRecord
  2
CENTERX2
 70
    0
  3
Center (2x) ________  __  ________  __  _____
 72
   65
 73
    4
 40
101.6
 49
63.5
 74
    0
 49
-12.7
 74
    0
 49
12.7
 74
    0
 49
-12.7
 74
    0
  0
ENDTAB
  0
TABLE
  2
LAYER
  5
2
330
0
100
AcDbSymbolTable
 70
    1
  0
LAYER
  5
10
330
2
100
AcDbSymbolTableRecord
100
AcDbLayerTableRecord
  2
0
 70
    0
 62
    7
  6
CONTINUOUS
370
   -3
390
F
  0
ENDTAB
  0
TABLE
  2
STYLE
  5
3
330
0
100
AcDbSymbolTable
 70
    3
  0
STYLE
  5
4A
330
2
100
AcDbSymbolTableRecord
100
AcDbTextStyleTableRecord
  2
Standard
 70
    0
 40
0
 41
1
 50
0
 71
    0
 42
1
  3
txt
  4

  0
ENDTAB
  0
TABLE
  2
VIEW
  5
6
330
0
100
AcDbSymbolTable
 70
    0
  0
ENDTAB
  0
TABLE
  2
UCS
  5
7
330
0
100
AcDbSymbolTable
 70
    0
  0
ENDTAB
  0
TABLE
  2
APPID
  5
9
330
0
100
AcDbSymbolTable
 70
    1
  0
APPID
  5
12
330
9
100
AcDbSymbolTableRecord
100
AcDbRegAppTableRecord
  2
ACAD
 70
    0
  0
APPID
  5
4B
330
9
100
AcDbSymbolTableRecord
100
AcDbRegAppTableRecord
  2
LibreCad
 70
    0
  0
ENDTAB
  0
TABLE
  2
DIMSTYLE
  5
A
330
0
100
AcDbSymbolTable
 70
    1
100
AcDbDimStyleTable
 71
    1
  0
DIMSTYLE
105
4C
330
A
100
AcDbSymbolTableRecord
100
AcDbDimStyleTableRecord
  2
Standard
 70
    0
 40
1
 41
2.5
 42
0.625
 43
0.38
 44
1.25
 45
0
 46
0
 47
0
 48
0
 49
1
140
2.5
141
0.09
142
2.5
143
25.4
144
1
145
0
146
1
147
0.625
148
0
 71
    0
 72
    0
 73
    0
 74
    1
 75
    0
 76
    0
 77
    0
 78
    1
 79
    0
170
    0
171
    2
172
    0
173
    0
174
    0
175
    0
176
    0
177
    0
178
    0
179
    0
271
    2
272
    4
273
    2
274
    2
275
    0
276
    0
277
    2
278
    0
279
    0
280
    0
281
    0
282
    0
283
    1
284
    0
285
    0
286
    0
288
    0
289
    3
340
standard
341

371
   -2
372
   -2
  0
ENDTAB
  0
TABLE
  2
BLOCK_RECORD
  5
1
330
0
100
AcDbSymbolTable
 70
    2
  0
BLOCK_RECORD
  5
1F
330
1
100
AcDbSymbolTableRecord
100
AcDbBlockTableRecord
  2
*Model_Space
 70
    0
280
    1
281
    0
  0
BLOCK_RECORD
  5
1E
330
1
100
AcDbSymbolTableRecord
100
AcDbBlockTableRecord
  2
*Paper_Space
 70
    0
280
    1
281
    0
  0
ENDTAB
  0
ENDSEC
  0
SECTION
  2
BLOCKS
  0
BLOCK
  5
20
330
1F
100
AcDbEntity
  8
0
100
AcDbBlockBegin
  2
*Model_Space
 70
    0
 10
0
 20
0
 30
0
  3
*Model_Space
  1

  0
ENDBLK
  5
21
330
1F
100
AcDbEntity
  8
0
100
AcDbBlockEnd
  0
BLOCK
  5
1C
330
1B
100
AcDbEntity
  8
0
100
AcDbBlockBegin
  2
*Paper_Space
 70
    0
 10
0
 20
0
 30
0
  3
*Paper_Space
  1

  0
ENDBLK
  5
1D
330
1F
100
AcDbEntity
  8
0
100
AcDbBlockEnd
  0
ENDSEC
  0
SECTION
  2
ENTITIES
  0
LINE
  5
4D
100
AcDbEntity
  8
0
  6
ByLayer
 62
    7
370
   -1
100
AcDbLine
 10
82.103482
 20
9.607586999999995
 11
82.103482
 21
-18.77951000000001
  0
SPLINE
  5
4E
100
AcDbEntity
  8
0
  6
ByLayer
 62
    7
370
   -1
100
AcDbSpline
210
0
220
0
230
0
 70
    8
 71
    3
 72
    8
 73
    4
 74
    0
 42
1e-07
 43
1e-07
 40
0
 40
0
 40
0
 40
0
 40
1
 40
1
 40
1
 40
1
 10
31.599279
 20
12.573799
 30
0
 10
35.320492
 20
13.39218699999999
 30
0
 10
40.159824
 20
10.936825
 30
0
 10
44.164067
 20
6.198688999999995
 30
0
  0
SPLINE
  5
4F
100
AcDbEntity
  8
0
  6
ByLayer
 62
    7
370
   -1
100
AcDbSpline
210
0
220
0
230
0
 70
    8
 71
    3
 72
    8
 73
    4
 74
    0
 42
1e-07
 43
1e-07
 40
0
 40
0
 40
0
 40
0
 40
1
 40
1
 40
1
 40
1
 10
44.164067
 20
6.198688999999995
 30
0
 10
48.16832
 20
1.460550999999995
 30
0
 10
50.676598
 20
-4.778352000000005
 30
0
 10
50.676627
 20
-10
 30
0
  0
SPLINE
  5
50
100
AcDbEntity
  8
0
  6
ByLayer
 62
    7
370
   -1
100
AcDbSpline
210
0
220
0
230
0
 70
    8
 71
    3
 72
    8
 73
    4
 74
    0
 42
1e-07
 43
1e-07
 40
0
 40
0
 40
0
 40
0
 40
1
 40
1
 40
1
 40
1
 10
82.103482
 20
8.144348999999995
 30
0
 10
82.103482
 20
13.365968
 30
0
 10
79.595091
 20
19.60488599999999
 30
0
 10
75.59092200000001
 20
24.34303
 30
0
  0
SPLINE
  5
51
100
AcDbEntity
  8
0
  6
ByLayer
 62
    7
370
   -1
100
AcDbSpline
210
0
220
0
230
0
 70
    8
 71
    3
 72
    8
 73
    4
 74
    0
 42
1e-07
 43
1e-07
 40
0
 40
0
 40
0
 40
0
 40
1
 40
1
 40
1
 40
1
 10
75.59092200000001
 20
24.34303
 30
0
 10
71.586753
 20
29.081174
 30
0
 10
66.747404
 20
31.536536
 30
0
 10
63.026191
 20
30.718148
 30
0
  0
LINE
  5
52
100
AcDbEntity
  8
0
  6
ByLayer
 62
    7
370
   -1
100
AcDbLine
 10
50.676627
 20
-10
 11
50.676627
 21
-38.387011
  0
LINE
  5
53
100
AcDbEntity
  8
0
  6
ByLayer
 62
    7
370
   -1
100
AcDbLine
 10
50.676627
 20
-38.387011
 11
82.103482
 21
-20.242747
  0
LINE
  5
54
100
AcDbEntity
  8
0
  6
ByLayer
 62
    7
370
   -1
100
AcDbLine
 10
82.103482
 20
-20.242747
 11
82.103482
 21
8.144348999999995
  0
LINE
  5
55
100
AcDbEntity
  8
0
  6
ByLayer
 62
    7
370
   -1
100
AcDbLine
 10
82.103482
 20
8.144348999999995
 11
50.676627
 21
-10
  0
LINE
  5
56
100
AcDbEntity
  8
0
  6
ByLayer
 62
    7
370
   -1
100
AcDbLine
 10
1.001847000000002
 20
-9.707335000000004
 11
1.001847000000002
 21
18.679761
  0
SPLINE
  5
57
100
AcDbEntity
  8
0
  6
ByLayer
 62
    7
370
   -1
100
AcDbSpline
210
0
220
0
230
0
 70
    8
 71
    3
 72
    8
 73
    4
 74
    0
 42
1e-07
 43
1e-07
 40
0
 40
0
 40
0
 40
0
 40
1
 40
1
 40
1
 40
1
 10
37.244147
 20
7.813668999999996
 30
0
 10
34.597806
 20
9.341535999999994
 30
0
 10
32.059838
 20
9.592938999999994
 30
0
 10
30.188591
 20
8.512564999999995
 30
0
  0
SPLINE
  5
58
100
AcDbEntity
  8
0
  6
ByLayer
 62
    7
370
   -1
100
AcDbSpline
210
0
220
0
230
0
 70
    8
 71
    3
 72
    8
 73
    4
 74
    0
 42
1e-07
 43
1e-07
 40
0
 40
0
 40
0
 40
0
 40
1
 40
1
 40
1
 40
1
 10
30.188591
 20
8.512564999999995
 30
0
 10
26.291921
 20
6.262823999999995
 30
0
 10
26.291921
 20
-1.032304000000005
 30
0
 10
30.188591
 20
-7.781535000000005
 30
0
  0
SPLINE
  5
59
100
AcDbEntity
  8
0
  6
ByLayer
 62
    7
370
   -1
100
AcDbSpline
210
0
220
0
230
0
 70
    8
 71
    3
 72
    8
 73
    4
 74
    0
 42
1e-07
 43
1e-07
 40
0
 40
0
 40
0
 40
0
 40
1
 40
1
 40
1
 40
1
 10
30.188591
 20
-7.781535000000005
 30
0
 10
34.085262
 20
-14.530767
 30
0
 10
40.403026
 20
-18.178348
 30
0
 10
44.299703
 20
-15.92858500000001
 30
0
  0
SPLINE
  5
5A
100
AcDbEntity
  8
0
  6
ByLayer
 62
    7
370
   -1
100
AcDbSpline
210
0
220
0
230
0
 70
    8
 71
    3
 72
    8
 73
    4
 74
    0
 42
1e-07
 43
1e-07
 40
0
 40
0
 40
0
 40
0
 40
1
 40
1
 40
1
 40
1
 10
44.299703
 20
-15.92858500000001
 30
0
 10
46.170949
 20
-14.84821100000001
 30
0
 10
47.222198
 20
-12.52459
 30
0
 10
47.222198
 20
-9.468857000000003
 30
0
  0
LINE
  5
5B
100
AcDbEntity
  8
0
  6
ByLayer
 62
    7
370
   -1
100
AcDbLine
 10
47.222198
 20
-9.468857000000003
 11
47.222198
 21
-9.468857000000003
  0
SPLINE
  5
5C
100
AcDbEntity
  8
0
  6
ByLayer
 62
    7
370
   -1
100
AcDbSpline
210
0
220
0
230
0
 70
    8
 71
    3
 72
    8
 73
    4
 74
    0
 42
1e-07
 43
1e-07
 40
0
 40
0
 40
0
 40
0
 40
1
 40
1
 40
1
 40
1
 10
11.899858
 20
22.446186
 30
0
 10
9.253460000000002
 20
23.974053
 30
0
 10
6.715435000000002
 20
24.22545599999999
 30
0
 10
4.844302000000002
 20
23.145081
 30
0
  0
SPLINE
  5
5D
100
AcDbEntity
  8
0
  6
ByLayer
 62
    7
370
   -1
100
AcDbSpline
210
0
220
0
230
0
 70
    8
 71
    3
 72
    8
 73
    4
 74
    0
 42
1e-07
 43
1e-07
 40
0
 40
0
 40
0
 40
0
 40
1
 40
1
 40
1
 40
1
 10
4.844302000000002
 20
23.145081
 30
0
 10
0.9476600000000019
 20
20.89534699999999
 30
0
 10
0.9476600000000019
 20
13.600241
 30
0
 10
4.844302000000002
 20
6.850980999999996
 30
0
  0
SPLINE
  5
5E
100
AcDbEntity
  8
0
  6
ByLayer
 62
    7
370
   -1
100
AcDbSpline
210
0
220
0
230
0
 70
    8
 71
    3
 72
    8
 73
    4
 74
    0
 42
1e-07
 43
1e-07
 40
0
 40
0
 40
0
 40
0
 40
1
 40
1
 40
1
 40
1
 10
4.844302000000002
 20
6.850980999999996
 30
0
 10
8.740944000000002
 20
0.1017499999999956
 30
0
 10
15.058743
 20
-3.545803000000006
 30
0
 10
18.955441
 20
-1.296069000000005
 30
0
  0
SPLINE
  5
5F
100
AcDbEntity
  8
0
  6
ByLayer
 62
    7
370
   -1
100
AcDbSpline
210
0
220
0
230
0
 70
    8
 71
    3
 72
    8
 73
    4
 74
    0
 42
1e-07
 43
1e-07
 40
0
 40
0
 40
0
 40
0
 40
1
 40
1
 40
1
 40
1
 10
18.955441
 20
-1.296069000000005
 30
0
 10
20.826688
 20
-0.2156940000000045
 30
0
 10
21.877937
 20
2.107939999999996
 30
0
 10
21.877937
 20
5.163678999999995
 30
0
  0
LINE
  5
60
100
AcDbEntity
  8
0
  6
ByLayer
 62
    7
370
   -1
100
AcDbLine
 10
21.877937
 20
5.163678999999995
 11
21.877937
 21
5.163681999999994
  0
LINE
  5
61
100
AcDbEntity
  8
0
  6
ByLayer
 62
    7
370
   -1
100
AcDbLine
 10
21.877937
 20
5.163681999999994
 11
21.877937
 21
5.163678999999995
  0
LINE
  5
62
100
AcDbEntity
  8
0
  6
ByLayer
 62
    7
370
   -1
100
AcDbLine
 10
21.877937
 20
5.163678999999995
 11
21.877937
 21
5.163681999999994
  0
SPLINE
  5
63
100
AcDbEntity
  8
0
  6
ByLayer
 62
    7
370
   -1
100
AcDbSpline
210
0
220
0
230
0
 70
    8
 71
    3
 72
    8
 73
    4
 74
    0
 42
1e-07
 43
1e-07
 40
0
 40
0
 40
0
 40
0
 40
1
 40
1
 40
1
 40
1
 10
21.877937
 20
5.163681999999994
 30
0
 10
21.877937
 20
7.119204999999996
 30
0
 10
21.44687100000001
 20
9.291440999999995
 30
0
 10
20.625379
 20
11.47578499999999
 30
0
  0
SPLINE
  5
64
100
AcDbEntity
  8
0
  6
ByLayer
 62
    7
370
   -1
100
AcDbSpline
210
0
220
0
230
0
 70
    8
 71
    3
 72
    8
 73
    4
 74
    0
 42
1e-07
 43
1e-07
 40
0
 40
0
 40
0
 40
0
 40
1
 40
1
 40
1
 40
1
 10
16.740053
 20
18.205374
 30
0
 10
15.259092
 20
20.00899999999999
 30
0
 10
13.593417
 20
21.46842699999999
 30
0
 10
11.899858
 20
22.446186
 30
0
  0
SPLINE
  5
65
100
AcDbEntity
  8
0
  6
ByLayer
 62
    7
370
   -1
100
AcDbSpline
210
0
220
0
230
0
 70
    8
 71
    3
 72
    8
 73
    4
 74
    0
 42
1e-07
 43
1e-07
 40
0
 40
0
 40
0
 40
0
 40
1
 40
1
 40
1
 40
1
 10
20.079166
 20
19.22495799999999
 30
0
 10
23.546125
 20
14.45915599999999
 30
0
 10
28.132292
 20
11.81134699999999
 30
0
 10
31.599279
 20
12.573799
 30
0
  0
SPLINE
  5
66
100
AcDbEntity
  8
0
  6
ByLayer
 62
    7
370
   -1
100
AcDbSpline
210
0
220
0
230
0
 70
    8
 71
    3
 72
    8
 73
    4
 74
    0
 42
1e-07
 43
1e-07
 40
0
 40
0
 40
0
 40
0
 40
1
 40
1
 40
1
 40
1
 10
63.026191
 20
30.718148
 30
0
 10
59.559204
 20
29.955668
 30
0
 10
54.973037
 20
32.603449
 30
0
 10
51.506078
 20
37.36933499999999
 30
0
  0
SPLINE
  5
67
100
AcDbEntity
  8
0
  6
ByLayer
 62
    7
370
   -1
100
AcDbSpline
210
0
220
0
230
0
 70
    8
 71
    3
 72
    8
 73
    4
 74
    0
 42
1e-07
 43
1e-07
 40
0
 40
0
 40
0
 40
0
 40
1
 40
1
 40
1
 40
1
 10
37.244147
 20
7.813668999999996
 30
0
 10
38.937678
 20
6.835881999999994
 30
0
 10
40.603365
 20
5.376482999999995
 30
0
 10
42.084315
 20
3.572863999999996
 30
0
  0
SPLINE
  5
68
100
AcDbEntity
  8
0
  6
ByLayer
 62
    7
370
   -1
100
AcDbSpline
210
0
220
0
230
0
 70
    8
 71
    3
 72
    8
 73
    4
 74
    0
 42
1e-07
 43
1e-07
 40
0
 40
0
 40
0
 40
0
 40
1
 40
1
 40
1
 40
1
 10
45.96964
 20
-3.156732000000005
 30
0
 10
46.79116
 20
-5.341075000000004
 30
0
 10
47.222198
 20
-7.513311000000005
 30
0
 10
47.222198
 20
-9.468829000000003
 30
0
  0
SPLINE
  5
69
100
AcDbEntity
  8
0
  6
ByLayer
 62
    7
370
   -1
100
AcDbSpline
210
0
220
0
230
0
 70
    8
 71
    3
 72
    8
 73
    4
 74
    0
 42
1e-07
 43
1e-07
 40
0
 40
0
 40
0
 40
0
 40
1
 40
1
 40
1
 40
1
 10
47.222198
 20
-9.468829000000003
 30
0
 10
41.71148
 20
-6.287225000000007
 30
0
 10
37.244147
 20
1.450418999999995
 30
0
 10
37.244147
 20
7.813668999999996
 30
0
  0
LINE
  5
6A
100
AcDbEntity
  8
0
  6
ByLayer
 62
    7
370
   -1
100
AcDbLine
 10
47.222198
 20
-9.468857000000003
 11
47.222198
 21
-9.468829000000003
  0
LINE
  5
6B
100
AcDbEntity
  8
0
  6
ByLayer
 62
    7
370
   -1
100
AcDbLine
 10
47.222198
 20
-9.468829000000003
 11
47.222198
 21
-9.468857000000003
  0
SPLINE
  5
6C
100
AcDbEntity
  8
0
  6
ByLayer
 62
    7
370
   -1
100
AcDbSpline
210
0
220
0
230
0
 70
    8
 71
    3
 72
    8
 73
    4
 74
    0
 42
1e-07
 43
1e-07
 40
0
 40
0
 40
0
 40
0
 40
1
 40
1
 40
1
 40
1
 10
11.899858
 20
22.446186
 30
0
 10
11.899858
 20
16.08295
 30
0
 10
16.36721
 20
8.345290999999996
 30
0
 10
21.877937
 20
5.163681999999994
 30
0
  0
LINE
  5
6D
100
AcDbEntity
  8
0
  6
ByLayer
 62
    7
370
   -1
100
AcDbLine
 10
1.001847000000002
 20
18.679761
 11
1.001847000000002
 21
17.21649499999999
  0
SPLINE
  5
6E
100
AcDbEntity
  8
0
  6
ByLayer
 62
    7
370
   -1
100
AcDbSpline
210
0
220
0
230
0
 70
    8
 71
    3
 72
    8
 73
    4
 74
    0
 42
1e-07
 43
1e-07
 40
0
 40
0
 40
0
 40
0
 40
1
 40
1
 40
1
 40
1
 10
1.001847000000002
 20
17.21649499999999
 30
0
 10
1.001847000000002
 20
21.89421599999999
 30
0
 10
3.248900000000002
 20
24.888594
 30
0
 10
6.835944000000001
 20
24.991125
 30
0
  0
SPLINE
  5
6F
100
AcDbEntity
  8
0
  6
ByLayer
 62
    7
370
   -1
100
AcDbSpline
210
0
220
0
230
0
 70
    8
 71
    3
 72
    8
 73
    4
 74
    0
 42
1e-07
 43
1e-07
 40
0
 40
0
 40
0
 40
0
 40
1
 40
1
 40
1
 40
1
 10
6.835944000000001
 20
24.991125
 30
0
 10
10.422989
 20
25.093628
 30
0
 10
14.758345
 20
22.28735099999999
 30
0
 10
18.091926
 20
17.70490899999999
 30
0
  0
LINE
  5
70
100
AcDbEntity
  8
0
  6
ByLayer
 62
    7
370
   -1
100
AcDbLine
 10
18.091926
 20
17.70490899999999
 11
20.079166
 21
19.22495799999999
  0
SPLINE
  5
71
100
AcDbEntity
  8
0
  6
ByLayer
 62
    7
370
   -1
100
AcDbSpline
210
0
220
0
230
0
 70
    8
 71
    3
 72
    8
 73
    4
 74
    0
 42
1e-07
 43
1e-07
 40
0
 40
0
 40
0
 40
0
 40
1
 40
1
 40
1
 40
1
 10
20.079166
 20
19.22495799999999
 30
0
 10
15.245771
 20
25.869034
 30
0
 10
8.718084000000001
 20
28.953356
 30
0
 10
4.564902000000002
 20
26.555483
 30
0
  0
LINE
  5
72
100
AcDbEntity
  8
0
  6
ByLayer
 62
    7
370
   -1
100
AcDbLine
 10
82.628415
 20
8.875953999999995
 11
82.628415
 21
-19.51114300000001
  0
SPLINE
  5
73
100
AcDbEntity
  8
0
  6
ByLayer
 62
    7
370
   -1
100
AcDbSpline
210
0
220
0
230
0
 70
    8
 71
    3
 72
    8
 73
    4
 74
    0
 42
1e-07
 43
1e-07
 40
0
 40
0
 40
0
 40
0
 40
1
 40
1
 40
1
 40
1
 10
82.628415
 20
-19.51114300000001
 30
0
 10
82.628415
 20
-19.785547
 30
0
 10
82.439609
 20
-20.048719
 30
0
 10
82.103482
 20
-20.242747
 30
0
  0
LINE
  5
74
100
AcDbEntity
  8
0
  6
ByLayer
 62
    7
370
   -1
100
AcDbLine
 10
82.103482
 20
-20.242747
 11
50.676627
 21
-38.387011
  0
LINE
  5
75
100
AcDbEntity
  8
0
  6
ByLayer
 62
    7
370
   -1
100
AcDbLine
 10
50.676627
 20
-38.387011
 11
48.142186
 21
-38.387011
  0
LINE
  5
76
100
AcDbEntity
  8
0
  6
ByLayer
 62
    7
370
   -1
100
AcDbLine
 10
48.142186
 20
-38.387011
 11
48.142186
 21
-10
  0
SPLINE
  5
77
100
AcDbEntity
  8
0
  6
ByLayer
 62
    7
370
   -1
100
AcDbSpline
210
0
220
0
230
0
 70
    8
 71
    3
 72
    8
 73
    4
 74
    0
 42
1e-07
 43
1e-07
 40
0
 40
0
 40
0
 40
0
 40
1
 40
1
 40
1
 40
1
 10
48.142186
 20
-10
 30
0
 10
48.142186
 20
-5.322279000000005
 30
0
 10
45.895161
 20
0.2667369999999956
 30
0
 10
42.308029
 20
4.511324999999996
 30
0
  0
SPLINE
  5
78
100
AcDbEntity
  8
0
  6
ByLayer
 62
    7
370
   -1
100
AcDbSpline
210
0
220
0
230
0
 70
    8
 71
    3
 72
    8
 73
    4
 74
    0
 42
1e-07
 43
1e-07
 40
0
 40
0
 40
0
 40
0
 40
1
 40
1
 40
1
 40
1
 10
42.308029
 20
4.511324999999996
 30
0
 10
38.720903
 20
8.755896999999996
 30
0
 10
34.385659
 20
10.95550799999999
 30
0
 10
31.052079
 20
10.22238
 30
0
  0
SPLINE
  5
79
100
AcDbEntity
  8
0
  6
ByLayer
 62
    7
370
   -1
100
AcDbSpline
210
0
220
0
230
0
 70
    8
 71
    3
 72
    8
 73
    4
 74
    0
 42
1e-07
 43
1e-07
 40
0
 40
0
 40
0
 40
0
 40
1
 40
1
 40
1
 40
1
 10
31.052079
 20
10.22238
 30
0
 10
27.151739
 20
9.364592999999996
 30
0
 10
21.992294
 20
12.343393
 30
0
 10
18.091926
 20
17.70490899999999
 30
0
  0
SPLINE
  5
7A
100
AcDbEntity
  8
0
  6
ByLayer
 62
    7
370
   -1
100
AcDbSpline
210
0
220
0
230
0
 70
    8
 71
    3
 72
    8
 73
    4
 74
    0
 42
1e-07
 43
1e-07
 40
0
 40
0
 40
0
 40
0
 40
1
 40
1
 40
1
 40
1
 10
18.091926
 20
17.70490899999999
 30
0
 10
14.758345
 20
22.28735099999999
 30
0
 10
10.422989
 20
25.093628
 30
0
 10
6.835944000000001
 20
24.991125
 30
0
  0
SPLINE
  5
7B
100
AcDbEntity
  8
0
  6
ByLayer
 62
    7
370
   -1
100
AcDbSpline
210
0
220
0
230
0
 70
    8
 71
    3
 72
    8
 73
    4
 74
    0
 42
1e-07
 43
1e-07
 40
0
 40
0
 40
0
 40
0
 40
1
 40
1
 40
1
 40
1
 10
6.835944000000001
 20
24.991125
 30
0
 10
3.248900000000002
 20
24.888594
 30
0
 10
1.001847000000002
 20
21.89421599999999
 30
0
 10
1.001847000000002
 20
17.21649499999999
 30
0
  0
LINE
  5
7C
100
AcDbEntity
  8
0
  6
ByLayer
 62
    7
370
   -1
100
AcDbLine
 10
48.142186
 20
-38.387011
 11
1.001847000000002
 21
-11.170601
  0
LINE
  5
7D
100
AcDbEntity
  8
0
  6
ByLayer
 62
    7
370
   -1
100
AcDbLine
 10
1.001847000000002
 20
-11.170601
 11
1.001847000000002
 21
-9.707335000000004
  0
LINE
  5
7E
100
AcDbEntity
  8
0
  6
ByLayer
 62
    7
370
   -1
100
AcDbLine
 10
82.103482
 20
-18.77951000000001
 11
82.103482
 21
9.607586999999995
  0
SPLINE
  5
7F
100
AcDbEntity
  8
0
  6
ByLayer
 62
    7
370
   -1
100
AcDbSpline
210
0
220
0
230
0
 70
    8
 71
    3
 72
    8
 73
    4
 74
    0
 42
1e-07
 43
1e-07
 40
0
 40
0
 40
0
 40
0
 40
1
 40
1
 40
1
 40
1
 10
82.628415
 20
8.875953999999995
 30
0
 10
82.628415
 20
8.601548999999995
 30
0
 10
82.439609
 20
8.338376999999994
 30
0
 10
82.103482
 20
8.144348999999995
 30
0
  0
SPLINE
  5
80
100
AcDbEntity
  8
0
  6
ByLayer
 62
    7
370
   -1
100
AcDbSpline
210
0
220
0
230
0
 70
    8
 71
    3
 72
    8
 73
    4
 74
    0
 42
1e-07
 43
1e-07
 40
0
 40
0
 40
0
 40
0
 40
1
 40
1
 40
1
 40
1
 10
51.506078
 20
37.36933499999999
 30
0
 10
46.672683
 20
44.01341099999999
 30
0
 10
40.145098
 20
47.09781699999999
 30
0
 10
35.991871
 20
44.699775
 30
0
  0
LINE
  5
81
100
AcDbEntity
  8
0
  6
ByLayer
 62
    7
370
   -1
100
AcDbLine
 10
1.001847000000002
 20
18.679761
 11
1.001847000000002
 21
18.679761
  0
LINE
  5
82
100
AcDbEntity
  8
0
  6
ByLayer
 62
    7
370
   -1
100
AcDbLine
 10
1.001847000000002
 20
18.679761
 11
1.001847000000002
 21
18.679761
  0
LINE
  5
83
100
AcDbEntity
  8
0
  6
ByLayer
 62
    7
370
   -1
100
AcDbLine
 10
1.001847000000002
 20
18.679761
 11
1.001847000000002
 21
18.679761
  0
SPLINE
  5
84
100
AcDbEntity
  8
0
  6
ByLayer
 62
    7
370
   -1
100
AcDbSpline
210
0
220
0
230
0
 70
    8
 71
    3
 72
    8
 73
    4
 74
    0
 42
1e-07
 43
1e-07
 40
0
 40
0
 40
0
 40
0
 40
1
 40
1
 40
1
 40
1
 10
1.001847000000002
 20
18.679761
 30
0
 10
1.001847000000002
 20
22.40532
 30
0
 10
2.283418000000002
 20
25.23829499999999
 30
0
 10
4.564902000000002
 20
26.555483
 30
0
  0
SPLINE
  5
85
100
AcDbEntity
  8
0
  6
ByLayer
 62
    7
370
   -1
100
AcDbSpline
210
0
220
0
230
0
 70
    8
 71
    3
 72
    8
 73
    4
 74
    0
 42
1e-07
 43
1e-07
 40
0
 40
0
 40
0
 40
0
 40
1
 40
1
 40
1
 40
1
 10
4.564902000000002
 20
26.555483
 30
0
 10
8.718084000000001
 20
28.953356
 30
0
 10
15.245771
 20
25.869034
 30
0
 10
20.079166
 20
19.22495799999999
 30
0
  0
SPLINE
  5
86
100
AcDbEntity
  8
0
  6
ByLayer
 62
    7
370
   -1
100
AcDbSpline
210
0
220
0
230
0
 70
    8
 71
    3
 72
    8
 73
    4
 74
    0
 42
1e-07
 43
1e-07
 40
0
 40
0
 40
0
 40
0
 40
1
 40
1
 40
1
 40
1
 10
51.506078
 20
37.36933499999999
 30
0
 10
51.913973
 20
37.604709
 30
0
 10
52.185358
 20
37.70376899999999
 30
0
 10
52.235255
 20
37.635189
 30
0
  0
SPLINE
  5
87
100
AcDbEntity
  8
0
  6
ByLayer
 62
    7
370
   -1
100
AcDbSpline
210
0
220
0
230
0
 70
    8
 71
    3
 72
    8
 73
    4
 74
    0
 42
1e-07
 43
1e-07
 40
0
 40
0
 40
0
 40
0
 40
1
 40
1
 40
1
 40
1
 10
52.235255
 20
37.635189
 30
0
 10
53.382009
 20
36.057002
 30
0
 10
54.682686
 20
34.66169499999999
 30
0
 10
56.011219
 20
33.566391
 30
0
  0
SPLINE
  5
88
100
AcDbEntity
  8
0
  6
ByLayer
 62
    7
370
   -1
100
AcDbSpline
210
0
220
0
230
0
 70
    8
 71
    3
 72
    8
 73
    4
 74
    0
 42
1e-07
 43
1e-07
 40
0
 40
0
 40
0
 40
0
 40
1
 40
1
 40
1
 40
1
 10
56.011219
 20
33.566391
 30
0
 10
57.140052
 20
32.633364
 30
0
 10
58.287454
 20
31.919342
 30
0
 10
59.354113
 20
31.453732
 30
0
  0
SPLINE
  5
89
100
AcDbEntity
  8
0
  6
ByLayer
 62
    7
370
   -1
100
AcDbSpline
210
0
220
0
230
0
 70
    8
 71
    3
 72
    8
 73
    4
 74
    0
 42
1e-07
 43
1e-07
 40
0
 40
0
 40
0
 40
0
 40
1
 40
1
 40
1
 40
1
 10
63.361274
 20
30.848619
 30
0
 10
64.13967100000001
 20
31.019279
 30
0
 10
64.954221
 20
31.069091
 30
0
 10
65.804867
 20
30.99799899999999
 30
0
  0
SPLINE
  5
8A
100
AcDbEntity
  8
0
  6
ByLayer
 62
    7
370
   -1
100
AcDbSpline
210
0
220
0
230
0
 70
    8
 71
    3
 72
    8
 73
    4
 74
    0
 42
1e-07
 43
1e-07
 40
0
 40
0
 40
0
 40
0
 40
1
 40
1
 40
1
 40
1
 10
65.804867
 20
30.99799899999999
 30
0
 10
67.499188
 20
30.857283
 30
0
 10
69.30179699999999
 20
30.227476
 30
0
 10
71.07452000000001
 20
29.16251099999999
 30
0
  0
SPLINE
  5
8B
100
AcDbEntity
  8
0
  6
ByLayer
 62
    7
370
   -1
100
AcDbSpline
210
0
220
0
230
0
 70
    8
 71
    3
 72
    8
 73
    4
 74
    0
 42
1e-07
 43
1e-07
 40
0
 40
0
 40
0
 40
0
 40
1
 40
1
 40
1
 40
1
 10
71.07452000000001
 20
29.16251099999999
 30
0
 10
72.344238
 20
28.401075
 30
0
 10
73.597587
 20
27.41826399999999
 30
0
 10
74.780098
 20
26.25914899999999
 30
0
  0
SPLINE
  5
8C
100
AcDbEntity
  8
0
  6
ByLayer
 62
    7
370
   -1
100
AcDbSpline
210
0
220
0
230
0
 70
    8
 71
    3
 72
    8
 73
    4
 74
    0
 42
1e-07
 43
1e-07
 40
0
 40
0
 40
0
 40
0
 40
1
 40
1
 40
1
 40
1
 10
74.780098
 20
26.25914899999999
 30
0
 10
77.588773
 20
23.519139
 30
0
 10
79.96677800000001
 20
19.761717
 30
0
 10
81.314671
 20
15.93862099999999
 30
0
  0
SPLINE
  5
8D
100
AcDbEntity
  8
0
  6
ByLayer
 62
    7
370
   -1
100
AcDbSpline
210
0
220
0
230
0
 70
    8
 71
    3
 72
    8
 73
    4
 74
    0
 42
1e-07
 43
1e-07
 40
0
 40
0
 40
0
 40
0
 40
1
 40
1
 40
1
 40
1
 10
81.314671
 20
15.93862099999999
 30
0
 10
82.175449
 20
13.516675
 30
0
 10
82.630109
 20
11.081013
 30
0
 10
82.628415
 20
8.875953999999995
 30
0
  0
SPLINE
  5
8E
100
AcDbEntity
  8
0
  6
ByLayer
 62
    7
370
   -1
100
AcDbSpline
210
0
220
0
230
0
 70
    8
 71
    3
 72
    8
 73
    4
 74
    0
 42
1e-07
 43
1e-07
 40
0
 40
0
 40
0
 40
0
 40
1
 40
1
 40
1
 40
1
 10
81.314671
 20
15.93862099999999
 30
0
 10
79.96677800000001
 20
19.761717
 30
0
 10
77.588773
 20
23.519139
 30
0
 10
74.780098
 20
26.25914899999999
 30
0
  0
SPLINE
  5
8F
100
AcDbEntity
  8
0
  6
ByLayer
 62
    7
370
   -1
100
AcDbSpline
210
0
220
0
230
0
 70
    8
 71
    3
 72
    8
 73
    4
 74
    0
 42
1e-07
 43
1e-07
 40
0
 40
0
 40
0
 40
0
 40
1
 40
1
 40
1
 40
1
 10
63.361274
 20
30.848619
 30
0
 10
63.244236
 20
30.82287999999999
 30
0
 10
63.131686
 20
30.779051
 30
0
 10
63.026191
 20
30.718148
 30
0
  0
SPLINE
  5
90
100
AcDbEntity
  8
0
  6
ByLayer
 62
    7
370
   -1
100
AcDbSpline
210
0
220
0
230
0
 70
    8
 71
    3
 72
    8
 73
    4
 74
    0
 42
1e-07
 43
1e-07
 40
0
 40
0
 40
0
 40
0
 40
1
 40
1
 40
1
 40
1
 10
63.026191
 20
30.718148
 30
0
 10
63.131686
 20
30.779051
 30
0
 10
63.244236
 20
30.82287999999999
 30
0
 10
63.361274
 20
30.848619
 30
0
  0
SPLINE
  5
91
100
AcDbEntity
  8
0
  6
ByLayer
 62
    7
370
   -1
100
AcDbSpline
210
0
220
0
230
0
 70
    8
 71
    3
 72
    8
 73
    4
 74
    0
 42
1e-07
 43
1e-07
 40
0
 40
0
 40
0
 40
0
 40
1
 40
1
 40
1
 40
1
 10
63.361274
 20
30.848619
 30
0
 10
62.35137
 20
30.621063
 30
0
 10
60.971388
 20
30.744225
 30
0
 10
59.354113
 20
31.453732
 30
0
  0
LINE
  5
92
100
AcDbEntity
  8
0
  6
ByLayer
 62
    7
370
   -1
100
AcDbLine
 10
35.991871
 20
44.699775
 11
4.564902000000002
 21
26.555483
  0
SPLINE
  5
93
100
AcDbEntity
  8
0
  6
ByLayer
 62
    7
370
   -1
100
AcDbSpline
210
0
220
0
230
0
 70
    8
 71
    3
 72
    8
 73
    4
 74
    0
 42
1e-07
 43
1e-07
 40
0
 40
0
 40
0
 40
0
 40
1
 40
1
 40
1
 40
1
 10
4.564902000000002
 20
26.555483
 30
0
 10
2.283418000000002
 20
25.23829499999999
 30
0
 10
1.001847000000002
 20
22.40532
 30
0
 10
1.001847000000002
 20
18.679761
 30
0
  0
SPLINE
  5
94
100
AcDbEntity
  8
0
  6
ByLayer
 62
    7
370
   -1
100
AcDbSpline
210
0
220
0
230
0
 70
    8
 71
    3
 72
    8
 73
    4
 74
    0
 42
1e-07
 43
1e-07
 40
0
 40
0
 40
0
 40
0
 40
1
 40
1
 40
1
 40
1
 10
16.740053
 20
18.205374
 30
0
 10
18.373245
 20
16.216328
 30
0
 10
19.719417
 20
13.884721
 30
0
 10
20.625379
 20
11.47578499999999
 30
0
  0
LINE
  5
95
100
AcDbEntity
  8
0
  6
ByLayer
 62
    7
370
   -1
100
AcDbLine
 10
50.676627
 20
-10
 11
48.142186
 21
-10
  0
LINE
  5
96
100
AcDbEntity
  8
0
  6
ByLayer
 62
    7
370
   -1
100
AcDbLine
 10
31.052079
 20
10.22238
 11
31.599279
 21
12.573799
  0
SPLINE
  5
97
100
AcDbEntity
  8
0
  6
ByLayer
 62
    7
370
   -1
100
AcDbSpline
210
0
220
0
230
0
 70
    8
 71
    3
 72
    8
 73
    4
 74
    0
 42
1e-07
 43
1e-07
 40
0
 40
0
 40
0
 40
0
 40
1
 40
1
 40
1
 40
1
 10
45.96964
 20
-3.156732000000005
 30
0
 10
44.050557
 20
-1.508526000000005
 30
0
 10
42.552168
 20
1.086766999999995
 30
0
 10
42.084315
 20
3.572863999999996
 30
0
  0
SPLINE
  5
98
100
AcDbEntity
  8
0
  6
ByLayer
 62
    7
370
   -1
100
AcDbSpline
210
0
220
0
230
0
 70
    8
 71
    3
 72
    8
 73
    4
 74
    0
 42
1e-07
 43
1e-07
 40
0
 40
0
 40
0
 40
0
 40
1
 40
1
 40
1
 40
1
 10
20.079166
 20
19.22495799999999
 30
0
 10
23.546125
 20
14.45915599999999
 30
0
 10
28.132292
 20
11.81134699999999
 30
0
 10
31.599279
 20
12.573799
 30
0
  0
LINE
  5
99
100
AcDbEntity
  8
0
  6
ByLayer
 62
    7
370
   -1
100
AcDbLine
 10
18.091926
 20
17.70490899999999
 11
20.079166
 21
19.22495799999999
  0
LINE
  5
9A
100
AcDbEntity
  8
0
  6
ByLayer
 62
    7
370
   -1
100
AcDbLine
 10
82.628415
 20
8.875953999999995
 11
82.628415
 21
-19.51114300000001
  0
SPLINE
  5
9B
100
AcDbEntity
  8
0
  6
ByLayer
 62
    7
370
   -1
100
AcDbSpline
210
0
220
0
230
0
 70
    8
 71
    3
 72
    8
 73
    4
 74
    0
 42
1e-07
 43
1e-07
 40
0
 40
0
 40
0
 40
0
 40
1
 40
1
 40
1
 40
1
 10
82.628415
 20
-19.51114300000001
 30
0
 10
82.628415
 20
-19.785547
 30
0
 10
82.439609
 20
-20.048719
 30
0
 10
82.103482
 20
-20.242747
 30
0
  0
LINE
  5
9C
100
AcDbEntity
  8
0
  6
ByLayer
 62
    7
370
   -1
100
AcDbLine
 10
82.103482
 20
-20.242747
 11
82.103482
 21
8.144348999999995
  0
SPLINE
  5
9D
100
AcDbEntity
  8
0
  6
ByLayer
 62
    7
370
   -1
100
AcDbSpline
210
0
220
0
230
0
 70
    8
 71
    3
 72
    8
 73
    4
 74
    0
 42
1e-07
 43
1e-07
 40
0
 40
0
 40
0
 40
0
 40
1
 40
1
 40
1
 40
1
 10
82.103482
 20
8.144348999999995
 30
0
 10
82.439609
 20
8.338376999999994
 30
0
 10
82.628415
 20
8.601548999999995
 30
0
 10
82.628415
 20
8.875953999999995
 30
0
  0
SPLINE
  5
9E
100
AcDbEntity
  8
0
  6
ByLayer
 62
    7
370
   -1
100
AcDbSpline
210
0
220
0
230
0
 70
    8
 71
    3
 72
    8
 73
    4
 74
    0
 42
1e-07
 43
1e-07
 40
0
 40
0
 40
0
 40
0
 40
1
 40
1
 40
1
 40
1
 10
52.235255
 20
37.635189
 30
0
 10
52.185358
 20
37.70376899999999
 30
0
 10
51.913973
 20
37.604709
 30
0
 10
51.506078
 20
37.36933499999999
 30
0
  0
SPLINE
  5
9F
100
AcDbEntity
  8
0
  6
ByLayer
 62
    7
370
   -1
100
AcDbSpline
210
0
220
0
230
0
 70
    8
 71
    3
 72
    8
 73
    4
 74
    0
 42
1e-07
 43
1e-07
 40
0
 40
0
 40
0
 40
0
 40
1
 40
1
 40
1
 40
1
 10
51.506078
 20
37.36933499999999
 30
0
 10
46.672683
 20
44.01341099999999
 30
0
 10
40.145098
 20
47.09781699999999
 30
0
 10
35.991871
 20
44.699775
 30
0
  0
SPLINE
  5
A0
100
AcDbEntity
  8
0
  6
ByLayer
 62
    7
370
   -1
100
AcDbSpline
210
0
220
0
230
0
 70
    8
 71
    3
 72
    8
 73
    4
 74
    0
 42
1e-07
 43
1e-07
 40
0
 40
0
 40
0
 40
0
 40
1
 40
1
 40
1
 40
1
 10
35.991871
 20
44.699775
 30
0
 10
37.86179
 20
45.785202
 30
0
 10
40.224083
 20
45.955946
 30
0
 10
42.67027
 20
45.189995
 30
0
  0
SPLINE
  5
A1
100
AcDbEntity
  8
0
  6
ByLayer
 62
    7
370
   -1
100
AcDbSpline
210
0
220
0
230
0
 70
    8
 71
    3
 72
    8
 73
    4
 74
    0
 42
1e-07
 43
1e-07
 40
0
 40
0
 40
0
 40
0
 40
1
 40
1
 40
1
 40
1
 10
42.67027
 20
45.189995
 30
0
 10
44.867251
 20
44.51125099999999
 30
0
 10
47.14566
 20
43.08489999999999
 30
0
 10
49.220557
 20
41.10003099999999
 30
0
  0
SPLINE
  5
A2
100
AcDbEntity
  8
0
  6
ByLayer
 62
    7
370
   -1
100
AcDbSpline
210
0
220
0
230
0
 70
    8
 71
    3
 72
    8
 73
    4
 74
    0
 42
1e-07
 43
1e-07
 40
0
 40
0
 40
0
 40
0
 40
1
 40
1
 40
1
 40
1
 10
49.220557
 20
41.10003099999999
 30
0
 10
50.293707
 20
40.07528199999999
 30
0
 10
51.311485
 20
38.90518899999999
 30
0
 10
52.235255
 20
37.635189
 30
0
  0
SPLINE
  5
A3
100
AcDbEntity
  8
0
  6
ByLayer
 62
    7
370
   -1
100
AcDbSpline
210
0
220
0
230
0
 70
    8
 71
    3
 72
    8
 73
    4
 74
    0
 42
1e-07
 43
1e-07
 40
0
 40
0
 40
0
 40
0
 40
1
 40
1
 40
1
 40
1
 10
45.96964
 20
-3.156732000000005
 30
0
 10
45.063678
 20
-0.7477960000000046
 30
0
 10
43.717526
 20
1.583808999999995
 30
0
 10
42.084315
 20
3.572863999999996
 30
0
  0
SPLINE
  5
A4
100
AcDbEntity
  8
0
  6
ByLayer
 62
    7
370
   -1
100
AcDbSpline
210
0
220
0
230
0
 70
    8
 71
    3
 72
    8
 73
    4
 74
    0
 42
1e-07
 43
1e-07
 40
0
 40
0
 40
0
 40
0
 40
1
 40
1
 40
1
 40
1
 10
16.740053
 20
18.205374
 30
0
 10
17.207893
 20
15.719278
 30
0
 10
18.706267
 20
13.124019
 30
0
 10
20.625379
 20
11.47578499999999
 30
0
  0
LINE
  5
A5
100
AcDbEntity
  8
0
  6
ByLayer
 62
    7
370
   -1
100
AcDbLine
 10
1.001847000000002
 20
18.679761
 11
1.001847000000002
 21
17.21649499999999
  0
LINE
  5
A6
100
AcDbEntity
  8
0
  6
ByLayer
 62
    7
370
   -1
100
AcDbLine
 10
1.001847000000002
 20
18.679761
 11
1.001847000000002
 21
18.679761
  0
SPLINE
  5
A7
100
AcDbEntity
  8
0
  6
ByLayer
 62
    7
370
   -1
100
AcDbSpline
210
0
220
0
230
0
 70
    8
 71
    3
 72
    8
 73
    4
 74
    0
 42
1e-07
 43
1e-07
 40
0
 40
0
 40
0
 40
0
 40
1
 40
1
 40
1
 40
1
 10
1.001847000000002
 20
18.679761
 30
0
 10
1.001847000000002
 20
22.40532
 30
0
 10
2.283418000000002
 20
25.23829499999999
 30
0
 10
4.564902000000002
 20
26.555483
 30
0
  0
SPLINE
  5
A8
100
AcDbEntity
  8
0
  6
ByLayer
 62
    7
370
   -1
100
AcDbSpline
210
0
220
0
230
0
 70
    8
 71
    3
 72
    8
 73
    4
 74
    0
 42
1e-07
 43
1e-07
 40
0
 40
0
 40
0
 40
0
 40
1
 40
1
 40
1
 40
1
 10
82.628415
 20
-19.51114300000001
 30
0
 10
82.628415
 20
-19.785547
 30
0
 10
82.439609
 20
-20.048719
 30
0
 10
82.103482
 20
-20.242747
 30
0
  0
LINE
  5
A9
100
AcDbEntity
  8
0
  6
ByLayer
 62
    7
370
   -1
100
AcDbLine
 10
50.676627
 20
-38.387011
 11
82.103482
 21
-20.242747
  0
SPLINE
  5
AA
100
AcDbEntity
  8
0
  6
ByLayer
 62
    7
370
   -1
100
AcDbSpline
210
0
220
0
230
0
 70
    8
 71
    3
 72
    8
 73
    4
 74
    0
 42
1e-07
 43
1e-07
 40
0
 40
0
 40
0
 40
0
 40
1
 40
1
 40
1
 40
1
 10
20.079166
 20
19.22495799999999
 30
0
 10
23.546125
 20
14.45915599999999
 30
0
 10
28.132292
 20
11.81134699999999
 30
0
 10
31.599279
 20
12.573799
 30
0
  0
SPLINE
  5
AB
100
AcDbEntity
  8
0
  6
ByLayer
 62
    7
370
   -1
100
AcDbSpline
210
0
220
0
230
0
 70
    8
 71
    3
 72
    8
 73
    4
 74
    0
 42
1e-07
 43
1e-07
 40
0
 40
0
 40
0
 40
0
 40
1
 40
1
 40
1
 40
1
 10
18.091926
 20
17.70490899999999
 30
0
 10
14.758345
 20
22.28735099999999
 30
0
 10
10.422989
 20
25.093628
 30
0
 10
6.835944000000001
 20
24.991125
 30
0
  0
SPLINE
  5
AC
100
AcDbEntity
  8
0
  6
ByLayer
 62
    7
370
   -1
100
AcDbSpline
210
0
220
0
230
0
 70
    8
 71
    3
 72
    8
 73
    4
 74
    0
 42
1e-07
 43
1e-07
 40
0
 40
0
 40
0
 40
0
 40
1
 40
1
 40
1
 40
1
 10
6.835944000000001
 20
24.991125
 30
0
 10
3.248900000000002
 20
24.888594
 30
0
 10
1.001847000000002
 20
21.89421599999999
 30
0
 10
1.001847000000002
 20
17.21649499999999
 30
0
  0
LINE
  5
AD
100
AcDbEntity
  8
0
  6
ByLayer
 62
    7
370
   -1
100
AcDbLine
 10
1.001847000000002
 20
18.679761
 11
1.001847000000002
 21
17.21649499999999
  0
LINE
  5
AE
100
AcDbEntity
  8
0
  6
ByLayer
 62
    7
370
   -1
100
AcDbLine
 10
20.079166
 20
19.22495799999999
 11
51.506078
 21
37.36933499999999
  0
SPLINE
  5
AF
100
AcDbEntity
  8
0
  6
ByLayer
 62
    7
370
   -1
100
AcDbSpline
210
0
220
0
230
0
 70
    8
 71
    3
 72
    8
 73
    4
 74
    0
 42
1e-07
 43
1e-07
 40
0
 40
0
 40
0
 40
0
 40
1
 40
1
 40
1
 40
1
 10
51.506078
 20
37.36933499999999
 30
0
 10
46.672683
 20
44.01341099999999
 30
0
 10
40.145098
 20
47.09781699999999
 30
0
 10
35.991871
 20
44.699775
 30
0
  0
LINE
  5
B0
100
AcDbEntity
  8
0
  6
ByLayer
 62
    7
370
   -1
100
AcDbLine
 10
82.103482
 20
-20.242747
 11
82.103482
 21
8.144348999999995
  0
LINE
  5
B1
100
AcDbEntity
  8
0
  6
ByLayer
 62
    7
370
   -1
100
AcDbLine
 10
31.599279
 20
12.573799
 11
63.026191
 21
30.718148
  0
LINE
  5
B2
100
AcDbEntity
  8
0
  6
ByLayer
 62
    7
370
   -1
100
AcDbLine
 10
1.001847000000002
 20
18.679761
 11
1.001847000000002
 21
17.21649499999999
  0
LINE
  5
B3
100
AcDbEntity
  8
0
  6
ByLayer
 62
    7
370
   -1
100
AcDbLine
 10
20.079166
 20
19.22495799999999
 11
18.091926
 21
17.70490899999999
  0
SPLINE
  5
B4
100
AcDbEntity
  8
0
  6
ByLayer
 62
    7
370
   -1
100
AcDbSpline
210
0
220
0
230
0
 70
    8
 71
    3
 72
    8
 73
    4
 74
    0
 42
1e-07
 43
1e-07
 40
0
 40
0
 40
0
 40
0
 40
1
 40
1
 40
1
 40
1
 10
52.235255
 20
37.635189
 30
0
 10
52.185358
 20
37.70376899999999
 30
0
 10
51.913973
 20
37.604709
 30
0
 10
51.506078
 20
37.36933499999999
 30
0
  0
SPLINE
  5
B5
100
AcDbEntity
  8
0
  6
ByLayer
 62
    7
370
   -1
100
AcDbSpline
210
0
220
0
230
0
 70
    8
 71
    3
 72
    8
 73
    4
 74
    0
 42
1e-07
 43
1e-07
 40
0
 40
0
 40
0
 40
0
 40
1
 40
1
 40
1
 40
1
 10
63.361274
 20
30.848619
 30
0
 10
63.244236
 20
30.82287999999999
 30
0
 10
63.131686
 20
30.779051
 30
0
 10
63.026191
 20
30.718148
 30
0
  0
SPLINE
  5
B6
100
AcDbEntity
  8
0
  6
ByLayer
 62
    7
370
   -1
100
AcDbSpline
210
0
220
0
230
0
 70
    8
 71
    3
 72
    8
 73
    4
 74
    0
 42
1e-07
 43
1e-07
 40
0
 40
0
 40
0
 40
0
 40
1
 40
1
 40
1
 40
1
 10
82.628415
 20
8.875953999999995
 30
0
 10
82.628415
 20
8.601548999999995
 30
0
 10
82.439609
 20
8.338376999999994
 30
0
 10
82.103482
 20
8.144348999999995
 30
0
  0
SPLINE
  5
B7
100
AcDbEntity
  8
0
  6
ByLayer
 62
    7
370
   -1
100
AcDbSpline
210
0
220
0
230
0
 70
    8
 71
    3
 72
    8
 73
    4
 74
    0
 42
1e-07
 43
1e-07
 40
0
 40
0
 40
0
 40
0
 40
1
 40
1
 40
1
 40
1
 10
81.314671
 20
15.93862099999999
 30
0
 10
82.175449
 20
13.516675
 30
0
 10
82.630109
 20
11.081013
 30
0
 10
82.628415
 20
8.875953999999995
 30
0
  0
SPLINE
  5
B8
100
AcDbEntity
  8
0
  6
ByLayer
 62
    7
370
   -1
100
AcDbSpline
210
0
220
0
230
0
 70
    8
 71
    3
 72
    8
 73
    4
 74
    0
 42
1e-07
 43
1e-07
 40
0
 40
0
 40
0
 40
0
 40
1
 40
1
 40
1
 40
1
 10
136.1665822633863
 20
18.679733
 30
0
 10
136.1665822633863
 20
22.405292
 30
0
 10
137.4481532633863
 20
25.238295
 30
0
 10
139.7296382633863
 20
26.555454
 30
0
  0
LINE
  5
B9
100
AcDbEntity
  8
0
  6
ByLayer
 62
    7
370
   -1
100
AcDbLine
 10
139.7296382633863
 20
26.555454
 11
171.1566062633863
 21
44.699747
  0
SPLINE
  5
BA
100
AcDbEntity
  8
0
  6
ByLayer
 62
    7
370
   -1
100
AcDbSpline
210
0
220
0
230
0
 70
    8
 71
    3
 72
    8
 73
    4
 74
    0
 42
1e-07
 43
1e-07
 40
0
 40
0
 40
0
 40
0
 40
1
 40
1
 40
1
 40
1
 10
171.1566062633863
 20
44.699747
 30
0
 10
173.0265262633863
 20
45.785456
 30
0
 10
175.3888222633863
 20
45.955918
 30
0
 10
177.8350082633863
 20
45.189967
 30
0
  0
SPLINE
  5
BB
100
AcDbEntity
  8
0
  6
ByLayer
 62
    7
370
   -1
100
AcDbSpline
210
0
220
0
230
0
 70
    8
 71
    3
 72
    8
 73
    4
 74
    0
 42
1e-07
 43
1e-07
 40
0
 40
0
 40
0
 40
0
 40
1
 40
1
 40
1
 40
1
 10
177.8350082633863
 20
45.189967
 30
0
 10
180.0319872633863
 20
44.511222
 30
0
 10
182.3103952633863
 20
43.08487100000001
 30
0
 10
184.3852932633863
 20
41.100002
 30
0
  0
SPLINE
  5
BC
100
AcDbEntity
  8
0
  6
ByLayer
 62
    7
370
   -1
100
AcDbSpline
210
0
220
0
230
0
 70
    8
 71
    3
 72
    8
 73
    4
 74
    0
 42
1e-07
 43
1e-07
 40
0
 40
0
 40
0
 40
0
 40
1
 40
1
 40
1
 40
1
 10
184.3852932633863
 20
41.100002
 30
0
 10
185.4584432633863
 20
40.075254
 30
0
 10
186.4762492633863
 20
38.90516
 30
0
 10
187.4000192633863
 20
37.63516
 30
0
  0
SPLINE
  5
BD
100
AcDbEntity
  8
0
  6
ByLayer
 62
    7
370
   -1
100
AcDbSpline
210
0
220
0
230
0
 70
    8
 71
    3
 72
    8
 73
    4
 74
    0
 42
1e-07
 43
1e-07
 40
0
 40
0
 40
0
 40
0
 40
1
 40
1
 40
1
 40
1
 10
187.4000192633863
 20
37.63516
 30
0
 10
188.5467442633863
 20
36.057002
 30
0
 10
189.8474222633863
 20
34.661582
 30
0
 10
191.1759552633863
 20
33.566447
 30
0
  0
SPLINE
  5
BE
100
AcDbEntity
  8
0
  6
ByLayer
 62
    7
370
   -1
100
AcDbSpline
210
0
220
0
230
0
 70
    8
 71
    3
 72
    8
 73
    4
 74
    0
 42
1e-07
 43
1e-07
 40
0
 40
0
 40
0
 40
0
 40
1
 40
1
 40
1
 40
1
 10
191.1759552633863
 20
33.566447
 30
0
 10
192.3047872633863
 20
32.633449
 30
0
 10
193.4521902633863
 20
31.91937
 30
0
 10
194.5188492633863
 20
31.453732
 30
0
  0
SPLINE
  5
BF
100
AcDbEntity
  8
0
  6
ByLayer
 62
    7
370
   -1
100
AcDbSpline
210
0
220
0
230
0
 70
    8
 71
    3
 72
    8
 73
    4
 74
    0
 42
1e-07
 43
1e-07
 40
0
 40
0
 40
0
 40
0
 40
1
 40
1
 40
1
 40
1
 10
194.5188492633863
 20
31.453732
 30
0
 10
196.1361232633863
 20
30.744197
 30
0
 10
197.5161052633863
 20
30.621063
 30
0
 10
198.5260092633863
 20
30.848619
 30
0
  0
SPLINE
  5
C0
100
AcDbEntity
  8
0
  6
ByLayer
 62
    7
370
   -1
100
AcDbSpline
210
0
220
0
230
0
 70
    8
 71
    3
 72
    8
 73
    4
 74
    0
 42
1e-07
 43
1e-07
 40
0
 40
0
 40
0
 40
0
 40
1
 40
1
 40
1
 40
1
 10
198.5260092633863
 20
30.848619
 30
0
 10
199.3044352633863
 20
31.019279
 30
0
 10
200.1189562633863
 20
31.069063
 30
0
 10
200.9696022633863
 20
30.997999
 30
0
  0
SPLINE
  5
C1
100
AcDbEntity
  8
0
  6
ByLayer
 62
    7
370
   -1
100
AcDbSpline
210
0
220
0
230
0
 70
    8
 71
    3
 72
    8
 73
    4
 74
    0
 42
1e-07
 43
1e-07
 40
0
 40
0
 40
0
 40
0
 40
1
 40
1
 40
1
 40
1
 10
200.9696022633863
 20
30.997999
 30
0
 10
202.6639232633863
 20
30.857283
 30
0
 10
204.4665332633863
 20
30.227448
 30
0
 10
206.2392562633863
 20
29.16251
 30
0
  0
SPLINE
  5
C2
100
AcDbEntity
  8
0
  6
ByLayer
 62
    7
370
   -1
100
AcDbSpline
210
0
220
0
230
0
 70
    8
 71
    3
 72
    8
 73
    4
 74
    0
 42
1e-07
 43
1e-07
 40
0
 40
0
 40
0
 40
0
 40
1
 40
1
 40
1
 40
1
 10
206.2392562633863
 20
29.16251
 30
0
 10
207.5089732633863
 20
28.401047
 30
0
 10
208.7626042633863
 20
27.418264
 30
0
 10
209.9451162633863
 20
26.259121
 30
0
  0
SPLINE
  5
C3
100
AcDbEntity
  8
0
  6
ByLayer
 62
    7
370
   -1
100
AcDbSpline
210
0
220
0
230
0
 70
    8
 71
    3
 72
    8
 73
    4
 74
    0
 42
1e-07
 43
1e-07
 40
0
 40
0
 40
0
 40
0
 40
1
 40
1
 40
1
 40
1
 10
209.9451162633863
 20
26.259121
 30
0
 10
212.7535092633863
 20
23.51911
 30
0
 10
215.1315132633863
 20
19.761632
 30
0
 10
216.4794072633863
 20
15.938508
 30
0
  0
SPLINE
  5
C4
100
AcDbEntity
  8
0
  6
ByLayer
 62
    7
370
   -1
100
AcDbSpline
210
0
220
0
230
0
 70
    8
 71
    3
 72
    8
 73
    4
 74
    0
 42
1e-07
 43
1e-07
 40
0
 40
0
 40
0
 40
0
 40
1
 40
1
 40
1
 40
1
 10
216.4794072633863
 20
15.938508
 30
0
 10
217.3401842633863
 20
13.516618
 30
0
 10
217.7948442633863
 20
11.080984
 30
0
 10
217.7931512633863
 20
8.875954
 30
0
  0
LINE
  5
C5
100
AcDbEntity
  8
0
  6
ByLayer
 62
    7
370
   -1
100
AcDbLine
 10
217.7931512633863
 20
8.875954
 11
217.7931512633863
 21
-10.293793
  0
SPLINE
  5
C6
100
AcDbEntity
  8
0
  6
ByLayer
 62
    7
370
   -1
100
AcDbSpline
210
0
220
0
230
0
 70
    8
 71
    3
 72
    8
 73
    4
 74
    0
 42
1e-07
 43
1e-07
 40
0
 40
0
 40
0
 40
0
 40
1
 40
1
 40
1
 40
1
 10
217.7931512633863
 20
-10.293793
 30
0
 10
217.7931512633863
 20
-10.568226
 30
0
 10
217.6043442633863
 20
-10.831398
 30
0
 10
217.2682182633863
 20
-11.025426
 30
0
  0
LINE
  5
C7
100
AcDbEntity
  8
0
  6
ByLayer
 62
    7
370
   -1
100
AcDbLine
 10
217.2682182633863
 20
-11.025426
 11
185.8413622633863
 21
-29.16966200000001
  0
LINE
  5
C8
100
AcDbEntity
  8
0
  6
ByLayer
 62
    7
370
   -1
100
AcDbLine
 10
185.8413622633863
 20
-29.16966200000001
 11
183.3069222633863
 21
-29.16966200000001
  0
LINE
  5
C9
100
AcDbEntity
  8
0
  6
ByLayer
 62
    7
370
   -1
100
AcDbLine
 10
183.3069222633863
 20
-29.16966200000001
 11
183.3069222633863
 21
-10
  0
SPLINE
  5
CA
100
AcDbEntity
  8
0
  6
ByLayer
 62
    7
370
   -1
100
AcDbSpline
210
0
220
0
230
0
 70
    8
 71
    3
 72
    8
 73
    4
 74
    0
 42
1e-07
 43
1e-07
 40
0
 40
0
 40
0
 40
0
 40
1
 40
1
 40
1
 40
1
 10
183.3069222633863
 20
-10
 30
0
 10
183.3069222633863
 20
-5.322278999999998
 30
0
 10
181.0598972633863
 20
0.2667370000000009
 30
0
 10
177.4727762633863
 20
4.511331
 30
0
  0
SPLINE
  5
CB
100
AcDbEntity
  8
0
  6
ByLayer
 62
    7
370
   -1
100
AcDbSpline
210
0
220
0
230
0
 70
    8
 71
    3
 72
    8
 73
    4
 74
    0
 42
1e-07
 43
1e-07
 40
0
 40
0
 40
0
 40
0
 40
1
 40
1
 40
1
 40
1
 10
177.4727762633863
 20
4.511331
 30
0
 10
173.8856392633863
 20
8.755896
 30
0
 10
169.5504232633863
 20
10.955503
 30
0
 10
166.2168142633863
 20
10.222363
 30
0
  0
SPLINE
  5
CC
100
AcDbEntity
  8
0
  6
ByLayer
 62
    7
370
   -1
100
AcDbSpline
210
0
220
0
230
0
 70
    8
 71
    3
 72
    8
 73
    4
 74
    0
 42
1e-07
 43
1e-07
 40
0
 40
0
 40
0
 40
0
 40
1
 40
1
 40
1
 40
1
 10
166.2168142633863
 20
10.222363
 30
0
 10
162.3164752633863
 20
9.364582
 30
0
 10
157.1570292633863
 20
12.343392
 30
0
 10
153.2566902633863
 20
17.704909
 30
0
  0
SPLINE
  5
CD
100
AcDbEntity
  8
0
  6
ByLayer
 62
    7
370
   -1
100
AcDbSpline
210
0
220
0
230
0
 70
    8
 71
    3
 72
    8
 73
    4
 74
    0
 42
1e-07
 43
1e-07
 40
0
 40
0
 40
0
 40
0
 40
1
 40
1
 40
1
 40
1
 10
153.2566902633863
 20
17.704909
 30
0
 10
149.9230812633863
 20
22.287351
 30
0
 10
145.5877242633863
 20
25.093628
 30
0
 10
142.0006802633863
 20
24.991125
 30
0
  0
SPLINE
  5
CE
100
AcDbEntity
  8
0
  6
ByLayer
 62
    7
370
   -1
100
AcDbSpline
210
0
220
0
230
0
 70
    8
 71
    3
 72
    8
 73
    4
 74
    0
 42
1e-07
 43
1e-07
 40
0
 40
0
 40
0
 40
0
 40
1
 40
1
 40
1
 40
1
 10
142.0006802633863
 20
24.991125
 30
0
 10
138.4136362633863
 20
24.888594
 30
0
 10
136.1665822633863
 20
21.894216
 30
0
 10
136.1665822633863
 20
17.216495
 30
0
  0
LINE
  5
CF
100
AcDbEntity
  8
0
  6
ByLayer
 62
    7
370
   -1
100
AcDbLine
 10
136.1665822633863
 20
17.216495
 11
136.1665822633863
 21
-1.953279999999999
  0
LINE
  5
D0
100
AcDbEntity
  8
0
  6
ByLayer
 62
    7
370
   -1
100
AcDbLine
 10
136.1665822633863
 20
-1.953279999999999
 11
183.3069222633863
 21
-29.16966200000001
  0
LINE
  5
D1
100
AcDbEntity
  8
0
  6
ByLayer
 62
    7
370
   -1
100
AcDbLine
 10
183.3069222633863
 20
-29.16966200000001
 11
136.1665822633863
 21
-1.953279999999999
  0
LINE
  5
D2
100
AcDbEntity
  8
0
  6
ByLayer
 62
    7
370
   -1
100
AcDbLine
 10
136.1665822633863
 20
-1.953279999999999
 11
136.1665822633863
 21
17.216495
  0
LINE
  5
D3
100
AcDbEntity
  8
0
  6
ByLayer
 62
    7
370
   -1
100
AcDbLine
 10
136.1665822633863
 20
17.216495
 11
136.1665822633863
 21
18.679733
  0
LINE
  5
D4
100
AcDbEntity
  8
0
  6
ByLayer
 62
    7
370
   -1
100
AcDbLine
 10
136.1665822633863
 20
18.679733
 11
136.1665822633863
 21
17.216495
  0
SPLINE
  5
D5
100
AcDbEntity
  8
0
  6
ByLayer
 62
    7
370
   -1
100
AcDbSpline
210
0
220
0
230
0
 70
    8
 71
    3
 72
    8
 73
    4
 74
    0
 42
1e-07
 43
1e-07
 40
0
 40
0
 40
0
 40
0
 40
1
 40
1
 40
1
 40
1
 10
136.1665822633863
 20
17.216495
 30
0
 10
136.1665822633863
 20
21.894216
 30
0
 10
138.4136362633863
 20
24.888594
 30
0
 10
142.0006802633863
 20
24.991125
 30
0
  0
SPLINE
  5
D6
100
AcDbEntity
  8
0
  6
ByLayer
 62
    7
370
   -1
100
AcDbSpline
210
0
220
0
230
0
 70
    8
 71
    3
 72
    8
 73
    4
 74
    0
 42
1e-07
 43
1e-07
 40
0
 40
0
 40
0
 40
0
 40
1
 40
1
 40
1
 40
1
 10
142.0006802633863
 20
24.991125
 30
0
 10
145.5877242633863
 20
25.093628
 30
0
 10
149.9230812633863
 20
22.287351
 30
0
 10
153.2566902633863
 20
17.704909
 30
0
  0
LINE
  5
D7
100
AcDbEntity
  8
0
  6
ByLayer
 62
    7
370
   -1
100
AcDbLine
 10
153.2566902633863
 20
17.704909
 11
155.2439012633863
 21
19.224958
  0
SPLINE
  5
D8
100
AcDbEntity
  8
0
  6
ByLayer
 62
    7
370
   -1
100
AcDbSpline
210
0
220
0
230
0
 70
    8
 71
    3
 72
    8
 73
    4
 74
    0
 42
1e-07
 43
1e-07
 40
0
 40
0
 40
0
 40
0
 40
1
 40
1
 40
1
 40
1
 10
155.2439012633863
 20
19.224958
 30
0
 10
150.4105352633863
 20
25.869034
 30
0
 10
143.8828202633863
 20
28.953327
 30
0
 10
139.7296382633863
 20
26.555454
 30
0
  0
SPLINE
  5
D9
100
AcDbEntity
  8
0
  6
ByLayer
 62
    7
370
   -1
100
AcDbSpline
210
0
220
0
230
0
 70
    8
 71
    3
 72
    8
 73
    4
 74
    0
 42
1e-07
 43
1e-07
 40
0
 40
0
 40
0
 40
0
 40
1
 40
1
 40
1
 40
1
 10
139.7296382633863
 20
26.555454
 30
0
 10
137.4481532633863
 20
25.238295
 30
0
 10
136.1665822633863
 20
22.405292
 30
0
 10
136.1665822633863
 20
18.679733
 30
0
  0
SPLINE
  5
DA
100
AcDbEntity
  8
0
  6
ByLayer
 62
    7
370
   -1
100
AcDbSpline
210
0
220
0
230
0
 70
    8
 71
    3
 72
    8
 73
    4
 74
    0
 42
1e-07
 43
1e-07
 40
0
 40
0
 40
0
 40
0
 40
1
 40
1
 40
1
 40
1
 10
166.7640152633863
 20
12.573799
 30
0
 10
170.4852562633863
 20
13.392187
 30
0
 10
175.3245712633863
 20
10.936817
 30
0
 10
179.3288142633863
 20
6.198681000000001
 30
0
  0
SPLINE
  5
DB
100
AcDbEntity
  8
0
  6
ByLayer
 62
    7
370
   -1
100
AcDbSpline
210
0
220
0
230
0
 70
    8
 71
    3
 72
    8
 73
    4
 74
    0
 42
1e-07
 43
1e-07
 40
0
 40
0
 40
0
 40
0
 40
1
 40
1
 40
1
 40
1
 10
179.3288142633863
 20
6.198681000000001
 30
0
 10
183.3330562633863
 20
1.460537
 30
0
 10
185.8413622633863
 20
-4.778381
 30
0
 10
185.8413622633863
 20
-10
 30
0
  0
LINE
  5
DC
100
AcDbEntity
  8
0
  6
ByLayer
 62
    7
370
   -1
100
AcDbLine
 10
185.8413622633863
 20
-10
 11
217.2682182633863
 21
8.144328000000002
  0
SPLINE
  5
DD
100
AcDbEntity
  8
0
  6
ByLayer
 62
    7
370
   -1
100
AcDbSpline
210
0
220
0
230
0
 70
    8
 71
    3
 72
    8
 73
    4
 74
    0
 42
1e-07
 43
1e-07
 40
0
 40
0
 40
0
 40
0
 40
1
 40
1
 40
1
 40
1
 10
217.2682182633863
 20
8.144328000000002
 30
0
 10
217.2682182633863
 20
13.365968
 30
0
 10
214.7598272633863
 20
19.604886
 30
0
 10
210.7556582633863
 20
24.343002
 30
0
  0
SPLINE
  5
DE
100
AcDbEntity
  8
0
  6
ByLayer
 62
    7
370
   -1
100
AcDbSpline
210
0
220
0
230
0
 70
    8
 71
    3
 72
    8
 73
    4
 74
    0
 42
1e-07
 43
1e-07
 40
0
 40
0
 40
0
 40
0
 40
1
 40
1
 40
1
 40
1
 10
210.7556582633863
 20
24.343002
 30
0
 10
206.7514892633863
 20
29.081146
 30
0
 10
201.9121682633863
 20
31.536536
 30
0
 10
198.1909272633863
 20
30.718148
 30
0
  0
LINE
  5
DF
100
AcDbEntity
  8
0
  6
ByLayer
 62
    7
370
   -1
100
AcDbLine
 10
198.1909272633863
 20
30.718148
 11
166.7640152633863
 21
12.573799
  0
LINE
  5
E0
100
AcDbEntity
  8
0
  6
ByLayer
 62
    7
370
   -1
100
AcDbLine
 10
185.8413622633863
 20
-10
 11
185.8413622633863
 21
-29.16966200000001
  0
LINE
  5
E1
100
AcDbEntity
  8
0
  6
ByLayer
 62
    7
370
   -1
100
AcDbLine
 10
185.8413622633863
 20
-29.16966200000001
 11
217.2682182633863
 21
-11.025426
  0
LINE
  5
E2
100
AcDbEntity
  8
0
  6
ByLayer
 62
    7
370
   -1
100
AcDbLine
 10
217.2682182633863
 20
-11.025426
 11
217.2682182633863
 21
8.144328000000002
  0
LINE
  5
E3
100
AcDbEntity
  8
0
  6
ByLayer
 62
    7
370
   -1
100
AcDbLine
 10
217.2682182633863
 20
8.144328000000002
 11
185.8413622633863
 21
-10
  0
SPLINE
  5
E4
100
AcDbEntity
  8
0
  6
ByLayer
 62
    7
370
   -1
100
AcDbSpline
210
0
220
0
230
0
 70
    8
 71
    3
 72
    8
 73
    4
 74
    0
 42
1e-07
 43
1e-07
 40
0
 40
0
 40
0
 40
0
 40
1
 40
1
 40
1
 40
1
 10
139.7296382633863
 20
26.555454
 30
0
 10
143.8828202633863
 20
28.953327
 30
0
 10
150.4105352633863
 20
25.869034
 30
0
 10
155.2439012633863
 20
19.224958
 30
0
  0
LINE
  5
E5
100
AcDbEntity
  8
0
  6
ByLayer
 62
    7
370
   -1
100
AcDbLine
 10
155.2439012633863
 20
19.224958
 11
186.6708132633863
 21
37.369307
  0
SPLINE
  5
E6
100
AcDbEntity
  8
0
  6
ByLayer
 62
    7
370
   -1
100
AcDbSpline
210
0
220
0
230
0
 70
    8
 71
    3
 72
    8
 73
    4
 74
    0
 42
1e-07
 43
1e-07
 40
0
 40
0
 40
0
 40
0
 40
1
 40
1
 40
1
 40
1
 10
186.6708132633863
 20
37.369307
 30
0
 10
181.8374472633863
 20
44.01338200000001
 30
0
 10
175.3098362633863
 20
47.09778900000001
 30
0
 10
171.1566062633863
 20
44.699747
 30
0
  0
LINE
  5
E7
100
AcDbEntity
  8
0
  6
ByLayer
 62
    7
370
   -1
100
AcDbLine
 10
171.1566062633863
 20
44.699747
 11
139.7296382633863
 21
26.555454
  0
SPLINE
  5
E8
100
AcDbEntity
  8
0
  6
ByLayer
 62
    7
370
   -1
100
AcDbSpline
210
0
220
0
230
0
 70
    8
 71
    3
 72
    8
 73
    4
 74
    0
 42
1e-07
 43
1e-07
 40
0
 40
0
 40
0
 40
0
 40
1
 40
1
 40
1
 40
1
 10
155.2439012633863
 20
19.224958
 30
0
 10
158.7108882633863
 20
14.459156
 30
0
 10
163.2970562633863
 20
11.811319
 30
0
 10
166.7640152633863
 20
12.573799
 30
0
  0
LINE
  5
E9
100
AcDbEntity
  8
0
  6
ByLayer
 62
    7
370
   -1
100
AcDbLine
 10
166.7640152633863
 20
12.573799
 11
198.1909272633863
 21
30.718148
  0
SPLINE
  5
EA
100
AcDbEntity
  8
0
  6
ByLayer
 62
    7
370
   -1
100
AcDbSpline
210
0
220
0
230
0
 70
    8
 71
    3
 72
    8
 73
    4
 74
    0
 42
1e-07
 43
1e-07
 40
0
 40
0
 40
0
 40
0
 40
1
 40
1
 40
1
 40
1
 10
198.1909272633863
 20
30.718148
 30
0
 10
194.7239682633863
 20
29.955668
 30
0
 10
190.1377722633863
 20
32.603477
 30
0
 10
186.6708132633863
 20
37.369307
 30
0
  0
LINE
  5
EB
100
AcDbEntity
  8
0
  6
ByLayer
 62
    7
370
   -1
100
AcDbLine
 10
186.6708132633863
 20
37.369307
 11
155.2439012633863
 21
19.224958
  0
SPLINE
  5
EC
100
AcDbEntity
  8
0
  6
ByLayer
 62
    7
370
   -1
100
AcDbSpline
210
0
220
0
230
0
 70
    8
 71
    3
 72
    8
 73
    4
 74
    0
 42
1e-07
 43
1e-07
 40
0
 40
0
 40
0
 40
0
 40
1
 40
1
 40
1
 40
1
 10
157.0426732633863
 20
5.163659000000001
 30
0
 10
157.0426732633863
 20
7.119202
 30
0
 10
156.6116352633863
 20
9.291423999999999
 30
0
 10
155.7901142633863
 20
11.475785
 30
0
  0
SPLINE
  5
ED
100
AcDbEntity
  8
0
  6
ByLayer
 62
    7
370
   -1
100
AcDbSpline
210
0
220
0
230
0
 70
    8
 71
    3
 72
    8
 73
    4
 74
    0
 42
1e-07
 43
1e-07
 40
0
 40
0
 40
0
 40
0
 40
1
 40
1
 40
1
 40
1
 10
155.7901142633863
 20
11.475785
 30
0
 10
154.8841532633863
 20
13.884721
 30
0
 10
153.5379812633863
 20
16.216328
 30
0
 10
151.9047892633863
 20
18.205402
 30
0
  0
SPLINE
  5
EE
100
AcDbEntity
  8
0
  6
ByLayer
 62
    7
370
   -1
100
AcDbSpline
210
0
220
0
230
0
 70
    8
 71
    3
 72
    8
 73
    4
 74
    0
 42
1e-07
 43
1e-07
 40
0
 40
0
 40
0
 40
0
 40
1
 40
1
 40
1
 40
1
 10
151.9047892633863
 20
18.205402
 30
0
 10
150.4238282633863
 20
20.009
 30
0
 10
148.7581522633863
 20
21.468427
 30
0
 10
147.0645932633863
 20
22.446186
 30
0
  0
SPLINE
  5
EF
100
AcDbEntity
  8
0
  6
ByLayer
 62
    7
370
   -1
100
AcDbSpline
210
0
220
0
230
0
 70
    8
 71
    3
 72
    8
 73
    4
 74
    0
 42
1e-07
 43
1e-07
 40
0
 40
0
 40
0
 40
0
 40
1
 40
1
 40
1
 40
1
 10
147.0645932633863
 20
22.446186
 30
0
 10
144.4181962633863
 20
23.974052
 30
0
 10
141.8801712633863
 20
24.225456
 30
0
 10
140.0090382633863
 20
23.145081
 30
0
  0
SPLINE
  5
F0
100
AcDbEntity
  8
0
  6
ByLayer
 62
    7
370
   -1
100
AcDbSpline
210
0
220
0
230
0
 70
    8
 71
    3
 72
    8
 73
    4
 74
    0
 42
1e-07
 43
1e-07
 40
0
 40
0
 40
0
 40
0
 40
1
 40
1
 40
1
 40
1
 10
140.0090382633863
 20
23.145081
 30
0
 10
136.1123962633863
 20
20.895347
 30
0
 10
136.1123962633863
 20
13.600213
 30
0
 10
140.0090382633863
 20
6.850981000000001
 30
0
  0
SPLINE
  5
F1
100
AcDbEntity
  8
0
  6
ByLayer
 62
    7
370
   -1
100
AcDbSpline
210
0
220
0
230
0
 70
    8
 71
    3
 72
    8
 73
    4
 74
    0
 42
1e-07
 43
1e-07
 40
0
 40
0
 40
0
 40
0
 40
1
 40
1
 40
1
 40
1
 10
140.0090382633863
 20
6.850981000000001
 30
0
 10
143.9056802633863
 20
0.1017500000000009
 30
0
 10
150.2234782633863
 20
-3.545832000000001
 30
0
 10
154.1201772633863
 20
-1.296068999999999
 30
0
  0
SPLINE
  5
F2
100
AcDbEntity
  8
0
  6
ByLayer
 62
    7
370
   -1
100
AcDbSpline
210
0
220
0
230
0
 70
    8
 71
    3
 72
    8
 73
    4
 74
    0
 42
1e-07
 43
1e-07
 40
0
 40
0
 40
0
 40
0
 40
1
 40
1
 40
1
 40
1
 10
154.1201772633863
 20
-1.296068999999999
 30
0
 10
155.9914232633863
 20
-0.2156939999999992
 30
0
 10
157.0426732633863
 20
2.107926000000001
 30
0
 10
157.0426732633863
 20
5.163659000000001
 30
0
  0
SPLINE
  5
F3
100
AcDbEntity
  8
0
  6
ByLayer
 62
    7
370
   -1
100
AcDbSpline
210
0
220
0
230
0
 70
    8
 71
    3
 72
    8
 73
    4
 74
    0
 42
1e-07
 43
1e-07
 40
0
 40
0
 40
0
 40
0
 40
1
 40
1
 40
1
 40
1
 10
182.3869622633863
 20
-9.468858000000001
 30
0
 10
182.3869622633863
 20
-7.513311999999999
 30
0
 10
181.9558962633863
 20
-5.341104000000001
 30
0
 10
181.1344042633863
 20
-3.156759999999998
 30
0
  0
SPLINE
  5
F4
100
AcDbEntity
  8
0
  6
ByLayer
 62
    7
370
   -1
100
AcDbSpline
210
0
220
0
230
0
 70
    8
 71
    3
 72
    8
 73
    4
 74
    0
 42
1e-07
 43
1e-07
 40
0
 40
0
 40
0
 40
0
 40
1
 40
1
 40
1
 40
1
 10
181.1344042633863
 20
-3.156759999999998
 30
0
 10
180.2284422633863
 20
-0.7478240000000014
 30
0
 10
178.8822702633863
 20
1.583811000000001
 30
0
 10
177.2490542633863
 20
3.572857000000001
 30
0
  0
SPLINE
  5
F5
100
AcDbEntity
  8
0
  6
ByLayer
 62
    7
370
   -1
100
AcDbSpline
210
0
220
0
230
0
 70
    8
 71
    3
 72
    8
 73
    4
 74
    0
 42
1e-07
 43
1e-07
 40
0
 40
0
 40
0
 40
0
 40
1
 40
1
 40
1
 40
1
 10
177.2490542633863
 20
3.572857000000001
 30
0
 10
175.7681062633863
 20
5.376483
 30
0
 10
174.1024422633863
 20
6.835891
 30
0
 10
172.4088832633863
 20
7.813655000000001
 30
0
  0
SPLINE
  5
F6
100
AcDbEntity
  8
0
  6
ByLayer
 62
    7
370
   -1
100
AcDbSpline
210
0
220
0
230
0
 70
    8
 71
    3
 72
    8
 73
    4
 74
    0
 42
1e-07
 43
1e-07
 40
0
 40
0
 40
0
 40
0
 40
1
 40
1
 40
1
 40
1
 10
172.4088832633863
 20
7.813655000000001
 30
0
 10
169.7625412633863
 20
9.341524
 30
0
 10
167.2245732633863
 20
9.592928000000001
 30
0
 10
165.3533272633863
 20
8.512563
 30
0
  0
SPLINE
  5
F7
100
AcDbEntity
  8
0
  6
ByLayer
 62
    7
370
   -1
100
AcDbSpline
210
0
220
0
230
0
 70
    8
 71
    3
 72
    8
 73
    4
 74
    0
 42
1e-07
 43
1e-07
 40
0
 40
0
 40
0
 40
0
 40
1
 40
1
 40
1
 40
1
 10
165.3533272633863
 20
8.512563
 30
0
 10
161.4566572633863
 20
6.262816000000001
 30
0
 10
161.4566572633863
 20
-1.032304
 30
0
 10
165.3533272633863
 20
-7.781535999999999
 30
0
  0
SPLINE
  5
F8
100
AcDbEntity
  8
0
  6
ByLayer
 62
    7
370
   -1
100
AcDbSpline
210
0
220
0
230
0
 70
    8
 71
    3
 72
    8
 73
    4
 74
    0
 42
1e-07
 43
1e-07
 40
0
 40
0
 40
0
 40
0
 40
1
 40
1
 40
1
 40
1
 10
165.3533272633863
 20
-7.781535999999999
 30
0
 10
169.2499982633863
 20
-14.530795
 30
0
 10
175.5677712633863
 20
-18.178348
 30
0
 10
179.4644472633863
 20
-15.928586
 30
0
  0
SPLINE
  5
F9
100
AcDbEntity
  8
0
  6
ByLayer
 62
    7
370
   -1
100
AcDbSpline
210
0
220
0
230
0
 70
    8
 71
    3
 72
    8
 73
    4
 74
    0
 42
1e-07
 43
1e-07
 40
0
 40
0
 40
0
 40
0
 40
1
 40
1
 40
1
 40
1
 10
179.4644472633863
 20
-15.928586
 30
0
 10
181.3356842633863
 20
-14.848239
 30
0
 10
182.3869622633863
 20
-12.52459
 30
0
 10
182.3869622633863
 20
-9.468858000000001
 30
0
  0
SPLINE
  5
FA
100
AcDbEntity
  8
0
  6
ByLayer
 62
    7
370
   -1
100
AcDbSpline
210
0
220
0
230
0
 70
    8
 71
    3
 72
    8
 73
    4
 74
    0
 42
1e-07
 43
1e-07
 40
0
 40
0
 40
0
 40
0
 40
1
 40
1
 40
1
 40
1
 10
172.4088832633863
 20
7.813655000000001
 30
0
 10
169.7625412633863
 20
9.341524
 30
0
 10
167.2245732633863
 20
9.592928000000001
 30
0
 10
165.3533272633863
 20
8.512563
 30
0
  0
SPLINE
  5
FB
100
AcDbEntity
  8
0
  6
ByLayer
 62
    7
370
   -1
100
AcDbSpline
210
0
220
0
230
0
 70
    8
 71
    3
 72
    8
 73
    4
 74
    0
 42
1e-07
 43
1e-07
 40
0
 40
0
 40
0
 40
0
 40
1
 40
1
 40
1
 40
1
 10
165.3533272633863
 20
8.512563
 30
0
 10
161.4566572633863
 20
6.262816000000001
 30
0
 10
161.4566572633863
 20
-1.032304
 30
0
 10
165.3533272633863
 20
-7.781535999999999
 30
0
  0
SPLINE
  5
FC
100
AcDbEntity
  8
0
  6
ByLayer
 62
    7
370
   -1
100
AcDbSpline
210
0
220
0
230
0
 70
    8
 71
    3
 72
    8
 73
    4
 74
    0
 42
1e-07
 43
1e-07
 40
0
 40
0
 40
0
 40
0
 40
1
 40
1
 40
1
 40
1
 10
165.3533272633863
 20
-7.781535999999999
 30
0
 10
169.2499982633863
 20
-14.530795
 30
0
 10
175.5677712633863
 20
-18.178348
 30
0
 10
179.4644472633863
 20
-15.928586
 30
0
  0
SPLINE
  5
FD
100
AcDbEntity
  8
0
  6
ByLayer
 62
    7
370
   -1
100
AcDbSpline
210
0
220
0
230
0
 70
    8
 71
    3
 72
    8
 73
    4
 74
    0
 42
1e-07
 43
1e-07
 40
0
 40
0
 40
0
 40
0
 40
1
 40
1
 40
1
 40
1
 10
179.4644472633863
 20
-15.928586
 30
0
 10
181.3356842633863
 20
-14.848239
 30
0
 10
182.3869622633863
 20
-12.52459
 30
0
 10
182.3869622633863
 20
-9.468858000000001
 30
0
  0
SPLINE
  5
FE
100
AcDbEntity
  8
0
  6
ByLayer
 62
    7
370
   -1
100
AcDbSpline
210
0
220
0
230
0
 70
    8
 71
    3
 72
    8
 73
    4
 74
    0
 42
1e-07
 43
1e-07
 40
0
 40
0
 40
0
 40
0
 40
1
 40
1
 40
1
 40
1
 10
182.3869622633863
 20
-9.468858000000001
 30
0
 10
176.8762212633863
 20
-6.287224999999999
 30
0
 10
172.4088832633863
 20
1.450405
 30
0
 10
172.4088832633863
 20
7.813655000000001
 30
0
  0
SPLINE
  5
FF
100
AcDbEntity
  8
0
  6
ByLayer
 62
    7
370
   -1
100
AcDbSpline
210
0
220
0
230
0
 70
    8
 71
    3
 72
    8
 73
    4
 74
    0
 42
1e-07
 43
1e-07
 40
0
 40
0
 40
0
 40
0
 40
1
 40
1
 40
1
 40
1
 10
147.0645932633863
 20
22.446186
 30
0
 10
144.4181962633863
 20
23.974052
 30
0
 10
141.8801712633863
 20
24.225456
 30
0
 10
140.0090382633863
 20
23.145081
 30
0
  0
SPLINE
  5
100
100
AcDbEntity
  8
0
  6
ByLayer
 62
    7
370
   -1
100
AcDbSpline
210
0
220
0
230
0
 70
    8
 71
    3
 72
    8
 73
    4
 74
    0
 42
1e-07
 43
1e-07
 40
0
 40
0
 40
0
 40
0
 40
1
 40
1
 40
1
 40
1
 10
140.0090382633863
 20
23.145081
 30
0
 10
136.1123962633863
 20
20.895347
 30
0
 10
136.1123962633863
 20
13.600213
 30
0
 10
140.0090382633863
 20
6.850981000000001
 30
0
  0
SPLINE
  5
101
100
AcDbEntity
  8
0
  6
ByLayer
 62
    7
370
   -1
100
AcDbSpline
210
0
220
0
230
0
 70
    8
 71
    3
 72
    8
 73
    4
 74
    0
 42
1e-07
 43
1e-07
 40
0
 40
0
 40
0
 40
0
 40
1
 40
1
 40
1
 40
1
 10
140.0090382633863
 20
6.850981000000001
 30
0
 10
143.9056802633863
 20
0.1017500000000009
 30
0
 10
150.2234782633863
 20
-3.545832000000001
 30
0
 10
154.1201772633863
 20
-1.296068999999999
 30
0
  0
SPLINE
  5
102
100
AcDbEntity
  8
0
  6
ByLayer
 62
    7
370
   -1
100
AcDbSpline
210
0
220
0
230
0
 70
    8
 71
    3
 72
    8
 73
    4
 74
    0
 42
1e-07
 43
1e-07
 40
0
 40
0
 40
0
 40
0
 40
1
 40
1
 40
1
 40
1
 10
154.1201772633863
 20
-1.296068999999999
 30
0
 10
155.9914232633863
 20
-0.2156939999999992
 30
0
 10
157.0426732633863
 20
2.107926000000001
 30
0
 10
157.0426732633863
 20
5.163659000000001
 30
0
  0
SPLINE
  5
103
100
AcDbEntity
  8
0
  6
ByLayer
 62
    7
370
   -1
100
AcDbSpline
210
0
220
0
230
0
 70
    8
 71
    3
 72
    8
 73
    4
 74
    0
 42
1e-07
 43
1e-07
 40
0
 40
0
 40
0
 40
0
 40
1
 40
1
 40
1
 40
1
 10
157.0426732633863
 20
5.163659000000001
 30
0
 10
151.5319452633863
 20
8.345293999999999
 30
0
 10
147.0645932633863
 20
16.08295
 30
0
 10
147.0645932633863
 20
22.446186
 30
0
  0
SPLINE
  5
104
100
AcDbEntity
  8
0
  6
ByLayer
 62
    7
370
   -1
100
AcDbSpline
210
0
220
0
230
0
 70
    8
 71
    3
 72
    8
 73
    4
 74
    0
 42
1e-07
 43
1e-07
 40
0
 40
0
 40
0
 40
0
 40
1
 40
1
 40
1
 40
1
 10
166.7640152633863
 20
12.573799
 30
0
 10
170.4852562633863
 20
13.392187
 30
0
 10
175.3245712633863
 20
10.936817
 30
0
 10
179.3288142633863
 20
6.198681000000001
 30
0
  0
SPLINE
  5
105
100
AcDbEntity
  8
0
  6
ByLayer
 62
    7
370
   -1
100
AcDbSpline
210
0
220
0
230
0
 70
    8
 71
    3
 72
    8
 73
    4
 74
    0
 42
1e-07
 43
1e-07
 40
0
 40
0
 40
0
 40
0
 40
1
 40
1
 40
1
 40
1
 10
179.3288142633863
 20
6.198681000000001
 30
0
 10
183.3330562633863
 20
1.460537
 30
0
 10
185.8413622633863
 20
-4.778381
 30
0
 10
185.8413622633863
 20
-10
 30
0
  0
LINE
  5
106
100
AcDbEntity
  8
0
  6
ByLayer
 62
    7
370
   -1
100
AcDbLine
 10
185.8413622633863
 20
-10
 11
183.3069222633863
 21
-10
  0
SPLINE
  5
107
100
AcDbEntity
  8
0
  6
ByLayer
 62
    7
370
   -1
100
AcDbSpline
210
0
220
0
230
0
 70
    8
 71
    3
 72
    8
 73
    4
 74
    0
 42
1e-07
 43
1e-07
 40
0
 40
0
 40
0
 40
0
 40
1
 40
1
 40
1
 40
1
 10
183.3069222633863
 20
-10
 30
0
 10
183.3069222633863
 20
-5.322278999999998
 30
0
 10
181.0598972633863
 20
0.2667370000000009
 30
0
 10
177.4727762633863
 20
4.511331
 30
0
  0
SPLINE
  5
108
100
AcDbEntity
  8
0
  6
ByLayer
 62
    7
370
   -1
100
AcDbSpline
210
0
220
0
230
0
 70
    8
 71
    3
 72
    8
 73
    4
 74
    0
 42
1e-07
 43
1e-07
 40
0
 40
0
 40
0
 40
0
 40
1
 40
1
 40
1
 40
1
 10
177.4727762633863
 20
4.511331
 30
0
 10
173.8856392633863
 20
8.755896
 30
0
 10
169.5504232633863
 20
10.955503
 30
0
 10
166.2168142633863
 20
10.222363
 30
0
  0
LINE
  5
109
100
AcDbEntity
  8
0
  6
ByLayer
 62
    7
370
   -1
100
AcDbLine
 10
166.2168142633863
 20
10.222363
 11
166.7640152633863
 21
12.573799
  0
SPLINE
  5
10A
100
AcDbEntity
  8
0
  6
ByLayer
 62
    7
370
   -1
100
AcDbSpline
210
0
220
0
230
0
 70
    8
 71
    3
 72
    8
 73
    4
 74
    0
 42
1e-07
 43
1e-07
 40
0
 40
0
 40
0
 40
0
 40
1
 40
1
 40
1
 40
1
 10
151.9047892633863
 20
18.205402
 30
0
 10
150.4238282633863
 20
20.009
 30
0
 10
148.7581522633863
 20
21.468427
 30
0
 10
147.0645932633863
 20
22.446186
 30
0
  0
SPLINE
  5
10B
100
AcDbEntity
  8
0
  6
ByLayer
 62
    7
370
   -1
100
AcDbSpline
210
0
220
0
230
0
 70
    8
 71
    3
 72
    8
 73
    4
 74
    0
 42
1e-07
 43
1e-07
 40
0
 40
0
 40
0
 40
0
 40
1
 40
1
 40
1
 40
1
 10
147.0645932633863
 20
22.446186
 30
0
 10
147.0645932633863
 20
16.08295
 30
0
 10
151.5319452633863
 20
8.345293999999999
 30
0
 10
157.0426732633863
 20
5.163659000000001
 30
0
  0
SPLINE
  5
10C
100
AcDbEntity
  8
0
  6
ByLayer
 62
    7
370
   -1
100
AcDbSpline
210
0
220
0
230
0
 70
    8
 71
    3
 72
    8
 73
    4
 74
    0
 42
1e-07
 43
1e-07
 40
0
 40
0
 40
0
 40
0
 40
1
 40
1
 40
1
 40
1
 10
157.0426732633863
 20
5.163659000000001
 30
0
 10
157.0426732633863
 20
7.119202
 30
0
 10
156.6116352633863
 20
9.291423999999999
 30
0
 10
155.7901142633863
 20
11.475785
 30
0
  0
SPLINE
  5
10D
100
AcDbEntity
  8
0
  6
ByLayer
 62
    7
370
   -1
100
AcDbSpline
210
0
220
0
230
0
 70
    8
 71
    3
 72
    8
 73
    4
 74
    0
 42
1e-07
 43
1e-07
 40
0
 40
0
 40
0
 40
0
 40
1
 40
1
 40
1
 40
1
 10
155.7901142633863
 20
11.475785
 30
0
 10
153.8710312633863
 20
13.123991
 30
0
 10
152.3726292633863
 20
15.719278
 30
0
 10
151.9047892633863
 20
18.205402
 30
0
  0
SPLINE
  5
10E
100
AcDbEntity
  8
0
  6
ByLayer
 62
    7
370
   -1
100
AcDbSpline
210
0
220
0
230
0
 70
    8
 71
    3
 72
    8
 73
    4
 74
    0
 42
1e-07
 43
1e-07
 40
0
 40
0
 40
0
 40
0
 40
1
 40
1
 40
1
 40
1
 10
177.2490542633863
 20
3.572857000000001
 30
0
 10
175.7681062633863
 20
5.376483
 30
0
 10
174.1024422633863
 20
6.835891
 30
0
 10
172.4088832633863
 20
7.813655000000001
 30
0
  0
SPLINE
  5
10F
100
AcDbEntity
  8
0
  6
ByLayer
 62
    7
370
   -1
100
AcDbSpline
210
0
220
0
230
0
 70
    8
 71
    3
 72
    8
 73
    4
 74
    0
 42
1e-07
 43
1e-07
 40
0
 40
0
 40
0
 40
0
 40
1
 40
1
 40
1
 40
1
 10
172.4088832633863
 20
7.813655000000001
 30
0
 10
172.4088832633863
 20
1.450405
 30
0
 10
176.8762212633863
 20
-6.287224999999999
 30
0
 10
182.3869622633863
 20
-9.468858000000001
 30
0
  0
SPLINE
  5
110
100
AcDbEntity
  8
0
  6
ByLayer
 62
    7
370
   -1
100
AcDbSpline
210
0
220
0
230
0
 70
    8
 71
    3
 72
    8
 73
    4
 74
    0
 42
1e-07
 43
1e-07
 40
0
 40
0
 40
0
 40
0
 40
1
 40
1
 40
1
 40
1
 10
182.3869622633863
 20
-9.468858000000001
 30
0
 10
182.3869622633863
 20
-7.513311999999999
 30
0
 10
181.9558962633863
 20
-5.341104000000001
 30
0
 10
181.1344042633863
 20
-3.156759999999998
 30
0
  0
SPLINE
  5
111
100
AcDbEntity
  8
0
  6
ByLayer
 62
    7
370
   -1
100
AcDbSpline
210
0
220
0
230
0
 70
    8
 71
    3
 72
    8
 73
    4
 74
    0
 42
1e-07
 43
1e-07
 40
0
 40
0
 40
0
 40
0
 40
1
 40
1
 40
1
 40
1
 10
181.1344042633863
 20
-3.156759999999998
 30
0
 10
179.2152982633863
 20
-1.508526
 30
0
 10
177.7169072633863
 20
1.086762
 30
0
 10
177.2490542633863
 20
3.572857000000001
 30
0
  0
LINE
  5
112
100
AcDbEntity
  8
0
  6
ByLayer
 62
    7
370
   -1
100
AcDbLine
 10
185.8413622633863
 20
-10
 11
185.8413622633863
 21
-29.16966200000001
  0
LINE
  5
113
100
AcDbEntity
  8
0
  6
ByLayer
 62
    7
370
   -1
100
AcDbLine
 10
185.8413622633863
 20
-29.16966200000001
 11
183.3069222633863
 21
-29.16966200000001
  0
LINE
  5
114
100
AcDbEntity
  8
0
  6
ByLayer
 62
    7
370
   -1
100
AcDbLine
 10
183.3069222633863
 20
-29.16966200000001
 11
183.3069222633863
 21
-10
  0
LINE
  5
115
100
AcDbEntity
  8
0
  6
ByLayer
 62
    7
370
   -1
100
AcDbLine
 10
183.3069222633863
 20
-10
 11
185.8413622633863
 21
-10
  0
SPLINE
  5
116
100
AcDbEntity
  8
0
  6
ByLayer
 62
    7
370
   -1
100
AcDbSpline
210
0
220
0
230
0
 70
    8
 71
    3
 72
    8
 73
    4
 74
    0
 42
1e-07
 43
1e-07
 40
0
 40
0
 40
0
 40
0
 40
1
 40
1
 40
1
 40
1
 10
155.2439012633863
 20
19.224958
 30
0
 10
158.7108882633863
 20
14.459156
 30
0
 10
163.2970562633863
 20
11.811319
 30
0
 10
166.7640152633863
 20
12.573799
 30
0
  0
LINE
  5
117
100
AcDbEntity
  8
0
  6
ByLayer
 62
    7
370
   -1
100
AcDbLine
 10
166.7640152633863
 20
12.573799
 11
166.2168142633863
 21
10.222363
  0
SPLINE
  5
118
100
AcDbEntity
  8
0
  6
ByLayer
 62
    7
370
   -1
100
AcDbSpline
210
0
220
0
230
0
 70
    8
 71
    3
 72
    8
 73
    4
 74
    0
 42
1e-07
 43
1e-07
 40
0
 40
0
 40
0
 40
0
 40
1
 40
1
 40
1
 40
1
 10
166.2168142633863
 20
10.222363
 30
0
 10
162.3164752633863
 20
9.364582
 30
0
 10
157.1570292633863
 20
12.343392
 30
0
 10
153.2566902633863
 20
17.704909
 30
0
  0
LINE
  5
119
100
AcDbEntity
  8
0
  6
ByLayer
 62
    7
370
   -1
100
AcDbLine
 10
153.2566902633863
 20
17.704909
 11
155.2439012633863
 21
19.224958
  0
SPLINE
  5
11A
100
AcDbEntity
  8
0
  6
ByLayer
 62
    7
370
   -1
100
AcDbSpline
210
0
220
0
230
0
 70
    8
 71
    3
 72
    8
 73
    4
 74
    0
 42
1e-07
 43
1e-07
 40
0
 40
0
 40
0
 40
0
 40
1
 40
1
 40
1
 40
1
 10
198.5260092633863
 20
30.848619
 30
0
 10
199.3044352633863
 20
31.019279
 30
0
 10
200.1189562633863
 20
31.069063
 30
0
 10
200.9696022633863
 20
30.997999
 30
0
  0
SPLINE
  5
11B
100
AcDbEntity
  8
0
  6
ByLayer
 62
    7
370
   -1
100
AcDbSpline
210
0
220
0
230
0
 70
    8
 71
    3
 72
    8
 73
    4
 74
    0
 42
1e-07
 43
1e-07
 40
0
 40
0
 40
0
 40
0
 40
1
 40
1
 40
1
 40
1
 10
200.9696022633863
 20
30.997999
 30
0
 10
202.6639232633863
 20
30.857283
 30
0
 10
204.4665332633863
 20
30.227448
 30
0
 10
206.2392562633863
 20
29.16251
 30
0
  0
SPLINE
  5
11C
100
AcDbEntity
  8
0
  6
ByLayer
 62
    7
370
   -1
100
AcDbSpline
210
0
220
0
230
0
 70
    8
 71
    3
 72
    8
 73
    4
 74
    0
 42
1e-07
 43
1e-07
 40
0
 40
0
 40
0
 40
0
 40
1
 40
1
 40
1
 40
1
 10
206.2392562633863
 20
29.16251
 30
0
 10
207.5089732633863
 20
28.401047
 30
0
 10
208.7626042633863
 20
27.418264
 30
0
 10
209.9451162633863
 20
26.259121
 30
0
  0
SPLINE
  5
11D
100
AcDbEntity
  8
0
  6
ByLayer
 62
    7
370
   -1
100
AcDbSpline
210
0
220
0
230
0
 70
    8
 71
    3
 72
    8
 73
    4
 74
    0
 42
1e-07
 43
1e-07
 40
0
 40
0
 40
0
 40
0
 40
1
 40
1
 40
1
 40
1
 10
209.9451162633863
 20
26.259121
 30
0
 10
212.7535092633863
 20
23.51911
 30
0
 10
215.1315132633863
 20
19.761632
 30
0
 10
216.4794072633863
 20
15.938508
 30
0
  0
SPLINE
  5
11E
100
AcDbEntity
  8
0
  6
ByLayer
 62
    7
370
   -1
100
AcDbSpline
210
0
220
0
230
0
 70
    8
 71
    3
 72
    8
 73
    4
 74
    0
 42
1e-07
 43
1e-07
 40
0
 40
0
 40
0
 40
0
 40
1
 40
1
 40
1
 40
1
 10
216.4794072633863
 20
15.938508
 30
0
 10
217.3401842633863
 20
13.516618
 30
0
 10
217.7948442633863
 20
11.080984
 30
0
 10
217.7931512633863
 20
8.875954
 30
0
  0
SPLINE
  5
11F
100
AcDbEntity
  8
0
  6
ByLayer
 62
    7
370
   -1
100
AcDbSpline
210
0
220
0
230
0
 70
    8
 71
    3
 72
    8
 73
    4
 74
    0
 42
1e-07
 43
1e-07
 40
0
 40
0
 40
0
 40
0
 40
1
 40
1
 40
1
 40
1
 10
217.7931512633863
 20
8.875954
 30
0
 10
217.7931512633863
 20
8.601541000000001
 30
0
 10
217.6043442633863
 20
8.338367999999999
 30
0
 10
217.2682182633863
 20
8.144328000000002
 30
0
  0
SPLINE
  5
120
100
AcDbEntity
  8
0
  6
ByLayer
 62
    7
370
   -1
100
AcDbSpline
210
0
220
0
230
0
 70
    8
 71
    3
 72
    8
 73
    4
 74
    0
 42
1e-07
 43
1e-07
 40
0
 40
0
 40
0
 40
0
 40
1
 40
1
 40
1
 40
1
 10
217.2682182633863
 20
8.144328000000002
 30
0
 10
217.2682182633863
 20
13.365968
 30
0
 10
214.7598272633863
 20
19.604886
 30
0
 10
210.7556582633863
 20
24.343002
 30
0
  0
SPLINE
  5
121
100
AcDbEntity
  8
0
  6
ByLayer
 62
    7
370
   -1
100
AcDbSpline
210
0
220
0
230
0
 70
    8
 71
    3
 72
    8
 73
    4
 74
    0
 42
1e-07
 43
1e-07
 40
0
 40
0
 40
0
 40
0
 40
1
 40
1
 40
1
 40
1
 10
210.7556582633863
 20
24.343002
 30
0
 10
206.7514892633863
 20
29.081146
 30
0
 10
201.9121682633863
 20
31.536536
 30
0
 10
198.1909272633863
 20
30.718148
 30
0
  0
SPLINE
  5
122
100
AcDbEntity
  8
0
  6
ByLayer
 62
    7
370
   -1
100
AcDbSpline
210
0
220
0
230
0
 70
    8
 71
    3
 72
    8
 73
    4
 74
    0
 42
1e-07
 43
1e-07
 40
0
 40
0
 40
0
 40
0
 40
1
 40
1
 40
1
 40
1
 10
198.1909272633863
 20
30.718148
 30
0
 10
198.2964222633863
 20
30.779051
 30
0
 10
198.4090002633863
 20
30.82288
 30
0
 10
198.5260092633863
 20
30.848619
 30
0
  0
LINE
  5
123
100
AcDbEntity
  8
0
  6
ByLayer
 62
    7
370
   -1
100
AcDbLine
 10
217.7931512633863
 20
8.875954
 11
217.7931512633863
 21
-10.293793
  0
SPLINE
  5
124
100
AcDbEntity
  8
0
  6
ByLayer
 62
    7
370
   -1
100
AcDbSpline
210
0
220
0
230
0
 70
    8
 71
    3
 72
    8
 73
    4
 74
    0
 42
1e-07
 43
1e-07
 40
0
 40
0
 40
0
 40
0
 40
1
 40
1
 40
1
 40
1
 10
217.7931512633863
 20
-10.293793
 30
0
 10
217.7931512633863
 20
-10.568226
 30
0
 10
217.6043442633863
 20
-10.831398
 30
0
 10
217.2682182633863
 20
-11.025426
 30
0
  0
LINE
  5
125
100
AcDbEntity
  8
0
  6
ByLayer
 62
    7
370
   -1
100
AcDbLine
 10
217.2682182633863
 20
-11.025426
 11
217.2682182633863
 21
8.144328000000002
  0
SPLINE
  5
126
100
AcDbEntity
  8
0
  6
ByLayer
 62
    7
370
   -1
100
AcDbSpline
210
0
220
0
230
0
 70
    8
 71
    3
 72
    8
 73
    4
 74
    0
 42
1e-07
 43
1e-07
 40
0
 40
0
 40
0
 40
0
 40
1
 40
1
 40
1
 40
1
 10
217.2682182633863
 20
8.144328000000002
 30
0
 10
217.6043442633863
 20
8.338367999999999
 30
0
 10
217.7931512633863
 20
8.601541000000001
 30
0
 10
217.7931512633863
 20
8.875954
 30
0
  0
SPLINE
  5
127
100
AcDbEntity
  8
0
  6
ByLayer
 62
    7
370
   -1
100
AcDbSpline
210
0
220
0
230
0
 70
    8
 71
    3
 72
    8
 73
    4
 74
    0
 42
1e-07
 43
1e-07
 40
0
 40
0
 40
0
 40
0
 40
1
 40
1
 40
1
 40
1
 10
187.4000192633863
 20
37.63516
 30
0
 10
187.3500942633863
 20
37.70374
 30
0
 10
187.0787092633863
 20
37.60468
 30
0
 10
186.6708132633863
 20
37.369307
 30
0
  0
SPLINE
  5
128
100
AcDbEntity
  8
0
  6
ByLayer
 62
    7
370
   -1
100
AcDbSpline
210
0
220
0
230
0
 70
    8
 71
    3
 72
    8
 73
    4
 74
    0
 42
1e-07
 43
1e-07
 40
0
 40
0
 40
0
 40
0
 40
1
 40
1
 40
1
 40
1
 10
186.6708132633863
 20
37.369307
 30
0
 10
181.8374472633863
 20
44.01338200000001
 30
0
 10
175.3098362633863
 20
47.09778900000001
 30
0
 10
171.1566062633863
 20
44.699747
 30
0
  0
SPLINE
  5
129
100
AcDbEntity
  8
0
  6
ByLayer
 62
    7
370
   -1
100
AcDbSpline
210
0
220
0
230
0
 70
    8
 71
    3
 72
    8
 73
    4
 74
    0
 42
1e-07
 43
1e-07
 40
0
 40
0
 40
0
 40
0
 40
1
 40
1
 40
1
 40
1
 10
171.1566062633863
 20
44.699747
 30
0
 10
173.0265262633863
 20
45.785456
 30
0
 10
175.3888222633863
 20
45.955918
 30
0
 10
177.8350082633863
 20
45.189967
 30
0
  0
SPLINE
  5
12A
100
AcDbEntity
  8
0
  6
ByLayer
 62
    7
370
   -1
100
AcDbSpline
210
0
220
0
230
0
 70
    8
 71
    3
 72
    8
 73
    4
 74
    0
 42
1e-07
 43
1e-07
 40
0
 40
0
 40
0
 40
0
 40
1
 40
1
 40
1
 40
1
 10
177.8350082633863
 20
45.189967
 30
0
 10
180.0319872633863
 20
44.511222
 30
0
 10
182.3103952633863
 20
43.08487100000001
 30
0
 10
184.3852932633863
 20
41.100002
 30
0
  0
SPLINE
  5
12B
100
AcDbEntity
  8
0
  6
ByLayer
 62
    7
370
   -1
100
AcDbSpline
210
0
220
0
230
0
 70
    8
 71
    3
 72
    8
 73
    4
 74
    0
 42
1e-07
 43
1e-07
 40
0
 40
0
 40
0
 40
0
 40
1
 40
1
 40
1
 40
1
 10
184.3852932633863
 20
41.100002
 30
0
 10
185.4584432633863
 20
40.075254
 30
0
 10
186.4762492633863
 20
38.90516
 30
0
 10
187.4000192633863
 20
37.63516
 30
0
  0
SPLINE
  5
12C
100
AcDbEntity
  8
0
  6
ByLayer
 62
    7
370
   -1
100
AcDbSpline
210
0
220
0
230
0
 70
    8
 71
    3
 72
    8
 73
    4
 74
    0
 42
1e-07
 43
1e-07
 40
0
 40
0
 40
0
 40
0
 40
1
 40
1
 40
1
 40
1
 10
187.4000192633863
 20
37.63516
 30
0
 10
188.5467442633863
 20
36.057002
 30
0
 10
189.8474222633863
 20
34.661582
 30
0
 10
191.1759552633863
 20
33.566447
 30
0
  0
SPLINE
  5
12D
100
AcDbEntity
  8
0
  6
ByLayer
 62
    7
370
   -1
100
AcDbSpline
210
0
220
0
230
0
 70
    8
 71
    3
 72
    8
 73
    4
 74
    0
 42
1e-07
 43
1e-07
 40
0
 40
0
 40
0
 40
0
 40
1
 40
1
 40
1
 40
1
 10
191.1759552633863
 20
33.566447
 30
0
 10
192.3047872633863
 20
32.633449
 30
0
 10
193.4521902633863
 20
31.91937
 30
0
 10
194.5188492633863
 20
31.453732
 30
0
  0
SPLINE
  5
12E
100
AcDbEntity
  8
0
  6
ByLayer
 62
    7
370
   -1
100
AcDbSpline
210
0
220
0
230
0
 70
    8
 71
    3
 72
    8
 73
    4
 74
    0
 42
1e-07
 43
1e-07
 40
0
 40
0
 40
0
 40
0
 40
1
 40
1
 40
1
 40
1
 10
194.5188492633863
 20
31.453732
 30
0
 10
196.1361232633863
 20
30.744197
 30
0
 10
197.5161052633863
 20
30.621063
 30
0
 10
198.5260092633863
 20
30.848619
 30
0
  0
SPLINE
  5
12F
100
AcDbEntity
  8
0
  6
ByLayer
 62
    7
370
   -1
100
AcDbSpline
210
0
220
0
230
0
 70
    8
 71
    3
 72
    8
 73
    4
 74
    0
 42
1e-07
 43
1e-07
 40
0
 40
0
 40
0
 40
0
 40
1
 40
1
 40
1
 40
1
 10
198.5260092633863
 20
30.848619
 30
0
 10
198.4090002633863
 20
30.82288
 30
0
 10
198.2964222633863
 20
30.779051
 30
0
 10
198.1909272633863
 20
30.718148
 30
0
  0
SPLINE
  5
130
100
AcDbEntity
  8
0
  6
ByLayer
 62
    7
370
   -1
100
AcDbSpline
210
0
220
0
230
0
 70
    8
 71
    3
 72
    8
 73
    4
 74
    0
 42
1e-07
 43
1e-07
 40
0
 40
0
 40
0
 40
0
 40
1
 40
1
 40
1
 40
1
 10
198.1909272633863
 20
30.718148
 30
0
 10
194.7239682633863
 20
29.955668
 30
0
 10
190.1377722633863
 20
32.603477
 30
0
 10
186.6708132633863
 20
37.369307
 30
0
  0
SPLINE
  5
131
100
AcDbEntity
  8
0
  6
ByLayer
 62
    7
370
   -1
100
AcDbSpline
210
0
220
0
230
0
 70
    8
 71
    3
 72
    8
 73
    4
 74
    0
 42
1e-07
 43
1e-07
 40
0
 40
0
 40
0
 40
0
 40
1
 40
1
 40
1
 40
1
 10
186.6708132633863
 20
37.369307
 30
0
 10
187.0787092633863
 20
37.60468
 30
0
 10
187.3500942633863
 20
37.70374
 30
0
 10
187.4000192633863
 20
37.63516
 30
0
  0
SPLINE
  5
132
100
AcDbEntity
  8
0
  6
ByLayer
 62
    7
370
   -1
100
AcDbSpline
210
0
220
0
230
0
 70
    8
 71
    3
 72
    8
 73
    4
 74
    0
 42
1e-07
 43
1e-07
 40
0
 40
0
 40
0
 40
0
 40
1
 40
1
 40
1
 40
1
 10
151.9047892633863
 20
18.205402
 30
0
 10
152.3726292633863
 20
15.719278
 30
0
 10
153.8710312633863
 20
13.123991
 30
0
 10
155.7901142633863
 20
11.475785
 30
0
  0
SPLINE
  5
133
100
AcDbEntity
  8
0
  6
ByLayer
 62
    7
370
   -1
100
AcDbSpline
210
0
220
0
230
0
 70
    8
 71
    3
 72
    8
 73
    4
 74
    0
 42
1e-07
 43
1e-07
 40
0
 40
0
 40
0
 40
0
 40
1
 40
1
 40
1
 40
1
 10
155.7901142633863
 20
11.475785
 30
0
 10
154.8841532633863
 20
13.884721
 30
0
 10
153.5379812633863
 20
16.216328
 30
0
 10
151.9047892633863
 20
18.205402
 30
0
  0
SPLINE
  5
134
100
AcDbEntity
  8
0
  6
ByLayer
 62
    7
370
   -1
100
AcDbSpline
210
0
220
0
230
0
 70
    8
 71
    3
 72
    8
 73
    4
 74
    0
 42
1e-07
 43
1e-07
 40
0
 40
0
 40
0
 40
0
 40
1
 40
1
 40
1
 40
1
 10
177.2490542633863
 20
3.572857000000001
 30
0
 10
177.7169072633863
 20
1.086762
 30
0
 10
179.2152982633863
 20
-1.508526
 30
0
 10
181.1344042633863
 20
-3.156759999999998
 30
0
  0
SPLINE
  5
135
100
AcDbEntity
  8
0
  6
ByLayer
 62
    7
370
   -1
100
AcDbSpline
210
0
220
0
230
0
 70
    8
 71
    3
 72
    8
 73
    4
 74
    0
 42
1e-07
 43
1e-07
 40
0
 40
0
 40
0
 40
0
 40
1
 40
1
 40
1
 40
1
 10
181.1344042633863
 20
-3.156759999999998
 30
0
 10
180.2284422633863
 20
-0.7478240000000014
 30
0
 10
178.8822702633863
 20
1.583811000000001
 30
0
 10
177.2490542633863
 20
3.572857000000001
 30
0
  0
SPLINE
  5
136
100
AcDbEntity
  8
0
  6
ByLayer
 62
    7
370
   -1
100
AcDbSpline
210
0
220
0
230
0
 70
    8
 71
    3
 72
    8
 73
    4
 74
    0
 42
1e-07
 43
1e-07
 40
0
 40
0
 40
0
 40
0
 40
1
 40
1
 40
1
 40
1
 10
136.1665822633863
 20
18.679733
 30
0
 10
136.1665822633863
 20
22.405292
 30
0
 10
137.4481532633863
 20
25.238295
 30
0
 10
139.7296382633863
 20
26.555454
 30
0
  0
SPLINE
  5
137
100
AcDbEntity
  8
0
  6
ByLayer
 62
    7
370
   -1
100
AcDbSpline
210
0
220
0
230
0
 70
    8
 71
    3
 72
    8
 73
    4
 74
    0
 42
1e-07
 43
1e-07
 40
0
 40
0
 40
0
 40
0
 40
1
 40
1
 40
1
 40
1
 10
139.7296382633863
 20
26.555454
 30
0
 10
143.8828202633863
 20
28.953327
 30
0
 10
150.4105352633863
 20
25.869034
 30
0
 10
155.2439012633863
 20
19.224958
 30
0
  0
SPLINE
  5
138
100
AcDbEntity
  8
0
  6
ByLayer
 62
    7
370
   -1
100
AcDbSpline
210
0
220
0
230
0
 70
    8
 71
    3
 72
    8
 73
    4
 74
    0
 42
1e-07
 43
1e-07
 40
0
 40
0
 40
0
 40
0
 40
1
 40
1
 40
1
 40
1
 10
155.2439012633863
 20
19.224958
 30
0
 10
158.7108882633863
 20
14.459156
 30
0
 10
163.2970562633863
 20
11.811319
 30
0
 10
166.7640152633863
 20
12.573799
 30
0
  0
LINE
  5
139
100
AcDbEntity
  8
0
  6
ByLayer
 62
    7
370
   -1
100
AcDbLine
 10
136.1665822633863
 20
18.679733
 11
136.1665822633863
 21
17.216495
  0
SPLINE
  5
13A
100
AcDbEntity
  8
0
  6
ByLayer
 62
    7
370
   -1
100
AcDbSpline
210
0
220
0
230
0
 70
    8
 71
    3
 72
    8
 73
    4
 74
    0
 42
1e-07
 43
1e-07
 40
0
 40
0
 40
0
 40
0
 40
1
 40
1
 40
1
 40
1
 10
153.2566902633863
 20
17.704909
 30
0
 10
149.9230812633863
 20
22.287351
 30
0
 10
145.5877242633863
 20
25.093628
 30
0
 10
142.0006802633863
 20
24.991125
 30
0
  0
SPLINE
  5
13B
100
AcDbEntity
  8
0
  6
ByLayer
 62
    7
370
   -1
100
AcDbSpline
210
0
220
0
230
0
 70
    8
 71
    3
 72
    8
 73
    4
 74
    0
 42
1e-07
 43
1e-07
 40
0
 40
0
 40
0
 40
0
 40
1
 40
1
 40
1
 40
1
 10
142.0006802633863
 20
24.991125
 30
0
 10
138.4136362633863
 20
24.888594
 30
0
 10
136.1665822633863
 20
21.894216
 30
0
 10
136.1665822633863
 20
17.216495
 30
0
  0
SPLINE
  5
13C
100
AcDbEntity
  8
0
  6
ByLayer
 62
    7
370
   -1
100
AcDbSpline
210
0
220
0
230
0
 70
    8
 71
    3
 72
    8
 73
    4
 74
    0
 42
1e-07
 43
1e-07
 40
0
 40
0
 40
0
 40
0
 40
1
 40
1
 40
1
 40
1
 10
166.2168142633863
 20
10.222363
 30
0
 10
162.3164752633863
 20
9.364582
 30
0
 10
157.1570292633863
 20
12.343392
 30
0
 10
153.2566902633863
 20
17.704909
 30
0
  0
SPLINE
  5
13D
100
AcDbEntity
  8
0
  6
ByLayer
 62
    7
370
   -1
100
AcDbSpline
210
0
220
0
230
0
 70
    8
 71
    3
 72
    8
 73
    4
 74
    0
 42
1e-07
 43
1e-07
 40
0
 40
0
 40
0
 40
0
 40
1
 40
1
 40
1
 40
1
 10
166.7640152633863
 20
12.573799
 30
0
 10
170.4852562633863
 20
13.392187
 30
0
 10
175.3245712633863
 20
10.936817
 30
0
 10
179.3288142633863
 20
6.198681000000001
 30
0
  0
SPLINE
  5
13E
100
AcDbEntity
  8
0
  6
ByLayer
 62
    7
370
   -1
100
AcDbSpline
210
0
220
0
230
0
 70
    8
 71
    3
 72
    8
 73
    4
 74
    0
 42
1e-07
 43
1e-07
 40
0
 40
0
 40
0
 40
0
 40
1
 40
1
 40
1
 40
1
 10
179.3288142633863
 20
6.198681000000001
 30
0
 10
183.3330562633863
 20
1.460537
 30
0
 10
185.8413622633863
 20
-4.778381
 30
0
 10
185.8413622633863
 20
-10
 30
0
  0
LINE
  5
13F
100
AcDbEntity
  8
0
  6
ByLayer
 62
    7
370
   -1
100
AcDbLine
 10
185.8413622633863
 20
-29.16966200000001
 11
217.2682182633863
 21
-11.025426
  0
SPLINE
  5
140
100
AcDbEntity
  8
0
  6
ByLayer
 62
    7
370
   -1
100
AcDbSpline
210
0
220
0
230
0
 70
    8
 71
    3
 72
    8
 73
    4
 74
    0
 42
1e-07
 43
1e-07
 40
0
 40
0
 40
0
 40
0
 40
1
 40
1
 40
1
 40
1
 10
217.7931512633863
 20
-10.293793
 30
0
 10
217.7931512633863
 20
-10.568226
 30
0
 10
217.6043442633863
 20
-10.831398
 30
0
 10
217.2682182633863
 20
-11.025426
 30
0
  0
LINE
  5
141
100
AcDbEntity
  8
0
  6
ByLayer
 62
    7
370
   -1
100
AcDbLine
 10
183.3069222633863
 20
-29.16966200000001
 11
136.1665822633863
 21
-1.953279999999999
  0
LINE
  5
142
100
AcDbEntity
  8
0
  6
ByLayer
 62
    7
370
   -1
100
AcDbLine
 10
185.8413622633863
 20
-29.16966200000001
 11
183.3069222633863
 21
-29.16966200000001
  0
LINE
  5
143
100
AcDbEntity
  8
0
  6
ByLayer
 62
    7
370
   -1
100
AcDbLine
 10
136.1665822633863
 20
17.216495
 11
136.1665822633863
 21
-1.953279999999999
  0
LINE
  5
144
100
AcDbEntity
  8
0
  6
ByLayer
 62
    7
370
   -1
100
AcDbLine
 10
183.3069222633863
 20
-29.16966200000001
 11
183.3069222633863
 21
-10
  0
SPLINE
  5
145
100
AcDbEntity
  8
0
  6
ByLayer
 62
    7
370
   -1
100
AcDbSpline
210
0
220
0
230
0
 70
    8
 71
    3
 72
    8
 73
    4
 74
    0
 42
1e-07
 43
1e-07
 40
0
 40
0
 40
0
 40
0
 40
1
 40
1
 40
1
 40
1
 10
183.3069222633863
 20
-10
 30
0
 10
183.3069222633863
 20
-5.322278999999998
 30
0
 10
181.0598972633863
 20
0.2667370000000009
 30
0
 10
177.4727762633863
 20
4.511331
 30
0
  0
SPLINE
  5
146
100
AcDbEntity
  8
0
  6
ByLayer
 62
    7
370
   -1
100
AcDbSpline
210
0
220
0
230
0
 70
    8
 71
    3
 72
    8
 73
    4
 74
    0
 42
1e-07
 43
1e-07
 40
0
 40
0
 40
0
 40
0
 40
1
 40
1
 40
1
 40
1
 10
177.4727762633863
 20
4.511331
 30
0
 10
173.8856392633863
 20
8.755896
 30
0
 10
169.5504232633863
 20
10.955503
 30
0
 10
166.2168142633863
 20
10.222363
 30
0
  0
SPLINE
  5
147
100
AcDbEntity
  8
0
  6
ByLayer
 62
    7
370
   -1
100
AcDbSpline
210
0
220
0
230
0
 70
    8
 71
    3
 72
    8
 73
    4
 74
    0
 42
1e-07
 43
1e-07
 40
0
 40
0
 40
0
 40
0
 40
1
 40
1
 40
1
 40
1
 10
157.0426732633863
 20
5.163659000000001
 30
0
 10
157.0426732633863
 20
9.823752000000001
 30
0
 10
154.6116112633863
 20
15.428561
 30
0
 10
150.8830602633863
 20
19.364573
 30
0
  0
SPLINE
  5
148
100
AcDbEntity
  8
0
  6
ByLayer
 62
    7
370
   -1
100
AcDbSpline
210
0
220
0
230
0
 70
    8
 71
    3
 72
    8
 73
    4
 74
    0
 42
1e-07
 43
1e-07
 40
0
 40
0
 40
0
 40
0
 40
1
 40
1
 40
1
 40
1
 10
150.8830602633863
 20
19.364573
 30
0
 10
147.1546222633863
 20
23.300586
 30
0
 10
142.8628692633863
 20
24.792666
 30
0
 10
140.0090382633863
 20
23.145081
 30
0
  0
SPLINE
  5
149
100
AcDbEntity
  8
0
  6
ByLayer
 62
    7
370
   -1
100
AcDbSpline
210
0
220
0
230
0
 70
    8
 71
    3
 72
    8
 73
    4
 74
    0
 42
1e-07
 43
1e-07
 40
0
 40
0
 40
0
 40
0
 40
1
 40
1
 40
1
 40
1
 10
140.0090382633863
 20
23.145081
 30
0
 10
136.1123962633863
 20
20.895347
 30
0
 10
136.1123962633863
 20
13.600213
 30
0
 10
140.0090382633863
 20
6.850981000000001
 30
0
  0
SPLINE
  5
14A
100
AcDbEntity
  8
0
  6
ByLayer
 62
    7
370
   -1
100
AcDbSpline
210
0
220
0
230
0
 70
    8
 71
    3
 72
    8
 73
    4
 74
    0
 42
1e-07
 43
1e-07
 40
0
 40
0
 40
0
 40
0
 40
1
 40
1
 40
1
 40
1
 10
140.0090382633863
 20
6.850981000000001
 30
0
 10
143.9056802633863
 20
0.1017500000000009
 30
0
 10
150.2234782633863
 20
-3.545832000000001
 30
0
 10
154.1201772633863
 20
-1.296068999999999
 30
0
  0
SPLINE
  5
14B
100
AcDbEntity
  8
0
  6
ByLayer
 62
    7
370
   -1
100
AcDbSpline
210
0
220
0
230
0
 70
    8
 71
    3
 72
    8
 73
    4
 74
    0
 42
1e-07
 43
1e-07
 40
0
 40
0
 40
0
 40
0
 40
1
 40
1
 40
1
 40
1
 10
154.1201772633863
 20
-1.296068999999999
 30
0
 10
155.9914232633863
 20
-0.2156939999999992
 30
0
 10
157.0426732633863
 20
2.107926000000001
 30
0
 10
157.0426732633863
 20
5.163659000000001
 30
0
  0
SPLINE
  5
14C
100
AcDbEntity
  8
0
  6
ByLayer
 62
    7
370
   -1
100
AcDbSpline
210
0
220
0
230
0
 70
    8
 71
    3
 72
    8
 73
    4
 74
    0
 42
1e-07
 43
1e-07
 40
0
 40
0
 40
0
 40
0
 40
1
 40
1
 40
1
 40
1
 10
182.3869622633863
 20
-9.468858000000001
 30
0
 10
182.3869622633863
 20
-4.808775999999998
 30
0
 10
179.9558722633863
 20
0.7960440000000002
 30
0
 10
176.2273302633863
 20
4.732057000000001
 30
0
  0
SPLINE
  5
14D
100
AcDbEntity
  8
0
  6
ByLayer
 62
    7
370
   -1
100
AcDbSpline
210
0
220
0
230
0
 70
    8
 71
    3
 72
    8
 73
    4
 74
    0
 42
1e-07
 43
1e-07
 40
0
 40
0
 40
0
 40
0
 40
1
 40
1
 40
1
 40
1
 10
176.2273302633863
 20
4.732057000000001
 30
0
 10
172.4987702633863
 20
8.668058
 30
0
 10
168.2070452633863
 20
10.16015
 30
0
 10
165.3533272633863
 20
8.512563
 30
0
  0
SPLINE
  5
14E
100
AcDbEntity
  8
0
  6
ByLayer
 62
    7
370
   -1
100
AcDbSpline
210
0
220
0
230
0
 70
    8
 71
    3
 72
    8
 73
    4
 74
    0
 42
1e-07
 43
1e-07
 40
0
 40
0
 40
0
 40
0
 40
1
 40
1
 40
1
 40
1
 10
165.3533272633863
 20
8.512563
 30
0
 10
161.4566572633863
 20
6.262816000000001
 30
0
 10
161.4566572633863
 20
-1.032304
 30
0
 10
165.3533272633863
 20
-7.781535999999999
 30
0
  0
SPLINE
  5
14F
100
AcDbEntity
  8
0
  6
ByLayer
 62
    7
370
   -1
100
AcDbSpline
210
0
220
0
230
0
 70
    8
 71
    3
 72
    8
 73
    4
 74
    0
 42
1e-07
 43
1e-07
 40
0
 40
0
 40
0
 40
0
 40
1
 40
1
 40
1
 40
1
 10
165.3533272633863
 20
-7.781535999999999
 30
0
 10
169.2499982633863
 20
-14.530795
 30
0
 10
175.5677712633863
 20
-18.178348
 30
0
 10
179.4644472633863
 20
-15.928586
 30
0
  0
SPLINE
  5
150
100
AcDbEntity
  8
0
  6
ByLayer
 62
    7
370
   -1
100
AcDbSpline
210
0
220
0
230
0
 70
    8
 71
    3
 72
    8
 73
    4
 74
    0
 42
1e-07
 43
1e-07
 40
0
 40
0
 40
0
 40
0
 40
1
 40
1
 40
1
 40
1
 10
179.4644472633863
 20
-15.928586
 30
0
 10
181.3356842633863
 20
-14.848239
 30
0
 10
182.3869622633863
 20
-12.52459
 30
0
 10
182.3869622633863
 20
-9.468858000000001
 30
0
  0
LINE
  5
151
100
AcDbEntity
  8
0
  6
ByLayer
 62
    7
370
   -1
100
AcDbLine
 10
185.8413622633863
 20
-10
 11
185.8413622633863
 21
-29.16966200000001
  0
SPLINE
  5
152
100
AcDbEntity
  8
0
  6
ByLayer
 62
    7
370
   -1
100
AcDbSpline
210
0
220
0
230
0
 70
    8
 71
    3
 72
    8
 73
    4
 74
    0
 42
1e-07
 43
1e-07
 40
0
 40
0
 40
0
 40
0
 40
1
 40
1
 40
1
 40
1
 10
147.0645932633863
 20
22.446186
 30
0
 10
147.0645932633863
 20
16.08295
 30
0
 10
151.5319452633863
 20
8.345293999999999
 30
0
 10
157.0426732633863
 20
5.163659000000001
 30
0
  0
SPLINE
  5
153
100
AcDbEntity
  8
0
  6
ByLayer
 62
    7
370
   -1
100
AcDbSpline
210
0
220
0
230
0
 70
    8
 71
    3
 72
    8
 73
    4
 74
    0
 42
1e-07
 43
1e-07
 40
0
 40
0
 40
0
 40
0
 40
1
 40
1
 40
1
 40
1
 10
172.4088832633863
 20
7.813655000000001
 30
0
 10
172.4088832633863
 20
1.450405
 30
0
 10
176.8762212633863
 20
-6.287224999999999
 30
0
 10
182.3869622633863
 20
-9.468858000000001
 30
0
  0
SPLINE
  5
154
100
AcDbEntity
  8
0
  6
ByLayer
 62
    7
370
   -1
100
AcDbSpline
210
0
220
0
230
0
 70
    8
 71
    3
 72
    8
 73
    4
 74
    0
 42
1e-07
 43
1e-07
 40
0
 40
0
 40
0
 40
0
 40
1
 40
1
 40
1
 40
1
 10
151.9047892633863
 20
18.205402
 30
0
 10
152.3726292633863
 20
15.719278
 30
0
 10
153.8710312633863
 20
13.123991
 30
0
 10
155.7901142633863
 20
11.475785
 30
0
  0
SPLINE
  5
155
100
AcDbEntity
  8
0
  6
ByLayer
 62
    7
370
   -1
100
AcDbSpline
210
0
220
0
230
0
 70
    8
 71
    3
 72
    8
 73
    4
 74
    0
 42
1e-07
 43
1e-07
 40
0
 40
0
 40
0
 40
0
 40
1
 40
1
 40
1
 40
1
 10
177.2490542633863
 20
3.572857000000001
 30
0
 10
177.7169072633863
 20
1.086762
 30
0
 10
179.2152982633863
 20
-1.508526
 30
0
 10
181.1344042633863
 20
-3.156759999999998
 30
0
  0
LINE
  5
156
100
AcDbEntity
  8
0
  6
ByLayer
 62
    7
370
   -1
100
AcDbLine
 10
155.2439012633863
 20
19.224958
 11
186.6708132633863
 21
37.369307
  0
SPLINE
  5
157
100
AcDbEntity
  8
0
  6
ByLayer
 62
    7
370
   -1
100
AcDbSpline
210
0
220
0
230
0
 70
    8
 71
    3
 72
    8
 73
    4
 74
    0
 42
1e-07
 43
1e-07
 40
0
 40
0
 40
0
 40
0
 40
1
 40
1
 40
1
 40
1
 10
186.6708132633863
 20
37.369307
 30
0
 10
181.8374472633863
 20
44.01338200000001
 30
0
 10
175.3098362633863
 20
47.09778900000001
 30
0
 10
171.1566062633863
 20
44.699747
 30
0
  0
SPLINE
  5
158
100
AcDbEntity
  8
0
  6
ByLayer
 62
    7
370
   -1
100
AcDbSpline
210
0
220
0
230
0
 70
    8
 71
    3
 72
    8
 73
    4
 74
    0
 42
1e-07
 43
1e-07
 40
0
 40
0
 40
0
 40
0
 40
1
 40
1
 40
1
 40
1
 10
198.1909272633863
 20
30.718148
 30
0
 10
194.7239682633863
 20
29.955668
 30
0
 10
190.1377722633863
 20
32.603477
 30
0
 10
186.6708132633863
 20
37.369307
 30
0
  0
LINE
  5
159
100
AcDbEntity
  8
0
  6
ByLayer
 62
    7
370
   -1
100
AcDbLine
 10
166.7640152633863
 20
12.573799
 11
198.1909272633863
 21
30.718148
  0
SPLINE
  5
15A
100
AcDbEntity
  8
0
  6
ByLayer
 62
    7
370
   -1
100
AcDbSpline
210
0
220
0
230
0
 70
    8
 71
    3
 72
    8
 73
    4
 74
    0
 42
1e-07
 43
1e-07
 40
0
 40
0
 40
0
 40
0
 40
1
 40
1
 40
1
 40
1
 10
187.4000192633863
 20
37.63516
 30
0
 10
187.3500942633863
 20
37.70374
 30
0
 10
187.0787092633863
 20
37.60468
 30
0
 10
186.6708132633863
 20
37.369307
 30
0
  0
LINE
  5
15B
100
AcDbEntity
  8
0
  6
ByLayer
 62
    7
370
   -1
100
AcDbLine
 10
155.2439012633863
 20
19.224958
 11
153.2566902633863
 21
17.704909
  0
LINE
  5
15C
100
AcDbEntity
  8
0
  6
ByLayer
 62
    7
370
   -1
100
AcDbLine
 10
166.7640152633863
 20
12.573799
 11
166.2168142633863
 21
10.222363
  0
SPLINE
  5
15D
100
AcDbEntity
  8
0
  6
ByLayer
 62
    7
370
   -1
100
AcDbSpline
210
0
220
0
230
0
 70
    8
 71
    3
 72
    8
 73
    4
 74
    0
 42
1e-07
 43
1e-07
 40
0
 40
0
 40
0
 40
0
 40
1
 40
1
 40
1
 40
1
 10
198.5260092633863
 20
30.848619
 30
0
 10
198.4090002633863
 20
30.82288
 30
0
 10
198.2964222633863
 20
30.779051
 30
0
 10
198.1909272633863
 20
30.718148
 30
0
  0
LINE
  5
15E
100
AcDbEntity
  8
0
  6
ByLayer
 62
    7
370
   -1
100
AcDbLine
 10
185.8413622633863
 20
-10
 11
217.2682182633863
 21
8.144328000000002
  0
SPLINE
  5
15F
100
AcDbEntity
  8
0
  6
ByLayer
 62
    7
370
   -1
100
AcDbSpline
210
0
220
0
230
0
 70
    8
 71
    3
 72
    8
 73
    4
 74
    0
 42
1e-07
 43
1e-07
 40
0
 40
0
 40
0
 40
0
 40
1
 40
1
 40
1
 40
1
 10
217.2682182633863
 20
8.144328000000002
 30
0
 10
217.2682182633863
 20
13.365968
 30
0
 10
214.7598272633863
 20
19.604886
 30
0
 10
210.7556582633863
 20
24.343002
 30
0
  0
SPLINE
  5
160
100
AcDbEntity
  8
0
  6
ByLayer
 62
    7
370
   -1
100
AcDbSpline
210
0
220
0
230
0
 70
    8
 71
    3
 72
    8
 73
    4
 74
    0
 42
1e-07
 43
1e-07
 40
0
 40
0
 40
0
 40
0
 40
1
 40
1
 40
1
 40
1
 10
210.7556582633863
 20
24.343002
 30
0
 10
206.7514892633863
 20
29.081146
 30
0
 10
201.9121682633863
 20
31.536536
 30
0
 10
198.1909272633863
 20
30.718148
 30
0
  0
LINE
  5
161
100
AcDbEntity
  8
0
  6
ByLayer
 62
    7
370
   -1
100
AcDbLine
 10
185.8413622633863
 20
-10
 11
183.3069222633863
 21
-10
  0
SPLINE
  5
162
100
AcDbEntity
  8
0
  6
ByLayer
 62
    7
370
   -1
100
AcDbSpline
210
0
220
0
230
0
 70
    8
 71
    3
 72
    8
 73
    4
 74
    0
 42
1e-07
 43
1e-07
 40
0
 40
0
 40
0
 40
0
 40
1
 40
1
 40
1
 40
1
 10
217.7931512633863
 20
8.875954
 30
0
 10
217.7931512633863
 20
8.601541000000001
 30
0
 10
217.6043442633863
 20
8.338367999999999
 30
0
 10
217.2682182633863
 20
8.144328000000002
 30
0
  0
LINE
  5
163
100
AcDbEntity
  8
0
  6
ByLayer
 62
    7
370
   -1
100
AcDbLine
 10
217.2682182633863
 20
-11.025426
 11
217.2682182633863
 21
8.144328000000002
  0
LINE
  5
164
100
AcDbEntity
  8
0
  6
ByLayer
 62
    7
370
   -1
100
AcDbLine
 10
139.7296382633863
 20
26.555454
 11
171.1566062633863
 21
44.699747
  0
SPLINE
  5
165
100
AcDbEntity
  8
0
  6
ByLayer
 62
    7
370
   -1
100
AcDbSpline
210
0
220
0
230
0
 70
    8
 71
    3
 72
    8
 73
    4
 74
    0
 42
1e-07
 43
1e-07
 40
0
 40
0
 40
0
 40
0
 40
1
 40
1
 40
1
 40
1
 10
171.1566062633863
 20
44.699747
 30
0
 10
173.0265262633863
 20
45.785456
 30
0
 10
175.3888222633863
 20
45.955918
 30
0
 10
177.8350082633863
 20
45.189967
 30
0
  0
SPLINE
  5
166
100
AcDbEntity
  8
0
  6
ByLayer
 62
    7
370
   -1
100
AcDbSpline
210
0
220
0
230
0
 70
    8
 71
    3
 72
    8
 73
    4
 74
    0
 42
1e-07
 43
1e-07
 40
0
 40
0
 40
0
 40
0
 40
1
 40
1
 40
1
 40
1
 10
177.8350082633863
 20
45.189967
 30
0
 10
180.0319872633863
 20
44.511222
 30
0
 10
182.3103952633863
 20
43.08487100000001
 30
0
 10
184.3852932633863
 20
41.100002
 30
0
  0
SPLINE
  5
167
100
AcDbEntity
  8
0
  6
ByLayer
 62
    7
370
   -1
100
AcDbSpline
210
0
220
0
230
0
 70
    8
 71
    3
 72
    8
 73
    4
 74
    0
 42
1e-07
 43
1e-07
 40
0
 40
0
 40
0
 40
0
 40
1
 40
1
 40
1
 40
1
 10
184.3852932633863
 20
41.100002
 30
0
 10
185.4584432633863
 20
40.075254
 30
0
 10
186.4762492633863
 20
38.90516
 30
0
 10
187.4000192633863
 20
37.63516
 30
0
  0
SPLINE
  5
168
100
AcDbEntity
  8
0
  6
ByLayer
 62
    7
370
   -1
100
AcDbSpline
210
0
220
0
230
0
 70
    8
 71
    3
 72
    8
 73
    4
 74
    0
 42
1e-07
 43
1e-07
 40
0
 40
0
 40
0
 40
0
 40
1
 40
1
 40
1
 40
1
 10
187.4000192633863
 20
37.63516
 30
0
 10
188.5467442633863
 20
36.057002
 30
0
 10
189.8474222633863
 20
34.661582
 30
0
 10
191.1759552633863
 20
33.566447
 30
0
  0
SPLINE
  5
169
100
AcDbEntity
  8
0
  6
ByLayer
 62
    7
370
   -1
100
AcDbSpline
210
0
220
0
230
0
 70
    8
 71
    3
 72
    8
 73
    4
 74
    0
 42
1e-07
 43
1e-07
 40
0
 40
0
 40
0
 40
0
 40
1
 40
1
 40
1
 40
1
 10
191.1759552633863
 20
33.566447
 30
0
 10
192.3047872633863
 20
32.633449
 30
0
 10
193.4521902633863
 20
31.91937
 30
0
 10
194.5188492633863
 20
31.453732
 30
0
  0
SPLINE
  5
16A
100
AcDbEntity
  8
0
  6
ByLayer
 62
    7
370
   -1
100
AcDbSpline
210
0
220
0
230
0
 70
    8
 71
    3
 72
    8
 73
    4
 74
    0
 42
1e-07
 43
1e-07
 40
0
 40
0
 40
0
 40
0
 40
1
 40
1
 40
1
 40
1
 10
194.5188492633863
 20
31.453732
 30
0
 10
196.1361232633863
 20
30.744197
 30
0
 10
197.5161052633863
 20
30.621063
 30
0
 10
198.5260092633863
 20
30.848619
 30
0
  0
SPLINE
  5
16B
100
AcDbEntity
  8
0
  6
ByLayer
 62
    7
370
   -1
100
AcDbSpline
210
0
220
0
230
0
 70
    8
 71
    3
 72
    8
 73
    4
 74
    0
 42
1e-07
 43
1e-07
 40
0
 40
0
 40
0
 40
0
 40
1
 40
1
 40
1
 40
1
 10
198.5260092633863
 20
30.848619
 30
0
 10
199.3044352633863
 20
31.019279
 30
0
 10
200.1189562633863
 20
31.069063
 30
0
 10
200.9696022633863
 20
30.997999
 30
0
  0
SPLINE
  5
16C
100
AcDbEntity
  8
0
  6
ByLayer
 62
    7
370
   -1
100
AcDbSpline
210
0
220
0
230
0
 70
    8
 71
    3
 72
    8
 73
    4
 74
    0
 42
1e-07
 43
1e-07
 40
0
 40
0
 40
0
 40
0
 40
1
 40
1
 40
1
 40
1
 10
200.9696022633863
 20
30.997999
 30
0
 10
202.6639232633863
 20
30.857283
 30
0
 10
204.4665332633863
 20
30.227448
 30
0
 10
206.2392562633863
 20
29.16251
 30
0
  0
SPLINE
  5
16D
100
AcDbEntity
  8
0
  6
ByLayer
 62
    7
370
   -1
100
AcDbSpline
210
0
220
0
230
0
 70
    8
 71
    3
 72
    8
 73
    4
 74
    0
 42
1e-07
 43
1e-07
 40
0
 40
0
 40
0
 40
0
 40
1
 40
1
 40
1
 40
1
 10
206.2392562633863
 20
29.16251
 30
0
 10
207.5089732633863
 20
28.401047
 30
0
 10
208.7626042633863
 20
27.418264
 30
0
 10
209.9451162633863
 20
26.259121
 30
0
  0
SPLINE
  5
16E
100
AcDbEntity
  8
0
  6
ByLayer
 62
    7
370
   -1
100
AcDbSpline
210
0
220
0
230
0
 70
    8
 71
    3
 72
    8
 73
    4
 74
    0
 42
1e-07
 43
1e-07
 40
0
 40
0
 40
0
 40
0
 40
1
 40
1
 40
1
 40
1
 10
209.9451162633863
 20
26.259121
 30
0
 10
212.7535092633863
 20
23.51911
 30
0
 10
215.1315132633863
 20
19.761632
 30
0
 10
216.4794072633863
 20
15.938508
 30
0
  0
SPLINE
  5
16F
100
AcDbEntity
  8
0
  6
ByLayer
 62
    7
370
   -1
100
AcDbSpline
210
0
220
0
230
0
 70
    8
 71
    3
 72
    8
 73
    4
 74
    0
 42
1e-07
 43
1e-07
 40
0
 40
0
 40
0
 40
0
 40
1
 40
1
 40
1
 40
1
 10
216.4794072633863
 20
15.938508
 30
0
 10
217.3401842633863
 20
13.516618
 30
0
 10
217.7948442633863
 20
11.080984
 30
0
 10
217.7931512633863
 20
8.875954
 30
0
  0
LINE
  5
170
100
AcDbEntity
  8
0
  6
ByLayer
 62
    7
370
   -1
100
AcDbLine
 10
217.7931512633863
 20
8.875954
 11
217.7931512633863
 21
-10.293793
  0
SPLINE
  5
171
100
AcDbEntity
  8
0
  6
ByLayer
 62
    7
370
   -1
100
AcDbSpline
210
0
220
0
230
0
 70
    8
 71
    3
 72
    8
 73
    4
 74
    0
 42
1e-07
 43
1e-07
 40
0
 40
0
 40
0
 40
0
 40
1
 40
1
 40
1
 40
1
 10
266.8835033740764
 20
18.679733
 30
0
 10
266.8835033740764
 20
22.405292
 30
0
 10
268.1650743740765
 20
25.238295
 30
0
 10
270.4465583740765
 20
26.555454
 30
0
  0
LINE
  5
172
100
AcDbEntity
  8
0
  6
ByLayer
 62
    7
370
   -1
100
AcDbLine
 10
270.4465583740765
 20
26.555454
 11
301.8735273740764
 21
44.699747
  0
SPLINE
  5
173
100
AcDbEntity
  8
0
  6
ByLayer
 62
    7
370
   -1
100
AcDbSpline
210
0
220
0
230
0
 70
    8
 71
    3
 72
    8
 73
    4
 74
    0
 42
1e-07
 43
1e-07
 40
0
 40
0
 40
0
 40
0
 40
1
 40
1
 40
1
 40
1
 10
301.8735273740764
 20
44.699747
 30
0
 10
303.7434463740764
 20
45.785455
 30
0
 10
306.1057423740764
 20
45.955918
 30
0
 10
308.5519293740765
 20
45.189967
 30
0
  0
SPLINE
  5
174
100
AcDbEntity
  8
0
  6
ByLayer
 62
    7
370
   -1
100
AcDbSpline
210
0
220
0
230
0
 70
    8
 71
    3
 72
    8
 73
    4
 74
    0
 42
1e-07
 43
1e-07
 40
0
 40
0
 40
0
 40
0
 40
1
 40
1
 40
1
 40
1
 10
308.5519293740765
 20
45.189967
 30
0
 10
310.7489083740764
 20
44.511222
 30
0
 10
313.0273163740765
 20
43.084871
 30
0
 10
315.1022143740764
 20
41.100002
 30
0
  0
SPLINE
  5
175
100
AcDbEntity
  8
0
  6
ByLayer
 62
    7
370
   -1
100
AcDbSpline
210
0
220
0
230
0
 70
    8
 71
    3
 72
    8
 73
    4
 74
    0
 42
1e-07
 43
1e-07
 40
0
 40
0
 40
0
 40
0
 40
1
 40
1
 40
1
 40
1
 10
315.1022143740764
 20
41.100002
 30
0
 10
316.1753643740764
 20
40.075253
 30
0
 10
317.1931703740764
 20
38.90516
 30
0
 10
318.1169403740764
 20
37.63516
 30
0
  0
SPLINE
  5
176
100
AcDbEntity
  8
0
  6
ByLayer
 62
    7
370
   -1
100
AcDbSpline
210
0
220
0
230
0
 70
    8
 71
    3
 72
    8
 73
    4
 74
    0
 42
1e-07
 43
1e-07
 40
0
 40
0
 40
0
 40
0
 40
1
 40
1
 40
1
 40
1
 10
318.1169403740764
 20
37.63516
 30
0
 10
319.2636653740764
 20
36.057001
 30
0
 10
320.5643423740764
 20
34.661582
 30
0
 10
321.8928753740764
 20
33.566447
 30
0
  0
SPLINE
  5
177
100
AcDbEntity
  8
0
  6
ByLayer
 62
    7
370
   -1
100
AcDbSpline
210
0
220
0
230
0
 70
    8
 71
    3
 72
    8
 73
    4
 74
    0
 42
1e-07
 43
1e-07
 40
0
 40
0
 40
0
 40
0
 40
1
 40
1
 40
1
 40
1
 10
321.8928753740764
 20
33.566447
 30
0
 10
323.0217083740765
 20
32.633448
 30
0
 10
324.1691103740765
 20
31.91937
 30
0
 10
325.2357693740764
 20
31.453731
 30
0
  0
SPLINE
  5
178
100
AcDbEntity
  8
0
  6
ByLayer
 62
    7
370
   -1
100
AcDbSpline
210
0
220
0
230
0
 70
    8
 71
    3
 72
    8
 73
    4
 74
    0
 42
1e-07
 43
1e-07
 40
0
 40
0
 40
0
 40
0
 40
1
 40
1
 40
1
 40
1
 10
325.2357693740764
 20
31.453731
 30
0
 10
326.8530443740764
 20
30.744196
 30
0
 10
328.2330263740764
 20
30.621063
 30
0
 10
329.2429303740764
 20
30.848619
 30
0
  0
SPLINE
  5
179
100
AcDbEntity
  8
0
  6
ByLayer
 62
    7
370
   -1
100
AcDbSpline
210
0
220
0
230
0
 70
    8
 71
    3
 72
    8
 73
    4
 74
    0
 42
1e-07
 43
1e-07
 40
0
 40
0
 40
0
 40
0
 40
1
 40
1
 40
1
 40
1
 10
329.2429303740764
 20
30.848619
 30
0
 10
330.0213553740764
 20
31.019278
 30
0
 10
330.8358773740765
 20
31.069062
 30
0
 10
331.6865233740764
 20
30.997999
 30
0
  0
SPLINE
  5
17A
100
AcDbEntity
  8
0
  6
ByLayer
 62
    7
370
   -1
100
AcDbSpline
210
0
220
0
230
0
 70
    8
 71
    3
 72
    8
 73
    4
 74
    0
 42
1e-07
 43
1e-07
 40
0
 40
0
 40
0
 40
0
 40
1
 40
1
 40
1
 40
1
 10
331.6865233740764
 20
30.997999
 30
0
 10
333.3808443740764
 20
30.857283
 30
0
 10
335.1834543740765
 20
30.227447
 30
0
 10
336.9561763740764
 20
29.16251
 30
0
  0
SPLINE
  5
17B
100
AcDbEntity
  8
0
  6
ByLayer
 62
    7
370
   -1
100
AcDbSpline
210
0
220
0
230
0
 70
    8
 71
    3
 72
    8
 73
    4
 74
    0
 42
1e-07
 43
1e-07
 40
0
 40
0
 40
0
 40
0
 40
1
 40
1
 40
1
 40
1
 10
336.9561763740764
 20
29.16251
 30
0
 10
338.2258943740765
 20
28.401046
 30
0
 10
339.4795253740764
 20
27.418264
 30
0
 10
340.6620363740764
 20
26.259121
 30
0
  0
SPLINE
  5
17C
100
AcDbEntity
  8
0
  6
ByLayer
 62
    7
370
   -1
100
AcDbSpline
210
0
220
0
230
0
 70
    8
 71
    3
 72
    8
 73
    4
 74
    0
 42
1e-07
 43
1e-07
 40
0
 40
0
 40
0
 40
0
 40
1
 40
1
 40
1
 40
1
 10
340.6620363740764
 20
26.259121
 30
0
 10
343.4704293740764
 20
23.51911
 30
0
 10
345.8484343740764
 20
19.761631
 30
0
 10
347.1963273740764
 20
15.938508
 30
0
  0
SPLINE
  5
17D
100
AcDbEntity
  8
0
  6
ByLayer
 62
    7
370
   -1
100
AcDbSpline
210
0
220
0
230
0
 70
    8
 71
    3
 72
    8
 73
    4
 74
    0
 42
1e-07
 43
1e-07
 40
0
 40
0
 40
0
 40
0
 40
1
 40
1
 40
1
 40
1
 10
347.1963273740764
 20
15.938508
 30
0
 10
348.0571053740765
 20
13.516618
 30
0
 10
348.5117653740764
 20
11.080984
 30
0
 10
348.5100723740765
 20
8.875952999999999
 30
0
  0
LINE
  5
17E
100
AcDbEntity
  8
0
  6
ByLayer
 62
    7
370
   -1
100
AcDbLine
 10
348.5100723740765
 20
8.875952999999999
 11
348.5100723740765
 21
-10.293793
  0
SPLINE
  5
17F
100
AcDbEntity
  8
0
  6
ByLayer
 62
    7
370
   -1
100
AcDbSpline
210
0
220
0
230
0
 70
    8
 71
    3
 72
    8
 73
    4
 74
    0
 42
1e-07
 43
1e-07
 40
0
 40
0
 40
0
 40
0
 40
1
 40
1
 40
1
 40
1
 10
348.5100723740765
 20
-10.293793
 30
0
 10
348.5100723740765
 20
-10.568226
 30
0
 10
348.3212653740765
 20
-10.831399
 30
0
 10
347.9851383740764
 20
-11.025426
 30
0
  0
LINE
  5
180
100
AcDbEntity
  8
0
  6
ByLayer
 62
    7
370
   -1
100
AcDbLine
 10
347.9851383740764
 20
-11.025426
 11
347.2112853740765
 21
-11.472297
  0
LINE
  5
181
100
AcDbEntity
  8
0
  6
ByLayer
 62
    7
370
   -1
100
AcDbLine
 10
347.2112853740765
 20
-11.472297
 11
347.2112853740765
 21
-11.472297
  0
SPLINE
  5
182
100
AcDbEntity
  8
0
  6
ByLayer
 62
    7
370
   -1
100
AcDbSpline
210
0
220
0
230
0
 70
    8
 71
    3
 72
    8
 73
    4
 74
    0
 42
1e-07
 43
1e-07
 40
0
 40
0
 40
0
 40
0
 40
1
 40
1
 40
1
 40
1
 10
347.2112853740765
 20
-11.472297
 30
0
 10
343.1266833740764
 20
-9.531172999999999
 30
0
 10
337.7986093740764
 20
-10.224
 30
0
 10
332.2717393740764
 20
-13.41503
 30
0
  0
SPLINE
  5
183
100
AcDbEntity
  8
0
  6
ByLayer
 62
    7
370
   -1
100
AcDbSpline
210
0
220
0
230
0
 70
    8
 71
    3
 72
    8
 73
    4
 74
    0
 42
1e-07
 43
1e-07
 40
0
 40
0
 40
0
 40
0
 40
1
 40
1
 40
1
 40
1
 10
332.2717393740764
 20
-13.41503
 30
0
 10
326.7447273740764
 20
-16.60606
 30
0
 10
321.4169083740765
 20
-22.065282
 30
0
 10
317.3322773740765
 20
-28.722905
 30
0
  0
LINE
  5
184
100
AcDbEntity
  8
0
  6
ByLayer
 62
    7
370
   -1
100
AcDbLine
 10
317.3322773740765
 20
-28.722905
 11
316.5582833740764
 21
-29.169662
  0
LINE
  5
185
100
AcDbEntity
  8
0
  6
ByLayer
 62
    7
370
   -1
100
AcDbLine
 10
316.5582833740764
 20
-29.169662
 11
314.0238423740764
 21
-29.169662
  0
LINE
  5
186
100
AcDbEntity
  8
0
  6
ByLayer
 62
    7
370
   -1
100
AcDbLine
 10
314.0238423740764
 20
-29.169662
 11
314.0238423740764
 21
-10
  0
SPLINE
  5
187
100
AcDbEntity
  8
0
  6
ByLayer
 62
    7
370
   -1
100
AcDbSpline
210
0
220
0
230
0
 70
    8
 71
    3
 72
    8
 73
    4
 74
    0
 42
1e-07
 43
1e-07
 40
0
 40
0
 40
0
 40
0
 40
1
 40
1
 40
1
 40
1
 10
314.0238423740764
 20
-10
 30
0
 10
314.0238423740764
 20
-5.322279999999999
 30
0
 10
311.7768173740764
 20
0.2667359999999981
 30
0
 10
308.1896973740764
 20
4.511329999999999
 30
0
  0
SPLINE
  5
188
100
AcDbEntity
  8
0
  6
ByLayer
 62
    7
370
   -1
100
AcDbSpline
210
0
220
0
230
0
 70
    8
 71
    3
 72
    8
 73
    4
 74
    0
 42
1e-07
 43
1e-07
 40
0
 40
0
 40
0
 40
0
 40
1
 40
1
 40
1
 40
1
 10
308.1896973740764
 20
4.511329999999999
 30
0
 10
304.6025593740765
 20
8.755896
 30
0
 10
300.2673443740765
 20
10.955502
 30
0
 10
296.9337353740764
 20
10.222362
 30
0
  0
SPLINE
  5
189
100
AcDbEntity
  8
0
  6
ByLayer
 62
    7
370
   -1
100
AcDbSpline
210
0
220
0
230
0
 70
    8
 71
    3
 72
    8
 73
    4
 74
    0
 42
1e-07
 43
1e-07
 40
0
 40
0
 40
0
 40
0
 40
1
 40
1
 40
1
 40
1
 10
296.9337353740764
 20
10.222362
 30
0
 10
293.0333953740765
 20
9.364582
 30
0
 10
287.8739503740765
 20
12.343392
 30
0
 10
283.9736103740764
 20
17.704909
 30
0
  0
SPLINE
  5
18A
100
AcDbEntity
  8
0
  6
ByLayer
 62
    7
370
   -1
100
AcDbSpline
210
0
220
0
230
0
 70
    8
 71
    3
 72
    8
 73
    4
 74
    0
 42
1e-07
 43
1e-07
 40
0
 40
0
 40
0
 40
0
 40
1
 40
1
 40
1
 40
1
 10
283.9736103740764
 20
17.704909
 30
0
 10
280.6400023740765
 20
22.287351
 30
0
 10
276.3046453740764
 20
25.093628
 30
0
 10
272.7176003740764
 20
24.991125
 30
0
  0
SPLINE
  5
18B
100
AcDbEntity
  8
0
  6
ByLayer
 62
    7
370
   -1
100
AcDbSpline
210
0
220
0
230
0
 70
    8
 71
    3
 72
    8
 73
    4
 74
    0
 42
1e-07
 43
1e-07
 40
0
 40
0
 40
0
 40
0
 40
1
 40
1
 40
1
 40
1
 10
272.7176003740764
 20
24.991125
 30
0
 10
269.1305563740764
 20
24.888593
 30
0
 10
266.8835033740764
 20
21.894215
 30
0
 10
266.8835033740764
 20
17.216495
 30
0
  0
LINE
  5
18C
100
AcDbEntity
  8
0
  6
ByLayer
 62
    7
370
   -1
100
AcDbLine
 10
266.8835033740764
 20
17.216495
 11
266.8835033740764
 21
-1.953279999999999
  0
LINE
  5
18D
100
AcDbEntity
  8
0
  6
ByLayer
 62
    7
370
   -1
100
AcDbLine
 10
266.8835033740764
 20
-1.953279999999999
 11
314.0238423740764
 21
-29.169662
  0
LINE
  5
18E
100
AcDbEntity
  8
0
  6
ByLayer
 62
    7
370
   -1
100
AcDbLine
 10
314.0238423740764
 20
-29.169662
 11
266.8835033740764
 21
-1.953279999999999
  0
LINE
  5
18F
100
AcDbEntity
  8
0
  6
ByLayer
 62
    7
370
   -1
100
AcDbLine
 10
266.8835033740764
 20
-1.953279999999999
 11
266.8835033740764
 21
17.216495
  0
LINE
  5
190
100
AcDbEntity
  8
0
  6
ByLayer
 62
    7
370
   -1
100
AcDbLine
 10
266.8835033740764
 20
17.216495
 11
266.8835033740764
 21
18.679733
  0
LINE
  5
191
100
AcDbEntity
  8
0
  6
ByLayer
 62
    7
370
   -1
100
AcDbLine
 10
266.8835033740764
 20
18.679733
 11
266.8835033740764
 21
17.216495
  0
SPLINE
  5
192
100
AcDbEntity
  8
0
  6
ByLayer
 62
    7
370
   -1
100
AcDbSpline
210
0
220
0
230
0
 70
    8
 71
    3
 72
    8
 73
    4
 74
    0
 42
1e-07
 43
1e-07
 40
0
 40
0
 40
0
 40
0
 40
1
 40
1
 40
1
 40
1
 10
266.8835033740764
 20
17.216495
 30
0
 10
266.8835033740764
 20
21.894215
 30
0
 10
269.1305563740764
 20
24.888593
 30
0
 10
272.7176003740764
 20
24.991125
 30
0
  0
SPLINE
  5
193
100
AcDbEntity
  8
0
  6
ByLayer
 62
    7
370
   -1
100
AcDbSpline
210
0
220
0
230
0
 70
    8
 71
    3
 72
    8
 73
    4
 74
    0
 42
1e-07
 43
1e-07
 40
0
 40
0
 40
0
 40
0
 40
1
 40
1
 40
1
 40
1
 10
272.7176003740764
 20
24.991125
 30
0
 10
276.3046453740764
 20
25.093628
 30
0
 10
280.6400023740765
 20
22.287351
 30
0
 10
283.9736103740764
 20
17.704909
 30
0
  0
LINE
  5
194
100
AcDbEntity
  8
0
  6
ByLayer
 62
    7
370
   -1
100
AcDbLine
 10
283.9736103740764
 20
17.704909
 11
285.9608223740764
 21
19.224958
  0
SPLINE
  5
195
100
AcDbEntity
  8
0
  6
ByLayer
 62
    7
370
   -1
100
AcDbSpline
210
0
220
0
230
0
 70
    8
 71
    3
 72
    8
 73
    4
 74
    0
 42
1e-07
 43
1e-07
 40
0
 40
0
 40
0
 40
0
 40
1
 40
1
 40
1
 40
1
 10
285.9608223740764
 20
19.224958
 30
0
 10
281.1274563740764
 20
25.869033
 30
0
 10
274.5997403740764
 20
28.953327
 30
0
 10
270.4465583740765
 20
26.555454
 30
0
  0
SPLINE
  5
196
100
AcDbEntity
  8
0
  6
ByLayer
 62
    7
370
   -1
100
AcDbSpline
210
0
220
0
230
0
 70
    8
 71
    3
 72
    8
 73
    4
 74
    0
 42
1e-07
 43
1e-07
 40
0
 40
0
 40
0
 40
0
 40
1
 40
1
 40
1
 40
1
 10
270.4465583740765
 20
26.555454
 30
0
 10
268.1650743740765
 20
25.238295
 30
0
 10
266.8835033740764
 20
22.405292
 30
0
 10
266.8835033740764
 20
18.679733
 30
0
  0
SPLINE
  5
197
100
AcDbEntity
  8
0
  6
ByLayer
 62
    7
370
   -1
100
AcDbSpline
210
0
220
0
230
0
 70
    8
 71
    3
 72
    8
 73
    4
 74
    0
 42
1e-07
 43
1e-07
 40
0
 40
0
 40
0
 40
0
 40
1
 40
1
 40
1
 40
1
 10
297.4809353740765
 20
12.573798
 30
0
 10
301.2021763740764
 20
13.392186
 30
0
 10
306.0414923740764
 20
10.936816
 30
0
 10
310.0457343740765
 20
6.198680999999999
 30
0
  0
SPLINE
  5
198
100
AcDbEntity
  8
0
  6
ByLayer
 62
    7
370
   -1
100
AcDbSpline
210
0
220
0
230
0
 70
    8
 71
    3
 72
    8
 73
    4
 74
    0
 42
1e-07
 43
1e-07
 40
0
 40
0
 40
0
 40
0
 40
1
 40
1
 40
1
 40
1
 10
310.0457343740765
 20
6.198680999999999
 30
0
 10
314.0499763740764
 20
1.460536000000001
 30
0
 10
316.5582833740764
 20
-4.778381
 30
0
 10
316.5582833740764
 20
-10
 30
0
  0
LINE
  5
199
100
AcDbEntity
  8
0
  6
ByLayer
 62
    7
370
   -1
100
AcDbLine
 10
316.5582833740764
 20
-10
 11
347.9851383740764
 21
8.144328
  0
SPLINE
  5
19A
100
AcDbEntity
  8
0
  6
ByLayer
 62
    7
370
   -1
100
AcDbSpline
210
0
220
0
230
0
 70
    8
 71
    3
 72
    8
 73
    4
 74
    0
 42
1e-07
 43
1e-07
 40
0
 40
0
 40
0
 40
0
 40
1
 40
1
 40
1
 40
1
 10
347.9851383740764
 20
8.144328
 30
0
 10
347.9851383740764
 20
13.365968
 30
0
 10
345.4767473740765
 20
19.604885
 30
0
 10
341.4725783740764
 20
24.343001
 30
0
  0
SPLINE
  5
19B
100
AcDbEntity
  8
0
  6
ByLayer
 62
    7
370
   -1
100
AcDbSpline
210
0
220
0
230
0
 70
    8
 71
    3
 72
    8
 73
    4
 74
    0
 42
1e-07
 43
1e-07
 40
0
 40
0
 40
0
 40
0
 40
1
 40
1
 40
1
 40
1
 10
341.4725783740764
 20
24.343001
 30
0
 10
337.4684093740764
 20
29.081145
 30
0
 10
332.6290883740764
 20
31.536535
 30
0
 10
328.9078473740764
 20
30.718147
 30
0
  0
LINE
  5
19C
100
AcDbEntity
  8
0
  6
ByLayer
 62
    7
370
   -1
100
AcDbLine
 10
328.9078473740764
 20
30.718147
 11
297.4809353740765
 21
12.573798
  0
SPLINE
  5
19D
100
AcDbEntity
  8
0
  6
ByLayer
 62
    7
370
   -1
100
AcDbSpline
210
0
220
0
230
0
 70
    8
 71
    3
 72
    8
 73
    4
 74
    0
 42
1e-07
 43
1e-07
 40
0
 40
0
 40
0
 40
0
 40
1
 40
1
 40
1
 40
1
 10
270.4465583740765
 20
26.555454
 30
0
 10
274.5997403740764
 20
28.953327
 30
0
 10
281.1274563740764
 20
25.869033
 30
0
 10
285.9608223740764
 20
19.224958
 30
0
  0
LINE
  5
19E
100
AcDbEntity
  8
0
  6
ByLayer
 62
    7
370
   -1
100
AcDbLine
 10
285.9608223740764
 20
19.224958
 11
317.3877343740764
 21
37.369307
  0
SPLINE
  5
19F
100
AcDbEntity
  8
0
  6
ByLayer
 62
    7
370
   -1
100
AcDbSpline
210
0
220
0
230
0
 70
    8
 71
    3
 72
    8
 73
    4
 74
    0
 42
1e-07
 43
1e-07
 40
0
 40
0
 40
0
 40
0
 40
1
 40
1
 40
1
 40
1
 10
317.3877343740764
 20
37.369307
 30
0
 10
312.5543683740764
 20
44.013382
 30
0
 10
306.0267573740765
 20
47.097789
 30
0
 10
301.8735273740764
 20
44.699747
 30
0
  0
LINE
  5
1A0
100
AcDbEntity
  8
0
  6
ByLayer
 62
    7
370
   -1
100
AcDbLine
 10
301.8735273740764
 20
44.699747
 11
270.4465583740765
 21
26.555454
  0
LINE
  5
1A1
100
AcDbEntity
  8
0
  6
ByLayer
 62
    7
370
   -1
100
AcDbLine
 10
347.2112853740765
 20
-11.472297
 11
347.9851383740764
 21
-11.025426
  0
LINE
  5
1A2
100
AcDbEntity
  8
0
  6
ByLayer
 62
    7
370
   -1
100
AcDbLine
 10
347.9851383740764
 20
-11.025426
 11
347.9851383740764
 21
8.144328
  0
LINE
  5
1A3
100
AcDbEntity
  8
0
  6
ByLayer
 62
    7
370
   -1
100
AcDbLine
 10
347.9851383740764
 20
8.144328
 11
316.5582833740764
 21
-10
  0
LINE
  5
1A4
100
AcDbEntity
  8
0
  6
ByLayer
 62
    7
370
   -1
100
AcDbLine
 10
316.5582833740764
 20
-10
 11
316.5582833740764
 21
-29.169662
  0
LINE
  5
1A5
100
AcDbEntity
  8
0
  6
ByLayer
 62
    7
370
   -1
100
AcDbLine
 10
316.5582833740764
 20
-29.169662
 11
317.3322773740765
 21
-28.722905
  0
SPLINE
  5
1A6
100
AcDbEntity
  8
0
  6
ByLayer
 62
    7
370
   -1
100
AcDbSpline
210
0
220
0
230
0
 70
    8
 71
    3
 72
    8
 73
    4
 74
    0
 42
1e-07
 43
1e-07
 40
0
 40
0
 40
0
 40
0
 40
1
 40
1
 40
1
 40
1
 10
285.9608223740764
 20
19.224958
 30
0
 10
289.4278093740764
 20
14.459156
 30
0
 10
294.0139763740764
 20
11.811319
 30
0
 10
297.4809353740765
 20
12.573798
 30
0
  0
LINE
  5
1A7
100
AcDbEntity
  8
0
  6
ByLayer
 62
    7
370
   -1
100
AcDbLine
 10
297.4809353740765
 20
12.573798
 11
328.9078473740764
 21
30.718147
  0
SPLINE
  5
1A8
100
AcDbEntity
  8
0
  6
ByLayer
 62
    7
370
   -1
100
AcDbSpline
210
0
220
0
230
0
 70
    8
 71
    3
 72
    8
 73
    4
 74
    0
 42
1e-07
 43
1e-07
 40
0
 40
0
 40
0
 40
0
 40
1
 40
1
 40
1
 40
1
 10
328.9078473740764
 20
30.718147
 30
0
 10
325.4408883740765
 20
29.955667
 30
0
 10
320.8546933740764
 20
32.603476
 30
0
 10
317.3877343740764
 20
37.369307
 30
0
  0
LINE
  5
1A9
100
AcDbEntity
  8
0
  6
ByLayer
 62
    7
370
   -1
100
AcDbLine
 10
317.3877343740764
 20
37.369307
 11
285.9608223740764
 21
19.224958
  0
SPLINE
  5
1AA
100
AcDbEntity
  8
0
  6
ByLayer
 62
    7
370
   -1
100
AcDbSpline
210
0
220
0
230
0
 70
    8
 71
    3
 72
    8
 73
    4
 74
    0
 42
1e-07
 43
1e-07
 40
0
 40
0
 40
0
 40
0
 40
1
 40
1
 40
1
 40
1
 10
287.7595933740764
 20
5.163658999999999
 30
0
 10
287.7595933740764
 20
7.119202
 30
0
 10
287.3285553740764
 20
9.291423999999999
 30
0
 10
286.5070353740765
 20
11.475785
 30
0
  0
SPLINE
  5
1AB
100
AcDbEntity
  8
0
  6
ByLayer
 62
    7
370
   -1
100
AcDbSpline
210
0
220
0
230
0
 70
    8
 71
    3
 72
    8
 73
    4
 74
    0
 42
1e-07
 43
1e-07
 40
0
 40
0
 40
0
 40
0
 40
1
 40
1
 40
1
 40
1
 10
286.5070353740765
 20
11.475785
 30
0
 10
285.6010733740765
 20
13.884721
 30
0
 10
284.2549013740764
 20
16.216328
 30
0
 10
282.6217103740764
 20
18.205402
 30
0
  0
SPLINE
  5
1AC
100
AcDbEntity
  8
0
  6
ByLayer
 62
    7
370
   -1
100
AcDbSpline
210
0
220
0
230
0
 70
    8
 71
    3
 72
    8
 73
    4
 74
    0
 42
1e-07
 43
1e-07
 40
0
 40
0
 40
0
 40
0
 40
1
 40
1
 40
1
 40
1
 10
282.6217103740764
 20
18.205402
 30
0
 10
281.1407483740765
 20
20.008999
 30
0
 10
279.4750733740764
 20
21.468427
 30
0
 10
277.7815143740764
 20
22.446186
 30
0
  0
SPLINE
  5
1AD
100
AcDbEntity
  8
0
  6
ByLayer
 62
    7
370
   -1
100
AcDbSpline
210
0
220
0
230
0
 70
    8
 71
    3
 72
    8
 73
    4
 74
    0
 42
1e-07
 43
1e-07
 40
0
 40
0
 40
0
 40
0
 40
1
 40
1
 40
1
 40
1
 10
277.7815143740764
 20
22.446186
 30
0
 10
275.1351163740765
 20
23.974052
 30
0
 10
272.5970923740765
 20
24.225456
 30
0
 10
270.7259583740765
 20
23.145081
 30
0
  0
SPLINE
  5
1AE
100
AcDbEntity
  8
0
  6
ByLayer
 62
    7
370
   -1
100
AcDbSpline
210
0
220
0
230
0
 70
    8
 71
    3
 72
    8
 73
    4
 74
    0
 42
1e-07
 43
1e-07
 40
0
 40
0
 40
0
 40
0
 40
1
 40
1
 40
1
 40
1
 10
270.7259583740765
 20
23.145081
 30
0
 10
266.8293163740764
 20
20.895346
 30
0
 10
266.8293163740764
 20
13.600212
 30
0
 10
270.7259583740765
 20
6.850980999999999
 30
0
  0
SPLINE
  5
1AF
100
AcDbEntity
  8
0
  6
ByLayer
 62
    7
370
   -1
100
AcDbSpline
210
0
220
0
230
0
 70
    8
 71
    3
 72
    8
 73
    4
 74
    0
 42
1e-07
 43
1e-07
 40
0
 40
0
 40
0
 40
0
 40
1
 40
1
 40
1
 40
1
 10
270.7259583740765
 20
6.850980999999999
 30
0
 10
274.6226003740765
 20
0.1017489999999981
 30
0
 10
280.9403993740764
 20
-3.545832000000001
 30
0
 10
284.8370983740764
 20
-1.296068999999999
 30
0
  0
SPLINE
  5
1B0
100
AcDbEntity
  8
0
  6
ByLayer
 62
    7
370
   -1
100
AcDbSpline
210
0
220
0
230
0
 70
    8
 71
    3
 72
    8
 73
    4
 74
    0
 42
1e-07
 43
1e-07
 40
0
 40
0
 40
0
 40
0
 40
1
 40
1
 40
1
 40
1
 10
284.8370983740764
 20
-1.296068999999999
 30
0
 10
286.7083443740764
 20
-0.2156939999999992
 30
0
 10
287.7595933740764
 20
2.107925999999999
 30
0
 10
287.7595933740764
 20
5.163658999999999
 30
0
  0
SPLINE
  5
1B1
100
AcDbEntity
  8
0
  6
ByLayer
 62
    7
370
   -1
100
AcDbSpline
210
0
220
0
230
0
 70
    8
 71
    3
 72
    8
 73
    4
 74
    0
 42
1e-07
 43
1e-07
 40
0
 40
0
 40
0
 40
0
 40
1
 40
1
 40
1
 40
1
 10
313.1038833740764
 20
-9.468858000000001
 30
0
 10
313.1038833740764
 20
-7.513311999999999
 30
0
 10
312.6728163740764
 20
-5.341104000000001
 30
0
 10
311.8513243740765
 20
-3.156760000000002
 30
0
  0
SPLINE
  5
1B2
100
AcDbEntity
  8
0
  6
ByLayer
 62
    7
370
   -1
100
AcDbSpline
210
0
220
0
230
0
 70
    8
 71
    3
 72
    8
 73
    4
 74
    0
 42
1e-07
 43
1e-07
 40
0
 40
0
 40
0
 40
0
 40
1
 40
1
 40
1
 40
1
 10
311.8513243740765
 20
-3.156760000000002
 30
0
 10
310.9453623740765
 20
-0.7478240000000014
 30
0
 10
309.5991913740764
 20
1.583811000000001
 30
0
 10
307.9659753740764
 20
3.572856999999999
 30
0
  0
SPLINE
  5
1B3
100
AcDbEntity
  8
0
  6
ByLayer
 62
    7
370
   -1
100
AcDbSpline
210
0
220
0
230
0
 70
    8
 71
    3
 72
    8
 73
    4
 74
    0
 42
1e-07
 43
1e-07
 40
0
 40
0
 40
0
 40
0
 40
1
 40
1
 40
1
 40
1
 10
307.9659753740764
 20
3.572856999999999
 30
0
 10
306.4850263740764
 20
5.376483
 30
0
 10
304.8193623740764
 20
6.835889999999999
 30
0
 10
303.1258033740764
 20
7.813654999999999
 30
0
  0
SPLINE
  5
1B4
100
AcDbEntity
  8
0
  6
ByLayer
 62
    7
370
   -1
100
AcDbSpline
210
0
220
0
230
0
 70
    8
 71
    3
 72
    8
 73
    4
 74
    0
 42
1e-07
 43
1e-07
 40
0
 40
0
 40
0
 40
0
 40
1
 40
1
 40
1
 40
1
 10
303.1258033740764
 20
7.813654999999999
 30
0
 10
300.4794623740764
 20
9.341524
 30
0
 10
297.9414943740765
 20
9.592927999999999
 30
0
 10
296.0702483740765
 20
8.512561999999999
 30
0
  0
SPLINE
  5
1B5
100
AcDbEntity
  8
0
  6
ByLayer
 62
    7
370
   -1
100
AcDbSpline
210
0
220
0
230
0
 70
    8
 71
    3
 72
    8
 73
    4
 74
    0
 42
1e-07
 43
1e-07
 40
0
 40
0
 40
0
 40
0
 40
1
 40
1
 40
1
 40
1
 10
296.0702483740765
 20
8.512561999999999
 30
0
 10
292.1735773740764
 20
6.262815999999999
 30
0
 10
292.1735773740764
 20
-1.032304
 30
0
 10
296.0702483740765
 20
-7.781535999999999
 30
0
  0
SPLINE
  5
1B6
100
AcDbEntity
  8
0
  6
ByLayer
 62
    7
370
   -1
100
AcDbSpline
210
0
220
0
230
0
 70
    8
 71
    3
 72
    8
 73
    4
 74
    0
 42
1e-07
 43
1e-07
 40
0
 40
0
 40
0
 40
0
 40
1
 40
1
 40
1
 40
1
 10
296.0702483740765
 20
-7.781535999999999
 30
0
 10
299.9669183740764
 20
-14.530796
 30
0
 10
306.2846913740764
 20
-18.178349
 30
0
 10
310.1813673740764
 20
-15.928586
 30
0
  0
SPLINE
  5
1B7
100
AcDbEntity
  8
0
  6
ByLayer
 62
    7
370
   -1
100
AcDbSpline
210
0
220
0
230
0
 70
    8
 71
    3
 72
    8
 73
    4
 74
    0
 42
1e-07
 43
1e-07
 40
0
 40
0
 40
0
 40
0
 40
1
 40
1
 40
1
 40
1
 10
310.1813673740764
 20
-15.928586
 30
0
 10
312.0526053740764
 20
-14.848239
 30
0
 10
313.1038833740764
 20
-12.524591
 30
0
 10
313.1038833740764
 20
-9.468858000000001
 30
0
  0
SPLINE
  5
1B8
100
AcDbEntity
  8
0
  6
ByLayer
 62
    7
370
   -1
100
AcDbSpline
210
0
220
0
230
0
 70
    8
 71
    3
 72
    8
 73
    4
 74
    0
 42
1e-07
 43
1e-07
 40
0
 40
0
 40
0
 40
0
 40
1
 40
1
 40
1
 40
1
 10
303.1258033740764
 20
7.813654999999999
 30
0
 10
300.4794623740764
 20
9.341524
 30
0
 10
297.9414943740765
 20
9.592927999999999
 30
0
 10
296.0702483740765
 20
8.512561999999999
 30
0
  0
SPLINE
  5
1B9
100
AcDbEntity
  8
0
  6
ByLayer
 62
    7
370
   -1
100
AcDbSpline
210
0
220
0
230
0
 70
    8
 71
    3
 72
    8
 73
    4
 74
    0
 42
1e-07
 43
1e-07
 40
0
 40
0
 40
0
 40
0
 40
1
 40
1
 40
1
 40
1
 10
296.0702483740765
 20
8.512561999999999
 30
0
 10
292.1735773740764
 20
6.262815999999999
 30
0
 10
292.1735773740764
 20
-1.032304
 30
0
 10
296.0702483740765
 20
-7.781535999999999
 30
0
  0
SPLINE
  5
1BA
100
AcDbEntity
  8
0
  6
ByLayer
 62
    7
370
   -1
100
AcDbSpline
210
0
220
0
230
0
 70
    8
 71
    3
 72
    8
 73
    4
 74
    0
 42
1e-07
 43
1e-07
 40
0
 40
0
 40
0
 40
0
 40
1
 40
1
 40
1
 40
1
 10
296.0702483740765
 20
-7.781535999999999
 30
0
 10
299.9669183740764
 20
-14.530796
 30
0
 10
306.2846913740764
 20
-18.178349
 30
0
 10
310.1813673740764
 20
-15.928586
 30
0
  0
SPLINE
  5
1BB
100
AcDbEntity
  8
0
  6
ByLayer
 62
    7
370
   -1
100
AcDbSpline
210
0
220
0
230
0
 70
    8
 71
    3
 72
    8
 73
    4
 74
    0
 42
1e-07
 43
1e-07
 40
0
 40
0
 40
0
 40
0
 40
1
 40
1
 40
1
 40
1
 10
310.1813673740764
 20
-15.928586
 30
0
 10
312.0526053740764
 20
-14.848239
 30
0
 10
313.1038833740764
 20
-12.524591
 30
0
 10
313.1038833740764
 20
-9.468858000000001
 30
0
  0
SPLINE
  5
1BC
100
AcDbEntity
  8
0
  6
ByLayer
 62
    7
370
   -1
100
AcDbSpline
210
0
220
0
230
0
 70
    8
 71
    3
 72
    8
 73
    4
 74
    0
 42
1e-07
 43
1e-07
 40
0
 40
0
 40
0
 40
0
 40
1
 40
1
 40
1
 40
1
 10
313.1038833740764
 20
-9.468858000000001
 30
0
 10
307.5931423740764
 20
-6.287226
 30
0
 10
303.1258033740764
 20
1.450405
 30
0
 10
303.1258033740764
 20
7.813654999999999
 30
0
  0
SPLINE
  5
1BD
100
AcDbEntity
  8
0
  6
ByLayer
 62
    7
370
   -1
100
AcDbSpline
210
0
220
0
230
0
 70
    8
 71
    3
 72
    8
 73
    4
 74
    0
 42
1e-07
 43
1e-07
 40
0
 40
0
 40
0
 40
0
 40
1
 40
1
 40
1
 40
1
 10
277.7815143740764
 20
22.446186
 30
0
 10
275.1351163740765
 20
23.974052
 30
0
 10
272.5970923740765
 20
24.225456
 30
0
 10
270.7259583740765
 20
23.145081
 30
0
  0
SPLINE
  5
1BE
100
AcDbEntity
  8
0
  6
ByLayer
 62
    7
370
   -1
100
AcDbSpline
210
0
220
0
230
0
 70
    8
 71
    3
 72
    8
 73
    4
 74
    0
 42
1e-07
 43
1e-07
 40
0
 40
0
 40
0
 40
0
 40
1
 40
1
 40
1
 40
1
 10
270.7259583740765
 20
23.145081
 30
0
 10
266.8293163740764
 20
20.895346
 30
0
 10
266.8293163740764
 20
13.600212
 30
0
 10
270.7259583740765
 20
6.850980999999999
 30
0
  0
SPLINE
  5
1BF
100
AcDbEntity
  8
0
  6
ByLayer
 62
    7
370
   -1
100
AcDbSpline
210
0
220
0
230
0
 70
    8
 71
    3
 72
    8
 73
    4
 74
    0
 42
1e-07
 43
1e-07
 40
0
 40
0
 40
0
 40
0
 40
1
 40
1
 40
1
 40
1
 10
270.7259583740765
 20
6.850980999999999
 30
0
 10
274.6226003740765
 20
0.1017489999999981
 30
0
 10
280.9403993740764
 20
-3.545832000000001
 30
0
 10
284.8370983740764
 20
-1.296068999999999
 30
0
  0
SPLINE
  5
1C0
100
AcDbEntity
  8
0
  6
ByLayer
 62
    7
370
   -1
100
AcDbSpline
210
0
220
0
230
0
 70
    8
 71
    3
 72
    8
 73
    4
 74
    0
 42
1e-07
 43
1e-07
 40
0
 40
0
 40
0
 40
0
 40
1
 40
1
 40
1
 40
1
 10
284.8370983740764
 20
-1.296068999999999
 30
0
 10
286.7083443740764
 20
-0.2156939999999992
 30
0
 10
287.7595933740764
 20
2.107925999999999
 30
0
 10
287.7595933740764
 20
5.163658999999999
 30
0
  0
SPLINE
  5
1C1
100
AcDbEntity
  8
0
  6
ByLayer
 62
    7
370
   -1
100
AcDbSpline
210
0
220
0
230
0
 70
    8
 71
    3
 72
    8
 73
    4
 74
    0
 42
1e-07
 43
1e-07
 40
0
 40
0
 40
0
 40
0
 40
1
 40
1
 40
1
 40
1
 10
287.7595933740764
 20
5.163658999999999
 30
0
 10
282.2488663740764
 20
8.345293
 30
0
 10
277.7815143740764
 20
16.082949
 30
0
 10
277.7815143740764
 20
22.446186
 30
0
  0
SPLINE
  5
1C2
100
AcDbEntity
  8
0
  6
ByLayer
 62
    7
370
   -1
100
AcDbSpline
210
0
220
0
230
0
 70
    8
 71
    3
 72
    8
 73
    4
 74
    0
 42
1e-07
 43
1e-07
 40
0
 40
0
 40
0
 40
0
 40
1
 40
1
 40
1
 40
1
 10
297.4809353740765
 20
12.573798
 30
0
 10
301.2021763740764
 20
13.392186
 30
0
 10
306.0414923740764
 20
10.936816
 30
0
 10
310.0457343740765
 20
6.198680999999999
 30
0
  0
SPLINE
  5
1C3
100
AcDbEntity
  8
0
  6
ByLayer
 62
    7
370
   -1
100
AcDbSpline
210
0
220
0
230
0
 70
    8
 71
    3
 72
    8
 73
    4
 74
    0
 42
1e-07
 43
1e-07
 40
0
 40
0
 40
0
 40
0
 40
1
 40
1
 40
1
 40
1
 10
310.0457343740765
 20
6.198680999999999
 30
0
 10
314.0499763740764
 20
1.460536000000001
 30
0
 10
316.5582833740764
 20
-4.778381
 30
0
 10
316.5582833740764
 20
-10
 30
0
  0
LINE
  5
1C4
100
AcDbEntity
  8
0
  6
ByLayer
 62
    7
370
   -1
100
AcDbLine
 10
316.5582833740764
 20
-10
 11
314.0238423740764
 21
-10
  0
SPLINE
  5
1C5
100
AcDbEntity
  8
0
  6
ByLayer
 62
    7
370
   -1
100
AcDbSpline
210
0
220
0
230
0
 70
    8
 71
    3
 72
    8
 73
    4
 74
    0
 42
1e-07
 43
1e-07
 40
0
 40
0
 40
0
 40
0
 40
1
 40
1
 40
1
 40
1
 10
314.0238423740764
 20
-10
 30
0
 10
314.0238423740764
 20
-5.322279999999999
 30
0
 10
311.7768173740764
 20
0.2667359999999981
 30
0
 10
308.1896973740764
 20
4.511329999999999
 30
0
  0
SPLINE
  5
1C6
100
AcDbEntity
  8
0
  6
ByLayer
 62
    7
370
   -1
100
AcDbSpline
210
0
220
0
230
0
 70
    8
 71
    3
 72
    8
 73
    4
 74
    0
 42
1e-07
 43
1e-07
 40
0
 40
0
 40
0
 40
0
 40
1
 40
1
 40
1
 40
1
 10
308.1896973740764
 20
4.511329999999999
 30
0
 10
304.6025593740765
 20
8.755896
 30
0
 10
300.2673443740765
 20
10.955502
 30
0
 10
296.9337353740764
 20
10.222362
 30
0
  0
LINE
  5
1C7
100
AcDbEntity
  8
0
  6
ByLayer
 62
    7
370
   -1
100
AcDbLine
 10
296.9337353740764
 20
10.222362
 11
297.4809353740765
 21
12.573798
  0
SPLINE
  5
1C8
100
AcDbEntity
  8
0
  6
ByLayer
 62
    7
370
   -1
100
AcDbSpline
210
0
220
0
230
0
 70
    8
 71
    3
 72
    8
 73
    4
 74
    0
 42
1e-07
 43
1e-07
 40
0
 40
0
 40
0
 40
0
 40
1
 40
1
 40
1
 40
1
 10
282.6217103740764
 20
18.205402
 30
0
 10
281.1407483740765
 20
20.008999
 30
0
 10
279.4750733740764
 20
21.468427
 30
0
 10
277.7815143740764
 20
22.446186
 30
0
  0
SPLINE
  5
1C9
100
AcDbEntity
  8
0
  6
ByLayer
 62
    7
370
   -1
100
AcDbSpline
210
0
220
0
230
0
 70
    8
 71
    3
 72
    8
 73
    4
 74
    0
 42
1e-07
 43
1e-07
 40
0
 40
0
 40
0
 40
0
 40
1
 40
1
 40
1
 40
1
 10
277.7815143740764
 20
22.446186
 30
0
 10
277.7815143740764
 20
16.082949
 30
0
 10
282.2488663740764
 20
8.345293
 30
0
 10
287.7595933740764
 20
5.163658999999999
 30
0
  0
SPLINE
  5
1CA
100
AcDbEntity
  8
0
  6
ByLayer
 62
    7
370
   -1
100
AcDbSpline
210
0
220
0
230
0
 70
    8
 71
    3
 72
    8
 73
    4
 74
    0
 42
1e-07
 43
1e-07
 40
0
 40
0
 40
0
 40
0
 40
1
 40
1
 40
1
 40
1
 10
287.7595933740764
 20
5.163658999999999
 30
0
 10
287.7595933740764
 20
7.119202
 30
0
 10
287.3285553740764
 20
9.291423999999999
 30
0
 10
286.5070353740765
 20
11.475785
 30
0
  0
SPLINE
  5
1CB
100
AcDbEntity
  8
0
  6
ByLayer
 62
    7
370
   -1
100
AcDbSpline
210
0
220
0
230
0
 70
    8
 71
    3
 72
    8
 73
    4
 74
    0
 42
1e-07
 43
1e-07
 40
0
 40
0
 40
0
 40
0
 40
1
 40
1
 40
1
 40
1
 10
286.5070353740765
 20
11.475785
 30
0
 10
284.5879523740765
 20
13.123991
 30
0
 10
283.0895493740765
 20
15.719278
 30
0
 10
282.6217103740764
 20
18.205402
 30
0
  0
SPLINE
  5
1CC
100
AcDbEntity
  8
0
  6
ByLayer
 62
    7
370
   -1
100
AcDbSpline
210
0
220
0
230
0
 70
    8
 71
    3
 72
    8
 73
    4
 74
    0
 42
1e-07
 43
1e-07
 40
0
 40
0
 40
0
 40
0
 40
1
 40
1
 40
1
 40
1
 10
307.9659753740764
 20
3.572856999999999
 30
0
 10
306.4850263740764
 20
5.376483
 30
0
 10
304.8193623740764
 20
6.835889999999999
 30
0
 10
303.1258033740764
 20
7.813654999999999
 30
0
  0
SPLINE
  5
1CD
100
AcDbEntity
  8
0
  6
ByLayer
 62
    7
370
   -1
100
AcDbSpline
210
0
220
0
230
0
 70
    8
 71
    3
 72
    8
 73
    4
 74
    0
 42
1e-07
 43
1e-07
 40
0
 40
0
 40
0
 40
0
 40
1
 40
1
 40
1
 40
1
 10
303.1258033740764
 20
7.813654999999999
 30
0
 10
303.1258033740764
 20
1.450405
 30
0
 10
307.5931423740764
 20
-6.287226
 30
0
 10
313.1038833740764
 20
-9.468858000000001
 30
0
  0
SPLINE
  5
1CE
100
AcDbEntity
  8
0
  6
ByLayer
 62
    7
370
   -1
100
AcDbSpline
210
0
220
0
230
0
 70
    8
 71
    3
 72
    8
 73
    4
 74
    0
 42
1e-07
 43
1e-07
 40
0
 40
0
 40
0
 40
0
 40
1
 40
1
 40
1
 40
1
 10
313.1038833740764
 20
-9.468858000000001
 30
0
 10
313.1038833740764
 20
-7.513311999999999
 30
0
 10
312.6728163740764
 20
-5.341104000000001
 30
0
 10
311.8513243740765
 20
-3.156760000000002
 30
0
  0
SPLINE
  5
1CF
100
AcDbEntity
  8
0
  6
ByLayer
 62
    7
370
   -1
100
AcDbSpline
210
0
220
0
230
0
 70
    8
 71
    3
 72
    8
 73
    4
 74
    0
 42
1e-07
 43
1e-07
 40
0
 40
0
 40
0
 40
0
 40
1
 40
1
 40
1
 40
1
 10
311.8513243740765
 20
-3.156760000000002
 30
0
 10
309.9322193740765
 20
-1.508526
 30
0
 10
308.4338273740764
 20
1.086760999999999
 30
0
 10
307.9659753740764
 20
3.572856999999999
 30
0
  0
LINE
  5
1D0
100
AcDbEntity
  8
0
  6
ByLayer
 62
    7
370
   -1
100
AcDbLine
 10
316.5582833740764
 20
-10
 11
316.5582833740764
 21
-29.169662
  0
LINE
  5
1D1
100
AcDbEntity
  8
0
  6
ByLayer
 62
    7
370
   -1
100
AcDbLine
 10
316.5582833740764
 20
-29.169662
 11
314.0238423740764
 21
-29.169662
  0
LINE
  5
1D2
100
AcDbEntity
  8
0
  6
ByLayer
 62
    7
370
   -1
100
AcDbLine
 10
314.0238423740764
 20
-29.169662
 11
314.0238423740764
 21
-10
  0
LINE
  5
1D3
100
AcDbEntity
  8
0
  6
ByLayer
 62
    7
370
   -1
100
AcDbLine
 10
314.0238423740764
 20
-10
 11
316.5582833740764
 21
-10
  0
SPLINE
  5
1D4
100
AcDbEntity
  8
0
  6
ByLayer
 62
    7
370
   -1
100
AcDbSpline
210
0
220
0
230
0
 70
    8
 71
    3
 72
    8
 73
    4
 74
    0
 42
1e-07
 43
1e-07
 40
0
 40
0
 40
0
 40
0
 40
1
 40
1
 40
1
 40
1
 10
285.9608223740764
 20
19.224958
 30
0
 10
289.4278093740764
 20
14.459156
 30
0
 10
294.0139763740764
 20
11.811319
 30
0
 10
297.4809353740765
 20
12.573798
 30
0
  0
LINE
  5
1D5
100
AcDbEntity
  8
0
  6
ByLayer
 62
    7
370
   -1
100
AcDbLine
 10
297.4809353740765
 20
12.573798
 11
296.9337353740764
 21
10.222362
  0
SPLINE
  5
1D6
100
AcDbEntity
  8
0
  6
ByLayer
 62
    7
370
   -1
100
AcDbSpline
210
0
220
0
230
0
 70
    8
 71
    3
 72
    8
 73
    4
 74
    0
 42
1e-07
 43
1e-07
 40
0
 40
0
 40
0
 40
0
 40
1
 40
1
 40
1
 40
1
 10
296.9337353740764
 20
10.222362
 30
0
 10
293.0333953740765
 20
9.364582
 30
0
 10
287.8739503740765
 20
12.343392
 30
0
 10
283.9736103740764
 20
17.704909
 30
0
  0
LINE
  5
1D7
100
AcDbEntity
  8
0
  6
ByLayer
 62
    7
370
   -1
100
AcDbLine
 10
283.9736103740764
 20
17.704909
 11
285.9608223740764
 21
19.224958
  0
SPLINE
  5
1D8
100
AcDbEntity
  8
0
  6
ByLayer
 62
    7
370
   -1
100
AcDbSpline
210
0
220
0
230
0
 70
    8
 71
    3
 72
    8
 73
    4
 74
    0
 42
1e-07
 43
1e-07
 40
0
 40
0
 40
0
 40
0
 40
1
 40
1
 40
1
 40
1
 10
329.2429303740764
 20
30.848619
 30
0
 10
330.0213553740764
 20
31.019278
 30
0
 10
330.8358773740765
 20
31.069062
 30
0
 10
331.6865233740764
 20
30.997999
 30
0
  0
SPLINE
  5
1D9
100
AcDbEntity
  8
0
  6
ByLayer
 62
    7
370
   -1
100
AcDbSpline
210
0
220
0
230
0
 70
    8
 71
    3
 72
    8
 73
    4
 74
    0
 42
1e-07
 43
1e-07
 40
0
 40
0
 40
0
 40
0
 40
1
 40
1
 40
1
 40
1
 10
331.6865233740764
 20
30.997999
 30
0
 10
333.3808443740764
 20
30.857283
 30
0
 10
335.1834543740765
 20
30.227447
 30
0
 10
336.9561763740764
 20
29.16251
 30
0
  0
SPLINE
  5
1DA
100
AcDbEntity
  8
0
  6
ByLayer
 62
    7
370
   -1
100
AcDbSpline
210
0
220
0
230
0
 70
    8
 71
    3
 72
    8
 73
    4
 74
    0
 42
1e-07
 43
1e-07
 40
0
 40
0
 40
0
 40
0
 40
1
 40
1
 40
1
 40
1
 10
336.9561763740764
 20
29.16251
 30
0
 10
338.2258943740765
 20
28.401046
 30
0
 10
339.4795253740764
 20
27.418264
 30
0
 10
340.6620363740764
 20
26.259121
 30
0
  0
SPLINE
  5
1DB
100
AcDbEntity
  8
0
  6
ByLayer
 62
    7
370
   -1
100
AcDbSpline
210
0
220
0
230
0
 70
    8
 71
    3
 72
    8
 73
    4
 74
    0
 42
1e-07
 43
1e-07
 40
0
 40
0
 40
0
 40
0
 40
1
 40
1
 40
1
 40
1
 10
340.6620363740764
 20
26.259121
 30
0
 10
343.4704293740764
 20
23.51911
 30
0
 10
345.8484343740764
 20
19.761631
 30
0
 10
347.1963273740764
 20
15.938508
 30
0
  0
SPLINE
  5
1DC
100
AcDbEntity
  8
0
  6
ByLayer
 62
    7
370
   -1
100
AcDbSpline
210
0
220
0
230
0
 70
    8
 71
    3
 72
    8
 73
    4
 74
    0
 42
1e-07
 43
1e-07
 40
0
 40
0
 40
0
 40
0
 40
1
 40
1
 40
1
 40
1
 10
347.1963273740764
 20
15.938508
 30
0
 10
348.0571053740765
 20
13.516618
 30
0
 10
348.5117653740764
 20
11.080984
 30
0
 10
348.5100723740765
 20
8.875952999999999
 30
0
  0
SPLINE
  5
1DD
100
AcDbEntity
  8
0
  6
ByLayer
 62
    7
370
   -1
100
AcDbSpline
210
0
220
0
230
0
 70
    8
 71
    3
 72
    8
 73
    4
 74
    0
 42
1e-07
 43
1e-07
 40
0
 40
0
 40
0
 40
0
 40
1
 40
1
 40
1
 40
1
 10
348.5100723740765
 20
8.875952999999999
 30
0
 10
348.5100723740765
 20
8.60154
 30
0
 10
348.3212653740765
 20
8.338367
 30
0
 10
347.9851383740764
 20
8.144328
 30
0
  0
SPLINE
  5
1DE
100
AcDbEntity
  8
0
  6
ByLayer
 62
    7
370
   -1
100
AcDbSpline
210
0
220
0
230
0
 70
    8
 71
    3
 72
    8
 73
    4
 74
    0
 42
1e-07
 43
1e-07
 40
0
 40
0
 40
0
 40
0
 40
1
 40
1
 40
1
 40
1
 10
347.9851383740764
 20
8.144328
 30
0
 10
347.9851383740764
 20
13.365968
 30
0
 10
345.4767473740765
 20
19.604885
 30
0
 10
341.4725783740764
 20
24.343001
 30
0
  0
SPLINE
  5
1DF
100
AcDbEntity
  8
0
  6
ByLayer
 62
    7
370
   -1
100
AcDbSpline
210
0
220
0
230
0
 70
    8
 71
    3
 72
    8
 73
    4
 74
    0
 42
1e-07
 43
1e-07
 40
0
 40
0
 40
0
 40
0
 40
1
 40
1
 40
1
 40
1
 10
341.4725783740764
 20
24.343001
 30
0
 10
337.4684093740764
 20
29.081145
 30
0
 10
332.6290883740764
 20
31.536535
 30
0
 10
328.9078473740764
 20
30.718147
 30
0
  0
SPLINE
  5
1E0
100
AcDbEntity
  8
0
  6
ByLayer
 62
    7
370
   -1
100
AcDbSpline
210
0
220
0
230
0
 70
    8
 71
    3
 72
    8
 73
    4
 74
    0
 42
1e-07
 43
1e-07
 40
0
 40
0
 40
0
 40
0
 40
1
 40
1
 40
1
 40
1
 10
328.9078473740764
 20
30.718147
 30
0
 10
329.0133423740764
 20
30.779051
 30
0
 10
329.1259203740764
 20
30.82288
 30
0
 10
329.2429303740764
 20
30.848619
 30
0
  0
LINE
  5
1E1
100
AcDbEntity
  8
0
  6
ByLayer
 62
    7
370
   -1
100
AcDbLine
 10
348.5100723740765
 20
8.875952999999999
 11
348.5100723740765
 21
-10.293793
  0
SPLINE
  5
1E2
100
AcDbEntity
  8
0
  6
ByLayer
 62
    7
370
   -1
100
AcDbSpline
210
0
220
0
230
0
 70
    8
 71
    3
 72
    8
 73
    4
 74
    0
 42
1e-07
 43
1e-07
 40
0
 40
0
 40
0
 40
0
 40
1
 40
1
 40
1
 40
1
 10
348.5100723740765
 20
-10.293793
 30
0
 10
348.5100723740765
 20
-10.568226
 30
0
 10
348.3212653740765
 20
-10.831399
 30
0
 10
347.9851383740764
 20
-11.025426
 30
0
  0
LINE
  5
1E3
100
AcDbEntity
  8
0
  6
ByLayer
 62
    7
370
   -1
100
AcDbLine
 10
347.9851383740764
 20
-11.025426
 11
347.9851383740764
 21
8.144328
  0
SPLINE
  5
1E4
100
AcDbEntity
  8
0
  6
ByLayer
 62
    7
370
   -1
100
AcDbSpline
210
0
220
0
230
0
 70
    8
 71
    3
 72
    8
 73
    4
 74
    0
 42
1e-07
 43
1e-07
 40
0
 40
0
 40
0
 40
0
 40
1
 40
1
 40
1
 40
1
 10
347.9851383740764
 20
8.144328
 30
0
 10
348.3212653740765
 20
8.338367
 30
0
 10
348.5100723740765
 20
8.60154
 30
0
 10
348.5100723740765
 20
8.875952999999999
 30
0
  0
SPLINE
  5
1E5
100
AcDbEntity
  8
0
  6
ByLayer
 62
    7
370
   -1
100
AcDbSpline
210
0
220
0
230
0
 70
    8
 71
    3
 72
    8
 73
    4
 74
    0
 42
1e-07
 43
1e-07
 40
0
 40
0
 40
0
 40
0
 40
1
 40
1
 40
1
 40
1
 10
318.1169403740764
 20
37.63516
 30
0
 10
318.0670143740765
 20
37.70374
 30
0
 10
317.7956303740764
 20
37.60468
 30
0
 10
317.3877343740764
 20
37.369307
 30
0
  0
SPLINE
  5
1E6
100
AcDbEntity
  8
0
  6
ByLayer
 62
    7
370
   -1
100
AcDbSpline
210
0
220
0
230
0
 70
    8
 71
    3
 72
    8
 73
    4
 74
    0
 42
1e-07
 43
1e-07
 40
0
 40
0
 40
0
 40
0
 40
1
 40
1
 40
1
 40
1
 10
317.3877343740764
 20
37.369307
 30
0
 10
312.5543683740764
 20
44.013382
 30
0
 10
306.0267573740765
 20
47.097789
 30
0
 10
301.8735273740764
 20
44.699747
 30
0
  0
SPLINE
  5
1E7
100
AcDbEntity
  8
0
  6
ByLayer
 62
    7
370
   -1
100
AcDbSpline
210
0
220
0
230
0
 70
    8
 71
    3
 72
    8
 73
    4
 74
    0
 42
1e-07
 43
1e-07
 40
0
 40
0
 40
0
 40
0
 40
1
 40
1
 40
1
 40
1
 10
301.8735273740764
 20
44.699747
 30
0
 10
303.7434463740764
 20
45.785455
 30
0
 10
306.1057423740764
 20
45.955918
 30
0
 10
308.5519293740765
 20
45.189967
 30
0
  0
SPLINE
  5
1E8
100
AcDbEntity
  8
0
  6
ByLayer
 62
    7
370
   -1
100
AcDbSpline
210
0
220
0
230
0
 70
    8
 71
    3
 72
    8
 73
    4
 74
    0
 42
1e-07
 43
1e-07
 40
0
 40
0
 40
0
 40
0
 40
1
 40
1
 40
1
 40
1
 10
308.5519293740765
 20
45.189967
 30
0
 10
310.7489083740764
 20
44.511222
 30
0
 10
313.0273163740765
 20
43.084871
 30
0
 10
315.1022143740764
 20
41.100002
 30
0
  0
SPLINE
  5
1E9
100
AcDbEntity
  8
0
  6
ByLayer
 62
    7
370
   -1
100
AcDbSpline
210
0
220
0
230
0
 70
    8
 71
    3
 72
    8
 73
    4
 74
    0
 42
1e-07
 43
1e-07
 40
0
 40
0
 40
0
 40
0
 40
1
 40
1
 40
1
 40
1
 10
315.1022143740764
 20
41.100002
 30
0
 10
316.1753643740764
 20
40.075253
 30
0
 10
317.1931703740764
 20
38.90516
 30
0
 10
318.1169403740764
 20
37.63516
 30
0
  0
SPLINE
  5
1EA
100
AcDbEntity
  8
0
  6
ByLayer
 62
    7
370
   -1
100
AcDbSpline
210
0
220
0
230
0
 70
    8
 71
    3
 72
    8
 73
    4
 74
    0
 42
1e-07
 43
1e-07
 40
0
 40
0
 40
0
 40
0
 40
1
 40
1
 40
1
 40
1
 10
318.1169403740764
 20
37.63516
 30
0
 10
319.2636653740764
 20
36.057001
 30
0
 10
320.5643423740764
 20
34.661582
 30
0
 10
321.8928753740764
 20
33.566447
 30
0
  0
SPLINE
  5
1EB
100
AcDbEntity
  8
0
  6
ByLayer
 62
    7
370
   -1
100
AcDbSpline
210
0
220
0
230
0
 70
    8
 71
    3
 72
    8
 73
    4
 74
    0
 42
1e-07
 43
1e-07
 40
0
 40
0
 40
0
 40
0
 40
1
 40
1
 40
1
 40
1
 10
321.8928753740764
 20
33.566447
 30
0
 10
323.0217083740765
 20
32.633448
 30
0
 10
324.1691103740765
 20
31.91937
 30
0
 10
325.2357693740764
 20
31.453731
 30
0
  0
SPLINE
  5
1EC
100
AcDbEntity
  8
0
  6
ByLayer
 62
    7
370
   -1
100
AcDbSpline
210
0
220
0
230
0
 70
    8
 71
    3
 72
    8
 73
    4
 74
    0
 42
1e-07
 43
1e-07
 40
0
 40
0
 40
0
 40
0
 40
1
 40
1
 40
1
 40
1
 10
325.2357693740764
 20
31.453731
 30
0
 10
326.8530443740764
 20
30.744196
 30
0
 10
328.2330263740764
 20
30.621063
 30
0
 10
329.2429303740764
 20
30.848619
 30
0
  0
SPLINE
  5
1ED
100
AcDbEntity
  8
0
  6
ByLayer
 62
    7
370
   -1
100
AcDbSpline
210
0
220
0
230
0
 70
    8
 71
    3
 72
    8
 73
    4
 74
    0
 42
1e-07
 43
1e-07
 40
0
 40
0
 40
0
 40
0
 40
1
 40
1
 40
1
 40
1
 10
329.2429303740764
 20
30.848619
 30
0
 10
329.1259203740764
 20
30.82288
 30
0
 10
329.0133423740764
 20
30.779051
 30
0
 10
328.9078473740764
 20
30.718147
 30
0
  0
SPLINE
  5
1EE
100
AcDbEntity
  8
0
  6
ByLayer
 62
    7
370
   -1
100
AcDbSpline
210
0
220
0
230
0
 70
    8
 71
    3
 72
    8
 73
    4
 74
    0
 42
1e-07
 43
1e-07
 40
0
 40
0
 40
0
 40
0
 40
1
 40
1
 40
1
 40
1
 10
328.9078473740764
 20
30.718147
 30
0
 10
325.4408883740765
 20
29.955667
 30
0
 10
320.8546933740764
 20
32.603476
 30
0
 10
317.3877343740764
 20
37.369307
 30
0
  0
SPLINE
  5
1EF
100
AcDbEntity
  8
0
  6
ByLayer
 62
    7
370
   -1
100
AcDbSpline
210
0
220
0
230
0
 70
    8
 71
    3
 72
    8
 73
    4
 74
    0
 42
1e-07
 43
1e-07
 40
0
 40
0
 40
0
 40
0
 40
1
 40
1
 40
1
 40
1
 10
317.3877343740764
 20
37.369307
 30
0
 10
317.7956303740764
 20
37.60468
 30
0
 10
318.0670143740765
 20
37.70374
 30
0
 10
318.1169403740764
 20
37.63516
 30
0
  0
SPLINE
  5
1F0
100
AcDbEntity
  8
0
  6
ByLayer
 62
    7
370
   -1
100
AcDbSpline
210
0
220
0
230
0
 70
    8
 71
    3
 72
    8
 73
    4
 74
    0
 42
1e-07
 43
1e-07
 40
0
 40
0
 40
0
 40
0
 40
1
 40
1
 40
1
 40
1
 10
282.6217103740764
 20
18.205402
 30
0
 10
283.0895493740765
 20
15.719278
 30
0
 10
284.5879523740765
 20
13.123991
 30
0
 10
286.5070353740765
 20
11.475785
 30
0
  0
SPLINE
  5
1F1
100
AcDbEntity
  8
0
  6
ByLayer
 62
    7
370
   -1
100
AcDbSpline
210
0
220
0
230
0
 70
    8
 71
    3
 72
    8
 73
    4
 74
    0
 42
1e-07
 43
1e-07
 40
0
 40
0
 40
0
 40
0
 40
1
 40
1
 40
1
 40
1
 10
286.5070353740765
 20
11.475785
 30
0
 10
285.6010733740765
 20
13.884721
 30
0
 10
284.2549013740764
 20
16.216328
 30
0
 10
282.6217103740764
 20
18.205402
 30
0
  0
SPLINE
  5
1F2
100
AcDbEntity
  8
0
  6
ByLayer
 62
    7
370
   -1
100
AcDbSpline
210
0
220
0
230
0
 70
    8
 71
    3
 72
    8
 73
    4
 74
    0
 42
1e-07
 43
1e-07
 40
0
 40
0
 40
0
 40
0
 40
1
 40
1
 40
1
 40
1
 10
307.9659753740764
 20
3.572856999999999
 30
0
 10
308.4338273740764
 20
1.086760999999999
 30
0
 10
309.9322193740765
 20
-1.508526
 30
0
 10
311.8513243740765
 20
-3.156760000000002
 30
0
  0
SPLINE
  5
1F3
100
AcDbEntity
  8
0
  6
ByLayer
 62
    7
370
   -1
100
AcDbSpline
210
0
220
0
230
0
 70
    8
 71
    3
 72
    8
 73
    4
 74
    0
 42
1e-07
 43
1e-07
 40
0
 40
0
 40
0
 40
0
 40
1
 40
1
 40
1
 40
1
 10
311.8513243740765
 20
-3.156760000000002
 30
0
 10
310.9453623740765
 20
-0.7478240000000014
 30
0
 10
309.5991913740764
 20
1.583811000000001
 30
0
 10
307.9659753740764
 20
3.572856999999999
 30
0
  0
SPLINE
  5
1F4
100
AcDbEntity
  8
0
  6
ByLayer
 62
    7
370
   -1
100
AcDbSpline
210
0
220
0
230
0
 70
    8
 71
    3
 72
    8
 73
    4
 74
    0
 42
1e-07
 43
1e-07
 40
0
 40
0
 40
0
 40
0
 40
1
 40
1
 40
1
 40
1
 10
266.8835033740764
 20
18.679733
 30
0
 10
266.8835033740764
 20
22.405292
 30
0
 10
268.1650743740765
 20
25.238295
 30
0
 10
270.4465583740765
 20
26.555454
 30
0
  0
SPLINE
  5
1F5
100
AcDbEntity
  8
0
  6
ByLayer
 62
    7
370
   -1
100
AcDbSpline
210
0
220
0
230
0
 70
    8
 71
    3
 72
    8
 73
    4
 74
    0
 42
1e-07
 43
1e-07
 40
0
 40
0
 40
0
 40
0
 40
1
 40
1
 40
1
 40
1
 10
270.4465583740765
 20
26.555454
 30
0
 10
274.5997403740764
 20
28.953327
 30
0
 10
281.1274563740764
 20
25.869033
 30
0
 10
285.9608223740764
 20
19.224958
 30
0
  0
SPLINE
  5
1F6
100
AcDbEntity
  8
0
  6
ByLayer
 62
    7
370
   -1
100
AcDbSpline
210
0
220
0
230
0
 70
    8
 71
    3
 72
    8
 73
    4
 74
    0
 42
1e-07
 43
1e-07
 40
0
 40
0
 40
0
 40
0
 40
1
 40
1
 40
1
 40
1
 10
285.9608223740764
 20
19.224958
 30
0
 10
289.4278093740764
 20
14.459156
 30
0
 10
294.0139763740764
 20
11.811319
 30
0
 10
297.4809353740765
 20
12.573798
 30
0
  0
LINE
  5
1F7
100
AcDbEntity
  8
0
  6
ByLayer
 62
    7
370
   -1
100
AcDbLine
 10
266.8835033740764
 20
18.679733
 11
266.8835033740764
 21
17.216495
  0
SPLINE
  5
1F8
100
AcDbEntity
  8
0
  6
ByLayer
 62
    7
370
   -1
100
AcDbSpline
210
0
220
0
230
0
 70
    8
 71
    3
 72
    8
 73
    4
 74
    0
 42
1e-07
 43
1e-07
 40
0
 40
0
 40
0
 40
0
 40
1
 40
1
 40
1
 40
1
 10
283.9736103740764
 20
17.704909
 30
0
 10
280.6400023740765
 20
22.287351
 30
0
 10
276.3046453740764
 20
25.093628
 30
0
 10
272.7176003740764
 20
24.991125
 30
0
  0
SPLINE
  5
1F9
100
AcDbEntity
  8
0
  6
ByLayer
 62
    7
370
   -1
100
AcDbSpline
210
0
220
0
230
0
 70
    8
 71
    3
 72
    8
 73
    4
 74
    0
 42
1e-07
 43
1e-07
 40
0
 40
0
 40
0
 40
0
 40
1
 40
1
 40
1
 40
1
 10
272.7176003740764
 20
24.991125
 30
0
 10
269.1305563740764
 20
24.888593
 30
0
 10
266.8835033740764
 20
21.894215
 30
0
 10
266.8835033740764
 20
17.216495
 30
0
  0
SPLINE
  5
1FA
100
AcDbEntity
  8
0
  6
ByLayer
 62
    7
370
   -1
100
AcDbSpline
210
0
220
0
230
0
 70
    8
 71
    3
 72
    8
 73
    4
 74
    0
 42
1e-07
 43
1e-07
 40
0
 40
0
 40
0
 40
0
 40
1
 40
1
 40
1
 40
1
 10
296.9337353740764
 20
10.222362
 30
0
 10
293.0333953740765
 20
9.364582
 30
0
 10
287.8739503740765
 20
12.343392
 30
0
 10
283.9736103740764
 20
17.704909
 30
0
  0
SPLINE
  5
1FB
100
AcDbEntity
  8
0
  6
ByLayer
 62
    7
370
   -1
100
AcDbSpline
210
0
220
0
230
0
 70
    8
 71
    3
 72
    8
 73
    4
 74
    0
 42
1e-07
 43
1e-07
 40
0
 40
0
 40
0
 40
0
 40
1
 40
1
 40
1
 40
1
 10
297.4809353740765
 20
12.573798
 30
0
 10
301.2021763740764
 20
13.392186
 30
0
 10
306.0414923740764
 20
10.936816
 30
0
 10
310.0457343740765
 20
6.198680999999999
 30
0
  0
SPLINE
  5
1FC
100
AcDbEntity
  8
0
  6
ByLayer
 62
    7
370
   -1
100
AcDbSpline
210
0
220
0
230
0
 70
    8
 71
    3
 72
    8
 73
    4
 74
    0
 42
1e-07
 43
1e-07
 40
0
 40
0
 40
0
 40
0
 40
1
 40
1
 40
1
 40
1
 10
310.0457343740765
 20
6.198680999999999
 30
0
 10
314.0499763740764
 20
1.460536000000001
 30
0
 10
316.5582833740764
 20
-4.778381
 30
0
 10
316.5582833740764
 20
-10
 30
0
  0
LINE
  5
1FD
100
AcDbEntity
  8
0
  6
ByLayer
 62
    7
370
   -1
100
AcDbLine
 10
347.2112853740765
 20
-11.472297
 11
347.9851383740764
 21
-11.025426
  0
SPLINE
  5
1FE
100
AcDbEntity
  8
0
  6
ByLayer
 62
    7
370
   -1
100
AcDbSpline
210
0
220
0
230
0
 70
    8
 71
    3
 72
    8
 73
    4
 74
    0
 42
1e-07
 43
1e-07
 40
0
 40
0
 40
0
 40
0
 40
1
 40
1
 40
1
 40
1
 10
348.5100723740765
 20
-10.293793
 30
0
 10
348.5100723740765
 20
-10.568226
 30
0
 10
348.3212653740765
 20
-10.831399
 30
0
 10
347.9851383740764
 20
-11.025426
 30
0
  0
LINE
  5
1FF
100
AcDbEntity
  8
0
  6
ByLayer
 62
    7
370
   -1
100
AcDbLine
 10
316.5582833740764
 20
-29.169662
 11
317.3322773740765
 21
-28.722905
  0
LINE
  5
200
100
AcDbEntity
  8
0
  6
ByLayer
 62
    7
370
   -1
100
AcDbLine
 10
314.0238423740764
 20
-29.169662
 11
266.8835033740764
 21
-1.953279999999999
  0
LINE
  5
201
100
AcDbEntity
  8
0
  6
ByLayer
 62
    7
370
   -1
100
AcDbLine
 10
316.5582833740764
 20
-29.169662
 11
314.0238423740764
 21
-29.169662
  0
LINE
  5
202
100
AcDbEntity
  8
0
  6
ByLayer
 62
    7
370
   -1
100
AcDbLine
 10
266.8835033740764
 20
17.216495
 11
266.8835033740764
 21
-1.953279999999999
  0
LINE
  5
203
100
AcDbEntity
  8
0
  6
ByLayer
 62
    7
370
   -1
100
AcDbLine
 10
314.0238423740764
 20
-29.169662
 11
314.0238423740764
 21
-10
  0
SPLINE
  5
204
100
AcDbEntity
  8
0
  6
ByLayer
 62
    7
370
   -1
100
AcDbSpline
210
0
220
0
230
0
 70
    8
 71
    3
 72
    8
 73
    4
 74
    0
 42
1e-07
 43
1e-07
 40
0
 40
0
 40
0
 40
0
 40
1
 40
1
 40
1
 40
1
 10
314.0238423740764
 20
-10
 30
0
 10
314.0238423740764
 20
-5.322279999999999
 30
0
 10
311.7768173740764
 20
0.2667359999999981
 30
0
 10
308.1896973740764
 20
4.511329999999999
 30
0
  0
SPLINE
  5
205
100
AcDbEntity
  8
0
  6
ByLayer
 62
    7
370
   -1
100
AcDbSpline
210
0
220
0
230
0
 70
    8
 71
    3
 72
    8
 73
    4
 74
    0
 42
1e-07
 43
1e-07
 40
0
 40
0
 40
0
 40
0
 40
1
 40
1
 40
1
 40
1
 10
308.1896973740764
 20
4.511329999999999
 30
0
 10
304.6025593740765
 20
8.755896
 30
0
 10
300.2673443740765
 20
10.955502
 30
0
 10
296.9337353740764
 20
10.222362
 30
0
  0
SPLINE
  5
206
100
AcDbEntity
  8
0
  6
ByLayer
 62
    7
370
   -1
100
AcDbSpline
210
0
220
0
230
0
 70
    8
 71
    3
 72
    8
 73
    4
 74
    0
 42
1e-07
 43
1e-07
 40
0
 40
0
 40
0
 40
0
 40
1
 40
1
 40
1
 40
1
 10
287.7595933740764
 20
5.163658999999999
 30
0
 10
287.7595933740764
 20
9.823751999999999
 30
0
 10
285.3285313740764
 20
15.428561
 30
0
 10
281.5999803740764
 20
19.364573
 30
0
  0
SPLINE
  5
207
100
AcDbEntity
  8
0
  6
ByLayer
 62
    7
370
   -1
100
AcDbSpline
210
0
220
0
230
0
 70
    8
 71
    3
 72
    8
 73
    4
 74
    0
 42
1e-07
 43
1e-07
 40
0
 40
0
 40
0
 40
0
 40
1
 40
1
 40
1
 40
1
 10
281.5999803740764
 20
19.364573
 30
0
 10
277.8715433740765
 20
23.300585
 30
0
 10
273.5797893740765
 20
24.792666
 30
0
 10
270.7259583740765
 20
23.145081
 30
0
  0
SPLINE
  5
208
100
AcDbEntity
  8
0
  6
ByLayer
 62
    7
370
   -1
100
AcDbSpline
210
0
220
0
230
0
 70
    8
 71
    3
 72
    8
 73
    4
 74
    0
 42
1e-07
 43
1e-07
 40
0
 40
0
 40
0
 40
0
 40
1
 40
1
 40
1
 40
1
 10
270.7259583740765
 20
23.145081
 30
0
 10
266.8293163740764
 20
20.895346
 30
0
 10
266.8293163740764
 20
13.600212
 30
0
 10
270.7259583740765
 20
6.850980999999999
 30
0
  0
SPLINE
  5
209
100
AcDbEntity
  8
0
  6
ByLayer
 62
    7
370
   -1
100
AcDbSpline
210
0
220
0
230
0
 70
    8
 71
    3
 72
    8
 73
    4
 74
    0
 42
1e-07
 43
1e-07
 40
0
 40
0
 40
0
 40
0
 40
1
 40
1
 40
1
 40
1
 10
270.7259583740765
 20
6.850980999999999
 30
0
 10
274.6226003740765
 20
0.1017489999999981
 30
0
 10
280.9403993740764
 20
-3.545832000000001
 30
0
 10
284.8370983740764
 20
-1.296068999999999
 30
0
  0
SPLINE
  5
20A
100
AcDbEntity
  8
0
  6
ByLayer
 62
    7
370
   -1
100
AcDbSpline
210
0
220
0
230
0
 70
    8
 71
    3
 72
    8
 73
    4
 74
    0
 42
1e-07
 43
1e-07
 40
0
 40
0
 40
0
 40
0
 40
1
 40
1
 40
1
 40
1
 10
284.8370983740764
 20
-1.296068999999999
 30
0
 10
286.7083443740764
 20
-0.2156939999999992
 30
0
 10
287.7595933740764
 20
2.107925999999999
 30
0
 10
287.7595933740764
 20
5.163658999999999
 30
0
  0
SPLINE
  5
20B
100
AcDbEntity
  8
0
  6
ByLayer
 62
    7
370
   -1
100
AcDbSpline
210
0
220
0
230
0
 70
    8
 71
    3
 72
    8
 73
    4
 74
    0
 42
1e-07
 43
1e-07
 40
0
 40
0
 40
0
 40
0
 40
1
 40
1
 40
1
 40
1
 10
313.1038833740764
 20
-9.468858000000001
 30
0
 10
313.1038833740764
 20
-4.808776000000002
 30
0
 10
310.6727923740764
 20
0.7960439999999984
 30
0
 10
306.9442503740764
 20
4.732056
 30
0
  0
SPLINE
  5
20C
100
AcDbEntity
  8
0
  6
ByLayer
 62
    7
370
   -1
100
AcDbSpline
210
0
220
0
230
0
 70
    8
 71
    3
 72
    8
 73
    4
 74
    0
 42
1e-07
 43
1e-07
 40
0
 40
0
 40
0
 40
0
 40
1
 40
1
 40
1
 40
1
 10
306.9442503740764
 20
4.732056
 30
0
 10
303.2156913740764
 20
8.668056999999999
 30
0
 10
298.9239663740764
 20
10.160149
 30
0
 10
296.0702483740765
 20
8.512561999999999
 30
0
  0
SPLINE
  5
20D
100
AcDbEntity
  8
0
  6
ByLayer
 62
    7
370
   -1
100
AcDbSpline
210
0
220
0
230
0
 70
    8
 71
    3
 72
    8
 73
    4
 74
    0
 42
1e-07
 43
1e-07
 40
0
 40
0
 40
0
 40
0
 40
1
 40
1
 40
1
 40
1
 10
296.0702483740765
 20
8.512561999999999
 30
0
 10
292.1735773740764
 20
6.262815999999999
 30
0
 10
292.1735773740764
 20
-1.032304
 30
0
 10
296.0702483740765
 20
-7.781535999999999
 30
0
  0
SPLINE
  5
20E
100
AcDbEntity
  8
0
  6
ByLayer
 62
    7
370
   -1
100
AcDbSpline
210
0
220
0
230
0
 70
    8
 71
    3
 72
    8
 73
    4
 74
    0
 42
1e-07
 43
1e-07
 40
0
 40
0
 40
0
 40
0
 40
1
 40
1
 40
1
 40
1
 10
296.0702483740765
 20
-7.781535999999999
 30
0
 10
299.9669183740764
 20
-14.530796
 30
0
 10
306.2846913740764
 20
-18.178349
 30
0
 10
310.1813673740764
 20
-15.928586
 30
0
  0
SPLINE
  5
20F
100
AcDbEntity
  8
0
  6
ByLayer
 62
    7
370
   -1
100
AcDbSpline
210
0
220
0
230
0
 70
    8
 71
    3
 72
    8
 73
    4
 74
    0
 42
1e-07
 43
1e-07
 40
0
 40
0
 40
0
 40
0
 40
1
 40
1
 40
1
 40
1
 10
310.1813673740764
 20
-15.928586
 30
0
 10
312.0526053740764
 20
-14.848239
 30
0
 10
313.1038833740764
 20
-12.524591
 30
0
 10
313.1038833740764
 20
-9.468858000000001
 30
0
  0
LINE
  5
210
100
AcDbEntity
  8
0
  6
ByLayer
 62
    7
370
   -1
100
AcDbLine
 10
316.5582833740764
 20
-10
 11
316.5582833740764
 21
-29.169662
  0
SPLINE
  5
211
100
AcDbEntity
  8
0
  6
ByLayer
 62
    7
370
   -1
100
AcDbSpline
210
0
220
0
230
0
 70
    8
 71
    3
 72
    8
 73
    4
 74
    0
 42
1e-07
 43
1e-07
 40
0
 40
0
 40
0
 40
0
 40
1
 40
1
 40
1
 40
1
 10
277.7815143740764
 20
22.446186
 30
0
 10
277.7815143740764
 20
16.082949
 30
0
 10
282.2488663740764
 20
8.345293
 30
0
 10
287.7595933740764
 20
5.163658999999999
 30
0
  0
SPLINE
  5
212
100
AcDbEntity
  8
0
  6
ByLayer
 62
    7
370
   -1
100
AcDbSpline
210
0
220
0
230
0
 70
    8
 71
    3
 72
    8
 73
    4
 74
    0
 42
1e-07
 43
1e-07
 40
0
 40
0
 40
0
 40
0
 40
1
 40
1
 40
1
 40
1
 10
303.1258033740764
 20
7.813654999999999
 30
0
 10
303.1258033740764
 20
1.450405
 30
0
 10
307.5931423740764
 20
-6.287226
 30
0
 10
313.1038833740764
 20
-9.468858000000001
 30
0
  0
SPLINE
  5
213
100
AcDbEntity
  8
0
  6
ByLayer
 62
    7
370
   -1
100
AcDbSpline
210
0
220
0
230
0
 70
    8
 71
    3
 72
    8
 73
    4
 74
    0
 42
1e-07
 43
1e-07
 40
0
 40
0
 40
0
 40
0
 40
1
 40
1
 40
1
 40
1
 10
282.6217103740764
 20
18.205402
 30
0
 10
283.0895493740765
 20
15.719278
 30
0
 10
284.5879523740765
 20
13.123991
 30
0
 10
286.5070353740765
 20
11.475785
 30
0
  0
SPLINE
  5
214
100
AcDbEntity
  8
0
  6
ByLayer
 62
    7
370
   -1
100
AcDbSpline
210
0
220
0
230
0
 70
    8
 71
    3
 72
    8
 73
    4
 74
    0
 42
1e-07
 43
1e-07
 40
0
 40
0
 40
0
 40
0
 40
1
 40
1
 40
1
 40
1
 10
307.9659753740764
 20
3.572856999999999
 30
0
 10
308.4338273740764
 20
1.086760999999999
 30
0
 10
309.9322193740765
 20
-1.508526
 30
0
 10
311.8513243740765
 20
-3.156760000000002
 30
0
  0
LINE
  5
215
100
AcDbEntity
  8
0
  6
ByLayer
 62
    7
370
   -1
100
AcDbLine
 10
285.9608223740764
 20
19.224958
 11
317.3877343740764
 21
37.369307
  0
SPLINE
  5
216
100
AcDbEntity
  8
0
  6
ByLayer
 62
    7
370
   -1
100
AcDbSpline
210
0
220
0
230
0
 70
    8
 71
    3
 72
    8
 73
    4
 74
    0
 42
1e-07
 43
1e-07
 40
0
 40
0
 40
0
 40
0
 40
1
 40
1
 40
1
 40
1
 10
317.3877343740764
 20
37.369307
 30
0
 10
312.5543683740764
 20
44.013382
 30
0
 10
306.0267573740765
 20
47.097789
 30
0
 10
301.8735273740764
 20
44.699747
 30
0
  0
SPLINE
  5
217
100
AcDbEntity
  8
0
  6
ByLayer
 62
    7
370
   -1
100
AcDbSpline
210
0
220
0
230
0
 70
    8
 71
    3
 72
    8
 73
    4
 74
    0
 42
1e-07
 43
1e-07
 40
0
 40
0
 40
0
 40
0
 40
1
 40
1
 40
1
 40
1
 10
328.9078473740764
 20
30.718147
 30
0
 10
325.4408883740765
 20
29.955667
 30
0
 10
320.8546933740764
 20
32.603476
 30
0
 10
317.3877343740764
 20
37.369307
 30
0
  0
LINE
  5
218
100
AcDbEntity
  8
0
  6
ByLayer
 62
    7
370
   -1
100
AcDbLine
 10
297.4809353740765
 20
12.573798
 11
328.9078473740764
 21
30.718147
  0
SPLINE
  5
219
100
AcDbEntity
  8
0
  6
ByLayer
 62
    7
370
   -1
100
AcDbSpline
210
0
220
0
230
0
 70
    8
 71
    3
 72
    8
 73
    4
 74
    0
 42
1e-07
 43
1e-07
 40
0
 40
0
 40
0
 40
0
 40
1
 40
1
 40
1
 40
1
 10
318.1169403740764
 20
37.63516
 30
0
 10
318.0670143740765
 20
37.70374
 30
0
 10
317.7956303740764
 20
37.60468
 30
0
 10
317.3877343740764
 20
37.369307
 30
0
  0
LINE
  5
21A
100
AcDbEntity
  8
0
  6
ByLayer
 62
    7
370
   -1
100
AcDbLine
 10
285.9608223740764
 20
19.224958
 11
283.9736103740764
 21
17.704909
  0
LINE
  5
21B
100
AcDbEntity
  8
0
  6
ByLayer
 62
    7
370
   -1
100
AcDbLine
 10
297.4809353740765
 20
12.573798
 11
296.9337353740764
 21
10.222362
  0
SPLINE
  5
21C
100
AcDbEntity
  8
0
  6
ByLayer
 62
    7
370
   -1
100
AcDbSpline
210
0
220
0
230
0
 70
    8
 71
    3
 72
    8
 73
    4
 74
    0
 42
1e-07
 43
1e-07
 40
0
 40
0
 40
0
 40
0
 40
1
 40
1
 40
1
 40
1
 10
329.2429303740764
 20
30.848619
 30
0
 10
329.1259203740764
 20
30.82288
 30
0
 10
329.0133423740764
 20
30.779051
 30
0
 10
328.9078473740764
 20
30.718147
 30
0
  0
LINE
  5
21D
100
AcDbEntity
  8
0
  6
ByLayer
 62
    7
370
   -1
100
AcDbLine
 10
316.5582833740764
 20
-10
 11
347.9851383740764
 21
8.144328
  0
SPLINE
  5
21E
100
AcDbEntity
  8
0
  6
ByLayer
 62
    7
370
   -1
100
AcDbSpline
210
0
220
0
230
0
 70
    8
 71
    3
 72
    8
 73
    4
 74
    0
 42
1e-07
 43
1e-07
 40
0
 40
0
 40
0
 40
0
 40
1
 40
1
 40
1
 40
1
 10
347.9851383740764
 20
8.144328
 30
0
 10
347.9851383740764
 20
13.365968
 30
0
 10
345.4767473740765
 20
19.604885
 30
0
 10
341.4725783740764
 20
24.343001
 30
0
  0
SPLINE
  5
21F
100
AcDbEntity
  8
0
  6
ByLayer
 62
    7
370
   -1
100
AcDbSpline
210
0
220
0
230
0
 70
    8
 71
    3
 72
    8
 73
    4
 74
    0
 42
1e-07
 43
1e-07
 40
0
 40
0
 40
0
 40
0
 40
1
 40
1
 40
1
 40
1
 10
341.4725783740764
 20
24.343001
 30
0
 10
337.4684093740764
 20
29.081145
 30
0
 10
332.6290883740764
 20
31.536535
 30
0
 10
328.9078473740764
 20
30.718147
 30
0
  0
LINE
  5
220
100
AcDbEntity
  8
0
  6
ByLayer
 62
    7
370
   -1
100
AcDbLine
 10
316.5582833740764
 20
-10
 11
314.0238423740764
 21
-10
  0
SPLINE
  5
221
100
AcDbEntity
  8
0
  6
ByLayer
 62
    7
370
   -1
100
AcDbSpline
210
0
220
0
230
0
 70
    8
 71
    3
 72
    8
 73
    4
 74
    0
 42
1e-07
 43
1e-07
 40
0
 40
0
 40
0
 40
0
 40
1
 40
1
 40
1
 40
1
 10
348.5100723740765
 20
8.875952999999999
 30
0
 10
348.5100723740765
 20
8.60154
 30
0
 10
348.3212653740765
 20
8.338367
 30
0
 10
347.9851383740764
 20
8.144328
 30
0
  0
LINE
  5
222
100
AcDbEntity
  8
0
  6
ByLayer
 62
    7
370
   -1
100
AcDbLine
 10
347.9851383740764
 20
-11.025426
 11
347.9851383740764
 21
8.144328
  0
LINE
  5
223
100
AcDbEntity
  8
0
  6
ByLayer
 62
    7
370
   -1
100
AcDbLine
 10
270.4465583740765
 20
26.555454
 11
301.8735273740764
 21
44.699747
  0
SPLINE
  5
224
100
AcDbEntity
  8
0
  6
ByLayer
 62
    7
370
   -1
100
AcDbSpline
210
0
220
0
230
0
 70
    8
 71
    3
 72
    8
 73
    4
 74
    0
 42
1e-07
 43
1e-07
 40
0
 40
0
 40
0
 40
0
 40
1
 40
1
 40
1
 40
1
 10
301.8735273740764
 20
44.699747
 30
0
 10
303.7434463740764
 20
45.785455
 30
0
 10
306.1057423740764
 20
45.955918
 30
0
 10
308.5519293740765
 20
45.189967
 30
0
  0
SPLINE
  5
225
100
AcDbEntity
  8
0
  6
ByLayer
 62
    7
370
   -1
100
AcDbSpline
210
0
220
0
230
0
 70
    8
 71
    3
 72
    8
 73
    4
 74
    0
 42
1e-07
 43
1e-07
 40
0
 40
0
 40
0
 40
0
 40
1
 40
1
 40
1
 40
1
 10
308.5519293740765
 20
45.189967
 30
0
 10
310.7489083740764
 20
44.511222
 30
0
 10
313.0273163740765
 20
43.084871
 30
0
 10
315.1022143740764
 20
41.100002
 30
0
  0
SPLINE
  5
226
100
AcDbEntity
  8
0
  6
ByLayer
 62
    7
370
   -1
100
AcDbSpline
210
0
220
0
230
0
 70
    8
 71
    3
 72
    8
 73
    4
 74
    0
 42
1e-07
 43
1e-07
 40
0
 40
0
 40
0
 40
0
 40
1
 40
1
 40
1
 40
1
 10
315.1022143740764
 20
41.100002
 30
0
 10
316.1753643740764
 20
40.075253
 30
0
 10
317.1931703740764
 20
38.90516
 30
0
 10
318.1169403740764
 20
37.63516
 30
0
  0
SPLINE
  5
227
100
AcDbEntity
  8
0
  6
ByLayer
 62
    7
370
   -1
100
AcDbSpline
210
0
220
0
230
0
 70
    8
 71
    3
 72
    8
 73
    4
 74
    0
 42
1e-07
 43
1e-07
 40
0
 40
0
 40
0
 40
0
 40
1
 40
1
 40
1
 40
1
 10
318.1169403740764
 20
37.63516
 30
0
 10
319.2636653740764
 20
36.057001
 30
0
 10
320.5643423740764
 20
34.661582
 30
0
 10
321.8928753740764
 20
33.566447
 30
0
  0
SPLINE
  5
228
100
AcDbEntity
  8
0
  6
ByLayer
 62
    7
370
   -1
100
AcDbSpline
210
0
220
0
230
0
 70
    8
 71
    3
 72
    8
 73
    4
 74
    0
 42
1e-07
 43
1e-07
 40
0
 40
0
 40
0
 40
0
 40
1
 40
1
 40
1
 40
1
 10
321.8928753740764
 20
33.566447
 30
0
 10
323.0217083740765
 20
32.633448
 30
0
 10
324.1691103740765
 20
31.91937
 30
0
 10
325.2357693740764
 20
31.453731
 30
0
  0
SPLINE
  5
229
100
AcDbEntity
  8
0
  6
ByLayer
 62
    7
370
   -1
100
AcDbSpline
210
0
220
0
230
0
 70
    8
 71
    3
 72
    8
 73
    4
 74
    0
 42
1e-07
 43
1e-07
 40
0
 40
0
 40
0
 40
0
 40
1
 40
1
 40
1
 40
1
 10
325.2357693740764
 20
31.453731
 30
0
 10
326.8530443740764
 20
30.744196
 30
0
 10
328.2330263740764
 20
30.621063
 30
0
 10
329.2429303740764
 20
30.848619
 30
0
  0
SPLINE
  5
22A
100
AcDbEntity
  8
0
  6
ByLayer
 62
    7
370
   -1
100
AcDbSpline
210
0
220
0
230
0
 70
    8
 71
    3
 72
    8
 73
    4
 74
    0
 42
1e-07
 43
1e-07
 40
0
 40
0
 40
0
 40
0
 40
1
 40
1
 40
1
 40
1
 10
329.2429303740764
 20
30.848619
 30
0
 10
330.0213553740764
 20
31.019278
 30
0
 10
330.8358773740765
 20
31.069062
 30
0
 10
331.6865233740764
 20
30.997999
 30
0
  0
SPLINE
  5
22B
100
AcDbEntity
  8
0
  6
ByLayer
 62
    7
370
   -1
100
AcDbSpline
210
0
220
0
230
0
 70
    8
 71
    3
 72
    8
 73
    4
 74
    0
 42
1e-07
 43
1e-07
 40
0
 40
0
 40
0
 40
0
 40
1
 40
1
 40
1
 40
1
 10
331.6865233740764
 20
30.997999
 30
0
 10
333.3808443740764
 20
30.857283
 30
0
 10
335.1834543740765
 20
30.227447
 30
0
 10
336.9561763740764
 20
29.16251
 30
0
  0
SPLINE
  5
22C
100
AcDbEntity
  8
0
  6
ByLayer
 62
    7
370
   -1
100
AcDbSpline
210
0
220
0
230
0
 70
    8
 71
    3
 72
    8
 73
    4
 74
    0
 42
1e-07
 43
1e-07
 40
0
 40
0
 40
0
 40
0
 40
1
 40
1
 40
1
 40
1
 10
336.9561763740764
 20
29.16251
 30
0
 10
338.2258943740765
 20
28.401046
 30
0
 10
339.4795253740764
 20
27.418264
 30
0
 10
340.6620363740764
 20
26.259121
 30
0
  0
SPLINE
  5
22D
100
AcDbEntity
  8
0
  6
ByLayer
 62
    7
370
   -1
100
AcDbSpline
210
0
220
0
230
0
 70
    8
 71
    3
 72
    8
 73
    4
 74
    0
 42
1e-07
 43
1e-07
 40
0
 40
0
 40
0
 40
0
 40
1
 40
1
 40
1
 40
1
 10
340.6620363740764
 20
26.259121
 30
0
 10
343.4704293740764
 20
23.51911
 30
0
 10
345.8484343740764
 20
19.761631
 30
0
 10
347.1963273740764
 20
15.938508
 30
0
  0
SPLINE
  5
22E
100
AcDbEntity
  8
0
  6
ByLayer
 62
    7
370
   -1
100
AcDbSpline
210
0
220
0
230
0
 70
    8
 71
    3
 72
    8
 73
    4
 74
    0
 42
1e-07
 43
1e-07
 40
0
 40
0
 40
0
 40
0
 40
1
 40
1
 40
1
 40
1
 10
347.1963273740764
 20
15.938508
 30
0
 10
348.0571053740765
 20
13.516618
 30
0
 10
348.5117653740764
 20
11.080984
 30
0
 10
348.5100723740765
 20
8.875952999999999
 30
0
  0
LINE
  5
22F
100
AcDbEntity
  8
0
  6
ByLayer
 62
    7
370
   -1
100
AcDbLine
 10
348.5100723740765
 20
8.875952999999999
 11
348.5100723740765
 21
-10.293793
  0
ENDSEC
  0
SECTION
  2
OBJECTS
  0
DICTIONARY
  5
C
330
0
100
AcDbDictionary
281
    1
  3
ACAD_GROUP
350
D
  0
DICTIONARY
  5
D
330
C
100
AcDbDictionary
281
    1
  0
ENDSEC
  0
EOF
