999
dxfrw 0.6.3
  0
SECTION
  2
HEADER
  9
$ACADVER
  1
AC1021
  9
$DWGCODEPAGE
  3
ANSI_1252
  9
$INSBASE
 10
0
 20
0
 30
0
  9
$EXTMIN
 10
-1.224646799147353e-15
 20
0
 30
0
  9
$EXTMAX
 10
279.4
 20
215.9
 30
0
  9
$LIMMIN
 10
0
 20
0
  9
$LIMMAX
 10
420
 20
297
  9
$ORTHOMODE
 70
    0
  9
$REGENMODE
 70
    1
  9
$FILLMODE
 70
    1
  9
$QTEXTMODE
 70
    0
  9
$MIRRTEXT
 70
    0
  9
$LTSCALE
 40
1
  9
$ATTMODE
 70
    0
  9
$TEXTSIZE
 40
2.5
  9
$TRACEWID
 40
15.68
  9
$TEXTSTYLE
  7
STANDARD
  9
$CLAYER
  8
Dimension
  9
$CELTYPE
  6
BYLAYER
  9
$CECOLOR
 62
  256
  9
$CELTSCALE
 40
1
  9
$DISPSILH
 70
    0
  9
$DIMSCALE
 40
1
  9
$DIMASZ
 40
2.5
  9
$DIMEXO
 40
1
  9
$DIMDLI
 40
3.75
  9
$DIMRND
 40
0
  9
$DIMDLE
 40
0
  9
$DIMEXE
 40
1.25
  9
$DIMTP
 40
0
  9
$DIMTM
 40
0
  9
$DIMTXT
 40
2.5
  9
$DIMCEN
 40
2.5
  9
$DIMTSZ
 40
0
  9
$DIMTOL
 70
    0
  9
$DIMLIM
 70
    0
  9
$DIMTIH
 70
    1
  9
$DIMTOH
 70
    0
  9
$DIMSE1
 70
    0
  9
$DIMSE2
 70
    0
  9
$DIMTAD
 70
    1
  9
$DIMZIN
 70
    1
  9
$DIMBLK
  1

  9
$DIMASO
 70
    1
  9
$DIMSHO
 70
    1
  9
$DIMPOST
  1

  9
$DIMAPOST
  1

  9
$DIMALT
 70
    0
  9
$DIMALTD
 70
    3
  9
$DIMALTF
 40
0.03937
  9
$DIMLFAC
 40
1
  9
$DIMTOFL
 70
    1
  9
$DIMTVP
 40
0
  9
$DIMTIX
 70
    0
  9
$DIMSOXD
 70
    0
  9
$DIMSAH
 70
    0
  9
$DIMBLK1
  1

  9
$DIMBLK2
  1

  9
$DIMSTYLE
  2
STANDARD
  9
$DIMCLRD
 70
    0
  9
$DIMCLRE
 70
    0
  9
$DIMCLRT
 70
    0
  9
$DIMTFAC
 40
1
  9
$DIMGAP
 40
1
  9
$DIMJUST
 70
    0
  9
$DIMSD1
 70
    0
  9
$DIMSD2
 70
    0
  9
$DIMTOLJ
 70
    0
  9
$DIMTZIN
 70
    8
  9
$DIMALTZ
 70
    0
  9
$DIMALTTZ
 70
    0
  9
$DIMUPT
 70
    0
  9
$DIMDEC
 70
    2
  9
$DIMTDEC
 70
    2
  9
$DIMALTU
 70
    2
  9
$DIMALTTD
 70
    3
  9
$DIMTXSTY
  7
standard
  9
$DIMAUNIT
 70
    0
  9
$DIMADEC
 70
    2
  9
$DIMALTRND
 40
0
  9
$DIMAZIN
 70
    0
  9
$DIMDSEP
 70
    0
  9
$DIMATFIT
 70
    3
  9
$DIMFRAC
 70
    0
  9
$DIMLDRBLK
  1
STANDARD
  9
$DIMLUNIT
 70
    2
  9
$DIMLWD
 70
   -2
  9
$DIMLWE
 70
   -2
  9
$DIMTMOVE
 70
    0
  9
$DIMFXL
 40
1
  9
$DIMFXLON
 70
    0
  9
$DIMJOGANG
 40
0.7854
  9
$DIMTFILL
 70
    0
  9
$DIMTFILLCLR
 70
    0
  9
$DIMARCSYM
 70
    0
  9
$DIMLTYPE
  6

  9
$DIMLTEX1
  6

  9
$DIMLTEX2
  6

  9
$LUNITS
 70
    2
  9
$LUPREC
 70
    4
  9
$SKETCHINC
 40
1
  9
$FILLETRAD
 40
0
  9
$AUNITS
 70
    0
  9
$AUPREC
 70
    2
  9
$MENU
  1
.
  9
$ELEVATION
 40
0
  9
$PELEVATION
 40
0
  9
$THICKNESS
 40
0
  9
$LIMCHECK
 70
    0
  9
$CHAMFERA
 40
0
  9
$CHAMFERB
 40
0
  9
$CHAMFERC
 40
0
  9
$CHAMFERD
 40
0
  9
$SKPOLY
 70
    0
  9
$USRTIMER
 70
    1
  9
$ANGBASE
 50
0
  9
$ANGDIR
 70
    0
  9
$PDMODE
 70
   34
  9
$PDSIZE
 40
0
  9
$PLINEWID
 40
0
  9
$SPLFRAME
 70
    0
  9
$SPLINETYPE
 70
    2
  9
$SPLINESEGS
 70
    8
  9
$HANDSEED
  5
20000
  9
$SURFTAB1
 70
    6
  9
$SURFTAB2
 70
    6
  9
$SURFTYPE
 70
    6
  9
$SURFU
 70
    6
  9
$SURFV
 70
    6
  9
$UCSBASE
  2

  9
$UCSNAME
  2

  9
$UCSORG
 10
0
 20
0
 30
0
  9
$UCSXDIR
 10
1
 20
0
 30
0
  9
$UCSYDIR
 10
0
 20
1
 30
0
  9
$UCSORTHOREF
  2

  9
$UCSORTHOVIEW
 70
    0
  9
$UCSORGTOP
 10
0
 20
0
 30
0
  9
$UCSORGBOTTOM
 10
0
 20
0
 30
0
  9
$UCSORGLEFT
 10
0
 20
0
 30
0
  9
$UCSORGRIGHT
 10
0
 20
0
 30
0
  9
$UCSORGFRONT
 10
0
 20
0
 30
0
  9
$UCSORGBACK
 10
0
 20
0
 30
0
  9
$PUCSBASE
  2

  9
$PUCSNAME
  2

  9
$PUCSORG
 10
0
 20
0
 30
0
  9
$PUCSXDIR
 10
1
 20
0
 30
0
  9
$PUCSYDIR
 10
0
 20
1
 30
0
  9
$PUCSORTHOREF
  2

  9
$PUCSORTHOVIEW
 70
    0
  9
$PUCSORGTOP
 10
0
 20
0
 30
0
  9
$PUCSORGBOTTOM
 10
0
 20
0
 30
0
  9
$PUCSORGLEFT
 10
0
 20
0
 30
0
  9
$PUCSORGRIGHT
 10
0
 20
0
 30
0
  9
$PUCSORGFRONT
 10
0
 20
0
 30
0
  9
$PUCSORGBACK
 10
0
 20
0
 30
0
  9
$USERI1
 70
    0
  9
$USERI2
 70
    0
  9
$USERI3
 70
    0
  9
$USERI4
 70
    0
  9
$USERI5
 70
    0
  9
$USERR1
 40
0
  9
$USERR2
 40
0
  9
$USERR3
 40
0
  9
$USERR4
 40
0
  9
$USERR5
 40
0
  9
$WORLDVIEW
 70
    1
  9
$SHADEDGE
 70
    3
  9
$SHADEDIF
 70
   70
  9
$TILEMODE
 70
    1
  9
$MAXACTVP
 70
   64
  9
$PINSBASE
 10
1.224646799147353e-15
 20
0
 30
0
  9
$PLIMCHECK
 70
    0
  9
$PEXTMIN
 10
0
 20
0
 30
0
  9
$PEXTMAX
 10
0
 20
0
 30
0
  9
$GRIDMODE
 70
    1
  9
$SNAPSTYLE
 70
    0
  9
$GRIDUNIT
 10
0
 20
0
  9
$PLIMMIN
 10
0
 20
0
  9
$PLIMMAX
 10
279.4
 20
215.9
  9
$UNITMODE
 70
    0
  9
$VISRETAIN
 70
    1
  9
$PLINEGEN
 70
    0
  9
$PSLTSCALE
 70
    1
  9
$TREEDEPTH
 70
 3020
  9
$CMLSTYLE
  2
Standard
  9
$CMLJUST
 70
    0
  9
$CMLSCALE
 40
20
  9
$PROXYGRAPHICS
 70
    1
  9
$MEASUREMENT
 70
    1
  9
$CELWEIGHT
370
   -1
  9
$ENDCAPS
280
    0
  9
$JOINSTYLE
280
    0
  9
$LWDISPLAY
290
    0
  9
$INSUNITS
 70
    4
  9
$HYPERLINKBASE
  1

  9
$STYLESHEET
  1

  9
$XEDIT
290
    1
  9
$CEPSNTYPE
380
    0
  9
$PSTYLEMODE
290
    1
  9
$EXTNAMES
290
    1
  9
$PSVPSCALE
 40
1
  9
$OLESTARTUP
290
    0
  9
$SORTENTS
280
  127
  9
$INDEXCTL
280
    0
  9
$HIDETEXT
280
    1
  9
$XCLIPFRAME
290
    0
  9
$HALOGAP
280
    0
  9
$OBSCOLOR
 70
  257
  9
$OBSLTYPE
280
    0
  9
$INTERSECTIONDISPLAY
280
    0
  9
$INTERSECTIONCOLOR
 70
  257
  9
$DIMASSOC
280
    1
  9
$PROJECTNAME
  1

  9
$CAMERADISPLAY
290
    0
  9
$LENSLENGTH
 40
50
  9
$CAMERAHEIGHT
 40
0
  9
$STEPSPERSEC
 40
2
  9
$STEPSIZE
 40
50
  9
$3DDWFPREC
 40
2
  9
$PSOLWIDTH
 40
5
  9
$PSOLHEIGHT
 40
80
  9
$LOFTANG1
 40
1.570796326794897
  9
$LOFTANG2
 40
1.570796326794897
  9
$LOFTMAG1
 40
0
  9
$LOFTMAG2
 40
0
  9
$LOFTPARAM
 70
    7
  9
$LOFTNORMALS
280
    1
  9
$LATITUDE
 40
1
  9
$LONGITUDE
 40
1
  9
$NORTHDIRECTION
 40
0
  9
$TIMEZONE
 70
-8000
  9
$LIGHTGLYPHDISPLAY
280
    1
  9
$TILEMODELIGHTSYNCH
280
    1
  9
$SOLIDHIST
280
    1
  9
$SHOWHIST
280
    1
  9
$DWFFRAME
280
    2
  9
$DGNFRAME
280
    0
  9
$REALWORLDSCALE
290
    1
  9
$INTERFERECOLOR
 62
    1
  9
$CSHADOW
280
    0
  9
$SHADOWPLANELOCATION
 40
0
  0
ENDSEC
  0
SECTION
  2
CLASSES
  0
ENDSEC
  0
SECTION
  2
TABLES
  0
TABLE
  2
VPORT
  5
8
330
0
100
AcDbSymbolTable
 70
    1
  0
VPORT
  5
31
330
2
100
AcDbSymbolTableRecord
100
AcDbViewportTableRecord
  2
*ACTIVE
 70
    0
 10
0
 20
0
 11
1
 21
1
 12
152.1207937793411
 22
109.1344017307273
 13
0
 23
0
 14
10
 24
10
 15
10
 25
10
 16
0
 26
0
 36
1
 17
0
 27
0
 37
0
 40
219.8390826230478
 41
1.644642857142857
 42
50
 43
0
 44
0
 50
0
 51
0
 71
    0
 72
  100
 73
    1
 74
    3
 75
    0
 76
    1
 77
    0
 78
    0
281
    0
 65
    1
110
0
120
0
130
0
111
1
121
0
131
0
112
0
122
1
132
0
 79
    0
146
0
348
10020
 60
    7
 61
    5
292
1
282
    1
141
0
142
0
 63
  250
421
3358443
  0
ENDTAB
  0
TABLE
  2
LTYPE
  5
5
330
0
100
AcDbSymbolTable
 70
    4
  0
LTYPE
  5
14
330
5
100
AcDbSymbolTableRecord
100
AcDbLinetypeTableRecord
  2
ByBlock
 70
    0
  3

 72
   65
 73
    0
 40
0
  0
LTYPE
  5
15
330
5
100
AcDbSymbolTableRecord
100
AcDbLinetypeTableRecord
  2
ByLayer
 70
    0
  3

 72
   65
 73
    0
 40
0
  0
LTYPE
  5
16
330
5
100
AcDbSymbolTableRecord
100
AcDbLinetypeTableRecord
  2
Continuous
 70
    0
  3
Solid line
 72
   65
 73
    0
 40
0
  0
LTYPE
  5
32
330
5
100
AcDbSymbolTableRecord
100
AcDbLinetypeTableRecord
  2
DOT
 70
    0
  3
Dot . . . . . . . . . . . . . . . . . . . . . .
 72
   65
 73
    2
 40
6.35
 49
0
 74
    0
 49
-6.35
 74
    0
  0
LTYPE
  5
33
330
5
100
AcDbSymbolTableRecord
100
AcDbLinetypeTableRecord
  2
DOTTINY
 70
    0
  3
Dot (.15x) .....................................
 72
   65
 73
    2
 40
0.9525
 49
0
 74
    0
 49
-0.9525
 74
    0
  0
LTYPE
  5
34
330
5
100
AcDbSymbolTableRecord
100
AcDbLinetypeTableRecord
  2
DOT2
 70
    0
  3
Dot (.5x) .....................................
 72
   65
 73
    2
 40
3.175
 49
0
 74
    0
 49
-3.175
 74
    0
  0
LTYPE
  5
35
330
5
100
AcDbSymbolTableRecord
100
AcDbLinetypeTableRecord
  2
DOTX2
 70
    0
  3
Dot (2x) .  .  .  .  .  .  .  .  .  .  .  .  .
 72
   65
 73
    2
 40
12.7
 49
0
 74
    0
 49
-12.7
 74
    0
  0
LTYPE
  5
36
330
5
100
AcDbSymbolTableRecord
100
AcDbLinetypeTableRecord
  2
DASHED
 70
    0
  3
Dashed _ _ _ _ _ _ _ _ _ _ _ _ _ _ _ _ _
 72
   65
 73
    2
 40
19.05
 49
12.7
 74
    0
 49
-6.35
 74
    0
  0
LTYPE
  5
37
330
5
100
AcDbSymbolTableRecord
100
AcDbLinetypeTableRecord
  2
DASHEDTINY
 70
    0
  3
Dashed (.15x) _ _ _ _ _ _ _ _ _ _ _ _ _ _ _ _ _
 72
   65
 73
    2
 40
2.8575
 49
1.905
 74
    0
 49
-0.9525
 74
    0
  0
LTYPE
  5
38
330
5
100
AcDbSymbolTableRecord
100
AcDbLinetypeTableRecord
  2
DASHED2
 70
    0
  3
Dashed (.5x) _ _ _ _ _ _ _ _ _ _ _ _ _ _ _ _ _
 72
   65
 73
    2
 40
9.524999999999999
 49
6.35
 74
    0
 49
-3.175
 74
    0
  0
LTYPE
  5
39
330
5
100
AcDbSymbolTableRecord
100
AcDbLinetypeTableRecord
  2
DASHEDX2
 70
    0
  3
Dashed (2x) ____  ____  ____  ____  ____  ___
 72
   65
 73
    2
 40
38.09999999999999
 49
25.4
 74
    0
 49
-12.7
 74
    0
  0
LTYPE
  5
3A
330
5
100
AcDbSymbolTableRecord
100
AcDbLinetypeTableRecord
  2
DASHDOT
 70
    0
  3
Dash dot __ . __ . __ . __ . __ . __ . __ . __
 72
   65
 73
    4
 40
25.4
 49
12.7
 74
    0
 49
-6.35
 74
    0
 49
0
 74
    0
 49
-6.35
 74
    0
  0
LTYPE
  5
3B
330
5
100
AcDbSymbolTableRecord
100
AcDbLinetypeTableRecord
  2
DASHDOTTINY
 70
    0
  3
Dash dot (.15x) _._._._._._._._._._._._._._._.
 72
   65
 73
    4
 40
3.81
 49
1.905
 74
    0
 49
-0.9525
 74
    0
 49
0
 74
    0
 49
-0.9525
 74
    0
  0
LTYPE
  5
3C
330
5
100
AcDbSymbolTableRecord
100
AcDbLinetypeTableRecord
  2
DASHDOT2
 70
    0
  3
Dash dot (.5x) _._._._._._._._._._._._._._._.
 72
   65
 73
    4
 40
12.7
 49
6.35
 74
    0
 49
-3.175
 74
    0
 49
0
 74
    0
 49
-3.175
 74
    0
  0
LTYPE
  5
3D
330
5
100
AcDbSymbolTableRecord
100
AcDbLinetypeTableRecord
  2
DASHDOTX2
 70
    0
  3
Dash dot (2x) ____  .  ____  .  ____  .  ___
 72
   65
 73
    4
 40
50.8
 49
25.4
 74
    0
 49
-12.7
 74
    0
 49
0
 74
    0
 49
-12.7
 74
    0
  0
LTYPE
  5
3E
330
5
100
AcDbSymbolTableRecord
100
AcDbLinetypeTableRecord
  2
DIVIDE
 70
    0
  3
Divide ____ . . ____ . . ____ . . ____ . . ____
 72
   65
 73
    6
 40
31.75
 49
12.7
 74
    0
 49
-6.35
 74
    0
 49
0
 74
    0
 49
-6.35
 74
    0
 49
0
 74
    0
 49
-6.35
 74
    0
  0
LTYPE
  5
3F
330
5
100
AcDbSymbolTableRecord
100
AcDbLinetypeTableRecord
  2
DIVIDETINY
 70
    0
  3
Divide (.15x) __..__..__..__..__..__..__..__.._
 72
   65
 73
    6
 40
4.7625
 49
1.905
 74
    0
 49
-0.9525
 74
    0
 49
0
 74
    0
 49
-0.9525
 74
    0
 49
0
 74
    0
 49
-0.9525
 74
    0
  0
LTYPE
  5
40
330
5
100
AcDbSymbolTableRecord
100
AcDbLinetypeTableRecord
  2
DIVIDE2
 70
    0
  3
Divide (.5x) __..__..__..__..__..__..__..__.._
 72
   65
 73
    6
 40
15.875
 49
6.35
 74
    0
 49
-3.175
 74
    0
 49
0
 74
    0
 49
-3.175
 74
    0
 49
0
 74
    0
 49
-3.175
 74
    0
  0
LTYPE
  5
41
330
5
100
AcDbSymbolTableRecord
100
AcDbLinetypeTableRecord
  2
DIVIDEX2
 70
    0
  3
Divide (2x) ________  .  .  ________  .  .  _
 72
   65
 73
    6
 40
63.5
 49
25.4
 74
    0
 49
-12.7
 74
    0
 49
0
 74
    0
 49
-12.7
 74
    0
 49
0
 74
    0
 49
-12.7
 74
    0
  0
LTYPE
  5
42
330
5
100
AcDbSymbolTableRecord
100
AcDbLinetypeTableRecord
  2
BORDER
 70
    0
  3
Border __ __ . __ __ . __ __ . __ __ . __ __ .
 72
   65
 73
    6
 40
44.45
 49
12.7
 74
    0
 49
-6.35
 74
    0
 49
12.7
 74
    0
 49
-6.35
 74
    0
 49
0
 74
    0
 49
-6.35
 74
    0
  0
LTYPE
  5
43
330
5
100
AcDbSymbolTableRecord
100
AcDbLinetypeTableRecord
  2
BORDERTINY
 70
    0
  3
Border (.15x) __.__.__.__.__.__.__.__.__.__.__.
 72
   65
 73
    6
 40
6.6675
 49
1.905
 74
    0
 49
-0.9525
 74
    0
 49
1.905
 74
    0
 49
-0.9525
 74
    0
 49
0
 74
    0
 49
-0.9525
 74
    0
  0
LTYPE
  5
44
330
5
100
AcDbSymbolTableRecord
100
AcDbLinetypeTableRecord
  2
BORDER2
 70
    0
  3
Border (.5x) __.__.__.__.__.__.__.__.__.__.__.
 72
   65
 73
    6
 40
22.225
 49
6.35
 74
    0
 49
-3.175
 74
    0
 49
6.35
 74
    0
 49
-3.175
 74
    0
 49
0
 74
    0
 49
-3.175
 74
    0
  0
LTYPE
  5
45
330
5
100
AcDbSymbolTableRecord
100
AcDbLinetypeTableRecord
  2
BORDERX2
 70
    0
  3
Border (2x) ____  ____  .  ____  ____  .  ___
 72
   65
 73
    6
 40
88.89999999999999
 49
25.4
 74
    0
 49
-12.7
 74
    0
 49
25.4
 74
    0
 49
-12.7
 74
    0
 49
0
 74
    0
 49
-12.7
 74
    0
  0
LTYPE
  5
46
330
5
100
AcDbSymbolTableRecord
100
AcDbLinetypeTableRecord
  2
CENTER
 70
    0
  3
Center ____ _ ____ _ ____ _ ____ _ ____ _ ____
 72
   65
 73
    4
 40
50.8
 49
31.75
 74
    0
 49
-6.35
 74
    0
 49
6.35
 74
    0
 49
-6.35
 74
    0
  0
LTYPE
  5
47
330
5
100
AcDbSymbolTableRecord
100
AcDbLinetypeTableRecord
  2
CENTERTINY
 70
    0
  3
Center (.15x) ___ _ ___ _ ___ _ ___ _ ___ _ ___
 72
   65
 73
    4
 40
7.619999999999999
 49
4.7625
 74
    0
 49
-0.9525
 74
    0
 49
0.9525
 74
    0
 49
-0.9525
 74
    0
  0
LTYPE
  5
48
330
5
100
AcDbSymbolTableRecord
100
AcDbLinetypeTableRecord
  2
CENTER2
 70
    0
  3
Center (.5x) ___ _ ___ _ ___ _ ___ _ ___ _ ___
 72
   65
 73
    4
 40
28.575
 49
19.05
 74
    0
 49
-3.175
 74
    0
 49
3.175
 74
    0
 49
-3.175
 74
    0
  0
LTYPE
  5
49
330
5
100
AcDbSymbolTableRecord
100
AcDbLinetypeTableRecord
  2
CENTERX2
 70
    0
  3
Center (2x) ________  __  ________  __  _____
 72
   65
 73
    4
 40
101.6
 49
63.5
 74
    0
 49
-12.7
 74
    0
 49
12.7
 74
    0
 49
-12.7
 74
    0
  0
ENDTAB
  0
TABLE
  2
LAYER
  5
2
330
0
100
AcDbSymbolTable
 70
    1
  0
LAYER
  5
10
330
2
100
AcDbSymbolTableRecord
100
AcDbLayerTableRecord
  2
0
 70
    0
 62
    7
  6
CONTINUOUS
370
   50
390
F
  0
LAYER
  5
4A
330
2
100
AcDbSymbolTableRecord
100
AcDbLayerTableRecord
  2
1
 70
    0
 62
    7
  6
CONTINUOUS
370
   50
390
F
  0
LAYER
  5
4B
330
2
100
AcDbSymbolTableRecord
100
AcDbLayerTableRecord
  2
2
 70
    0
 62
    7
  6
CONTINUOUS
370
   50
390
F
  0
LAYER
  5
4C
330
2
100
AcDbSymbolTableRecord
100
AcDbLayerTableRecord
  2
Center
 70
    0
 62
    7
  6
CENTERTINY
370
   25
390
F
  0
LAYER
  5
4D
330
2
100
AcDbSymbolTableRecord
100
AcDbLayerTableRecord
  2
Construction
 70
    0
 62
    6
  6
CONTINUOUS
290
0
370
   25
390
F
  0
LAYER
  5
4E
330
2
100
AcDbSymbolTableRecord
100
AcDbLayerTableRecord
  2
Dimension
 70
    0
 62
    7
  6
CONTINUOUS
370
   25
390
F
  0
LAYER
  5
4F
330
2
100
AcDbSymbolTableRecord
100
AcDbLayerTableRecord
  2
Frame
 70
    0
 62
    7
  6
CONTINUOUS
370
   25
390
F
  0
LAYER
  5
50
330
2
100
AcDbSymbolTableRecord
100
AcDbLayerTableRecord
  2
Hatching
 70
    0
 62
    7
  6
CONTINUOUS
370
   25
390
F
  0
LAYER
  5
51
330
2
100
AcDbSymbolTableRecord
100
AcDbLayerTableRecord
  2
Hidden
 70
    0
 62
    7
  6
DASHEDTINY
370
   25
390
F
  0
LAYER
  5
52
330
2
100
AcDbSymbolTableRecord
100
AcDbLayerTableRecord
  2
Logo
 70
    0
 62
    7
  6
CONTINUOUS
370
   70
390
F
  0
LAYER
  5
53
330
2
100
AcDbSymbolTableRecord
100
AcDbLayerTableRecord
  2
Notes
 70
    0
 62
    7
  6
CONTINUOUS
370
   35
390
F
  0
LAYER
  5
54
330
2
100
AcDbSymbolTableRecord
100
AcDbLayerTableRecord
  2
Paper Bounds
 70
    0
 62
    6
  6
CONTINUOUS
370
    0
390
F
  0
LAYER
  5
55
330
2
100
AcDbSymbolTableRecord
100
AcDbLayerTableRecord
  2
Phantom
 70
    0
 62
    7
  6
DASHEDTINY
370
   25
390
F
  0
LAYER
  5
56
330
2
100
AcDbSymbolTableRecord
100
AcDbLayerTableRecord
  2
Title
 70
    0
 62
    7
  6
CONTINUOUS
370
   50
390
F
  0
LAYER
  5
57
330
2
100
AcDbSymbolTableRecord
100
AcDbLayerTableRecord
  2
Toolpath
 70
    0
 62
    5
  6
CONTINUOUS
370
   25
390
F
  0
ENDTAB
  0
TABLE
  2
STYLE
  5
3
330
0
100
AcDbSymbolTable
 70
    3
  0
STYLE
  5
58
330
2
100
AcDbSymbolTableRecord
100
AcDbTextStyleTableRecord
  2
iso
 70
    0
 40
0
 41
1
 50
0
 71
    0
 42
1
  3
iso
  4

  0
STYLE
  5
59
330
2
100
AcDbSymbolTableRecord
100
AcDbTextStyleTableRecord
  2
standard
 70
    0
 40
0
 41
1
 50
0
 71
    0
 42
1
  3
standard
  4

  0
STYLE
  5
5A
330
2
100
AcDbSymbolTableRecord
100
AcDbTextStyleTableRecord
  2
simplex
 70
    0
 40
0
 41
1
 50
0
 71
    0
 42
1
  3
simplex
  4

  0
ENDTAB
  0
TABLE
  2
VIEW
  5
6
330
0
100
AcDbSymbolTable
 70
    0
  0
ENDTAB
  0
TABLE
  2
UCS
  5
7
330
0
100
AcDbSymbolTable
 70
    0
  0
ENDTAB
  0
TABLE
  2
APPID
  5
9
330
0
100
AcDbSymbolTable
 70
    1
  0
APPID
  5
12
330
9
100
AcDbSymbolTableRecord
100
AcDbRegAppTableRecord
  2
ACAD
 70
    0
  0
APPID
  5
5B
330
9
100
AcDbSymbolTableRecord
100
AcDbRegAppTableRecord
  2
LibreCad
 70
    0
  0
ENDTAB
  0
TABLE
  2
DIMSTYLE
  5
A
330
0
100
AcDbSymbolTable
 70
    1
100
AcDbDimStyleTable
 71
    1
  0
DIMSTYLE
105
5C
330
A
100
AcDbSymbolTableRecord
100
AcDbDimStyleTableRecord
  2
Standard
 70
    0
 40
1
 41
2.5
 42
1
 43
0.38
 44
1.25
 45
0
 46
0
 47
0
 48
0
 49
1
140
2.5
141
0.09
142
0
143
25.4
144
1
145
0
146
1
147
1
148
0
 71
    0
 72
    0
 73
    1
 74
    1
 75
    0
 76
    0
 77
    0
 78
    1
 79
    0
170
    0
171
    2
172
    0
173
    0
174
    0
175
    0
176
    0
177
    0
178
    0
179
    2
271
    2
272
    4
273
    2
274
    2
275
    0
276
    0
277
    2
278
    0
279
    0
280
    0
281
    0
282
    0
283
    1
284
    0
285
    0
286
    0
288
    0
289
    3
340
standard
341

371
   -2
372
   -2
  0
ENDTAB
  0
TABLE
  2
BLOCK_RECORD
  5
1
330
0
100
AcDbSymbolTable
 70
    2
  0
BLOCK_RECORD
  5
1F
330
1
100
AcDbSymbolTableRecord
100
AcDbBlockTableRecord
  2
*Model_Space
 70
    0
280
    1
281
    0
  0
BLOCK_RECORD
  5
1E
330
1
100
AcDbSymbolTableRecord
100
AcDbBlockTableRecord
  2
*Paper_Space
 70
    0
280
    1
281
    0
  0
BLOCK_RECORD
  5
5D
330
1
100
AcDbSymbolTableRecord
100
AcDbBlockTableRecord
  2
*D14
 70
    0
280
    1
281
    0
  0
BLOCK_RECORD
  5
60
330
1
100
AcDbSymbolTableRecord
100
AcDbBlockTableRecord
  2
*D11
 70
    0
280
    1
281
    0
  0
BLOCK_RECORD
  5
63
330
1
100
AcDbSymbolTableRecord
100
AcDbBlockTableRecord
  2
*D15
 70
    0
280
    1
281
    0
  0
BLOCK_RECORD
  5
66
330
1
100
AcDbSymbolTableRecord
100
AcDbBlockTableRecord
  2
*D9
 70
    0
280
    1
281
    0
  0
BLOCK_RECORD
  5
69
330
1
100
AcDbSymbolTableRecord
100
AcDbBlockTableRecord
  2
*D12
 70
    0
280
    1
281
    0
  0
BLOCK_RECORD
  5
6C
330
1
100
AcDbSymbolTableRecord
100
AcDbBlockTableRecord
  2
*D13
 70
    0
280
    1
281
    0
  0
BLOCK_RECORD
  5
6F
330
1
100
AcDbSymbolTableRecord
100
AcDbBlockTableRecord
  2
*D2
 70
    0
280
    1
281
    0
  0
BLOCK_RECORD
  5
72
330
1
100
AcDbSymbolTableRecord
100
AcDbBlockTableRecord
  2
*D6
 70
    0
280
    1
281
    0
  0
BLOCK_RECORD
  5
75
330
1
100
AcDbSymbolTableRecord
100
AcDbBlockTableRecord
  2
*D7
 70
    0
280
    1
281
    0
  0
BLOCK_RECORD
  5
78
330
1
100
AcDbSymbolTableRecord
100
AcDbBlockTableRecord
  2
*D8
 70
    0
280
    1
281
    0
  0
BLOCK_RECORD
  5
7B
330
1
100
AcDbSymbolTableRecord
100
AcDbBlockTableRecord
  2
*D3
 70
    0
280
    1
281
    0
  0
BLOCK_RECORD
  5
7E
330
1
100
AcDbSymbolTableRecord
100
AcDbBlockTableRecord
  2
*D1
 70
    0
280
    1
281
    0
  0
BLOCK_RECORD
  5
81
330
1
100
AcDbSymbolTableRecord
100
AcDbBlockTableRecord
  2
*D4
 70
    0
280
    1
281
    0
  0
BLOCK_RECORD
  5
84
330
1
100
AcDbSymbolTableRecord
100
AcDbBlockTableRecord
  2
*D5
 70
    0
280
    1
281
    0
  0
BLOCK_RECORD
  5
87
330
1
100
AcDbSymbolTableRecord
100
AcDbBlockTableRecord
  2
*D10
 70
    0
280
    1
281
    0
  0
BLOCK_RECORD
  5
8A
330
1
100
AcDbSymbolTableRecord
100
AcDbBlockTableRecord
  2
Page Template
 70
    0
280
    1
281
    0
  0
BLOCK_RECORD
  5
8D
330
1
100
AcDbSymbolTableRecord
100
AcDbBlockTableRecord
  2
paragon_double_binder_miter_cnc
 70
    0
280
    1
281
    0
  0
ENDTAB
  0
ENDSEC
  0
SECTION
  2
BLOCKS
  0
BLOCK
  5
20
330
1F
100
AcDbEntity
  8
0
100
AcDbBlockBegin
  2
*Model_Space
 70
    0
 10
0
 20
0
 30
0
  3
*Model_Space
  1

  0
ENDBLK
  5
21
330
1F
100
AcDbEntity
  8
0
100
AcDbBlockEnd
  0
BLOCK
  5
1C
330
1B
100
AcDbEntity
  8
0
100
AcDbBlockBegin
  2
*Paper_Space
 70
    0
 10
0
 20
0
 30
0
  3
*Paper_Space
  1

  0
ENDBLK
  5
1D
330
1F
100
AcDbEntity
  8
0
100
AcDbBlockEnd
  0
BLOCK
  5
5E
330
5D
100
AcDbEntity
  8
0
100
AcDbBlockBegin
  2
*D14
 70
    1
 10
0
 20
0
  3
*D14
  1

  0
LINE
  5
90
100
AcDbEntity
  8
Dimension
  6
CONTINUOUS
 62
    7
370
    0
100
AcDbLine
 10
31.4014721224171
 20
106.614715564881
 11
31.4014721224171
 21
101.9442512572597
  0
SOLID
  5
91
100
AcDbEntity
  8
Dimension
  6
CONTINUOUS
 62
    7
370
    0
100
AcDbTrace
 10
31.4014721224171
 20
106.614715564881
 30
0
 11
31.81775678018995
 21
104.114715564881
 31
0
 12
30.98518746464426
 22
104.114715564881
 32
0
 13
30.98518746464426
 23
104.114715564881
 33
0
  0
ENDBLK
  5
5F
330
5D
100
AcDbEntity
  8
0
100
AcDbBlockEnd
  0
BLOCK
  5
61
330
60
100
AcDbEntity
  8
0
100
AcDbBlockBegin
  2
*D11
 70
    1
 10
0
 20
0
  3
*D11
  1

  0
SOLID
  5
92
100
AcDbEntity
  8
Dimension
  6
ByBlock
 62
    0
370
   -2
100
AcDbTrace
 10
76.29551399911196
 20
99.79665130538508
 30
0
 11
78.79551399911196
 21
100.2129359631579
 31
0
 12
78.79551399911196
 22
99.38036664761225
 32
0
 13
78.79551399911196
 23
99.38036664761225
 33
0
  0
SOLID
  5
93
100
AcDbEntity
  8
Dimension
  6
ByBlock
 62
    0
370
   -2
100
AcDbTrace
 10
64.70738776183981
 20
99.79665130538508
 30
0
 11
62.20738776183981
 21
99.38036664761225
 31
0
 12
62.20738776183981
 22
100.2129359631579
 32
0
 13
62.20738776183981
 23
100.2129359631579
 33
0
  0
LINE
  5
94
100
AcDbEntity
  8
Dimension
  6
ByLayer
 62
  256
370
   -1
100
AcDbLine
 10
81.29551399911196
 20
99.79665130538508
 11
76.29551399911196
 21
99.79665130538508
  0
LINE
  5
95
100
AcDbEntity
  8
Dimension
  6
ByLayer
 62
  256
370
   -1
100
AcDbLine
 10
59.70738776183981
 20
99.79665130538508
 11
64.70738776183981
 21
99.79665130538508
  0
MTEXT
  5
96
100
AcDbEntity
  8
Dimension
  6
CONTINUOUS
 62
    0
370
   -2
100
AcDbMText
 10
85.44493812543202
 20
99.79665130538508
 30
0
 40
2.5
 41
6.666666666666822
 71
    5
 72
    1
  1
11.59
  7
standard
210
0
220
0
230
1
 50
0
 73
    2
 44
1
  0
LINE
  5
97
100
AcDbEntity
  8
Dimension
  6
ByBlock
 62
    0
370
   -2
100
AcDbLine
 10
76.29551399911196
 20
105.6049142914668
 11
76.29551399911196
 21
98.54665130538508
  0
LINE
  5
98
100
AcDbEntity
  8
Dimension
  6
ByBlock
 62
    0
370
   -2
100
AcDbLine
 10
64.70738776183981
 20
110.5545465458263
 11
64.70738776183981
 21
98.54665130538508
  0
ENDBLK
  5
62
330
60
100
AcDbEntity
  8
0
100
AcDbBlockEnd
  0
BLOCK
  5
64
330
63
100
AcDbEntity
  8
0
100
AcDbBlockBegin
  2
*D15
 70
    1
 10
0
 20
0
  3
*D15
  1

  0
SOLID
  5
99
100
AcDbEntity
  8
Dimension
  6
ByBlock
 62
    0
370
   -2
100
AcDbTrace
 10
40.92852316475067
 20
110.5175465458251
 30
0
 11
40.51223850697783
 21
113.0175465458251
 31
0
 12
41.34480782252351
 22
113.0175465458251
 32
0
 13
41.34480782252351
 23
113.0175465458251
 33
0
  0
SOLID
  5
9A
100
AcDbEntity
  8
Dimension
  6
ByBlock
 62
    0
370
   -2
100
AcDbTrace
 10
40.92852316475067
 20
123.8545465458263
 30
0
 11
41.34480782252351
 21
121.3545465458263
 31
0
 12
40.51223850697783
 22
121.3545465458263
 32
0
 13
40.51223850697783
 23
121.3545465458263
 33
0
  0
LINE
  5
9B
100
AcDbEntity
  8
Dimension
  6
ByLayer
 62
  256
370
   -1
100
AcDbLine
 10
40.92852316475067
 20
110.5175465458251
 11
40.92852316475067
 21
114.9360465458257
  0
LINE
  5
9C
100
AcDbEntity
  8
Dimension
  6
ByLayer
 62
  256
370
   -1
100
AcDbLine
 10
40.92852316475067
 20
119.4360465458257
 11
40.92852316475067
 21
123.8545465458263
  0
MTEXT
  5
9D
100
AcDbEntity
  8
Dimension
  6
CONTINUOUS
 62
    0
370
   -2
100
AcDbMText
 10
40.92852316475067
 20
117.1860465458257
 30
0
 40
2.5
 41
13.81944444444491
 71
    5
 72
    1
  1
5X 13.34
  7
standard
210
0
220
0
230
1
 50
0
 73
    2
 44
1
  0
LINE
  5
9E
100
AcDbEntity
  8
Dimension
  6
ByBlock
 62
    0
370
   -2
100
AcDbLine
 10
72.2073877618398
 20
110.5175465458251
 11
39.67852316475067
 21
110.5175465458251
  0
LINE
  5
9F
100
AcDbEntity
  8
Dimension
  6
ByBlock
 62
    0
370
   -2
100
AcDbLine
 10
41.84333881433523
 20
123.8545465458263
 11
39.67852316475067
 21
123.8545465458263
  0
ENDBLK
  5
65
330
63
100
AcDbEntity
  8
0
100
AcDbBlockEnd
  0
BLOCK
  5
67
330
66
100
AcDbEntity
  8
0
100
AcDbBlockBegin
  2
*D9
 70
    1
 10
0
 20
0
  3
*D9
  1

  0
SOLID
  5
A0
100
AcDbEntity
  8
Dimension
  6
ByBlock
 62
    0
370
   -2
100
AcDbTrace
 10
114.8934461149696
 20
101.7748096233481
 30
0
 11
117.3934461149696
 21
102.1910942811209
 31
0
 12
117.3934461149696
 22
101.3585249655753
 32
0
 13
117.3934461149696
 23
101.3585249655753
 33
0
  0
SOLID
  5
A1
100
AcDbEntity
  8
Dimension
  6
ByBlock
 62
    0
370
   -2
100
AcDbTrace
 10
101.7073877618398
 20
101.7748096233481
 30
0
 11
99.20738776183981
 21
101.3585249655753
 31
0
 12
99.20738776183981
 22
102.1910942811209
 32
0
 13
99.20738776183981
 23
102.1910942811209
 33
0
  0
LINE
  5
A2
100
AcDbEntity
  8
Dimension
  6
ByLayer
 62
  256
370
   -1
100
AcDbLine
 10
119.8934461149696
 20
101.7748096233481
 11
114.8934461149696
 21
101.7748096233481
  0
LINE
  5
A3
100
AcDbEntity
  8
Dimension
  6
ByLayer
 62
  256
370
   -1
100
AcDbLine
 10
96.70738776183981
 20
101.7748096233481
 11
101.7073877618398
 21
101.7748096233481
  0
MTEXT
  5
A4
100
AcDbEntity
  8
Dimension
  6
CONTINUOUS
 62
    0
370
   -2
100
AcDbMText
 10
123.9357815742321
 20
101.7748096233481
 30
0
 40
2.5
 41
6.666666666666822
 71
    5
 72
    1
  1
13.19
  7
standard
210
0
220
0
230
1
 50
0
 73
    2
 44
1
  0
LINE
  5
A5
100
AcDbEntity
  8
Dimension
  6
ByBlock
 62
    0
370
   -2
100
AcDbLine
 10
114.8934461149696
 20
105.6044073350514
 11
114.8934461149696
 21
100.5248096233481
  0
LINE
  5
A6
100
AcDbEntity
  8
Dimension
  6
ByBlock
 62
    0
370
   -2
100
AcDbLine
 10
101.7073877618398
 20
110.5545465458263
 11
101.7073877618398
 21
100.5248096233481
  0
ENDBLK
  5
68
330
66
100
AcDbEntity
  8
0
100
AcDbBlockEnd
  0
BLOCK
  5
6A
330
69
100
AcDbEntity
  8
0
100
AcDbBlockBegin
  2
*D12
 70
    1
 10
0
 20
0
  3
*D12
  1

  0
SOLID
  5
A7
100
AcDbEntity
  8
Dimension
  6
ByBlock
 62
    0
370
   -2
100
AcDbTrace
 10
56.86524549591286
 20
111.5545465458263
 30
0
 11
57.2815301536857
 21
109.0545465458263
 31
0
 12
56.44896083814002
 22
109.0545465458263
 32
0
 13
56.44896083814002
 23
109.0545465458263
 33
0
  0
SOLID
  5
A8
100
AcDbEntity
  8
Dimension
  6
ByBlock
 62
    0
370
   -2
100
AcDbTrace
 10
56.86524549591286
 20
118.4545465458262
 30
0
 11
56.44896083814002
 21
120.9545465458262
 31
0
 12
57.2815301536857
 22
120.9545465458262
 32
0
 13
57.2815301536857
 23
120.9545465458262
 33
0
  0
LINE
  5
A9
100
AcDbEntity
  8
Dimension
  6
ByLayer
 62
  256
370
   -1
100
AcDbLine
 10
56.86524549591286
 20
106.5545465458263
 11
56.86524549591286
 21
111.5545465458263
  0
LINE
  5
AA
100
AcDbEntity
  8
Dimension
  6
ByLayer
 62
  256
370
   -1
100
AcDbLine
 10
56.86524549591286
 20
123.4545465458262
 11
56.86524549591286
 21
118.4545465458262
  0
MTEXT
  5
AB
100
AcDbEntity
  8
Dimension
  6
CONTINUOUS
 62
    0
370
   -2
100
AcDbMText
 10
56.86524549591286
 20
115.0045465458262
 30
0
 40
2.5
 41
12.15277777777809
 71
    5
 72
    1
  1
5X 6.90
  7
standard
210
0
220
0
230
1
 50
0
 73
    2
 44
1
  0
LINE
  5
AC
100
AcDbEntity
  8
Dimension
  6
ByBlock
 62
    0
370
   -2
100
AcDbLine
 10
63.70738776183981
 20
111.5545465458263
 11
55.61524549591286
 21
111.5545465458263
  0
LINE
  5
AD
100
AcDbEntity
  8
Dimension
  6
ByBlock
 62
    0
370
   -2
100
AcDbLine
 10
72.20738776183981
 20
118.4545465458262
 11
55.61524549591286
 21
118.4545465458262
  0
ENDBLK
  5
6B
330
69
100
AcDbEntity
  8
0
100
AcDbBlockEnd
  0
BLOCK
  5
6D
330
6C
100
AcDbEntity
  8
0
100
AcDbBlockBegin
  2
*D13
 70
    1
 10
0
 20
0
  3
*D13
  1

  0
LINE
  5
AE
100
AcDbEntity
  8
Dimension
  6
CONTINUOUS
 62
    7
370
    0
100
AcDbLine
 10
31.4014721224171
 20
123.8545465458263
 11
31.4014721224171
 21
128.5250108534476
  0
SOLID
  5
AF
100
AcDbEntity
  8
Dimension
  6
CONTINUOUS
 62
    7
370
    0
100
AcDbTrace
 10
31.4014721224171
 20
123.8545465458263
 30
0
 11
30.98518746464426
 21
126.3545465458263
 31
0
 12
31.81775678018995
 22
126.3545465458263
 32
0
 13
31.81775678018995
 23
126.3545465458263
 33
0
  0
ENDBLK
  5
6E
330
6C
100
AcDbEntity
  8
0
100
AcDbBlockEnd
  0
BLOCK
  5
70
330
6F
100
AcDbEntity
  8
0
100
AcDbBlockBegin
  2
*D2
 70
    1
 10
0
 20
0
  3
*D2
  1

  0
SOLID
  5
B0
100
AcDbEntity
  8
Dimension
  6
ByBlock
 62
    0
370
   -2
100
AcDbTrace
 10
105.52132940871
 20
96.12003273080279
 30
0
 11
103.02132940871
 21
95.70374807302996
 31
0
 12
103.02132940871
 22
96.53631738857563
 32
0
 13
103.02132940871
 23
96.53631738857563
 33
0
  0
SOLID
  5
B1
100
AcDbEntity
  8
Dimension
  6
ByBlock
 62
    0
370
   -2
100
AcDbTrace
 10
114.8934461149696
 20
96.12003273080279
 30
0
 11
117.3934461149696
 21
96.53631738857563
 31
0
 12
117.3934461149696
 22
95.70374807302996
 32
0
 13
117.3934461149696
 23
95.70374807302996
 33
0
  0
LINE
  5
B2
100
AcDbEntity
  8
Dimension
  6
ByLayer
 62
  256
370
   -1
100
AcDbLine
 10
100.52132940871
 20
96.12003273080279
 11
105.52132940871
 21
96.12003273080279
  0
LINE
  5
B3
100
AcDbEntity
  8
Dimension
  6
ByLayer
 62
  256
370
   -1
100
AcDbLine
 10
119.8934461149696
 20
96.12003273080279
 11
114.8934461149696
 21
96.12003273080279
  0
MTEXT
  5
B4
100
AcDbEntity
  8
Dimension
  6
CONTINUOUS
 62
    0
370
   -2
100
AcDbMText
 10
110.2073877618398
 20
96.12003273080279
 30
0
 40
2.5
 41
5.833333333333645
 71
    5
 72
    1
  1
9.37
  7
standard
210
0
220
0
230
1
 50
0
 73
    2
 44
1
  0
LINE
  5
B5
100
AcDbEntity
  8
Dimension
  6
ByBlock
 62
    0
370
   -2
100
AcDbLine
 10
105.52132940871
 20
105.6044073350514
 11
105.52132940871
 21
94.87003273080279
  0
LINE
  5
B6
100
AcDbEntity
  8
Dimension
  6
ByBlock
 62
    0
370
   -2
100
AcDbLine
 10
114.8934461149696
 20
105.6044073350514
 11
114.8934461149696
 21
94.87003273080279
  0
ENDBLK
  5
71
330
6F
100
AcDbEntity
  8
0
100
AcDbBlockEnd
  0
BLOCK
  5
73
330
72
100
AcDbEntity
  8
0
100
AcDbBlockBegin
  2
*D6
 70
    1
 10
0
 20
0
  3
*D6
  1

  0
SOLID
  5
B7
100
AcDbEntity
  8
Dimension
  6
ByBlock
 62
    0
370
   -2
100
AcDbTrace
 10
191.9033052976091
 20
101.4098120529824
 30
0
 11
194.4033052976091
 21
101.8260967107552
 31
0
 12
194.4033052976091
 22
100.9935273952096
 32
0
 13
194.4033052976091
 23
100.9935273952096
 33
0
  0
SOLID
  5
B8
100
AcDbEntity
  8
Dimension
  6
ByBlock
 62
    0
370
   -2
100
AcDbTrace
 10
175.7073877618398
 20
101.4098120529824
 30
0
 11
173.2073877618398
 21
100.9935273952096
 31
0
 12
173.2073877618398
 22
101.8260967107552
 32
0
 13
173.2073877618398
 23
101.8260967107552
 33
0
  0
LINE
  5
B9
100
AcDbEntity
  8
Dimension
  6
ByLayer
 62
  256
370
   -1
100
AcDbLine
 10
196.9033052976091
 20
101.4098120529824
 11
191.9033052976091
 21
101.4098120529824
  0
LINE
  5
BA
100
AcDbEntity
  8
Dimension
  6
ByLayer
 62
  256
370
   -1
100
AcDbLine
 10
170.7073877618398
 20
101.4098120529824
 11
175.7073877618398
 21
101.4098120529824
  0
MTEXT
  5
BB
100
AcDbEntity
  8
Dimension
  6
CONTINUOUS
 62
    0
370
   -2
100
AcDbMText
 10
183.8053465297245
 20
101.4098120529824
 30
0
 40
2.5
 41
7.222222222222378
 71
    5
 72
    1
  1
16.20
  7
standard
210
0
220
0
230
1
 50
0
 73
    2
 44
1
  0
LINE
  5
BC
100
AcDbEntity
  8
Dimension
  6
ByBlock
 62
    0
370
   -2
100
AcDbLine
 10
191.9033052976091
 20
105.6038970589925
 11
191.9033052976091
 21
100.1598120529824
  0
LINE
  5
BD
100
AcDbEntity
  8
Dimension
  6
ByBlock
 62
    0
370
   -2
100
AcDbLine
 10
175.7073877618398
 20
110.5545465458263
 11
175.7073877618398
 21
100.1598120529824
  0
ENDBLK
  5
74
330
72
100
AcDbEntity
  8
0
100
AcDbBlockEnd
  0
BLOCK
  5
76
330
75
100
AcDbEntity
  8
0
100
AcDbBlockBegin
  2
*D7
 70
    1
 10
0
 20
0
  3
*D7
  1

  0
SOLID
  5
BE
100
AcDbEntity
  8
Dimension
  6
ByBlock
 62
    0
370
   -2
100
AcDbTrace
 10
232.222844137646
 20
101.7748096233481
 30
0
 11
229.722844137646
 21
101.3585249655753
 31
0
 12
229.722844137646
 22
102.1910942811209
 32
0
 13
229.722844137646
 23
102.1910942811209
 33
0
  0
SOLID
  5
BF
100
AcDbEntity
  8
Dimension
  6
ByBlock
 62
    0
370
   -2
100
AcDbTrace
 10
212.7073877618398
 20
101.7748096233481
 30
0
 11
215.2073877618398
 21
102.1910942811209
 31
0
 12
215.2073877618398
 22
101.3585249655753
 32
0
 13
215.2073877618398
 23
101.3585249655753
 33
0
  0
LINE
  5
C0
100
AcDbEntity
  8
Dimension
  6
ByLayer
 62
  256
370
   -1
100
AcDbLine
 10
232.222844137646
 20
101.7748096233481
 11
227.0762270608541
 21
101.7748096233481
  0
LINE
  5
C1
100
AcDbEntity
  8
Dimension
  6
ByLayer
 62
  256
370
   -1
100
AcDbLine
 10
217.8540048386317
 20
101.7748096233481
 11
212.7073877618398
 21
101.7748096233481
  0
MTEXT
  5
C2
100
AcDbEntity
  8
Dimension
  6
CONTINUOUS
 62
    0
370
   -2
100
AcDbMText
 10
222.4651159497429
 20
101.7748096233481
 30
0
 40
2.5
 41
7.222222222222378
 71
    5
 72
    1
  1
19.52
  7
standard
210
0
220
0
230
1
 50
0
 73
    2
 44
1
  0
LINE
  5
C3
100
AcDbEntity
  8
Dimension
  6
ByBlock
 62
    0
370
   -2
100
AcDbLine
 10
232.222844137646
 20
105.6044036329955
 11
232.222844137646
 21
100.5248096233481
  0
LINE
  5
C4
100
AcDbEntity
  8
Dimension
  6
ByBlock
 62
    0
370
   -2
100
AcDbLine
 10
212.7073877618398
 20
110.5545465458263
 11
212.7073877618398
 21
100.5248096233481
  0
ENDBLK
  5
77
330
75
100
AcDbEntity
  8
0
100
AcDbBlockEnd
  0
BLOCK
  5
79
330
78
100
AcDbEntity
  8
0
100
AcDbBlockBegin
  2
*D8
 70
    1
 10
0
 20
0
  3
*D8
  1

  0
SOLID
  5
C5
100
AcDbEntity
  8
Dimension
  6
ByBlock
 62
    0
370
   -2
100
AcDbTrace
 10
153.0709857541061
 20
101.2666470086507
 30
0
 11
155.5709857541061
 21
101.6829316664235
 31
0
 12
155.5709857541061
 22
100.8503623508779
 32
0
 13
155.5709857541061
 23
100.8503623508779
 33
0
  0
SOLID
  5
C6
100
AcDbEntity
  8
Dimension
  6
ByBlock
 62
    0
370
   -2
100
AcDbTrace
 10
138.7073877618398
 20
101.2666470086507
 30
0
 11
136.2073877618398
 21
100.8503623508779
 31
0
 12
136.2073877618398
 22
101.6829316664235
 32
0
 13
136.2073877618398
 23
101.6829316664235
 33
0
  0
LINE
  5
C7
100
AcDbEntity
  8
Dimension
  6
ByLayer
 62
  256
370
   -1
100
AcDbLine
 10
158.0709857541061
 20
101.2666470086507
 11
153.0709857541061
 21
101.2666470086507
  0
LINE
  5
C8
100
AcDbEntity
  8
Dimension
  6
ByLayer
 62
  256
370
   -1
100
AcDbLine
 10
133.7073877618398
 20
101.2666470086507
 11
138.7073877618398
 21
101.2666470086507
  0
MTEXT
  5
C9
100
AcDbEntity
  8
Dimension
  6
CONTINUOUS
 62
    0
370
   -2
100
AcDbMText
 10
145.889186757973
 20
101.2666470086507
 30
0
 40
2.5
 41
7.500000000000309
 71
    5
 72
    1
  1
14.36
  7
standard
210
0
220
0
230
1
 50
0
 73
    2
 44
1
  0
LINE
  5
CA
100
AcDbEntity
  8
Dimension
  6
ByBlock
 62
    0
370
   -2
100
AcDbLine
 10
153.0709857541061
 20
105.6049054822757
 11
153.0709857541061
 21
100.0166470086507
  0
LINE
  5
CB
100
AcDbEntity
  8
Dimension
  6
ByBlock
 62
    0
370
   -2
100
AcDbLine
 10
138.7073877618398
 20
110.5545465458263
 11
138.7073877618398
 21
100.0166470086507
  0
ENDBLK
  5
7A
330
78
100
AcDbEntity
  8
0
100
AcDbBlockEnd
  0
BLOCK
  5
7C
330
7B
100
AcDbEntity
  8
0
100
AcDbBlockBegin
  2
*D3
 70
    1
 10
0
 20
0
  3
*D3
  1

  0
SOLID
  5
CC
100
AcDbEntity
  8
Dimension
  6
ByBlock
 62
    0
370
   -2
100
AcDbTrace
 10
141.3437897695735
 20
96.04098318147459
 30
0
 11
138.8437897695735
 21
95.62469852370175
 31
0
 12
138.8437897695735
 22
96.45726783924742
 32
0
 13
138.8437897695735
 23
96.45726783924742
 33
0
  0
SOLID
  5
CD
100
AcDbEntity
  8
Dimension
  6
ByBlock
 62
    0
370
   -2
100
AcDbTrace
 10
153.0709857541061
 20
96.04098318147459
 30
0
 11
155.5709857541061
 21
96.45726783924742
 31
0
 12
155.5709857541061
 22
95.62469852370175
 32
0
 13
155.5709857541061
 23
95.62469852370175
 33
0
  0
LINE
  5
CE
100
AcDbEntity
  8
Dimension
  6
ByLayer
 62
  256
370
   -1
100
AcDbLine
 10
136.3437897695735
 20
96.04098318147459
 11
141.3437897695735
 21
96.04098318147459
  0
LINE
  5
CF
100
AcDbEntity
  8
Dimension
  6
ByLayer
 62
  256
370
   -1
100
AcDbLine
 10
158.0709857541061
 20
96.04098318147459
 11
153.0709857541061
 21
96.04098318147459
  0
MTEXT
  5
D0
100
AcDbEntity
  8
Dimension
  6
CONTINUOUS
 62
    0
370
   -2
100
AcDbMText
 10
147.2073877618398
 20
96.04098318147459
 30
0
 40
2.5
 41
6.666666666666822
 71
    5
 72
    1
  1
11.73
  7
standard
210
0
220
0
230
1
 50
0
 73
    2
 44
1
  0
LINE
  5
D1
100
AcDbEntity
  8
Dimension
  6
ByBlock
 62
    0
370
   -2
100
AcDbLine
 10
141.3437897695735
 20
105.6049054822757
 11
141.3437897695735
 21
94.79098318147459
  0
LINE
  5
D2
100
AcDbEntity
  8
Dimension
  6
ByBlock
 62
    0
370
   -2
100
AcDbLine
 10
153.0709857541061
 20
105.6049054822757
 11
153.0709857541061
 21
94.79098318147459
  0
ENDBLK
  5
7D
330
7B
100
AcDbEntity
  8
0
100
AcDbBlockEnd
  0
BLOCK
  5
7F
330
7E
100
AcDbEntity
  8
0
100
AcDbBlockBegin
  2
*D1
 70
    1
 10
0
 20
0
  3
*D1
  1

  0
SOLID
  5
D3
100
AcDbEntity
  8
Dimension
  6
ByBlock
 62
    0
370
   -2
100
AcDbTrace
 10
70.11926152456766
 20
96.12003273080279
 30
0
 11
67.61926152456766
 21
95.70374807302996
 31
0
 12
67.61926152456766
 22
96.53631738857563
 32
0
 13
67.61926152456766
 23
96.53631738857563
 33
0
  0
SOLID
  5
D4
100
AcDbEntity
  8
Dimension
  6
ByBlock
 62
    0
370
   -2
100
AcDbTrace
 10
76.29551399911196
 20
96.12003273080279
 30
0
 11
78.79551399911196
 21
96.53631738857563
 31
0
 12
78.79551399911196
 22
95.70374807302996
 32
0
 13
78.79551399911196
 23
95.70374807302996
 33
0
  0
LINE
  5
D5
100
AcDbEntity
  8
Dimension
  6
ByLayer
 62
  256
370
   -1
100
AcDbLine
 10
65.11926152456766
 20
96.12003273080279
 11
70.11926152456766
 21
96.12003273080279
  0
LINE
  5
D6
100
AcDbEntity
  8
Dimension
  6
ByLayer
 62
  256
370
   -1
100
AcDbLine
 10
81.29551399911196
 20
96.12003273080279
 11
76.29551399911196
 21
96.12003273080279
  0
MTEXT
  5
D7
100
AcDbEntity
  8
Dimension
  6
CONTINUOUS
 62
    0
370
   -2
100
AcDbMText
 10
84.93440288800093
 20
96.12003273080279
 30
0
 40
2.5
 41
5.277777777777933
 71
    5
 72
    1
  1
6.18
  7
standard
210
0
220
0
230
1
 50
0
 73
    2
 44
1
  0
LINE
  5
D8
100
AcDbEntity
  8
Dimension
  6
ByBlock
 62
    0
370
   -2
100
AcDbLine
 10
70.11926152456766
 20
105.6049142914668
 11
70.11926152456766
 21
94.87003273080279
  0
LINE
  5
D9
100
AcDbEntity
  8
Dimension
  6
ByBlock
 62
    0
370
   -2
100
AcDbLine
 10
76.29551399911196
 20
105.6049142914668
 11
76.29551399911196
 21
94.87003273080279
  0
ENDBLK
  5
80
330
7E
100
AcDbEntity
  8
0
100
AcDbBlockEnd
  0
BLOCK
  5
82
330
81
100
AcDbEntity
  8
0
100
AcDbBlockBegin
  2
*D4
 70
    1
 10
0
 20
0
  3
*D4
  1

  0
SOLID
  5
DA
100
AcDbEntity
  8
Dimension
  6
ByBlock
 62
    0
370
   -2
100
AcDbTrace
 10
176.5114800214817
 20
96.12003273080279
 30
0
 11
174.0114800214817
 21
95.70374807302996
 31
0
 12
174.0114800214817
 22
96.53631738857563
 32
0
 13
174.0114800214817
 23
96.53631738857563
 33
0
  0
SOLID
  5
DB
100
AcDbEntity
  8
Dimension
  6
ByBlock
 62
    0
370
   -2
100
AcDbTrace
 10
191.9033052976091
 20
96.12003273080279
 30
0
 11
194.4033052976091
 21
96.53631738857563
 31
0
 12
194.4033052976091
 22
95.70374807302996
 32
0
 13
194.4033052976091
 23
95.70374807302996
 33
0
  0
LINE
  5
DC
100
AcDbEntity
  8
Dimension
  6
ByLayer
 62
  256
370
   -1
100
AcDbLine
 10
171.5114800214817
 20
96.12003273080279
 11
176.5114800214817
 21
96.12003273080279
  0
LINE
  5
DD
100
AcDbEntity
  8
Dimension
  6
ByLayer
 62
  256
370
   -1
100
AcDbLine
 10
196.9033052976091
 20
96.12003273080279
 11
191.9033052976091
 21
96.12003273080279
  0
MTEXT
  5
DE
100
AcDbEntity
  8
Dimension
  6
CONTINUOUS
 62
    0
370
   -2
100
AcDbMText
 10
184.2073926595454
 20
96.12003273080279
 30
0
 40
2.5
 41
7.222222222222532
 71
    5
 72
    1
  1
15.39
  7
standard
210
0
220
0
230
1
 50
0
 73
    2
 44
1
  0
LINE
  5
DF
100
AcDbEntity
  8
Dimension
  6
ByBlock
 62
    0
370
   -2
100
AcDbLine
 10
176.5114800214817
 20
105.603910490894
 11
176.5114800214817
 21
94.87003273080279
  0
LINE
  5
E0
100
AcDbEntity
  8
Dimension
  6
ByBlock
 62
    0
370
   -2
100
AcDbLine
 10
191.9033052976091
 20
105.6038970589925
 11
191.9033052976091
 21
94.87003273080279
  0
ENDBLK
  5
83
330
81
100
AcDbEntity
  8
0
100
AcDbBlockEnd
  0
BLOCK
  5
85
330
84
100
AcDbEntity
  8
0
100
AcDbBlockBegin
  2
*D5
 70
    1
 10
0
 20
0
  3
*D5
  1

  0
SOLID
  5
E1
100
AcDbEntity
  8
Dimension
  6
ByBlock
 62
    0
370
   -2
100
AcDbTrace
 10
210.1919313860336
 20
96.12003273080279
 30
0
 11
212.6919313860336
 21
96.53631738857563
 31
0
 12
212.6919313860336
 22
95.70374807302996
 32
0
 13
212.6919313860336
 23
95.70374807302996
 33
0
  0
SOLID
  5
E2
100
AcDbEntity
  8
Dimension
  6
ByBlock
 62
    0
370
   -2
100
AcDbTrace
 10
232.222844137646
 20
96.12003273080279
 30
0
 11
229.722844137646
 21
95.70374807302996
 31
0
 12
229.722844137646
 22
96.53631738857563
 32
0
 13
229.722844137646
 23
96.53631738857563
 33
0
  0
LINE
  5
E3
100
AcDbEntity
  8
Dimension
  6
ByLayer
 62
  256
370
   -1
100
AcDbLine
 10
210.1919313860336
 20
96.12003273080279
 11
216.3184988729508
 21
96.12003273080279
  0
LINE
  5
E4
100
AcDbEntity
  8
Dimension
  6
ByLayer
 62
  256
370
   -1
100
AcDbLine
 10
226.0962766507288
 20
96.12003273080279
 11
232.222844137646
 21
96.12003273080279
  0
MTEXT
  5
E5
100
AcDbEntity
  8
Dimension
  6
CONTINUOUS
 62
    0
370
   -2
100
AcDbMText
 10
221.2073877618398
 20
96.12003273080279
 30
0
 40
2.5
 41
7.777777777777933
 71
    5
 72
    1
  1
22.03
  7
standard
210
0
220
0
230
1
 50
0
 73
    2
 44
1
  0
LINE
  5
E6
100
AcDbEntity
  8
Dimension
  6
ByBlock
 62
    0
370
   -2
100
AcDbLine
 10
210.1919313860336
 20
105.6044036329955
 11
210.1919313860336
 21
94.87003273080279
  0
LINE
  5
E7
100
AcDbEntity
  8
Dimension
  6
ByBlock
 62
    0
370
   -2
100
AcDbLine
 10
232.222844137646
 20
105.6044036329955
 11
232.222844137646
 21
94.87003273080279
  0
ENDBLK
  5
86
330
84
100
AcDbEntity
  8
0
100
AcDbBlockEnd
  0
BLOCK
  5
88
330
87
100
AcDbEntity
  8
0
100
AcDbBlockBegin
  2
*D10
 70
    1
 10
0
 20
0
  3
*D10
  1

  0
SOLID
  5
E8
100
AcDbEntity
  8
Dimension
  6
ByBlock
 62
    0
370
   -2
100
AcDbTrace
 10
73.2073877618398
 20
103.3839912365566
 30
0
 11
75.7073877618398
 21
103.8002758943294
 31
0
 12
75.7073877618398
 22
102.9677065787838
 32
0
 13
75.7073877618398
 23
102.9677065787838
 33
0
  0
SOLID
  5
E9
100
AcDbEntity
  8
Dimension
  6
ByBlock
 62
    0
370
   -2
100
AcDbTrace
 10
64.70738776183981
 20
103.3839912365566
 30
0
 11
62.20738776183981
 21
102.9677065787838
 31
0
 12
62.20738776183981
 22
103.8002758943294
 32
0
 13
62.20738776183981
 23
103.8002758943294
 33
0
  0
LINE
  5
EA
100
AcDbEntity
  8
Dimension
  6
ByLayer
 62
  256
370
   -1
100
AcDbLine
 10
78.2073877618398
 20
103.3839912365566
 11
73.2073877618398
 21
103.3839912365566
  0
LINE
  5
EB
100
AcDbEntity
  8
Dimension
  6
ByLayer
 62
  256
370
   -1
100
AcDbLine
 10
59.70738776183981
 20
103.3839912365566
 11
64.70738776183981
 21
103.3839912365566
  0
MTEXT
  5
EC
100
AcDbEntity
  8
Dimension
  6
CONTINUOUS
 62
    0
370
   -2
100
AcDbMText
 10
82.27947697968158
 20
103.3839912365566
 30
0
 40
2.5
 41
5.833333333333489
 71
    5
 72
    1
  1
8.50
  7
standard
210
0
220
0
230
1
 50
0
 73
    2
 44
1
  0
LINE
  5
ED
100
AcDbEntity
  8
Dimension
  6
ByBlock
 62
    0
370
   -2
100
AcDbLine
 10
73.2073877618398
 20
109.5175465458251
 11
73.2073877618398
 21
102.1339912365566
  0
LINE
  5
EE
100
AcDbEntity
  8
Dimension
  6
ByBlock
 62
    0
370
   -2
100
AcDbLine
 10
64.70738776183981
 20
110.5545465458263
 11
64.70738776183981
 21
102.1339912365566
  0
ENDBLK
  5
89
330
87
100
AcDbEntity
  8
0
100
AcDbBlockEnd
  0
BLOCK
  5
8B
330
8A
100
AcDbEntity
  8
0
100
AcDbBlockBegin
  2
Page Template
 70
    0
 10
0
 20
0
  3
Page Template
  1

  0
LWPOLYLINE
  5
EF
100
AcDbEntity
  8
Frame
  6
ByLayer
 62
  256
370
   -1
100
AcDbPolyline
 90
    4
 70
    1
 43
0
 10
10
 20
10
 10
269.4
 20
10
 10
269.4
 20
205.9
 10
10
 20
205.9
  0
LINE
  5
F0
100
AcDbEntity
  8
Paper Bounds
  6
ByLayer
 62
  256
370
   -1
100
AcDbLine
 10
0
 20
215.9
 11
20
 21
215.9
  0
LINE
  5
F1
100
AcDbEntity
  8
Paper Bounds
  6
ByLayer
 62
  256
370
   -1
100
AcDbLine
 10
279.4
 20
0
 11
259.4
 21
0
  0
LINE
  5
F2
100
AcDbEntity
  8
Paper Bounds
  6
ByLayer
 62
  256
370
   -1
100
AcDbLine
 10
279.4
 20
0
 11
279.4
 21
20
  0
LINE
  5
F3
100
AcDbEntity
  8
Paper Bounds
  6
ByLayer
 62
  256
370
   -1
100
AcDbLine
 10
0
 20
215.9
 11
-1.224646799147353e-15
 21
195.9
  0
LINE
  5
F4
100
AcDbEntity
  8
Frame
  6
ByLayer
 62
  256
370
   -1
100
AcDbLine
 10
10
 20
20
 11
269.4
 21
20
  0
LINE
  5
F5
100
AcDbEntity
  8
Frame
  6
ByLayer
 62
  256
370
   -1
100
AcDbLine
 10
47.20000000000011
 20
20
 11
47.20000000000011
 21
10
  0
MTEXT
  5
F6
100
AcDbEntity
  8
Logo
  6
ByLayer
 62
  256
370
   -1
100
AcDbMText
 10
13
 20
15.5
 30
0
 40
5
 41
31.42858333333333
 71
    4
 72
    1
  1
upcycles
  7
simplex
210
0
220
0
230
1
 50
0
 73
    2
 44
1
  0
MTEXT
  5
F7
100
AcDbEntity
  8
Title
  6
ByLayer
 62
  256
370
   -1
100
AcDbMText
 10
158.3
 20
15
 30
0
 40
4
 41
214.555554707548
 71
    5
 72
    1
  1
PARAGON DOUBLE BINDER MITER - CNC TOOLPATH 5/8" ENDMILL - SCALE: 1:1
  7
iso
210
0
220
0
230
1
 50
0
 73
    2
 44
1
  0
ENDBLK
  5
8C
330
8A
100
AcDbEntity
  8
0
100
AcDbBlockEnd
  0
BLOCK
  5
8E
330
8D
100
AcDbEntity
  8
0
100
AcDbBlockBegin
  2
paragon_double_binder_miter_cnc
 70
    0
 10
0
 20
0
  3
paragon_double_binder_miter_cnc
  1

  0
LINE
  5
F8
100
AcDbEntity
  8
0
  6
ByLayer
 62
  256
370
   -1
100
AcDbLine
 10
-8.018573537305418
 20
14.65290637860093
 11
-1.218573537305417
 21
14.65290637860093
  0
LINE
  5
F9
100
AcDbEntity
  8
0
  6
ByLayer
 62
  256
370
   -1
100
AcDbLine
 10
-8.018573537305418
 20
9.452906378600925
 11
-1.218573537305417
 21
9.452906378600925
  0
LINE
  5
FA
100
AcDbEntity
  8
0
  6
ByLayer
 62
  256
370
   -1
100
AcDbLine
 10
-2.218573537305417
 20
4.201808758855979
 11
-1.218573537305417
 21
4.201808758855979
  0
LINE
  5
FB
100
AcDbEntity
  8
0
  6
ByLayer
 62
  256
370
   -1
100
AcDbLine
 10
-2.218573537305417
 20
4.526107684446623
 11
-1.218573537305417
 21
4.526107684446623
  0
LINE
  5
FC
100
AcDbEntity
  8
0
  6
ByLayer
 62
  256
370
   -1
100
AcDbLine
 10
-2.218573537305417
 20
4.960279753171706
 11
-1.218573537305417
 21
4.960279753171706
  0
LINE
  5
FD
100
AcDbEntity
  8
0
  6
ByLayer
 62
  256
370
   -1
100
AcDbLine
 10
-2.218573537305417
 20
5.520374314090089
 11
-1.218573537305417
 21
5.520374314090089
  0
LINE
  5
FE
100
AcDbEntity
  8
0
  6
ByLayer
 62
  256
370
   -1
100
AcDbLine
 10
-17.21857353730542
 20
4.201808758855979
 11
-18.21857353730542
 21
4.201808758855979
  0
LINE
  5
FF
100
AcDbEntity
  8
0
  6
ByLayer
 62
  256
370
   -1
100
AcDbLine
 10
-17.21857353730542
 20
4.526107684446623
 11
-18.21857353730542
 21
4.526107684446623
  0
LINE
  5
100
100
AcDbEntity
  8
0
  6
ByLayer
 62
  256
370
   -1
100
AcDbLine
 10
-17.21857353730542
 20
4.960279753171706
 11
-18.21857353730542
 21
4.960279753171706
  0
LINE
  5
101
100
AcDbEntity
  8
0
  6
ByLayer
 62
  256
370
   -1
100
AcDbLine
 10
-17.21857353730542
 20
5.520374314090089
 11
-18.21857353730542
 21
5.520374314090089
  0
ARC
  5
102
100
AcDbEntity
  8
0
  6
ByLayer
 62
  256
370
   -1
100
AcDbCircle
 10
-9.718573537305417
 20
-4.459593621399188
 40
3.175
100
AcDbArc
 50
124.4780659176068
 51
-166.5658022471795
  0
ARC
  5
103
100
AcDbEntity
  8
0
  6
ByLayer
 62
  256
370
   -1
100
AcDbCircle
 10
-9.718573537305417
 20
-4.459593621399188
 40
3.175
100
AcDbArc
 50
55.52193408239316
 51
124.4780659176068
  0
ARC
  5
104
100
AcDbEntity
  8
0
  6
ByLayer
 62
  256
370
   -1
100
AcDbCircle
 10
-9.718573537305415
 20
-4.459593621399189
 40
3.175
100
AcDbArc
 50
-13.43419775282049
 51
55.52193408239319
  0
ARC
  5
105
100
AcDbEntity
  8
0
  6
ByLayer
 62
  256
370
   -1
100
AcDbCircle
 10
-9.718573537305417
 20
-7.634593621399187
 40
6.35
100
AcDbArc
 50
22.57148192987536
 51
90
  0
ARC
  5
106
100
AcDbEntity
  8
0
  6
ByLayer
 62
  256
370
   -1
100
AcDbCircle
 10
-9.718573537305417
 20
-7.634593621399187
 40
6.35
100
AcDbArc
 50
90
 51
157.4285180701246
  0
ARC
  5
107
100
AcDbEntity
  8
0
  6
ByLayer
 62
  256
370
   -1
100
AcDbCircle
 10
-9.718573537305417
 20
-6.047093621399186
 40
4.762499999999999
100
AcDbArc
 50
10.27935473548347
 51
90
  0
ARC
  5
108
100
AcDbEntity
  8
0
  6
ByLayer
 62
  256
370
   -1
100
AcDbCircle
 10
-9.718573537305417
 20
-6.047093621399188
 40
4.762500000000001
100
AcDbArc
 50
90
 51
169.7206452645165
  0
ARC
  5
109
100
AcDbEntity
  8
0
  6
ByLayer
 62
  256
370
   -1
100
AcDbCircle
 10
-9.718573537305417
 20
-10.80959362139919
 40
9.524999999999999
100
AcDbArc
 50
36.10194894318818
 51
90
  0
ARC
  5
10A
100
AcDbEntity
  8
0
  6
ByLayer
 62
  256
370
   -1
100
AcDbCircle
 10
-9.718573537305417
 20
-10.80959362139918
 40
9.524999999999999
100
AcDbArc
 50
90
 51
143.8980510568119
  0
ARC
  5
10B
100
AcDbEntity
  8
0
  6
ByLayer
 62
  256
370
   -1
100
AcDbCircle
 10
-9.718573537305419
 20
-18.74709362139919
 40
17.4625
100
AcDbArc
 50
50.89035926981425
 51
129.1096407301858
  0
LINE
  5
10C
100
AcDbEntity
  8
0
  6
ByLayer
 62
  256
370
   -1
100
AcDbLine
 10
-1.218573537305417
 20
9.952906378600925
 11
-8.018573537305418
 21
9.952906378600925
  0
LINE
  5
10D
100
AcDbEntity
  8
0
  6
ByLayer
 62
  256
370
   -1
100
AcDbLine
 10
-8.018573537305418
 20
9.952906378600925
 11
-8.018573537305418
 21
9.452906378600925
  0
LINE
  5
10E
100
AcDbEntity
  8
0
  6
ByLayer
 62
  256
370
   -1
100
AcDbLine
 10
-8.018573537305418
 20
9.452906378600925
 11
-13.61857353730542
 21
9.452906378600925
  0
LINE
  5
10F
100
AcDbEntity
  8
0
  6
ByLayer
 62
  256
370
   -1
100
AcDbLine
 10
-13.61857353730542
 20
9.452906378600925
 11
-13.61857353730542
 21
7.652906378600925
  0
LINE
  5
110
100
AcDbEntity
  8
0
  6
ByLayer
 62
  256
370
   -1
100
AcDbLine
 10
-13.61857353730542
 20
7.652906378600925
 11
-18.21857353730542
 21
7.652906378600925
  0
LINE
  5
111
100
AcDbEntity
  8
0
  6
ByLayer
 62
  256
370
   -1
100
AcDbLine
 10
-18.21857353730542
 20
16.45290637860093
 11
-13.61857353730542
 21
16.45290637860093
  0
LINE
  5
112
100
AcDbEntity
  8
0
  6
ByLayer
 62
  256
370
   -1
100
AcDbLine
 10
-13.61857353730542
 20
16.45290637860093
 11
-13.61857353730542
 21
14.65290637860093
  0
LINE
  5
113
100
AcDbEntity
  8
0
  6
ByLayer
 62
  256
370
   -1
100
AcDbLine
 10
-13.61857353730542
 20
14.65290637860093
 11
-8.018573537305418
 21
14.65290637860093
  0
LINE
  5
114
100
AcDbEntity
  8
0
  6
ByLayer
 62
  256
370
   -1
100
AcDbLine
 10
-8.018573537305418
 20
14.65290637860093
 11
-8.018573537305418
 21
14.15290637860093
  0
LINE
  5
115
100
AcDbEntity
  8
0
  6
ByLayer
 62
  256
370
   -1
100
AcDbLine
 10
-8.018573537305418
 20
14.15290637860093
 11
-1.218573537305417
 21
14.15290637860093
  0
LINE
  5
116
100
AcDbEntity
  8
0
  6
ByLayer
 62
  256
370
   -1
100
AcDbLine
 10
-2.218573537305417
 20
3.740263465770077
 11
-1.218573537305417
 21
3.740263465770077
  0
LINE
  5
117
100
AcDbEntity
  8
0
  6
ByLayer
 62
  256
370
   -1
100
AcDbLine
 10
-1.218573537305417
 20
3.740263465770077
 11
-1.218573537305417
 21
-0.2470936213990758
  0
LINE
  5
118
100
AcDbEntity
  8
0
  6
ByLayer
 62
  256
370
   -1
100
AcDbLine
 10
-1.218573537305417
 20
-0.2470936213990758
 11
-18.21857353730542
 21
-0.2470936213990758
  0
LINE
  5
119
100
AcDbEntity
  8
0
  6
ByLayer
 62
  256
370
   -1
100
AcDbLine
 10
-18.21857353730542
 20
-0.2470936213990758
 11
-18.21857353730542
 21
3.740263465770077
  0
LINE
  5
11A
100
AcDbEntity
  8
0
  6
ByLayer
 62
  256
370
   -1
100
AcDbLine
 10
-18.21857353730542
 20
3.740263465770077
 11
-17.21857353730542
 21
3.740263465770077
  0
LINE
  5
11B
100
AcDbEntity
  8
0
  6
ByLayer
 62
  256
370
   -1
100
AcDbLine
 10
-18.21857353730542
 20
3.740263465770077
 11
-18.21857353730542
 21
17.65793163177023
  0
LINE
  5
11C
100
AcDbEntity
  8
0
  6
ByLayer
 62
  256
370
   -1
100
AcDbLine
 10
-18.21857353730542
 20
17.65793163177023
 11
-17.72359879047483
 21
18.15290637860081
  0
LINE
  5
11D
100
AcDbEntity
  8
0
  6
ByLayer
 62
  256
370
   -1
100
AcDbLine
 10
-17.72359879047483
 20
18.15290637860081
 11
-1.713548284136001
 21
18.15290637860081
  0
LINE
  5
11E
100
AcDbEntity
  8
0
  6
ByLayer
 62
  256
370
   -1
100
AcDbLine
 10
-1.713548284136001
 20
18.15290637860081
 11
-1.218573537305417
 21
17.65793163177023
  0
LINE
  5
11F
100
AcDbEntity
  8
0
  6
ByLayer
 62
  256
370
   -1
100
AcDbLine
 10
-1.218573537305417
 20
17.65793163177023
 11
-1.218573537305417
 21
3.740263465770077
  0
ARC
  5
120
100
AcDbEntity
  8
0
  6
ByLayer
 62
  256
370
   -1
100
AcDbCircle
 10
-9.718573537305417
 20
-4.45959362139919
 40
11.1125
100
AcDbArc
 50
90
 51
132.4475991631212
  0
ARC
  5
121
100
AcDbEntity
  8
0
  6
ByLayer
 62
  256
370
   -1
100
AcDbCircle
 10
-9.718573537305417
 20
-18.7470936213992
 40
25.40000000000002
100
AcDbArc
 50
72.82593628169042
 51
107.1740637183096
  0
ARC
  5
122
100
AcDbEntity
  8
0
  6
ByLayer
 62
  256
370
   -1
100
AcDbCircle
 10
-9.718573537305417
 20
-10.80959362139918
 40
17.4625
100
AcDbArc
 50
64.56468920583436
 51
115.4353107941656
  0
ARC
  5
123
100
AcDbEntity
  8
0
  6
ByLayer
 62
  256
370
   -1
100
AcDbCircle
 10
-9.718573537305417
 20
-7.634593621399185
 40
14.2875
100
AcDbArc
 50
58.33617393170303
 51
121.663826068297
  0
ARC
  5
124
100
AcDbEntity
  8
0
  6
ByLayer
 62
  256
370
   -1
100
AcDbCircle
 10
-9.718573537305419
 20
-6.047093621399185
 40
12.7
100
AcDbArc
 50
53.80386855501899
 51
126.196131444981
  0
ARC
  5
125
100
AcDbEntity
  8
0
  6
ByLayer
 62
  256
370
   -1
100
AcDbCircle
 10
-9.718573537305417
 20
-4.459593621399188
 40
11.1125
100
AcDbArc
 50
47.55240083687876
 51
90
  0
ENDBLK
  5
8F
330
8D
100
AcDbEntity
  8
0
100
AcDbBlockEnd
  0
ENDSEC
  0
SECTION
  2
ENTITIES
  0
INSERT
  5
126
100
AcDbEntity
  8
Title
  6
ByLayer
 62
  256
370
   -1
100
AcDbBlockReference
  2
Page Template
 10
0
 20
0
 30
0
 41
1
 42
1
 43
0
 50
0
 70
    1
 71
    1
 44
0
 45
0
  0
ARC
  5
127
100
AcDbEntity
  8
Toolpath
  6
ByLayer
 62
  256
370
   -1
100
AcDbCircle
 10
221.2073877618398
 20
93.05454654582618
 40
17.4625
100
AcDbArc
 50
50.89035926981425
 51
129.1096407301858
  0
LINE
  5
128
100
AcDbEntity
  8
Phantom
  6
ByLayer
 62
  256
370
   -1
100
AcDbLine
 10
229.7073877618398
 20
111.5545465458263
 11
212.7073877618398
 21
111.5545465458263
  0
LINE
  5
129
100
AcDbEntity
  8
0
  6
ByLayer
 62
  256
370
   -1
100
AcDbLine
 10
212.7073877618398
 20
129.4595717989956
 11
213.2023625086704
 21
129.9545465458262
  0
LINE
  5
12A
100
AcDbEntity
  8
0
  6
ByLayer
 62
  256
370
   -1
100
AcDbLine
 10
213.2023625086704
 20
129.9545465458262
 11
229.2124130150092
 21
129.9545465458262
  0
LINE
  5
12B
100
AcDbEntity
  8
0
  6
ByLayer
 62
  256
370
   -1
100
AcDbLine
 10
229.2124130150092
 20
129.9545465458262
 11
229.7073877618398
 21
129.4595717989956
  0
MTEXT
  5
12C
100
AcDbEntity
  8
Dimension
  6
ByLayer
 62
  256
370
   -1
100
AcDbMText
 10
221.4593097479328
 20
107.2745039927734
 30
0
 40
2.5
 41
9.722222222222378
 71
    5
 72
    1
  1
R17.46
  7
iso
210
0
220
0
230
1
 50
0
 73
    2
 44
1
  0
ARC
  5
12D
100
AcDbEntity
  8
Toolpath
  6
ByLayer
 62
  256
370
   -1
100
AcDbCircle
 10
73.20738776183981
 20
107.3425465458262
 40
3.175
100
AcDbArc
 50
346.566
 51
193.434
  0
LINE
  5
12E
100
AcDbEntity
  8
Phantom
  6
ByLayer
 62
  256
370
   -1
100
AcDbLine
 10
81.70738776183981
 20
111.5545465458263
 11
64.70738776183981
 21
111.5545465458263
  0
LINE
  5
12F
100
AcDbEntity
  8
0
  6
ByLayer
 62
  256
370
   -1
100
AcDbLine
 10
64.70738776183981
 20
129.4595717989956
 11
65.2023625086704
 21
129.9545465458262
  0
LINE
  5
130
100
AcDbEntity
  8
0
  6
ByLayer
 62
  256
370
   -1
100
AcDbLine
 10
65.2023625086704
 20
129.9545465458262
 11
81.21241301500922
 21
129.9545465458262
  0
LINE
  5
131
100
AcDbEntity
  8
0
  6
ByLayer
 62
  256
370
   -1
100
AcDbLine
 10
81.21241301500922
 20
129.9545465458262
 11
81.70738776183981
 21
129.4595717989956
  0
ARC
  5
132
100
AcDbEntity
  8
Toolpath
  6
ByLayer
 62
  256
370
   -1
100
AcDbCircle
 10
110.2073877618398
 20
105.7545465458262
 40
4.7625
100
AcDbArc
 50
10.2794
 51
169.7206
  0
LINE
  5
133
100
AcDbEntity
  8
Phantom
  6
ByLayer
 62
  256
370
   -1
100
AcDbLine
 10
118.7073877618398
 20
111.5545465458263
 11
101.7073877618398
 21
111.5545465458263
  0
LINE
  5
134
100
AcDbEntity
  8
0
  6
ByLayer
 62
  256
370
   -1
100
AcDbLine
 10
101.7073877618398
 20
129.4595717989956
 11
102.2023625086704
 21
129.9545465458262
  0
LINE
  5
135
100
AcDbEntity
  8
0
  6
ByLayer
 62
  256
370
   -1
100
AcDbLine
 10
102.2023625086704
 20
129.9545465458262
 11
118.2124130150092
 21
129.9545465458262
  0
LINE
  5
136
100
AcDbEntity
  8
0
  6
ByLayer
 62
  256
370
   -1
100
AcDbLine
 10
118.2124130150092
 20
129.9545465458262
 11
118.7073877618398
 21
129.4595717989956
  0
LINE
  5
137
100
AcDbEntity
  8
Phantom
  6
ByLayer
 62
  256
370
   -1
100
AcDbLine
 10
155.7073877618398
 20
111.5545465458263
 11
138.7073877618398
 21
111.5545465458263
  0
LINE
  5
138
100
AcDbEntity
  8
0
  6
ByLayer
 62
  256
370
   -1
100
AcDbLine
 10
138.7073877618398
 20
129.4595717989956
 11
139.2023625086704
 21
129.9545465458262
  0
LINE
  5
139
100
AcDbEntity
  8
0
  6
ByLayer
 62
  256
370
   -1
100
AcDbLine
 10
139.2023625086704
 20
129.9545465458262
 11
155.2124130150092
 21
129.9545465458262
  0
LINE
  5
13A
100
AcDbEntity
  8
0
  6
ByLayer
 62
  256
370
   -1
100
AcDbLine
 10
155.2124130150092
 20
129.9545465458262
 11
155.7073877618398
 21
129.4595717989956
  0
ARC
  5
13B
100
AcDbEntity
  8
Toolpath
  6
ByLayer
 62
  256
370
   -1
100
AcDbCircle
 10
147.2073877618398
 20
104.1675465458262
 40
6.35
100
AcDbArc
 50
22.5715
 51
157.4285
  0
LINE
  5
13C
100
AcDbEntity
  8
Phantom
  6
ByLayer
 62
  256
370
   -1
100
AcDbLine
 10
192.7073877618398
 20
111.5545465458263
 11
175.7073877618398
 21
111.5545465458263
  0
LINE
  5
13D
100
AcDbEntity
  8
0
  6
ByLayer
 62
  256
370
   -1
100
AcDbLine
 10
175.7073877618398
 20
129.4595717989956
 11
176.2023625086704
 21
129.9545465458262
  0
LINE
  5
13E
100
AcDbEntity
  8
0
  6
ByLayer
 62
  256
370
   -1
100
AcDbLine
 10
176.2023625086704
 20
129.9545465458262
 11
192.2124130150092
 21
129.9545465458262
  0
LINE
  5
13F
100
AcDbEntity
  8
0
  6
ByLayer
 62
  256
370
   -1
100
AcDbLine
 10
192.2124130150092
 20
129.9545465458262
 11
192.7073877618398
 21
129.4595717989956
  0
ARC
  5
140
100
AcDbEntity
  8
Toolpath
  6
ByLayer
 62
  256
370
   -1
100
AcDbCircle
 10
184.2073877618398
 20
100.9915465458262
 40
9.525
100
AcDbArc
 50
36.1019
 51
143.898
  0
MTEXT
  5
141
100
AcDbEntity
  8
Dimension
  6
ByLayer
 62
  256
370
   -1
100
AcDbMText
 10
184.090115894466
 20
106.7225323615671
 30
0
 40
2.5
 41
8.055555555555866
 71
    5
 72
    1
  1
R9.53
  7
iso
210
0
220
0
230
1
 50
0
 73
    2
 44
1
  0
DIMENSION
  5
142
100
AcDbEntity
  8
Dimension
  6
ByLayer
 62
  256
370
   -1
100
AcDbDimension
  2
*D1
 10
76.29551399911196
 20
96.12003273080279
 30
0
 11
84.93440288800093
 21
96.12003273080279
 31
0
 70
   32
 71
    5
  3
Standard
 53
0
210
0
220
0
230
1
100
AcDbAlignedDimension
 13
70.11926152456766
 23
106.6049142914668
 33
0
 14
76.29551399911196
 24
106.6049142914668
 34
0
100
AcDbRotatedDimension
  0
DIMENSION
  5
143
100
AcDbEntity
  8
Dimension
  6
ByLayer
 62
  256
370
   -1
100
AcDbDimension
  2
*D2
 10
114.8934461149696
 20
96.12003273080279
 30
0
 11
110.2073877618398
 21
96.12003273080279
 31
0
 70
   32
 71
    5
  3
Standard
 53
0
210
0
220
0
230
1
100
AcDbAlignedDimension
 13
105.52132940871
 23
106.6044073350514
 33
0
 14
114.8934461149696
 24
106.6044073350514
 34
0
100
AcDbRotatedDimension
  0
DIMENSION
  5
144
100
AcDbEntity
  8
Dimension
  6
ByLayer
 62
  256
370
   -1
100
AcDbDimension
  2
*D3
 10
153.0709857541061
 20
96.04098318147459
 30
0
 11
147.2073877618398
 21
96.04098318147459
 31
0
 70
   32
 71
    5
  3
Standard
 53
0
210
0
220
0
230
1
100
AcDbAlignedDimension
 13
141.3437897695735
 23
106.6049054822757
 33
0
 14
153.0709857541061
 24
106.6049054822757
 34
0
100
AcDbRotatedDimension
  0
DIMENSION
  5
145
100
AcDbEntity
  8
Dimension
  6
ByLayer
 62
  256
370
   -1
100
AcDbDimension
  2
*D4
 10
191.9033052976091
 20
96.12003273080279
 30
0
 11
184.2073926595454
 21
96.12003273080279
 31
0
 70
   32
 71
    5
  3
Standard
 53
0
210
0
220
0
230
1
100
AcDbAlignedDimension
 13
176.5114800214817
 23
106.603910490894
 33
0
 14
191.9033052976091
 24
106.6038970589925
 34
0
100
AcDbRotatedDimension
  0
DIMENSION
  5
146
100
AcDbEntity
  8
Dimension
  6
ByLayer
 62
  256
370
   -1
100
AcDbDimension
  2
*D5
 10
232.222844137646
 20
96.12003273080279
 30
0
 11
221.2073877618398
 21
96.12003273080279
 31
0
 70
   32
 71
    5
  3
Standard
 53
0
210
0
220
0
230
1
100
AcDbAlignedDimension
 13
210.1919313860336
 23
106.6044036329955
 33
0
 14
232.222844137646
 24
106.6044036329955
 34
0
100
AcDbRotatedDimension
  0
DIMENSION
  5
147
100
AcDbEntity
  8
Dimension
  6
ByLayer
 62
  256
370
   -1
100
AcDbDimension
  2
*D6
 10
175.7073877618398
 20
101.4098120529824
 30
0
 11
183.8053465297245
 21
101.4098120529824
 31
0
 70
   32
 71
    5
  3
Standard
 53
0
210
0
220
0
230
1
100
AcDbAlignedDimension
 13
191.9033052976091
 23
106.6038970589925
 33
0
 14
175.7073877618398
 24
111.5545465458263
 34
0
100
AcDbRotatedDimension
  0
DIMENSION
  5
148
100
AcDbEntity
  8
Dimension
  6
ByLayer
 62
  256
370
   -1
100
AcDbDimension
  2
*D7
 10
212.7073877618398
 20
101.7748096233481
 30
0
 11
222.4651159497429
 21
101.7748096233481
 31
0
 70
   32
 71
    5
  3
Standard
 53
0
210
0
220
0
230
1
100
AcDbAlignedDimension
 13
232.222844137646
 23
106.6044036329955
 33
0
 14
212.7073877618398
 24
111.5545465458263
 34
0
100
AcDbRotatedDimension
  0
DIMENSION
  5
149
100
AcDbEntity
  8
Dimension
  6
ByLayer
 62
  256
370
   -1
100
AcDbDimension
  2
*D8
 10
138.7073877618398
 20
101.2666470086507
 30
0
 11
145.889186757973
 21
101.2666470086507
 31
0
 70
   32
 71
    5
  3
Standard
 53
0
210
0
220
0
230
1
100
AcDbAlignedDimension
 13
153.0709857541061
 23
106.6049054822757
 33
0
 14
138.7073877618398
 24
111.5545465458263
 34
0
100
AcDbRotatedDimension
  0
MTEXT
  5
14A
100
AcDbEntity
  8
Dimension
  6
ByLayer
 62
  256
370
   -1
100
AcDbMText
 10
120.5143128164179
 20
108.6239340840587
 30
0
 40
2.5
 41
8.333333333333488
 71
    5
 72
    1
  1
R4.76
  7
iso
210
0
220
0
230
1
 50
0
 73
    2
 44
1
  0
DIMENSION
  5
14B
100
AcDbEntity
  8
Dimension
  6
ByLayer
 62
  256
370
   -1
100
AcDbDimension
  2
*D9
 10
101.7073877618398
 20
101.7748096233481
 30
0
 11
123.9357815742321
 21
101.7748096233481
 31
0
 70
   32
 71
    5
  3
Standard
 53
0
210
0
220
0
230
1
100
AcDbAlignedDimension
 13
114.8934461149696
 23
106.6044073350514
 33
0
 14
101.7073877618398
 24
111.5545465458263
 34
0
100
AcDbRotatedDimension
  0
DIMENSION
  5
14C
100
AcDbEntity
  8
Dimension
  6
ByLayer
 62
  256
370
   -1
100
AcDbDimension
  2
*D10
 10
64.70738776183981
 20
103.3839912365566
 30
0
 11
82.27947697968158
 21
103.3839912365566
 31
0
 70
   32
 71
    5
  3
Standard
 53
0
210
0
220
0
230
1
100
AcDbAlignedDimension
 13
73.2073877618398
 23
110.5175465458251
 33
0
 14
64.70738776183981
 24
111.5545465458263
 34
0
100
AcDbRotatedDimension
  0
DIMENSION
  5
14D
100
AcDbEntity
  8
Dimension
  6
ByLayer
 62
  256
370
   -1
100
AcDbDimension
  2
*D11
 10
64.70738776183981
 20
99.79665130538508
 30
0
 11
85.44493812543202
 21
99.79665130538508
 31
0
 70
   32
 71
    5
  3
Standard
 53
0
210
0
220
0
230
1
100
AcDbAlignedDimension
 13
76.29551399911196
 23
106.6049142914668
 33
0
 14
64.70738776183981
 24
111.5545465458263
 34
0
100
AcDbRotatedDimension
  0
MTEXT
  5
14E
100
AcDbEntity
  8
Dimension
  6
ByLayer
 62
  256
370
   -1
100
AcDbMText
 10
81.79280495555128
 20
107.9625632128553
 30
0
 40
2.5
 41
7.500000000000156
 71
    5
 72
    1
  1
R3.17
  7
iso
210
0
220
0
230
1
 50
0
 73
    2
 44
1
  0
DIMENSION
  5
14F
100
AcDbEntity
  8
Dimension
  6
ByLayer
 62
  256
370
   -1
100
AcDbDimension
  2
*D12
 10
56.86524549591286
 20
118.4545465458262
 30
0
 11
56.86524549591286
 21
115.0045465458262
 31
0
 70
   32
  1
5X <>
 71
    5
  3
Standard
 53
0
210
0
220
0
230
1
100
AcDbAlignedDimension
 13
64.70738776183981
 23
111.5545465458263
 33
0
 14
73.20738776183981
 24
118.4545465458262
 34
0
 50
90
100
AcDbRotatedDimension
  0
MTEXT
  5
150
100
AcDbEntity
  8
Dimension
  6
ByLayer
 62
  256
370
   -1
100
AcDbMText
 10
158.0493770592392
 20
108.5075645862917
 30
0
 40
2.5
 41
8.055555555556023
 71
    5
 72
    1
  1
R6.35
  7
iso
210
0
220
0
230
1
 50
0
 73
    2
 44
1
  0
LINE
  5
151
100
AcDbEntity
  8
Dimension
  6
ByLayer
 62
  256
370
   -1
100
AcDbLine
 10
31.4014721224171
 20
106.6049142914668
 11
31.4014721224171
 21
123.8545465458263
  0
LEADER
  5
152
100
AcDbEntity
  8
Dimension
  6
ByLayer
 62
  256
370
   -1
100
AcDbLeader
  3
Standard
 71
    1
 72
    0
 73
    3
 74
    0
 75
    0
 40
1
 41
10
 76
2
 76
2
 10
31.4014721224171
 20
123.8545465458263
 30
0
 10
31.4014721224171
 20
128.5250108534476
 30
0
  0
LEADER
  5
153
100
AcDbEntity
  8
Dimension
  6
ByLayer
 62
  256
370
   -1
100
AcDbLeader
  3
Standard
 71
    1
 72
    0
 73
    3
 74
    0
 75
    0
 40
1
 41
10
 76
2
 76
2
 10
31.4014721224171
 20
106.614715564881
 30
0
 10
31.4014721224171
 20
101.9442512572597
 30
0
  0
MTEXT
  5
154
100
AcDbEntity
  8
Dimension
  6
ByLayer
 62
  256
370
   -1
100
AcDbMText
 10
31.4014721224171
 20
131.0542975559872
 30
0
 40
2.5
 41
13.54166666666698
 71
    5
 72
    1
  1
5X 17.25
  7
standard
210
0
220
0
230
1
 50
0
 73
    2
 44
1
  0
DIMENSION
  5
155
100
AcDbEntity
  8
Dimension
  6
ByLayer
 62
  256
370
   -1
100
AcDbDimension
  2
*D15
 10
40.92852316475067
 20
113.5877492461776
 30
0
 11
40.92852316475067
 21
117.1860465458257
 31
0
 70
   32
  1
5X <>
 71
    5
  3
Standard
 53
0
210
0
220
0
230
1
100
AcDbAlignedDimension
 13
73.2073877618398
 23
110.5175465458251
 33
0
 14
42.84333881433523
 24
123.8545465458263
 34
0
 50
90
100
AcDbRotatedDimension
  0
LINE
  5
156
100
AcDbEntity
  8
Dimension
  6
ByLayer
 62
  256
370
   -1
100
AcDbLine
 10
29.43962926724327
 20
106.6049142914668
 11
69.04206998223599
 21
106.6049142914668
  0
LINE
  5
157
100
AcDbEntity
  8
Center
  6
ByLayer
 62
  256
370
   -1
100
AcDbLine
 10
29.63111083220173
 20
123.8545465458263
 11
236.2073877618398
 21
123.8545465458263
  0
LINE
  5
158
100
AcDbEntity
  8
0
  6
ByLayer
 62
  256
370
   -1
100
AcDbLine
 10
64.70738776183981
 20
121.7545465458263
 11
71.50738776183981
 21
121.7545465458263
  0
LINE
  5
159
100
AcDbEntity
  8
0
  6
ByLayer
 62
  256
370
   -1
100
AcDbLine
 10
71.50738776183981
 20
121.7545465458263
 11
71.50738776183981
 21
121.2545465458263
  0
LINE
  5
15A
100
AcDbEntity
  8
0
  6
ByLayer
 62
  256
370
   -1
100
AcDbLine
 10
71.50738776183981
 20
121.2545465458263
 11
77.10738776183982
 21
121.2545465458263
  0
LINE
  5
15B
100
AcDbEntity
  8
0
  6
ByLayer
 62
  256
370
   -1
100
AcDbLine
 10
77.10738776183982
 20
121.2545465458263
 11
77.10738776183982
 21
119.4545465458263
  0
LINE
  5
15C
100
AcDbEntity
  8
0
  6
ByLayer
 62
  256
370
   -1
100
AcDbLine
 10
77.10738776183982
 20
119.4545465458263
 11
81.70738776183981
 21
119.4545465458263
  0
LINE
  5
15D
100
AcDbEntity
  8
0
  6
ByLayer
 62
  256
370
   -1
100
AcDbLine
 10
81.70738776183981
 20
128.2545465458263
 11
77.10738776183982
 21
128.2545465458263
  0
LINE
  5
15E
100
AcDbEntity
  8
0
  6
ByLayer
 62
  256
370
   -1
100
AcDbLine
 10
77.10738776183982
 20
128.2545465458263
 11
77.10738776183982
 21
126.4545465458263
  0
LINE
  5
15F
100
AcDbEntity
  8
0
  6
ByLayer
 62
  256
370
   -1
100
AcDbLine
 10
77.10738776183982
 20
126.4545465458263
 11
71.50738776183981
 21
126.4545465458263
  0
LINE
  5
160
100
AcDbEntity
  8
0
  6
ByLayer
 62
  256
370
   -1
100
AcDbLine
 10
71.50738776183981
 20
126.4545465458263
 11
71.50738776183981
 21
125.9545465458263
  0
LINE
  5
161
100
AcDbEntity
  8
0
  6
ByLayer
 62
  256
370
   -1
100
AcDbLine
 10
71.50738776183981
 20
125.9545465458263
 11
64.70738776183981
 21
125.9545465458263
  0
LINE
  5
162
100
AcDbEntity
  8
0
  6
ByLayer
 62
  256
370
   -1
100
AcDbLine
 10
101.7073877618398
 20
121.7545465458263
 11
108.5073877618398
 21
121.7545465458263
  0
LINE
  5
163
100
AcDbEntity
  8
0
  6
ByLayer
 62
  256
370
   -1
100
AcDbLine
 10
108.5073877618398
 20
121.7545465458263
 11
108.5073877618398
 21
121.2545465458263
  0
LINE
  5
164
100
AcDbEntity
  8
0
  6
ByLayer
 62
  256
370
   -1
100
AcDbLine
 10
108.5073877618398
 20
121.2545465458263
 11
114.1073877618398
 21
121.2545465458263
  0
LINE
  5
165
100
AcDbEntity
  8
0
  6
ByLayer
 62
  256
370
   -1
100
AcDbLine
 10
114.1073877618398
 20
121.2545465458263
 11
114.1073877618398
 21
119.4545465458263
  0
LINE
  5
166
100
AcDbEntity
  8
0
  6
ByLayer
 62
  256
370
   -1
100
AcDbLine
 10
114.1073877618398
 20
119.4545465458263
 11
118.7073877618398
 21
119.4545465458263
  0
LINE
  5
167
100
AcDbEntity
  8
0
  6
ByLayer
 62
  256
370
   -1
100
AcDbLine
 10
118.7073877618398
 20
128.2545465458263
 11
114.1073877618398
 21
128.2545465458263
  0
LINE
  5
168
100
AcDbEntity
  8
0
  6
ByLayer
 62
  256
370
   -1
100
AcDbLine
 10
114.1073877618398
 20
128.2545465458263
 11
114.1073877618398
 21
126.4545465458263
  0
LINE
  5
169
100
AcDbEntity
  8
0
  6
ByLayer
 62
  256
370
   -1
100
AcDbLine
 10
114.1073877618398
 20
126.4545465458263
 11
108.5073877618398
 21
126.4545465458263
  0
LINE
  5
16A
100
AcDbEntity
  8
0
  6
ByLayer
 62
  256
370
   -1
100
AcDbLine
 10
108.5073877618398
 20
126.4545465458263
 11
108.5073877618398
 21
125.9545465458263
  0
LINE
  5
16B
100
AcDbEntity
  8
0
  6
ByLayer
 62
  256
370
   -1
100
AcDbLine
 10
108.5073877618398
 20
125.9545465458263
 11
101.7073877618398
 21
125.9545465458263
  0
LINE
  5
16C
100
AcDbEntity
  8
0
  6
ByLayer
 62
  256
370
   -1
100
AcDbLine
 10
138.7073877618398
 20
121.7545465458263
 11
145.5073877618398
 21
121.7545465458263
  0
LINE
  5
16D
100
AcDbEntity
  8
0
  6
ByLayer
 62
  256
370
   -1
100
AcDbLine
 10
145.5073877618398
 20
121.7545465458263
 11
145.5073877618398
 21
121.2545465458263
  0
LINE
  5
16E
100
AcDbEntity
  8
0
  6
ByLayer
 62
  256
370
   -1
100
AcDbLine
 10
145.5073877618398
 20
121.2545465458263
 11
151.1073877618398
 21
121.2545465458263
  0
LINE
  5
16F
100
AcDbEntity
  8
0
  6
ByLayer
 62
  256
370
   -1
100
AcDbLine
 10
151.1073877618398
 20
121.2545465458263
 11
151.1073877618398
 21
119.4545465458263
  0
LINE
  5
170
100
AcDbEntity
  8
0
  6
ByLayer
 62
  256
370
   -1
100
AcDbLine
 10
151.1073877618398
 20
119.4545465458263
 11
155.7073877618398
 21
119.4545465458263
  0
LINE
  5
171
100
AcDbEntity
  8
0
  6
ByLayer
 62
  256
370
   -1
100
AcDbLine
 10
155.7073877618398
 20
128.2545465458263
 11
151.1073877618398
 21
128.2545465458263
  0
LINE
  5
172
100
AcDbEntity
  8
0
  6
ByLayer
 62
  256
370
   -1
100
AcDbLine
 10
151.1073877618398
 20
128.2545465458263
 11
151.1073877618398
 21
126.4545465458263
  0
LINE
  5
173
100
AcDbEntity
  8
0
  6
ByLayer
 62
  256
370
   -1
100
AcDbLine
 10
151.1073877618398
 20
126.4545465458263
 11
145.5073877618398
 21
126.4545465458263
  0
LINE
  5
174
100
AcDbEntity
  8
0
  6
ByLayer
 62
  256
370
   -1
100
AcDbLine
 10
145.5073877618398
 20
126.4545465458263
 11
145.5073877618398
 21
125.9545465458263
  0
LINE
  5
175
100
AcDbEntity
  8
0
  6
ByLayer
 62
  256
370
   -1
100
AcDbLine
 10
145.5073877618398
 20
125.9545465458263
 11
138.7073877618398
 21
125.9545465458263
  0
LINE
  5
176
100
AcDbEntity
  8
0
  6
ByLayer
 62
  256
370
   -1
100
AcDbLine
 10
175.7073877618398
 20
121.7545465458263
 11
182.5073877618398
 21
121.7545465458263
  0
LINE
  5
177
100
AcDbEntity
  8
0
  6
ByLayer
 62
  256
370
   -1
100
AcDbLine
 10
182.5073877618398
 20
121.7545465458263
 11
182.5073877618398
 21
121.2545465458263
  0
LINE
  5
178
100
AcDbEntity
  8
0
  6
ByLayer
 62
  256
370
   -1
100
AcDbLine
 10
182.5073877618398
 20
121.2545465458263
 11
188.1073877618398
 21
121.2545465458263
  0
LINE
  5
179
100
AcDbEntity
  8
0
  6
ByLayer
 62
  256
370
   -1
100
AcDbLine
 10
188.1073877618398
 20
121.2545465458263
 11
188.1073877618398
 21
119.4545465458263
  0
LINE
  5
17A
100
AcDbEntity
  8
0
  6
ByLayer
 62
  256
370
   -1
100
AcDbLine
 10
188.1073877618398
 20
119.4545465458263
 11
192.7073877618398
 21
119.4545465458263
  0
LINE
  5
17B
100
AcDbEntity
  8
0
  6
ByLayer
 62
  256
370
   -1
100
AcDbLine
 10
192.7073877618398
 20
128.2545465458263
 11
188.1073877618398
 21
128.2545465458263
  0
LINE
  5
17C
100
AcDbEntity
  8
0
  6
ByLayer
 62
  256
370
   -1
100
AcDbLine
 10
188.1073877618398
 20
128.2545465458263
 11
188.1073877618398
 21
126.4545465458263
  0
LINE
  5
17D
100
AcDbEntity
  8
0
  6
ByLayer
 62
  256
370
   -1
100
AcDbLine
 10
188.1073877618398
 20
126.4545465458263
 11
182.5073877618398
 21
126.4545465458263
  0
LINE
  5
17E
100
AcDbEntity
  8
0
  6
ByLayer
 62
  256
370
   -1
100
AcDbLine
 10
182.5073877618398
 20
126.4545465458263
 11
182.5073877618398
 21
125.9545465458263
  0
LINE
  5
17F
100
AcDbEntity
  8
0
  6
ByLayer
 62
  256
370
   -1
100
AcDbLine
 10
182.5073877618398
 20
125.9545465458263
 11
175.7073877618398
 21
125.9545465458263
  0
LINE
  5
180
100
AcDbEntity
  8
0
  6
ByLayer
 62
  256
370
   -1
100
AcDbLine
 10
212.7073877618398
 20
121.7545465458263
 11
219.5073877618398
 21
121.7545465458263
  0
LINE
  5
181
100
AcDbEntity
  8
0
  6
ByLayer
 62
  256
370
   -1
100
AcDbLine
 10
219.5073877618398
 20
121.7545465458263
 11
219.5073877618398
 21
121.2545465458263
  0
LINE
  5
182
100
AcDbEntity
  8
0
  6
ByLayer
 62
  256
370
   -1
100
AcDbLine
 10
219.5073877618398
 20
121.2545465458263
 11
225.1073877618398
 21
121.2545465458263
  0
LINE
  5
183
100
AcDbEntity
  8
0
  6
ByLayer
 62
  256
370
   -1
100
AcDbLine
 10
225.1073877618398
 20
121.2545465458263
 11
225.1073877618398
 21
119.4545465458263
  0
LINE
  5
184
100
AcDbEntity
  8
0
  6
ByLayer
 62
  256
370
   -1
100
AcDbLine
 10
225.1073877618398
 20
119.4545465458263
 11
229.7073877618398
 21
119.4545465458263
  0
LINE
  5
185
100
AcDbEntity
  8
0
  6
ByLayer
 62
  256
370
   -1
100
AcDbLine
 10
229.7073877618398
 20
128.2545465458263
 11
225.1073877618398
 21
128.2545465458263
  0
LINE
  5
186
100
AcDbEntity
  8
0
  6
ByLayer
 62
  256
370
   -1
100
AcDbLine
 10
225.1073877618398
 20
128.2545465458263
 11
225.1073877618398
 21
126.4545465458263
  0
LINE
  5
187
100
AcDbEntity
  8
0
  6
ByLayer
 62
  256
370
   -1
100
AcDbLine
 10
225.1073877618398
 20
126.4545465458263
 11
219.5073877618398
 21
126.4545465458263
  0
LINE
  5
188
100
AcDbEntity
  8
0
  6
ByLayer
 62
  256
370
   -1
100
AcDbLine
 10
219.5073877618398
 20
126.4545465458263
 11
219.5073877618398
 21
125.9545465458263
  0
LINE
  5
189
100
AcDbEntity
  8
0
  6
ByLayer
 62
  256
370
   -1
100
AcDbLine
 10
219.5073877618398
 20
125.9545465458263
 11
212.7073877618398
 21
125.9545465458263
  0
LINE
  5
18A
100
AcDbEntity
  8
0
  6
ByLayer
 62
  256
370
   -1
100
AcDbLine
 10
176.2073877618398
 20
116.5137534201722
 11
175.7073877618398
 21
116.5137534201722
  0
LINE
  5
18B
100
AcDbEntity
  8
0
  6
ByLayer
 62
  256
370
   -1
100
AcDbLine
 10
192.2073877618398
 20
116.5137534201722
 11
192.7073877618398
 21
116.5137534201722
  0
ARC
  5
18C
100
AcDbEntity
  8
0
  6
ByLayer
 62
  256
370
   -1
100
AcDbCircle
 10
184.2073877618398
 20
100.9915465458262
 40
17.4625
100
AcDbArc
 50
62.733845627994
 51
117.2661543720028
  0
LINE
  5
18D
100
AcDbEntity
  8
0
  6
ByLayer
 62
  256
370
   -1
100
AcDbLine
 10
192.7073877618398
 20
129.4595717989956
 11
192.7073877618398
 21
116.5137534201722
  0
LINE
  5
18E
100
AcDbEntity
  8
Phantom
  6
ByLayer
 62
  256
370
   -1
100
AcDbLine
 10
192.7073877618398
 20
116.5137534201722
 11
192.7073877618398
 21
111.5545465458263
  0
LINE
  5
18F
100
AcDbEntity
  8
0
  6
ByLayer
 62
  256
370
   -1
100
AcDbLine
 10
175.7073877618398
 20
116.5137534201722
 11
175.7073877618398
 21
129.4595717989956
  0
LINE
  5
190
100
AcDbEntity
  8
Phantom
  6
ByLayer
 62
  256
370
   -1
100
AcDbLine
 10
175.7073877618398
 20
111.5545465458263
 11
175.7073877618398
 21
116.5137534201722
  0
ARC
  5
191
100
AcDbEntity
  8
0
  6
ByLayer
 62
  256
370
   -1
100
AcDbCircle
 10
221.2073877618398
 20
93.05454654582618
 40
25.4
100
AcDbArc
 50
71.64156292466983
 51
108.3584370753295
  0
LINE
  5
192
100
AcDbEntity
  8
0
  6
ByLayer
 62
  256
370
   -1
100
AcDbLine
 10
213.20738776184
 20
117.1618068630004
 11
212.7073877618398
 21
117.1618068630004
  0
LINE
  5
193
100
AcDbEntity
  8
0
  6
ByLayer
 62
  256
370
   -1
100
AcDbLine
 10
229.2073877618399
 20
117.1618068630004
 11
229.7073877618398
 21
117.1618068630004
  0
LINE
  5
194
100
AcDbEntity
  8
0
  6
ByLayer
 62
  256
370
   -1
100
AcDbLine
 10
229.7073877618398
 20
129.4595717989956
 11
229.7073877618398
 21
117.1618068630004
  0
LINE
  5
195
100
AcDbEntity
  8
Phantom
  6
ByLayer
 62
  256
370
   -1
100
AcDbLine
 10
229.7073877618398
 20
117.1618068630004
 11
229.7073877618398
 21
111.5545465458263
  0
LINE
  5
196
100
AcDbEntity
  8
0
  6
ByLayer
 62
  256
370
   -1
100
AcDbLine
 10
212.7073877618398
 20
117.1618068630004
 11
212.7073877618398
 21
129.4595717989956
  0
LINE
  5
197
100
AcDbEntity
  8
Phantom
  6
ByLayer
 62
  256
370
   -1
100
AcDbLine
 10
212.7073877618398
 20
111.5545465458263
 11
212.7073877618398
 21
117.1618068630004
  0
ARC
  5
198
100
AcDbEntity
  8
0
  6
ByLayer
 62
  256
370
   -1
100
AcDbCircle
 10
73.20738776183981
 20
107.3420465458262
 40
11.1125
100
AcDbArc
 50
90
 51
136.0470512999657
  0
ARC
  5
199
100
AcDbEntity
  8
0
  6
ByLayer
 62
  256
370
   -1
100
AcDbCircle
 10
73.20738776183981
 20
107.3420465458262
 40
11.1125
100
AcDbArc
 50
43.95294870003224
 51
90
  0
ARC
  5
19A
100
AcDbEntity
  8
0
  6
ByLayer
 62
  256
370
   -1
100
AcDbCircle
 10
110.2073877618398
 20
105.7545465458262
 40
12.7
100
AcDbArc
 50
50.95568653087959
 51
129.0443134691202
  0
ARC
  5
19B
100
AcDbEntity
  8
0
  6
ByLayer
 62
  256
370
   -1
100
AcDbCircle
 10
147.2073877618398
 20
104.1670465458262
 40
14.2875
100
AcDbArc
 50
55.94904248022977
 51
124.0509575197702
  0
LINE
  5
19C
100
AcDbEntity
  8
0
  6
ByLayer
 62
  256
370
   -1
100
AcDbLine
 10
65.20738776183977
 20
115.0548706881232
 11
64.70738776183981
 21
115.0548706881232
  0
LINE
  5
19D
100
AcDbEntity
  8
0
  6
ByLayer
 62
  256
370
   -1
100
AcDbLine
 10
81.20738776184014
 20
115.0548706881232
 11
81.70738776183981
 21
115.0548706881232
  0
LINE
  5
19E
100
AcDbEntity
  8
0
  6
ByLayer
 62
  256
370
   -1
100
AcDbLine
 10
102.2073877618393
 20
115.61811587949
 11
101.7073877618398
 21
115.61811587949
  0
LINE
  5
19F
100
AcDbEntity
  8
0
  6
ByLayer
 62
  256
370
   -1
100
AcDbLine
 10
118.2073877618403
 20
115.61811587949
 11
118.7073877618398
 21
115.61811587949
  0
LINE
  5
1A0
100
AcDbEntity
  8
0
  6
ByLayer
 62
  256
370
   -1
100
AcDbLine
 10
139.2073877618395
 20
116.0048105344347
 11
138.7073877618398
 21
116.0048105344347
  0
LINE
  5
1A1
100
AcDbEntity
  8
0
  6
ByLayer
 62
  256
370
   -1
100
AcDbLine
 10
155.2073877618401
 20
116.0048105344347
 11
155.7073877618398
 21
116.0048105344347
  0
LINE
  5
1A2
100
AcDbEntity
  8
Phantom
  6
ByLayer
 62
  256
370
   -1
100
AcDbLine
 10
64.70738776183981
 20
111.5545465458263
 11
64.70738776183981
 21
115.0548706881232
  0
LINE
  5
1A3
100
AcDbEntity
  8
0
  6
ByLayer
 62
  256
370
   -1
100
AcDbLine
 10
64.70738776183981
 20
115.0548706881232
 11
64.70738776183981
 21
129.4595717989956
  0
LINE
  5
1A4
100
AcDbEntity
  8
Phantom
  6
ByLayer
 62
  256
370
   -1
100
AcDbLine
 10
81.70738776183981
 20
115.0548706881232
 11
81.70738776183981
 21
111.5545465458263
  0
LINE
  5
1A5
100
AcDbEntity
  8
0
  6
ByLayer
 62
  256
370
   -1
100
AcDbLine
 10
81.70738776183981
 20
129.4595717989956
 11
81.70738776183981
 21
115.0548706881232
  0
LINE
  5
1A6
100
AcDbEntity
  8
Phantom
  6
ByLayer
 62
  256
370
   -1
100
AcDbLine
 10
101.7073877618398
 20
111.5545465458263
 11
101.7073877618398
 21
115.61811587949
  0
LINE
  5
1A7
100
AcDbEntity
  8
0
  6
ByLayer
 62
  256
370
   -1
100
AcDbLine
 10
101.7073877618398
 20
115.61811587949
 11
101.7073877618398
 21
129.4595717989956
  0
LINE
  5
1A8
100
AcDbEntity
  8
Phantom
  6
ByLayer
 62
  256
370
   -1
100
AcDbLine
 10
118.7073877618398
 20
115.61811587949
 11
118.7073877618398
 21
111.5545465458263
  0
LINE
  5
1A9
100
AcDbEntity
  8
0
  6
ByLayer
 62
  256
370
   -1
100
AcDbLine
 10
118.7073877618398
 20
129.4595717989956
 11
118.7073877618398
 21
115.61811587949
  0
LINE
  5
1AA
100
AcDbEntity
  8
Phantom
  6
ByLayer
 62
  256
370
   -1
100
AcDbLine
 10
138.7073877618398
 20
111.5545465458263
 11
138.7073877618398
 21
116.0048105344347
  0
LINE
  5
1AB
100
AcDbEntity
  8
0
  6
ByLayer
 62
  256
370
   -1
100
AcDbLine
 10
138.7073877618398
 20
116.0048105344347
 11
138.7073877618398
 21
129.4595717989956
  0
LINE
  5
1AC
100
AcDbEntity
  8
Phantom
  6
ByLayer
 62
  256
370
   -1
100
AcDbLine
 10
155.7073877618398
 20
116.0048105344347
 11
155.7073877618398
 21
111.5545465458263
  0
LINE
  5
1AD
100
AcDbEntity
  8
0
  6
ByLayer
 62
  256
370
   -1
100
AcDbLine
 10
155.7073877618398
 20
129.4595717989956
 11
155.7073877618398
 21
116.0048105344347
  0
MTEXT
  5
1AE
100
AcDbEntity
  8
Dimension
  6
ByLayer
 62
  256
370
   -1
100
AcDbMText
 10
184.4096298517175
 20
137.1223251160612
 30
0
 40
2.5
 41
10.13888888888904
 71
    5
 72
    1
  1
1-3/8"
  7
iso
210
0
220
0
230
1
 50
0
 73
    2
 44
1
  0
MTEXT
  5
1AF
100
AcDbEntity
  8
Dimension
  6
ByLayer
 62
  256
370
   -1
100
AcDbMText
 10
221.1602808082846
 20
137.0352594611358
 30
0
 40
2.5
 41
2.916666666666667
 71
    5
 72
    1
  1
2"
  7
iso
210
0
220
0
230
1
 50
0
 73
    2
 44
1
  0
MTEXT
  5
1B0
100
AcDbEntity
  8
Dimension
  6
ByLayer
 62
  256
370
   -1
100
AcDbMText
 10
147.1099578125286
 20
137.0352594611358
 30
0
 40
2.5
 41
9.583333333333334
 71
    5
 72
    1
  1
1-1/8"
  7
iso
210
0
220
0
230
1
 50
0
 73
    2
 44
1
  0
MTEXT
  5
1B1
100
AcDbEntity
  8
Dimension
  6
ByLayer
 62
  256
370
   -1
100
AcDbMText
 10
109.6647377563277
 20
137.0352594611358
 30
0
 40
2.5
 41
2.361111111111111
 71
    5
 72
    1
  1
1"
  7
iso
210
0
220
0
230
1
 50
0
 73
    2
 44
1
  0
MTEXT
  5
1B2
100
AcDbEntity
  8
Dimension
  6
ByLayer
 62
  256
370
   -1
100
AcDbMText
 10
73.05963481677247
 20
136.7952259992371
 30
0
 40
2.5
 41
6.805555555555555
 71
    5
 72
    1
  1
7/8"
  7
iso
210
0
220
0
230
1
 50
0
 73
    2
 44
1
  0
LINE
  5
1B3
100
AcDbEntity
  8
Toolpath
  6
ByLayer
 62
  256
370
   -1
100
AcDbLine
 10
167.7073877618398
 20
106.0966499829993
 11
200.7073877618398
 21
106.0966499829993
  0
LINE
  5
1B4
100
AcDbEntity
  8
Toolpath
  6
ByLayer
 62
  256
370
   -1
100
AcDbLine
 10
167.7073877618398
 20
108.5762534201722
 11
200.7073877618398
 21
108.5762534201722
  0
LINE
  5
1B5
100
AcDbEntity
  8
Toolpath
  6
ByLayer
 62
  256
370
   -1
100
AcDbLine
 10
204.7073877618398
 20
106.4206767044134
 11
237.7073877618398
 21
106.4206767044134
  0
LINE
  5
1B6
100
AcDbEntity
  8
Toolpath
  6
ByLayer
 62
  256
370
   -1
100
AcDbLine
 10
204.7073877618398
 20
109.2243068630004
 11
237.7073877618398
 21
109.2243068630004
  0
LINE
  5
1B7
100
AcDbEntity
  8
Toolpath
  6
ByLayer
 62
  256
370
   -1
100
AcDbLine
 10
130.7073877618398
 20
105.8421785401305
 11
163.7073877618398
 21
105.8421785401305
  0
LINE
  5
1B8
100
AcDbEntity
  8
Toolpath
  6
ByLayer
 62
  256
370
   -1
100
AcDbLine
 10
130.7073877618398
 20
108.0673105344347
 11
163.7073877618398
 21
108.0673105344347
  0
LINE
  5
1B9
100
AcDbEntity
  8
Toolpath
  6
ByLayer
 62
  256
370
   -1
100
AcDbLine
 10
93.70738776183981
 20
105.6488312126581
 11
126.7073877618398
 21
105.6488312126581
  0
LINE
  5
1BA
100
AcDbEntity
  8
Toolpath
  6
ByLayer
 62
  256
370
   -1
100
AcDbLine
 10
93.70738776183981
 20
107.68061587949
 11
126.7073877618398
 21
107.68061587949
  0
LINE
  5
1BB
100
AcDbEntity
  8
Toolpath
  6
ByLayer
 62
  256
370
   -1
100
AcDbLine
 10
56.70738776183981
 20
107.1173706881232
 11
89.70738776183981
 21
107.1173706881232
  0
MTEXT
  5
1BC
100
AcDbEntity
  8
Dimension
  6
ByLayer
 62
  256
370
   -1
100
AcDbMText
 10
101.3381828985237
 20
90.95413554603959
 30
0
 40
1.5
 41
19.75000000000028
 71
    1
 72
    1
  3
G21 (mm mode)\PG97 S610 (610 RPM)\PG00 X-18.21 Y-25\P\PG91 (incremental)\PF203.2 (F8)\PG01 Y33\PF1270 (F50)\PG01 X-1\PG01 Y-33\PG90 (absolute)\PG01 X-16.17 Y-25\PG91 (incremental)\PF203.2 (F8)\PG01 Y33\PG90 (absolute)\PF1270 (F50)\PG01 X-17.25 Y-13.1
  1
9\PG91 (incremental)\PF203.2 (F8)\PG03 Y9.37 R4.76\PG90 (absolute)\PF1270 (F50)\PG01 X-18.21 Y-25
  7
iso
210
0
220
0
230
1
 50
0
 73
    2
 44
1
  0
MTEXT
  5
1BD
100
AcDbEntity
  8
Dimension
  6
ByLayer
 62
  256
370
   -1
100
AcDbMText
 10
136.6889738485066
 20
90.17590857085179
 30
0
 40
1.5
 41
20.25000000000037
 71
    1
 72
    1
  3
G21 (mm mode)\PG97 S610 (610 RPM)\PG00 X-18.01 Y-25\P\PG91 (incremental)\PF203.2 (F8)\PG01 Y33\PF1270 (F50)\PG01 X-1\PG01 Y-33\PG90 (absolute)\PG01 X-15.79 Y-25\PG91 (incremental)\PF203.2 (F8)\PG01 Y33\PG90 (absolute)\PF1270 (F50)\PG01 X-17.25 Y-14.3
  1
6\PG91 (incremental)\PF203.2 (F8)\PG03 Y11.73 R6.35\PG90 (absolute)\PF1270 (F50)\PG01 X-18.01 Y-25
  7
iso
210
0
220
0
230
1
 50
0
 73
    2
 44
1
  0
MTEXT
  5
1BE
100
AcDbEntity
  8
Dimension
  6
ByLayer
 62
  256
370
   -1
100
AcDbMText
 10
175.8383094735556
 20
90.81178287388465
 30
0
 40
1.5
 41
20.08333333333361
 71
    1
 72
    1
  3
G21 (mm mode)\PG97 S610 (610 RPM)\PG00 X-17.76 Y-25\P\PG91 (incremental)\PF203.2 (F8)\PG01 Y33\PF1270 (F50)\PG01 X-1\PG01 Y-33\PG90 (absolute)\PG01 X-15.28 Y-25\PG91 (incremental)\PF203.2 (F8)\PG01 Y33\PG90 (absolute)\PF1270 (F50)\PG01 X-17.25 Y-16.2
  1
0\PG91 (incremental)\PF203.2 (F8)\PG03 Y15.39 R9.53\PG90 (absolute)\PF1270 (F50)\PG01 X-17.76 Y-25
  7
iso
210
0
220
0
230
1
 50
0
 73
    2
 44
1
  0
MTEXT
  5
1BF
100
AcDbEntity
  8
Dimension
  6
ByLayer
 62
  256
370
   -1
100
AcDbMText
 10
212.6954011540344
 20
91.0504671029545
 30
0
 40
1.5
 41
19.75000000000027
 71
    1
 72
    1
  3
G21 (mm mode)\PG97 S610 (610 RPM)\PG00 X-17.43 Y-25\P\PG91 (incremental)\PF203.2 (F8)\PG01 Y33\PF1270 (F50)\PG01 X-1\PG01 Y-33\PG90 (absolute)\PG01 X-14.63 Y-25\PG91 (incremental)\PF203.2 (F8)\PG01 Y33\PG90 (absolute)\PF1270 (F50)\PG01 X-17.25 Y-19.5
  1
1\PG91 (incremental)\PF203.2 (F8)\PG03 Y22.03 R17.46\PG90 (absolute)\PF1270 (F50)\PG01 X-17.43 Y-25
  7
iso
210
0
220
0
230
1
 50
0
 73
    2
 44
1
  0
MTEXT
  5
1C0
100
AcDbEntity
  8
Dimension
  6
ByLayer
 62
  256
370
   -1
100
AcDbMText
 10
64.50636189778491
 20
91.02604569992909
 30
0
 40
1.5
 41
19.75000000000028
 71
    1
 72
    1
  1
G21 (mm mode)\PG97 S610 (610 RPM)\PG00 X-16.73 Y-25\P\PG91 (incremental)\PF203.2 (F8)\PG01 Y33\PG90 (absolute)\PF1270 (F50)\PG01 X-17.25 Y-11.59\PG91 (incremental)\PF203.2 (F8)\PG03 Y6.18 R-3.17\PG90 (absolute)\PF1270 (F50)\PG01 X-16.73 Y-25
  7
iso
210
0
220
0
230
1
 50
0
 73
    2
 44
1
  0
MTEXT
  5
1C1
100
AcDbEntity
  8
Dimension
  6
ByLayer
 62
  256
370
   -1
100
AcDbMText
 10
31.38920157853504
 20
189.417595732539
 30
0
 40
2.5
 41
44.5833322733229
 71
    4
 72
    1
  1
TOOL:\P5/8" 4FL HSSCo END MILL
  7
iso
210
0
220
0
230
1
 50
0
 73
    2
 44
1
  0
ENDSEC
  0
SECTION
  2
OBJECTS
  0
DICTIONARY
  5
C
330
0
100
AcDbDictionary
281
    1
  3
ACAD_GROUP
350
D
  0
DICTIONARY
  5
D
330
C
100
AcDbDictionary
281
    1
  0
ENDSEC
  0
EOF
