999
dxfrw 0.6.3
  0
SECTION
  2
HEADER
  9
$ACADVER
  1
AC1021
  9
$DWGCODEPAGE
  3
ANSI_1252
  9
$INSBASE
 10
0
 20
0
 30
0
  9
$EXTMIN
 10
-1.224646799147353e-15
 20
0
 30
0
  9
$EXTMAX
 10
279.4
 20
215.9
 30
0
  9
$LIMMIN
 10
0
 20
0
  9
$LIMMAX
 10
420
 20
297
  9
$ORTHOMODE
 70
    0
  9
$REGENMODE
 70
    1
  9
$FILLMODE
 70
    1
  9
$QTEXTMODE
 70
    0
  9
$MIRRTEXT
 70
    0
  9
$LTSCALE
 40
1
  9
$ATTMODE
 70
    0
  9
$TEXTSIZE
 40
2.5
  9
$TRACEWID
 40
15.68
  9
$TEXTSTYLE
  7
STANDARD
  9
$CLAYER
  8
Hatching
  9
$CELTYPE
  6
BYLAYER
  9
$CECOLOR
 62
  256
  9
$CELTSCALE
 40
1
  9
$DISPSILH
 70
    0
  9
$DIMSCALE
 40
1
  9
$DIMASZ
 40
2.5
  9
$DIMEXO
 40
0.625
  9
$DIMDLI
 40
3.75
  9
$DIMRND
 40
0
  9
$DIMDLE
 40
0
  9
$DIMEXE
 40
1.25
  9
$DIMTP
 40
0
  9
$DIMTM
 40
0
  9
$DIMTXT
 40
2.5
  9
$DIMCEN
 40
2.5
  9
$DIMTSZ
 40
0
  9
$DIMTOL
 70
    0
  9
$DIMLIM
 70
    0
  9
$DIMTIH
 70
    1
  9
$DIMTOH
 70
    0
  9
$DIMSE1
 70
    0
  9
$DIMSE2
 70
    0
  9
$DIMTAD
 70
    1
  9
$DIMZIN
 70
    9
  9
$DIMBLK
  1

  9
$DIMASO
 70
    1
  9
$DIMSHO
 70
    1
  9
$DIMPOST
  1

  9
$DIMAPOST
  1

  9
$DIMALT
 70
    0
  9
$DIMALTD
 70
    3
  9
$DIMALTF
 40
0.03937
  9
$DIMLFAC
 40
1
  9
$DIMTOFL
 70
    1
  9
$DIMTVP
 40
0
  9
$DIMTIX
 70
    0
  9
$DIMSOXD
 70
    0
  9
$DIMSAH
 70
    0
  9
$DIMBLK1
  1

  9
$DIMBLK2
  1

  9
$DIMSTYLE
  2
STANDARD
  9
$DIMCLRD
 70
    0
  9
$DIMCLRE
 70
    0
  9
$DIMCLRT
 70
    0
  9
$DIMTFAC
 40
1
  9
$DIMGAP
 40
0.625
  9
$DIMJUST
 70
    0
  9
$DIMSD1
 70
    0
  9
$DIMSD2
 70
    0
  9
$DIMTOLJ
 70
    0
  9
$DIMTZIN
 70
    8
  9
$DIMALTZ
 70
    0
  9
$DIMALTTZ
 70
    0
  9
$DIMUPT
 70
    0
  9
$DIMDEC
 70
    2
  9
$DIMTDEC
 70
    2
  9
$DIMALTU
 70
    2
  9
$DIMALTTD
 70
    3
  9
$DIMTXSTY
  7
standard
  9
$DIMAUNIT
 70
    0
  9
$DIMADEC
 70
    2
  9
$DIMALTRND
 40
0
  9
$DIMAZIN
 70
    0
  9
$DIMDSEP
 70
    0
  9
$DIMATFIT
 70
    3
  9
$DIMFRAC
 70
    0
  9
$DIMLDRBLK
  1
STANDARD
  9
$DIMLUNIT
 70
    2
  9
$DIMLWD
 70
   -2
  9
$DIMLWE
 70
   -2
  9
$DIMTMOVE
 70
    0
  9
$DIMFXL
 40
1
  9
$DIMFXLON
 70
    0
  9
$DIMJOGANG
 40
0.7854
  9
$DIMTFILL
 70
    0
  9
$DIMTFILLCLR
 70
    0
  9
$DIMARCSYM
 70
    0
  9
$DIMLTYPE
  6

  9
$DIMLTEX1
  6

  9
$DIMLTEX2
  6

  9
$LUNITS
 70
    2
  9
$LUPREC
 70
    4
  9
$SKETCHINC
 40
1
  9
$FILLETRAD
 40
0
  9
$AUNITS
 70
    0
  9
$AUPREC
 70
    2
  9
$MENU
  1
.
  9
$ELEVATION
 40
0
  9
$PELEVATION
 40
0
  9
$THICKNESS
 40
0
  9
$LIMCHECK
 70
    0
  9
$CHAMFERA
 40
0
  9
$CHAMFERB
 40
0
  9
$CHAMFERC
 40
0
  9
$CHAMFERD
 40
0
  9
$SKPOLY
 70
    0
  9
$USRTIMER
 70
    1
  9
$ANGBASE
 50
0
  9
$ANGDIR
 70
    0
  9
$PDMODE
 70
   34
  9
$PDSIZE
 40
0
  9
$PLINEWID
 40
0
  9
$SPLFRAME
 70
    0
  9
$SPLINETYPE
 70
    2
  9
$SPLINESEGS
 70
    8
  9
$HANDSEED
  5
20000
  9
$SURFTAB1
 70
    6
  9
$SURFTAB2
 70
    6
  9
$SURFTYPE
 70
    6
  9
$SURFU
 70
    6
  9
$SURFV
 70
    6
  9
$UCSBASE
  2

  9
$UCSNAME
  2

  9
$UCSORG
 10
0
 20
0
 30
0
  9
$UCSXDIR
 10
1
 20
0
 30
0
  9
$UCSYDIR
 10
0
 20
1
 30
0
  9
$UCSORTHOREF
  2

  9
$UCSORTHOVIEW
 70
    0
  9
$UCSORGTOP
 10
0
 20
0
 30
0
  9
$UCSORGBOTTOM
 10
0
 20
0
 30
0
  9
$UCSORGLEFT
 10
0
 20
0
 30
0
  9
$UCSORGRIGHT
 10
0
 20
0
 30
0
  9
$UCSORGFRONT
 10
0
 20
0
 30
0
  9
$UCSORGBACK
 10
0
 20
0
 30
0
  9
$PUCSBASE
  2

  9
$PUCSNAME
  2

  9
$PUCSORG
 10
0
 20
0
 30
0
  9
$PUCSXDIR
 10
1
 20
0
 30
0
  9
$PUCSYDIR
 10
0
 20
1
 30
0
  9
$PUCSORTHOREF
  2

  9
$PUCSORTHOVIEW
 70
    0
  9
$PUCSORGTOP
 10
0
 20
0
 30
0
  9
$PUCSORGBOTTOM
 10
0
 20
0
 30
0
  9
$PUCSORGLEFT
 10
0
 20
0
 30
0
  9
$PUCSORGRIGHT
 10
0
 20
0
 30
0
  9
$PUCSORGFRONT
 10
0
 20
0
 30
0
  9
$PUCSORGBACK
 10
0
 20
0
 30
0
  9
$USERI1
 70
    0
  9
$USERI2
 70
    0
  9
$USERI3
 70
    0
  9
$USERI4
 70
    0
  9
$USERI5
 70
    0
  9
$USERR1
 40
0
  9
$USERR2
 40
0
  9
$USERR3
 40
0
  9
$USERR4
 40
0
  9
$USERR5
 40
0
  9
$WORLDVIEW
 70
    1
  9
$SHADEDGE
 70
    3
  9
$SHADEDIF
 70
   70
  9
$TILEMODE
 70
    1
  9
$MAXACTVP
 70
   64
  9
$PINSBASE
 10
1.224646799147353e-15
 20
0
 30
0
  9
$PLIMCHECK
 70
    0
  9
$PEXTMIN
 10
0
 20
0
 30
0
  9
$PEXTMAX
 10
0
 20
0
 30
0
  9
$GRIDMODE
 70
    1
  9
$SNAPSTYLE
 70
    0
  9
$GRIDUNIT
 10
0
 20
0
  9
$PLIMMIN
 10
0
 20
0
  9
$PLIMMAX
 10
279.4
 20
215.9
  9
$UNITMODE
 70
    0
  9
$VISRETAIN
 70
    1
  9
$PLINEGEN
 70
    0
  9
$PSLTSCALE
 70
    1
  9
$TREEDEPTH
 70
 3020
  9
$CMLSTYLE
  2
Standard
  9
$CMLJUST
 70
    0
  9
$CMLSCALE
 40
20
  9
$PROXYGRAPHICS
 70
    1
  9
$MEASUREMENT
 70
    1
  9
$CELWEIGHT
370
   -1
  9
$ENDCAPS
280
    0
  9
$JOINSTYLE
280
    0
  9
$LWDISPLAY
290
    0
  9
$INSUNITS
 70
    4
  9
$HYPERLINKBASE
  1

  9
$STYLESHEET
  1

  9
$XEDIT
290
    1
  9
$CEPSNTYPE
380
    0
  9
$PSTYLEMODE
290
    1
  9
$EXTNAMES
290
    1
  9
$PSVPSCALE
 40
1
  9
$OLESTARTUP
290
    0
  9
$SORTENTS
280
  127
  9
$INDEXCTL
280
    0
  9
$HIDETEXT
280
    1
  9
$XCLIPFRAME
290
    0
  9
$HALOGAP
280
    0
  9
$OBSCOLOR
 70
  257
  9
$OBSLTYPE
280
    0
  9
$INTERSECTIONDISPLAY
280
    0
  9
$INTERSECTIONCOLOR
 70
  257
  9
$DIMASSOC
280
    1
  9
$PROJECTNAME
  1

  9
$CAMERADISPLAY
290
    0
  9
$LENSLENGTH
 40
50
  9
$CAMERAHEIGHT
 40
0
  9
$STEPSPERSEC
 40
2
  9
$STEPSIZE
 40
50
  9
$3DDWFPREC
 40
2
  9
$PSOLWIDTH
 40
5
  9
$PSOLHEIGHT
 40
80
  9
$LOFTANG1
 40
1.570796326794897
  9
$LOFTANG2
 40
1.570796326794897
  9
$LOFTMAG1
 40
0
  9
$LOFTMAG2
 40
0
  9
$LOFTPARAM
 70
    7
  9
$LOFTNORMALS
280
    1
  9
$LATITUDE
 40
1
  9
$LONGITUDE
 40
1
  9
$NORTHDIRECTION
 40
0
  9
$TIMEZONE
 70
-8000
  9
$LIGHTGLYPHDISPLAY
280
    1
  9
$TILEMODELIGHTSYNCH
280
    1
  9
$SOLIDHIST
280
    1
  9
$SHOWHIST
280
    1
  9
$DWFFRAME
280
    2
  9
$DGNFRAME
280
    0
  9
$REALWORLDSCALE
290
    1
  9
$INTERFERECOLOR
 62
    1
  9
$CSHADOW
280
    0
  9
$SHADOWPLANELOCATION
 40
0
  0
ENDSEC
  0
SECTION
  2
CLASSES
  0
ENDSEC
  0
SECTION
  2
TABLES
  0
TABLE
  2
VPORT
  5
8
330
0
100
AcDbSymbolTable
 70
    1
  0
VPORT
  5
31
330
2
100
AcDbSymbolTableRecord
100
AcDbViewportTableRecord
  2
*ACTIVE
 70
    0
 10
0
 20
0
 11
1
 21
1
 12
138.1610223010943
 22
100.5724230021901
 13
0
 23
0
 14
10
 24
10
 15
10
 25
10
 16
0
 26
0
 36
1
 17
0
 27
0
 37
0
 40
103.2311288062589
 41
1.635879218472469
 42
50
 43
0
 44
0
 50
0
 51
0
 71
    0
 72
  100
 73
    1
 74
    3
 75
    0
 76
    1
 77
    0
 78
    0
281
    0
 65
    1
110
0
120
0
130
0
111
1
121
0
131
0
112
0
122
1
132
0
 79
    0
146
0
348
10020
 60
    7
 61
    5
292
1
282
    1
141
0
142
0
 63
  250
421
3358443
  0
ENDTAB
  0
TABLE
  2
LTYPE
  5
5
330
0
100
AcDbSymbolTable
 70
    4
  0
LTYPE
  5
14
330
5
100
AcDbSymbolTableRecord
100
AcDbLinetypeTableRecord
  2
ByBlock
 70
    0
  3

 72
   65
 73
    0
 40
0
  0
LTYPE
  5
15
330
5
100
AcDbSymbolTableRecord
100
AcDbLinetypeTableRecord
  2
ByLayer
 70
    0
  3

 72
   65
 73
    0
 40
0
  0
LTYPE
  5
16
330
5
100
AcDbSymbolTableRecord
100
AcDbLinetypeTableRecord
  2
Continuous
 70
    0
  3
Solid line
 72
   65
 73
    0
 40
0
  0
LTYPE
  5
32
330
5
100
AcDbSymbolTableRecord
100
AcDbLinetypeTableRecord
  2
DOT
 70
    0
  3
Dot . . . . . . . . . . . . . . . . . . . . . .
 72
   65
 73
    2
 40
6.35
 49
0
 74
    0
 49
-6.35
 74
    0
  0
LTYPE
  5
33
330
5
100
AcDbSymbolTableRecord
100
AcDbLinetypeTableRecord
  2
DOTTINY
 70
    0
  3
Dot (.15x) .....................................
 72
   65
 73
    2
 40
0.9525
 49
0
 74
    0
 49
-0.9525
 74
    0
  0
LTYPE
  5
34
330
5
100
AcDbSymbolTableRecord
100
AcDbLinetypeTableRecord
  2
DOT2
 70
    0
  3
Dot (.5x) .....................................
 72
   65
 73
    2
 40
3.175
 49
0
 74
    0
 49
-3.175
 74
    0
  0
LTYPE
  5
35
330
5
100
AcDbSymbolTableRecord
100
AcDbLinetypeTableRecord
  2
DOTX2
 70
    0
  3
Dot (2x) .  .  .  .  .  .  .  .  .  .  .  .  .
 72
   65
 73
    2
 40
12.7
 49
0
 74
    0
 49
-12.7
 74
    0
  0
LTYPE
  5
36
330
5
100
AcDbSymbolTableRecord
100
AcDbLinetypeTableRecord
  2
DASHED
 70
    0
  3
Dashed _ _ _ _ _ _ _ _ _ _ _ _ _ _ _ _ _
 72
   65
 73
    2
 40
19.05
 49
12.7
 74
    0
 49
-6.35
 74
    0
  0
LTYPE
  5
37
330
5
100
AcDbSymbolTableRecord
100
AcDbLinetypeTableRecord
  2
DASHEDTINY
 70
    0
  3
Dashed (.15x) _ _ _ _ _ _ _ _ _ _ _ _ _ _ _ _ _
 72
   65
 73
    2
 40
2.8575
 49
1.905
 74
    0
 49
-0.9525
 74
    0
  0
LTYPE
  5
38
330
5
100
AcDbSymbolTableRecord
100
AcDbLinetypeTableRecord
  2
DASHED2
 70
    0
  3
Dashed (.5x) _ _ _ _ _ _ _ _ _ _ _ _ _ _ _ _ _
 72
   65
 73
    2
 40
9.524999999999999
 49
6.35
 74
    0
 49
-3.175
 74
    0
  0
LTYPE
  5
39
330
5
100
AcDbSymbolTableRecord
100
AcDbLinetypeTableRecord
  2
DASHEDX2
 70
    0
  3
Dashed (2x) ____  ____  ____  ____  ____  ___
 72
   65
 73
    2
 40
38.09999999999999
 49
25.4
 74
    0
 49
-12.7
 74
    0
  0
LTYPE
  5
3A
330
5
100
AcDbSymbolTableRecord
100
AcDbLinetypeTableRecord
  2
DASHDOT
 70
    0
  3
Dash dot __ . __ . __ . __ . __ . __ . __ . __
 72
   65
 73
    4
 40
25.4
 49
12.7
 74
    0
 49
-6.35
 74
    0
 49
0
 74
    0
 49
-6.35
 74
    0
  0
LTYPE
  5
3B
330
5
100
AcDbSymbolTableRecord
100
AcDbLinetypeTableRecord
  2
DASHDOTTINY
 70
    0
  3
Dash dot (.15x) _._._._._._._._._._._._._._._.
 72
   65
 73
    4
 40
3.81
 49
1.905
 74
    0
 49
-0.9525
 74
    0
 49
0
 74
    0
 49
-0.9525
 74
    0
  0
LTYPE
  5
3C
330
5
100
AcDbSymbolTableRecord
100
AcDbLinetypeTableRecord
  2
DASHDOT2
 70
    0
  3
Dash dot (.5x) _._._._._._._._._._._._._._._.
 72
   65
 73
    4
 40
12.7
 49
6.35
 74
    0
 49
-3.175
 74
    0
 49
0
 74
    0
 49
-3.175
 74
    0
  0
LTYPE
  5
3D
330
5
100
AcDbSymbolTableRecord
100
AcDbLinetypeTableRecord
  2
DASHDOTX2
 70
    0
  3
Dash dot (2x) ____  .  ____  .  ____  .  ___
 72
   65
 73
    4
 40
50.8
 49
25.4
 74
    0
 49
-12.7
 74
    0
 49
0
 74
    0
 49
-12.7
 74
    0
  0
LTYPE
  5
3E
330
5
100
AcDbSymbolTableRecord
100
AcDbLinetypeTableRecord
  2
DIVIDE
 70
    0
  3
Divide ____ . . ____ . . ____ . . ____ . . ____
 72
   65
 73
    6
 40
31.75
 49
12.7
 74
    0
 49
-6.35
 74
    0
 49
0
 74
    0
 49
-6.35
 74
    0
 49
0
 74
    0
 49
-6.35
 74
    0
  0
LTYPE
  5
3F
330
5
100
AcDbSymbolTableRecord
100
AcDbLinetypeTableRecord
  2
DIVIDETINY
 70
    0
  3
Divide (.15x) __..__..__..__..__..__..__..__.._
 72
   65
 73
    6
 40
4.7625
 49
1.905
 74
    0
 49
-0.9525
 74
    0
 49
0
 74
    0
 49
-0.9525
 74
    0
 49
0
 74
    0
 49
-0.9525
 74
    0
  0
LTYPE
  5
40
330
5
100
AcDbSymbolTableRecord
100
AcDbLinetypeTableRecord
  2
DIVIDE2
 70
    0
  3
Divide (.5x) __..__..__..__..__..__..__..__.._
 72
   65
 73
    6
 40
15.875
 49
6.35
 74
    0
 49
-3.175
 74
    0
 49
0
 74
    0
 49
-3.175
 74
    0
 49
0
 74
    0
 49
-3.175
 74
    0
  0
LTYPE
  5
41
330
5
100
AcDbSymbolTableRecord
100
AcDbLinetypeTableRecord
  2
DIVIDEX2
 70
    0
  3
Divide (2x) ________  .  .  ________  .  .  _
 72
   65
 73
    6
 40
63.5
 49
25.4
 74
    0
 49
-12.7
 74
    0
 49
0
 74
    0
 49
-12.7
 74
    0
 49
0
 74
    0
 49
-12.7
 74
    0
  0
LTYPE
  5
42
330
5
100
AcDbSymbolTableRecord
100
AcDbLinetypeTableRecord
  2
BORDER
 70
    0
  3
Border __ __ . __ __ . __ __ . __ __ . __ __ .
 72
   65
 73
    6
 40
44.45
 49
12.7
 74
    0
 49
-6.35
 74
    0
 49
12.7
 74
    0
 49
-6.35
 74
    0
 49
0
 74
    0
 49
-6.35
 74
    0
  0
LTYPE
  5
43
330
5
100
AcDbSymbolTableRecord
100
AcDbLinetypeTableRecord
  2
BORDERTINY
 70
    0
  3
Border (.15x) __.__.__.__.__.__.__.__.__.__.__.
 72
   65
 73
    6
 40
6.6675
 49
1.905
 74
    0
 49
-0.9525
 74
    0
 49
1.905
 74
    0
 49
-0.9525
 74
    0
 49
0
 74
    0
 49
-0.9525
 74
    0
  0
LTYPE
  5
44
330
5
100
AcDbSymbolTableRecord
100
AcDbLinetypeTableRecord
  2
BORDER2
 70
    0
  3
Border (.5x) __.__.__.__.__.__.__.__.__.__.__.
 72
   65
 73
    6
 40
22.225
 49
6.35
 74
    0
 49
-3.175
 74
    0
 49
6.35
 74
    0
 49
-3.175
 74
    0
 49
0
 74
    0
 49
-3.175
 74
    0
  0
LTYPE
  5
45
330
5
100
AcDbSymbolTableRecord
100
AcDbLinetypeTableRecord
  2
BORDERX2
 70
    0
  3
Border (2x) ____  ____  .  ____  ____  .  ___
 72
   65
 73
    6
 40
88.89999999999999
 49
25.4
 74
    0
 49
-12.7
 74
    0
 49
25.4
 74
    0
 49
-12.7
 74
    0
 49
0
 74
    0
 49
-12.7
 74
    0
  0
LTYPE
  5
46
330
5
100
AcDbSymbolTableRecord
100
AcDbLinetypeTableRecord
  2
CENTER
 70
    0
  3
Center ____ _ ____ _ ____ _ ____ _ ____ _ ____
 72
   65
 73
    4
 40
50.8
 49
31.75
 74
    0
 49
-6.35
 74
    0
 49
6.35
 74
    0
 49
-6.35
 74
    0
  0
LTYPE
  5
47
330
5
100
AcDbSymbolTableRecord
100
AcDbLinetypeTableRecord
  2
CENTERTINY
 70
    0
  3
Center (.15x) ___ _ ___ _ ___ _ ___ _ ___ _ ___
 72
   65
 73
    4
 40
7.619999999999999
 49
4.7625
 74
    0
 49
-0.9525
 74
    0
 49
0.9525
 74
    0
 49
-0.9525
 74
    0
  0
LTYPE
  5
48
330
5
100
AcDbSymbolTableRecord
100
AcDbLinetypeTableRecord
  2
CENTER2
 70
    0
  3
Center (.5x) ___ _ ___ _ ___ _ ___ _ ___ _ ___
 72
   65
 73
    4
 40
28.575
 49
19.05
 74
    0
 49
-3.175
 74
    0
 49
3.175
 74
    0
 49
-3.175
 74
    0
  0
LTYPE
  5
49
330
5
100
AcDbSymbolTableRecord
100
AcDbLinetypeTableRecord
  2
CENTERX2
 70
    0
  3
Center (2x) ________  __  ________  __  _____
 72
   65
 73
    4
 40
101.6
 49
63.5
 74
    0
 49
-12.7
 74
    0
 49
12.7
 74
    0
 49
-12.7
 74
    0
  0
ENDTAB
  0
TABLE
  2
LAYER
  5
2
330
0
100
AcDbSymbolTable
 70
    1
  0
LAYER
  5
10
330
2
100
AcDbSymbolTableRecord
100
AcDbLayerTableRecord
  2
0
 70
    0
 62
    7
  6
CONTINUOUS
370
   50
390
F
  0
LAYER
  5
4A
330
2
100
AcDbSymbolTableRecord
100
AcDbLayerTableRecord
  2
1
 70
    0
 62
    7
  6
CONTINUOUS
370
   50
390
F
  0
LAYER
  5
4B
330
2
100
AcDbSymbolTableRecord
100
AcDbLayerTableRecord
  2
2
 70
    0
 62
    7
  6
CONTINUOUS
370
   50
390
F
  0
LAYER
  5
4C
330
2
100
AcDbSymbolTableRecord
100
AcDbLayerTableRecord
  2
Center
 70
    0
 62
    7
  6
CENTERTINY
370
   25
390
F
  0
LAYER
  5
4D
330
2
100
AcDbSymbolTableRecord
100
AcDbLayerTableRecord
  2
Construction
 70
    0
 62
    6
  6
CONTINUOUS
290
0
370
   25
390
F
  0
LAYER
  5
4E
330
2
100
AcDbSymbolTableRecord
100
AcDbLayerTableRecord
  2
Dimension
 70
    0
 62
    7
  6
CONTINUOUS
370
   25
390
F
  0
LAYER
  5
4F
330
2
100
AcDbSymbolTableRecord
100
AcDbLayerTableRecord
  2
Frame
 70
    0
 62
    7
  6
CONTINUOUS
370
   25
390
F
  0
LAYER
  5
50
330
2
100
AcDbSymbolTableRecord
100
AcDbLayerTableRecord
  2
Hatching
 70
    0
 62
    7
  6
CONTINUOUS
370
   25
390
F
  0
LAYER
  5
51
330
2
100
AcDbSymbolTableRecord
100
AcDbLayerTableRecord
  2
Hidden
 70
    0
 62
    7
  6
DASHEDTINY
370
   25
390
F
  0
LAYER
  5
52
330
2
100
AcDbSymbolTableRecord
100
AcDbLayerTableRecord
  2
Logo
 70
    0
 62
    7
  6
CONTINUOUS
370
   70
390
F
  0
LAYER
  5
53
330
2
100
AcDbSymbolTableRecord
100
AcDbLayerTableRecord
  2
Notes
 70
    0
 62
    7
  6
CONTINUOUS
370
   25
390
F
  0
LAYER
  5
54
330
2
100
AcDbSymbolTableRecord
100
AcDbLayerTableRecord
  2
Paper Bounds
 70
    0
 62
    6
  6
CONTINUOUS
370
    0
390
F
  0
LAYER
  5
55
330
2
100
AcDbSymbolTableRecord
100
AcDbLayerTableRecord
  2
Phantom
 70
    0
 62
    7
  6
DASHEDTINY
370
   25
390
F
  0
LAYER
  5
56
330
2
100
AcDbSymbolTableRecord
100
AcDbLayerTableRecord
  2
Title
 70
    0
 62
    7
  6
CONTINUOUS
370
   50
390
F
  0
LAYER
  5
57
330
2
100
AcDbSymbolTableRecord
100
AcDbLayerTableRecord
  2
section
 70
    0
 62
    7
  6
CENTERTINY
370
   70
390
F
  0
LAYER
  5
58
330
2
100
AcDbSymbolTableRecord
100
AcDbLayerTableRecord
  2
section solid
 70
    0
 62
    7
  6
CONTINUOUS
370
   70
390
F
  0
ENDTAB
  0
TABLE
  2
STYLE
  5
3
330
0
100
AcDbSymbolTable
 70
    3
  0
STYLE
  5
59
330
2
100
AcDbSymbolTableRecord
100
AcDbTextStyleTableRecord
  2
iso
 70
    0
 40
0
 41
1
 50
0
 71
    0
 42
1
  3
iso
  4

  0
STYLE
  5
5A
330
2
100
AcDbSymbolTableRecord
100
AcDbTextStyleTableRecord
  2
simplex
 70
    0
 40
0
 41
1
 50
0
 71
    0
 42
1
  3
simplex
  4

  0
STYLE
  5
5B
330
2
100
AcDbSymbolTableRecord
100
AcDbTextStyleTableRecord
  2
Standard
 70
    0
 40
0
 41
1
 50
0
 71
    0
 42
1
  3
txt
  4

  0
ENDTAB
  0
TABLE
  2
VIEW
  5
6
330
0
100
AcDbSymbolTable
 70
    0
  0
ENDTAB
  0
TABLE
  2
UCS
  5
7
330
0
100
AcDbSymbolTable
 70
    0
  0
ENDTAB
  0
TABLE
  2
APPID
  5
9
330
0
100
AcDbSymbolTable
 70
    1
  0
APPID
  5
12
330
9
100
AcDbSymbolTableRecord
100
AcDbRegAppTableRecord
  2
ACAD
 70
    0
  0
APPID
  5
5C
330
9
100
AcDbSymbolTableRecord
100
AcDbRegAppTableRecord
  2
LibreCad
 70
    0
  0
ENDTAB
  0
TABLE
  2
DIMSTYLE
  5
A
330
0
100
AcDbSymbolTable
 70
    1
100
AcDbDimStyleTable
 71
    1
  0
DIMSTYLE
105
5D
330
A
100
AcDbSymbolTableRecord
100
AcDbDimStyleTableRecord
  2
Standard
 70
    0
 40
1
 41
2.5
 42
0.625
 43
0.38
 44
1.25
 45
0
 46
0
 47
0
 48
0
 49
1
140
2.5
141
0.09
142
0
143
25.4
144
1
145
0
146
1
147
0.625
148
0
 71
    0
 72
    0
 73
    1
 74
    1
 75
    0
 76
    0
 77
    0
 78
    9
 79
    0
170
    0
171
    2
172
    0
173
    0
174
    0
175
    0
176
    0
177
    0
178
    0
179
    2
271
    2
272
    4
273
    2
274
    2
275
    0
276
    0
277
    2
278
    0
279
    0
280
    0
281
    0
282
    0
283
    1
284
    0
285
    0
286
    0
288
    0
289
    3
340
standard
341

371
   -2
372
   -2
  0
ENDTAB
  0
TABLE
  2
BLOCK_RECORD
  5
1
330
0
100
AcDbSymbolTable
 70
    2
  0
BLOCK_RECORD
  5
1F
330
1
100
AcDbSymbolTableRecord
100
AcDbBlockTableRecord
  2
*Model_Space
 70
    0
280
    1
281
    0
  0
BLOCK_RECORD
  5
1E
330
1
100
AcDbSymbolTableRecord
100
AcDbBlockTableRecord
  2
*Paper_Space
 70
    0
280
    1
281
    0
  0
BLOCK_RECORD
  5
5E
330
1
100
AcDbSymbolTableRecord
100
AcDbBlockTableRecord
  2
*D6
 70
    0
280
    1
281
    0
  0
BLOCK_RECORD
  5
61
330
1
100
AcDbSymbolTableRecord
100
AcDbBlockTableRecord
  2
*D12
 70
    0
280
    1
281
    0
  0
BLOCK_RECORD
  5
64
330
1
100
AcDbSymbolTableRecord
100
AcDbBlockTableRecord
  2
*D3
 70
    0
280
    1
281
    0
  0
BLOCK_RECORD
  5
67
330
1
100
AcDbSymbolTableRecord
100
AcDbBlockTableRecord
  2
*D4
 70
    0
280
    1
281
    0
  0
BLOCK_RECORD
  5
6A
330
1
100
AcDbSymbolTableRecord
100
AcDbBlockTableRecord
  2
*D7
 70
    0
280
    1
281
    0
  0
BLOCK_RECORD
  5
6D
330
1
100
AcDbSymbolTableRecord
100
AcDbBlockTableRecord
  2
*D5
 70
    0
280
    1
281
    0
  0
BLOCK_RECORD
  5
70
330
1
100
AcDbSymbolTableRecord
100
AcDbBlockTableRecord
  2
*D13
 70
    0
280
    1
281
    0
  0
BLOCK_RECORD
  5
73
330
1
100
AcDbSymbolTableRecord
100
AcDbBlockTableRecord
  2
*D9
 70
    0
280
    1
281
    0
  0
BLOCK_RECORD
  5
76
330
1
100
AcDbSymbolTableRecord
100
AcDbBlockTableRecord
  2
*D11
 70
    0
280
    1
281
    0
  0
BLOCK_RECORD
  5
79
330
1
100
AcDbSymbolTableRecord
100
AcDbBlockTableRecord
  2
*D2
 70
    0
280
    1
281
    0
  0
BLOCK_RECORD
  5
7C
330
1
100
AcDbSymbolTableRecord
100
AcDbBlockTableRecord
  2
*D1
 70
    0
280
    1
281
    0
  0
BLOCK_RECORD
  5
7F
330
1
100
AcDbSymbolTableRecord
100
AcDbBlockTableRecord
  2
*D10
 70
    0
280
    1
281
    0
  0
BLOCK_RECORD
  5
82
330
1
100
AcDbSymbolTableRecord
100
AcDbBlockTableRecord
  2
*D8
 70
    0
280
    1
281
    0
  0
BLOCK_RECORD
  5
85
330
1
100
AcDbSymbolTableRecord
100
AcDbBlockTableRecord
  2
*D14
 70
    0
280
    1
281
    0
  0
BLOCK_RECORD
  5
88
330
1
100
AcDbSymbolTableRecord
100
AcDbBlockTableRecord
  2
Page Template
 70
    0
280
    1
281
    0
  0
BLOCK_RECORD
  5
8B
330
1
100
AcDbSymbolTableRecord
100
AcDbBlockTableRecord
  2
fixture_view1
 70
    0
280
    1
281
    0
  0
BLOCK_RECORD
  5
8E
330
1
100
AcDbSymbolTableRecord
100
AcDbBlockTableRecord
  2
fixture_view2
 70
    0
280
    1
281
    0
  0
ENDTAB
  0
ENDSEC
  0
SECTION
  2
BLOCKS
  0
BLOCK
  5
20
330
1F
100
AcDbEntity
  8
0
100
AcDbBlockBegin
  2
*Model_Space
 70
    0
 10
0
 20
0
 30
0
  3
*Model_Space
  1

  0
ENDBLK
  5
21
330
1F
100
AcDbEntity
  8
0
100
AcDbBlockEnd
  0
BLOCK
  5
1C
330
1B
100
AcDbEntity
  8
0
100
AcDbBlockBegin
  2
*Paper_Space
 70
    0
 10
0
 20
0
 30
0
  3
*Paper_Space
  1

  0
ENDBLK
  5
1D
330
1F
100
AcDbEntity
  8
0
100
AcDbBlockEnd
  0
BLOCK
  5
5F
330
5E
100
AcDbEntity
  8
0
100
AcDbBlockBegin
  2
*D6
 70
    1
 10
0
 20
0
  3
*D6
  1

  0
LINE
  5
91
100
AcDbEntity
  8
Dimension
  6
CONTINUOUS
 62
    7
370
    0
100
AcDbLine
 10
88.28532245144406
 20
114.4873404660554
 11
83.28681360015101
 21
106.2415847978249
  0
LINE
  5
92
100
AcDbEntity
  8
Dimension
  6
CONTINUOUS
 62
    7
370
    0
100
AcDbLine
 10
83.28681360015101
 20
106.2415847978249
 11
81.80970390958213
 21
106.2415847978249
  0
SOLID
  5
93
100
AcDbEntity
  8
Dimension
  6
CONTINUOUS
 62
    7
370
    0
100
AcDbTrace
 10
88.28532245144406
 20
114.4873404660554
 30
0
 11
87.34534820075679
 21
112.1336749578869
 31
0
 12
86.63337810937207
 22
112.5652653356317
 32
0
 13
86.63337810937207
 23
112.5652653356317
 33
0
  0
ENDBLK
  5
60
330
5E
100
AcDbEntity
  8
0
100
AcDbBlockEnd
  0
BLOCK
  5
62
330
61
100
AcDbEntity
  8
0
100
AcDbBlockBegin
  2
*D12
 70
    1
 10
0
 20
0
  3
*D12
  1

  0
SOLID
  5
94
100
AcDbEntity
  8
Dimension
  6
ByBlock
 62
    0
370
   -2
100
AcDbTrace
 10
183.1067339107019
 20
110
 30
0
 11
182.6904492529291
 21
112.5
 31
0
 12
183.5230185684748
 22
112.5
 32
0
 13
183.5230185684748
 23
112.5
 33
0
  0
SOLID
  5
95
100
AcDbEntity
  8
Dimension
  6
ByBlock
 62
    0
370
   -2
100
AcDbTrace
 10
183.1067339107019
 20
127
 30
0
 11
183.5230185684748
 21
124.5
 31
0
 12
182.6904492529291
 22
124.5
 32
0
 13
182.6904492529291
 23
124.5
 33
0
  0
LINE
  5
96
100
AcDbEntity
  8
Dimension
  6
ByLayer
 62
  256
370
   -1
100
AcDbLine
 10
183.1067339107019
 20
110
 11
183.1067339107019
 21
116.625
  0
LINE
  5
97
100
AcDbEntity
  8
Dimension
  6
ByLayer
 62
  256
370
   -1
100
AcDbLine
 10
183.1067339107019
 20
120.375
 11
183.1067339107019
 21
127
  0
MTEXT
  5
98
100
AcDbEntity
  8
Dimension
  6
CONTINUOUS
 62
    0
370
   -2
100
AcDbMText
 10
183.1067339107019
 20
118.5
 30
0
 40
2.5
 41
2.5
 71
    5
 72
    1
  1
17
  7
standard
210
0
220
0
230
1
 50
0
 73
    2
 44
1
  0
LINE
  5
99
100
AcDbEntity
  8
Dimension
  6
ByBlock
 62
    0
370
   -2
100
AcDbLine
 10
167.125
 20
110
 11
184.3567339107019
 21
110
  0
LINE
  5
9A
100
AcDbEntity
  8
Dimension
  6
ByBlock
 62
    0
370
   -2
100
AcDbLine
 10
145.475
 20
127
 11
184.3567339107019
 21
127
  0
ENDBLK
  5
63
330
61
100
AcDbEntity
  8
0
100
AcDbBlockEnd
  0
BLOCK
  5
65
330
64
100
AcDbEntity
  8
0
100
AcDbBlockBegin
  2
*D3
 70
    1
 10
0
 20
0
  3
*D3
  1

  0
SOLID
  5
9B
100
AcDbEntity
  8
Dimension
  6
ByBlock
 62
    0
370
   -2
100
AcDbTrace
 10
153.9
 20
90
 30
0
 11
151.4
 21
89.58371534222717
 31
0
 12
151.4
 22
90.41628465777283
 32
0
 13
151.4
 23
90.41628465777283
 33
0
  0
SOLID
  5
9C
100
AcDbEntity
  8
Dimension
  6
ByBlock
 62
    0
370
   -2
100
AcDbTrace
 10
165
 20
90
 30
0
 11
167.5
 21
90.41628465777283
 31
0
 12
167.5
 22
89.58371534222717
 32
0
 13
167.5
 23
89.58371534222717
 33
0
  0
LINE
  5
9D
100
AcDbEntity
  8
Dimension
  6
ByLayer
 62
  256
370
   -1
100
AcDbLine
 10
148.9
 20
90
 11
153.9
 21
90
  0
LINE
  5
9E
100
AcDbEntity
  8
Dimension
  6
ByLayer
 62
  256
370
   -1
100
AcDbLine
 10
170
 20
90
 11
165
 21
90
  0
MTEXT
  5
9F
100
AcDbEntity
  8
Dimension
  6
CONTINUOUS
 62
    0
370
   -2
100
AcDbMText
 10
159.45
 20
90
 30
0
 40
2.5
 41
4.166666666666667
 71
    5
 72
    1
  1
11.1
  7
standard
210
0
220
0
230
1
 50
0
 73
    2
 44
1
  0
LINE
  5
A0
100
AcDbEntity
  8
Dimension
  6
ByBlock
 62
    0
370
   -2
100
AcDbLine
 10
153.9
 20
105.375
 11
153.9
 21
88.75
  0
LINE
  5
A1
100
AcDbEntity
  8
Dimension
  6
ByBlock
 62
    0
370
   -2
100
AcDbLine
 10
165
 20
107.875
 11
165
 21
88.75
  0
ENDBLK
  5
66
330
64
100
AcDbEntity
  8
0
100
AcDbBlockEnd
  0
BLOCK
  5
68
330
67
100
AcDbEntity
  8
0
100
AcDbBlockBegin
  2
*D4
 70
    1
 10
0
 20
0
  3
*D4
  1

  0
SOLID
  5
A2
100
AcDbEntity
  8
Dimension
  6
ByBlock
 62
    0
370
   -2
100
AcDbTrace
 10
109.45
 20
80
 30
0
 11
111.95
 21
80.41628465777283
 31
0
 12
111.95
 22
79.58371534222717
 32
0
 13
111.95
 23
79.58371534222717
 33
0
  0
SOLID
  5
A3
100
AcDbEntity
  8
Dimension
  6
ByBlock
 62
    0
370
   -2
100
AcDbTrace
 10
134.85
 20
80
 30
0
 11
132.35
 21
79.58371534222717
 31
0
 12
132.35
 22
80.41628465777283
 32
0
 13
132.35
 23
80.41628465777283
 33
0
  0
LINE
  5
A4
100
AcDbEntity
  8
Dimension
  6
ByLayer
 62
  256
370
   -1
100
AcDbLine
 10
109.45
 20
80
 11
118.4694444444444
 21
80
  0
LINE
  5
A5
100
AcDbEntity
  8
Dimension
  6
ByLayer
 62
  256
370
   -1
100
AcDbLine
 10
125.8305555555556
 20
80
 11
134.85
 21
80
  0
MTEXT
  5
A6
100
AcDbEntity
  8
Dimension
  6
CONTINUOUS
 62
    0
370
   -2
100
AcDbMText
 10
122.15
 20
80
 30
0
 40
2.5
 41
6.111111111111267
 71
    5
 72
    1
  1
25.4
  7
standard
210
0
220
0
230
1
 50
0
 73
    2
 44
1
  0
LINE
  5
A7
100
AcDbEntity
  8
Dimension
  6
ByBlock
 62
    0
370
   -2
100
AcDbLine
 10
109.45
 20
121.375
 11
109.45
 21
78.75
  0
LINE
  5
A8
100
AcDbEntity
  8
Dimension
  6
ByBlock
 62
    0
370
   -2
100
AcDbLine
 10
134.85
 20
122.6836609221683
 11
134.85
 21
78.75
  0
ENDBLK
  5
69
330
67
100
AcDbEntity
  8
0
100
AcDbBlockEnd
  0
BLOCK
  5
6B
330
6A
100
AcDbEntity
  8
0
100
AcDbBlockBegin
  2
*D7
 70
    1
 10
0
 20
0
  3
*D7
  1

  0
LINE
  5
A9
100
AcDbEntity
  8
Dimension
  6
CONTINUOUS
 62
    7
370
    0
100
AcDbLine
 10
88.8995745915045
 20
111.2304377985458
 11
83.62768506720538
 21
101.8102557261182
  0
LINE
  5
AA
100
AcDbEntity
  8
Dimension
  6
CONTINUOUS
 62
    7
370
    0
100
AcDbLine
 10
83.62768506720538
 20
101.8102557261182
 11
81.46883244252777
 21
101.8102557261182
  0
SOLID
  5
AB
100
AcDbEntity
  8
Dimension
  6
CONTINUOUS
 62
    7
370
    0
100
AcDbTrace
 10
88.8995745915045
 20
111.2304377985458
 30
0
 11
88.04193478273919
 21
108.8455380365604
 31
0
 12
87.31540087562497
 22
109.2521338395411
 32
0
 13
87.31540087562497
 23
109.2521338395411
 33
0
  0
ENDBLK
  5
6C
330
6A
100
AcDbEntity
  8
0
100
AcDbBlockEnd
  0
BLOCK
  5
6E
330
6D
100
AcDbEntity
  8
0
100
AcDbBlockBegin
  2
*D5
 70
    1
 10
0
 20
0
  3
*D5
  1

  0
SOLID
  5
AC
100
AcDbEntity
  8
Dimension
  6
ByBlock
 62
    0
370
   -2
100
AcDbTrace
 10
134.85
 20
80
 30
0
 11
137.35
 21
80.41628465777283
 31
0
 12
137.35
 22
79.58371534222717
 32
0
 13
137.35
 23
79.58371534222717
 33
0
  0
SOLID
  5
AD
100
AcDbEntity
  8
Dimension
  6
ByBlock
 62
    0
370
   -2
100
AcDbTrace
 10
165
 20
80
 30
0
 11
162.5
 21
79.58371534222717
 31
0
 12
162.5
 22
80.41628465777283
 32
0
 13
162.5
 23
80.41628465777283
 33
0
  0
LINE
  5
AE
100
AcDbEntity
  8
Dimension
  6
ByLayer
 62
  256
370
   -1
100
AcDbLine
 10
134.85
 20
80
 11
145.6888888888888
 21
80
  0
LINE
  5
AF
100
AcDbEntity
  8
Dimension
  6
ByLayer
 62
  256
370
   -1
100
AcDbLine
 10
154.1611111111112
 20
80
 11
165
 21
80
  0
MTEXT
  5
B0
100
AcDbEntity
  8
Dimension
  6
CONTINUOUS
 62
    0
370
   -2
100
AcDbMText
 10
149.925
 20
80
 30
0
 40
2.5
 41
7.222222222222532
 71
    5
 72
    1
  1
30.15
  7
standard
210
0
220
0
230
1
 50
0
 73
    2
 44
1
  0
LINE
  5
B1
100
AcDbEntity
  8
Dimension
  6
ByBlock
 62
    0
370
   -2
100
AcDbLine
 10
134.85
 20
122.6836609221683
 11
134.85
 21
78.75
  0
LINE
  5
B2
100
AcDbEntity
  8
Dimension
  6
ByBlock
 62
    0
370
   -2
100
AcDbLine
 10
165
 20
107.875
 11
165
 21
78.75
  0
ENDBLK
  5
6F
330
6D
100
AcDbEntity
  8
0
100
AcDbBlockEnd
  0
BLOCK
  5
71
330
70
100
AcDbEntity
  8
0
100
AcDbBlockBegin
  2
*D13
 70
    1
 10
0
 20
0
  3
*D13
  1

  0
SOLID
  5
B3
100
AcDbEntity
  8
Dimension
  6
ByBlock
 62
    0
370
   -2
100
AcDbTrace
 10
190
 20
110
 30
0
 11
189.5837153422272
 21
112.5
 31
0
 12
190.4162846577728
 22
112.5
 32
0
 13
190.4162846577728
 23
112.5
 33
0
  0
SOLID
  5
B4
100
AcDbEntity
  8
Dimension
  6
ByBlock
 62
    0
370
   -2
100
AcDbTrace
 10
190
 20
182.8
 30
0
 11
190.4162846577728
 21
180.3
 31
0
 12
189.5837153422272
 22
180.3
 32
0
 13
189.5837153422272
 23
180.3
 33
0
  0
LINE
  5
B5
100
AcDbEntity
  8
Dimension
  6
ByLayer
 62
  256
370
   -1
100
AcDbLine
 10
190
 20
110
 11
190
 21
144.525
  0
LINE
  5
B6
100
AcDbEntity
  8
Dimension
  6
ByLayer
 62
  256
370
   -1
100
AcDbLine
 10
190
 20
148.275
 11
190
 21
182.8
  0
MTEXT
  5
B7
100
AcDbEntity
  8
Dimension
  6
CONTINUOUS
 62
    0
370
   -2
100
AcDbMText
 10
190
 20
146.4
 30
0
 40
2.5
 41
3.055555555555711
 71
    5
 72
    1
  1
73
  7
standard
210
0
220
0
230
1
 50
0
 73
    2
 44
1
  0
LINE
  5
B8
100
AcDbEntity
  8
Dimension
  6
ByBlock
 62
    0
370
   -2
100
AcDbLine
 10
167.125
 20
110
 11
191.25
 21
110
  0
LINE
  5
B9
100
AcDbEntity
  8
Dimension
  6
ByBlock
 62
    0
370
   -2
100
AcDbLine
 10
165.625
 20
182.8
 11
191.25
 21
182.8
  0
ENDBLK
  5
72
330
70
100
AcDbEntity
  8
0
100
AcDbBlockEnd
  0
BLOCK
  5
74
330
73
100
AcDbEntity
  8
0
100
AcDbBlockBegin
  2
*D9
 70
    1
 10
0
 20
0
  3
*D9
  1

  0
SOLID
  5
BA
100
AcDbEntity
  8
Dimension
  6
ByBlock
 62
    0
370
   -2
100
AcDbTrace
 10
175
 20
116
 30
0
 11
174.5837153422272
 21
118.5
 31
0
 12
175.4162846577728
 22
118.5
 32
0
 13
175.4162846577728
 23
118.5
 33
0
  0
SOLID
  5
BB
100
AcDbEntity
  8
Dimension
  6
ByBlock
 62
    0
370
   -2
100
AcDbTrace
 10
175
 20
110
 30
0
 11
175.4162846577728
 21
107.5
 31
0
 12
174.5837153422272
 22
107.5
 32
0
 13
174.5837153422272
 23
107.5
 33
0
  0
LINE
  5
BC
100
AcDbEntity
  8
Dimension
  6
ByLayer
 62
  256
370
   -1
100
AcDbLine
 10
175
 20
121
 11
175
 21
116
  0
LINE
  5
BD
100
AcDbEntity
  8
Dimension
  6
ByLayer
 62
  256
370
   -1
100
AcDbLine
 10
175
 20
105
 11
175
 21
110
  0
MTEXT
  5
BE
100
AcDbEntity
  8
Dimension
  6
CONTINUOUS
 62
    0
370
   -2
100
AcDbMText
 10
175
 20
113
 30
0
 40
2.5
 41
1.111111111111266
 71
    5
 72
    1
  1
6
  7
standard
210
0
220
0
230
1
 50
0
 73
    2
 44
1
  0
LINE
  5
BF
100
AcDbEntity
  8
Dimension
  6
ByBlock
 62
    0
370
   -2
100
AcDbLine
 10
165.625
 20
116
 11
176.25
 21
116
  0
LINE
  5
C0
100
AcDbEntity
  8
Dimension
  6
ByBlock
 62
    0
370
   -2
100
AcDbLine
 10
167.125
 20
110
 11
176.25
 21
110
  0
ENDBLK
  5
75
330
73
100
AcDbEntity
  8
0
100
AcDbBlockEnd
  0
BLOCK
  5
77
330
76
100
AcDbEntity
  8
0
100
AcDbBlockBegin
  2
*D11
 70
    1
 10
0
 20
0
  3
*D11
  1

  0
LINE
  5
C1
100
AcDbEntity
  8
Dimension
  6
CONTINUOUS
 62
    7
370
    0
100
AcDbLine
 10
108.4082032060676
 20
128.2795153145438
 11
88.21406944357253
 21
193.7720257387408
  0
LINE
  5
C2
100
AcDbEntity
  8
Dimension
  6
CONTINUOUS
 62
    7
370
    0
100
AcDbLine
 10
88.21406944357253
 20
193.7720257387408
 11
83.40557210026581
 21
193.7720257387408
  0
SOLID
  5
C3
100
AcDbEntity
  8
Dimension
  6
CONTINUOUS
 62
    7
370
    0
100
AcDbTrace
 10
108.4082032060676
 20
128.2795153145438
 30
0
 11
107.2737660760899
 21
130.5458659746194
 31
0
 12
108.0693727763335
 22
130.7911854473804
 32
0
 13
108.0693727763335
 23
130.7911854473804
 33
0
  0
ENDBLK
  5
78
330
76
100
AcDbEntity
  8
0
100
AcDbBlockEnd
  0
BLOCK
  5
7A
330
79
100
AcDbEntity
  8
0
100
AcDbBlockBegin
  2
*D2
 70
    1
 10
0
 20
0
  3
*D2
  1

  0
LINE
  5
C4
100
AcDbEntity
  8
section solid
  6
CONTINUOUS
 62
    7
370
    0
100
AcDbLine
 10
151.2
 20
100
 11
141.2
 21
100
  0
SOLID
  5
C5
100
AcDbEntity
  8
section solid
  6
CONTINUOUS
 62
    7
370
    0
100
AcDbTrace
 10
151.2
 20
100
 30
0
 11
148.7
 21
99.58371534222717
 31
0
 12
148.7
 22
100.4162846577728
 32
0
 13
148.7
 23
100.4162846577728
 33
0
  0
ENDBLK
  5
7B
330
79
100
AcDbEntity
  8
0
100
AcDbBlockEnd
  0
BLOCK
  5
7D
330
7C
100
AcDbEntity
  8
0
100
AcDbBlockBegin
  2
*D1
 70
    1
 10
0
 20
0
  3
*D1
  1

  0
LINE
  5
C6
100
AcDbEntity
  8
section solid
  6
CONTINUOUS
 62
    7
370
    0
100
AcDbLine
 10
144.85
 20
192.8
 11
134.85
 21
192.8
  0
SOLID
  5
C7
100
AcDbEntity
  8
section solid
  6
CONTINUOUS
 62
    7
370
    0
100
AcDbTrace
 10
144.85
 20
192.8
 30
0
 11
142.35
 21
192.3837153422272
 31
0
 12
142.35
 22
193.2162846577729
 32
0
 13
142.35
 23
193.2162846577729
 33
0
  0
ENDBLK
  5
7E
330
7C
100
AcDbEntity
  8
0
100
AcDbBlockEnd
  0
BLOCK
  5
80
330
7F
100
AcDbEntity
  8
0
100
AcDbBlockBegin
  2
*D10
 70
    1
 10
0
 20
0
  3
*D10
  1

  0
SOLID
  5
C8
100
AcDbEntity
  8
Dimension
  6
ByBlock
 62
    0
370
   -2
100
AcDbTrace
 10
160
 20
100
 30
0
 11
157.5
 21
99.58371534222717
 31
0
 12
157.5
 22
100.4162846577728
 32
0
 13
157.5
 23
100.4162846577728
 33
0
  0
SOLID
  5
C9
100
AcDbEntity
  8
Dimension
  6
ByBlock
 62
    0
370
   -2
100
AcDbTrace
 10
165
 20
100
 30
0
 11
167.5
 21
100.4162846577728
 31
0
 12
167.5
 22
99.58371534222717
 32
0
 13
167.5
 23
99.58371534222717
 33
0
  0
LINE
  5
CA
100
AcDbEntity
  8
Dimension
  6
ByLayer
 62
  256
370
   -1
100
AcDbLine
 10
155
 20
100
 11
160
 21
100
  0
LINE
  5
CB
100
AcDbEntity
  8
Dimension
  6
ByLayer
 62
  256
370
   -1
100
AcDbLine
 10
170
 20
100
 11
165
 21
100
  0
MTEXT
  5
CC
100
AcDbEntity
  8
Dimension
  6
CONTINUOUS
 62
    0
370
   -2
100
AcDbMText
 10
162.5
 20
100
 30
0
 40
2.5
 41
1.111111111111266
 71
    5
 72
    1
  1
5
  7
standard
210
0
220
0
230
1
 50
0
 73
    2
 44
1
  0
LINE
  5
CD
100
AcDbEntity
  8
Dimension
  6
ByBlock
 62
    0
370
   -2
100
AcDbLine
 10
160
 20
109.375
 11
160
 21
98.75
  0
LINE
  5
CE
100
AcDbEntity
  8
Dimension
  6
ByBlock
 62
    0
370
   -2
100
AcDbLine
 10
165
 20
107.875
 11
165
 21
98.75
  0
ENDBLK
  5
81
330
7F
100
AcDbEntity
  8
0
100
AcDbBlockEnd
  0
BLOCK
  5
83
330
82
100
AcDbEntity
  8
0
100
AcDbBlockBegin
  2
*D8
 70
    1
 10
0
 20
0
  3
*D8
  1

  0
SOLID
  5
CF
100
AcDbEntity
  8
Dimension
  6
ByBlock
 62
    0
370
   -2
100
AcDbTrace
 10
215
 20
100
 30
0
 11
217.5
 21
100.4162846577728
 31
0
 12
217.5
 22
99.58371534222717
 32
0
 13
217.5
 23
99.58371534222717
 33
0
  0
SOLID
  5
D0
100
AcDbEntity
  8
Dimension
  6
ByBlock
 62
    0
370
   -2
100
AcDbTrace
 10
240.4
 20
100
 30
0
 11
237.9
 21
99.58371534222717
 31
0
 12
237.9
 22
100.4162846577728
 32
0
 13
237.9
 23
100.4162846577728
 33
0
  0
LINE
  5
D1
100
AcDbEntity
  8
Dimension
  6
ByLayer
 62
  256
370
   -1
100
AcDbLine
 10
215
 20
100
 11
224.0194444444444
 21
100
  0
LINE
  5
D2
100
AcDbEntity
  8
Dimension
  6
ByLayer
 62
  256
370
   -1
100
AcDbLine
 10
231.3805555555556
 20
100
 11
240.4
 21
100
  0
MTEXT
  5
D3
100
AcDbEntity
  8
Dimension
  6
CONTINUOUS
 62
    0
370
   -2
100
AcDbMText
 10
227.7
 20
100
 30
0
 40
2.5
 41
6.111111111111267
 71
    5
 72
    1
  1
25.4
  7
standard
210
0
220
0
230
1
 50
0
 73
    2
 44
1
  0
LINE
  5
D4
100
AcDbEntity
  8
Dimension
  6
ByBlock
 62
    0
370
   -2
100
AcDbLine
 10
215
 20
109.375
 11
215
 21
98.75
  0
LINE
  5
D5
100
AcDbEntity
  8
Dimension
  6
ByBlock
 62
    0
370
   -2
100
AcDbLine
 10
240.4
 20
109.375
 11
240.4
 21
98.75
  0
ENDBLK
  5
84
330
82
100
AcDbEntity
  8
0
100
AcDbBlockEnd
  0
BLOCK
  5
86
330
85
100
AcDbEntity
  8
0
100
AcDbBlockBegin
  2
*D14
 70
    1
 10
0
 20
0
  3
*D14
  1

  0
SOLID
  5
D6
100
AcDbEntity
  8
Dimension
  6
ByBlock
 62
    0
370
   -2
100
AcDbTrace
 10
165
 20
70
 30
0
 11
162.5
 21
69.58371534222717
 31
0
 12
162.5
 22
70.41628465777283
 32
0
 13
162.5
 23
70.41628465777283
 33
0
  0
SOLID
  5
D7
100
AcDbEntity
  8
Dimension
  6
ByBlock
 62
    0
370
   -2
100
AcDbTrace
 10
35.55000000000001
 20
70
 30
0
 11
38.05000000000001
 21
70.41628465777283
 31
0
 12
38.05000000000001
 22
69.58371534222717
 32
0
 13
38.05000000000001
 23
69.58371534222717
 33
0
  0
LINE
  5
D8
100
AcDbEntity
  8
Dimension
  6
ByLayer
 62
  256
370
   -1
100
AcDbLine
 10
165
 20
70
 11
103.1222222222223
 21
70
  0
LINE
  5
D9
100
AcDbEntity
  8
Dimension
  6
ByLayer
 62
  256
370
   -1
100
AcDbLine
 10
97.42777777777771
 20
70
 11
35.55000000000001
 21
70
  0
MTEXT
  5
DA
100
AcDbEntity
  8
Dimension
  6
CONTINUOUS
 62
    0
370
   -2
100
AcDbMText
 10
100.275
 20
70
 30
0
 40
2.5
 41
4.444444444444599
 71
    5
 72
    1
  1
130
  7
standard
210
0
220
0
230
1
 50
0
 73
    2
 44
1
  0
LINE
  5
DB
100
AcDbEntity
  8
Dimension
  6
ByBlock
 62
    0
370
   -2
100
AcDbLine
 10
165
 20
107.875
 11
165
 21
68.75
  0
LINE
  5
DC
100
AcDbEntity
  8
Dimension
  6
ByBlock
 62
    0
370
   -2
100
AcDbLine
 10
35.55000000000001
 20
109.375
 11
35.55000000000001
 21
68.75
  0
ENDBLK
  5
87
330
85
100
AcDbEntity
  8
0
100
AcDbBlockEnd
  0
BLOCK
  5
89
330
88
100
AcDbEntity
  8
0
100
AcDbBlockBegin
  2
Page Template
 70
    0
 10
0
 20
0
  3
Page Template
  1

  0
LWPOLYLINE
  5
DD
100
AcDbEntity
  8
Frame
  6
ByLayer
 62
  256
370
   -1
100
AcDbPolyline
 90
    4
 70
    1
 43
0
 10
10
 20
10
 10
269.4
 20
10
 10
269.4
 20
205.9
 10
10
 20
205.9
  0
LINE
  5
DE
100
AcDbEntity
  8
Paper Bounds
  6
ByLayer
 62
  256
370
   -1
100
AcDbLine
 10
0
 20
215.9
 11
20
 21
215.9
  0
LINE
  5
DF
100
AcDbEntity
  8
Paper Bounds
  6
ByLayer
 62
  256
370
   -1
100
AcDbLine
 10
279.4
 20
0
 11
259.4
 21
0
  0
LINE
  5
E0
100
AcDbEntity
  8
Paper Bounds
  6
ByLayer
 62
  256
370
   -1
100
AcDbLine
 10
279.4
 20
0
 11
279.4
 21
20
  0
LINE
  5
E1
100
AcDbEntity
  8
Paper Bounds
  6
ByLayer
 62
  256
370
   -1
100
AcDbLine
 10
0
 20
215.9
 11
-1.224646799147353e-15
 21
195.9
  0
LINE
  5
E2
100
AcDbEntity
  8
Frame
  6
ByLayer
 62
  256
370
   -1
100
AcDbLine
 10
10
 20
20
 11
269.4
 21
20
  0
LINE
  5
E3
100
AcDbEntity
  8
Frame
  6
ByLayer
 62
  256
370
   -1
100
AcDbLine
 10
47.20000000000011
 20
20
 11
47.20000000000011
 21
10
  0
MTEXT
  5
E4
100
AcDbEntity
  8
Logo
  6
ByLayer
 62
  256
370
   -1
100
AcDbMText
 10
13
 20
15.5
 30
0
 40
5
 41
31.42858333333333
 71
    4
 72
    1
  1
upcycles
  7
simplex
210
0
220
0
230
1
 50
0
 73
    2
 44
1
  0
MTEXT
  5
E5
100
AcDbEntity
  8
Title
  6
ByLayer
 62
  256
370
   -1
100
AcDbMText
 10
158.3
 20
15
 30
0
 40
4
 41
149.4444435964363
 71
    5
 72
    1
  1
PARAGON DOUBLE BINDER MITER FIXTURE - SCALE: 1:1
  7
iso
210
0
220
0
230
1
 50
0
 73
    2
 44
1
  0
MTEXT
  5
E6
100
AcDbEntity
  8
Notes
  6
ByLayer
 62
  256
370
   -1
100
AcDbMText
 10
192.5060464745159
 20
36.23562684819499
 30
0
 40
2.5
 41
69.86111882541968
 71
    7
 72
    1
  1
General Notes:\P1. Unless otherwise specified, dimensions\P  are in millimeters.\P2. Milling feeds and speeds target\P  motor power delivery of about 0.5hp.
  7
iso
210
0
220
0
230
1
 50
0
 73
    2
 44
1
  0
ENDBLK
  5
8A
330
88
100
AcDbEntity
  8
0
100
AcDbBlockEnd
  0
BLOCK
  5
8C
330
8B
100
AcDbEntity
  8
0
100
AcDbBlockBegin
  2
fixture_view1
 70
    0
 10
0
 20
0
  3
fixture_view1
  1

  0
CIRCLE
  5
E7
100
AcDbEntity
  8
0
  6
ByLayer
 62
  256
370
   -1
100
AcDbCircle
 10
-74.59999999999997
 20
5.999999999999996
 40
5.000000000000006
  0
CIRCLE
  5
E8
100
AcDbEntity
  8
0
  6
ByLayer
 62
  256
370
   -1
100
AcDbCircle
 10
-74.59999999999999
 20
5.999999999999996
 40
2.600000000000005
  0
CIRCLE
  5
E9
100
AcDbEntity
  8
0
  6
ByLayer
 62
  256
370
   -1
100
AcDbCircle
 10
-61.9
 20
6.000000000000007
 40
2.6
  0
CIRCLE
  5
EA
100
AcDbEntity
  8
0
  6
ByLayer
 62
  256
370
   -1
100
AcDbCircle
 10
-61.89999999999998
 20
5.999999999999996
 40
5.000000000000005
  0
CIRCLE
  5
EB
100
AcDbEntity
  8
0
  6
ByLayer
 62
  256
370
   -1
100
AcDbCircle
 10
-49.19999999999999
 20
6
 40
5
  0
CIRCLE
  5
EC
100
AcDbEntity
  8
0
  6
ByLayer
 62
  256
370
   -1
100
AcDbCircle
 10
-49.2
 20
6.000000000000005
 40
2.6
  0
CIRCLE
  5
ED
100
AcDbEntity
  8
0
  6
ByLayer
 62
  256
370
   -1
100
AcDbCircle
 10
-36.5
 20
6
 40
2.600000000000005
  0
CIRCLE
  5
EE
100
AcDbEntity
  8
0
  6
ByLayer
 62
  256
370
   -1
100
AcDbCircle
 10
-36.49999999999999
 20
6
 40
5.000000000000009
  0
CIRCLE
  5
EF
100
AcDbEntity
  8
0
  6
ByLayer
 62
  256
370
   -1
100
AcDbCircle
 10
-23.79999999999999
 20
6.000000000000014
 40
5.000000000000002
  0
CIRCLE
  5
F0
100
AcDbEntity
  8
0
  6
ByLayer
 62
  256
370
   -1
100
AcDbCircle
 10
-23.79999999999999
 20
6.000000000000004
 40
2.600000000000006
  0
CIRCLE
  5
F1
100
AcDbEntity
  8
0
  6
ByLayer
 62
  256
370
   -1
100
AcDbCircle
 10
-11.1
 20
6.000000000000011
 40
5.000000000000003
  0
CIRCLE
  5
F2
100
AcDbEntity
  8
0
  6
ByLayer
 62
  256
370
   -1
100
AcDbCircle
 10
-11.1
 20
6.000000000000005
 40
2.599999999999997
  0
CIRCLE
  5
F3
100
AcDbEntity
  8
0
  6
ByLayer
 62
  256
370
   -1
100
AcDbCircle
 10
-30.14999999999998
 20
17
 40
1.650000000000002
  0
CIRCLE
  5
F4
100
AcDbEntity
  8
0
  6
ByLayer
 62
  256
370
   -1
100
AcDbCircle
 10
-55.54999999999998
 20
17
 40
1.650000000000001
  0
LINE
  5
F5
100
AcDbEntity
  8
0
  6
ByLayer
 62
  256
370
   -1
100
AcDbLine
 10
-5
 20
0
 11
-5
 21
6
  0
LINE
  5
F6
100
AcDbEntity
  8
0
  6
ByLayer
 62
  256
370
   -1
100
AcDbLine
 10
-5
 20
6
 11
0
 21
6
  0
LINE
  5
F7
100
AcDbEntity
  8
0
  6
ByLayer
 62
  256
370
   -1
100
AcDbLine
 10
0
 20
6
 11
0
 21
72.80000000000001
  0
LINE
  5
F8
100
AcDbEntity
  8
0
  6
ByLayer
 62
  256
370
   -1
100
AcDbLine
 10
0
 20
72.80000000000001
 11
-129.45
 21
72.80000000000001
  0
LINE
  5
F9
100
AcDbEntity
  8
0
  6
ByLayer
 62
  256
370
   -1
100
AcDbLine
 10
-129.45
 20
72.80000000000001
 11
-129.45
 21
0
  0
LINE
  5
FA
100
AcDbEntity
  8
0
  6
ByLayer
 62
  256
370
   -1
100
AcDbLine
 10
-129.45
 20
0
 11
-5
 21
0
  0
ENDBLK
  5
8D
330
8B
100
AcDbEntity
  8
0
100
AcDbBlockEnd
  0
BLOCK
  5
8F
330
8E
100
AcDbEntity
  8
0
100
AcDbBlockBegin
  2
fixture_view2
 70
    0
 10
0
 20
0
  3
fixture_view2
  1

  0
LINE
  5
FB
100
AcDbEntity
  8
0
  6
ByLayer
 62
  256
370
   -1
100
AcDbLine
 10
10.9999999999961
 20
-3.909761403519951e-12
 11
8.600000000000016
 21
-2.400000001187521
  0
LINE
  5
FC
100
AcDbEntity
  8
0
  6
ByLayer
 62
  256
370
   -1
100
AcDbLine
 10
3.400000000000006
 20
-25.4
 11
3.400000000000006
 21
-2.400000001187516
  0
LINE
  5
FD
100
AcDbEntity
  8
0
  6
ByLayer
 62
  256
370
   -1
100
AcDbLine
 10
15.35000000000002
 20
0
 11
15.35000000000002
 21
-9.999999999999998
  0
LINE
  5
FE
100
AcDbEntity
  8
0
  6
ByLayer
 62
  256
370
   -1
100
AcDbLine
 10
18.65000000000002
 20
-9.999999999999998
 11
18.65000000000002
 21
0
  0
LINE
  5
FF
100
AcDbEntity
  8
0
  6
ByLayer
 62
  256
370
   -1
100
AcDbLine
 10
1.000000000000007
 20
1.06581410364015e-14
 11
3.400000000000006
 21
-2.400000001187516
  0
LINE
  5
100
100
AcDbEntity
  8
0
  6
ByLayer
 62
  256
370
   -1
100
AcDbLine
 10
8.600000000000016
 20
-2.400000001187521
 11
8.600000000000016
 21
-25.4
  0
LINE
  5
101
100
AcDbEntity
  8
0
  6
ByLayer
 62
  256
370
   -1
100
AcDbLine
 10
6.000000000000007
 20
-25.4
 11
72.80000000000003
 21
-25.4
  0
LINE
  5
102
100
AcDbEntity
  8
0
  6
ByLayer
 62
  256
370
   -1
100
AcDbLine
 10
72.80000000000003
 20
-25.4
 11
72.80000000000003
 21
0
  0
LINE
  5
103
100
AcDbEntity
  8
0
  6
ByLayer
 62
  256
370
   -1
100
AcDbLine
 10
0
 20
0
 11
2.131628207280301e-14
 21
-25.4
  0
LINE
  5
104
100
AcDbEntity
  8
0
  6
ByLayer
 62
  256
370
   -1
100
AcDbLine
 10
2.131628207280301e-14
 20
-25.4
 11
6.000000000000007
 21
-25.4
  0
LINE
  5
105
100
AcDbEntity
  8
0
  6
ByLayer
 62
  256
370
   -1
100
AcDbLine
 10
72.80000000000003
 20
0
 11
7.105427357601002e-15
 21
3.552713678800501e-15
  0
LINE
  5
106
100
AcDbEntity
  8
0
  6
ByLayer
 62
  256
370
   -1
100
AcDbLine
 10
3.400000000000006
 20
-2.400000001187516
 11
8.600000000000016
 21
-2.400000001187521
  0
LINE
  5
107
100
AcDbEntity
  8
0
  6
ByLayer
 62
  256
370
   -1
100
AcDbLine
 10
15.35000000000002
 20
-9.999999999999998
 11
18.65000000000002
 21
-9.999999999999998
  0
LINE
  5
108
100
AcDbEntity
  8
0
  6
ByLayer
 62
  256
370
   -1
100
AcDbLine
 10
18.65000000000002
 20
-9.999999999999998
 11
17.00000000000002
 21
-10.99142002139547
  0
LINE
  5
109
100
AcDbEntity
  8
0
  6
ByLayer
 62
  256
370
   -1
100
AcDbLine
 10
15.35000000000002
 20
-9.999999999999998
 11
17.00000000000002
 21
-10.99142002139547
  0
ENDBLK
  5
90
330
8E
100
AcDbEntity
  8
0
100
AcDbBlockEnd
  0
ENDSEC
  0
SECTION
  2
ENTITIES
  0
HATCH
  5
10A
100
AcDbEntity
  8
Hatching
  6
ByLayer
 62
  256
370
   -1
100
AcDbHatch
 10
0
 20
0
 30
0
210
0
220
0
230
1
  2
kerpele
 70
    0
 71
    0
 91
    1
 92
    0
 93
   15
 72
    1
 10
225
 20
128.65
 11
225.9914200213955
 21
127
 72
    1
 10
225.9914200213955
 20
127
 11
225
 21
125.35
 72
    1
 10
225
 20
125.35
 11
215
 21
125.35
 72
    1
 10
215
 20
125.35
 11
215.0000000000039
 21
120.9999999999961
 72
    1
 10
240.4
 20
113.4
 11
217.4000000011875
 21
113.4
 72
    1
 10
217.4000000011875
 20
113.4
 11
215
 21
111
 72
    1
 10
215
 20
111
 11
215
 21
110
 72
    1
 10
215
 20
110
 11
240.4
 21
110
 72
    1
 10
240.4
 20
110
 11
240.4
 21
113.4
 72
    1
 10
215.0000000000039
 20
120.9999999999961
 11
217.4000000011875
 21
118.6
 72
    1
 10
217.4000000011875
 20
118.6
 11
240.4
 21
118.6
 72
    1
 10
240.4
 20
118.6
 11
240.4
 21
182.8
 72
    1
 10
240.4
 20
182.8
 11
215
 21
182.8
 72
    1
 10
215
 20
182.8
 11
215
 21
128.65
 72
    1
 10
215
 20
128.65
 11
225
 21
128.65
 97
    0
 75
    0
 76
    1
 52
0
 41
0.14
 77
    0
 78
    0
 98
    0
  0
HATCH
  5
10B
100
AcDbEntity
  8
Dimension
  6
ByLayer
 62
  256
370
   -1
100
AcDbHatch
 10
0
 20
0
 30
0
210
0
220
0
230
1
  2
SOLID
 70
    1
 71
    0
 91
    1
 92
    0
 93
    4
 72
    2
 10
103.1
 20
90
 40
0.75
 50
0
 51
360
 73
    1
 72
    2
 10
115.8
 20
90
 40
0.75
 50
0
 51
360
 73
    1
 72
    2
 10
128.5
 20
90
 40
0.75
 50
0
 51
360
 73
    1
 72
    2
 10
141.2
 20
90
 40
0.75
 50
0
 51
360
 73
    1
 97
    0
 75
    0
 76
    1
 98
    0
  0
INSERT
  5
10C
100
AcDbEntity
  8
Title
  6
ByLayer
 62
  256
370
   -1
100
AcDbBlockReference
  2
Page Template
 10
0
 20
0
 30
0
 41
1
 42
1
 43
0
 50
0
 70
    1
 71
    1
 44
0
 45
0
  0
MTEXT
  5
10D
100
AcDbEntity
  8
Dimension
  6
ByLayer
 62
  256
370
   -1
100
AcDbMText
 10
80
 20
30
 30
0
 40
2.5
 41
18.81944391443923
 71
    7
 72
    1
  1
STOCK:\PMILD STEEL
  7
iso
210
0
220
0
230
1
 50
0
 73
    2
 44
1
  0
LEADER
  5
10E
100
AcDbEntity
  8
section solid
  6
ByLayer
 62
  256
370
   -1
100
AcDbLeader
  3
Standard
 71
    1
 72
    0
 73
    3
 74
    0
 75
    0
 40
1
 41
10
 76
2
 76
2
 10
144.85
 20
192.8
 30
0
 10
134.85
 20
192.8
 30
0
  0
LEADER
  5
10F
100
AcDbEntity
  8
section solid
  6
ByLayer
 62
  256
370
   -1
100
AcDbLeader
  3
Standard
 71
    1
 72
    0
 73
    3
 74
    0
 75
    0
 40
1
 41
10
 76
2
 76
2
 10
151.2
 20
100
 30
0
 10
141.2
 20
100
 30
0
  0
INSERT
  5
110
100
AcDbEntity
  8
0
  6
ByLayer
 62
  256
370
   -1
100
AcDbBlockReference
  2
fixture_view1
 10
165
 20
110
 30
0
 41
1
 42
1
 43
0
 50
0
 70
    1
 71
    1
 44
0
 45
0
  0
LINE
  5
111
100
AcDbEntity
  8
0
  6
ByLayer
 62
  256
370
   -1
100
AcDbLine
 10
215.0000000000039
 20
120.9999999999961
 11
217.4000000011875
 21
118.6
  0
LINE
  5
112
100
AcDbEntity
  8
0
  6
ByLayer
 62
  256
370
   -1
100
AcDbLine
 10
240.4
 20
113.4
 11
217.4000000011875
 21
113.4
  0
LINE
  5
113
100
AcDbEntity
  8
0
  6
ByLayer
 62
  256
370
   -1
100
AcDbLine
 10
215
 20
125.35
 11
225
 21
125.35
  0
LINE
  5
114
100
AcDbEntity
  8
0
  6
ByLayer
 62
  256
370
   -1
100
AcDbLine
 10
225
 20
128.65
 11
215
 21
128.65
  0
LINE
  5
115
100
AcDbEntity
  8
0
  6
ByLayer
 62
  256
370
   -1
100
AcDbLine
 10
215
 20
111
 11
217.4000000011875
 21
113.4
  0
LINE
  5
116
100
AcDbEntity
  8
0
  6
ByLayer
 62
  256
370
   -1
100
AcDbLine
 10
217.4000000011875
 20
118.6
 11
240.4
 21
118.6
  0
LINE
  5
117
100
AcDbEntity
  8
0
  6
ByLayer
 62
  256
370
   -1
100
AcDbLine
 10
240.4
 20
182.8
 11
215
 21
182.8
  0
LINE
  5
118
100
AcDbEntity
  8
0
  6
ByLayer
 62
  256
370
   -1
100
AcDbLine
 10
215
 20
110
 11
240.4
 21
110
  0
LINE
  5
119
100
AcDbEntity
  8
0
  6
ByLayer
 62
  256
370
   -1
100
AcDbLine
 10
225
 20
128.65
 11
225.9914200213955
 21
127
  0
LINE
  5
11A
100
AcDbEntity
  8
0
  6
ByLayer
 62
  256
370
   -1
100
AcDbLine
 10
225
 20
125.35
 11
225.9914200213955
 21
127
  0
LINE
  5
11B
100
AcDbEntity
  8
1
  6
ByLayer
 62
  256
370
   -1
100
AcDbLine
 10
215
 20
110
 11
215
 21
111
  0
LINE
  5
11C
100
AcDbEntity
  8
1
  6
ByLayer
 62
  256
370
   -1
100
AcDbLine
 10
215.0000000000039
 20
120.9999999999961
 11
215
 21
125.35
  0
LINE
  5
11D
100
AcDbEntity
  8
1
  6
ByLayer
 62
  256
370
   -1
100
AcDbLine
 10
215
 20
128.65
 11
215
 21
182.8
  0
LINE
  5
11E
100
AcDbEntity
  8
0
  6
ByLayer
 62
  256
370
   -1
100
AcDbLine
 10
240.4
 20
182.8
 11
240.4
 21
118.6
  0
LINE
  5
11F
100
AcDbEntity
  8
0
  6
ByLayer
 62
  256
370
   -1
100
AcDbLine
 10
240.4
 20
113.4
 11
240.4
 21
110
  0
LINE
  5
120
100
AcDbEntity
  8
0
  6
ByLayer
 62
  256
370
   -1
100
AcDbLine
 10
215
 20
128.65
 11
215
 21
125.35
  0
LINE
  5
121
100
AcDbEntity
  8
0
  6
ByLayer
 62
  256
370
   -1
100
AcDbLine
 10
215.0000000000039
 20
120.9999999999961
 11
215
 21
111
  0
LINE
  5
122
100
AcDbEntity
  8
0
  6
ByLayer
 62
  256
370
   -1
100
AcDbLine
 10
240.4
 20
118.6
 11
240.4
 21
113.4
  0
LINE
  5
123
100
AcDbEntity
  8
section
  6
ByLayer
 62
  256
370
   -1
100
AcDbLine
 10
141.2
 20
123.3086609221683
 11
134.85
 21
123.3086609221683
  0
LINE
  5
124
100
AcDbEntity
  8
section
  6
ByLayer
 62
  256
370
   -1
100
AcDbLine
 10
141.2
 20
100
 11
141.2
 21
123.3086609221683
  0
LINE
  5
125
100
AcDbEntity
  8
section
  6
ByLayer
 62
  256
370
   -1
100
AcDbLine
 10
134.85
 20
123.3086609221683
 11
134.85
 21
192.8
  0
MTEXT
  5
126
100
AcDbEntity
  8
Dimension
  6
ByLayer
 62
  256
370
   -1
100
AcDbMText
 10
145.8016048716749
 20
96.53703779751991
 30
0
 40
2.5
 41
1.666666666666667
 71
    5
 72
    1
  1
A
  7
iso
210
0
220
0
230
1
 50
0
 73
    2
 44
1
  0
MTEXT
  5
127
100
AcDbEntity
  8
Dimension
  6
ByLayer
 62
  256
370
   -1
100
AcDbMText
 10
139.3909119502891
 20
195.8593643148998
 30
0
 40
2.5
 41
1.666666666666667
 71
    5
 72
    1
  1
A
  7
iso
210
0
220
0
230
1
 50
0
 73
    2
 44
1
  0
LINE
  5
128
100
AcDbEntity
  8
Center
  6
ByLayer
 62
  256
370
   -1
100
AcDbLine
 10
99.45000000000002
 20
127
 11
144.85
 21
127
  0
LINE
  5
129
100
AcDbEntity
  8
Center
  6
ByLayer
 62
  256
370
   -1
100
AcDbLine
 10
109.45
 20
122
 11
109.45
 21
132
  0
LINE
  5
12A
100
AcDbEntity
  8
Center
  6
ByLayer
 62
  256
370
   -1
100
AcDbLine
 10
153.9
 20
106
 11
153.9
 21
125
  0
LINE
  5
12B
100
AcDbEntity
  8
Center
  6
ByLayer
 62
  256
370
   -1
100
AcDbLine
 10
90.40000000000001
 20
106
 11
90.40000000000001
 21
125
  0
LINE
  5
12C
100
AcDbEntity
  8
Center
  6
ByLayer
 62
  256
370
   -1
100
AcDbLine
 10
103.1
 20
106
 11
103.1
 21
125
  0
LINE
  5
12D
100
AcDbEntity
  8
Center
  6
ByLayer
 62
  256
370
   -1
100
AcDbLine
 10
115.8
 20
106
 11
115.8
 21
125
  0
LINE
  5
12E
100
AcDbEntity
  8
Center
  6
ByLayer
 62
  256
370
   -1
100
AcDbLine
 10
128.5
 20
106
 11
128.5
 21
125
  0
LINE
  5
12F
100
AcDbEntity
  8
Center
  6
ByLayer
 62
  256
370
   -1
100
AcDbLine
 10
80.40000000000001
 20
116
 11
158
 21
116
  0
DIMENSION
  5
130
100
AcDbEntity
  8
Dimension
  6
ByLayer
 62
  256
370
   -1
100
AcDbDimension
  2
*D3
 10
165
 20
90
 30
0
 11
159.45
 21
90
 31
0
 70
   32
 71
    5
 72
    0
  3
Standard
 53
0
210
0
220
0
230
1
100
AcDbAlignedDimension
 13
153.9
 23
106
 33
0
 14
165
 24
108.5
 34
0
100
AcDbRotatedDimension
  0
SOLID
  5
131
100
AcDbEntity
  8
Dimension
  6
ByLayer
 62
  256
370
   -1
100
AcDbTrace
 10
90.40000000000001
 20
90
 30
0
 11
92.90000000000001
 21
90.41628465777285
 31
0
 12
92.90000000000001
 22
89.58371534222715
 32
0
 13
92.90000000000001
 23
89.58371534222715
 33
0
  0
LINE
  5
132
100
AcDbEntity
  8
Dimension
  6
ByLayer
 62
  256
370
   -1
100
AcDbLine
 10
128.5
 20
105.375
 11
128.5
 21
88.75
  0
LINE
  5
133
100
AcDbEntity
  8
Dimension
  6
ByLayer
 62
  256
370
   -1
100
AcDbLine
 10
90.40000000000001
 20
105.375
 11
90.40000000000001
 21
88.75
  0
LINE
  5
134
100
AcDbEntity
  8
Dimension
  6
ByLayer
 62
  256
370
   -1
100
AcDbLine
 10
115.8
 20
105.375
 11
115.8
 21
88.75
  0
LINE
  5
135
100
AcDbEntity
  8
Dimension
  6
ByLayer
 62
  256
370
   -1
100
AcDbLine
 10
103.1
 20
105.375
 11
103.1
 21
88.75
  0
LINE
  5
136
100
AcDbEntity
  8
Dimension
  6
ByLayer
 62
  256
370
   -1
100
AcDbLine
 10
141.2
 20
105.375
 11
141.2
 21
88.75
  0
LINE
  5
137
100
AcDbEntity
  8
Dimension
  6
ByLayer
 62
  256
370
   -1
100
AcDbLine
 10
152.4282463837639
 20
90
 11
90.40000000000001
 21
90
  0
DIMENSION
  5
138
100
AcDbEntity
  8
Dimension
  6
ByLayer
 62
  256
370
   -1
100
AcDbDimension
  2
*D4
 10
134.85
 20
80
 30
0
 11
122.15
 21
80
 31
0
 70
   32
 71
    5
 72
    0
  3
Standard
 53
0
210
0
220
0
230
1
100
AcDbAlignedDimension
 13
109.45
 23
122
 33
0
 14
134.85
 24
123.3086609221683
 34
0
100
AcDbRotatedDimension
  0
DIMENSION
  5
139
100
AcDbEntity
  8
Dimension
  6
ByLayer
 62
  256
370
   -1
100
AcDbDimension
  2
*D5
 10
165
 20
80
 30
0
 11
149.925
 21
80
 31
0
 70
   32
 71
    5
 72
    0
  3
Standard
 53
0
210
0
220
0
230
1
100
AcDbAlignedDimension
 13
134.85
 23
123.3086609221683
 33
0
 14
165
 24
108.5
 34
0
100
AcDbRotatedDimension
  0
MTEXT
  5
13A
100
AcDbEntity
  8
Dimension
  6
ByLayer
 62
  256
370
   -1
100
AcDbMText
 10
92
 20
80
 30
0
 40
2.5
 41
11.59722222222238
 71
    6
 72
    1
  1
5X 12.7
  7
iso
210
0
220
0
230
1
 50
0
 73
    2
 44
1
  0
LINE
  5
13B
100
AcDbEntity
  8
Dimension
  6
ByLayer
 62
  256
370
   -1
100
AcDbLine
 10
97.09210264344192
 20
90
 11
97.09210264344192
 21
79.87815334717462
  0
LINE
  5
13C
100
AcDbEntity
  8
Dimension
  6
ByLayer
 62
  256
370
   -1
100
AcDbLine
 10
97.09210264344192
 20
79.87815334717462
 11
92.50216133314959
 21
79.87815334717462
  0
LEADER
  5
13D
100
AcDbEntity
  8
Dimension
  6
ByLayer
 62
  256
370
   -1
100
AcDbLeader
  3
Standard
 71
    1
 72
    0
 73
    3
 74
    0
 75
    0
 40
1
 41
10
 76
3
 76
3
 10
88.28532245144406
 20
114.4873404660554
 30
0
 10
83.28681360015101
 20
106.2415847978249
 30
0
 10
81.80970390958213
 20
106.2415847978249
 30
0
  0
LEADER
  5
13E
100
AcDbEntity
  8
Dimension
  6
ByLayer
 62
  256
370
   -1
100
AcDbLeader
  3
Standard
 71
    1
 72
    0
 73
    3
 74
    0
 75
    0
 40
1
 41
10
 76
3
 76
3
 10
88.8995745915045
 20
111.2304377985458
 30
0
 10
83.62768506720538
 20
101.8102557261182
 30
0
 10
81.46883244252777
 20
101.8102557261182
 30
0
  0
MTEXT
  5
13F
100
AcDbEntity
  8
Dimension
  6
ByLayer
 62
  256
370
   -1
100
AcDbMText
 10
81.01433715312196
 20
103.8554845284444
 30
0
 40
2.5
 41
27.01388835888367
 71
    6
 72
    1
  1
6X %%C5.2 THRU\P6X %%C10 CSK 90%%D
  7
iso
210
0
220
0
230
1
 50
0
 73
    2
 44
1
  0
DIMENSION
  5
140
100
AcDbEntity
  8
Dimension
  6
ByLayer
 62
  256
370
   -1
100
AcDbDimension
  2
*D8
 10
240.4
 20
100
 30
0
 11
227.7
 21
100
 31
0
 70
   32
 71
    5
 72
    0
  3
Standard
 53
0
210
0
220
0
230
1
100
AcDbAlignedDimension
 13
215
 23
110
 33
0
 14
240.4
 24
110
 34
0
100
AcDbRotatedDimension
  0
DIMENSION
  5
141
100
AcDbEntity
  8
Dimension
  6
ByLayer
 62
  256
370
   -1
100
AcDbDimension
  2
*D9
 10
175
 20
110
 30
0
 11
175
 21
113
 31
0
 70
   32
 71
    5
 72
    0
  3
Standard
 53
0
210
0
220
0
230
1
100
AcDbAlignedDimension
 13
165
 23
116
 33
0
 14
166.5
 24
110
 34
0
 50
90
100
AcDbRotatedDimension
  0
DIMENSION
  5
142
100
AcDbEntity
  8
Dimension
  6
ByLayer
 62
  256
370
   -1
100
AcDbDimension
  2
*D10
 10
165
 20
100
 30
0
 11
162.5
 21
100
 31
0
 70
   32
 71
    5
  3
Standard
 53
0
210
0
220
0
230
1
100
AcDbAlignedDimension
 13
160
 23
110
 33
0
 14
165
 24
108.5
 34
0
100
AcDbRotatedDimension
  0
MTEXT
  5
143
100
AcDbEntity
  8
Dimension
  6
ByLayer
 62
  256
370
   -1
100
AcDbMText
 10
227.3474594721829
 20
192.9078973438116
 30
0
 40
2.5
 41
6.111111111111111
 71
    5
 72
    1
  1
A-A
  7
iso
210
0
220
0
230
1
 50
0
 73
    2
 44
1
  0
MTEXT
  5
144
100
AcDbEntity
  8
Dimension
  6
ByLayer
 62
  256
370
   -1
100
AcDbMText
 10
82.00367383517933
 20
191.5912725501263
 30
0
 40
2.5
 41
21.66666666666698
 71
    6
 72
    1
  1
2X %%C3.3   10\PTAP M4
  7
iso
210
0
220
0
230
1
 50
0
 73
    2
 44
1
  0
LINE
  5
145
100
AcDbEntity
  8
Dimension
  6
ByLayer
 62
  256
370
   -1
100
AcDbLine
 10
77.25984403989011
 20
192.3412725501263
 11
77.25984403989011
 21
194.8412725501263
  0
LINE
  5
146
100
AcDbEntity
  8
Dimension
  6
ByLayer
 62
  256
370
   -1
100
AcDbLine
 10
76.25984403989011
 20
194.8412725501263
 11
78.25984403989008
 21
194.8412725501263
  0
LINE
  5
147
100
AcDbEntity
  8
Dimension
  6
ByLayer
 62
  256
370
   -1
100
AcDbLine
 10
77.25984403989011
 20
192.3412725501263
 11
76.29566262536031
 21
193.4903392148048
  0
LINE
  5
148
100
AcDbEntity
  8
Dimension
  6
ByLayer
 62
  256
370
   -1
100
AcDbLine
 10
77.25984403989011
 20
192.3412725501263
 11
78.22402545441992
 21
193.4903392148048
  0
LEADER
  5
149
100
AcDbEntity
  8
Dimension
  6
ByLayer
 62
  256
370
   -1
100
AcDbLeader
  3
Standard
 71
    1
 72
    0
 73
    3
 74
    0
 75
    0
 40
1
 41
10
 76
3
 76
3
 10
108.4082032060676
 20
128.2795153145438
 30
0
 10
88.21406944357253
 20
193.7720257387408
 30
0
 10
83.40557210026581
 20
193.7720257387408
 30
0
  0
DIMENSION
  5
14A
100
AcDbEntity
  8
Dimension
  6
ByLayer
 62
  256
370
   -1
100
AcDbDimension
  2
*D12
 10
183.1067339107019
 20
123.1535463376607
 30
0
 11
183.1067339107019
 21
118.5
 31
0
 70
   32
 71
    5
 72
    0
  3
Standard
 53
0
210
0
220
0
230
1
100
AcDbAlignedDimension
 13
166.5
 23
110
 33
0
 14
144.85
 24
127
 34
0
 50
90
100
AcDbRotatedDimension
  0
DIMENSION
  5
14B
100
AcDbEntity
  8
Dimension
  6
ByLayer
 62
  256
370
   -1
100
AcDbDimension
  2
*D13
 10
190
 20
182.8
 30
0
 11
190
 21
146.4
 31
0
 70
   32
  1
73
 71
    5
  3
Standard
 53
0
210
0
220
0
230
1
100
AcDbAlignedDimension
 13
166.5
 23
110
 33
0
 14
165
 24
182.8
 34
0
 50
90
100
AcDbRotatedDimension
  0
DIMENSION
  5
14C
100
AcDbEntity
  8
Dimension
  6
ByLayer
 62
  256
370
   -1
100
AcDbDimension
  2
*D14
 10
35.55000000000001
 20
70
 30
0
 11
100.275
 21
70
 31
0
 70
   32
  1
130
 71
    5
  3
Standard
 53
0
210
0
220
0
230
1
100
AcDbAlignedDimension
 13
165
 23
108.5
 33
0
 14
35.55000000000001
 24
110
 34
0
100
AcDbRotatedDimension
  0
MTEXT
  5
14D
100
AcDbEntity
  8
Dimension
  6
ByLayer
 62
  256
370
   -1
100
AcDbMText
 10
110
 20
30
 30
0
 40
2.5
 41
61.80555449554542
 71
    7
 72
    1
  1
FEEDS AND SPEEDS:\P%%C3.3 DRILL HSS: 2720 RPM\P%%C5.2 DRILL HSS: 1750 RPM\P%%C10 CSK HSS: 135 RPM\P%%C3/4" END MILL 4FL HSS: 660 RPM,\P  11 IPM, 3.0 [0.120"] DOC
  7
iso
210
0
220
0
230
1
 50
0
 73
    2
 44
1
  0
LINE
  5
14E
100
AcDbEntity
  8
Phantom
  6
ByLayer
 62
  256
370
   -1
100
AcDbLine
 10
165
 20
115.3184808705006
 11
165
 21
110
  0
LINE
  5
14F
100
AcDbEntity
  8
Phantom
  6
ByLayer
 62
  256
370
   -1
100
AcDbLine
 10
160.6304151260308
 20
110
 11
165
 21
110
  0
ENDSEC
  0
SECTION
  2
OBJECTS
  0
DICTIONARY
  5
C
330
0
100
AcDbDictionary
281
    1
  3
ACAD_GROUP
350
D
  0
DICTIONARY
  5
D
330
C
100
AcDbDictionary
281
    1
  0
ENDSEC
  0
EOF
