999
dxfrw 0.6.3
  0
SECTION
  2
HEADER
  9
$ACADVER
  1
AC1021
  9
$DWGCODEPAGE
  3
ANSI_1252
  9
$INSBASE
 10
0
 20
0
 30
0
  9
$EXTMIN
 10
68.74119106740631
 20
106.3364366356482
 30
0
  9
$EXTMAX
 10
252.0154563758062
 20
141.5
 30
0
  9
$LIMMIN
 10
0
 20
0
  9
$LIMMAX
 10
420
 20
297
  9
$ORTHOMODE
 70
    0
  9
$REGENMODE
 70
    1
  9
$FILLMODE
 70
    1
  9
$QTEXTMODE
 70
    0
  9
$MIRRTEXT
 70
    0
  9
$LTSCALE
 40
1
  9
$ATTMODE
 70
    0
  9
$TEXTSIZE
 40
2.5
  9
$TRACEWID
 40
15.68
  9
$TEXTSTYLE
  7
STANDARD
  9
$CLAYER
  8
Dimension
  9
$CELTYPE
  6
BYLAYER
  9
$CECOLOR
 62
  256
  9
$CELTSCALE
 40
1
  9
$DISPSILH
 70
    0
  9
$DIMSCALE
 40
1
  9
$DIMASZ
 40
2.5
  9
$DIMEXO
 40
1
  9
$DIMDLI
 40
3.75
  9
$DIMRND
 40
0
  9
$DIMDLE
 40
0
  9
$DIMEXE
 40
1.25
  9
$DIMTP
 40
0
  9
$DIMTM
 40
0
  9
$DIMTXT
 40
2.5
  9
$DIMCEN
 40
2.5
  9
$DIMTSZ
 40
0
  9
$DIMTOL
 70
    0
  9
$DIMLIM
 70
    0
  9
$DIMTIH
 70
    1
  9
$DIMTOH
 70
    0
  9
$DIMSE1
 70
    0
  9
$DIMSE2
 70
    0
  9
$DIMTAD
 70
    1
  9
$DIMZIN
 70
    1
  9
$DIMBLK
  1

  9
$DIMASO
 70
    1
  9
$DIMSHO
 70
    1
  9
$DIMPOST
  1

  9
$DIMAPOST
  1

  9
$DIMALT
 70
    0
  9
$DIMALTD
 70
    3
  9
$DIMALTF
 40
0.03937
  9
$DIMLFAC
 40
1
  9
$DIMTOFL
 70
    1
  9
$DIMTVP
 40
0
  9
$DIMTIX
 70
    0
  9
$DIMSOXD
 70
    0
  9
$DIMSAH
 70
    0
  9
$DIMBLK1
  1

  9
$DIMBLK2
  1

  9
$DIMSTYLE
  2
STANDARD
  9
$DIMCLRD
 70
    0
  9
$DIMCLRE
 70
    0
  9
$DIMCLRT
 70
    0
  9
$DIMTFAC
 40
1
  9
$DIMGAP
 40
1
  9
$DIMJUST
 70
    0
  9
$DIMSD1
 70
    0
  9
$DIMSD2
 70
    0
  9
$DIMTOLJ
 70
    0
  9
$DIMTZIN
 70
    8
  9
$DIMALTZ
 70
    0
  9
$DIMALTTZ
 70
    0
  9
$DIMUPT
 70
    0
  9
$DIMDEC
 70
    2
  9
$DIMTDEC
 70
    2
  9
$DIMALTU
 70
    2
  9
$DIMALTTD
 70
    3
  9
$DIMTXSTY
  7
standard
  9
$DIMAUNIT
 70
    0
  9
$DIMADEC
 70
    2
  9
$DIMALTRND
 40
0
  9
$DIMAZIN
 70
    0
  9
$DIMDSEP
 70
    0
  9
$DIMATFIT
 70
    3
  9
$DIMFRAC
 70
    0
  9
$DIMLDRBLK
  1
STANDARD
  9
$DIMLUNIT
 70
    2
  9
$DIMLWD
 70
   -2
  9
$DIMLWE
 70
   -2
  9
$DIMTMOVE
 70
    0
  9
$DIMFXL
 40
1
  9
$DIMFXLON
 70
    0
  9
$DIMJOGANG
 40
0.7854
  9
$DIMTFILL
 70
    0
  9
$DIMTFILLCLR
 70
    0
  9
$DIMARCSYM
 70
    0
  9
$DIMLTYPE
  6

  9
$DIMLTEX1
  6

  9
$DIMLTEX2
  6

  9
$LUNITS
 70
    2
  9
$LUPREC
 70
    4
  9
$SKETCHINC
 40
1
  9
$FILLETRAD
 40
0
  9
$AUNITS
 70
    0
  9
$AUPREC
 70
    2
  9
$MENU
  1
.
  9
$ELEVATION
 40
0
  9
$PELEVATION
 40
0
  9
$THICKNESS
 40
0
  9
$LIMCHECK
 70
    0
  9
$CHAMFERA
 40
0
  9
$CHAMFERB
 40
0
  9
$CHAMFERC
 40
0
  9
$CHAMFERD
 40
0
  9
$SKPOLY
 70
    0
  9
$USRTIMER
 70
    1
  9
$ANGBASE
 50
0
  9
$ANGDIR
 70
    0
  9
$PDMODE
 70
   34
  9
$PDSIZE
 40
0
  9
$PLINEWID
 40
0
  9
$SPLFRAME
 70
    0
  9
$SPLINETYPE
 70
    2
  9
$SPLINESEGS
 70
    8
  9
$HANDSEED
  5
20000
  9
$SURFTAB1
 70
    6
  9
$SURFTAB2
 70
    6
  9
$SURFTYPE
 70
    6
  9
$SURFU
 70
    6
  9
$SURFV
 70
    6
  9
$UCSBASE
  2

  9
$UCSNAME
  2

  9
$UCSORG
 10
0
 20
0
 30
0
  9
$UCSXDIR
 10
1
 20
0
 30
0
  9
$UCSYDIR
 10
0
 20
1
 30
0
  9
$UCSORTHOREF
  2

  9
$UCSORTHOVIEW
 70
    0
  9
$UCSORGTOP
 10
0
 20
0
 30
0
  9
$UCSORGBOTTOM
 10
0
 20
0
 30
0
  9
$UCSORGLEFT
 10
0
 20
0
 30
0
  9
$UCSORGRIGHT
 10
0
 20
0
 30
0
  9
$UCSORGFRONT
 10
0
 20
0
 30
0
  9
$UCSORGBACK
 10
0
 20
0
 30
0
  9
$PUCSBASE
  2

  9
$PUCSNAME
  2

  9
$PUCSORG
 10
0
 20
0
 30
0
  9
$PUCSXDIR
 10
1
 20
0
 30
0
  9
$PUCSYDIR
 10
0
 20
1
 30
0
  9
$PUCSORTHOREF
  2

  9
$PUCSORTHOVIEW
 70
    0
  9
$PUCSORGTOP
 10
0
 20
0
 30
0
  9
$PUCSORGBOTTOM
 10
0
 20
0
 30
0
  9
$PUCSORGLEFT
 10
0
 20
0
 30
0
  9
$PUCSORGRIGHT
 10
0
 20
0
 30
0
  9
$PUCSORGFRONT
 10
0
 20
0
 30
0
  9
$PUCSORGBACK
 10
0
 20
0
 30
0
  9
$USERI1
 70
    0
  9
$USERI2
 70
    0
  9
$USERI3
 70
    0
  9
$USERI4
 70
    0
  9
$USERI5
 70
    0
  9
$USERR1
 40
0
  9
$USERR2
 40
0
  9
$USERR3
 40
0
  9
$USERR4
 40
0
  9
$USERR5
 40
0
  9
$WORLDVIEW
 70
    1
  9
$SHADEDGE
 70
    3
  9
$SHADEDIF
 70
   70
  9
$TILEMODE
 70
    1
  9
$MAXACTVP
 70
   64
  9
$PINSBASE
 10
1.224646799147353e-15
 20
0
 30
0
  9
$PLIMCHECK
 70
    0
  9
$PEXTMIN
 10
0
 20
0
 30
0
  9
$PEXTMAX
 10
0
 20
0
 30
0
  9
$GRIDMODE
 70
    1
  9
$SNAPSTYLE
 70
    0
  9
$GRIDUNIT
 10
0
 20
0
  9
$PLIMMIN
 10
0
 20
0
  9
$PLIMMAX
 10
279.4
 20
215.9
  9
$UNITMODE
 70
    0
  9
$VISRETAIN
 70
    1
  9
$PLINEGEN
 70
    0
  9
$PSLTSCALE
 70
    1
  9
$TREEDEPTH
 70
 3020
  9
$CMLSTYLE
  2
Standard
  9
$CMLJUST
 70
    0
  9
$CMLSCALE
 40
20
  9
$PROXYGRAPHICS
 70
    1
  9
$MEASUREMENT
 70
    1
  9
$CELWEIGHT
370
   -1
  9
$ENDCAPS
280
    0
  9
$JOINSTYLE
280
    0
  9
$LWDISPLAY
290
    0
  9
$INSUNITS
 70
    4
  9
$HYPERLINKBASE
  1

  9
$STYLESHEET
  1

  9
$XEDIT
290
    1
  9
$CEPSNTYPE
380
    0
  9
$PSTYLEMODE
290
    1
  9
$EXTNAMES
290
    1
  9
$PSVPSCALE
 40
1
  9
$OLESTARTUP
290
    0
  9
$SORTENTS
280
  127
  9
$INDEXCTL
280
    0
  9
$HIDETEXT
280
    1
  9
$XCLIPFRAME
290
    0
  9
$HALOGAP
280
    0
  9
$OBSCOLOR
 70
  257
  9
$OBSLTYPE
280
    0
  9
$INTERSECTIONDISPLAY
280
    0
  9
$INTERSECTIONCOLOR
 70
  257
  9
$DIMASSOC
280
    1
  9
$PROJECTNAME
  1

  9
$CAMERADISPLAY
290
    0
  9
$LENSLENGTH
 40
50
  9
$CAMERAHEIGHT
 40
0
  9
$STEPSPERSEC
 40
2
  9
$STEPSIZE
 40
50
  9
$3DDWFPREC
 40
2
  9
$PSOLWIDTH
 40
5
  9
$PSOLHEIGHT
 40
80
  9
$LOFTANG1
 40
1.570796326794897
  9
$LOFTANG2
 40
1.570796326794897
  9
$LOFTMAG1
 40
0
  9
$LOFTMAG2
 40
0
  9
$LOFTPARAM
 70
    7
  9
$LOFTNORMALS
280
    1
  9
$LATITUDE
 40
1
  9
$LONGITUDE
 40
1
  9
$NORTHDIRECTION
 40
0
  9
$TIMEZONE
 70
-8000
  9
$LIGHTGLYPHDISPLAY
280
    1
  9
$TILEMODELIGHTSYNCH
280
    1
  9
$SOLIDHIST
280
    1
  9
$SHOWHIST
280
    1
  9
$DWFFRAME
280
    2
  9
$DGNFRAME
280
    0
  9
$REALWORLDSCALE
290
    1
  9
$INTERFERECOLOR
 62
    1
  9
$CSHADOW
280
    0
  9
$SHADOWPLANELOCATION
 40
0
  0
ENDSEC
  0
SECTION
  2
CLASSES
  0
ENDSEC
  0
SECTION
  2
TABLES
  0
TABLE
  2
VPORT
  5
8
330
0
100
AcDbSymbolTable
 70
    1
  0
VPORT
  5
31
330
2
100
AcDbSymbolTableRecord
100
AcDbViewportTableRecord
  2
*ACTIVE
 70
    0
 10
0
 20
0
 11
1
 21
1
 12
126.6447898676004
 22
86.85774948504013
 13
0
 23
0
 14
10
 24
10
 15
10
 25
10
 16
0
 26
0
 36
1
 17
0
 27
0
 37
0
 40
102.5176372328671
 41
1.635879218472469
 42
50
 43
0
 44
0
 50
0
 51
0
 71
    0
 72
  100
 73
    1
 74
    3
 75
    0
 76
    1
 77
    0
 78
    0
281
    0
 65
    1
110
0
120
0
130
0
111
1
121
0
131
0
112
0
122
1
132
0
 79
    0
146
0
348
10020
 60
    7
 61
    5
292
1
282
    1
141
0
142
0
 63
  250
421
3358443
  0
ENDTAB
  0
TABLE
  2
LTYPE
  5
5
330
0
100
AcDbSymbolTable
 70
    4
  0
LTYPE
  5
14
330
5
100
AcDbSymbolTableRecord
100
AcDbLinetypeTableRecord
  2
ByBlock
 70
    0
  3

 72
   65
 73
    0
 40
0
  0
LTYPE
  5
15
330
5
100
AcDbSymbolTableRecord
100
AcDbLinetypeTableRecord
  2
ByLayer
 70
    0
  3

 72
   65
 73
    0
 40
0
  0
LTYPE
  5
16
330
5
100
AcDbSymbolTableRecord
100
AcDbLinetypeTableRecord
  2
Continuous
 70
    0
  3
Solid line
 72
   65
 73
    0
 40
0
  0
LTYPE
  5
32
330
5
100
AcDbSymbolTableRecord
100
AcDbLinetypeTableRecord
  2
DOT
 70
    0
  3
Dot . . . . . . . . . . . . . . . . . . . . . .
 72
   65
 73
    2
 40
6.35
 49
0
 74
    0
 49
-6.35
 74
    0
  0
LTYPE
  5
33
330
5
100
AcDbSymbolTableRecord
100
AcDbLinetypeTableRecord
  2
DOTTINY
 70
    0
  3
Dot (.15x) .....................................
 72
   65
 73
    2
 40
0.9525
 49
0
 74
    0
 49
-0.9525
 74
    0
  0
LTYPE
  5
34
330
5
100
AcDbSymbolTableRecord
100
AcDbLinetypeTableRecord
  2
DOT2
 70
    0
  3
Dot (.5x) .....................................
 72
   65
 73
    2
 40
3.175
 49
0
 74
    0
 49
-3.175
 74
    0
  0
LTYPE
  5
35
330
5
100
AcDbSymbolTableRecord
100
AcDbLinetypeTableRecord
  2
DOTX2
 70
    0
  3
Dot (2x) .  .  .  .  .  .  .  .  .  .  .  .  .
 72
   65
 73
    2
 40
12.7
 49
0
 74
    0
 49
-12.7
 74
    0
  0
LTYPE
  5
36
330
5
100
AcDbSymbolTableRecord
100
AcDbLinetypeTableRecord
  2
DASHED
 70
    0
  3
Dashed _ _ _ _ _ _ _ _ _ _ _ _ _ _ _ _ _
 72
   65
 73
    2
 40
19.05
 49
12.7
 74
    0
 49
-6.35
 74
    0
  0
LTYPE
  5
37
330
5
100
AcDbSymbolTableRecord
100
AcDbLinetypeTableRecord
  2
DASHEDTINY
 70
    0
  3
Dashed (.15x) _ _ _ _ _ _ _ _ _ _ _ _ _ _ _ _ _
 72
   65
 73
    2
 40
2.8575
 49
1.905
 74
    0
 49
-0.9525
 74
    0
  0
LTYPE
  5
38
330
5
100
AcDbSymbolTableRecord
100
AcDbLinetypeTableRecord
  2
DASHED2
 70
    0
  3
Dashed (.5x) _ _ _ _ _ _ _ _ _ _ _ _ _ _ _ _ _
 72
   65
 73
    2
 40
9.524999999999999
 49
6.35
 74
    0
 49
-3.175
 74
    0
  0
LTYPE
  5
39
330
5
100
AcDbSymbolTableRecord
100
AcDbLinetypeTableRecord
  2
DASHEDX2
 70
    0
  3
Dashed (2x) ____  ____  ____  ____  ____  ___
 72
   65
 73
    2
 40
38.09999999999999
 49
25.4
 74
    0
 49
-12.7
 74
    0
  0
LTYPE
  5
3A
330
5
100
AcDbSymbolTableRecord
100
AcDbLinetypeTableRecord
  2
DASHDOT
 70
    0
  3
Dash dot __ . __ . __ . __ . __ . __ . __ . __
 72
   65
 73
    4
 40
25.4
 49
12.7
 74
    0
 49
-6.35
 74
    0
 49
0
 74
    0
 49
-6.35
 74
    0
  0
LTYPE
  5
3B
330
5
100
AcDbSymbolTableRecord
100
AcDbLinetypeTableRecord
  2
DASHDOTTINY
 70
    0
  3
Dash dot (.15x) _._._._._._._._._._._._._._._.
 72
   65
 73
    4
 40
3.81
 49
1.905
 74
    0
 49
-0.9525
 74
    0
 49
0
 74
    0
 49
-0.9525
 74
    0
  0
LTYPE
  5
3C
330
5
100
AcDbSymbolTableRecord
100
AcDbLinetypeTableRecord
  2
DASHDOT2
 70
    0
  3
Dash dot (.5x) _._._._._._._._._._._._._._._.
 72
   65
 73
    4
 40
12.7
 49
6.35
 74
    0
 49
-3.175
 74
    0
 49
0
 74
    0
 49
-3.175
 74
    0
  0
LTYPE
  5
3D
330
5
100
AcDbSymbolTableRecord
100
AcDbLinetypeTableRecord
  2
DASHDOTX2
 70
    0
  3
Dash dot (2x) ____  .  ____  .  ____  .  ___
 72
   65
 73
    4
 40
50.8
 49
25.4
 74
    0
 49
-12.7
 74
    0
 49
0
 74
    0
 49
-12.7
 74
    0
  0
LTYPE
  5
3E
330
5
100
AcDbSymbolTableRecord
100
AcDbLinetypeTableRecord
  2
DIVIDE
 70
    0
  3
Divide ____ . . ____ . . ____ . . ____ . . ____
 72
   65
 73
    6
 40
31.75
 49
12.7
 74
    0
 49
-6.35
 74
    0
 49
0
 74
    0
 49
-6.35
 74
    0
 49
0
 74
    0
 49
-6.35
 74
    0
  0
LTYPE
  5
3F
330
5
100
AcDbSymbolTableRecord
100
AcDbLinetypeTableRecord
  2
DIVIDETINY
 70
    0
  3
Divide (.15x) __..__..__..__..__..__..__..__.._
 72
   65
 73
    6
 40
4.7625
 49
1.905
 74
    0
 49
-0.9525
 74
    0
 49
0
 74
    0
 49
-0.9525
 74
    0
 49
0
 74
    0
 49
-0.9525
 74
    0
  0
LTYPE
  5
40
330
5
100
AcDbSymbolTableRecord
100
AcDbLinetypeTableRecord
  2
DIVIDE2
 70
    0
  3
Divide (.5x) __..__..__..__..__..__..__..__.._
 72
   65
 73
    6
 40
15.875
 49
6.35
 74
    0
 49
-3.175
 74
    0
 49
0
 74
    0
 49
-3.175
 74
    0
 49
0
 74
    0
 49
-3.175
 74
    0
  0
LTYPE
  5
41
330
5
100
AcDbSymbolTableRecord
100
AcDbLinetypeTableRecord
  2
DIVIDEX2
 70
    0
  3
Divide (2x) ________  .  .  ________  .  .  _
 72
   65
 73
    6
 40
63.5
 49
25.4
 74
    0
 49
-12.7
 74
    0
 49
0
 74
    0
 49
-12.7
 74
    0
 49
0
 74
    0
 49
-12.7
 74
    0
  0
LTYPE
  5
42
330
5
100
AcDbSymbolTableRecord
100
AcDbLinetypeTableRecord
  2
BORDER
 70
    0
  3
Border __ __ . __ __ . __ __ . __ __ . __ __ .
 72
   65
 73
    6
 40
44.45
 49
12.7
 74
    0
 49
-6.35
 74
    0
 49
12.7
 74
    0
 49
-6.35
 74
    0
 49
0
 74
    0
 49
-6.35
 74
    0
  0
LTYPE
  5
43
330
5
100
AcDbSymbolTableRecord
100
AcDbLinetypeTableRecord
  2
BORDERTINY
 70
    0
  3
Border (.15x) __.__.__.__.__.__.__.__.__.__.__.
 72
   65
 73
    6
 40
6.6675
 49
1.905
 74
    0
 49
-0.9525
 74
    0
 49
1.905
 74
    0
 49
-0.9525
 74
    0
 49
0
 74
    0
 49
-0.9525
 74
    0
  0
LTYPE
  5
44
330
5
100
AcDbSymbolTableRecord
100
AcDbLinetypeTableRecord
  2
BORDER2
 70
    0
  3
Border (.5x) __.__.__.__.__.__.__.__.__.__.__.
 72
   65
 73
    6
 40
22.225
 49
6.35
 74
    0
 49
-3.175
 74
    0
 49
6.35
 74
    0
 49
-3.175
 74
    0
 49
0
 74
    0
 49
-3.175
 74
    0
  0
LTYPE
  5
45
330
5
100
AcDbSymbolTableRecord
100
AcDbLinetypeTableRecord
  2
BORDERX2
 70
    0
  3
Border (2x) ____  ____  .  ____  ____  .  ___
 72
   65
 73
    6
 40
88.89999999999999
 49
25.4
 74
    0
 49
-12.7
 74
    0
 49
25.4
 74
    0
 49
-12.7
 74
    0
 49
0
 74
    0
 49
-12.7
 74
    0
  0
LTYPE
  5
46
330
5
100
AcDbSymbolTableRecord
100
AcDbLinetypeTableRecord
  2
CENTER
 70
    0
  3
Center ____ _ ____ _ ____ _ ____ _ ____ _ ____
 72
   65
 73
    4
 40
50.8
 49
31.75
 74
    0
 49
-6.35
 74
    0
 49
6.35
 74
    0
 49
-6.35
 74
    0
  0
LTYPE
  5
47
330
5
100
AcDbSymbolTableRecord
100
AcDbLinetypeTableRecord
  2
CENTERTINY
 70
    0
  3
Center (.15x) ___ _ ___ _ ___ _ ___ _ ___ _ ___
 72
   65
 73
    4
 40
7.619999999999999
 49
4.7625
 74
    0
 49
-0.9525
 74
    0
 49
0.9525
 74
    0
 49
-0.9525
 74
    0
  0
LTYPE
  5
48
330
5
100
AcDbSymbolTableRecord
100
AcDbLinetypeTableRecord
  2
CENTER2
 70
    0
  3
Center (.5x) ___ _ ___ _ ___ _ ___ _ ___ _ ___
 72
   65
 73
    4
 40
28.575
 49
19.05
 74
    0
 49
-3.175
 74
    0
 49
3.175
 74
    0
 49
-3.175
 74
    0
  0
LTYPE
  5
49
330
5
100
AcDbSymbolTableRecord
100
AcDbLinetypeTableRecord
  2
CENTERX2
 70
    0
  3
Center (2x) ________  __  ________  __  _____
 72
   65
 73
    4
 40
101.6
 49
63.5
 74
    0
 49
-12.7
 74
    0
 49
12.7
 74
    0
 49
-12.7
 74
    0
  0
ENDTAB
  0
TABLE
  2
LAYER
  5
2
330
0
100
AcDbSymbolTable
 70
    1
  0
LAYER
  5
10
330
2
100
AcDbSymbolTableRecord
100
AcDbLayerTableRecord
  2
0
 70
    0
 62
    7
  6
CONTINUOUS
370
   50
390
F
  0
LAYER
  5
4A
330
2
100
AcDbSymbolTableRecord
100
AcDbLayerTableRecord
  2
1
 70
    0
 62
    7
  6
CONTINUOUS
370
   50
390
F
  0
LAYER
  5
4B
330
2
100
AcDbSymbolTableRecord
100
AcDbLayerTableRecord
  2
2
 70
    0
 62
    7
  6
CONTINUOUS
370
   50
390
F
  0
LAYER
  5
4C
330
2
100
AcDbSymbolTableRecord
100
AcDbLayerTableRecord
  2
Center
 70
    0
 62
    7
  6
CENTERTINY
370
   25
390
F
  0
LAYER
  5
4D
330
2
100
AcDbSymbolTableRecord
100
AcDbLayerTableRecord
  2
Construction
 70
    0
 62
    6
  6
CONTINUOUS
290
0
370
   25
390
F
  0
LAYER
  5
4E
330
2
100
AcDbSymbolTableRecord
100
AcDbLayerTableRecord
  2
Dimension
 70
    0
 62
    7
  6
CONTINUOUS
370
   25
390
F
  0
LAYER
  5
4F
330
2
100
AcDbSymbolTableRecord
100
AcDbLayerTableRecord
  2
Frame
 70
    0
 62
    7
  6
CONTINUOUS
370
   25
390
F
  0
LAYER
  5
50
330
2
100
AcDbSymbolTableRecord
100
AcDbLayerTableRecord
  2
Hatching
 70
    0
 62
    7
  6
CONTINUOUS
370
   25
390
F
  0
LAYER
  5
51
330
2
100
AcDbSymbolTableRecord
100
AcDbLayerTableRecord
  2
Hidden
 70
    0
 62
    7
  6
DASHEDTINY
370
   25
390
F
  0
LAYER
  5
52
330
2
100
AcDbSymbolTableRecord
100
AcDbLayerTableRecord
  2
Logo
 70
    0
 62
    7
  6
CONTINUOUS
370
   70
390
F
  0
LAYER
  5
53
330
2
100
AcDbSymbolTableRecord
100
AcDbLayerTableRecord
  2
Notes
 70
    0
 62
    7
  6
CONTINUOUS
370
   35
390
F
  0
LAYER
  5
54
330
2
100
AcDbSymbolTableRecord
100
AcDbLayerTableRecord
  2
Paper Bounds
 70
    0
 62
    6
  6
CONTINUOUS
370
    0
390
F
  0
LAYER
  5
55
330
2
100
AcDbSymbolTableRecord
100
AcDbLayerTableRecord
  2
Phantom
 70
    0
 62
    7
  6
DASHEDTINY
370
   25
390
F
  0
LAYER
  5
56
330
2
100
AcDbSymbolTableRecord
100
AcDbLayerTableRecord
  2
Title
 70
    0
 62
    7
  6
CONTINUOUS
370
   50
390
F
  0
ENDTAB
  0
TABLE
  2
STYLE
  5
3
330
0
100
AcDbSymbolTable
 70
    3
  0
STYLE
  5
57
330
2
100
AcDbSymbolTableRecord
100
AcDbTextStyleTableRecord
  2
iso
 70
    0
 40
0
 41
1
 50
0
 71
    0
 42
1
  3
iso
  4

  0
STYLE
  5
58
330
2
100
AcDbSymbolTableRecord
100
AcDbTextStyleTableRecord
  2
simplex
 70
    0
 40
0
 41
1
 50
0
 71
    0
 42
1
  3
simplex
  4

  0
STYLE
  5
59
330
2
100
AcDbSymbolTableRecord
100
AcDbTextStyleTableRecord
  2
Standard
 70
    0
 40
0
 41
1
 50
0
 71
    0
 42
1
  3
txt
  4

  0
ENDTAB
  0
TABLE
  2
VIEW
  5
6
330
0
100
AcDbSymbolTable
 70
    0
  0
ENDTAB
  0
TABLE
  2
UCS
  5
7
330
0
100
AcDbSymbolTable
 70
    0
  0
ENDTAB
  0
TABLE
  2
APPID
  5
9
330
0
100
AcDbSymbolTable
 70
    1
  0
APPID
  5
12
330
9
100
AcDbSymbolTableRecord
100
AcDbRegAppTableRecord
  2
ACAD
 70
    0
  0
APPID
  5
5A
330
9
100
AcDbSymbolTableRecord
100
AcDbRegAppTableRecord
  2
LibreCad
 70
    0
  0
ENDTAB
  0
TABLE
  2
DIMSTYLE
  5
A
330
0
100
AcDbSymbolTable
 70
    1
100
AcDbDimStyleTable
 71
    1
  0
DIMSTYLE
105
5B
330
A
100
AcDbSymbolTableRecord
100
AcDbDimStyleTableRecord
  2
Standard
 70
    0
 40
1
 41
2.5
 42
1
 43
0.38
 44
1.25
 45
0
 46
0
 47
0
 48
0
 49
1
140
2.5
141
0.09
142
0
143
25.4
144
1
145
0
146
1
147
1
148
0
 71
    0
 72
    0
 73
    1
 74
    1
 75
    0
 76
    0
 77
    0
 78
    1
 79
    0
170
    0
171
    2
172
    0
173
    0
174
    0
175
    0
176
    0
177
    0
178
    0
179
    2
271
    2
272
    4
273
    2
274
    2
275
    0
276
    0
277
    2
278
    0
279
    0
280
    0
281
    0
282
    0
283
    1
284
    0
285
    0
286
    0
288
    0
289
    3
340
standard
341

371
   -2
372
   -2
  0
ENDTAB
  0
TABLE
  2
BLOCK_RECORD
  5
1
330
0
100
AcDbSymbolTable
 70
    2
  0
BLOCK_RECORD
  5
1F
330
1
100
AcDbSymbolTableRecord
100
AcDbBlockTableRecord
  2
*Model_Space
 70
    0
280
    1
281
    0
  0
BLOCK_RECORD
  5
1E
330
1
100
AcDbSymbolTableRecord
100
AcDbBlockTableRecord
  2
*Paper_Space
 70
    0
280
    1
281
    0
  0
BLOCK_RECORD
  5
5C
330
1
100
AcDbSymbolTableRecord
100
AcDbBlockTableRecord
  2
*D2
 70
    0
280
    1
281
    0
  0
BLOCK_RECORD
  5
5F
330
1
100
AcDbSymbolTableRecord
100
AcDbBlockTableRecord
  2
*D12
 70
    0
280
    1
281
    0
  0
BLOCK_RECORD
  5
62
330
1
100
AcDbSymbolTableRecord
100
AcDbBlockTableRecord
  2
*D5
 70
    0
280
    1
281
    0
  0
BLOCK_RECORD
  5
65
330
1
100
AcDbSymbolTableRecord
100
AcDbBlockTableRecord
  2
*D6
 70
    0
280
    1
281
    0
  0
BLOCK_RECORD
  5
68
330
1
100
AcDbSymbolTableRecord
100
AcDbBlockTableRecord
  2
*D1
 70
    0
280
    1
281
    0
  0
BLOCK_RECORD
  5
6B
330
1
100
AcDbSymbolTableRecord
100
AcDbBlockTableRecord
  2
*D8
 70
    0
280
    1
281
    0
  0
BLOCK_RECORD
  5
6E
330
1
100
AcDbSymbolTableRecord
100
AcDbBlockTableRecord
  2
*D9
 70
    0
280
    1
281
    0
  0
BLOCK_RECORD
  5
71
330
1
100
AcDbSymbolTableRecord
100
AcDbBlockTableRecord
  2
*D3
 70
    0
280
    1
281
    0
  0
BLOCK_RECORD
  5
74
330
1
100
AcDbSymbolTableRecord
100
AcDbBlockTableRecord
  2
*D10
 70
    0
280
    1
281
    0
  0
BLOCK_RECORD
  5
77
330
1
100
AcDbSymbolTableRecord
100
AcDbBlockTableRecord
  2
*D14
 70
    0
280
    1
281
    0
  0
BLOCK_RECORD
  5
7A
330
1
100
AcDbSymbolTableRecord
100
AcDbBlockTableRecord
  2
*D11
 70
    0
280
    1
281
    0
  0
BLOCK_RECORD
  5
7D
330
1
100
AcDbSymbolTableRecord
100
AcDbBlockTableRecord
  2
*D7
 70
    0
280
    1
281
    0
  0
BLOCK_RECORD
  5
80
330
1
100
AcDbSymbolTableRecord
100
AcDbBlockTableRecord
  2
*D4
 70
    0
280
    1
281
    0
  0
BLOCK_RECORD
  5
83
330
1
100
AcDbSymbolTableRecord
100
AcDbBlockTableRecord
  2
*D13
 70
    0
280
    1
281
    0
  0
BLOCK_RECORD
  5
86
330
1
100
AcDbSymbolTableRecord
100
AcDbBlockTableRecord
  2
Page Template
 70
    0
280
    1
281
    0
  0
BLOCK_RECORD
  5
89
330
1
100
AcDbSymbolTableRecord
100
AcDbBlockTableRecord
  2
paragon_double_binder_miter_cnc
 70
    0
280
    1
281
    0
  0
ENDTAB
  0
ENDSEC
  0
SECTION
  2
BLOCKS
  0
BLOCK
  5
20
330
1F
100
AcDbEntity
  8
0
100
AcDbBlockBegin
  2
*Model_Space
 70
    0
 10
0
 20
0
 30
0
  3
*Model_Space
  1

  0
ENDBLK
  5
21
330
1F
100
AcDbEntity
  8
0
100
AcDbBlockEnd
  0
BLOCK
  5
1C
330
1B
100
AcDbEntity
  8
0
100
AcDbBlockBegin
  2
*Paper_Space
 70
    0
 10
0
 20
0
 30
0
  3
*Paper_Space
  1

  0
ENDBLK
  5
1D
330
1F
100
AcDbEntity
  8
0
100
AcDbBlockEnd
  0
BLOCK
  5
5D
330
5C
100
AcDbEntity
  8
0
100
AcDbBlockBegin
  2
*D2
 70
    1
 10
0
 20
0
  3
*D2
  1

  0
SOLID
  5
8C
100
AcDbEntity
  8
Dimension
  6
ByBlock
 62
    0
370
   -2
100
AcDbTrace
 10
102.9480921987172
 20
118.1503677456406
 30
0
 11
102.5318075409444
 21
120.6503677456406
 31
0
 12
103.36437685649
 22
120.6503677456406
 32
0
 13
103.36437685649
 23
120.6503677456406
 33
0
  0
SOLID
  5
8D
100
AcDbEntity
  8
Dimension
  6
ByBlock
 62
    0
370
   -2
100
AcDbTrace
 10
102.9480921987172
 20
135.4000000000001
 30
0
 11
103.36437685649
 21
132.9000000000001
 31
0
 12
102.5318075409444
 22
132.9000000000001
 32
0
 13
102.5318075409444
 23
132.9000000000001
 33
0
  0
LINE
  5
8E
100
AcDbEntity
  8
Title
  6
ByLayer
 62
  256
370
   -1
100
AcDbLine
 10
102.9480921987172
 20
118.1503677456406
 11
102.9480921987172
 21
124.5251838728203
  0
LINE
  5
8F
100
AcDbEntity
  8
Title
  6
ByLayer
 62
  256
370
   -1
100
AcDbLine
 10
102.9480921987172
 20
129.0251838728203
 11
102.9480921987172
 21
135.4000000000001
  0
MTEXT
  5
90
100
AcDbEntity
  8
Dimension
  6
CONTINUOUS
 62
    0
370
   -2
100
AcDbMText
 10
102.9480921987172
 20
126.7751838728203
 30
0
 40
2.5
 41
7.222222222222378
 71
    5
 72
    1
  1
17.25
  7
standard
210
0
220
0
230
1
 50
0
 73
    2
 44
1
  0
LINE
  5
91
100
AcDbEntity
  8
Dimension
  6
ByBlock
 62
    0
370
   -2
100
AcDbLine
 10
92.08812623727215
 20
118.1503677456406
 11
104.1980921987172
 21
118.1503677456406
  0
LINE
  5
92
100
AcDbEntity
  8
Dimension
  6
ByBlock
 62
    0
370
   -2
100
AcDbLine
 10
97.5
 20
135.4000000000001
 11
104.1980921987172
 21
135.4000000000001
  0
ENDBLK
  5
5E
330
5C
100
AcDbEntity
  8
0
100
AcDbBlockEnd
  0
BLOCK
  5
60
330
5F
100
AcDbEntity
  8
0
100
AcDbBlockBegin
  2
*D12
 70
    1
 10
0
 20
0
  3
*D12
  1

  0
SOLID
  5
93
100
AcDbEntity
  8
Dimension
  6
ByBlock
 62
    0
370
   -2
100
AcDbTrace
 10
247.0154563758062
 20
113.0408555392926
 30
0
 11
249.5154563758062
 21
113.4571401970654
 31
0
 12
249.5154563758062
 22
112.6245708815198
 32
0
 13
249.5154563758062
 23
112.6245708815198
 33
0
  0
SOLID
  5
94
100
AcDbEntity
  8
Dimension
  6
ByBlock
 62
    0
370
   -2
100
AcDbTrace
 10
244.5
 20
113.0408555392926
 30
0
 11
242
 21
112.6245708815198
 31
0
 12
242
 22
113.4571401970654
 32
0
 13
242
 23
113.4571401970654
 33
0
  0
LINE
  5
95
100
AcDbEntity
  8
Title
  6
ByLayer
 62
  256
370
   -1
100
AcDbLine
 10
252.0154563758062
 20
113.0408555392926
 11
247.0154563758062
 21
113.0408555392926
  0
LINE
  5
96
100
AcDbEntity
  8
Title
  6
ByLayer
 62
  256
370
   -1
100
AcDbLine
 10
239.5
 20
113.0408555392926
 11
244.5
 21
113.0408555392926
  0
MTEXT
  5
97
100
AcDbEntity
  8
Dimension
  6
CONTINUOUS
 62
    0
370
   -2
100
AcDbMText
 10
235.5833333333333
 20
113.0408555392926
 30
0
 40
2.5
 41
5.833333333333489
 71
    5
 72
    1
  1
2.52
  7
standard
210
0
220
0
230
1
 50
0
 73
    2
 44
1
  0
LINE
  5
98
100
AcDbEntity
  8
Dimension
  6
ByBlock
 62
    0
370
   -2
100
AcDbLine
 10
247.0154563758062
 20
117.1498570871693
 11
247.0154563758062
 21
111.7908555392926
  0
LINE
  5
99
100
AcDbEntity
  8
Dimension
  6
ByBlock
 62
    0
370
   -2
100
AcDbLine
 10
244.5
 20
122.1000000000001
 11
244.5
 21
111.7908555392926
  0
ENDBLK
  5
61
330
5F
100
AcDbEntity
  8
0
100
AcDbBlockEnd
  0
BLOCK
  5
63
330
62
100
AcDbEntity
  8
0
100
AcDbBlockBegin
  2
*D5
 70
    1
 10
0
 20
0
  3
*D5
  1

  0
SOLID
  5
9A
100
AcDbEntity
  8
Dimension
  6
ByBlock
 62
    0
370
   -2
100
AcDbTrace
 10
84.91187376272785
 20
107.6654861849766
 30
0
 11
82.41187376272785
 21
107.2492015272038
 31
0
 12
82.41187376272785
 22
108.0817708427494
 32
0
 13
82.41187376272785
 23
108.0817708427494
 33
0
  0
SOLID
  5
9B
100
AcDbEntity
  8
Dimension
  6
ByBlock
 62
    0
370
   -2
100
AcDbTrace
 10
91.08812623727215
 20
107.6654861849766
 30
0
 11
93.58812623727215
 21
108.0817708427494
 31
0
 12
93.58812623727215
 22
107.2492015272038
 32
0
 13
93.58812623727215
 23
107.2492015272038
 33
0
  0
LINE
  5
9C
100
AcDbEntity
  8
Title
  6
ByLayer
 62
  256
370
   -1
100
AcDbLine
 10
79.91187376272785
 20
107.6654861849766
 11
84.91187376272785
 21
107.6654861849766
  0
LINE
  5
9D
100
AcDbEntity
  8
Title
  6
ByLayer
 62
  256
370
   -1
100
AcDbLine
 10
96.08812623727215
 20
107.6654861849766
 11
91.08812623727215
 21
107.6654861849766
  0
MTEXT
  5
9E
100
AcDbEntity
  8
Dimension
  6
CONTINUOUS
 62
    0
370
   -2
100
AcDbMText
 10
99.72701512616112
 20
107.6654861849766
 30
0
 40
2.5
 41
5.277777777777933
 71
    5
 72
    1
  1
6.18
  7
standard
210
0
220
0
230
1
 50
0
 73
    2
 44
1
  0
LINE
  5
9F
100
AcDbEntity
  8
Dimension
  6
ByBlock
 62
    0
370
   -2
100
AcDbLine
 10
84.91187376272785
 20
117.1503677456406
 11
84.91187376272785
 21
106.4154861849766
  0
LINE
  5
A0
100
AcDbEntity
  8
Dimension
  6
ByBlock
 62
    0
370
   -2
100
AcDbLine
 10
91.08812623727215
 20
117.1503677456406
 11
91.08812623727215
 21
106.4154861849766
  0
ENDBLK
  5
64
330
62
100
AcDbEntity
  8
0
100
AcDbBlockEnd
  0
BLOCK
  5
66
330
65
100
AcDbEntity
  8
0
100
AcDbBlockBegin
  2
*D6
 70
    1
 10
0
 20
0
  3
*D6
  1

  0
SOLID
  5
A1
100
AcDbEntity
  8
Dimension
  6
ByBlock
 62
    0
370
   -2
100
AcDbTrace
 10
120.3139416468702
 20
107.6654861849766
 30
0
 11
117.8139416468702
 21
107.2492015272038
 31
0
 12
117.8139416468702
 22
108.0817708427494
 32
0
 13
117.8139416468702
 23
108.0817708427494
 33
0
  0
SOLID
  5
A2
100
AcDbEntity
  8
Dimension
  6
ByBlock
 62
    0
370
   -2
100
AcDbTrace
 10
129.6860583531298
 20
107.6654861849766
 30
0
 11
132.1860583531298
 21
108.0817708427494
 31
0
 12
132.1860583531298
 22
107.2492015272038
 32
0
 13
132.1860583531298
 23
107.2492015272038
 33
0
  0
LINE
  5
A3
100
AcDbEntity
  8
Title
  6
ByLayer
 62
  256
370
   -1
100
AcDbLine
 10
115.3139416468702
 20
107.6654861849766
 11
120.3139416468702
 21
107.6654861849766
  0
LINE
  5
A4
100
AcDbEntity
  8
Title
  6
ByLayer
 62
  256
370
   -1
100
AcDbLine
 10
134.6860583531298
 20
107.6654861849766
 11
129.6860583531298
 21
107.6654861849766
  0
MTEXT
  5
A5
100
AcDbEntity
  8
Dimension
  6
CONTINUOUS
 62
    0
370
   -2
100
AcDbMText
 10
125
 20
107.6654861849766
 30
0
 40
2.5
 41
5.833333333333645
 71
    5
 72
    1
  1
9.37
  7
standard
210
0
220
0
230
1
 50
0
 73
    2
 44
1
  0
LINE
  5
A6
100
AcDbEntity
  8
Dimension
  6
ByBlock
 62
    0
370
   -2
100
AcDbLine
 10
120.3139416468702
 20
117.1498607892252
 11
120.3139416468702
 21
106.4154861849766
  0
LINE
  5
A7
100
AcDbEntity
  8
Dimension
  6
ByBlock
 62
    0
370
   -2
100
AcDbLine
 10
129.6860583531298
 20
117.1498607892252
 11
129.6860583531298
 21
106.4154861849766
  0
ENDBLK
  5
67
330
65
100
AcDbEntity
  8
0
100
AcDbBlockEnd
  0
BLOCK
  5
69
330
68
100
AcDbEntity
  8
0
100
AcDbBlockBegin
  2
*D1
 70
    1
 10
0
 20
0
  3
*D1
  1

  0
SOLID
  5
A8
100
AcDbEntity
  8
Dimension
  6
ByBlock
 62
    0
370
   -2
100
AcDbTrace
 10
91.08812623727215
 20
113.8441489363045
 30
0
 11
88.58812623727215
 21
113.4278642785317
 31
0
 12
88.58812623727215
 22
114.2604335940773
 32
0
 13
88.58812623727215
 23
114.2604335940773
 33
0
  0
SOLID
  5
A9
100
AcDbEntity
  8
Dimension
  6
ByBlock
 62
    0
370
   -2
100
AcDbTrace
 10
96.5
 20
113.8441489363045
 30
0
 11
99
 21
114.2604335940773
 31
0
 12
99
 22
113.4278642785317
 32
0
 13
99
 23
113.4278642785317
 33
0
  0
LINE
  5
AA
100
AcDbEntity
  8
Title
  6
ByLayer
 62
  256
370
   -1
100
AcDbLine
 10
86.08812623727215
 20
113.8441489363045
 11
91.08812623727215
 21
113.8441489363045
  0
LINE
  5
AB
100
AcDbEntity
  8
Title
  6
ByLayer
 62
  256
370
   -1
100
AcDbLine
 10
101.5
 20
113.8441489363045
 11
96.5
 21
113.8441489363045
  0
MTEXT
  5
AC
100
AcDbEntity
  8
Dimension
  6
CONTINUOUS
 62
    0
370
   -2
100
AcDbMText
 10
105.2777777777779
 20
113.8441489363045
 30
0
 40
2.5
 41
5.55555555555571
 71
    5
 72
    1
  1
5.41
  7
standard
210
0
220
0
230
1
 50
0
 73
    2
 44
1
  0
LINE
  5
AD
100
AcDbEntity
  8
Dimension
  6
ByBlock
 62
    0
370
   -2
100
AcDbLine
 10
91.08812623727215
 20
117.1503677456406
 11
91.08812623727215
 21
112.5941489363045
  0
LINE
  5
AE
100
AcDbEntity
  8
Dimension
  6
ByBlock
 62
    0
370
   -2
100
AcDbLine
 10
96.5
 20
122.1000000000001
 11
96.5
 21
112.5941489363045
  0
ENDBLK
  5
6A
330
68
100
AcDbEntity
  8
0
100
AcDbBlockEnd
  0
BLOCK
  5
6C
330
6B
100
AcDbEntity
  8
0
100
AcDbBlockBegin
  2
*D8
 70
    1
 10
0
 20
0
  3
*D8
  1

  0
SOLID
  5
AF
100
AcDbEntity
  8
Dimension
  6
ByBlock
 62
    0
370
   -2
100
AcDbTrace
 10
191.3040922596419
 20
107.6654861849766
 30
0
 11
188.8040922596419
 21
107.2492015272038
 31
0
 12
188.8040922596419
 22
108.0817708427494
 32
0
 13
188.8040922596419
 23
108.0817708427494
 33
0
  0
SOLID
  5
B0
100
AcDbEntity
  8
Dimension
  6
ByBlock
 62
    0
370
   -2
100
AcDbTrace
 10
206.6959175357693
 20
107.6654861849766
 30
0
 11
209.1959175357693
 21
108.0817708427494
 31
0
 12
209.1959175357693
 22
107.2492015272038
 32
0
 13
209.1959175357693
 23
107.2492015272038
 33
0
  0
LINE
  5
B1
100
AcDbEntity
  8
Title
  6
ByLayer
 62
  256
370
   -1
100
AcDbLine
 10
186.3040922596419
 20
107.6654861849766
 11
191.3040922596419
 21
107.6654861849766
  0
LINE
  5
B2
100
AcDbEntity
  8
Title
  6
ByLayer
 62
  256
370
   -1
100
AcDbLine
 10
211.6959175357693
 20
107.6654861849766
 11
206.6959175357693
 21
107.6654861849766
  0
MTEXT
  5
B3
100
AcDbEntity
  8
Dimension
  6
CONTINUOUS
 62
    0
370
   -2
100
AcDbMText
 10
199.0000048977056
 20
107.6654861849766
 30
0
 40
2.5
 41
7.222222222222532
 71
    5
 72
    1
  1
15.39
  7
standard
210
0
220
0
230
1
 50
0
 73
    2
 44
1
  0
LINE
  5
B4
100
AcDbEntity
  8
Dimension
  6
ByBlock
 62
    0
370
   -2
100
AcDbLine
 10
191.3040922596419
 20
117.1493639450678
 11
191.3040922596419
 21
106.4154861849766
  0
LINE
  5
B5
100
AcDbEntity
  8
Dimension
  6
ByBlock
 62
    0
370
   -2
100
AcDbLine
 10
206.6959175357693
 20
117.1493505131663
 11
206.6959175357693
 21
106.4154861849766
  0
ENDBLK
  5
6D
330
6B
100
AcDbEntity
  8
0
100
AcDbBlockEnd
  0
BLOCK
  5
6F
330
6E
100
AcDbEntity
  8
0
100
AcDbBlockBegin
  2
*D9
 70
    1
 10
0
 20
0
  3
*D9
  1

  0
SOLID
  5
B6
100
AcDbEntity
  8
Dimension
  6
ByBlock
 62
    0
370
   -2
100
AcDbTrace
 10
167.8635979922663
 20
113.4361032859335
 30
0
 11
165.3635979922663
 21
113.0198186281607
 31
0
 12
165.3635979922663
 22
113.8523879437063
 32
0
 13
165.3635979922663
 23
113.8523879437063
 33
0
  0
SOLID
  5
B7
100
AcDbEntity
  8
Dimension
  6
ByBlock
 62
    0
370
   -2
100
AcDbTrace
 10
170.5
 20
113.4361032859335
 30
0
 11
173
 21
113.8523879437063
 31
0
 12
173
 22
113.0198186281607
 32
0
 13
173
 23
113.0198186281607
 33
0
  0
LINE
  5
B8
100
AcDbEntity
  8
Title
  6
ByLayer
 62
  256
370
   -1
100
AcDbLine
 10
162.8635979922663
 20
113.4361032859335
 11
167.8635979922663
 21
113.4361032859335
  0
LINE
  5
B9
100
AcDbEntity
  8
Title
  6
ByLayer
 62
  256
370
   -1
100
AcDbLine
 10
175.5
 20
113.4361032859335
 11
170.5
 21
113.4361032859335
  0
MTEXT
  5
BA
100
AcDbEntity
  8
Dimension
  6
CONTINUOUS
 62
    0
370
   -2
100
AcDbMText
 10
179.5555555555557
 20
113.4361032859335
 30
0
 40
2.5
 41
6.111111111111267
 71
    5
 72
    1
  1
2.64
  7
standard
210
0
220
0
230
1
 50
0
 73
    2
 44
1
  0
LINE
  5
BB
100
AcDbEntity
  8
Dimension
  6
ByBlock
 62
    0
370
   -2
100
AcDbLine
 10
167.8635979922663
 20
117.1503589364495
 11
167.8635979922663
 21
112.1861032859335
  0
LINE
  5
BC
100
AcDbEntity
  8
Dimension
  6
ByBlock
 62
    0
370
   -2
100
AcDbLine
 10
170.5
 20
122.1000000000001
 11
170.5
 21
112.1861032859335
  0
ENDBLK
  5
70
330
6E
100
AcDbEntity
  8
0
100
AcDbBlockEnd
  0
BLOCK
  5
72
330
71
100
AcDbEntity
  8
0
100
AcDbBlockBegin
  2
*D3
 70
    1
 10
0
 20
0
  3
*D3
  1

  0
SOLID
  5
BD
100
AcDbEntity
  8
Dimension
  6
ByBlock
 62
    0
370
   -2
100
AcDbTrace
 10
129.6860583531298
 20
113.7965788324714
 30
0
 11
127.1860583531298
 21
113.3802941746986
 31
0
 12
127.1860583531298
 22
114.2128634902442
 32
0
 13
127.1860583531298
 23
114.2128634902442
 33
0
  0
SOLID
  5
BE
100
AcDbEntity
  8
Dimension
  6
ByBlock
 62
    0
370
   -2
100
AcDbTrace
 10
133.5
 20
113.7965788324714
 30
0
 11
136
 21
114.2128634902442
 31
0
 12
136
 22
113.3802941746986
 32
0
 13
136
 23
113.3802941746986
 33
0
  0
LINE
  5
BF
100
AcDbEntity
  8
Title
  6
ByLayer
 62
  256
370
   -1
100
AcDbLine
 10
124.6860583531298
 20
113.7965788324714
 11
129.6860583531298
 21
113.7965788324714
  0
LINE
  5
C0
100
AcDbEntity
  8
Title
  6
ByLayer
 62
  256
370
   -1
100
AcDbLine
 10
138.5
 20
113.7965788324714
 11
133.5
 21
113.7965788324714
  0
MTEXT
  5
C1
100
AcDbEntity
  8
Dimension
  6
CONTINUOUS
 62
    0
370
   -2
100
AcDbMText
 10
142.138888888889
 20
113.7965788324714
 30
0
 40
2.5
 41
5.277777777777933
 71
    5
 72
    1
  1
3.81
  7
standard
210
0
220
0
230
1
 50
0
 73
    2
 44
1
  0
LINE
  5
C2
100
AcDbEntity
  8
Dimension
  6
ByBlock
 62
    0
370
   -2
100
AcDbLine
 10
129.6860583531298
 20
117.1498607892252
 11
129.6860583531298
 21
112.5465788324714
  0
LINE
  5
C3
100
AcDbEntity
  8
Dimension
  6
ByBlock
 62
    0
370
   -2
100
AcDbLine
 10
133.5
 20
122.1000000000001
 11
133.5
 21
112.5465788324714
  0
ENDBLK
  5
73
330
71
100
AcDbEntity
  8
0
100
AcDbBlockEnd
  0
BLOCK
  5
75
330
74
100
AcDbEntity
  8
0
100
AcDbBlockBegin
  2
*D10
 70
    1
 10
0
 20
0
  3
*D10
  1

  0
SOLID
  5
C4
100
AcDbEntity
  8
Dimension
  6
ByBlock
 62
    0
370
   -2
100
AcDbTrace
 10
207.5
 20
112.8827564406362
 30
0
 11
210
 21
113.299041098409
 31
0
 12
210
 22
112.4664717828634
 32
0
 13
210
 23
112.4664717828634
 33
0
  0
SOLID
  5
C5
100
AcDbEntity
  8
Dimension
  6
ByBlock
 62
    0
370
   -2
100
AcDbTrace
 10
206.6959175357693
 20
112.8827564406362
 30
0
 11
204.1959175357693
 21
112.4664717828634
 31
0
 12
204.1959175357693
 22
113.299041098409
 32
0
 13
204.1959175357693
 23
113.299041098409
 33
0
  0
LINE
  5
C6
100
AcDbEntity
  8
Title
  6
ByLayer
 62
  256
370
   -1
100
AcDbLine
 10
212.5
 20
112.8827564406362
 11
207.5
 21
112.8827564406362
  0
LINE
  5
C7
100
AcDbEntity
  8
Title
  6
ByLayer
 62
  256
370
   -1
100
AcDbLine
 10
201.6959175357693
 20
112.8827564406362
 11
206.6959175357693
 21
112.8827564406362
  0
MTEXT
  5
C8
100
AcDbEntity
  8
Dimension
  6
CONTINUOUS
 62
    0
370
   -2
100
AcDbMText
 10
197.7792508691027
 20
112.8827564406362
 30
0
 40
2.5
 41
5.833333333333334
 71
    5
 72
    1
  1
0.80
  7
standard
210
0
220
0
230
1
 50
0
 73
    2
 44
1
  0
LINE
  5
C9
100
AcDbEntity
  8
Dimension
  6
ByBlock
 62
    0
370
   -2
100
AcDbLine
 10
207.5
 20
122.1000000000001
 11
207.5
 21
111.6327564406362
  0
LINE
  5
CA
100
AcDbEntity
  8
Dimension
  6
ByBlock
 62
    0
370
   -2
100
AcDbLine
 10
206.6959175357693
 20
117.1493505131663
 11
206.6959175357693
 21
111.6327564406362
  0
ENDBLK
  5
76
330
74
100
AcDbEntity
  8
0
100
AcDbBlockEnd
  0
BLOCK
  5
78
330
77
100
AcDbEntity
  8
0
100
AcDbBlockBegin
  2
*D14
 70
    1
 10
0
 20
0
  3
*D14
  1

  0
SOLID
  5
CB
100
AcDbEntity
  8
Dimension
  6
ByBlock
 62
    0
370
   -2
100
AcDbTrace
 10
185.1857569169413
 20
128.3073733745709
 30
0
 11
185.6020415747141
 21
125.8073733745709
 31
0
 12
184.7694722591684
 22
125.8073733745709
 32
0
 13
184.7694722591684
 23
125.8073733745709
 33
0
  0
SOLID
  5
CC
100
AcDbEntity
  8
Dimension
  6
ByBlock
 62
    0
370
   -2
100
AcDbTrace
 10
185.1857569169413
 20
135.4000000000001
 30
0
 11
184.7694722591684
 21
137.9000000000001
 31
0
 12
185.6020415747141
 22
137.9000000000001
 32
0
 13
185.6020415747141
 23
137.9000000000001
 33
0
  0
LINE
  5
CD
100
AcDbEntity
  8
Dimension
  6
ByLayer
 62
  256
370
   -1
100
AcDbLine
 10
185.1857569169413
 20
123.3073733745709
 11
185.1857569169413
 21
128.3073733745709
  0
LINE
  5
CE
100
AcDbEntity
  8
Dimension
  6
ByLayer
 62
  256
370
   -1
100
AcDbLine
 10
185.1857569169413
 20
140.4000000000001
 11
185.1857569169413
 21
135.4000000000001
  0
MTEXT
  5
CF
100
AcDbEntity
  8
Dimension
  6
CONTINUOUS
 62
    0
370
   -2
100
AcDbMText
 10
185.1857569169413
 20
131.8536866872855
 30
0
 40
2.5
 41
5.833333333333334
 71
    5
 72
    1
  1
7.09
  7
standard
210
0
220
0
230
1
 50
0
 73
    2
 44
1
  0
LINE
  5
D0
100
AcDbEntity
  8
Dimension
  6
ByBlock
 62
    0
370
   -2
100
AcDbLine
 10
189.5
 20
128.3073733745709
 11
183.9357569169413
 21
128.3073733745709
  0
LINE
  5
D1
100
AcDbEntity
  8
Dimension
  6
ByBlock
 62
    0
370
   -2
100
AcDbLine
 10
189.5
 20
135.4000000000001
 11
183.9357569169413
 21
135.4000000000001
  0
ENDBLK
  5
79
330
77
100
AcDbEntity
  8
0
100
AcDbBlockEnd
  0
BLOCK
  5
7B
330
7A
100
AcDbEntity
  8
0
100
AcDbBlockBegin
  2
*D11
 70
    1
 10
0
 20
0
  3
*D11
  1

  0
SOLID
  5
D2
100
AcDbEntity
  8
Dimension
  6
ByBlock
 62
    0
370
   -2
100
AcDbTrace
 10
224.9845436241938
 20
107.6654861849766
 30
0
 11
227.4845436241938
 21
108.0817708427494
 31
0
 12
227.4845436241938
 22
107.2492015272038
 32
0
 13
227.4845436241938
 23
107.2492015272038
 33
0
  0
SOLID
  5
D3
100
AcDbEntity
  8
Dimension
  6
ByBlock
 62
    0
370
   -2
100
AcDbTrace
 10
247.0154563758062
 20
107.6654861849766
 30
0
 11
244.5154563758062
 21
107.2492015272038
 31
0
 12
244.5154563758062
 22
108.0817708427494
 32
0
 13
244.5154563758062
 23
108.0817708427494
 33
0
  0
LINE
  5
D4
100
AcDbEntity
  8
Title
  6
ByLayer
 62
  256
370
   -1
100
AcDbLine
 10
224.9845436241938
 20
107.6654861849766
 11
231.111111111111
 21
107.6654861849766
  0
LINE
  5
D5
100
AcDbEntity
  8
Title
  6
ByLayer
 62
  256
370
   -1
100
AcDbLine
 10
240.888888888889
 20
107.6654861849766
 11
247.0154563758062
 21
107.6654861849766
  0
MTEXT
  5
D6
100
AcDbEntity
  8
Dimension
  6
CONTINUOUS
 62
    0
370
   -2
100
AcDbMText
 10
236
 20
107.6654861849766
 30
0
 40
2.5
 41
7.777777777777933
 71
    5
 72
    1
  1
22.03
  7
standard
210
0
220
0
230
1
 50
0
 73
    2
 44
1
  0
LINE
  5
D7
100
AcDbEntity
  8
Dimension
  6
ByBlock
 62
    0
370
   -2
100
AcDbLine
 10
224.9845436241938
 20
117.1498570871693
 11
224.9845436241938
 21
106.4154861849766
  0
LINE
  5
D8
100
AcDbEntity
  8
Dimension
  6
ByBlock
 62
    0
370
   -2
100
AcDbLine
 10
247.0154563758062
 20
117.1498570871693
 11
247.0154563758062
 21
106.4154861849766
  0
ENDBLK
  5
7C
330
7A
100
AcDbEntity
  8
0
100
AcDbBlockEnd
  0
BLOCK
  5
7E
330
7D
100
AcDbEntity
  8
0
100
AcDbBlockBegin
  2
*D7
 70
    1
 10
0
 20
0
  3
*D7
  1

  0
SOLID
  5
D9
100
AcDbEntity
  8
Dimension
  6
ByBlock
 62
    0
370
   -2
100
AcDbTrace
 10
156.1364020077337
 20
107.5864366356484
 30
0
 11
153.6364020077337
 21
107.1701519778756
 31
0
 12
153.6364020077337
 22
108.0027212934212
 32
0
 13
153.6364020077337
 23
108.0027212934212
 33
0
  0
SOLID
  5
DA
100
AcDbEntity
  8
Dimension
  6
ByBlock
 62
    0
370
   -2
100
AcDbTrace
 10
167.8635979922663
 20
107.5864366356484
 30
0
 11
170.3635979922663
 21
108.0027212934212
 31
0
 12
170.3635979922663
 22
107.1701519778756
 32
0
 13
170.3635979922663
 23
107.1701519778756
 33
0
  0
LINE
  5
DB
100
AcDbEntity
  8
Title
  6
ByLayer
 62
  256
370
   -1
100
AcDbLine
 10
151.1364020077337
 20
107.5864366356484
 11
156.1364020077337
 21
107.5864366356484
  0
LINE
  5
DC
100
AcDbEntity
  8
Title
  6
ByLayer
 62
  256
370
   -1
100
AcDbLine
 10
172.8635979922663
 20
107.5864366356484
 11
167.8635979922663
 21
107.5864366356484
  0
MTEXT
  5
DD
100
AcDbEntity
  8
Dimension
  6
CONTINUOUS
 62
    0
370
   -2
100
AcDbMText
 10
162
 20
107.5864366356484
 30
0
 40
2.5
 41
6.666666666666822
 71
    5
 72
    1
  1
11.73
  7
standard
210
0
220
0
230
1
 50
0
 73
    2
 44
1
  0
LINE
  5
DE
100
AcDbEntity
  8
Dimension
  6
ByBlock
 62
    0
370
   -2
100
AcDbLine
 10
156.1364020077337
 20
117.1503589364495
 11
156.1364020077337
 21
106.3364366356484
  0
LINE
  5
DF
100
AcDbEntity
  8
Dimension
  6
ByBlock
 62
    0
370
   -2
100
AcDbLine
 10
167.8635979922663
 20
117.1503589364495
 11
167.8635979922663
 21
106.3364366356484
  0
ENDBLK
  5
7F
330
7D
100
AcDbEntity
  8
0
100
AcDbBlockEnd
  0
BLOCK
  5
81
330
80
100
AcDbEntity
  8
0
100
AcDbBlockBegin
  2
*D4
 70
    1
 10
0
 20
0
  3
*D4
  1

  0
SOLID
  5
E0
100
AcDbEntity
  8
Dimension
  6
ByBlock
 62
    0
370
   -2
100
AcDbTrace
 10
71.65785773407305
 20
123.1000000000001
 30
0
 11
72.07414239184588
 21
120.6000000000001
 31
0
 12
71.24157307630021
 22
120.6000000000001
 32
0
 13
71.24157307630021
 23
120.6000000000001
 33
0
  0
SOLID
  5
E1
100
AcDbEntity
  8
Dimension
  6
ByBlock
 62
    0
370
   -2
100
AcDbTrace
 10
71.65785773407305
 20
130
 30
0
 11
71.24157307630021
 21
132.5
 31
0
 12
72.07414239184588
 22
132.5
 32
0
 13
72.07414239184588
 23
132.5
 33
0
  0
LINE
  5
E2
100
AcDbEntity
  8
Title
  6
ByLayer
 62
  256
370
   -1
100
AcDbLine
 10
71.65785773407305
 20
118.1000000000001
 11
71.65785773407305
 21
123.1000000000001
  0
LINE
  5
E3
100
AcDbEntity
  8
Title
  6
ByLayer
 62
  256
370
   -1
100
AcDbLine
 10
71.65785773407305
 20
135
 11
71.65785773407305
 21
130
  0
MTEXT
  5
E4
100
AcDbEntity
  8
Dimension
  6
CONTINUOUS
 62
    0
370
   -2
100
AcDbMText
 10
71.65785773407305
 20
126.55
 30
0
 40
2.5
 41
5.833333333333488
 71
    5
 72
    1
  1
6.90
  7
standard
210
0
220
0
230
1
 50
0
 73
    2
 44
1
  0
LINE
  5
E5
100
AcDbEntity
  8
Dimension
  6
ByBlock
 62
    0
370
   -2
100
AcDbLine
 10
78.5
 20
123.1000000000001
 11
70.40785773407305
 21
123.1000000000001
  0
LINE
  5
E6
100
AcDbEntity
  8
Dimension
  6
ByBlock
 62
    0
370
   -2
100
AcDbLine
 10
87
 20
130
 11
70.40785773407305
 21
130
  0
ENDBLK
  5
82
330
80
100
AcDbEntity
  8
0
100
AcDbBlockEnd
  0
BLOCK
  5
84
330
83
100
AcDbEntity
  8
0
100
AcDbBlockBegin
  2
*D13
 70
    1
 10
0
 20
0
  3
*D13
  1

  0
SOLID
  5
E7
100
AcDbEntity
  8
Dimension
  6
ByBlock
 62
    0
370
   -2
100
AcDbTrace
 10
213.3082037956845
 20
118.1493505131663
 30
0
 11
212.8919191379116
 21
120.6493505131663
 31
0
 12
213.7244884534573
 22
120.6493505131663
 32
0
 13
213.7244884534573
 23
120.6493505131663
 33
0
  0
SOLID
  5
E8
100
AcDbEntity
  8
Dimension
  6
ByBlock
 62
    0
370
   -2
100
AcDbTrace
 10
213.3082037956845
 20
135.4000000000001
 30
0
 11
213.7244884534573
 21
132.9000000000001
 31
0
 12
212.8919191379116
 22
132.9000000000001
 32
0
 13
212.8919191379116
 23
132.9000000000001
 33
0
  0
LINE
  5
E9
100
AcDbEntity
  8
Dimension
  6
ByLayer
 62
  256
370
   -1
100
AcDbLine
 10
213.3082037956845
 20
118.1493505131663
 11
213.3082037956845
 21
124.5246752565832
  0
LINE
  5
EA
100
AcDbEntity
  8
Dimension
  6
ByLayer
 62
  256
370
   -1
100
AcDbLine
 10
213.3082037956845
 20
129.0246752565832
 11
213.3082037956845
 21
135.4000000000001
  0
MTEXT
  5
EB
100
AcDbEntity
  8
Dimension
  6
CONTINUOUS
 62
    0
370
   -2
100
AcDbMText
 10
213.3082037956845
 20
126.7746752565832
 30
0
 40
2.5
 41
7.222222222222378
 71
    5
 72
    1
  1
17.25
  7
standard
210
0
220
0
230
1
 50
0
 73
    2
 44
1
  0
LINE
  5
EC
100
AcDbEntity
  8
Dimension
  6
ByBlock
 62
    0
370
   -2
100
AcDbLine
 10
207.6959175357693
 20
118.1493505131663
 11
214.5582037956845
 21
118.1493505131663
  0
LINE
  5
ED
100
AcDbEntity
  8
Dimension
  6
ByBlock
 62
    0
370
   -2
100
AcDbLine
 10
208.5
 20
135.4000000000001
 11
214.5582037956845
 21
135.4000000000001
  0
ENDBLK
  5
85
330
83
100
AcDbEntity
  8
0
100
AcDbBlockEnd
  0
BLOCK
  5
87
330
86
100
AcDbEntity
  8
0
100
AcDbBlockBegin
  2
Page Template
 70
    0
 10
0
 20
0
  3
Page Template
  1

  0
MTEXT
  5
EE
100
AcDbEntity
  8
Notes
  6
ByLayer
 62
  256
370
   -1
100
AcDbMText
 10
192.5060464745159
 20
36.23562684819499
 30
0
 40
2.5
 41
69.86111882541968
 71
    7
 72
    1
  1
General Notes:\P1. Unless otherwise specified, dimensions\P  are in millimeters.\P2.
  7
iso
210
0
220
0
230
1
 50
0
 73
    2
 44
1
  0
LWPOLYLINE
  5
EF
100
AcDbEntity
  8
Frame
  6
ByLayer
 62
  256
370
   -1
100
AcDbPolyline
 90
    4
 70
    1
 43
0
 10
10
 20
10
 10
269.4
 20
10
 10
269.4
 20
205.9
 10
10
 20
205.9
  0
LINE
  5
F0
100
AcDbEntity
  8
Paper Bounds
  6
ByLayer
 62
  256
370
   -1
100
AcDbLine
 10
0
 20
215.9
 11
20
 21
215.9
  0
LINE
  5
F1
100
AcDbEntity
  8
Paper Bounds
  6
ByLayer
 62
  256
370
   -1
100
AcDbLine
 10
279.4
 20
0
 11
259.4
 21
0
  0
LINE
  5
F2
100
AcDbEntity
  8
Paper Bounds
  6
ByLayer
 62
  256
370
   -1
100
AcDbLine
 10
279.4
 20
0
 11
279.4
 21
20
  0
LINE
  5
F3
100
AcDbEntity
  8
Paper Bounds
  6
ByLayer
 62
  256
370
   -1
100
AcDbLine
 10
0
 20
215.9
 11
-1.224646799147353e-15
 21
195.9
  0
LINE
  5
F4
100
AcDbEntity
  8
Frame
  6
ByLayer
 62
  256
370
   -1
100
AcDbLine
 10
10
 20
20
 11
269.4
 21
20
  0
LINE
  5
F5
100
AcDbEntity
  8
Frame
  6
ByLayer
 62
  256
370
   -1
100
AcDbLine
 10
47.20000000000011
 20
20
 11
47.20000000000011
 21
10
  0
MTEXT
  5
F6
100
AcDbEntity
  8
Logo
  6
ByLayer
 62
  256
370
   -1
100
AcDbMText
 10
13
 20
15.5
 30
0
 40
5
 41
31.42858333333333
 71
    4
 72
    1
  1
upcycles
  7
simplex
210
0
220
0
230
1
 50
0
 73
    2
 44
1
  0
MTEXT
  5
F7
100
AcDbEntity
  8
Title
  6
ByLayer
 62
  256
370
   -1
100
AcDbMText
 10
158.3
 20
15
 30
0
 40
4
 41
214.555554707548
 71
    5
 72
    1
  1
PARAGON DOUBLE BINDER MITER - CNC TOOLPATH 5/8" ENDMILL - SCALE: 1:1
  7
iso
210
0
220
0
230
1
 50
0
 73
    2
 44
1
  0
ENDBLK
  5
88
330
86
100
AcDbEntity
  8
0
100
AcDbBlockEnd
  0
BLOCK
  5
8A
330
89
100
AcDbEntity
  8
0
100
AcDbBlockBegin
  2
paragon_double_binder_miter_cnc
 70
    0
 10
0
 20
0
  3
paragon_double_binder_miter_cnc
  1

  0
LINE
  5
F8
100
AcDbEntity
  8
0
  6
ByLayer
 62
  256
370
   -1
100
AcDbLine
 10
-8.018573537305418
 20
14.65290637860093
 11
-1.218573537305417
 21
14.65290637860093
  0
LINE
  5
F9
100
AcDbEntity
  8
0
  6
ByLayer
 62
  256
370
   -1
100
AcDbLine
 10
-8.018573537305418
 20
9.452906378600925
 11
-1.218573537305417
 21
9.452906378600925
  0
LINE
  5
FA
100
AcDbEntity
  8
0
  6
ByLayer
 62
  256
370
   -1
100
AcDbLine
 10
-2.218573537305417
 20
4.201808758855979
 11
-1.218573537305417
 21
4.201808758855979
  0
LINE
  5
FB
100
AcDbEntity
  8
0
  6
ByLayer
 62
  256
370
   -1
100
AcDbLine
 10
-2.218573537305417
 20
4.526107684446623
 11
-1.218573537305417
 21
4.526107684446623
  0
LINE
  5
FC
100
AcDbEntity
  8
0
  6
ByLayer
 62
  256
370
   -1
100
AcDbLine
 10
-2.218573537305417
 20
4.960279753171706
 11
-1.218573537305417
 21
4.960279753171706
  0
LINE
  5
FD
100
AcDbEntity
  8
0
  6
ByLayer
 62
  256
370
   -1
100
AcDbLine
 10
-2.218573537305417
 20
5.520374314090089
 11
-1.218573537305417
 21
5.520374314090089
  0
LINE
  5
FE
100
AcDbEntity
  8
0
  6
ByLayer
 62
  256
370
   -1
100
AcDbLine
 10
-17.21857353730542
 20
4.201808758855979
 11
-18.21857353730542
 21
4.201808758855979
  0
LINE
  5
FF
100
AcDbEntity
  8
0
  6
ByLayer
 62
  256
370
   -1
100
AcDbLine
 10
-17.21857353730542
 20
4.526107684446623
 11
-18.21857353730542
 21
4.526107684446623
  0
LINE
  5
100
100
AcDbEntity
  8
0
  6
ByLayer
 62
  256
370
   -1
100
AcDbLine
 10
-17.21857353730542
 20
4.960279753171706
 11
-18.21857353730542
 21
4.960279753171706
  0
LINE
  5
101
100
AcDbEntity
  8
0
  6
ByLayer
 62
  256
370
   -1
100
AcDbLine
 10
-17.21857353730542
 20
5.520374314090089
 11
-18.21857353730542
 21
5.520374314090089
  0
ARC
  5
102
100
AcDbEntity
  8
0
  6
ByLayer
 62
  256
370
   -1
100
AcDbCircle
 10
-9.718573537305417
 20
-4.459593621399188
 40
3.175
100
AcDbArc
 50
124.4780659176068
 51
-166.5658022471795
  0
ARC
  5
103
100
AcDbEntity
  8
0
  6
ByLayer
 62
  256
370
   -1
100
AcDbCircle
 10
-9.718573537305417
 20
-4.459593621399188
 40
3.175
100
AcDbArc
 50
55.52193408239316
 51
124.4780659176068
  0
ARC
  5
104
100
AcDbEntity
  8
0
  6
ByLayer
 62
  256
370
   -1
100
AcDbCircle
 10
-9.718573537305415
 20
-4.459593621399189
 40
3.175
100
AcDbArc
 50
-13.43419775282049
 51
55.52193408239319
  0
ARC
  5
105
100
AcDbEntity
  8
0
  6
ByLayer
 62
  256
370
   -1
100
AcDbCircle
 10
-9.718573537305417
 20
-7.634593621399187
 40
6.35
100
AcDbArc
 50
22.57148192987536
 51
90
  0
ARC
  5
106
100
AcDbEntity
  8
0
  6
ByLayer
 62
  256
370
   -1
100
AcDbCircle
 10
-9.718573537305417
 20
-7.634593621399187
 40
6.35
100
AcDbArc
 50
90
 51
157.4285180701246
  0
ARC
  5
107
100
AcDbEntity
  8
0
  6
ByLayer
 62
  256
370
   -1
100
AcDbCircle
 10
-9.718573537305417
 20
-6.047093621399186
 40
4.762499999999999
100
AcDbArc
 50
10.27935473548347
 51
90
  0
ARC
  5
108
100
AcDbEntity
  8
0
  6
ByLayer
 62
  256
370
   -1
100
AcDbCircle
 10
-9.718573537305417
 20
-6.047093621399188
 40
4.762500000000001
100
AcDbArc
 50
90
 51
169.7206452645165
  0
ARC
  5
109
100
AcDbEntity
  8
0
  6
ByLayer
 62
  256
370
   -1
100
AcDbCircle
 10
-9.718573537305417
 20
-10.80959362139919
 40
9.524999999999999
100
AcDbArc
 50
36.10194894318818
 51
90
  0
ARC
  5
10A
100
AcDbEntity
  8
0
  6
ByLayer
 62
  256
370
   -1
100
AcDbCircle
 10
-9.718573537305417
 20
-10.80959362139918
 40
9.524999999999999
100
AcDbArc
 50
90
 51
143.8980510568119
  0
ARC
  5
10B
100
AcDbEntity
  8
0
  6
ByLayer
 62
  256
370
   -1
100
AcDbCircle
 10
-9.718573537305419
 20
-18.74709362139919
 40
17.4625
100
AcDbArc
 50
50.89035926981425
 51
129.1096407301858
  0
LINE
  5
10C
100
AcDbEntity
  8
0
  6
ByLayer
 62
  256
370
   -1
100
AcDbLine
 10
-1.218573537305417
 20
9.952906378600925
 11
-8.018573537305418
 21
9.952906378600925
  0
LINE
  5
10D
100
AcDbEntity
  8
0
  6
ByLayer
 62
  256
370
   -1
100
AcDbLine
 10
-8.018573537305418
 20
9.952906378600925
 11
-8.018573537305418
 21
9.452906378600925
  0
LINE
  5
10E
100
AcDbEntity
  8
0
  6
ByLayer
 62
  256
370
   -1
100
AcDbLine
 10
-8.018573537305418
 20
9.452906378600925
 11
-13.61857353730542
 21
9.452906378600925
  0
LINE
  5
10F
100
AcDbEntity
  8
0
  6
ByLayer
 62
  256
370
   -1
100
AcDbLine
 10
-13.61857353730542
 20
9.452906378600925
 11
-13.61857353730542
 21
7.652906378600925
  0
LINE
  5
110
100
AcDbEntity
  8
0
  6
ByLayer
 62
  256
370
   -1
100
AcDbLine
 10
-13.61857353730542
 20
7.652906378600925
 11
-18.21857353730542
 21
7.652906378600925
  0
LINE
  5
111
100
AcDbEntity
  8
0
  6
ByLayer
 62
  256
370
   -1
100
AcDbLine
 10
-18.21857353730542
 20
16.45290637860093
 11
-13.61857353730542
 21
16.45290637860093
  0
LINE
  5
112
100
AcDbEntity
  8
0
  6
ByLayer
 62
  256
370
   -1
100
AcDbLine
 10
-13.61857353730542
 20
16.45290637860093
 11
-13.61857353730542
 21
14.65290637860093
  0
LINE
  5
113
100
AcDbEntity
  8
0
  6
ByLayer
 62
  256
370
   -1
100
AcDbLine
 10
-13.61857353730542
 20
14.65290637860093
 11
-8.018573537305418
 21
14.65290637860093
  0
LINE
  5
114
100
AcDbEntity
  8
0
  6
ByLayer
 62
  256
370
   -1
100
AcDbLine
 10
-8.018573537305418
 20
14.65290637860093
 11
-8.018573537305418
 21
14.15290637860093
  0
LINE
  5
115
100
AcDbEntity
  8
0
  6
ByLayer
 62
  256
370
   -1
100
AcDbLine
 10
-8.018573537305418
 20
14.15290637860093
 11
-1.218573537305417
 21
14.15290637860093
  0
LINE
  5
116
100
AcDbEntity
  8
0
  6
ByLayer
 62
  256
370
   -1
100
AcDbLine
 10
-2.218573537305417
 20
3.740263465770077
 11
-1.218573537305417
 21
3.740263465770077
  0
LINE
  5
117
100
AcDbEntity
  8
0
  6
ByLayer
 62
  256
370
   -1
100
AcDbLine
 10
-1.218573537305417
 20
3.740263465770077
 11
-1.218573537305417
 21
-0.2470936213990758
  0
LINE
  5
118
100
AcDbEntity
  8
0
  6
ByLayer
 62
  256
370
   -1
100
AcDbLine
 10
-1.218573537305417
 20
-0.2470936213990758
 11
-18.21857353730542
 21
-0.2470936213990758
  0
LINE
  5
119
100
AcDbEntity
  8
0
  6
ByLayer
 62
  256
370
   -1
100
AcDbLine
 10
-18.21857353730542
 20
-0.2470936213990758
 11
-18.21857353730542
 21
3.740263465770077
  0
LINE
  5
11A
100
AcDbEntity
  8
0
  6
ByLayer
 62
  256
370
   -1
100
AcDbLine
 10
-18.21857353730542
 20
3.740263465770077
 11
-17.21857353730542
 21
3.740263465770077
  0
LINE
  5
11B
100
AcDbEntity
  8
0
  6
ByLayer
 62
  256
370
   -1
100
AcDbLine
 10
-18.21857353730542
 20
3.740263465770077
 11
-18.21857353730542
 21
17.65793163177023
  0
LINE
  5
11C
100
AcDbEntity
  8
0
  6
ByLayer
 62
  256
370
   -1
100
AcDbLine
 10
-18.21857353730542
 20
17.65793163177023
 11
-17.72359879047483
 21
18.15290637860081
  0
LINE
  5
11D
100
AcDbEntity
  8
0
  6
ByLayer
 62
  256
370
   -1
100
AcDbLine
 10
-17.72359879047483
 20
18.15290637860081
 11
-1.713548284136001
 21
18.15290637860081
  0
LINE
  5
11E
100
AcDbEntity
  8
0
  6
ByLayer
 62
  256
370
   -1
100
AcDbLine
 10
-1.713548284136001
 20
18.15290637860081
 11
-1.218573537305417
 21
17.65793163177023
  0
LINE
  5
11F
100
AcDbEntity
  8
0
  6
ByLayer
 62
  256
370
   -1
100
AcDbLine
 10
-1.218573537305417
 20
17.65793163177023
 11
-1.218573537305417
 21
3.740263465770077
  0
ARC
  5
120
100
AcDbEntity
  8
0
  6
ByLayer
 62
  256
370
   -1
100
AcDbCircle
 10
-9.718573537305417
 20
-4.45959362139919
 40
11.1125
100
AcDbArc
 50
90
 51
132.4475991631212
  0
ARC
  5
121
100
AcDbEntity
  8
0
  6
ByLayer
 62
  256
370
   -1
100
AcDbCircle
 10
-9.718573537305417
 20
-18.7470936213992
 40
25.40000000000002
100
AcDbArc
 50
72.82593628169042
 51
107.1740637183096
  0
ARC
  5
122
100
AcDbEntity
  8
0
  6
ByLayer
 62
  256
370
   -1
100
AcDbCircle
 10
-9.718573537305417
 20
-10.80959362139918
 40
17.4625
100
AcDbArc
 50
64.56468920583436
 51
115.4353107941656
  0
ARC
  5
123
100
AcDbEntity
  8
0
  6
ByLayer
 62
  256
370
   -1
100
AcDbCircle
 10
-9.718573537305417
 20
-7.634593621399185
 40
14.2875
100
AcDbArc
 50
58.33617393170303
 51
121.663826068297
  0
ARC
  5
124
100
AcDbEntity
  8
0
  6
ByLayer
 62
  256
370
   -1
100
AcDbCircle
 10
-9.718573537305419
 20
-6.047093621399185
 40
12.7
100
AcDbArc
 50
53.80386855501899
 51
126.196131444981
  0
ARC
  5
125
100
AcDbEntity
  8
0
  6
ByLayer
 62
  256
370
   -1
100
AcDbCircle
 10
-9.718573537305417
 20
-4.459593621399188
 40
11.1125
100
AcDbArc
 50
47.55240083687876
 51
90
  0
ENDBLK
  5
8B
330
89
100
AcDbEntity
  8
0
100
AcDbBlockEnd
  0
ENDSEC
  0
SECTION
  2
ENTITIES
  0
INSERT
  5
126
100
AcDbEntity
  8
Title
  6
ByLayer
 62
  256
370
   -1
100
AcDbBlockReference
  2
Page Template
 10
0
 20
0
 30
0
 41
1
 42
1
 43
0
 50
0
 70
    1
 71
    1
 44
0
 45
0
  0
LINE
  5
127
100
AcDbEntity
  8
0
  6
ByLayer
 62
  256
370
   -1
100
AcDbLine
 10
243.5
 20
128.8674679354893
 11
244.5
 21
128.8674679354893
  0
LINE
  5
128
100
AcDbEntity
  8
0
  6
ByLayer
 62
  256
370
   -1
100
AcDbLine
 10
228.5
 20
128.8674679354893
 11
227.5
 21
128.8674679354893
  0
ARC
  5
129
100
AcDbEntity
  8
Dimension
  6
ByLayer
 62
  256
370
   -1
100
AcDbCircle
 10
236
 20
104.6
 40
17.4625
100
AcDbArc
 50
50.89035926981425
 51
129.1096407301858
  0
LINE
  5
12A
100
AcDbEntity
  8
0
  6
ByLayer
 62
  256
370
   -1
100
AcDbLine
 10
244.5
 20
133.3000000000001
 11
237.7
 21
133.3000000000001
  0
LINE
  5
12B
100
AcDbEntity
  8
0
  6
ByLayer
 62
  256
370
   -1
100
AcDbLine
 10
237.7
 20
133.3000000000001
 11
237.7
 21
132.8000000000001
  0
LINE
  5
12C
100
AcDbEntity
  8
0
  6
ByLayer
 62
  256
370
   -1
100
AcDbLine
 10
237.7
 20
132.8000000000001
 11
232.1
 21
132.8000000000001
  0
LINE
  5
12D
100
AcDbEntity
  8
0
  6
ByLayer
 62
  256
370
   -1
100
AcDbLine
 10
232.1
 20
132.8000000000001
 11
232.1
 21
131.0000000000001
  0
LINE
  5
12E
100
AcDbEntity
  8
0
  6
ByLayer
 62
  256
370
   -1
100
AcDbLine
 10
232.1
 20
131.0000000000001
 11
227.5
 21
131.0000000000001
  0
LINE
  5
12F
100
AcDbEntity
  8
0
  6
ByLayer
 62
  256
370
   -1
100
AcDbLine
 10
227.5
 20
139.8000000000001
 11
232.1
 21
139.8000000000001
  0
LINE
  5
130
100
AcDbEntity
  8
0
  6
ByLayer
 62
  256
370
   -1
100
AcDbLine
 10
232.1
 20
139.8000000000001
 11
232.1
 21
138.0000000000001
  0
LINE
  5
131
100
AcDbEntity
  8
0
  6
ByLayer
 62
  256
370
   -1
100
AcDbLine
 10
232.1
 20
138.0000000000001
 11
237.7
 21
138.0000000000001
  0
LINE
  5
132
100
AcDbEntity
  8
0
  6
ByLayer
 62
  256
370
   -1
100
AcDbLine
 10
237.7
 20
138.0000000000001
 11
237.7
 21
137.5000000000001
  0
LINE
  5
133
100
AcDbEntity
  8
0
  6
ByLayer
 62
  256
370
   -1
100
AcDbLine
 10
237.7
 20
137.5000000000001
 11
244.5
 21
137.5000000000001
  0
LINE
  5
134
100
AcDbEntity
  8
Phantom
  6
ByLayer
 62
  256
370
   -1
100
AcDbLine
 10
244.5
 20
123.1000000000001
 11
227.5
 21
123.1000000000001
  0
LINE
  5
135
100
AcDbEntity
  8
0
  6
ByLayer
 62
  256
370
   -1
100
AcDbLine
 10
227.5
 20
141.0050252531694
 11
227.9949747468306
 21
141.5
  0
LINE
  5
136
100
AcDbEntity
  8
0
  6
ByLayer
 62
  256
370
   -1
100
AcDbLine
 10
227.9949747468306
 20
141.5
 11
244.0050252531694
 21
141.5
  0
LINE
  5
137
100
AcDbEntity
  8
0
  6
ByLayer
 62
  256
370
   -1
100
AcDbLine
 10
244.0050252531694
 20
141.5
 11
244.5
 21
141.0050252531694
  0
ARC
  5
138
100
AcDbEntity
  8
0
  6
ByLayer
 62
  256
370
   -1
100
AcDbCircle
 10
236
 20
104.6
 40
25.40000000000002
100
AcDbArc
 50
72.82593628169042
 51
107.1740637183096
  0
LINE
  5
139
100
AcDbEntity
  8
Phantom
  6
ByLayer
 62
  256
370
   -1
100
AcDbLine
 10
227.5
 20
123.1000000000001
 11
227.5
 21
128.8674679354893
  0
LINE
  5
13A
100
AcDbEntity
  8
0
  6
ByLayer
 62
  256
370
   -1
100
AcDbLine
 10
227.5
 20
128.8674679354893
 11
227.5
 21
141.0050252531694
  0
LINE
  5
13B
100
AcDbEntity
  8
0
  6
ByLayer
 62
  256
370
   -1
100
AcDbLine
 10
244.5
 20
141.0050252531694
 11
244.5
 21
128.8674679354893
  0
LINE
  5
13C
100
AcDbEntity
  8
Phantom
  6
ByLayer
 62
  256
370
   -1
100
AcDbLine
 10
244.5
 20
128.8674679354893
 11
244.5
 21
123.1000000000001
  0
MTEXT
  5
13D
100
AcDbEntity
  8
Dimension
  6
ByLayer
 62
  256
370
   -1
100
AcDbMText
 10
236.251921986093
 20
118.8199574469472
 30
0
 40
2.5
 41
9.722222222222378
 71
    5
 72
    1
  1
R17.46
  7
iso
210
0
220
0
230
1
 50
0
 73
    2
 44
1
  0
ARC
  5
13E
100
AcDbEntity
  8
Dimension
  6
ByLayer
 62
  256
370
   -1
100
AcDbCircle
 10
88
 20
118.888
 40
3.175
100
AcDbArc
 50
346.566
 51
193.434
  0
LINE
  5
13F
100
AcDbEntity
  8
0
  6
ByLayer
 62
  256
370
   -1
100
AcDbLine
 10
96.5
 20
133.3000000000001
 11
89.7
 21
133.3000000000001
  0
LINE
  5
140
100
AcDbEntity
  8
0
  6
ByLayer
 62
  256
370
   -1
100
AcDbLine
 10
89.7
 20
133.3000000000001
 11
89.7
 21
132.8000000000001
  0
LINE
  5
141
100
AcDbEntity
  8
0
  6
ByLayer
 62
  256
370
   -1
100
AcDbLine
 10
89.7
 20
132.8000000000001
 11
84.09999999999999
 21
132.8000000000001
  0
LINE
  5
142
100
AcDbEntity
  8
0
  6
ByLayer
 62
  256
370
   -1
100
AcDbLine
 10
84.09999999999999
 20
132.8000000000001
 11
84.09999999999999
 21
131.0000000000001
  0
LINE
  5
143
100
AcDbEntity
  8
0
  6
ByLayer
 62
  256
370
   -1
100
AcDbLine
 10
84.09999999999999
 20
131.0000000000001
 11
79.5
 21
131.0000000000001
  0
LINE
  5
144
100
AcDbEntity
  8
0
  6
ByLayer
 62
  256
370
   -1
100
AcDbLine
 10
79.5
 20
139.8000000000001
 11
84.09999999999999
 21
139.8000000000001
  0
LINE
  5
145
100
AcDbEntity
  8
0
  6
ByLayer
 62
  256
370
   -1
100
AcDbLine
 10
84.09999999999999
 20
139.8000000000001
 11
84.09999999999999
 21
138.0000000000001
  0
LINE
  5
146
100
AcDbEntity
  8
0
  6
ByLayer
 62
  256
370
   -1
100
AcDbLine
 10
84.09999999999999
 20
138.0000000000001
 11
89.7
 21
138.0000000000001
  0
LINE
  5
147
100
AcDbEntity
  8
0
  6
ByLayer
 62
  256
370
   -1
100
AcDbLine
 10
89.7
 20
138.0000000000001
 11
89.7
 21
137.5000000000001
  0
LINE
  5
148
100
AcDbEntity
  8
0
  6
ByLayer
 62
  256
370
   -1
100
AcDbLine
 10
89.7
 20
137.5000000000001
 11
96.5
 21
137.5000000000001
  0
LINE
  5
149
100
AcDbEntity
  8
0
  6
ByLayer
 62
  256
370
   -1
100
AcDbLine
 10
95.5
 20
127.0873570871693
 11
96.5
 21
127.0873570871693
  0
LINE
  5
14A
100
AcDbEntity
  8
Phantom
  6
ByLayer
 62
  256
370
   -1
100
AcDbLine
 10
96.5
 20
127.0873570871693
 11
96.5
 21
123.1000000000001
  0
LINE
  5
14B
100
AcDbEntity
  8
Phantom
  6
ByLayer
 62
  256
370
   -1
100
AcDbLine
 10
96.5
 20
123.1000000000001
 11
79.5
 21
123.1000000000001
  0
LINE
  5
14C
100
AcDbEntity
  8
Phantom
  6
ByLayer
 62
  256
370
   -1
100
AcDbLine
 10
79.5
 20
123.1000000000001
 11
79.5
 21
127.0873570871693
  0
LINE
  5
14D
100
AcDbEntity
  8
0
  6
ByLayer
 62
  256
370
   -1
100
AcDbLine
 10
79.5
 20
127.0873570871693
 11
80.5
 21
127.0873570871693
  0
LINE
  5
14E
100
AcDbEntity
  8
0
  6
ByLayer
 62
  256
370
   -1
100
AcDbLine
 10
79.5
 20
127.0873570871693
 11
79.5
 21
141.0050252531694
  0
LINE
  5
14F
100
AcDbEntity
  8
0
  6
ByLayer
 62
  256
370
   -1
100
AcDbLine
 10
79.5
 20
141.0050252531694
 11
79.99497474683059
 21
141.5
  0
LINE
  5
150
100
AcDbEntity
  8
0
  6
ByLayer
 62
  256
370
   -1
100
AcDbLine
 10
79.99497474683059
 20
141.5
 11
96.00502525316941
 21
141.5
  0
LINE
  5
151
100
AcDbEntity
  8
0
  6
ByLayer
 62
  256
370
   -1
100
AcDbLine
 10
96.00502525316941
 20
141.5
 11
96.5
 21
141.0050252531694
  0
LINE
  5
152
100
AcDbEntity
  8
0
  6
ByLayer
 62
  256
370
   -1
100
AcDbLine
 10
96.5
 20
141.0050252531694
 11
96.5
 21
127.0873570871693
  0
ARC
  5
153
100
AcDbEntity
  8
0
  6
ByLayer
 62
  256
370
   -1
100
AcDbCircle
 10
88
 20
118.8875
 40
11.1125
100
AcDbArc
 50
90
 51
132.4475991631212
  0
ARC
  5
154
100
AcDbEntity
  8
0
  6
ByLayer
 62
  256
370
   -1
100
AcDbCircle
 10
88
 20
118.8875
 40
11.1125
100
AcDbArc
 50
47.55240083687876
 51
90
  0
DIMENSION
  5
155
100
AcDbEntity
  8
Dimension
  6
ByLayer
 62
  256
370
   -1
100
AcDbDimension
  2
*D1
 10
96.5
 20
113.8441489363045
 30
0
 11
105.2777777777779
 21
113.8441489363045
 31
0
 70
   32
 71
    5
 72
    0
  3
Standard
 53
0
210
0
220
0
230
1
100
AcDbAlignedDimension
 13
91.08812623727215
 23
118.1503677456406
 33
0
 14
96.5
 24
123.1000000000001
 34
0
100
AcDbRotatedDimension
  0
DIMENSION
  5
156
100
AcDbEntity
  8
Dimension
  6
ByLayer
 62
  256
370
   -1
100
AcDbDimension
  2
*D2
 10
102.9480921987172
 20
135.4000000000001
 30
0
 11
102.9480921987172
 21
126.7751838728203
 31
0
 70
   32
 71
    5
 72
    0
  3
Standard
 53
0
210
0
220
0
230
1
100
AcDbAlignedDimension
 13
91.08812623727215
 23
118.1503677456406
 33
0
 14
96.5
 24
135.4000000000001
 34
0
 50
90
100
AcDbRotatedDimension
  0
MTEXT
  5
157
100
AcDbEntity
  8
Dimension
  6
ByLayer
 62
  256
370
   -1
100
AcDbMText
 10
79.50504430092359
 20
120.2075083109992
 30
0
 40
2.5
 41
7.500000000000156
 71
    5
 72
    1
  1
R3.17
  7
iso
210
0
220
0
230
1
 50
0
 73
    2
 44
1
  0
ARC
  5
158
100
AcDbEntity
  8
Dimension
  6
ByLayer
 62
  256
370
   -1
100
AcDbCircle
 10
125
 20
117.3
 40
4.7625
100
AcDbArc
 50
10.2794
 51
169.7206
  0
LINE
  5
159
100
AcDbEntity
  8
0
  6
ByLayer
 62
  256
370
   -1
100
AcDbLine
 10
132.5
 20
127.5489023802552
 11
133.5
 21
127.5489023802552
  0
LINE
  5
15A
100
AcDbEntity
  8
0
  6
ByLayer
 62
  256
370
   -1
100
AcDbLine
 10
117.5
 20
127.5489023802552
 11
116.5
 21
127.5489023802552
  0
LINE
  5
15B
100
AcDbEntity
  8
0
  6
ByLayer
 62
  256
370
   -1
100
AcDbLine
 10
133.5
 20
133.3000000000001
 11
126.7
 21
133.3000000000001
  0
LINE
  5
15C
100
AcDbEntity
  8
0
  6
ByLayer
 62
  256
370
   -1
100
AcDbLine
 10
126.7
 20
133.3000000000001
 11
126.7
 21
132.8000000000001
  0
LINE
  5
15D
100
AcDbEntity
  8
0
  6
ByLayer
 62
  256
370
   -1
100
AcDbLine
 10
126.7
 20
132.8000000000001
 11
121.1
 21
132.8000000000001
  0
LINE
  5
15E
100
AcDbEntity
  8
0
  6
ByLayer
 62
  256
370
   -1
100
AcDbLine
 10
121.1
 20
132.8000000000001
 11
121.1
 21
131.0000000000001
  0
LINE
  5
15F
100
AcDbEntity
  8
0
  6
ByLayer
 62
  256
370
   -1
100
AcDbLine
 10
121.1
 20
131.0000000000001
 11
116.5
 21
131.0000000000001
  0
LINE
  5
160
100
AcDbEntity
  8
0
  6
ByLayer
 62
  256
370
   -1
100
AcDbLine
 10
116.5
 20
139.8000000000001
 11
121.1
 21
139.8000000000001
  0
LINE
  5
161
100
AcDbEntity
  8
0
  6
ByLayer
 62
  256
370
   -1
100
AcDbLine
 10
121.1
 20
139.8000000000001
 11
121.1
 21
138.0000000000001
  0
LINE
  5
162
100
AcDbEntity
  8
0
  6
ByLayer
 62
  256
370
   -1
100
AcDbLine
 10
121.1
 20
138.0000000000001
 11
126.7
 21
138.0000000000001
  0
LINE
  5
163
100
AcDbEntity
  8
0
  6
ByLayer
 62
  256
370
   -1
100
AcDbLine
 10
126.7
 20
138.0000000000001
 11
126.7
 21
137.5000000000001
  0
LINE
  5
164
100
AcDbEntity
  8
0
  6
ByLayer
 62
  256
370
   -1
100
AcDbLine
 10
126.7
 20
137.5000000000001
 11
133.5
 21
137.5000000000001
  0
LINE
  5
165
100
AcDbEntity
  8
Phantom
  6
ByLayer
 62
  256
370
   -1
100
AcDbLine
 10
133.5
 20
123.1000000000001
 11
116.5
 21
123.1000000000001
  0
LINE
  5
166
100
AcDbEntity
  8
0
  6
ByLayer
 62
  256
370
   -1
100
AcDbLine
 10
116.5
 20
141.0050252531694
 11
116.9949747468306
 21
141.5
  0
LINE
  5
167
100
AcDbEntity
  8
0
  6
ByLayer
 62
  256
370
   -1
100
AcDbLine
 10
116.9949747468306
 20
141.5
 11
133.0050252531694
 21
141.5
  0
LINE
  5
168
100
AcDbEntity
  8
0
  6
ByLayer
 62
  256
370
   -1
100
AcDbLine
 10
133.0050252531694
 20
141.5
 11
133.5
 21
141.0050252531694
  0
ARC
  5
169
100
AcDbEntity
  8
0
  6
ByLayer
 62
  256
370
   -1
100
AcDbCircle
 10
125
 20
117.3
 40
12.7
100
AcDbArc
 50
53.80386855501899
 51
126.196131444981
  0
LINE
  5
16A
100
AcDbEntity
  8
Phantom
  6
ByLayer
 62
  256
370
   -1
100
AcDbLine
 10
133.5
 20
127.5489023802552
 11
133.5
 21
123.1000000000001
  0
LINE
  5
16B
100
AcDbEntity
  8
0
  6
ByLayer
 62
  256
370
   -1
100
AcDbLine
 10
133.5
 20
141.0050252531694
 11
133.5
 21
127.5489023802552
  0
LINE
  5
16C
100
AcDbEntity
  8
0
  6
ByLayer
 62
  256
370
   -1
100
AcDbLine
 10
116.5
 20
127.5489023802552
 11
116.5
 21
141.0050252531694
  0
LINE
  5
16D
100
AcDbEntity
  8
Phantom
  6
ByLayer
 62
  256
370
   -1
100
AcDbLine
 10
116.5
 20
123.1000000000001
 11
116.5
 21
127.5489023802552
  0
MTEXT
  5
16E
100
AcDbEntity
  8
Dimension
  6
ByLayer
 62
  256
370
   -1
100
AcDbMText
 10
114.6416453902168
 20
120
 30
0
 40
2.5
 41
8.333333333333488
 71
    5
 72
    1
  1
R4.76
  7
iso
210
0
220
0
230
1
 50
0
 73
    2
 44
1
  0
DIMENSION
  5
16F
100
AcDbEntity
  8
Dimension
  6
ByLayer
 62
  256
370
   -1
100
AcDbDimension
  2
*D3
 10
133.5
 20
113.7965788324714
 30
0
 11
142.138888888889
 21
113.7965788324714
 31
0
 70
   32
 71
    5
 72
    0
  3
Standard
 53
0
210
0
220
0
230
1
100
AcDbAlignedDimension
 13
129.6860583531298
 23
118.1498607892252
 33
0
 14
133.5
 24
123.1000000000001
 34
0
100
AcDbRotatedDimension
  0
LINE
  5
170
100
AcDbEntity
  8
0
  6
ByLayer
 62
  256
370
   -1
100
AcDbLine
 10
169.5
 20
127.8732013058458
 11
170.5
 21
127.8732013058458
  0
LINE
  5
171
100
AcDbEntity
  8
0
  6
ByLayer
 62
  256
370
   -1
100
AcDbLine
 10
154.5
 20
127.8732013058458
 11
153.5
 21
127.8732013058458
  0
LINE
  5
172
100
AcDbEntity
  8
0
  6
ByLayer
 62
  256
370
   -1
100
AcDbLine
 10
170.5
 20
133.3000000000001
 11
163.7
 21
133.3000000000001
  0
LINE
  5
173
100
AcDbEntity
  8
0
  6
ByLayer
 62
  256
370
   -1
100
AcDbLine
 10
163.7
 20
133.3000000000001
 11
163.7
 21
132.8000000000001
  0
LINE
  5
174
100
AcDbEntity
  8
0
  6
ByLayer
 62
  256
370
   -1
100
AcDbLine
 10
163.7
 20
132.8000000000001
 11
158.1
 21
132.8000000000001
  0
LINE
  5
175
100
AcDbEntity
  8
0
  6
ByLayer
 62
  256
370
   -1
100
AcDbLine
 10
158.1
 20
132.8000000000001
 11
158.1
 21
131.0000000000001
  0
LINE
  5
176
100
AcDbEntity
  8
0
  6
ByLayer
 62
  256
370
   -1
100
AcDbLine
 10
158.1
 20
131.0000000000001
 11
153.5
 21
131.0000000000001
  0
LINE
  5
177
100
AcDbEntity
  8
0
  6
ByLayer
 62
  256
370
   -1
100
AcDbLine
 10
153.5
 20
139.8000000000001
 11
158.1
 21
139.8000000000001
  0
LINE
  5
178
100
AcDbEntity
  8
0
  6
ByLayer
 62
  256
370
   -1
100
AcDbLine
 10
158.1
 20
139.8000000000001
 11
158.1
 21
138.0000000000001
  0
LINE
  5
179
100
AcDbEntity
  8
0
  6
ByLayer
 62
  256
370
   -1
100
AcDbLine
 10
158.1
 20
138.0000000000001
 11
163.7
 21
138.0000000000001
  0
LINE
  5
17A
100
AcDbEntity
  8
0
  6
ByLayer
 62
  256
370
   -1
100
AcDbLine
 10
163.7
 20
138.0000000000001
 11
163.7
 21
137.5000000000001
  0
LINE
  5
17B
100
AcDbEntity
  8
0
  6
ByLayer
 62
  256
370
   -1
100
AcDbLine
 10
163.7
 20
137.5000000000001
 11
170.5
 21
137.5000000000001
  0
LINE
  5
17C
100
AcDbEntity
  8
Phantom
  6
ByLayer
 62
  256
370
   -1
100
AcDbLine
 10
170.5
 20
123.1000000000001
 11
153.5
 21
123.1000000000001
  0
LINE
  5
17D
100
AcDbEntity
  8
0
  6
ByLayer
 62
  256
370
   -1
100
AcDbLine
 10
153.5
 20
141.0050252531694
 11
153.9949747468306
 21
141.5
  0
LINE
  5
17E
100
AcDbEntity
  8
0
  6
ByLayer
 62
  256
370
   -1
100
AcDbLine
 10
153.9949747468306
 20
141.5
 11
170.0050252531694
 21
141.5
  0
LINE
  5
17F
100
AcDbEntity
  8
0
  6
ByLayer
 62
  256
370
   -1
100
AcDbLine
 10
170.0050252531694
 20
141.5
 11
170.5
 21
141.0050252531694
  0
ARC
  5
180
100
AcDbEntity
  8
0
  6
ByLayer
 62
  256
370
   -1
100
AcDbCircle
 10
162
 20
115.7125
 40
14.2875
100
AcDbArc
 50
58.33617393170303
 51
121.663826068297
  0
LINE
  5
181
100
AcDbEntity
  8
0
  6
ByLayer
 62
  256
370
   -1
100
AcDbLine
 10
153.5
 20
127.8732013058458
 11
153.5
 21
141.0050252531694
  0
LINE
  5
182
100
AcDbEntity
  8
Phantom
  6
ByLayer
 62
  256
370
   -1
100
AcDbLine
 10
153.5
 20
123.1000000000001
 11
153.5
 21
127.8732013058458
  0
LINE
  5
183
100
AcDbEntity
  8
0
  6
ByLayer
 62
  256
370
   -1
100
AcDbLine
 10
170.5
 20
141.0050252531694
 11
170.5
 21
127.8732013058458
  0
LINE
  5
184
100
AcDbEntity
  8
Phantom
  6
ByLayer
 62
  256
370
   -1
100
AcDbLine
 10
170.5
 20
127.8732013058458
 11
170.5
 21
123.1000000000001
  0
ARC
  5
185
100
AcDbEntity
  8
Dimension
  6
ByLayer
 62
  256
370
   -1
100
AcDbCircle
 10
162
 20
115.713
 40
6.35
100
AcDbArc
 50
22.5715
 51
157.4285
  0
MTEXT
  5
186
100
AcDbEntity
  8
Dimension
  6
ByLayer
 62
  256
370
   -1
100
AcDbMText
 10
151.1322065144842
 20
120.0530180404655
 30
0
 40
2.5
 41
8.055555555556023
 71
    5
 72
    1
  1
R6.35
  7
iso
210
0
220
0
230
1
 50
0
 73
    2
 44
1
  0
LINE
  5
187
100
AcDbEntity
  8
0
  6
ByLayer
 62
  256
370
   -1
100
AcDbLine
 10
206.5
 20
128.3073733745709
 11
207.5
 21
128.3073733745709
  0
LINE
  5
188
100
AcDbEntity
  8
0
  6
ByLayer
 62
  256
370
   -1
100
AcDbLine
 10
191.5
 20
128.3073733745709
 11
190.5
 21
128.3073733745709
  0
LINE
  5
189
100
AcDbEntity
  8
0
  6
ByLayer
 62
  256
370
   -1
100
AcDbLine
 10
207.5
 20
133.3000000000001
 11
200.7
 21
133.3000000000001
  0
LINE
  5
18A
100
AcDbEntity
  8
0
  6
ByLayer
 62
  256
370
   -1
100
AcDbLine
 10
200.7
 20
133.3000000000001
 11
200.7
 21
132.8000000000001
  0
LINE
  5
18B
100
AcDbEntity
  8
0
  6
ByLayer
 62
  256
370
   -1
100
AcDbLine
 10
200.7
 20
132.8000000000001
 11
195.1
 21
132.8000000000001
  0
LINE
  5
18C
100
AcDbEntity
  8
0
  6
ByLayer
 62
  256
370
   -1
100
AcDbLine
 10
195.1
 20
132.8000000000001
 11
195.1
 21
131.0000000000001
  0
LINE
  5
18D
100
AcDbEntity
  8
0
  6
ByLayer
 62
  256
370
   -1
100
AcDbLine
 10
195.1
 20
131.0000000000001
 11
190.5
 21
131.0000000000001
  0
LINE
  5
18E
100
AcDbEntity
  8
0
  6
ByLayer
 62
  256
370
   -1
100
AcDbLine
 10
190.5
 20
139.8000000000001
 11
195.1
 21
139.8000000000001
  0
LINE
  5
18F
100
AcDbEntity
  8
0
  6
ByLayer
 62
  256
370
   -1
100
AcDbLine
 10
195.1
 20
139.8000000000001
 11
195.1
 21
138.0000000000001
  0
LINE
  5
190
100
AcDbEntity
  8
0
  6
ByLayer
 62
  256
370
   -1
100
AcDbLine
 10
195.1
 20
138.0000000000001
 11
200.7
 21
138.0000000000001
  0
LINE
  5
191
100
AcDbEntity
  8
0
  6
ByLayer
 62
  256
370
   -1
100
AcDbLine
 10
200.7
 20
138.0000000000001
 11
200.7
 21
137.5000000000001
  0
LINE
  5
192
100
AcDbEntity
  8
0
  6
ByLayer
 62
  256
370
   -1
100
AcDbLine
 10
200.7
 20
137.5000000000001
 11
207.5
 21
137.5000000000001
  0
LINE
  5
193
100
AcDbEntity
  8
Phantom
  6
ByLayer
 62
  256
370
   -1
100
AcDbLine
 10
207.5
 20
123.1000000000001
 11
190.5
 21
123.1000000000001
  0
LINE
  5
194
100
AcDbEntity
  8
0
  6
ByLayer
 62
  256
370
   -1
100
AcDbLine
 10
190.5
 20
141.0050252531694
 11
190.9949747468306
 21
141.5
  0
LINE
  5
195
100
AcDbEntity
  8
0
  6
ByLayer
 62
  256
370
   -1
100
AcDbLine
 10
190.9949747468306
 20
141.5
 11
207.0050252531694
 21
141.5
  0
LINE
  5
196
100
AcDbEntity
  8
0
  6
ByLayer
 62
  256
370
   -1
100
AcDbLine
 10
207.0050252531694
 20
141.5
 11
207.5
 21
141.0050252531694
  0
ARC
  5
197
100
AcDbEntity
  8
0
  6
ByLayer
 62
  256
370
   -1
100
AcDbCircle
 10
199
 20
112.5375
 40
17.4625
100
AcDbArc
 50
64.56468920583436
 51
115.4353107941656
  0
LINE
  5
198
100
AcDbEntity
  8
0
  6
ByLayer
 62
  256
370
   -1
100
AcDbLine
 10
190.5
 20
128.3073733745709
 11
190.5
 21
141.0050252531694
  0
LINE
  5
199
100
AcDbEntity
  8
Phantom
  6
ByLayer
 62
  256
370
   -1
100
AcDbLine
 10
190.5
 20
123.1000000000001
 11
190.5
 21
128.3073733745709
  0
LINE
  5
19A
100
AcDbEntity
  8
Phantom
  6
ByLayer
 62
  256
370
   -1
100
AcDbLine
 10
207.5
 20
128.3073733745709
 11
207.5
 21
123.1000000000001
  0
LINE
  5
19B
100
AcDbEntity
  8
0
  6
ByLayer
 62
  256
370
   -1
100
AcDbLine
 10
207.5
 20
141.0050252531694
 11
207.5
 21
128.3073733745709
  0
ARC
  5
19C
100
AcDbEntity
  8
Dimension
  6
ByLayer
 62
  256
370
   -1
100
AcDbCircle
 10
199
 20
112.537
 40
9.525
100
AcDbArc
 50
36.1019
 51
143.898
  0
MTEXT
  5
19D
100
AcDbEntity
  8
Dimension
  6
ByLayer
 62
  256
370
   -1
100
AcDbMText
 10
198.8827281326262
 20
118.2679858157409
 30
0
 40
2.5
 41
8.055555555555866
 71
    5
 72
    1
  1
R9.53
  7
iso
210
0
220
0
230
1
 50
0
 73
    2
 44
1
  0
DIMENSION
  5
19E
100
AcDbEntity
  8
Dimension
  6
ByLayer
 62
  256
370
   -1
100
AcDbDimension
  2
*D4
 10
71.65785773407305
 20
130
 30
0
 11
71.65785773407305
 21
126.55
 31
0
 70
   32
 71
    5
 72
    0
  3
Standard
 53
0
210
0
220
0
230
1
100
AcDbAlignedDimension
 13
79.5
 23
123.1000000000001
 33
0
 14
88
 24
130
 34
0
 50
90
100
AcDbRotatedDimension
  0
LINE
  5
19F
100
AcDbEntity
  8
Center
  6
ByLayer
 62
  256
370
   -1
100
AcDbLine
 10
76.09999999999999
 20
135.4000000000001
 11
251
 21
135.4000000000001
  0
DIMENSION
  5
1A0
100
AcDbEntity
  8
Dimension
  6
ByLayer
 62
  256
370
   -1
100
AcDbDimension
  2
*D5
 10
91.08812623727215
 20
107.6654861849766
 30
0
 11
99.72701512616112
 21
107.6654861849766
 31
0
 70
   32
 71
    5
 72
    0
  3
Standard
 53
0
210
0
220
0
230
1
100
AcDbAlignedDimension
 13
84.91187376272785
 23
118.1503677456406
 33
0
 14
91.08812623727215
 24
118.1503677456406
 34
0
100
AcDbRotatedDimension
  0
DIMENSION
  5
1A1
100
AcDbEntity
  8
Dimension
  6
ByLayer
 62
  256
370
   -1
100
AcDbDimension
  2
*D6
 10
129.6860583531298
 20
107.6654861849766
 30
0
 11
125
 21
107.6654861849766
 31
0
 70
   32
 71
    5
 72
    0
  3
Standard
 53
0
210
0
220
0
230
1
100
AcDbAlignedDimension
 13
120.3139416468702
 23
118.1498607892252
 33
0
 14
129.6860583531298
 24
118.1498607892252
 34
0
100
AcDbRotatedDimension
  0
DIMENSION
  5
1A2
100
AcDbEntity
  8
Dimension
  6
ByLayer
 62
  256
370
   -1
100
AcDbDimension
  2
*D7
 10
167.8635979922663
 20
107.5864366356484
 30
0
 11
162
 21
107.5864366356484
 31
0
 70
   32
 71
    5
 72
    0
  3
Standard
 53
0
210
0
220
0
230
1
100
AcDbAlignedDimension
 13
156.1364020077337
 23
118.1503589364495
 33
0
 14
167.8635979922663
 24
118.1503589364495
 34
0
100
AcDbRotatedDimension
  0
DIMENSION
  5
1A3
100
AcDbEntity
  8
Dimension
  6
ByLayer
 62
  256
370
   -1
100
AcDbDimension
  2
*D8
 10
206.6959175357693
 20
107.6654861849766
 30
0
 11
199.0000048977056
 21
107.6654861849766
 31
0
 70
   32
 71
    5
 72
    0
  3
Standard
 53
0
210
0
220
0
230
1
100
AcDbAlignedDimension
 13
191.3040922596419
 23
118.1493639450678
 33
0
 14
206.6959175357693
 24
118.1493505131663
 34
0
100
AcDbRotatedDimension
  0
DIMENSION
  5
1A4
100
AcDbEntity
  8
Dimension
  6
ByLayer
 62
  256
370
   -1
100
AcDbDimension
  2
*D9
 10
173.3556616766913
 20
113.4361032859335
 30
0
 11
179.5555555555557
 21
113.4361032859335
 31
0
 70
   32
 71
    5
 72
    0
  3
Standard
 53
0
210
0
220
0
230
1
100
AcDbAlignedDimension
 13
167.8635979922663
 23
118.1503589364495
 33
0
 14
170.5
 24
123.1000000000001
 34
0
100
AcDbRotatedDimension
  0
DIMENSION
  5
1A5
100
AcDbEntity
  8
Dimension
  6
ByLayer
 62
  256
370
   -1
100
AcDbDimension
  2
*D10
 10
205.4497787039311
 20
112.8827564406362
 30
0
 11
197.7792508691027
 21
112.8827564406362
 31
0
 70
   32
 71
    5
 72
    0
  3
Standard
 53
0
210
0
220
0
230
1
100
AcDbAlignedDimension
 13
207.5
 23
123.1000000000001
 33
0
 14
206.6959175357693
 24
118.1493505131663
 34
0
100
AcDbRotatedDimension
  0
DIMENSION
  5
1A6
100
AcDbEntity
  8
Dimension
  6
ByLayer
 62
  256
370
   -1
100
AcDbDimension
  2
*D11
 10
247.0154563758062
 20
107.6654861849766
 30
0
 11
236
 21
107.6654861849766
 31
0
 70
   32
 71
    5
 72
    0
  3
Standard
 53
0
210
0
220
0
230
1
100
AcDbAlignedDimension
 13
224.9845436241938
 23
118.1498570871693
 33
0
 14
247.0154563758062
 24
118.1498570871693
 34
0
100
AcDbRotatedDimension
  0
DIMENSION
  5
1A7
100
AcDbEntity
  8
Dimension
  6
ByLayer
 62
  256
370
   -1
100
AcDbDimension
  2
*D12
 10
244.7374047200348
 20
113.0408555392926
 30
0
 11
235.5833333333333
 21
113.0408555392926
 31
0
 70
   32
 71
    5
 72
    0
  3
Standard
 53
0
210
0
220
0
230
1
100
AcDbAlignedDimension
 13
247.0154563758062
 23
118.1498570871693
 33
0
 14
244.5
 24
123.1000000000001
 34
0
100
AcDbRotatedDimension
  0
DIMENSION
  5
1A8
100
AcDbEntity
  8
Dimension
  6
ByLayer
 62
  256
370
   -1
100
AcDbDimension
  2
*D13
 10
213.3082037956845
 20
135.4000000000001
 30
0
 11
213.3082037956845
 21
126.7746752565832
 31
0
 70
   32
 71
    5
  3
Standard
 53
0
210
0
220
0
230
1
100
AcDbAlignedDimension
 13
206.6959175357693
 23
118.1493505131663
 33
0
 14
207.5
 24
135.4000000000001
 34
0
 50
90
100
AcDbRotatedDimension
  0
DIMENSION
  5
1A9
100
AcDbEntity
  8
Dimension
  6
ByLayer
 62
  256
370
   -1
100
AcDbDimension
  2
*D14
 10
185.1857569169413
 20
135.4000000000001
 30
0
 11
185.1857569169413
 21
131.8536866872855
 31
0
 70
   32
 71
    5
  3
Standard
 53
0
210
0
220
0
230
1
100
AcDbAlignedDimension
 13
190.5
 23
128.3073733745709
 33
0
 14
190.5
 24
135.4000000000001
 34
0
 50
90
100
AcDbRotatedDimension
  0
ENDSEC
  0
SECTION
  2
OBJECTS
  0
DICTIONARY
  5
C
330
0
100
AcDbDictionary
281
    1
  3
ACAD_GROUP
350
D
  0
DICTIONARY
  5
D
330
C
100
AcDbDictionary
281
    1
  0
ENDSEC
  0
EOF
