999
dxfrw 0.6.3
  0
SECTION
  2
HEADER
  9
$ACADVER
  1
AC1021
  9
$DWGCODEPAGE
  3
ANSI_1252
  9
$INSBASE
 10
0
 20
0
 30
0
  9
$EXTMIN
 10
10000000000
 20
10000000000
 30
0
  9
$EXTMAX
 10
-10000000000
 20
-10000000000
 30
0
  9
$LIMMIN
 10
0
 20
0
  9
$LIMMAX
 10
420
 20
297
  9
$ORTHOMODE
 70
    0
  9
$REGENMODE
 70
    1
  9
$FILLMODE
 70
    1
  9
$QTEXTMODE
 70
    0
  9
$MIRRTEXT
 70
    0
  9
$LTSCALE
 40
1
  9
$ATTMODE
 70
    0
  9
$TEXTSIZE
 40
2.5
  9
$TRACEWID
 40
15.68
  9
$TEXTSTYLE
  7
STANDARD
  9
$CLAYER
  8
0
  9
$CELTYPE
  6
BYLAYER
  9
$CECOLOR
 62
  256
  9
$CELTSCALE
 40
1
  9
$DISPSILH
 70
    0
  9
$DIMSCALE
 40
1
  9
$DIMASZ
 40
2.5
  9
$DIMEXO
 40
0.625
  9
$DIMDLI
 40
3.75
  9
$DIMRND
 40
0
  9
$DIMDLE
 40
0
  9
$DIMEXE
 40
1.25
  9
$DIMTP
 40
0
  9
$DIMTM
 40
0
  9
$DIMTXT
 40
2.5
  9
$DIMCEN
 40
2.5
  9
$DIMTSZ
 40
0
  9
$DIMTOL
 70
    0
  9
$DIMLIM
 70
    0
  9
$DIMTIH
 70
    0
  9
$DIMTOH
 70
    0
  9
$DIMSE1
 70
    0
  9
$DIMSE2
 70
    0
  9
$DIMTAD
 70
    1
  9
$DIMZIN
 70
    8
  9
$DIMBLK
  1

  9
$DIMASO
 70
    1
  9
$DIMSHO
 70
    1
  9
$DIMPOST
  1

  9
$DIMAPOST
  1

  9
$DIMALT
 70
    0
  9
$DIMALTD
 70
    3
  9
$DIMALTF
 40
0.03937
  9
$DIMLFAC
 40
1
  9
$DIMTOFL
 70
    1
  9
$DIMTVP
 40
0
  9
$DIMTIX
 70
    0
  9
$DIMSOXD
 70
    0
  9
$DIMSAH
 70
    0
  9
$DIMBLK1
  1

  9
$DIMBLK2
  1

  9
$DIMSTYLE
  2
Standard
  9
$DIMCLRD
 70
    0
  9
$DIMCLRE
 70
    0
  9
$DIMCLRT
 70
    0
  9
$DIMTFAC
 40
1
  9
$DIMGAP
 40
0.625
  9
$DIMJUST
 70
    0
  9
$DIMSD1
 70
    0
  9
$DIMSD2
 70
    0
  9
$DIMTOLJ
 70
    0
  9
$DIMTZIN
 70
    8
  9
$DIMALTZ
 70
    0
  9
$DIMALTTZ
 70
    0
  9
$DIMUPT
 70
    0
  9
$DIMDEC
 70
    2
  9
$DIMTDEC
 70
    2
  9
$DIMALTU
 70
    2
  9
$DIMALTTD
 70
    3
  9
$DIMTXSTY
  7
STANDARD
  9
$DIMAUNIT
 70
    0
  9
$DIMADEC
 70
    0
  9
$DIMALTRND
 40
0
  9
$DIMAZIN
 70
    0
  9
$DIMDSEP
 70
   44
  9
$DIMATFIT
 70
    3
  9
$DIMFRAC
 70
    0
  9
$DIMLDRBLK
  1
STANDARD
  9
$DIMLUNIT
 70
    2
  9
$DIMLWD
 70
   -2
  9
$DIMLWE
 70
   -2
  9
$DIMTMOVE
 70
    0
  9
$DIMFXL
 40
1
  9
$DIMFXLON
 70
    0
  9
$DIMJOGANG
 40
0.7854
  9
$DIMTFILL
 70
    0
  9
$DIMTFILLCLR
 70
    0
  9
$DIMARCSYM
 70
    0
  9
$DIMLTYPE
  6

  9
$DIMLTEX1
  6

  9
$DIMLTEX2
  6

  9
$LUNITS
 70
    2
  9
$LUPREC
 70
    4
  9
$SKETCHINC
 40
1
  9
$FILLETRAD
 40
0
  9
$AUNITS
 70
    0
  9
$AUPREC
 70
    2
  9
$MENU
  1
.
  9
$ELEVATION
 40
0
  9
$PELEVATION
 40
0
  9
$THICKNESS
 40
0
  9
$LIMCHECK
 70
    0
  9
$CHAMFERA
 40
0
  9
$CHAMFERB
 40
0
  9
$CHAMFERC
 40
0
  9
$CHAMFERD
 40
0
  9
$SKPOLY
 70
    0
  9
$USRTIMER
 70
    1
  9
$ANGBASE
 50
0
  9
$ANGDIR
 70
    0
  9
$PDMODE
 70
   34
  9
$PDSIZE
 40
0
  9
$PLINEWID
 40
0
  9
$SPLFRAME
 70
    0
  9
$SPLINETYPE
 70
    2
  9
$SPLINESEGS
 70
    8
  9
$HANDSEED
  5
20000
  9
$SURFTAB1
 70
    6
  9
$SURFTAB2
 70
    6
  9
$SURFTYPE
 70
    6
  9
$SURFU
 70
    6
  9
$SURFV
 70
    6
  9
$UCSBASE
  2

  9
$UCSNAME
  2

  9
$UCSORG
 10
0
 20
0
 30
0
  9
$UCSXDIR
 10
1
 20
0
 30
0
  9
$UCSYDIR
 10
0
 20
1
 30
0
  9
$UCSORTHOREF
  2

  9
$UCSORTHOVIEW
 70
    0
  9
$UCSORGTOP
 10
0
 20
0
 30
0
  9
$UCSORGBOTTOM
 10
0
 20
0
 30
0
  9
$UCSORGLEFT
 10
0
 20
0
 30
0
  9
$UCSORGRIGHT
 10
0
 20
0
 30
0
  9
$UCSORGFRONT
 10
0
 20
0
 30
0
  9
$UCSORGBACK
 10
0
 20
0
 30
0
  9
$PUCSBASE
  2

  9
$PUCSNAME
  2

  9
$PUCSORG
 10
0
 20
0
 30
0
  9
$PUCSXDIR
 10
1
 20
0
 30
0
  9
$PUCSYDIR
 10
0
 20
1
 30
0
  9
$PUCSORTHOREF
  2

  9
$PUCSORTHOVIEW
 70
    0
  9
$PUCSORGTOP
 10
0
 20
0
 30
0
  9
$PUCSORGBOTTOM
 10
0
 20
0
 30
0
  9
$PUCSORGLEFT
 10
0
 20
0
 30
0
  9
$PUCSORGRIGHT
 10
0
 20
0
 30
0
  9
$PUCSORGFRONT
 10
0
 20
0
 30
0
  9
$PUCSORGBACK
 10
0
 20
0
 30
0
  9
$USERI1
 70
    0
  9
$USERI2
 70
    0
  9
$USERI3
 70
    0
  9
$USERI4
 70
    0
  9
$USERI5
 70
    0
  9
$USERR1
 40
0
  9
$USERR2
 40
0
  9
$USERR3
 40
0
  9
$USERR4
 40
0
  9
$USERR5
 40
0
  9
$WORLDVIEW
 70
    1
  9
$SHADEDGE
 70
    3
  9
$SHADEDIF
 70
   70
  9
$TILEMODE
 70
    1
  9
$MAXACTVP
 70
   64
  9
$PINSBASE
 10
0
 20
0
 30
0
  9
$PLIMCHECK
 70
    0
  9
$PEXTMIN
 10
0
 20
0
 30
0
  9
$PEXTMAX
 10
0
 20
0
 30
0
  9
$SNAPSTYLE
 70
    0
  9
$PLIMMIN
 10
0
 20
0
  9
$PLIMMAX
 10
297
 20
210
  9
$UNITMODE
 70
    0
  9
$VISRETAIN
 70
    1
  9
$PLINEGEN
 70
    0
  9
$PSLTSCALE
 70
    1
  9
$TREEDEPTH
 70
 3020
  9
$CMLSTYLE
  2
Standard
  9
$CMLJUST
 70
    0
  9
$CMLSCALE
 40
20
  9
$PROXYGRAPHICS
 70
    1
  9
$MEASUREMENT
 70
    1
  9
$CELWEIGHT
370
   -1
  9
$ENDCAPS
280
    0
  9
$JOINSTYLE
280
    0
  9
$LWDISPLAY
290
    0
  9
$INSUNITS
 70
    4
  9
$HYPERLINKBASE
  1

  9
$STYLESHEET
  1

  9
$XEDIT
290
    1
  9
$CEPSNTYPE
380
    0
  9
$PSTYLEMODE
290
    1
  9
$EXTNAMES
290
    1
  9
$PSVPSCALE
 40
1
  9
$OLESTARTUP
290
    0
  9
$SORTENTS
280
  127
  9
$INDEXCTL
280
    0
  9
$HIDETEXT
280
    1
  9
$XCLIPFRAME
290
    0
  9
$HALOGAP
280
    0
  9
$OBSCOLOR
 70
  257
  9
$OBSLTYPE
280
    0
  9
$INTERSECTIONDISPLAY
280
    0
  9
$INTERSECTIONCOLOR
 70
  257
  9
$DIMASSOC
280
    1
  9
$PROJECTNAME
  1

  9
$CAMERADISPLAY
290
    0
  9
$LENSLENGTH
 40
50
  9
$CAMERAHEIGHT
 40
0
  9
$STEPSPERSEC
 40
2
  9
$STEPSIZE
 40
50
  9
$3DDWFPREC
 40
2
  9
$PSOLWIDTH
 40
5
  9
$PSOLHEIGHT
 40
80
  9
$LOFTANG1
 40
1.570796326794897
  9
$LOFTANG2
 40
1.570796326794897
  9
$LOFTMAG1
 40
0
  9
$LOFTMAG2
 40
0
  9
$LOFTPARAM
 70
    7
  9
$LOFTNORMALS
280
    1
  9
$LATITUDE
 40
1
  9
$LONGITUDE
 40
1
  9
$NORTHDIRECTION
 40
0
  9
$TIMEZONE
 70
-8000
  9
$LIGHTGLYPHDISPLAY
280
    1
  9
$TILEMODELIGHTSYNCH
280
    1
  9
$SOLIDHIST
280
    1
  9
$SHOWHIST
280
    1
  9
$DWFFRAME
280
    2
  9
$DGNFRAME
280
    0
  9
$REALWORLDSCALE
290
    1
  9
$INTERFERECOLOR
 62
    1
  9
$CSHADOW
280
    0
  9
$SHADOWPLANELOCATION
 40
0
  0
ENDSEC
  0
SECTION
  2
CLASSES
  0
ENDSEC
  0
SECTION
  2
TABLES
  0
TABLE
  2
VPORT
  5
8
330
0
100
AcDbSymbolTable
 70
    1
  0
VPORT
  5
31
330
2
100
AcDbSymbolTableRecord
100
AcDbViewportTableRecord
  2
*ACTIVE
 70
    0
 10
0
 20
0
 11
1
 21
1
 12
120.2590001073062
 22
-1.873954608718187
 13
0
 23
0
 14
10
 24
10
 15
10
 25
10
 16
0
 26
0
 36
1
 17
0
 27
0
 37
0
 40
91.74229953985557
 41
1.856127886323268
 42
50
 43
0
 44
0
 50
0
 51
0
 71
    0
 72
  100
 73
    1
 74
    3
 75
    0
 76
    1
 77
    0
 78
    0
281
    0
 65
    1
110
0
120
0
130
0
111
1
121
0
131
0
112
0
122
1
132
0
 79
    0
146
0
348
10020
 60
    7
 61
    5
292
1
282
    1
141
0
142
0
 63
  250
421
3358443
  0
ENDTAB
  0
TABLE
  2
LTYPE
  5
5
330
0
100
AcDbSymbolTable
 70
    4
  0
LTYPE
  5
14
330
5
100
AcDbSymbolTableRecord
100
AcDbLinetypeTableRecord
  2
ByBlock
 70
    0
  3

 72
   65
 73
    0
 40
0
  0
LTYPE
  5
15
330
5
100
AcDbSymbolTableRecord
100
AcDbLinetypeTableRecord
  2
ByLayer
 70
    0
  3

 72
   65
 73
    0
 40
0
  0
LTYPE
  5
16
330
5
100
AcDbSymbolTableRecord
100
AcDbLinetypeTableRecord
  2
Continuous
 70
    0
  3
Solid line
 72
   65
 73
    0
 40
0
  0
LTYPE
  5
32
330
5
100
AcDbSymbolTableRecord
100
AcDbLinetypeTableRecord
  2
DOT
 70
    0
  3
Dot . . . . . . . . . . . . . . . . . . . . . .
 72
   65
 73
    2
 40
6.35
 49
0
 74
    0
 49
-6.35
 74
    0
  0
LTYPE
  5
33
330
5
100
AcDbSymbolTableRecord
100
AcDbLinetypeTableRecord
  2
DOTTINY
 70
    0
  3
Dot (.15x) .....................................
 72
   65
 73
    2
 40
0.9525
 49
0
 74
    0
 49
-0.9525
 74
    0
  0
LTYPE
  5
34
330
5
100
AcDbSymbolTableRecord
100
AcDbLinetypeTableRecord
  2
DOT2
 70
    0
  3
Dot (.5x) .....................................
 72
   65
 73
    2
 40
3.175
 49
0
 74
    0
 49
-3.175
 74
    0
  0
LTYPE
  5
35
330
5
100
AcDbSymbolTableRecord
100
AcDbLinetypeTableRecord
  2
DOTX2
 70
    0
  3
Dot (2x) .  .  .  .  .  .  .  .  .  .  .  .  .
 72
   65
 73
    2
 40
12.7
 49
0
 74
    0
 49
-12.7
 74
    0
  0
LTYPE
  5
36
330
5
100
AcDbSymbolTableRecord
100
AcDbLinetypeTableRecord
  2
DASHED
 70
    0
  3
Dashed _ _ _ _ _ _ _ _ _ _ _ _ _ _ _ _ _
 72
   65
 73
    2
 40
19.05
 49
12.7
 74
    0
 49
-6.35
 74
    0
  0
LTYPE
  5
37
330
5
100
AcDbSymbolTableRecord
100
AcDbLinetypeTableRecord
  2
DASHEDTINY
 70
    0
  3
Dashed (.15x) _ _ _ _ _ _ _ _ _ _ _ _ _ _ _ _ _
 72
   65
 73
    2
 40
2.8575
 49
1.905
 74
    0
 49
-0.9525
 74
    0
  0
LTYPE
  5
38
330
5
100
AcDbSymbolTableRecord
100
AcDbLinetypeTableRecord
  2
DASHED2
 70
    0
  3
Dashed (.5x) _ _ _ _ _ _ _ _ _ _ _ _ _ _ _ _ _
 72
   65
 73
    2
 40
9.524999999999999
 49
6.35
 74
    0
 49
-3.175
 74
    0
  0
LTYPE
  5
39
330
5
100
AcDbSymbolTableRecord
100
AcDbLinetypeTableRecord
  2
DASHEDX2
 70
    0
  3
Dashed (2x) ____  ____  ____  ____  ____  ___
 72
   65
 73
    2
 40
38.09999999999999
 49
25.4
 74
    0
 49
-12.7
 74
    0
  0
LTYPE
  5
3A
330
5
100
AcDbSymbolTableRecord
100
AcDbLinetypeTableRecord
  2
DASHDOT
 70
    0
  3
Dash dot __ . __ . __ . __ . __ . __ . __ . __
 72
   65
 73
    4
 40
25.4
 49
12.7
 74
    0
 49
-6.35
 74
    0
 49
0
 74
    0
 49
-6.35
 74
    0
  0
LTYPE
  5
3B
330
5
100
AcDbSymbolTableRecord
100
AcDbLinetypeTableRecord
  2
DASHDOTTINY
 70
    0
  3
Dash dot (.15x) _._._._._._._._._._._._._._._.
 72
   65
 73
    4
 40
3.81
 49
1.905
 74
    0
 49
-0.9525
 74
    0
 49
0
 74
    0
 49
-0.9525
 74
    0
  0
LTYPE
  5
3C
330
5
100
AcDbSymbolTableRecord
100
AcDbLinetypeTableRecord
  2
DASHDOT2
 70
    0
  3
Dash dot (.5x) _._._._._._._._._._._._._._._.
 72
   65
 73
    4
 40
12.7
 49
6.35
 74
    0
 49
-3.175
 74
    0
 49
0
 74
    0
 49
-3.175
 74
    0
  0
LTYPE
  5
3D
330
5
100
AcDbSymbolTableRecord
100
AcDbLinetypeTableRecord
  2
DASHDOTX2
 70
    0
  3
Dash dot (2x) ____  .  ____  .  ____  .  ___
 72
   65
 73
    4
 40
50.8
 49
25.4
 74
    0
 49
-12.7
 74
    0
 49
0
 74
    0
 49
-12.7
 74
    0
  0
LTYPE
  5
3E
330
5
100
AcDbSymbolTableRecord
100
AcDbLinetypeTableRecord
  2
DIVIDE
 70
    0
  3
Divide ____ . . ____ . . ____ . . ____ . . ____
 72
   65
 73
    6
 40
31.75
 49
12.7
 74
    0
 49
-6.35
 74
    0
 49
0
 74
    0
 49
-6.35
 74
    0
 49
0
 74
    0
 49
-6.35
 74
    0
  0
LTYPE
  5
3F
330
5
100
AcDbSymbolTableRecord
100
AcDbLinetypeTableRecord
  2
DIVIDETINY
 70
    0
  3
Divide (.15x) __..__..__..__..__..__..__..__.._
 72
   65
 73
    6
 40
4.7625
 49
1.905
 74
    0
 49
-0.9525
 74
    0
 49
0
 74
    0
 49
-0.9525
 74
    0
 49
0
 74
    0
 49
-0.9525
 74
    0
  0
LTYPE
  5
40
330
5
100
AcDbSymbolTableRecord
100
AcDbLinetypeTableRecord
  2
DIVIDE2
 70
    0
  3
Divide (.5x) __..__..__..__..__..__..__..__.._
 72
   65
 73
    6
 40
15.875
 49
6.35
 74
    0
 49
-3.175
 74
    0
 49
0
 74
    0
 49
-3.175
 74
    0
 49
0
 74
    0
 49
-3.175
 74
    0
  0
LTYPE
  5
41
330
5
100
AcDbSymbolTableRecord
100
AcDbLinetypeTableRecord
  2
DIVIDEX2
 70
    0
  3
Divide (2x) ________  .  .  ________  .  .  _
 72
   65
 73
    6
 40
63.5
 49
25.4
 74
    0
 49
-12.7
 74
    0
 49
0
 74
    0
 49
-12.7
 74
    0
 49
0
 74
    0
 49
-12.7
 74
    0
  0
LTYPE
  5
42
330
5
100
AcDbSymbolTableRecord
100
AcDbLinetypeTableRecord
  2
BORDER
 70
    0
  3
Border __ __ . __ __ . __ __ . __ __ . __ __ .
 72
   65
 73
    6
 40
44.45
 49
12.7
 74
    0
 49
-6.35
 74
    0
 49
12.7
 74
    0
 49
-6.35
 74
    0
 49
0
 74
    0
 49
-6.35
 74
    0
  0
LTYPE
  5
43
330
5
100
AcDbSymbolTableRecord
100
AcDbLinetypeTableRecord
  2
BORDERTINY
 70
    0
  3
Border (.15x) __.__.__.__.__.__.__.__.__.__.__.
 72
   65
 73
    6
 40
6.6675
 49
1.905
 74
    0
 49
-0.9525
 74
    0
 49
1.905
 74
    0
 49
-0.9525
 74
    0
 49
0
 74
    0
 49
-0.9525
 74
    0
  0
LTYPE
  5
44
330
5
100
AcDbSymbolTableRecord
100
AcDbLinetypeTableRecord
  2
BORDER2
 70
    0
  3
Border (.5x) __.__.__.__.__.__.__.__.__.__.__.
 72
   65
 73
    6
 40
22.225
 49
6.35
 74
    0
 49
-3.175
 74
    0
 49
6.35
 74
    0
 49
-3.175
 74
    0
 49
0
 74
    0
 49
-3.175
 74
    0
  0
LTYPE
  5
45
330
5
100
AcDbSymbolTableRecord
100
AcDbLinetypeTableRecord
  2
BORDERX2
 70
    0
  3
Border (2x) ____  ____  .  ____  ____  .  ___
 72
   65
 73
    6
 40
88.89999999999999
 49
25.4
 74
    0
 49
-12.7
 74
    0
 49
25.4
 74
    0
 49
-12.7
 74
    0
 49
0
 74
    0
 49
-12.7
 74
    0
  0
LTYPE
  5
46
330
5
100
AcDbSymbolTableRecord
100
AcDbLinetypeTableRecord
  2
CENTER
 70
    0
  3
Center ____ _ ____ _ ____ _ ____ _ ____ _ ____
 72
   65
 73
    4
 40
50.8
 49
31.75
 74
    0
 49
-6.35
 74
    0
 49
6.35
 74
    0
 49
-6.35
 74
    0
  0
LTYPE
  5
47
330
5
100
AcDbSymbolTableRecord
100
AcDbLinetypeTableRecord
  2
CENTERTINY
 70
    0
  3
Center (.15x) ___ _ ___ _ ___ _ ___ _ ___ _ ___
 72
   65
 73
    4
 40
7.619999999999999
 49
4.7625
 74
    0
 49
-0.9525
 74
    0
 49
0.9525
 74
    0
 49
-0.9525
 74
    0
  0
LTYPE
  5
48
330
5
100
AcDbSymbolTableRecord
100
AcDbLinetypeTableRecord
  2
CENTER2
 70
    0
  3
Center (.5x) ___ _ ___ _ ___ _ ___ _ ___ _ ___
 72
   65
 73
    4
 40
28.575
 49
19.05
 74
    0
 49
-3.175
 74
    0
 49
3.175
 74
    0
 49
-3.175
 74
    0
  0
LTYPE
  5
49
330
5
100
AcDbSymbolTableRecord
100
AcDbLinetypeTableRecord
  2
CENTERX2
 70
    0
  3
Center (2x) ________  __  ________  __  _____
 72
   65
 73
    4
 40
101.6
 49
63.5
 74
    0
 49
-12.7
 74
    0
 49
12.7
 74
    0
 49
-12.7
 74
    0
  0
ENDTAB
  0
TABLE
  2
LAYER
  5
2
330
0
100
AcDbSymbolTable
 70
    1
  0
LAYER
  5
10
330
2
100
AcDbSymbolTableRecord
100
AcDbLayerTableRecord
  2
0
 70
    0
 62
    7
  6
CONTINUOUS
370
   -3
390
F
  0
LAYER
  5
4A
330
2
100
AcDbSymbolTableRecord
100
AcDbLayerTableRecord
  2
views
 70
    0
 62
    7
  6
CONTINUOUS
370
   -3
390
F
  0
ENDTAB
  0
TABLE
  2
STYLE
  5
3
330
0
100
AcDbSymbolTable
 70
    3
  0
STYLE
  5
4B
330
2
100
AcDbSymbolTableRecord
100
AcDbTextStyleTableRecord
  2
Standard
 70
    0
 40
0
 41
1
 50
0
 71
    0
 42
1
  3
txt
  4

  0
ENDTAB
  0
TABLE
  2
VIEW
  5
6
330
0
100
AcDbSymbolTable
 70
    0
  0
ENDTAB
  0
TABLE
  2
UCS
  5
7
330
0
100
AcDbSymbolTable
 70
    0
  0
ENDTAB
  0
TABLE
  2
APPID
  5
9
330
0
100
AcDbSymbolTable
 70
    1
  0
APPID
  5
12
330
9
100
AcDbSymbolTableRecord
100
AcDbRegAppTableRecord
  2
ACAD
 70
    0
  0
APPID
  5
4C
330
9
100
AcDbSymbolTableRecord
100
AcDbRegAppTableRecord
  2
LibreCad
 70
    0
  0
ENDTAB
  0
TABLE
  2
DIMSTYLE
  5
A
330
0
100
AcDbSymbolTable
 70
    1
100
AcDbDimStyleTable
 71
    1
  0
DIMSTYLE
105
4D
330
A
100
AcDbSymbolTableRecord
100
AcDbDimStyleTableRecord
  2
Standard
 70
    0
 40
1
 41
2.5
 42
0.625
 43
0.38
 44
1.25
 45
0
 46
0
 47
0
 48
0
 49
1
140
2.5
141
0.09
142
0
143
25.4
144
1
145
0
146
1
147
0.625
148
0
 71
    0
 72
    0
 73
    0
 74
    1
 75
    0
 76
    0
 77
    0
 78
    1
 79
    0
170
    0
171
    2
172
    0
173
    0
174
    0
175
    0
176
    0
177
    0
178
    0
179
    0
271
    2
272
    4
273
    2
274
    2
275
    0
276
    0
277
    2
278
    0
279
    0
280
    0
281
    0
282
    0
283
    1
284
    0
285
    0
286
    0
288
    0
289
    3
340
standard
341

371
   -2
372
   -2
  0
ENDTAB
  0
TABLE
  2
BLOCK_RECORD
  5
1
330
0
100
AcDbSymbolTable
 70
    2
  0
BLOCK_RECORD
  5
1F
330
1
100
AcDbSymbolTableRecord
100
AcDbBlockTableRecord
  2
*Model_Space
 70
    0
280
    1
281
    0
  0
BLOCK_RECORD
  5
1E
330
1
100
AcDbSymbolTableRecord
100
AcDbBlockTableRecord
  2
*Paper_Space
 70
    0
280
    1
281
    0
  0
BLOCK_RECORD
  5
4E
330
1
100
AcDbSymbolTableRecord
100
AcDbBlockTableRecord
  2
SHAPE2DVIEW
 70
    0
280
    1
281
    0
  0
BLOCK_RECORD
  5
51
330
1
100
AcDbSymbolTableRecord
100
AcDbBlockTableRecord
  2
SHAPE2DVIEW001
 70
    0
280
    1
281
    0
  0
BLOCK_RECORD
  5
54
330
1
100
AcDbSymbolTableRecord
100
AcDbBlockTableRecord
  2
SHAPE2DVIEW002
 70
    0
280
    1
281
    0
  0
ENDTAB
  0
ENDSEC
  0
SECTION
  2
BLOCKS
  0
BLOCK
  5
20
330
1F
100
AcDbEntity
  8
0
100
AcDbBlockBegin
  2
*Model_Space
 70
    0
 10
0
 20
0
 30
0
  3
*Model_Space
  1

  0
ENDBLK
  5
21
330
1F
100
AcDbEntity
  8
0
100
AcDbBlockEnd
  0
BLOCK
  5
1C
330
1B
100
AcDbEntity
  8
0
100
AcDbBlockBegin
  2
*Paper_Space
 70
    0
 10
0
 20
0
 30
0
  3
*Paper_Space
  1

  0
ENDBLK
  5
1D
330
1F
100
AcDbEntity
  8
0
100
AcDbBlockEnd
  0
BLOCK
  5
4F
330
4E
100
AcDbEntity
  8
0
100
AcDbBlockBegin
  2
SHAPE2DVIEW
 70
    0
 10
0
 20
0
  3
SHAPE2DVIEW
  1

  0
LWPOLYLINE
  5
57
100
AcDbEntity
  8
views
  6
ByLayer
 62
    0
370
   -1
100
AcDbPolyline
 90
    2
 70
    0
 43
0
 10
144.844374003
 20
-34.4607174137
 10
146.430692096
 20
-34.8857701896
  0
LINE
  5
58
100
AcDbEntity
  8
views
  6
ByLayer
 62
    0
370
   -1
100
AcDbLine
 10
146.430692097
 20
-34.8857701897
 11
195.866338981
 21
-48.1320118495
  0
LWPOLYLINE
  5
59
100
AcDbEntity
  8
views
  6
ByLayer
 62
    0
370
   -1
100
AcDbPolyline
 90
    2
 70
    0
 43
0
 10
195.866338982
 20
-48.1320118498
 10
197.970294449
 20
-48.6957648615
  0
LWPOLYLINE
  5
5A
100
AcDbEntity
  8
views
  6
ByLayer
 62
    0
370
   -1
100
AcDbPolyline
 90
    6
 70
    0
 43
0
 10
197.970294449
 20
-48.6957648615
 10
199.187070884
 20
-44.1546933213
 10
200.436419509
 20
-39.4920607262
 10
201.708977009
 20
-34.7428114496
 10
202.995208932
 20
-29.9425285459
 10
204.285479149
 20
-25.1271745428
  0
LWPOLYLINE
  5
5B
100
AcDbEntity
  8
views
  6
ByLayer
 62
    0
370
   -1
100
AcDbPolyline
 90
    2
 70
    0
 43
0
 10
151.159558703
 20
-10.8921280551
 10
153.5775
 20
-11.5400146804
  0
LINE
  5
5C
100
AcDbEntity
  8
views
  6
ByLayer
 62
    0
370
   -1
100
AcDbLine
 10
153.5775
 20
-11.5400146804
 11
188.719530361
 21
-20.9562933361
  0
LWPOLYLINE
  5
5D
100
AcDbEntity
  8
views
  6
ByLayer
 62
    0
370
   -1
100
AcDbPolyline
 90
    5
 70
    0
 43
0
 10
188.719530361
 20
-20.9562933361
 10
189.94368425
 20
-21.2843035135
 10
193.329633575
 20
-22.1915651706
 10
198.400612903
 20
-23.5503295211
 10
204.285479149
 20
-25.1271745428
  0
LWPOLYLINE
  5
5E
100
AcDbEntity
  8
views
  6
ByLayer
 62
    0
370
   -1
100
AcDbPolyline
 90
    3
 70
    0
 43
0
 10
182.069185145
 20
-19.1743359492
 10
177.72251901
 20
-18.0096495981
 10
173.375852708
 20
-16.8449645432
  0
LWPOLYLINE
  5
5F
100
AcDbEntity
  8
views
  6
ByLayer
 62
    0
370
   -1
100
AcDbPolyline
 90
    3
 70
    0
 43
0
 10
173.375852708
 20
-16.8449645432
 10
177.722518842
 20
-18.0096508943
 10
182.069185145
 20
-19.1743359492
  0
LWPOLYLINE
  5
60
100
AcDbEntity
  8
views
  6
ByLayer
 62
    0
370
   -1
100
AcDbPolyline
 90
    6
 70
    0
 43
0
 10
151.159558703
 20
-10.8921280551
 10
150.157831918
 20
-14.6306231106
 10
149.010009899
 20
-18.9143530207
 10
147.730727628
 20
-23.6886992902
 10
146.336270752
 20
-28.8928830614
 10
144.844374003
 20
-34.4607174137
  0
LWPOLYLINE
  5
61
100
AcDbEntity
  8
views
  6
ByLayer
 62
    0
370
   -1
100
AcDbPolyline
 90
    4
 70
    0
 43
0
 10
153.5775
 20
-24.6880221716
 10
153.5775
 20
-20.3053530079
 10
153.5775
 20
-15.9226838441
 10
153.5775
 20
-11.5400146804
  0
LWPOLYLINE
  5
62
100
AcDbEntity
  8
views
  6
ByLayer
 62
    0
370
   -1
100
AcDbPolyline
 90
    4
 70
    0
 43
0
 10
146.430692097
 20
-34.8857701897
 10
148.605441281
 20
-30.0415630614
 10
151.63540748
 20
-26.5754696818
 10
153.5775
 20
-24.6880221716
  0
LWPOLYLINE
  5
63
100
AcDbEntity
  8
views
  6
ByLayer
 62
    0
370
   -1
100
AcDbPolyline
 90
    5
 70
    0
 43
0
 10
195.866338981
 20
-48.1320118495
 10
194.475901157
 20
-43.7038229601
 10
192.38812356
 20
-39.808771491
 10
190.215843014
 20
-36.3466484936
 10
188.719530361
 20
-34.1043008273
  0
LWPOLYLINE
  5
64
100
AcDbEntity
  8
views
  6
ByLayer
 62
    0
370
   -1
100
AcDbPolyline
 90
    9
 70
    0
 43
0
 10
153.5775
 20
-24.6880221716
 10
157.970253795
 20
-25.8650570036
 10
162.36300759
 20
-27.0420918355
 10
166.755761386
 20
-28.2191266675
 10
171.148515181
 20
-29.3961614995
 10
175.541268976
 20
-30.5731963314
 10
179.934022771
 20
-31.7502311634
 10
184.326776566
 20
-32.9272659954
 10
188.719530361
 20
-34.1043008273
  0
LWPOLYLINE
  5
65
100
AcDbEntity
  8
views
  6
ByLayer
 62
    0
370
   -1
100
AcDbPolyline
 90
    4
 70
    0
 43
0
 10
188.719530361
 20
-20.9562933361
 10
188.719530361
 20
-25.3389624998
 10
188.719530361
 20
-29.7216316636
 10
188.719530361
 20
-34.1043008273
  0
LINE
  5
66
100
AcDbEntity
  8
views
  6
ByLayer
 62
    0
370
   -1
100
AcDbLine
 10
182.069185145
 20
-19.1743359492
 11
182.069184455
 21
-19.1743385212
  0
LINE
  5
67
100
AcDbEntity
  8
views
  6
ByLayer
 62
    0
370
   -1
100
AcDbLine
 10
138.011551212
 20
-59.9611612381
 11
191.137471658
 21
-74.19620871870001
  0
LINE
  5
68
100
AcDbEntity
  8
views
  6
ByLayer
 62
    0
370
   -1
100
AcDbLine
 10
191.137471658
 20
-74.19620871870001
 11
192.468163274
 21
-69.23
  0
LWPOLYLINE
  5
69
100
AcDbEntity
  8
views
  6
ByLayer
 62
    0
370
   -1
100
AcDbPolyline
 90
    5
 70
    0
 43
0
 10
192.468163274
 20
-69.23
 10
193.563954143
 20
-65.14045280160001
 10
194.767533499
 20
-60.6486334943
 10
196.069782976
 20
-55.7885722823
 10
197.452656359
 20
-50.6276185573
  0
LWPOLYLINE
  5
6A
100
AcDbEntity
  8
views
  6
ByLayer
 62
    0
370
   -1
100
AcDbPolyline
 90
    5
 70
    0
 43
0
 10
144.326735913
 20
-36.3925710766
 10
143.168673777
 20
-40.7145178046
 10
141.980981222
 20
-45.1470467639
 10
140.770798246
 20
-49.6635111179
 10
139.547211238
 20
-54.23
  0
LINE
  5
6B
100
AcDbEntity
  8
views
  6
ByLayer
 62
    0
370
   -1
100
AcDbLine
 10
139.547211238
 20
-54.23
 11
138.011551212
 21
-59.9611612381
  0
LINE
  5
6C
100
AcDbEntity
  8
views
  6
ByLayer
 62
    0
370
   -1
100
AcDbLine
 10
153.5775
 20
-54.23
 11
139.547211238
 21
-54.23
  0
LINE
  5
6D
100
AcDbEntity
  8
views
  6
ByLayer
 62
    0
370
   -1
100
AcDbLine
 10
192.468163274
 20
-69.23
 11
188.719530361
 21
-69.23
  0
LINE
  5
6E
100
AcDbEntity
  8
views
  6
ByLayer
 62
    0
370
   -1
100
AcDbLine
 10
188.719530361
 20
-60.4003158097
 11
188.719530361
 21
-69.23
  0
LINE
  5
6F
100
AcDbEntity
  8
views
  6
ByLayer
 62
    0
370
   -1
100
AcDbLine
 10
153.5775
 20
-50.984037154
 11
188.719530361
 21
-60.4003158097
  0
LINE
  5
70
100
AcDbEntity
  8
views
  6
ByLayer
 62
    0
370
   -1
100
AcDbLine
 10
153.5775
 20
-54.23
 11
153.5775
 21
-50.984037154
  0
LWPOLYLINE
  5
71
100
AcDbEntity
  8
views
  6
ByLayer
 62
    0
370
   -1
100
AcDbPolyline
 90
    4
 70
    0
 43
0
 10
188.719530361
 20
-60.4003158097
 10
190.658776733
 20
-58.5157537313
 10
193.691394242
 20
-55.0470401988
 10
195.86633955
 20
-50.2025662494
  0
LWPOLYLINE
  5
72
100
AcDbEntity
  8
views
  6
ByLayer
 62
    0
370
   -1
100
AcDbPolyline
 90
    2
 70
    0
 43
0
 10
197.452656359
 20
-50.6276185573
 10
195.86633955
 20
-50.2025662495
  0
LINE
  5
73
100
AcDbEntity
  8
views
  6
ByLayer
 62
    0
370
   -1
100
AcDbLine
 10
146.430690815
 20
-36.9563240936
 11
195.86633955
 21
-50.2025662494
  0
LWPOLYLINE
  5
74
100
AcDbEntity
  8
views
  6
ByLayer
 62
    0
370
   -1
100
AcDbPolyline
 90
    2
 70
    0
 43
0
 10
146.430690838
 20
-36.9563240998
 10
144.326735913
 20
-36.3925710766
  0
LWPOLYLINE
  5
75
100
AcDbEntity
  8
views
  6
ByLayer
 62
    0
370
   -1
100
AcDbPolyline
 90
    5
 70
    0
 43
0
 10
153.5775
 20
-50.984037154
 10
152.097191789
 20
-48.7661362258
 10
149.92557452
 20
-45.3075895015
 10
147.837197985
 20
-41.4193088017
 10
146.430690815
 20
-36.9563240936
  0
LINE
  5
76
100
AcDbEntity
  8
views
  6
ByLayer
 62
    0
370
   -1
100
AcDbLine
 10
133.79
 20
-58.83
 11
133.79
 21
-84.23
  0
LINE
  5
77
100
AcDbEntity
  8
views
  6
ByLayer
 62
    0
370
   -1
100
AcDbLine
 10
195.99366
 20
-75.4974204633
 11
133.79
 21
-58.83
  0
LINE
  5
78
100
AcDbEntity
  8
views
  6
ByLayer
 62
    0
370
   -1
100
AcDbLine
 10
133.79
 20
-84.23
 11
195.99366
 21
-84.23
  0
LINE
  5
79
100
AcDbEntity
  8
views
  6
ByLayer
 62
    0
370
   -1
100
AcDbLine
 10
195.99366
 20
-84.23
 11
195.99366
 21
-75.4974204633
  0
LINE
  5
7A
100
AcDbEntity
  8
views
  6
ByLayer
 62
    0
370
   -1
100
AcDbLine
 10
173.375852019
 20
-16.8449671153
 11
173.375852708
 21
-16.8449645432
  0
LINE
  5
7B
100
AcDbEntity
  8
views
  6
ByLayer
 62
    0
370
   -1
100
AcDbLine
 10
197.970294449
 20
-48.6957633284
 11
144.844374003
 21
-34.4607158478
  0
LINE
  5
7C
100
AcDbEntity
  8
views
  6
ByLayer
 62
    0
370
   -1
100
AcDbLine
 10
197.970294449
 20
-48.6957633284
 11
204.285479149
 21
-25.127173167
  0
LINE
  5
7D
100
AcDbEntity
  8
views
  6
ByLayer
 62
    0
370
   -1
100
AcDbLine
 10
151.159558703
 20
-10.8921256863
 11
204.285479149
 21
-25.127173167
  0
LINE
  5
7E
100
AcDbEntity
  8
views
  6
ByLayer
 62
    0
370
   -1
100
AcDbLine
 10
144.844374003
 20
-34.4607158478
 11
151.159558703
 21
-10.8921256863
  0
LINE
  5
7F
100
AcDbEntity
  8
views
  6
ByLayer
 62
    0
370
   -1
100
AcDbLine
 10
144.844374003
 20
-34.4607174137
 11
144.844374003
 21
-34.4607158478
  0
LINE
  5
80
100
AcDbEntity
  8
views
  6
ByLayer
 62
    0
370
   -1
100
AcDbLine
 10
197.970294449
 20
-48.6957648615
 11
197.970294449
 21
-48.6957633284
  0
LWPOLYLINE
  5
81
100
AcDbEntity
  8
views
  6
ByLayer
 62
    0
370
   -1
100
AcDbPolyline
 90
    3
 70
    0
 43
0
 10
174.063630248
 20
-42.2899927817
 10
171.407334277
 20
-41.5782400116
 10
168.751038203
 20
-40.8664880336
  0
LWPOLYLINE
  5
82
100
AcDbEntity
  8
views
  6
ByLayer
 62
    0
370
   -1
100
AcDbPolyline
 90
    3
 70
    0
 43
0
 10
168.751038203
 20
-40.8664880336
 10
171.407334175
 20
-41.5782408037
 10
174.063630248
 20
-42.2899927817
  0
LINE
  5
83
100
AcDbEntity
  8
views
  6
ByLayer
 62
    0
370
   -1
100
AcDbLine
 10
204.285479149
 20
-25.127173167
 11
204.285479149
 21
-25.1271745428
  0
LINE
  5
84
100
AcDbEntity
  8
views
  6
ByLayer
 62
    0
370
   -1
100
AcDbLine
 10
151.159558703
 20
-10.8921280551
 11
151.159558703
 21
-10.8921256863
  0
LWPOLYLINE
  5
85
100
AcDbEntity
  8
views
  6
ByLayer
 62
    0
370
   -1
100
AcDbPolyline
 90
    3
 70
    0
 43
0
 10
178.825900678
 20
-24.516957578
 10
176.169604553
 20
-23.8052055863
 10
173.513308633
 20
-23.0934528299
  0
LWPOLYLINE
  5
86
100
AcDbEntity
  8
views
  6
ByLayer
 62
    0
370
   -1
100
AcDbPolyline
 90
    3
 70
    0
 43
0
 10
173.513308633
 20
-23.0934528299
 10
176.169604707
 20
-23.8052048079
 10
178.825900678
 20
-24.516957578
  0
LINE
  5
87
100
AcDbEntity
  8
views
  6
ByLayer
 62
    0
370
   -1
100
AcDbLine
 10
178.825900678
 20
-24.516957578
 11
174.063630248
 21
-42.2899927817
  0
LINE
  5
88
100
AcDbEntity
  8
views
  6
ByLayer
 62
    0
370
   -1
100
AcDbLine
 10
182.069184455
 20
-19.1743385212
 11
180.516270874
 21
-24.9698909069
  0
LWPOLYLINE
  5
89
100
AcDbEntity
  8
views
  6
ByLayer
 62
    0
370
   -1
100
AcDbPolyline
 90
    3
 70
    0
 43
0
 10
180.516270874
 20
-24.9698909069
 10
176.169604739
 20
-23.8052045559
 10
171.822938437
 20
-22.640519501
  0
LWPOLYLINE
  5
8A
100
AcDbEntity
  8
views
  6
ByLayer
 62
    0
370
   -1
100
AcDbPolyline
 90
    3
 70
    0
 43
0
 10
171.822938437
 20
-22.640519501
 10
176.169604572
 20
-23.805205852
 10
180.516270874
 20
-24.9698909069
  0
LINE
  5
8B
100
AcDbEntity
  8
views
  6
ByLayer
 62
    0
370
   -1
100
AcDbLine
 10
138.011551212
 20
-59.9611612381
 11
191.137471658
 21
-74.19620871870001
  0
LWPOLYLINE
  5
8C
100
AcDbEntity
  8
views
  6
ByLayer
 62
    0
370
   -1
100
AcDbPolyline
 90
    2
 70
    0
 43
0
 10
162.5460672
 20
-66.5351649837
 10
166.60295567
 20
-67.6222049731
  0
LWPOLYLINE
  5
8D
100
AcDbEntity
  8
views
  6
ByLayer
 62
    0
370
   -1
100
AcDbPolyline
 90
    2
 70
    0
 43
0
 10
166.60295567
 20
-67.6222049731
 10
162.5460672
 20
-66.5351649837
  0
LWPOLYLINE
  5
8E
100
AcDbEntity
  8
views
  6
ByLayer
 62
    0
370
   -1
100
AcDbPolyline
 90
    3
 70
    0
 43
0
 10
145.014513453
 20
-61.8375993151
 10
147.670809475
 20
-62.5493516891
 10
150.327105497
 20
-63.2611040631
  0
LWPOLYLINE
  5
8F
100
AcDbEntity
  8
views
  6
ByLayer
 62
    0
370
   -1
100
AcDbPolyline
 90
    3
 70
    0
 43
0
 10
150.327105497
 20
-63.2611040631
 10
147.670809475
 20
-62.5493516891
 10
145.014513453
 20
-61.8375993151
  0
LWPOLYLINE
  5
90
100
AcDbEntity
  8
views
  6
ByLayer
 62
    0
370
   -1
100
AcDbPolyline
 90
    3
 70
    0
 43
0
 10
178.821917373
 20
-70.8962658937
 10
181.478213395
 20
-71.6080182677
 10
184.134509417
 20
-72.3197706417
  0
LWPOLYLINE
  5
91
100
AcDbEntity
  8
views
  6
ByLayer
 62
    0
370
   -1
100
AcDbPolyline
 90
    3
 70
    0
 43
0
 10
184.134509417
 20
-72.3197706417
 10
181.478213395
 20
-71.6080182677
 10
178.821917373
 20
-70.8962658937
  0
LINE
  5
92
100
AcDbEntity
  8
views
  6
ByLayer
 62
    0
370
   -1
100
AcDbLine
 10
191.137471658
 20
-74.19620871870001
 11
197.452656359
 21
-50.6276185573
  0
LINE
  5
93
100
AcDbEntity
  8
views
  6
ByLayer
 62
    0
370
   -1
100
AcDbLine
 10
144.326735913
 20
-36.3925710766
 11
197.452656359
 21
-50.6276185573
  0
LINE
  5
94
100
AcDbEntity
  8
views
  6
ByLayer
 62
    0
370
   -1
100
AcDbLine
 10
138.011551212
 20
-59.9611612381
 11
144.326735913
 21
-36.3925710766
  0
LWPOLYLINE
  5
95
100
AcDbEntity
  8
views
  6
ByLayer
 62
    0
370
   -1
100
AcDbPolyline
 90
    2
 70
    0
 43
0
 10
168.8612519
 20
-42.9665748222
 10
172.918140371
 20
-44.0536148117
  0
LWPOLYLINE
  5
96
100
AcDbEntity
  8
views
  6
ByLayer
 62
    0
370
   -1
100
AcDbPolyline
 90
    2
 70
    0
 43
0
 10
172.918140371
 20
-44.0536148117
 10
168.8612519
 20
-42.9665748222
  0
LINE
  5
97
100
AcDbEntity
  8
views
  6
ByLayer
 62
    0
370
   -1
100
AcDbLine
 10
168.8612519
 20
-42.9665748222
 11
162.5460672
 21
-66.5351649837
  0
LWPOLYLINE
  5
98
100
AcDbEntity
  8
views
  6
ByLayer
 62
    0
370
   -1
100
AcDbPolyline
 90
    3
 70
    0
 43
0
 10
149.776783883
 20
-44.0645641114
 10
152.433079905
 20
-44.7763164854
 10
155.089375927
 20
-45.4880688594
  0
LWPOLYLINE
  5
99
100
AcDbEntity
  8
views
  6
ByLayer
 62
    0
370
   -1
100
AcDbPolyline
 90
    3
 70
    0
 43
0
 10
155.089375927
 20
-45.4880688594
 10
152.433079905
 20
-44.7763164854
 10
149.776783883
 20
-44.0645641114
  0
LINE
  5
9A
100
AcDbEntity
  8
views
  6
ByLayer
 62
    0
370
   -1
100
AcDbLine
 10
149.776783883
 20
-44.0645641114
 11
145.014513453
 21
-61.8375993151
  0
LWPOLYLINE
  5
9B
100
AcDbEntity
  8
views
  6
ByLayer
 62
    0
370
   -1
100
AcDbPolyline
 90
    3
 70
    0
 43
0
 10
183.584187803
 20
-53.12323069
 10
186.240483825
 20
-53.834983064
 10
188.896779847
 20
-54.546735438
  0
LWPOLYLINE
  5
9C
100
AcDbEntity
  8
views
  6
ByLayer
 62
    0
370
   -1
100
AcDbPolyline
 90
    3
 70
    0
 43
0
 10
188.896779847
 20
-54.546735438
 10
186.240483825
 20
-53.834983064
 10
183.584187803
 20
-53.12323069
  0
LINE
  5
9D
100
AcDbEntity
  8
views
  6
ByLayer
 62
    0
370
   -1
100
AcDbLine
 10
183.584187803
 20
-53.12323069
 11
178.821917373
 21
-70.8962658937
  0
LWPOLYLINE
  5
9E
100
AcDbEntity
  8
views
  6
ByLayer
 62
    0
370
   -1
100
AcDbPolyline
 90
    2
 70
    0
 43
0
 10
192.468163274
 20
-69.23
 10
188.719530361
 20
-69.23
  0
LWPOLYLINE
  5
9F
100
AcDbEntity
  8
views
  6
ByLayer
 62
    0
370
   -1
100
AcDbPolyline
 90
    3
 70
    0
 43
0
 10
183.446731877
 20
-46.8747424033
 10
187.793398096
 20
-48.0394281062
 10
192.140064314
 20
-49.2041138092
  0
LWPOLYLINE
  5
A0
100
AcDbEntity
  8
views
  6
ByLayer
 62
    0
370
   -1
100
AcDbPolyline
 90
    3
 70
    0
 43
0
 10
192.140064314
 20
-49.2041138092
 10
187.793398096
 20
-48.0394281062
 10
183.446731877
 20
-46.8747424033
  0
LWPOLYLINE
  5
A1
100
AcDbEntity
  8
views
  6
ByLayer
 62
    0
370
   -1
100
AcDbPolyline
 90
    3
 70
    0
 43
0
 10
149.639327957
 20
-37.8160758247
 10
153.985994176
 20
-38.9807615277
 10
158.332660394
 20
-40.1454472306
  0
LWPOLYLINE
  5
A2
100
AcDbEntity
  8
views
  6
ByLayer
 62
    0
370
   -1
100
AcDbPolyline
 90
    3
 70
    0
 43
0
 10
158.332660394
 20
-40.1454472306
 10
153.985994176
 20
-38.9807615277
 10
149.639327957
 20
-37.8160758247
  0
LWPOLYLINE
  5
A3
100
AcDbEntity
  8
views
  6
ByLayer
 62
    0
370
   -1
100
AcDbPolyline
 90
    4
 70
    0
 43
0
 10
153.5775
 20
-54.23
 10
151.703700431
 20
-54.23
 10
146.606676941
 20
-54.23
 10
139.547211238
 20
-54.23
  0
LWPOLYLINE
  5
A4
100
AcDbEntity
  8
views
  6
ByLayer
 62
    0
370
   -1
100
AcDbPolyline
 90
    3
 70
    0
 43
0
 10
148.086413687
 20
-43.6116307824
 10
152.433079905
 20
-44.7763164854
 10
156.779746123
 20
-45.9410021884
  0
LWPOLYLINE
  5
A5
100
AcDbEntity
  8
views
  6
ByLayer
 62
    0
370
   -1
100
AcDbPolyline
 90
    3
 70
    0
 43
0
 10
156.779746123
 20
-45.9410021884
 10
152.433079905
 20
-44.7763164854
 10
148.086413687
 20
-43.6116307824
  0
LWPOLYLINE
  5
A6
100
AcDbEntity
  8
views
  6
ByLayer
 62
    0
370
   -1
100
AcDbPolyline
 90
    3
 70
    0
 43
0
 10
181.893817607
 20
-52.670297361
 10
186.240483825
 20
-53.834983064
 10
190.587150043
 20
-54.9996687669
  0
LWPOLYLINE
  5
A7
100
AcDbEntity
  8
views
  6
ByLayer
 62
    0
370
   -1
100
AcDbPolyline
 90
    3
 70
    0
 43
0
 10
190.587150043
 20
-54.9996687669
 10
186.240483825
 20
-53.834983064
 10
181.893817607
 20
-52.670297361
  0
LINE
  5
A8
100
AcDbEntity
  8
views
  6
ByLayer
 62
    0
370
   -1
100
AcDbLine
 10
183.446731877
 20
-46.8747424033
 11
181.893817607
 21
-52.670297361
  0
LINE
  5
A9
100
AcDbEntity
  8
views
  6
ByLayer
 62
    0
370
   -1
100
AcDbLine
 10
149.639327957
 20
-37.8160758247
 11
148.086413687
 21
-43.6116307824
  0
LINE
  5
AA
100
AcDbEntity
  8
views
  6
ByLayer
 62
    0
370
   -1
100
AcDbLine
 10
133.79
 20
-84.23
 11
133.79
 21
-58.83
  0
LINE
  5
AB
100
AcDbEntity
  8
views
  6
ByLayer
 62
    0
370
   -1
100
AcDbLine
 10
133.79
 20
-58.83
 11
195.99366
 21
-75.4974204633
  0
LINE
  5
AC
100
AcDbEntity
  8
views
  6
ByLayer
 62
    0
370
   -1
100
AcDbLine
 10
195.99366
 20
-75.4974204633
 11
195.99366
 21
-84.23
  0
LINE
  5
AD
100
AcDbEntity
  8
views
  6
ByLayer
 62
    0
370
   -1
100
AcDbLine
 10
195.99366
 20
-84.23
 11
133.79
 21
-84.23
  0
LWPOLYLINE
  5
AE
100
AcDbEntity
  8
views
  6
ByLayer
 62
    0
370
   -1
100
AcDbPolyline
 90
    2
 70
    0
 43
0
 10
179.44976916
 20
-71.064498273
 10
183.50665763
 20
-72.1515382624
  0
LWPOLYLINE
  5
AF
100
AcDbEntity
  8
views
  6
ByLayer
 62
    0
370
   -1
100
AcDbPolyline
 90
    2
 70
    0
 43
0
 10
183.50665763
 20
-72.1515382624
 10
179.44976916
 20
-71.064498273
  0
LWPOLYLINE
  5
B0
100
AcDbEntity
  8
views
  6
ByLayer
 62
    0
370
   -1
100
AcDbPolyline
 90
    2
 70
    0
 43
0
 10
145.64236524
 20
-62.0058316944
 10
149.69925371
 20
-63.0928716838
  0
LWPOLYLINE
  5
B1
100
AcDbEntity
  8
views
  6
ByLayer
 62
    0
370
   -1
100
AcDbPolyline
 90
    2
 70
    0
 43
0
 10
149.69925371
 20
-63.0928716838
 10
145.64236524
 20
-62.0058316944
  0
LWPOLYLINE
  5
B2
100
AcDbEntity
  8
views
  6
ByLayer
 62
    0
370
   -1
100
AcDbPolyline
 90
    2
 70
    0
 43
0
 10
139.68741729
 20
-84.23
 10
144.035577248
 20
-84.23
  0
LWPOLYLINE
  5
B3
100
AcDbEntity
  8
views
  6
ByLayer
 62
    0
370
   -1
100
AcDbPolyline
 90
    2
 70
    0
 43
0
 10
144.035577248
 20
-84.23
 10
139.68741729
 20
-84.23
  0
LWPOLYLINE
  5
B4
100
AcDbEntity
  8
views
  6
ByLayer
 62
    0
370
   -1
100
AcDbPolyline
 90
    2
 70
    0
 43
0
 10
175.922083604
 20
-84.23
 10
180.270243562
 20
-84.23
  0
LWPOLYLINE
  5
B5
100
AcDbEntity
  8
views
  6
ByLayer
 62
    0
370
   -1
100
AcDbPolyline
 90
    2
 70
    0
 43
0
 10
180.270243562
 20
-84.23
 10
175.922083604
 20
-84.23
  0
LINE
  5
B6
100
AcDbEntity
  8
views
  6
ByLayer
 62
    0
370
   -1
100
AcDbLine
 10
179.44976916
 20
-71.064498273
 11
175.922083604
 21
-84.23
  0
LINE
  5
B7
100
AcDbEntity
  8
views
  6
ByLayer
 62
    0
370
   -1
100
AcDbLine
 10
145.64236524
 20
-62.0058316944
 11
139.68741729
 21
-84.23
  0
LINE
  5
B8
100
AcDbEntity
  8
views
  6
ByLayer
 62
    0
370
   -1
100
AcDbLine
 10
168.751038203
 20
-40.8664880336
 11
173.513308633
 21
-23.0934528299
  0
LINE
  5
B9
100
AcDbEntity
  8
views
  6
ByLayer
 62
    0
370
   -1
100
AcDbLine
 10
171.822938437
 20
-22.640519501
 11
173.375852019
 21
-16.8449671153
  0
LINE
  5
BA
100
AcDbEntity
  8
views
  6
ByLayer
 62
    0
370
   -1
100
AcDbLine
 10
166.60295567
 20
-67.6222049731
 11
172.918140371
 21
-44.0536148117
  0
LINE
  5
BB
100
AcDbEntity
  8
views
  6
ByLayer
 62
    0
370
   -1
100
AcDbLine
 10
150.327105497
 20
-63.2611040631
 11
155.089375927
 21
-45.4880688594
  0
LINE
  5
BC
100
AcDbEntity
  8
views
  6
ByLayer
 62
    0
370
   -1
100
AcDbLine
 10
184.134509417
 20
-72.3197706417
 11
188.896779847
 21
-54.546735438
  0
LINE
  5
BD
100
AcDbEntity
  8
views
  6
ByLayer
 62
    0
370
   -1
100
AcDbLine
 10
190.587150043
 20
-54.9996687669
 11
192.140064314
 21
-49.2041138092
  0
LINE
  5
BE
100
AcDbEntity
  8
views
  6
ByLayer
 62
    0
370
   -1
100
AcDbLine
 10
156.779746123
 20
-45.9410021884
 11
158.332660394
 21
-40.1454472306
  0
LINE
  5
BF
100
AcDbEntity
  8
views
  6
ByLayer
 62
    0
370
   -1
100
AcDbLine
 10
180.270243562
 20
-84.23
 11
183.50665763
 21
-72.1515382624
  0
LINE
  5
C0
100
AcDbEntity
  8
views
  6
ByLayer
 62
    0
370
   -1
100
AcDbLine
 10
144.035577248
 20
-84.23
 11
149.69925371
 21
-63.0928716838
  0
ENDBLK
  5
50
330
4E
100
AcDbEntity
  8
0
100
AcDbBlockEnd
  0
BLOCK
  5
52
330
51
100
AcDbEntity
  8
0
100
AcDbBlockBegin
  2
SHAPE2DVIEW001
 70
    0
 10
0
 20
0
  3
SHAPE2DVIEW001
  1

  0
LINE
  5
C1
100
AcDbEntity
  8
0
  6
ByLayer
 62
    0
370
   -1
100
AcDbLine
 10
29.88
 20
-31.97
 11
29.88
 21
-82.77
  0
LINE
  5
C2
100
AcDbEntity
  8
views
  6
ByLayer
 62
    0
370
   -1
100
AcDbLine
 10
29.88
 20
-31.97
 11
92.08365999999999
 21
-31.97
  0
LINE
  5
C3
100
AcDbEntity
  8
views
  6
ByLayer
 62
    0
370
   -1
100
AcDbLine
 10
29.88
 20
-82.77
 11
92.08365999999999
 21
-82.77
  0
LINE
  5
C4
100
AcDbEntity
  8
views
  6
ByLayer
 62
    0
370
   -1
100
AcDbLine
 10
92.08365999999999
 20
-31.97
 11
92.08365999999999
 21
-33.37
  0
LINE
  5
C5
100
AcDbEntity
  8
views
  6
ByLayer
 62
    0
370
   -1
100
AcDbLine
 10
92.08365999999999
 20
-44.6334633356
 11
92.08365999999999
 21
-70.1065388573
  0
LINE
  5
C6
100
AcDbEntity
  8
views
  6
ByLayer
 62
    0
370
   -1
100
AcDbLine
 10
92.08365999999999
 20
-81.3700054822
 11
92.08365999999999
 21
-82.77
  0
LINE
  5
C7
100
AcDbEntity
  8
views
  6
ByLayer
 62
    0
370
   -1
100
AcDbLine
 10
34.1015512121
 20
-81.37
 11
40.4167359126
 21
-81.37
  0
LINE
  5
C8
100
AcDbEntity
  8
views
  6
ByLayer
 62
    0
370
   -1
100
AcDbLine
 10
40.9343740028
 20
-81.37
 11
40.4167359126
 21
-81.37
  0
LINE
  5
C9
100
AcDbEntity
  8
views
  6
ByLayer
 62
    0
370
   -1
100
AcDbLine
 10
34.1015512121
 20
-81.37
 11
34.1015512121
 21
-33.37
  0
LINE
  5
CA
100
AcDbEntity
  8
views
  6
ByLayer
 62
    0
370
   -1
100
AcDbLine
 10
34.1015512121
 20
-33.37
 11
40.4167359126
 21
-33.37
  0
LINE
  5
CB
100
AcDbEntity
  8
views
  6
ByLayer
 62
    0
370
   -1
100
AcDbLine
 10
40.4167359126
 20
-43.6581543298
 11
40.4167359126
 21
-33.37
  0
LWPOLYLINE
  5
CC
100
AcDbEntity
  8
views
  6
ByLayer
 62
    0
370
   -1
100
AcDbPolyline
 90
    2
 70
    0
 43
0
 10
40.4167359126
 20
-43.6581543298
 10
35.6372112376
 20
-42.6018996688
  0
LINE
  5
CD
100
AcDbEntity
  8
views
  6
ByLayer
 62
    0
370
   -1
100
AcDbLine
 10
35.6372112376
 20
-72.13810033119999
 11
35.6372112376
 21
-42.6018996688
  0
LWPOLYLINE
  5
CE
100
AcDbEntity
  8
views
  6
ByLayer
 62
    0
370
   -1
100
AcDbPolyline
 90
    2
 70
    0
 43
0
 10
35.6372112376
 20
-72.13810033119999
 10
40.4167359126
 20
-71.0818456702
  0
LINE
  5
CF
100
AcDbEntity
  8
views
  6
ByLayer
 62
    0
370
   -1
100
AcDbLine
 10
40.4167359126
 20
-81.37
 11
40.4167359126
 21
-71.0818456702
  0
LINE
  5
D0
100
AcDbEntity
  8
views
  6
ByLayer
 62
    0
370
   -1
100
AcDbLine
 10
93.5426563585
 20
-70.861284973
 11
93.5426563585
 21
-70.8612828035
  0
LWPOLYLINE
  5
D1
100
AcDbEntity
  8
views
  6
ByLayer
 62
    0
370
   -1
100
AcDbPolyline
 90
    2
 70
    0
 43
0
 10
91.956339546
 20
-70.03056871210001
 10
93.5426563585
 20
-70.8612828035
  0
LWPOLYLINE
  5
D2
100
AcDbEntity
  8
views
  6
ByLayer
 62
    0
370
   -1
100
AcDbPolyline
 90
    2
 70
    0
 43
0
 10
40.4167359126
 20
-71.0818456702
 10
42.5206908353
 20
-70.03056870010001
  0
LINE
  5
D3
100
AcDbEntity
  8
views
  6
ByLayer
 62
    0
370
   -1
100
AcDbLine
 10
42.5206908359
 20
-70.0305687076
 11
42.5206954383
 21
-70.0305687076
  0
LINE
  5
D4
100
AcDbEntity
  8
views
  6
ByLayer
 62
    0
370
   -1
100
AcDbLine
 10
91.9563359016
 20
-70.0305687076
 11
91.9563395457
 21
-70.0305687076
  0
LINE
  5
D5
100
AcDbEntity
  8
views
  6
ByLayer
 62
    0
370
   -1
100
AcDbLine
 10
88.5581632736
 20
-47.5306135654
 11
88.5581632736
 21
-67.2093886837
  0
LINE
  5
D6
100
AcDbEntity
  8
views
  6
ByLayer
 62
    0
370
   -1
100
AcDbLine
 10
93.5426563585
 20
-33.3700054239
 11
93.5426563585
 21
-33.37
  0
LINE
  5
D7
100
AcDbEntity
  8
views
  6
ByLayer
 62
    0
370
   -1
100
AcDbLine
 10
40.4167359126
 20
-33.37
 11
93.5426563585
 21
-33.37
  0
LWPOLYLINE
  5
D8
100
AcDbEntity
  8
views
  6
ByLayer
 62
    0
370
   -1
100
AcDbPolyline
 90
    2
 70
    0
 43
0
 10
40.9343740028
 20
-43.8787171965
 10
40.4167359126
 20
-43.6581543298
  0
ARC
  5
D9
100
AcDbEntity
  8
views
  6
ByLayer
 62
    0
370
   -1
100
AcDbCircle
 10
34.88
 20
-57.37
 40
14.7875
100
AcDbArc
 50
-29.6031509506
 51
-8.40869523685e-06
  0
LWPOLYLINE
  5
DA
100
AcDbEntity
  8
views
  6
ByLayer
 62
    0
370
   -1
100
AcDbPolyline
 90
    5
 70
    0
 43
0
 10
42.5206908359
 20
-70.0305687012
 10
43.9107995168
 20
-69.07960359569999
 10
45.9984673921
 20
-67.1193507034
 10
48.1709656843
 20
-63.8523134386
 10
49.6675
 20
-57.37
  0
LWPOLYLINE
  5
DB
100
AcDbEntity
  8
views
  6
ByLayer
 62
    0
370
   -1
100
AcDbPolyline
 90
    2
 70
    0
 43
0
 10
91.9563395457
 20
-70.0305687127
 10
90.6332851671
 20
-69.1310130769
  0
LINE
  5
DC
100
AcDbEntity
  8
views
  6
ByLayer
 62
    0
370
   -1
100
AcDbLine
 10
47.2495587033
 20
-33.3700072723
 11
100.375479149
 21
-33.3700051511
  0
LINE
  5
DD
100
AcDbEntity
  8
views
  6
ByLayer
 62
    0
370
   -1
100
AcDbLine
 10
40.9343740028
 20
-33.3700037603
 11
47.2495587033
 21
-33.3700072723
  0
LINE
  5
DE
100
AcDbEntity
  8
views
  6
ByLayer
 62
    0
370
   -1
100
AcDbLine
 10
40.9343740028
 20
-43.8787194527
 11
40.9343740028
 21
-33.3700037603
  0
LWPOLYLINE
  5
DF
100
AcDbEntity
  8
views
  6
ByLayer
 62
    0
370
   -1
100
AcDbPolyline
 90
    2
 70
    0
 43
0
 10
70.1536302481
 20
-38.8700025936
 10
69.87847011860001
 20
-37.651143322
  0
LWPOLYLINE
  5
E0
100
AcDbEntity
  8
views
  6
ByLayer
 62
    0
370
   -1
100
AcDbPolyline
 90
    2
 70
    0
 43
0
 10
69.8784687629
 20
-40.0888647257
 10
70.1536302481
 20
-38.8700025936
  0
LINE
  5
E1
100
AcDbEntity
  8
views
  6
ByLayer
 62
    0
370
   -1
100
AcDbLine
 10
100.375479149
 20
-33.3700051511
 11
100.375479149
 21
-42.6030059632
  0
LWPOLYLINE
  5
E2
100
AcDbEntity
  8
views
  6
ByLayer
 62
    0
370
   -1
100
AcDbPolyline
 90
    5
 70
    0
 43
0
 10
47.2495587033
 20
-49.2666609957
 10
49.0379704831
 20
-53.1454342937
 10
49.6675
 20
-57.3700043054
 10
49.0379704831
 20
-61.5945743473
 10
47.2495587033
 20
-65.47334773110001
  0
LINE
  5
E3
100
AcDbEntity
  8
views
  6
ByLayer
 62
    0
370
   -1
100
AcDbLine
 10
47.2495587033
 20
-49.2666609957
 11
47.2495587033
 21
-33.3700072723
  0
LINE
  5
E4
100
AcDbEntity
  8
views
  6
ByLayer
 62
    0
370
   -1
100
AcDbLine
 10
47.2495587033
 20
-81.3700072723
 11
47.2495587033
 21
-65.47334773110001
  0
LINE
  5
E5
100
AcDbEntity
  8
views
  6
ByLayer
 62
    0
370
   -1
100
AcDbLine
 10
100.375479149
 20
-81.3700051511
 11
47.2495587033
 21
-81.3700072723
  0
LINE
  5
E6
100
AcDbEntity
  8
views
  6
ByLayer
 62
    0
370
   -1
100
AcDbLine
 10
100.375479149
 20
-72.1369981576
 11
100.375479149
 21
-81.3700051511
  0
LWPOLYLINE
  5
E7
100
AcDbEntity
  8
views
  6
ByLayer
 62
    0
370
   -1
100
AcDbPolyline
 90
    6
 70
    0
 43
0
 10
84.80953036139999
 20
-57.370002309
 10
85.5973800317
 20
-52.6572539417
 10
87.8385520171
 20
-48.4423251544
 10
91.30072606580001
 20
-45.1578538882
 10
95.62779108949999
 20
-43.1416731405
 10
100.375479149
 20
-42.6030059632
  0
LWPOLYLINE
  5
E8
100
AcDbEntity
  8
views
  6
ByLayer
 62
    0
370
   -1
100
AcDbPolyline
 90
    6
 70
    0
 43
0
 10
100.375479149
 20
-72.1369981576
 10
95.62779108949999
 20
-71.598331132
 10
91.30072606580001
 20
-69.5821505226
 10
87.8385520171
 20
-66.2976793669
 10
85.5973800317
 20
-62.0827506512
 10
84.80953036139999
 20
-57.370002309
  0
LWPOLYLINE
  5
E9
100
AcDbEntity
  8
views
  6
ByLayer
 62
    0
370
   -1
100
AcDbPolyline
 90
    3
 70
    0
 43
0
 10
78.1591851446
 20
-38.8700060381
 10
76.8860769696
 20
-35.6880264896
 10
73.8125214288
 20
-34.3700062117
  0
LWPOLYLINE
  5
EA
100
AcDbEntity
  8
views
  6
ByLayer
 62
    0
370
   -1
100
AcDbPolyline
 90
    4
 70
    0
 43
0
 10
73.8125214288
 20
-34.3700062117
 10
70.04819681070001
 20
-36.6200041183
 10
70.0481943082
 20
-41.1200041183
 10
73.8125164237
 20
-43.3700062117
  0
LWPOLYLINE
  5
EB
100
AcDbEntity
  8
views
  6
ByLayer
 62
    0
370
   -1
100
AcDbPolyline
 90
    3
 70
    0
 43
0
 10
73.8125164237
 20
-43.3700062117
 10
76.88607519999999
 20
-42.0519875203
 10
78.1591851446
 20
-38.8700060381
  0
LWPOLYLINE
  5
EC
100
AcDbEntity
  8
views
  6
ByLayer
 62
    0
370
   -1
100
AcDbPolyline
 90
    3
 70
    0
 43
0
 10
78.1591851446
 20
-75.8700060381
 10
76.88607519999999
 20
-79.0519875203
 10
73.8125164237
 20
-80.3700062117
  0
LWPOLYLINE
  5
ED
100
AcDbEntity
  8
views
  6
ByLayer
 62
    0
370
   -1
100
AcDbPolyline
 90
    4
 70
    0
 43
0
 10
73.8125164237
 20
-80.3700062117
 10
70.0481943082
 20
-78.1200041183
 10
70.04819681070001
 20
-73.6200041183
 10
73.8125214288
 20
-71.3700062117
  0
LWPOLYLINE
  5
EE
100
AcDbEntity
  8
views
  6
ByLayer
 62
    0
370
   -1
100
AcDbPolyline
 90
    3
 70
    0
 43
0
 10
73.8125214288
 20
-71.3700062117
 10
76.8860769696
 20
-72.68802648960001
 10
78.1591851446
 20
-75.8700060381
  0
LWPOLYLINE
  5
EF
100
AcDbEntity
  8
views
  6
ByLayer
 62
    0
370
   -1
100
AcDbPolyline
 90
    3
 70
    0
 43
0
 10
47.2495587033
 20
-49.2666609957
 10
44.4778016718
 20
-46.1204541445
 10
40.9343740028
 20
-43.8787194527
  0
LWPOLYLINE
  5
F0
100
AcDbEntity
  8
views
  6
ByLayer
 62
    0
370
   -1
100
AcDbPolyline
 90
    3
 70
    0
 43
0
 10
40.9343740028
 20
-70.86128505969999
 10
44.4778016718
 20
-68.6195527325
 10
47.2495587033
 20
-65.47334773110001
  0
LWPOLYLINE
  5
F1
100
AcDbEntity
  8
views
  6
ByLayer
 62
    0
370
   -1
100
AcDbPolyline
 90
    2
 70
    0
 43
0
 10
74.915900678
 20
-38.870005242
 10
72.25960312629999
 20
-41.6200053481
  0
LWPOLYLINE
  5
F2
100
AcDbEntity
  8
views
  6
ByLayer
 62
    0
370
   -1
100
AcDbPolyline
 90
    3
 70
    0
 43
0
 10
72.25960312629999
 20
-41.6200053481
 10
69.6033086334
 20
-38.8700038709
 10
72.259606185
 20
-36.1200053481
  0
LWPOLYLINE
  5
F3
100
AcDbEntity
  8
views
  6
ByLayer
 62
    0
370
   -1
100
AcDbPolyline
 90
    2
 70
    0
 43
0
 10
72.259606185
 20
-36.1200053481
 10
74.915900678
 20
-38.870005242
  0
LINE
  5
F4
100
AcDbEntity
  8
views
  6
ByLayer
 62
    0
370
   -1
100
AcDbLine
 10
40.9343740028
 20
-81.37000376029999
 11
40.9343740028
 21
-70.86128505969999
  0
LINE
  5
F5
100
AcDbEntity
  8
views
  6
ByLayer
 62
    0
370
   -1
100
AcDbLine
 10
40.9343740028
 20
-81.37000376029999
 11
47.2495587033
 21
-81.3700072723
  0
LWPOLYLINE
  5
F6
100
AcDbEntity
  8
views
  6
ByLayer
 62
    0
370
   -1
100
AcDbPolyline
 90
    3
 70
    0
 43
0
 10
76.606270874
 20
-38.8700051745
 10
75.5964083595
 20
-35.9861991854
 10
73.0360642533
 20
-34.4423846271
  0
LWPOLYLINE
  5
F7
100
AcDbEntity
  8
views
  6
ByLayer
 62
    0
370
   -1
100
AcDbPolyline
 90
    3
 70
    0
 43
0
 10
73.03605932870001
 20
-43.2976269326
 10
75.5964067558
 20
-41.7538132332
 10
76.606270874
 20
-38.8700051745
  0
LWPOLYLINE
  5
F8
100
AcDbEntity
  8
views
  6
ByLayer
 62
    0
370
   -1
100
AcDbPolyline
 90
    3
 70
    0
 43
0
 10
76.606270874
 20
-75.87000517449999
 10
75.5964067558
 20
-78.75381323320001
 10
73.03605932870001
 20
-80.2976269326
  0
LWPOLYLINE
  5
F9
100
AcDbEntity
  8
views
  6
ByLayer
 62
    0
370
   -1
100
AcDbPolyline
 90
    3
 70
    0
 43
0
 10
73.0360642533
 20
-71.4423846271
 10
75.5964083595
 20
-72.9861991854
 10
76.606270874
 20
-75.87000517449999
  0
LWPOLYLINE
  5
FA
100
AcDbEntity
  8
views
  6
ByLayer
 62
    0
370
   -1
100
AcDbPolyline
 90
    2
 70
    0
 43
0
 10
70.1536302481
 20
-75.87000259360001
 10
69.87847011860001
 20
-74.651143322
  0
LWPOLYLINE
  5
FB
100
AcDbEntity
  8
views
  6
ByLayer
 62
    0
370
   -1
100
AcDbPolyline
 90
    2
 70
    0
 43
0
 10
69.8784687629
 20
-77.08886472570001
 10
70.1536302481
 20
-75.87000259360001
  0
LWPOLYLINE
  5
FC
100
AcDbEntity
  8
views
  6
ByLayer
 62
    0
370
   -1
100
AcDbPolyline
 90
    2
 70
    0
 43
0
 10
74.915900678
 20
-75.870005242
 10
72.259606185
 20
-73.12000534809999
  0
LWPOLYLINE
  5
FD
100
AcDbEntity
  8
views
  6
ByLayer
 62
    0
370
   -1
100
AcDbPolyline
 90
    3
 70
    0
 43
0
 10
72.259606185
 20
-73.12000534809999
 10
69.6033086334
 20
-75.87000387090001
 10
72.25960312629999
 20
-78.62000534809999
  0
LWPOLYLINE
  5
FE
100
AcDbEntity
  8
views
  6
ByLayer
 62
    0
370
   -1
100
AcDbPolyline
 90
    2
 70
    0
 43
0
 10
72.25960312629999
 20
-78.62000534809999
 10
74.915900678
 20
-75.870005242
  0
LINE
  5
FF
100
AcDbEntity
  8
views
  6
ByLayer
 62
    0
370
   -1
100
AcDbLine
 10
74.915900678
 20
-38.870005242
 11
70.1536302481
 21
-38.8700025936
  0
LINE
  5
100
100
AcDbEntity
  8
views
  6
ByLayer
 62
    0
370
   -1
100
AcDbLine
 10
78.1591851446
 20
-38.8700060381
 11
76.606270874
 21
-38.8700051745
  0
LINE
  5
101
100
AcDbEntity
  8
views
  6
ByLayer
 62
    0
370
   -1
100
AcDbLine
 10
78.1591851446
 20
-75.8700060381
 11
76.606270874
 21
-75.87000517449999
  0
LINE
  5
102
100
AcDbEntity
  8
views
  6
ByLayer
 62
    0
370
   -1
100
AcDbLine
 10
74.915900678
 20
-75.870005242
 11
70.1536302481
 21
-75.87000259360001
  0
LINE
  5
103
100
AcDbEntity
  8
views
  6
ByLayer
 62
    0
370
   -1
100
AcDbLine
 10
29.88
 20
-31.97
 11
29.88
 21
-82.77
  0
LINE
  5
104
100
AcDbEntity
  8
views
  6
ByLayer
 62
    0
370
   -1
100
AcDbLine
 10
92.08365999999999
 20
-31.97
 11
92.08365999999999
 21
-82.77
  0
LINE
  5
105
100
AcDbEntity
  8
views
  6
ByLayer
 62
    0
370
   -1
100
AcDbLine
 10
92.08365999999999
 20
-31.97
 11
29.88
 21
-31.97
  0
LINE
  5
106
100
AcDbEntity
  8
views
  6
ByLayer
 62
    0
370
   -1
100
AcDbLine
 10
92.08365999999999
 20
-82.77
 11
29.88
 21
-82.77
  0
LWPOLYLINE
  5
107
100
AcDbEntity
  8
views
  6
ByLayer
 62
    0
370
   -1
100
AcDbPolyline
 90
    2
 70
    0
 43
0
 10
72.0120836042
 20
-75.87
 10
74.1861635831
 20
-73.77
  0
LWPOLYLINE
  5
108
100
AcDbEntity
  8
views
  6
ByLayer
 62
    0
370
   -1
100
AcDbPolyline
 90
    3
 70
    0
 43
0
 10
74.1861635831
 20
-73.77
 10
76.36024356190001
 20
-75.87
 10
74.1861635831
 20
-77.97
  0
LWPOLYLINE
  5
109
100
AcDbEntity
  8
views
  6
ByLayer
 62
    0
370
   -1
100
AcDbPolyline
 90
    2
 70
    0
 43
0
 10
74.1861635831
 20
-77.97
 10
72.0120836042
 20
-75.87
  0
LWPOLYLINE
  5
10A
100
AcDbEntity
  8
views
  6
ByLayer
 62
    0
370
   -1
100
AcDbPolyline
 90
    2
 70
    0
 43
0
 10
72.0120836042
 20
-38.87
 10
74.1861635831
 20
-36.77
  0
LWPOLYLINE
  5
10B
100
AcDbEntity
  8
views
  6
ByLayer
 62
    0
370
   -1
100
AcDbPolyline
 90
    3
 70
    0
 43
0
 10
74.1861635831
 20
-36.77
 10
76.36024356190001
 20
-38.8700000001
 10
74.18616358289999
 20
-40.97
  0
LWPOLYLINE
  5
10C
100
AcDbEntity
  8
views
  6
ByLayer
 62
    0
370
   -1
100
AcDbPolyline
 90
    2
 70
    0
 43
0
 10
74.18616358289999
 20
-40.97
 10
72.0120836042
 20
-38.87
  0
LWPOLYLINE
  5
10D
100
AcDbEntity
  8
views
  6
ByLayer
 62
    0
370
   -1
100
AcDbPolyline
 90
    2
 70
    0
 43
0
 10
35.7774172899
 20
-38.87
 10
37.9514972688
 20
-36.77
  0
LWPOLYLINE
  5
10E
100
AcDbEntity
  8
views
  6
ByLayer
 62
    0
370
   -1
100
AcDbPolyline
 90
    3
 70
    0
 43
0
 10
37.9514972688
 20
-36.77
 10
40.1255772476
 20
-38.8700000001
 10
37.9514972686
 20
-40.97
  0
LWPOLYLINE
  5
10F
100
AcDbEntity
  8
views
  6
ByLayer
 62
    0
370
   -1
100
AcDbPolyline
 90
    2
 70
    0
 43
0
 10
37.9514972686
 20
-40.97
 10
35.7774172899
 20
-38.87
  0
LWPOLYLINE
  5
110
100
AcDbEntity
  8
views
  6
ByLayer
 62
    0
370
   -1
100
AcDbPolyline
 90
    2
 70
    0
 43
0
 10
35.7774172899
 20
-75.87
 10
37.9514972687
 20
-73.77
  0
LWPOLYLINE
  5
111
100
AcDbEntity
  8
views
  6
ByLayer
 62
    0
370
   -1
100
AcDbPolyline
 90
    3
 70
    0
 43
0
 10
37.9514972687
 20
-73.77
 10
40.1255772476
 20
-75.87
 10
37.9514972687
 20
-77.97
  0
LWPOLYLINE
  5
112
100
AcDbEntity
  8
views
  6
ByLayer
 62
    0
370
   -1
100
AcDbPolyline
 90
    2
 70
    0
 43
0
 10
37.9514972687
 20
-77.97
 10
35.7774172899
 20
-75.87
  0
LINE
  5
113
100
AcDbEntity
  8
views
  6
ByLayer
 62
    0
370
   -1
100
AcDbLine
 10
92.08365999999999
 20
-33.37
 11
92.08365999999999
 21
-44.6334633356
  0
LINE
  5
114
100
AcDbEntity
  8
views
  6
ByLayer
 62
    0
370
   -1
100
AcDbLine
 10
92.08365999999999
 20
-70.1065388573
 11
92.08365999999999
 21
-81.3700054822
  0
LWPOLYLINE
  5
115
100
AcDbEntity
  8
views
  6
ByLayer
 62
    0
370
   -1
100
AcDbPolyline
 90
    2
 70
    0
 43
0
 10
75.5397691599
 20
-38.87
 10
77.5682133951
 20
-40.97
  0
LWPOLYLINE
  5
116
100
AcDbEntity
  8
views
  6
ByLayer
 62
    0
370
   -1
100
AcDbPolyline
 90
    3
 70
    0
 43
0
 10
77.5682133951
 20
-40.97
 10
79.5966576303
 20
-38.87
 10
77.5682133951
 20
-36.77
  0
LWPOLYLINE
  5
117
100
AcDbEntity
  8
views
  6
ByLayer
 62
    0
370
   -1
100
AcDbPolyline
 90
    2
 70
    0
 43
0
 10
77.5682133951
 20
-36.77
 10
75.5397691599
 20
-38.87
  0
LWPOLYLINE
  5
118
100
AcDbEntity
  8
views
  6
ByLayer
 62
    0
370
   -1
100
AcDbPolyline
 90
    2
 70
    0
 43
0
 10
41.7323652398
 20
-38.87
 10
43.760809475
 20
-40.97
  0
LWPOLYLINE
  5
119
100
AcDbEntity
  8
views
  6
ByLayer
 62
    0
370
   -1
100
AcDbPolyline
 90
    3
 70
    0
 43
0
 10
43.760809475
 20
-40.97
 10
45.7892537102
 20
-38.87
 10
43.760809475
 20
-36.77
  0
LWPOLYLINE
  5
11A
100
AcDbEntity
  8
views
  6
ByLayer
 62
    0
370
   -1
100
AcDbPolyline
 90
    2
 70
    0
 43
0
 10
43.760809475
 20
-36.77
 10
41.7323652398
 20
-38.87
  0
LWPOLYLINE
  5
11B
100
AcDbEntity
  8
views
  6
ByLayer
 62
    0
370
   -1
100
AcDbPolyline
 90
    2
 70
    0
 43
0
 10
75.5397691599
 20
-75.87
 10
77.5682133951
 20
-77.97
  0
LWPOLYLINE
  5
11C
100
AcDbEntity
  8
views
  6
ByLayer
 62
    0
370
   -1
100
AcDbPolyline
 90
    3
 70
    0
 43
0
 10
77.5682133951
 20
-77.97
 10
79.5966576303
 20
-75.87
 10
77.5682133951
 20
-73.77
  0
LWPOLYLINE
  5
11D
100
AcDbEntity
  8
views
  6
ByLayer
 62
    0
370
   -1
100
AcDbPolyline
 90
    2
 70
    0
 43
0
 10
77.5682133951
 20
-73.77
 10
75.5397691599
 20
-75.87
  0
LWPOLYLINE
  5
11E
100
AcDbEntity
  8
views
  6
ByLayer
 62
    0
370
   -1
100
AcDbPolyline
 90
    2
 70
    0
 43
0
 10
41.7323652398
 20
-75.87
 10
43.760809475
 20
-77.97
  0
LWPOLYLINE
  5
11F
100
AcDbEntity
  8
views
  6
ByLayer
 62
    0
370
   -1
100
AcDbPolyline
 90
    3
 70
    0
 43
0
 10
43.760809475
 20
-77.97
 10
45.7892537102
 20
-75.87
 10
43.760809475
 20
-73.77
  0
LWPOLYLINE
  5
120
100
AcDbEntity
  8
views
  6
ByLayer
 62
    0
370
   -1
100
AcDbPolyline
 90
    2
 70
    0
 43
0
 10
43.760809475
 20
-73.77
 10
41.7323652398
 20
-75.87
  0
LINE
  5
121
100
AcDbEntity
  8
views
  6
ByLayer
 62
    0
370
   -1
100
AcDbLine
 10
87.227471658
 20
-81.37
 11
34.1015512121
 21
-81.37
  0
LINE
  5
122
100
AcDbEntity
  8
views
  6
ByLayer
 62
    0
370
   -1
100
AcDbLine
 10
93.5426563585
 20
-81.37
 11
40.9343740028
 21
-81.37
  0
LINE
  5
123
100
AcDbEntity
  8
views
  6
ByLayer
 62
    0
370
   -1
100
AcDbLine
 10
87.227471658
 20
-81.37
 11
93.5426563585
 21
-81.37
  0
LINE
  5
124
100
AcDbEntity
  8
views
  6
ByLayer
 62
    0
370
   -1
100
AcDbLine
 10
87.227471658
 20
-33.37
 11
87.227471658
 21
-81.37
  0
LINE
  5
125
100
AcDbEntity
  8
views
  6
ByLayer
 62
    0
370
   -1
100
AcDbLine
 10
34.1015512121
 20
-33.37
 11
87.227471658
 21
-33.37
  0
LWPOLYLINE
  5
126
100
AcDbEntity
  8
views
  6
ByLayer
 62
    0
370
   -1
100
AcDbPolyline
 90
    2
 70
    0
 43
0
 10
74.9119173728
 20
-75.87
 10
77.5682133951
 20
-78.62
  0
LWPOLYLINE
  5
127
100
AcDbEntity
  8
views
  6
ByLayer
 62
    0
370
   -1
100
AcDbPolyline
 90
    3
 70
    0
 43
0
 10
77.5682133951
 20
-78.62
 10
80.2245094174
 20
-75.87
 10
77.5682133951
 20
-73.12
  0
LWPOLYLINE
  5
128
100
AcDbEntity
  8
views
  6
ByLayer
 62
    0
370
   -1
100
AcDbPolyline
 90
    2
 70
    0
 43
0
 10
77.5682133951
 20
-73.12
 10
74.9119173728
 20
-75.87
  0
LWPOLYLINE
  5
129
100
AcDbEntity
  8
views
  6
ByLayer
 62
    0
370
   -1
100
AcDbPolyline
 90
    2
 70
    0
 43
0
 10
58.6360671999
 20
-75.87
 10
60.6645114351
 20
-77.97
  0
LWPOLYLINE
  5
12A
100
AcDbEntity
  8
views
  6
ByLayer
 62
    0
370
   -1
100
AcDbPolyline
 90
    3
 70
    0
 43
0
 10
60.6645114351
 20
-77.97
 10
62.6929556703
 20
-75.87
 10
60.6645114351
 20
-73.77
  0
LWPOLYLINE
  5
12B
100
AcDbEntity
  8
views
  6
ByLayer
 62
    0
370
   -1
100
AcDbPolyline
 90
    2
 70
    0
 43
0
 10
60.6645114351
 20
-73.77
 10
58.6360671999
 20
-75.87
  0
LWPOLYLINE
  5
12C
100
AcDbEntity
  8
views
  6
ByLayer
 62
    0
370
   -1
100
AcDbPolyline
 90
    2
 70
    0
 43
0
 10
58.6360671999
 20
-38.87
 10
60.6645114351
 20
-40.97
  0
LWPOLYLINE
  5
12D
100
AcDbEntity
  8
views
  6
ByLayer
 62
    0
370
   -1
100
AcDbPolyline
 90
    3
 70
    0
 43
0
 10
60.6645114351
 20
-40.97
 10
62.6929556703
 20
-38.87
 10
60.6645114351
 20
-36.77
  0
LWPOLYLINE
  5
12E
100
AcDbEntity
  8
views
  6
ByLayer
 62
    0
370
   -1
100
AcDbPolyline
 90
    2
 70
    0
 43
0
 10
60.6645114351
 20
-36.77
 10
58.6360671999
 20
-38.87
  0
LWPOLYLINE
  5
12F
100
AcDbEntity
  8
views
  6
ByLayer
 62
    0
370
   -1
100
AcDbPolyline
 90
    2
 70
    0
 43
0
 10
74.9119173728
 20
-38.87
 10
77.5682133951
 20
-41.62
  0
LWPOLYLINE
  5
130
100
AcDbEntity
  8
views
  6
ByLayer
 62
    0
370
   -1
100
AcDbPolyline
 90
    3
 70
    0
 43
0
 10
77.5682133951
 20
-41.62
 10
80.2245094174
 20
-38.87
 10
77.5682133951
 20
-36.12
  0
LWPOLYLINE
  5
131
100
AcDbEntity
  8
views
  6
ByLayer
 62
    0
370
   -1
100
AcDbPolyline
 90
    2
 70
    0
 43
0
 10
77.5682133951
 20
-36.12
 10
74.9119173728
 20
-38.87
  0
LWPOLYLINE
  5
132
100
AcDbEntity
  8
views
  6
ByLayer
 62
    0
370
   -1
100
AcDbPolyline
 90
    2
 70
    0
 43
0
 10
41.1045134527
 20
-38.87
 10
43.760809475
 20
-41.62
  0
LWPOLYLINE
  5
133
100
AcDbEntity
  8
views
  6
ByLayer
 62
    0
370
   -1
100
AcDbPolyline
 90
    3
 70
    0
 43
0
 10
43.760809475
 20
-41.62
 10
46.4171054973
 20
-38.87
 10
43.760809475
 20
-36.12
  0
LWPOLYLINE
  5
134
100
AcDbEntity
  8
views
  6
ByLayer
 62
    0
370
   -1
100
AcDbPolyline
 90
    2
 70
    0
 43
0
 10
43.760809475
 20
-36.12
 10
41.1045134527
 20
-38.87
  0
LWPOLYLINE
  5
135
100
AcDbEntity
  8
views
  6
ByLayer
 62
    0
370
   -1
100
AcDbPolyline
 90
    2
 70
    0
 43
0
 10
41.1045134527
 20
-75.87
 10
43.760809475
 20
-78.62
  0
LWPOLYLINE
  5
136
100
AcDbEntity
  8
views
  6
ByLayer
 62
    0
370
   -1
100
AcDbPolyline
 90
    3
 70
    0
 43
0
 10
43.760809475
 20
-78.62
 10
46.4171054973
 20
-75.87
 10
43.760809475
 20
-73.12
  0
LWPOLYLINE
  5
137
100
AcDbEntity
  8
views
  6
ByLayer
 62
    0
370
   -1
100
AcDbPolyline
 90
    2
 70
    0
 43
0
 10
43.760809475
 20
-73.12
 10
41.1045134527
 20
-75.87
  0
LINE
  5
138
100
AcDbEntity
  8
views
  6
ByLayer
 62
    0
370
   -1
100
AcDbLine
 10
93.5426563585
 20
-81.37
 11
93.5426563585
 21
-70.861284973
  0
LINE
  5
139
100
AcDbEntity
  8
views
  6
ByLayer
 62
    0
370
   -1
100
AcDbLine
 10
42.5206954383
 20
-70.0305687076
 11
91.9563359016
 21
-70.0305687076
  0
LWPOLYLINE
  5
13A
100
AcDbEntity
  8
views
  6
ByLayer
 62
    0
370
   -1
100
AcDbPolyline
 90
    3
 70
    0
 43
0
 10
79.5367318773
 20
-75.87
 10
80.80984093710001
 20
-79.0519805153
 10
83.8833980956
 20
-80.37
  0
LWPOLYLINE
  5
13B
100
AcDbEntity
  8
views
  6
ByLayer
 62
    0
370
   -1
100
AcDbPolyline
 90
    4
 70
    0
 43
0
 10
83.8833980956
 20
-80.37
 10
87.6477214625
 20
-78.12
 10
87.6477214625
 20
-73.62
 10
83.8833980956
 20
-71.37
  0
LWPOLYLINE
  5
13C
100
AcDbEntity
  8
views
  6
ByLayer
 62
    0
370
   -1
100
AcDbPolyline
 90
    3
 70
    0
 43
0
 10
83.8833980956
 20
-71.37
 10
80.80984093710001
 20
-72.68801948470001
 10
79.5367318773
 20
-75.87
  0
LWPOLYLINE
  5
13D
100
AcDbEntity
  8
views
  6
ByLayer
 62
    0
370
   -1
100
AcDbPolyline
 90
    3
 70
    0
 43
0
 10
45.7293279572
 20
-75.87
 10
47.002437017
 20
-79.0519805153
 10
50.0759941755
 20
-80.37
  0
LWPOLYLINE
  5
13E
100
AcDbEntity
  8
views
  6
ByLayer
 62
    0
370
   -1
100
AcDbPolyline
 90
    4
 70
    0
 43
0
 10
50.0759941755
 20
-80.37
 10
53.8403175423
 20
-78.12
 10
53.8403175423
 20
-73.62
 10
50.0759941755
 20
-71.37
  0
LWPOLYLINE
  5
13F
100
AcDbEntity
  8
views
  6
ByLayer
 62
    0
370
   -1
100
AcDbPolyline
 90
    3
 70
    0
 43
0
 10
50.0759941755
 20
-71.37
 10
47.002437017
 20
-72.68801948470001
 10
45.7293279572
 20
-75.87
  0
LWPOLYLINE
  5
140
100
AcDbEntity
  8
views
  6
ByLayer
 62
    0
370
   -1
100
AcDbPolyline
 90
    2
 70
    0
 43
0
 10
64.9512519004
 20
-75.87
 10
66.97969613559999
 20
-77.97
  0
LWPOLYLINE
  5
141
100
AcDbEntity
  8
views
  6
ByLayer
 62
    0
370
   -1
100
AcDbPolyline
 90
    3
 70
    0
 43
0
 10
66.97969613559999
 20
-77.97
 10
69.00814037080001
 20
-75.87
 10
66.97969613559999
 20
-73.77
  0
LWPOLYLINE
  5
142
100
AcDbEntity
  8
views
  6
ByLayer
 62
    0
370
   -1
100
AcDbPolyline
 90
    2
 70
    0
 43
0
 10
66.97969613559999
 20
-73.77
 10
64.9512519004
 20
-75.87
  0
LWPOLYLINE
  5
143
100
AcDbEntity
  8
views
  6
ByLayer
 62
    0
370
   -1
100
AcDbPolyline
 90
    3
 70
    0
 43
0
 10
93.5426563585
 20
-70.8612828035
 10
90.8575334988
 20
-69.2985938333
 10
88.5581632736
 20
-67.2093886837
  0
LINE
  5
144
100
AcDbEntity
  8
views
  6
ByLayer
 62
    0
370
   -1
100
AcDbLine
 10
88.5581632736
 20
-47.5306113163
 11
88.5581632736
 21
-47.5306135654
  0
LWPOLYLINE
  5
145
100
AcDbEntity
  8
views
  6
ByLayer
 62
    0
370
   -1
100
AcDbPolyline
 90
    3
 70
    0
 43
0
 10
88.5581632736
 20
-47.5306113163
 10
90.8575334988
 20
-45.4414061667
 10
93.5426563585
 20
-43.8787171965
  0
LINE
  5
146
100
AcDbEntity
  8
views
  6
ByLayer
 62
    0
370
   -1
100
AcDbLine
 10
93.5426563585
 20
-43.8787171965
 11
93.5426563585
 21
-33.3700054239
  0
LINE
  5
147
100
AcDbEntity
  8
views
  6
ByLayer
 62
    0
370
   -1
100
AcDbLine
 10
87.227471658
 20
-33.37
 11
93.5426563585
 21
-33.37
  0
LWPOLYLINE
  5
148
100
AcDbEntity
  8
views
  6
ByLayer
 62
    0
370
   -1
100
AcDbPolyline
 90
    2
 70
    0
 43
0
 10
79.6741878027
 20
-75.87
 10
82.330483825
 20
-78.62
  0
LWPOLYLINE
  5
149
100
AcDbEntity
  8
views
  6
ByLayer
 62
    0
370
   -1
100
AcDbPolyline
 90
    3
 70
    0
 43
0
 10
82.330483825
 20
-78.62
 10
84.9867798473
 20
-75.87
 10
82.330483825
 20
-73.12
  0
LWPOLYLINE
  5
14A
100
AcDbEntity
  8
views
  6
ByLayer
 62
    0
370
   -1
100
AcDbPolyline
 90
    2
 70
    0
 43
0
 10
82.330483825
 20
-73.12
 10
79.6741878027
 20
-75.87
  0
LWPOLYLINE
  5
14B
100
AcDbEntity
  8
views
  6
ByLayer
 62
    0
370
   -1
100
AcDbPolyline
 90
    2
 70
    0
 43
0
 10
64.9512519004
 20
-38.87
 10
66.97969613559999
 20
-36.77
  0
LWPOLYLINE
  5
14C
100
AcDbEntity
  8
views
  6
ByLayer
 62
    0
370
   -1
100
AcDbPolyline
 90
    3
 70
    0
 43
0
 10
66.97969613559999
 20
-36.77
 10
69.00814037080001
 20
-38.87
 10
66.97969613559999
 20
-40.97
  0
LWPOLYLINE
  5
14D
100
AcDbEntity
  8
views
  6
ByLayer
 62
    0
370
   -1
100
AcDbPolyline
 90
    2
 70
    0
 43
0
 10
66.97969613559999
 20
-40.97
 10
64.9512519004
 20
-38.87
  0
LWPOLYLINE
  5
14E
100
AcDbEntity
  8
views
  6
ByLayer
 62
    0
370
   -1
100
AcDbPolyline
 90
    2
 70
    0
 43
0
 10
79.6741878027
 20
-38.87
 10
82.330483825
 20
-41.62
  0
LWPOLYLINE
  5
14F
100
AcDbEntity
  8
views
  6
ByLayer
 62
    0
370
   -1
100
AcDbPolyline
 90
    3
 70
    0
 43
0
 10
82.330483825
 20
-41.62
 10
84.9867798473
 20
-38.87
 10
82.330483825
 20
-36.12
  0
LWPOLYLINE
  5
150
100
AcDbEntity
  8
views
  6
ByLayer
 62
    0
370
   -1
100
AcDbPolyline
 90
    2
 70
    0
 43
0
 10
82.330483825
 20
-36.12
 10
79.6741878027
 20
-38.87
  0
LWPOLYLINE
  5
151
100
AcDbEntity
  8
views
  6
ByLayer
 62
    0
370
   -1
100
AcDbPolyline
 90
    2
 70
    0
 43
0
 10
45.8667838826
 20
-38.87
 10
48.5230799049
 20
-41.62
  0
LWPOLYLINE
  5
152
100
AcDbEntity
  8
views
  6
ByLayer
 62
    0
370
   -1
100
AcDbPolyline
 90
    3
 70
    0
 43
0
 10
48.5230799049
 20
-41.62
 10
51.1793759272
 20
-38.87
 10
48.5230799049
 20
-36.12
  0
LWPOLYLINE
  5
153
100
AcDbEntity
  8
views
  6
ByLayer
 62
    0
370
   -1
100
AcDbPolyline
 90
    2
 70
    0
 43
0
 10
48.5230799049
 20
-36.12
 10
45.8667838826
 20
-38.87
  0
LWPOLYLINE
  5
154
100
AcDbEntity
  8
views
  6
ByLayer
 62
    0
370
   -1
100
AcDbPolyline
 90
    2
 70
    0
 43
0
 10
45.8667838826
 20
-75.87
 10
48.5230799049
 20
-78.62
  0
LWPOLYLINE
  5
155
100
AcDbEntity
  8
views
  6
ByLayer
 62
    0
370
   -1
100
AcDbPolyline
 90
    3
 70
    0
 43
0
 10
48.5230799049
 20
-78.62
 10
51.1793759272
 20
-75.87
 10
48.5230799049
 20
-73.12
  0
LWPOLYLINE
  5
156
100
AcDbEntity
  8
views
  6
ByLayer
 62
    0
370
   -1
100
AcDbPolyline
 90
    2
 70
    0
 43
0
 10
48.5230799049
 20
-73.12
 10
45.8667838826
 20
-75.87
  0
LWPOLYLINE
  5
157
100
AcDbEntity
  8
views
  6
ByLayer
 62
    0
370
   -1
100
AcDbPolyline
 90
    2
 70
    0
 43
0
 10
93.5426563585
 20
-43.8787171965
 10
91.9563395501
 20
-44.7094312854
  0
LINE
  5
158
100
AcDbEntity
  8
views
  6
ByLayer
 62
    0
370
   -1
100
AcDbLine
 10
42.520690815
 20
-44.7094312924
 11
91.9563395496
 21
-44.7094312924
  0
LWPOLYLINE
  5
159
100
AcDbEntity
  8
views
  6
ByLayer
 62
    0
370
   -1
100
AcDbPolyline
 90
    2
 70
    0
 43
0
 10
42.520690838
 20
-44.7094313015
 10
40.9343740028
 20
-43.8787171965
  0
LWPOLYLINE
  5
15A
100
AcDbEntity
  8
views
  6
ByLayer
 62
    0
370
   -1
100
AcDbPolyline
 90
    3
 70
    0
 43
0
 10
79.5367318773
 20
-38.87
 10
80.80984093710001
 20
-35.6880194847
 10
83.8833980956
 20
-34.37
  0
LWPOLYLINE
  5
15B
100
AcDbEntity
  8
views
  6
ByLayer
 62
    0
370
   -1
100
AcDbPolyline
 90
    4
 70
    0
 43
0
 10
83.8833980956
 20
-34.37
 10
87.6477214625
 20
-36.62
 10
87.6477214625
 20
-41.12
 10
83.8833980956
 20
-43.37
  0
LWPOLYLINE
  5
15C
100
AcDbEntity
  8
views
  6
ByLayer
 62
    0
370
   -1
100
AcDbPolyline
 90
    3
 70
    0
 43
0
 10
83.8833980956
 20
-43.37
 10
80.80984093710001
 20
-42.0519805153
 10
79.5367318773
 20
-38.87
  0
LWPOLYLINE
  5
15D
100
AcDbEntity
  8
views
  6
ByLayer
 62
    0
370
   -1
100
AcDbPolyline
 90
    3
 70
    0
 43
0
 10
45.7293279572
 20
-38.87
 10
47.002437017
 20
-35.6880194847
 10
50.0759941755
 20
-34.37
  0
LWPOLYLINE
  5
15E
100
AcDbEntity
  8
views
  6
ByLayer
 62
    0
370
   -1
100
AcDbPolyline
 90
    4
 70
    0
 43
0
 10
50.0759941755
 20
-34.37
 10
53.8403175423
 20
-36.62
 10
53.8403175423
 20
-41.12
 10
50.0759941755
 20
-43.37
  0
LWPOLYLINE
  5
15F
100
AcDbEntity
  8
views
  6
ByLayer
 62
    0
370
   -1
100
AcDbPolyline
 90
    3
 70
    0
 43
0
 10
50.0759941755
 20
-43.37
 10
47.002437017
 20
-42.0519805153
 10
45.7293279572
 20
-38.87
  0
ARC
  5
160
100
AcDbEntity
  8
views
  6
ByLayer
 62
    0
370
   -1
100
AcDbCircle
 10
34.88
 20
-57.37
 40
14.7875
100
AcDbArc
 50
-0
 51
87.0648189155
  0
LWPOLYLINE
  5
161
100
AcDbEntity
  8
views
  6
ByLayer
 62
    0
370
   -1
100
AcDbPolyline
 90
    5
 70
    0
 43
0
 10
49.6675
 20
-57.37
 10
48.1871917891
 20
-50.9210618102
 10
46.0155745205
 20
-47.640193403
 10
43.9271979854
 20
-45.6730617289
 10
42.520690815
 20
-44.7094313424
  0
ARC
  5
162
100
AcDbEntity
  8
views
  6
ByLayer
 62
    0
370
   -1
100
AcDbCircle
 10
34.88
 20
-57.37
 40
14.7875
100
AcDbArc
 50
-87.0648189155
 51
-29.6031509506
  0
ARC
  5
163
100
AcDbEntity
  8
views
  6
ByLayer
 62
    0
370
   -1
100
AcDbCircle
 10
34.88
 20
-57.37
 40
14.7875
100
AcDbArc
 50
-8.40869523685e-06
 51
-0
  0
ARC
  5
164
100
AcDbEntity
  8
views
  6
ByLayer
 62
    0
370
   -1
100
AcDbCircle
 10
99.5970303614
 20
-57.37
 40
14.7875
100
AcDbArc
 50
138.288090173
 51
-138.288090173
  0
LWPOLYLINE
  5
165
100
AcDbEntity
  8
views
  6
ByLayer
 62
    0
370
   -1
100
AcDbPolyline
 90
    7
 70
    0
 43
0
 10
90.6332851671
 20
-69.1310130769
 10
88.0176837055
 20
-66.56722171280001
 10
85.5567286831
 20
-62.0111296916
 10
85.1397577043
 20
-54.2623604295
 10
87.41561269269999
 20
-48.9864911983
 10
90.11060288349999
 20
-46.0263740339
 10
91.9563395496
 20
-44.7094312844
  0
LWPOLYLINE
  5
166
100
AcDbEntity
  8
views
  6
ByLayer
 62
    0
370
   -1
100
AcDbPolyline
 90
    3
 70
    0
 43
0
 10
77.9838176067
 20
-75.87
 10
79.25692666649999
 20
-79.0519805153
 10
82.330483825
 20
-80.37
  0
LWPOLYLINE
  5
167
100
AcDbEntity
  8
views
  6
ByLayer
 62
    0
370
   -1
100
AcDbPolyline
 90
    4
 70
    0
 43
0
 10
82.330483825
 20
-80.37
 10
86.0948071918
 20
-78.12
 10
86.0948071918
 20
-73.62
 10
82.330483825
 20
-71.37
  0
LWPOLYLINE
  5
168
100
AcDbEntity
  8
views
  6
ByLayer
 62
    0
370
   -1
100
AcDbPolyline
 90
    3
 70
    0
 43
0
 10
82.330483825
 20
-71.37
 10
79.25692666649999
 20
-72.68801948470001
 10
77.9838176067
 20
-75.87
  0
LWPOLYLINE
  5
169
100
AcDbEntity
  8
views
  6
ByLayer
 62
    0
370
   -1
100
AcDbPolyline
 90
    3
 70
    0
 43
0
 10
44.1764136866
 20
-75.87
 10
45.4495227464
 20
-79.0519805153
 10
48.5230799049
 20
-80.37
  0
LWPOLYLINE
  5
16A
100
AcDbEntity
  8
views
  6
ByLayer
 62
    0
370
   -1
100
AcDbPolyline
 90
    4
 70
    0
 43
0
 10
48.5230799049
 20
-80.37
 10
52.2874032717
 20
-78.12
 10
52.2874032717
 20
-73.62
 10
48.5230799049
 20
-71.37
  0
LWPOLYLINE
  5
16B
100
AcDbEntity
  8
views
  6
ByLayer
 62
    0
370
   -1
100
AcDbPolyline
 90
    3
 70
    0
 43
0
 10
48.5230799049
 20
-71.37
 10
45.4495227464
 20
-72.68801948470001
 10
44.1764136866
 20
-75.87
  0
LWPOLYLINE
  5
16C
100
AcDbEntity
  8
views
  6
ByLayer
 62
    0
370
   -1
100
AcDbPolyline
 90
    3
 70
    0
 43
0
 10
77.9838176067
 20
-38.87
 10
79.25692666649999
 20
-35.6880194847
 10
82.330483825
 20
-34.37
  0
LWPOLYLINE
  5
16D
100
AcDbEntity
  8
views
  6
ByLayer
 62
    0
370
   -1
100
AcDbPolyline
 90
    4
 70
    0
 43
0
 10
82.330483825
 20
-34.37
 10
86.0948071918
 20
-36.62
 10
86.0948071918
 20
-41.12
 10
82.330483825
 20
-43.37
  0
LWPOLYLINE
  5
16E
100
AcDbEntity
  8
views
  6
ByLayer
 62
    0
370
   -1
100
AcDbPolyline
 90
    3
 70
    0
 43
0
 10
82.330483825
 20
-43.37
 10
79.25692666649999
 20
-42.0519805153
 10
77.9838176067
 20
-38.87
  0
LWPOLYLINE
  5
16F
100
AcDbEntity
  8
views
  6
ByLayer
 62
    0
370
   -1
100
AcDbPolyline
 90
    3
 70
    0
 43
0
 10
44.1764136866
 20
-38.87
 10
45.4495227464
 20
-35.6880194847
 10
48.5230799049
 20
-34.37
  0
LWPOLYLINE
  5
170
100
AcDbEntity
  8
views
  6
ByLayer
 62
    0
370
   -1
100
AcDbPolyline
 90
    4
 70
    0
 43
0
 10
48.5230799049
 20
-34.37
 10
52.2874032717
 20
-36.62
 10
52.2874032717
 20
-41.12
 10
48.5230799049
 20
-43.37
  0
LWPOLYLINE
  5
171
100
AcDbEntity
  8
views
  6
ByLayer
 62
    0
370
   -1
100
AcDbPolyline
 90
    3
 70
    0
 43
0
 10
48.5230799049
 20
-43.37
 10
45.4495227464
 20
-42.0519805153
 10
44.1764136866
 20
-38.87
  0
LINE
  5
172
100
AcDbEntity
  8
views
  6
ByLayer
 62
    0
370
   -1
100
AcDbLine
 10
94.06029444870001
 20
-33.3700016391
 11
40.9343740028
 21
-33.3700037603
  0
LINE
  5
173
100
AcDbEntity
  8
views
  6
ByLayer
 62
    0
370
   -1
100
AcDbLine
 10
94.06029444870001
 20
-33.3700016391
 11
100.375479149
 21
-33.3700051511
  0
LWPOLYLINE
  5
174
100
AcDbEntity
  8
views
  6
ByLayer
 62
    0
370
   -1
100
AcDbPolyline
 90
    2
 70
    0
 43
0
 10
40.9343740028
 20
-43.8787194527
 10
42.5206920963
 20
-44.7094342791
  0
LINE
  5
175
100
AcDbEntity
  8
views
  6
ByLayer
 62
    0
370
   -1
100
AcDbLine
 10
42.5206920967
 20
-44.7094342831
 11
91.95633898059999
 21
-44.7094323092
  0
LWPOLYLINE
  5
176
100
AcDbEntity
  8
views
  6
ByLayer
 62
    0
370
   -1
100
AcDbPolyline
 90
    2
 70
    0
 43
0
 10
91.9563389815
 20
-44.7094323178
 10
94.06029444870001
 20
-43.6581549854
  0
LINE
  5
177
100
AcDbEntity
  8
views
  6
ByLayer
 62
    0
370
   -1
100
AcDbLine
 10
94.06029444870001
 20
-43.6581549854
 11
94.06029444870001
 21
-33.3700016391
  0
LWPOLYLINE
  5
178
100
AcDbEntity
  8
views
  6
ByLayer
 62
    0
370
   -1
100
AcDbPolyline
 90
    2
 70
    0
 43
0
 10
69.87847011860001
 20
-37.651143322
 10
67.4973357551
 20
-36.1200026997
  0
LWPOLYLINE
  5
179
100
AcDbEntity
  8
views
  6
ByLayer
 62
    0
370
   -1
100
AcDbPolyline
 90
    3
 70
    0
 43
0
 10
67.4973357551
 20
-36.1200026997
 10
64.84103820350001
 20
-38.8700012225
 10
67.49733269639999
 20
-41.6200026997
  0
LWPOLYLINE
  5
17A
100
AcDbEntity
  8
views
  6
ByLayer
 62
    0
370
   -1
100
AcDbPolyline
 90
    2
 70
    0
 43
0
 10
67.49733269639999
 20
-41.6200026997
 10
69.8784687629
 20
-40.0888647257
  0
LWPOLYLINE
  5
17B
100
AcDbEntity
  8
views
  6
ByLayer
 62
    0
370
   -1
100
AcDbPolyline
 90
    3
 70
    0
 43
0
 10
94.06029444870001
 20
-43.6581549854
 10
97.1600938221
 20
-42.7846835031
 10
100.375479149
 20
-42.6030059632
  0
LWPOLYLINE
  5
17C
100
AcDbEntity
  8
views
  6
ByLayer
 62
    0
370
   -1
100
AcDbPolyline
 90
    8
 70
    0
 43
0
 10
42.5206920967
 20
-44.7094342784
 10
44.2684871624
 20
-45.9451846582
 10
46.8513236016
 20
-48.6891292165
 10
49.1408231971
 20
-53.4585996279
 10
49.1943128422
 20
-61.0808795074
 10
46.9056729027
 20
-65.9754283539
 10
44.2937254678
 20
-68.7740338599
 10
42.5206895364
 20
-70.0305717025
  0
LWPOLYLINE
  5
17D
100
AcDbEntity
  8
views
  6
ByLayer
 62
    0
370
   -1
100
AcDbPolyline
 90
    2
 70
    0
 43
0
 10
42.5206895363
 20
-70.03057170220001
 10
40.9343740028
 20
-70.86128505969999
  0
LWPOLYLINE
  5
17E
100
AcDbEntity
  8
views
  6
ByLayer
 62
    0
370
   -1
100
AcDbPolyline
 90
    5
 70
    0
 43
0
 10
91.95633898059999
 20
-44.7094323162
 10
90.56590115669999
 20
-45.6606516257
 10
88.4781235601
 20
-47.6211516158
 10
86.3058430143
 20
-50.8881424494
 10
84.80953036139999
 20
-57.3700015179
  0
LWPOLYLINE
  5
17F
100
AcDbEntity
  8
views
  6
ByLayer
 62
    0
370
   -1
100
AcDbPolyline
 90
    5
 70
    0
 43
0
 10
84.80953036139999
 20
-57.3700015179
 10
86.2895206939
 20
-63.8182836095
 10
88.4612259851
 20
-67.0995447064
 10
90.549576835
 20
-69.0667415665
 10
91.9563400823
 20
-70.030569727
  0
LINE
  5
180
100
AcDbEntity
  8
views
  6
ByLayer
 62
    0
370
   -1
100
AcDbLine
 10
42.5206895364
 20
-70.03057169829999
 11
91.9563400823
 21
-70.0305697244
  0
LINE
  5
181
100
AcDbEntity
  8
views
  6
ByLayer
 62
    0
370
   -1
100
AcDbLine
 10
84.80953036139999
 20
-57.3700015254
 11
84.80953036139999
 21
-57.370002309
  0
LINE
  5
182
100
AcDbEntity
  8
views
  6
ByLayer
 62
    0
370
   -1
100
AcDbLine
 10
40.9343740028
 20
-81.37000376029999
 11
94.06029444870001
 21
-81.3700016391
  0
LINE
  5
183
100
AcDbEntity
  8
views
  6
ByLayer
 62
    0
370
   -1
100
AcDbLine
 10
94.06029444870001
 20
-81.3700016391
 11
100.375479149
 21
-81.3700051511
  0
LWPOLYLINE
  5
184
100
AcDbEntity
  8
views
  6
ByLayer
 62
    0
370
   -1
100
AcDbPolyline
 90
    3
 70
    0
 43
0
 10
100.375479149
 20
-72.1369981576
 10
97.1600938221
 20
-71.9553191872
 10
94.06029444870001
 20
-71.0818463258
  0
LINE
  5
185
100
AcDbEntity
  8
views
  6
ByLayer
 62
    0
370
   -1
100
AcDbLine
 10
94.06029444870001
 20
-81.3700016391
 11
94.06029444870001
 21
-71.0818463258
  0
LWPOLYLINE
  5
186
100
AcDbEntity
  8
views
  6
ByLayer
 62
    0
370
   -1
100
AcDbPolyline
 90
    2
 70
    0
 43
0
 10
94.06029444870001
 20
-71.0818463258
 10
91.9563400831
 20
-70.0305697255
  0
LWPOLYLINE
  5
187
100
AcDbEntity
  8
views
  6
ByLayer
 62
    0
370
   -1
100
AcDbPolyline
 90
    2
 70
    0
 43
0
 10
73.0360642533
 20
-34.4423846271
 10
72.2596071582
 20
-34.3700053481
  0
LWPOLYLINE
  5
188
100
AcDbEntity
  8
views
  6
ByLayer
 62
    0
370
   -1
100
AcDbPolyline
 90
    4
 70
    0
 43
0
 10
72.2596071582
 20
-34.3700053481
 10
68.49528254010001
 20
-36.6200032547
 10
68.4952800376
 20
-41.1200032547
 10
72.2596021531
 20
-43.3700053481
  0
LWPOLYLINE
  5
189
100
AcDbEntity
  8
views
  6
ByLayer
 62
    0
370
   -1
100
AcDbPolyline
 90
    2
 70
    0
 43
0
 10
72.2596021531
 20
-43.3700053481
 10
73.03605932870001
 20
-43.2976269326
  0
LWPOLYLINE
  5
18A
100
AcDbEntity
  8
views
  6
ByLayer
 62
    0
370
   -1
100
AcDbPolyline
 90
    2
 70
    0
 43
0
 10
73.03605932870001
 20
-80.2976269326
 10
72.2596021531
 20
-80.37000534809999
  0
LWPOLYLINE
  5
18B
100
AcDbEntity
  8
views
  6
ByLayer
 62
    0
370
   -1
100
AcDbPolyline
 90
    4
 70
    0
 43
0
 10
72.2596021531
 20
-80.37000534809999
 10
68.4952800376
 20
-78.12000325469999
 10
68.49528254010001
 20
-73.62000325469999
 10
72.2596071582
 20
-71.37000534809999
  0
LWPOLYLINE
  5
18C
100
AcDbEntity
  8
views
  6
ByLayer
 62
    0
370
   -1
100
AcDbPolyline
 90
    2
 70
    0
 43
0
 10
72.2596071582
 20
-71.37000534809999
 10
73.0360642533
 20
-71.4423846271
  0
LWPOLYLINE
  5
18D
100
AcDbEntity
  8
views
  6
ByLayer
 62
    0
370
   -1
100
AcDbPolyline
 90
    2
 70
    0
 43
0
 10
69.87847011860001
 20
-74.651143322
 10
67.4973357551
 20
-73.1200026997
  0
LWPOLYLINE
  5
18E
100
AcDbEntity
  8
views
  6
ByLayer
 62
    0
370
   -1
100
AcDbPolyline
 90
    3
 70
    0
 43
0
 10
67.4973357551
 20
-73.1200026997
 10
64.84103820350001
 20
-75.87000122249999
 10
67.49733269639999
 20
-78.6200026997
  0
LWPOLYLINE
  5
18F
100
AcDbEntity
  8
views
  6
ByLayer
 62
    0
370
   -1
100
AcDbPolyline
 90
    2
 70
    0
 43
0
 10
67.49733269639999
 20
-78.6200026997
 10
69.8784687629
 20
-77.08886472570001
  0
LINE
  5
190
100
AcDbEntity
  8
views
  6
ByLayer
 62
    0
370
   -1
100
AcDbLine
 10
75.5397691599
 20
-75.87
 11
72.0120836042
 21
-75.87
  0
LINE
  5
191
100
AcDbEntity
  8
views
  6
ByLayer
 62
    0
370
   -1
100
AcDbLine
 10
75.5397691599
 20
-38.87
 11
72.0120836042
 21
-38.87
  0
LINE
  5
192
100
AcDbEntity
  8
views
  6
ByLayer
 62
    0
370
   -1
100
AcDbLine
 10
41.7323652398
 20
-38.87
 11
35.7774172899
 21
-38.87
  0
LINE
  5
193
100
AcDbEntity
  8
views
  6
ByLayer
 62
    0
370
   -1
100
AcDbLine
 10
41.7323652398
 20
-75.87
 11
35.7774172899
 21
-75.87
  0
LINE
  5
194
100
AcDbEntity
  8
views
  6
ByLayer
 62
    0
370
   -1
100
AcDbLine
 10
79.6741878027
 20
-75.87
 11
74.9119173728
 21
-75.87
  0
LINE
  5
195
100
AcDbEntity
  8
views
  6
ByLayer
 62
    0
370
   -1
100
AcDbLine
 10
64.9512519004
 20
-75.87
 11
58.6360671999
 21
-75.87
  0
LINE
  5
196
100
AcDbEntity
  8
views
  6
ByLayer
 62
    0
370
   -1
100
AcDbLine
 10
64.9512519004
 20
-38.87
 11
58.6360671999
 21
-38.87
  0
LINE
  5
197
100
AcDbEntity
  8
views
  6
ByLayer
 62
    0
370
   -1
100
AcDbLine
 10
79.6741878027
 20
-38.87
 11
74.9119173728
 21
-38.87
  0
LINE
  5
198
100
AcDbEntity
  8
views
  6
ByLayer
 62
    0
370
   -1
100
AcDbLine
 10
45.8667838826
 20
-38.87
 11
41.1045134527
 21
-38.87
  0
LINE
  5
199
100
AcDbEntity
  8
views
  6
ByLayer
 62
    0
370
   -1
100
AcDbLine
 10
45.8667838826
 20
-75.87
 11
41.1045134527
 21
-75.87
  0
LINE
  5
19A
100
AcDbEntity
  8
views
  6
ByLayer
 62
    0
370
   -1
100
AcDbLine
 10
79.5367318773
 20
-75.87
 11
77.9838176067
 21
-75.87
  0
LINE
  5
19B
100
AcDbEntity
  8
views
  6
ByLayer
 62
    0
370
   -1
100
AcDbLine
 10
45.7293279572
 20
-75.87
 11
44.1764136866
 21
-75.87
  0
LINE
  5
19C
100
AcDbEntity
  8
views
  6
ByLayer
 62
    0
370
   -1
100
AcDbLine
 10
79.5367318773
 20
-38.87
 11
77.9838176067
 21
-38.87
  0
LINE
  5
19D
100
AcDbEntity
  8
views
  6
ByLayer
 62
    0
370
   -1
100
AcDbLine
 10
45.7293279572
 20
-38.87
 11
44.1764136866
 21
-38.87
  0
LINE
  5
19E
100
AcDbEntity
  8
views
  6
ByLayer
 62
    0
370
   -1
100
AcDbLine
 10
74.1861635831
 20
-77.97
 11
77.5682133951
 21
-77.97
  0
LINE
  5
19F
100
AcDbEntity
  8
views
  6
ByLayer
 62
    0
370
   -1
100
AcDbLine
 10
74.1861635832
 20
-73.77
 11
77.5682133951
 21
-73.77
  0
LINE
  5
1A0
100
AcDbEntity
  8
views
  6
ByLayer
 62
    0
370
   -1
100
AcDbLine
 10
74.1861635831
 20
-40.97
 11
77.5682133951
 21
-40.97
  0
LINE
  5
1A1
100
AcDbEntity
  8
views
  6
ByLayer
 62
    0
370
   -1
100
AcDbLine
 10
74.1861635831
 20
-36.77
 11
77.5682133951
 21
-36.77
  0
LINE
  5
1A2
100
AcDbEntity
  8
views
  6
ByLayer
 62
    0
370
   -1
100
AcDbLine
 10
37.9514972688
 20
-40.97
 11
43.760809475
 21
-40.97
  0
LINE
  5
1A3
100
AcDbEntity
  8
views
  6
ByLayer
 62
    0
370
   -1
100
AcDbLine
 10
37.9514972688
 20
-36.77
 11
43.760809475
 21
-36.77
  0
LINE
  5
1A4
100
AcDbEntity
  8
views
  6
ByLayer
 62
    0
370
   -1
100
AcDbLine
 10
37.9514972688
 20
-77.97
 11
43.760809475
 21
-77.97
  0
LINE
  5
1A5
100
AcDbEntity
  8
views
  6
ByLayer
 62
    0
370
   -1
100
AcDbLine
 10
37.9514972688
 20
-73.77
 11
43.760809475
 21
-73.77
  0
LINE
  5
1A6
100
AcDbEntity
  8
views
  6
ByLayer
 62
    0
370
   -1
100
AcDbLine
 10
77.5682133951
 20
-78.62
 11
82.330483825
 21
-78.62
  0
LINE
  5
1A7
100
AcDbEntity
  8
views
  6
ByLayer
 62
    0
370
   -1
100
AcDbLine
 10
77.5682133951
 20
-73.12
 11
82.330483825
 21
-73.12
  0
LINE
  5
1A8
100
AcDbEntity
  8
views
  6
ByLayer
 62
    0
370
   -1
100
AcDbLine
 10
60.6645114351
 20
-77.97
 11
66.97969613559999
 21
-77.97
  0
LINE
  5
1A9
100
AcDbEntity
  8
views
  6
ByLayer
 62
    0
370
   -1
100
AcDbLine
 10
60.6645114351
 20
-73.77
 11
66.97969613559999
 21
-73.77
  0
LINE
  5
1AA
100
AcDbEntity
  8
views
  6
ByLayer
 62
    0
370
   -1
100
AcDbLine
 10
60.6645114351
 20
-40.97
 11
66.97969613559999
 21
-40.97
  0
LINE
  5
1AB
100
AcDbEntity
  8
views
  6
ByLayer
 62
    0
370
   -1
100
AcDbLine
 10
60.6645114351
 20
-36.77
 11
66.97969613559999
 21
-36.77
  0
LINE
  5
1AC
100
AcDbEntity
  8
views
  6
ByLayer
 62
    0
370
   -1
100
AcDbLine
 10
77.5682133951
 20
-41.62
 11
82.330483825
 21
-41.62
  0
LINE
  5
1AD
100
AcDbEntity
  8
views
  6
ByLayer
 62
    0
370
   -1
100
AcDbLine
 10
77.5682133951
 20
-36.12
 11
82.330483825
 21
-36.12
  0
LINE
  5
1AE
100
AcDbEntity
  8
views
  6
ByLayer
 62
    0
370
   -1
100
AcDbLine
 10
43.760809475
 20
-41.62
 11
48.5230799049
 21
-41.62
  0
LINE
  5
1AF
100
AcDbEntity
  8
views
  6
ByLayer
 62
    0
370
   -1
100
AcDbLine
 10
43.760809475
 20
-36.12
 11
48.5230799049
 21
-36.12
  0
LINE
  5
1B0
100
AcDbEntity
  8
views
  6
ByLayer
 62
    0
370
   -1
100
AcDbLine
 10
43.760809475
 20
-78.62
 11
48.5230799049
 21
-78.62
  0
LINE
  5
1B1
100
AcDbEntity
  8
views
  6
ByLayer
 62
    0
370
   -1
100
AcDbLine
 10
43.760809475
 20
-73.12
 11
48.5230799049
 21
-73.12
  0
LINE
  5
1B2
100
AcDbEntity
  8
views
  6
ByLayer
 62
    0
370
   -1
100
AcDbLine
 10
82.330483825
 20
-80.37
 11
83.8833980956
 21
-80.37
  0
LINE
  5
1B3
100
AcDbEntity
  8
views
  6
ByLayer
 62
    0
370
   -1
100
AcDbLine
 10
82.330483825
 20
-71.37
 11
83.8833980956
 21
-71.37
  0
LINE
  5
1B4
100
AcDbEntity
  8
views
  6
ByLayer
 62
    0
370
   -1
100
AcDbLine
 10
48.5230799049
 20
-80.37
 11
50.0759941755
 21
-80.37
  0
LINE
  5
1B5
100
AcDbEntity
  8
views
  6
ByLayer
 62
    0
370
   -1
100
AcDbLine
 10
48.5230799049
 20
-71.37
 11
50.0759941755
 21
-71.37
  0
LINE
  5
1B6
100
AcDbEntity
  8
views
  6
ByLayer
 62
    0
370
   -1
100
AcDbLine
 10
82.330483825
 20
-43.37
 11
83.8833980956
 21
-43.37
  0
LINE
  5
1B7
100
AcDbEntity
  8
views
  6
ByLayer
 62
    0
370
   -1
100
AcDbLine
 10
82.330483825
 20
-34.37
 11
83.8833980956
 21
-34.37
  0
LINE
  5
1B8
100
AcDbEntity
  8
views
  6
ByLayer
 62
    0
370
   -1
100
AcDbLine
 10
48.5230799049
 20
-43.37
 11
50.0759941755
 21
-43.37
  0
LINE
  5
1B9
100
AcDbEntity
  8
views
  6
ByLayer
 62
    0
370
   -1
100
AcDbLine
 10
48.5230799049
 20
-34.37
 11
50.0759941755
 21
-34.37
  0
LINE
  5
1BA
100
AcDbEntity
  8
views
  6
ByLayer
 62
    0
370
   -1
100
AcDbLine
 10
67.49733269639999
 20
-41.6200026997
 11
72.25960312629999
 21
-41.6200053481
  0
LINE
  5
1BB
100
AcDbEntity
  8
views
  6
ByLayer
 62
    0
370
   -1
100
AcDbLine
 10
67.4973357551
 20
-36.1200026997
 11
72.259606185
 21
-36.1200053481
  0
LINE
  5
1BC
100
AcDbEntity
  8
views
  6
ByLayer
 62
    0
370
   -1
100
AcDbLine
 10
72.2596021531
 20
-43.3700053481
 11
73.8125164237
 21
-43.3700062117
  0
LINE
  5
1BD
100
AcDbEntity
  8
views
  6
ByLayer
 62
    0
370
   -1
100
AcDbLine
 10
72.2596071582
 20
-34.3700053481
 11
73.8125214288
 21
-34.3700062117
  0
LINE
  5
1BE
100
AcDbEntity
  8
views
  6
ByLayer
 62
    0
370
   -1
100
AcDbLine
 10
72.2596021531
 20
-80.37000534809999
 11
73.8125164237
 21
-80.3700062117
  0
LINE
  5
1BF
100
AcDbEntity
  8
views
  6
ByLayer
 62
    0
370
   -1
100
AcDbLine
 10
72.2596071582
 20
-71.37000534809999
 11
73.8125214288
 21
-71.3700062117
  0
LINE
  5
1C0
100
AcDbEntity
  8
views
  6
ByLayer
 62
    0
370
   -1
100
AcDbLine
 10
67.49733269639999
 20
-78.6200026997
 11
72.25960312629999
 21
-78.62000534809999
  0
LINE
  5
1C1
100
AcDbEntity
  8
views
  6
ByLayer
 62
    0
370
   -1
100
AcDbLine
 10
67.4973357551
 20
-73.1200026997
 11
72.259606185
 21
-73.12000534809999
  0
ENDBLK
  5
53
330
51
100
AcDbEntity
  8
0
100
AcDbBlockEnd
  0
BLOCK
  5
55
330
54
100
AcDbEntity
  8
0
100
AcDbBlockBegin
  2
SHAPE2DVIEW002
 70
    0
 10
0
 20
0
  3
SHAPE2DVIEW002
  1

  0
LINE
  5
1C2
100
AcDbEntity
  8
0
  6
ByLayer
 62
    0
370
   -1
100
AcDbLine
 10
35.7964667431
 20
-113.999996429
 11
90.7964667431
 21
-113.999994308
  0
LWPOLYLINE
  5
1C3
100
AcDbEntity
  8
views
  6
ByLayer
 62
    0
370
   -1
100
AcDbPolyline
 90
    2
 70
    0
 43
0
 10
88.6182922006
 20
-125.339424987
 10
90.7964671399
 20
-124.288147654
  0
LWPOLYLINE
  5
1C4
100
AcDbEntity
  8
views
  6
ByLayer
 62
    0
370
   -1
100
AcDbPolyline
 90
    2
 70
    0
 43
0
 10
90.7964671399
 20
-124.288147654
 10
90.7964670992
 20
-123.23299512
  0
LINE
  5
1C5
100
AcDbEntity
  8
views
  6
ByLayer
 62
    0
370
   -1
100
AcDbLine
 10
90.7964667431
 20
-113.999994308
 11
90.7964670992
 21
-123.23299512
  0
LWPOLYLINE
  5
1C6
100
AcDbEntity
  8
views
  6
ByLayer
 62
    0
370
   -1
100
AcDbPolyline
 90
    5
 70
    0
 43
0
 10
35.7964673562
 20
-129.896650152
 10
37.6605531056
 20
-133.771796052
 10
38.2997046988
 20
-137.999993462
 10
37.6605534317
 20
-142.228190902
 10
35.7964679812
 20
-146.103336888
  0
LINE
  5
1C7
100
AcDbEntity
  8
views
  6
ByLayer
 62
    0
370
   -1
100
AcDbLine
 10
35.7964673562
 20
-129.896650152
 11
35.7964667431
 21
-113.999996429
  0
LINE
  5
1C8
100
AcDbEntity
  8
views
  6
ByLayer
 62
    0
370
   -1
100
AcDbLine
 10
35.7964685943
 20
-161.999996429
 11
35.7964679812
 21
-146.103336888
  0
LINE
  5
1C9
100
AcDbEntity
  8
views
  6
ByLayer
 62
    0
370
   -1
100
AcDbLine
 10
90.79646859429999
 20
-161.999994308
 11
35.7964685943
 21
-161.999996429
  0
LINE
  5
1CA
100
AcDbEntity
  8
views
  6
ByLayer
 62
    0
370
   -1
100
AcDbLine
 10
90.79646823820001
 20
-152.766987314
 11
90.79646859429999
 21
-161.999994308
  0
LWPOLYLINE
  5
1CB
100
AcDbEntity
  8
views
  6
ByLayer
 62
    0
370
   -1
100
AcDbPolyline
 90
    6
 70
    0
 43
0
 10
74.68141166309999
 20
-137.999991466
 10
75.4306947657
 20
-133.430401711
 10
77.60519934449999
 20
-129.308115406
 10
80.9920696508
 20
-126.036650824
 10
85.2597750817
 20
-123.936241848
 10
89.99056271880001
 20
-123.21249123
  0
LWPOLYLINE
  5
1CC
100
AcDbEntity
  8
views
  6
ByLayer
 62
    0
370
   -1
100
AcDbPolyline
 90
    2
 70
    0
 43
0
 10
89.99056271880001
 20
-123.21249123
 10
90.7964670992
 20
-123.23299512
  0
LWPOLYLINE
  5
1CD
100
AcDbEntity
  8
views
  6
ByLayer
 62
    0
370
   -1
100
AcDbPolyline
 90
    2
 70
    0
 43
0
 10
90.79646823820001
 20
-152.766987314
 10
89.990553643
 20
-152.78749123
  0
LWPOLYLINE
  5
1CE
100
AcDbEntity
  8
views
  6
ByLayer
 62
    0
370
   -1
100
AcDbPolyline
 90
    6
 70
    0
 43
0
 10
89.990553643
 20
-152.78749123
 10
85.25976839339999
 20
-152.063738318
 10
80.9920656144
 20
-149.963328433
 10
77.6051976129
 20
-146.691864242
 10
75.43069448679999
 20
-142.56957932
 10
74.68141166309999
 20
-137.999991466
  0
CIRCLE
  5
1CF
100
AcDbEntity
  8
views
  6
ByLayer
 62
    0
370
   -1
100
AcDbCircle
 10
63.2964669552
 20
-119.499995368
 40
4.5
  0
CIRCLE
  5
1D0
100
AcDbEntity
  8
views
  6
ByLayer
 62
    0
370
   -1
100
AcDbCircle
 10
63.2964683822
 20
-156.499995368
 40
4.5
  0
LWPOLYLINE
  5
1D1
100
AcDbEntity
  8
views
  6
ByLayer
 62
    0
370
   -1
100
AcDbPolyline
 90
    5
 70
    0
 43
0
 10
88.61829219960001
 20
-125.339424985
 10
86.1291327758
 20
-126.290643731
 10
83.1043809738
 20
-128.251143257
 10
80.1100557244
 20
-131.51813369
 10
78.084366407
 20
-137.999992503
  0
LWPOLYLINE
  5
1D2
100
AcDbEntity
  8
views
  6
ByLayer
 62
    0
370
   -1
100
AcDbPolyline
 90
    5
 70
    0
 43
0
 10
78.084366407
 20
-137.999992503
 10
80.0878366797
 20
-144.448274847
 10
83.0807063431
 20
-147.729536344
 10
86.1042164422
 20
-149.696733667
 10
88.6182943168
 20
-150.660562396
  0
CIRCLE
  5
1D3
100
AcDbEntity
  8
views
  6
ByLayer
 62
    0
370
   -1
100
AcDbCircle
 10
63.2964669552
 20
-119.499995368
 40
2.75
  0
LWPOLYLINE
  5
1D4
100
AcDbEntity
  8
views
  6
ByLayer
 62
    0
370
   -1
100
AcDbPolyline
 90
    2
 70
    0
 43
0
 10
90.79646823820001
 20
-152.766987314
 10
90.7964681975
 20
-151.711838995
  0
LWPOLYLINE
  5
1D5
100
AcDbEntity
  8
views
  6
ByLayer
 62
    0
370
   -1
100
AcDbPolyline
 90
    2
 70
    0
 43
0
 10
90.7964681975
 20
-151.711838995
 10
88.6182943176
 20
-150.660562394
  0
CIRCLE
  5
1D6
100
AcDbEntity
  8
views
  6
ByLayer
 62
    0
370
   -1
100
AcDbCircle
 10
63.2964683822
 20
-156.499995368
 40
2.75
  0
LINE
  5
1D7
100
AcDbEntity
  8
views
  6
ByLayer
 62
    0
370
   -1
100
AcDbLine
 10
35.7964685943
 20
-161.999992957
 11
35.7964676687
 21
-161.999992957
  0
LINE
  5
1D8
100
AcDbEntity
  8
views
  6
ByLayer
 62
    0
370
   -1
100
AcDbLine
 10
35.7964676687
 20
-113.999996429
 11
35.7964676687
 21
-113.999992957
  0
LINE
  5
1D9
100
AcDbEntity
  8
views
  6
ByLayer
 62
    0
370
   -1
100
AcDbLine
 10
35.7964676687
 20
-151.711838627
 11
35.7964676687
 21
-129.896650613
  0
LINE
  5
1DA
100
AcDbEntity
  8
views
  6
ByLayer
 62
    0
370
   -1
100
AcDbLine
 10
35.7964676687
 20
-161.999992957
 11
35.7964676687
 21
-151.711838627
  0
LINE
  5
1DB
100
AcDbEntity
  8
views
  6
ByLayer
 62
    0
370
   -1
100
AcDbLine
 10
90.7964676687
 20
-151.711838788
 11
90.7964676687
 21
-151.49127576
  0
LWPOLYLINE
  5
1DC
100
AcDbEntity
  8
views
  6
ByLayer
 62
    0
370
   -1
100
AcDbPolyline
 90
    2
 70
    0
 43
0
 10
89.1541916581
 20
-150.660561669
 10
90.7964676687
 20
-151.49127576
  0
LINE
  5
1DD
100
AcDbEntity
  8
views
  6
ByLayer
 62
    0
370
   -1
100
AcDbLine
 10
88.6182905805
 20
-150.660561664
 11
89.1541916578
 21
-150.660561664
  0
LWPOLYLINE
  5
1DE
100
AcDbEntity
  8
views
  6
ByLayer
 62
    0
370
   -1
100
AcDbPolyline
 90
    4
 70
    0
 43
0
 10
61.1964676687
 20
-156.499992957
 10
64.34646766900001
 20
-158.318646304
 10
64.34646766829999
 20
-154.681339609
 10
61.1964676687
 20
-156.499992957
  0
LWPOLYLINE
  5
1DF
100
AcDbEntity
  8
views
  6
ByLayer
 62
    0
370
   -1
100
AcDbPolyline
 90
    2
 70
    0
 43
0
 10
90.7964676687
 20
-151.49127576
 10
90.7964676687
 20
-147.839384412
  0
LINE
  5
1E0
100
AcDbEntity
  8
views
  6
ByLayer
 62
    0
370
   -1
100
AcDbLine
 10
90.7964676687
 20
-128.160607045
 11
90.7964676687
 21
-147.839384412
  0
LWPOLYLINE
  5
1E1
100
AcDbEntity
  8
views
  6
ByLayer
 62
    0
370
   -1
100
AcDbPolyline
 90
    2
 70
    0
 43
0
 10
90.7964676687
 20
-128.160607045
 10
90.7964676687
 20
-124.508710153
  0
LINE
  5
1E2
100
AcDbEntity
  8
views
  6
ByLayer
 62
    0
370
   -1
100
AcDbLine
 10
90.7964676687
 20
-124.508710153
 11
90.7964676687
 21
-113.999992957
  0
LINE
  5
1E3
100
AcDbEntity
  8
views
  6
ByLayer
 62
    0
370
   -1
100
AcDbLine
 10
35.7964676687
 20
-113.999992957
 11
90.7964676687
 21
-113.999992957
  0
LWPOLYLINE
  5
1E4
100
AcDbEntity
  8
views
  6
ByLayer
 62
    0
370
   -1
100
AcDbPolyline
 90
    4
 70
    0
 43
0
 10
61.1964676687
 20
-119.499992957
 10
64.34646766829999
 20
-117.681339609
 10
64.34646766900001
 20
-121.318646304
 10
61.1964676687
 20
-119.499992957
  0
LWPOLYLINE
  5
1E5
100
AcDbEntity
  8
views
  6
ByLayer
 62
    0
370
   -1
100
AcDbPolyline
 90
    2
 70
    0
 43
0
 10
90.7964676687
 20
-124.508710153
 10
89.1541916624
 20
-125.339424242
  0
LINE
  5
1E6
100
AcDbEntity
  8
views
  6
ByLayer
 62
    0
370
   -1
100
AcDbLine
 10
88.61829346579999
 20
-125.339424249
 11
89.1541916618
 21
-125.339424249
  0
LWPOLYLINE
  5
1E7
100
AcDbEntity
  8
views
  6
ByLayer
 62
    0
370
   -1
100
AcDbPolyline
 90
    6
 70
    0
 43
0
 10
90.7964676687
 20
-128.160607045
 10
88.5166925246
 20
-131.74417929
 10
87.3267051461
 20
-135.854505311
 10
87.3267051461
 20
-140.145486414
 10
88.5166925246
 20
-144.255812343
 10
90.7964676687
 20
-147.839384412
  0
LWPOLYLINE
  5
1E8
100
AcDbEntity
  8
views
  6
ByLayer
 62
    0
370
   -1
100
AcDbPolyline
 90
    7
 70
    0
 43
0
 10
89.1541916578
 20
-150.660561669
 10
88.3168868014
 20
-149.07398376
 10
86.29814866140001
 20
-145.376463913
 10
84.8908340624
 20
-138.15106687
 10
86.25552423080001
 20
-130.729807901
 10
88.2981389263
 20
-126.953103779
 10
89.1541916618
 20
-125.339424241
  0
LINE
  5
1E9
100
AcDbEntity
  8
views
  6
ByLayer
 62
    0
370
   -1
100
AcDbLine
 10
31.4259962544
 20
-112.599996469
 11
31.4259962544
 21
-163.399996469
  0
LINE
  5
1EA
100
AcDbEntity
  8
views
  6
ByLayer
 62
    0
370
   -1
100
AcDbLine
 10
98.0841216837
 20
-112.599997683
 11
98.0841216837
 21
-163.399997683
  0
LINE
  5
1EB
100
AcDbEntity
  8
views
  6
ByLayer
 62
    0
370
   -1
100
AcDbLine
 10
31.4259962544
 20
-112.599996469
 11
95.82396378670001
 21
-112.599996469
  0
LINE
  5
1EC
100
AcDbEntity
  8
views
  6
ByLayer
 62
    0
370
   -1
100
AcDbLine
 10
31.4259962544
 20
-163.399996469
 11
95.82396378670001
 21
-163.399996469
  0
LINE
  5
1ED
100
AcDbEntity
  8
views
  6
ByLayer
 62
    0
370
   -1
100
AcDbLine
 10
95.82396378670001
 20
-112.599996469
 11
95.82396378670001
 21
-163.399996469
  0
LINE
  5
1EE
100
AcDbEntity
  8
views
  6
ByLayer
 62
    0
370
   -1
100
AcDbLine
 10
95.82396378670001
 20
-112.599996469
 11
98.0841216837
 21
-112.599997683
  0
LINE
  5
1EF
100
AcDbEntity
  8
views
  6
ByLayer
 62
    0
370
   -1
100
AcDbLine
 10
95.82396378670001
 20
-163.399996469
 11
98.0841216837
 21
-163.399997683
  0
LINE
  5
1F0
100
AcDbEntity
  8
views
  6
ByLayer
 62
    0
370
   -1
100
AcDbLine
 10
78.084366407
 20
-137.99999251
 11
74.68141166309999
 21
-137.999991466
  0
LINE
  5
1F1
100
AcDbEntity
  8
views
  6
ByLayer
 62
    0
370
   -1
100
AcDbLine
 10
90.7964667431
 20
-113.999994308
 11
35.7964667431
 21
-113.999996429
  0
LWPOLYLINE
  5
1F2
100
AcDbEntity
  8
views
  6
ByLayer
 62
    0
370
   -1
100
AcDbPolyline
 90
    2
 70
    0
 43
0
 10
35.7964671484
 20
-124.508712121
 10
37.4387445172
 20
-125.339426948
  0
LINE
  5
1F3
100
AcDbEntity
  8
views
  6
ByLayer
 62
    0
370
   -1
100
AcDbLine
 10
35.7964671484
 20
-124.508712121
 11
35.7964667431
 21
-113.999996429
  0
LINE
  5
1F4
100
AcDbEntity
  8
views
  6
ByLayer
 62
    0
370
   -1
100
AcDbLine
 10
37.4387445176
 20
-125.339426952
 11
88.61829219960001
 21
-125.339424978
  0
LINE
  5
1F5
100
AcDbEntity
  8
views
  6
ByLayer
 62
    0
370
   -1
100
AcDbLine
 10
90.7964671399
 20
-124.288147654
 11
90.7964667431
 21
-113.999994308
  0
CIRCLE
  5
1F6
100
AcDbEntity
  8
views
  6
ByLayer
 62
    0
370
   -1
100
AcDbCircle
 10
63.2964669552
 20
-119.499995368
 40
2.75
  0
LWPOLYLINE
  5
1F7
100
AcDbEntity
  8
views
  6
ByLayer
 62
    0
370
   -1
100
AcDbPolyline
 90
    2
 70
    0
 43
0
 10
90.7964670992
 20
-123.23299512
 10
90.7964670984
 20
-123.212491477
  0
LWPOLYLINE
  5
1F8
100
AcDbEntity
  8
views
  6
ByLayer
 62
    0
370
   -1
100
AcDbPolyline
 90
    2
 70
    0
 43
0
 10
90.7964670984
 20
-123.212491477
 10
90.7964670992
 20
-123.23299512
  0
LWPOLYLINE
  5
1F9
100
AcDbEntity
  8
views
  6
ByLayer
 62
    0
370
   -1
100
AcDbPolyline
 90
    3
 70
    0
 43
0
 10
35.7964673562
 20
-129.896650152
 10
35.7964672348
 20
-126.750444843
 10
35.7964671484
 20
-124.508712121
  0
LWPOLYLINE
  5
1FA
100
AcDbEntity
  8
views
  6
ByLayer
 62
    0
370
   -1
100
AcDbPolyline
 90
    7
 70
    0
 43
0
 10
37.4387445176
 20
-125.339426947
 10
38.2767277123
 20
-126.926985015
 10
40.2953663512
 20
-130.62495741
 10
41.7021076622
 20
-137.849788911
 10
40.3376980808
 20
-145.269458679
 10
38.2955277281
 20
-149.045825932
 10
37.4387428435
 20
-150.660564371
  0
LWPOLYLINE
  5
1FB
100
AcDbEntity
  8
views
  6
ByLayer
 62
    0
370
   -1
100
AcDbPolyline
 90
    3
 70
    0
 43
0
 10
35.796468189
 20
-151.491277728
 10
35.7964681026
 20
-149.249543431
 10
35.7964679812
 20
-146.103336888
  0
LWPOLYLINE
  5
1FC
100
AcDbEntity
  8
views
  6
ByLayer
 62
    0
370
   -1
100
AcDbPolyline
 90
    2
 70
    0
 43
0
 10
37.4387428433
 20
-150.660564371
 10
35.796468189
 20
-151.491277728
  0
LINE
  5
1FD
100
AcDbEntity
  8
views
  6
ByLayer
 62
    0
370
   -1
100
AcDbLine
 10
37.4387428435
 20
-150.660564367
 11
88.6182943168
 21
-150.660562393
  0
LINE
  5
1FE
100
AcDbEntity
  8
views
  6
ByLayer
 62
    0
370
   -1
100
AcDbLine
 10
35.7964685943
 20
-161.999996429
 11
35.796468189
 21
-151.491277728
  0
LINE
  5
1FF
100
AcDbEntity
  8
views
  6
ByLayer
 62
    0
370
   -1
100
AcDbLine
 10
35.7964685943
 20
-161.999996429
 11
90.79646859429999
 21
-161.999994308
  0
LWPOLYLINE
  5
200
100
AcDbEntity
  8
views
  6
ByLayer
 62
    0
370
   -1
100
AcDbPolyline
 90
    2
 70
    0
 43
0
 10
90.79646823820001
 20
-152.766987314
 10
90.79646823900001
 20
-152.787491477
  0
LWPOLYLINE
  5
201
100
AcDbEntity
  8
views
  6
ByLayer
 62
    0
370
   -1
100
AcDbPolyline
 90
    2
 70
    0
 43
0
 10
90.79646823900001
 20
-152.787491477
 10
90.79646823820001
 20
-152.766987314
  0
LINE
  5
202
100
AcDbEntity
  8
views
  6
ByLayer
 62
    0
370
   -1
100
AcDbLine
 10
90.79646859429999
 20
-161.999994308
 11
90.7964681975
 21
-151.711838995
  0
CIRCLE
  5
203
100
AcDbEntity
  8
views
  6
ByLayer
 62
    0
370
   -1
100
AcDbCircle
 10
63.2964669552
 20
-119.499995368
 40
4.5
  0
CIRCLE
  5
204
100
AcDbEntity
  8
views
  6
ByLayer
 62
    0
370
   -1
100
AcDbCircle
 10
63.2964683822
 20
-156.499995368
 40
4.5
  0
CIRCLE
  5
205
100
AcDbEntity
  8
views
  6
ByLayer
 62
    0
370
   -1
100
AcDbCircle
 10
63.2964683822
 20
-156.499995368
 40
2.75
  0
LINE
  5
206
100
AcDbEntity
  8
views
  6
ByLayer
 62
    0
370
   -1
100
AcDbLine
 10
90.7964676687
 20
-161.999996469
 11
35.7964676687
 21
-161.999996469
  0
LINE
  5
207
100
AcDbEntity
  8
views
  6
ByLayer
 62
    0
370
   -1
100
AcDbLine
 10
35.7964676687
 20
-161.999996469
 11
35.7964676687
 21
-161.999992957
  0
LINE
  5
208
100
AcDbEntity
  8
views
  6
ByLayer
 62
    0
370
   -1
100
AcDbLine
 10
90.7964676687
 20
-161.999992957
 11
35.7964685943
 21
-161.999992957
  0
LINE
  5
209
100
AcDbEntity
  8
views
  6
ByLayer
 62
    0
370
   -1
100
AcDbLine
 10
90.7964676687
 20
-161.999996469
 11
90.7964676687
 21
-161.999992957
  0
LINE
  5
20A
100
AcDbEntity
  8
views
  6
ByLayer
 62
    0
370
   -1
100
AcDbLine
 10
90.7964676687
 20
-113.999996469
 11
90.7964676687
 21
-161.999996469
  0
LINE
  5
20B
100
AcDbEntity
  8
views
  6
ByLayer
 62
    0
370
   -1
100
AcDbLine
 10
35.7964676687
 20
-161.999996469
 11
35.7964676687
 21
-113.999996469
  0
LINE
  5
20C
100
AcDbEntity
  8
views
  6
ByLayer
 62
    0
370
   -1
100
AcDbLine
 10
35.7964676687
 20
-113.999996469
 11
90.7964676687
 21
-113.999996469
  0
LWPOLYLINE
  5
20D
100
AcDbEntity
  8
views
  6
ByLayer
 62
    0
370
   -1
100
AcDbPolyline
 90
    5
 70
    0
 43
0
 10
78.0464676687
 20
-156.499996469
 10
80.7964676687
 20
-159.249996469
 10
83.5464676687
 20
-156.499996469
 10
80.7964676687
 20
-153.749996469
 10
78.0464676687
 20
-156.499996469
  0
LWPOLYLINE
  5
20E
100
AcDbEntity
  8
views
  6
ByLayer
 62
    0
370
   -1
100
AcDbPolyline
 90
    4
 70
    0
 43
0
 10
61.1964676687
 20
-156.499996469
 10
64.3464676687
 20
-158.318649817
 10
64.3464676687
 20
-154.681343121
 10
61.1964676687
 20
-156.499996469
  0
LWPOLYLINE
  5
20F
100
AcDbEntity
  8
views
  6
ByLayer
 62
    0
370
   -1
100
AcDbPolyline
 90
    4
 70
    0
 43
0
 10
61.1964676687
 20
-119.499996469
 10
64.3464676687
 20
-121.318649817
 10
64.3464676687
 20
-117.681343121
 10
61.1964676687
 20
-119.499996469
  0
LWPOLYLINE
  5
210
100
AcDbEntity
  8
views
  6
ByLayer
 62
    0
370
   -1
100
AcDbPolyline
 90
    5
 70
    0
 43
0
 10
78.0464676687
 20
-119.499996469
 10
80.7964676687
 20
-122.249996469
 10
83.5464676687
 20
-119.499996469
 10
80.7964676687
 20
-116.749996469
 10
78.0464676687
 20
-119.499996469
  0
LWPOLYLINE
  5
211
100
AcDbEntity
  8
views
  6
ByLayer
 62
    0
370
   -1
100
AcDbPolyline
 90
    5
 70
    0
 43
0
 10
43.0464676687
 20
-119.499996469
 10
45.7964676687
 20
-122.249996469
 10
48.5464676687
 20
-119.499996469
 10
45.7964676687
 20
-116.749996469
 10
43.0464676687
 20
-119.499996469
  0
LWPOLYLINE
  5
212
100
AcDbEntity
  8
views
  6
ByLayer
 62
    0
370
   -1
100
AcDbPolyline
 90
    5
 70
    0
 43
0
 10
43.0464676687
 20
-156.499996469
 10
45.7964676687
 20
-159.249996469
 10
48.5464676687
 20
-156.499996469
 10
45.7964676687
 20
-153.749996469
 10
43.0464676687
 20
-156.499996469
  0
LINE
  5
213
100
AcDbEntity
  8
views
  6
ByLayer
 62
    0
370
   -1
100
AcDbLine
 10
35.7964676687
 20
-113.999996469
 11
35.7964676687
 21
-113.999992957
  0
LINE
  5
214
100
AcDbEntity
  8
views
  6
ByLayer
 62
    0
370
   -1
100
AcDbLine
 10
35.7964676687
 20
-124.288147286
 11
35.7964676687
 21
-113.999996429
  0
LWPOLYLINE
  5
215
100
AcDbEntity
  8
views
  6
ByLayer
 62
    0
370
   -1
100
AcDbPolyline
 90
    2
 70
    0
 43
0
 10
35.7964676687
 20
-124.288147286
 10
35.7964676687
 20
-123.231895283
  0
LINE
  5
216
100
AcDbEntity
  8
views
  6
ByLayer
 62
    0
370
   -1
100
AcDbLine
 10
35.7964676687
 20
-152.768095946
 11
35.7964676687
 21
-151.711838627
  0
LINE
  5
217
100
AcDbEntity
  8
views
  6
ByLayer
 62
    0
370
   -1
100
AcDbLine
 10
35.7964676687
 20
-129.896650613
 11
35.7964676687
 21
-123.231895283
  0
LWPOLYLINE
  5
218
100
AcDbEntity
  8
views
  6
ByLayer
 62
    0
370
   -1
100
AcDbPolyline
 90
    2
 70
    0
 43
0
 10
35.7964676687
 20
-152.768095946
 10
35.7964676687
 20
-151.711838627
  0
LINE
  5
219
100
AcDbEntity
  8
views
  6
ByLayer
 62
    0
370
   -1
100
AcDbLine
 10
90.7964676687
 20
-161.999992957
 11
90.7964676687
 21
-151.711838788
  0
LWPOLYLINE
  5
21A
100
AcDbEntity
  8
views
  6
ByLayer
 62
    0
370
   -1
100
AcDbPolyline
 90
    2
 70
    0
 43
0
 10
35.7964676687
 20
-151.711838627
 10
37.9746420848
 20
-150.660561657
  0
LINE
  5
21B
100
AcDbEntity
  8
views
  6
ByLayer
 62
    0
370
   -1
100
AcDbLine
 10
37.9746420855
 20
-150.660561664
 11
88.6182905805
 21
-150.660561664
  0
LWPOLYLINE
  5
21C
100
AcDbEntity
  8
views
  6
ByLayer
 62
    0
370
   -1
100
AcDbPolyline
 90
    7
 70
    0
 43
0
 10
76.2964676687
 20
-156.499992958
 10
78.5464676694
 20
-160.397107274
 10
83.0464676694
 20
-160.397107273
 10
85.2964676687
 20
-156.499992956
 10
83.0464676679
 20
-152.602878639
 10
78.5464676679
 20
-152.60287864
 10
76.2964676687
 20
-156.499992958
  0
LWPOLYLINE
  5
21D
100
AcDbEntity
  8
views
  6
ByLayer
 62
    0
370
   -1
100
AcDbPolyline
 90
    7
 70
    0
 43
0
 10
41.2964676687
 20
-156.499992958
 10
43.5464676694
 20
-160.397107274
 10
48.0464676694
 20
-160.397107273
 10
50.2964676687
 20
-156.499992956
 10
48.0464676679
 20
-152.602878639
 10
43.5464676679
 20
-152.60287864
 10
41.2964676687
 20
-156.499992958
  0
LINE
  5
21E
100
AcDbEntity
  8
views
  6
ByLayer
 62
    0
370
   -1
100
AcDbLine
 10
90.7964676687
 20
-113.999996469
 11
90.7964676687
 21
-113.999992957
  0
LWPOLYLINE
  5
21F
100
AcDbEntity
  8
views
  6
ByLayer
 62
    0
370
   -1
100
AcDbPolyline
 90
    5
 70
    0
 43
0
 10
78.0464676687
 20
-156.49999382
 10
80.7964676687
 20
-159.24999382
 10
83.5464676687
 20
-156.49999382
 10
80.7964676687
 20
-153.74999382
 10
78.0464676687
 20
-156.49999382
  0
LINE
  5
220
100
AcDbEntity
  8
views
  6
ByLayer
 62
    0
370
   -1
100
AcDbLine
 10
78.0464676687
 20
-156.49999382
 11
78.0464676687
 21
-156.499996469
  0
LINE
  5
221
100
AcDbEntity
  8
views
  6
ByLayer
 62
    0
370
   -1
100
AcDbLine
 10
61.1964676687
 20
-156.499992957
 11
61.1964676687
 21
-156.499996469
  0
LINE
  5
222
100
AcDbEntity
  8
views
  6
ByLayer
 62
    0
370
   -1
100
AcDbLine
 10
61.1964676687
 20
-119.499992957
 11
61.1964676687
 21
-119.499996469
  0
LWPOLYLINE
  5
223
100
AcDbEntity
  8
views
  6
ByLayer
 62
    0
370
   -1
100
AcDbPolyline
 90
    5
 70
    0
 43
0
 10
78.0464676687
 20
-119.49999382
 10
80.7964676687
 20
-122.24999382
 10
83.5464676687
 20
-119.49999382
 10
80.7964676687
 20
-116.74999382
 10
78.0464676687
 20
-119.49999382
  0
LINE
  5
224
100
AcDbEntity
  8
views
  6
ByLayer
 62
    0
370
   -1
100
AcDbLine
 10
78.0464676687
 20
-119.49999382
 11
78.0464676687
 21
-119.499996469
  0
LWPOLYLINE
  5
225
100
AcDbEntity
  8
views
  6
ByLayer
 62
    0
370
   -1
100
AcDbPolyline
 90
    5
 70
    0
 43
0
 10
43.0464676687
 20
-119.49999382
 10
45.7964676687
 20
-122.24999382
 10
48.5464676687
 20
-119.49999382
 10
45.7964676687
 20
-116.74999382
 10
43.0464676687
 20
-119.49999382
  0
LINE
  5
226
100
AcDbEntity
  8
views
  6
ByLayer
 62
    0
370
   -1
100
AcDbLine
 10
43.0464676687
 20
-119.49999382
 11
43.0464676687
 21
-119.499996469
  0
LWPOLYLINE
  5
227
100
AcDbEntity
  8
views
  6
ByLayer
 62
    0
370
   -1
100
AcDbPolyline
 90
    5
 70
    0
 43
0
 10
43.0464676687
 20
-156.49999382
 10
45.7964676687
 20
-159.24999382
 10
48.5464676687
 20
-156.49999382
 10
45.7964676687
 20
-153.74999382
 10
43.0464676687
 20
-156.49999382
  0
LINE
  5
228
100
AcDbEntity
  8
views
  6
ByLayer
 62
    0
370
   -1
100
AcDbLine
 10
43.0464676687
 20
-156.49999382
 11
43.0464676687
 21
-156.499996469
  0
LINE
  5
229
100
AcDbEntity
  8
views
  6
ByLayer
 62
    0
370
   -1
100
AcDbLine
 10
37.9746420638
 20
-125.339424249
 11
88.61829346579999
 21
-125.339424249
  0
LWPOLYLINE
  5
22A
100
AcDbEntity
  8
views
  6
ByLayer
 62
    0
370
   -1
100
AcDbPolyline
 90
    2
 70
    0
 43
0
 10
37.9746420876
 20
-125.339424258
 10
35.7964676687
 20
-124.288147286
  0
LWPOLYLINE
  5
22B
100
AcDbEntity
  8
views
  6
ByLayer
 62
    0
370
   -1
100
AcDbPolyline
 90
    7
 70
    0
 43
0
 10
76.2964676687
 20
-119.499992958
 10
78.5464676679
 20
-115.60287864
 10
83.0464676679
 20
-115.602878639
 10
85.2964676687
 20
-119.499992956
 10
83.0464676694
 20
-123.397107273
 10
78.5464676694
 20
-123.397107274
 10
76.2964676687
 20
-119.499992958
  0
LWPOLYLINE
  5
22C
100
AcDbEntity
  8
views
  6
ByLayer
 62
    0
370
   -1
100
AcDbPolyline
 90
    7
 70
    0
 43
0
 10
41.2964676687
 20
-119.499992958
 10
43.5464676679
 20
-115.60287864
 10
48.0464676679
 20
-115.602878639
 10
50.2964676687
 20
-119.499992956
 10
48.0464676694
 20
-123.397107273
 10
43.5464676694
 20
-123.397107274
 10
41.2964676687
 20
-119.499992958
  0
LWPOLYLINE
  5
22D
100
AcDbEntity
  8
views
  6
ByLayer
 62
    0
370
   -1
100
AcDbPolyline
 90
    6
 70
    0
 43
0
 10
49.3486859346
 20
-137.999995092
 10
48.6941050066
 20
-133.574736789
 10
46.7903576504
 20
-129.555074321
 10
43.8119312858
 20
-126.309428704
 10
40.03181273
 20
-124.135278657
 10
35.7964676687
 20
-123.231895283
  0
LWPOLYLINE
  5
22E
100
AcDbEntity
  8
views
  6
ByLayer
 62
    0
370
   -1
100
AcDbPolyline
 90
    5
 70
    0
 43
0
 10
48.5085689304
 20
-137.999994641
 10
46.5046659983
 20
-131.551056198
 10
43.511907033
 20
-128.270187391
 10
40.488329105
 20
-126.303055254
 10
37.9746420638
 20
-125.339424299
  0
LWPOLYLINE
  5
22F
100
AcDbEntity
  8
views
  6
ByLayer
 62
    0
370
   -1
100
AcDbPolyline
 90
    6
 70
    0
 43
0
 10
35.7964676687
 20
-152.768095946
 10
40.03181273
 20
-151.864712245
 10
43.8119312858
 20
-149.690561907
 10
46.7903576504
 20
-146.44491606
 10
48.6941050066
 20
-142.425253445
 10
49.3486859346
 20
-137.999995092
  0
LWPOLYLINE
  5
230
100
AcDbEntity
  8
views
  6
ByLayer
 62
    0
370
   -1
100
AcDbPolyline
 90
    5
 70
    0
 43
0
 10
37.9746420855
 20
-150.660561658
 10
40.4632990105
 20
-149.709597116
 10
43.487938583
 20
-147.749344688
 10
46.4825778187
 20
-144.482307823
 10
48.5085689304
 20
-137.999994641
  0
LINE
  5
231
100
AcDbEntity
  8
views
  6
ByLayer
 62
    0
370
   -1
100
AcDbLine
 10
76.2964676687
 20
-156.499992957
 11
76.2964676687
 21
-156.49999382
  0
LWPOLYLINE
  5
232
100
AcDbEntity
  8
views
  6
ByLayer
 62
    0
370
   -1
100
AcDbPolyline
 90
    7
 70
    0
 43
0
 10
76.2964676687
 20
-156.499993821
 10
78.5464676694
 20
-160.397108138
 10
83.0464676694
 20
-160.397108137
 10
85.2964676687
 20
-156.499993819
 10
83.0464676679
 20
-152.602879503
 10
78.5464676679
 20
-152.602879504
 10
76.2964676687
 20
-156.499993821
  0
LINE
  5
233
100
AcDbEntity
  8
views
  6
ByLayer
 62
    0
370
   -1
100
AcDbLine
 10
41.2964676687
 20
-156.499992957
 11
41.2964676687
 21
-156.49999382
  0
LWPOLYLINE
  5
234
100
AcDbEntity
  8
views
  6
ByLayer
 62
    0
370
   -1
100
AcDbPolyline
 90
    7
 70
    0
 43
0
 10
41.2964676687
 20
-156.499993821
 10
43.5464676694
 20
-160.397108138
 10
48.0464676694
 20
-160.397108137
 10
50.2964676687
 20
-156.499993819
 10
48.0464676679
 20
-152.602879503
 10
43.5464676679
 20
-152.602879504
 10
41.2964676687
 20
-156.499993821
  0
LWPOLYLINE
  5
235
100
AcDbEntity
  8
views
  6
ByLayer
 62
    0
370
   -1
100
AcDbPolyline
 90
    7
 70
    0
 43
0
 10
76.2964676687
 20
-119.499993821
 10
78.5464676679
 20
-115.602879504
 10
83.0464676679
 20
-115.602879503
 10
85.2964676687
 20
-119.499993819
 10
83.0464676694
 20
-123.397108137
 10
78.5464676694
 20
-123.397108138
 10
76.2964676687
 20
-119.499993821
  0
LWPOLYLINE
  5
236
100
AcDbEntity
  8
views
  6
ByLayer
 62
    0
370
   -1
100
AcDbPolyline
 90
    7
 70
    0
 43
0
 10
41.2964676687
 20
-119.499993821
 10
43.5464676679
 20
-115.602879504
 10
48.0464676679
 20
-115.602879503
 10
50.2964676687
 20
-119.499993819
 10
48.0464676694
 20
-123.397108137
 10
43.5464676694
 20
-123.397108138
 10
41.2964676687
 20
-119.499993821
  0
LINE
  5
237
100
AcDbEntity
  8
views
  6
ByLayer
 62
    0
370
   -1
100
AcDbLine
 10
76.2964676687
 20
-119.499992957
 11
76.2964676687
 21
-119.49999382
  0
LINE
  5
238
100
AcDbEntity
  8
views
  6
ByLayer
 62
    0
370
   -1
100
AcDbLine
 10
41.2964676687
 20
-119.499992957
 11
41.2964676687
 21
-119.49999382
  0
LINE
  5
239
100
AcDbEntity
  8
views
  6
ByLayer
 62
    0
370
   -1
100
AcDbLine
 10
38
 20
-112.6
 11
38
 21
-163.4
  0
LINE
  5
23A
100
AcDbEntity
  8
views
  6
ByLayer
 62
    0
370
   -1
100
AcDbLine
 10
38
 20
-112.6
 11
31.4259962544
 21
-112.599996469
  0
LINE
  5
23B
100
AcDbEntity
  8
views
  6
ByLayer
 62
    0
370
   -1
100
AcDbLine
 10
38
 20
-163.4
 11
31.4259962544
 21
-163.399996469
  0
LINE
  5
23C
100
AcDbEntity
  8
views
  6
ByLayer
 62
    0
370
   -1
100
AcDbLine
 10
98.0841216837
 20
-112.599997683
 11
38
 21
-112.6
  0
LINE
  5
23D
100
AcDbEntity
  8
views
  6
ByLayer
 62
    0
370
   -1
100
AcDbLine
 10
98.0841216837
 20
-163.399997683
 11
38
 21
-163.4
  0
LWPOLYLINE
  5
23E
100
AcDbEntity
  8
views
  6
ByLayer
 62
    0
370
   -1
100
AcDbPolyline
 90
    4
 70
    0
 43
0
 10
78.6964676687
 20
-156.49999843
 10
81.8251180451
 20
-154.722984696
 10
81.8251180451
 20
-158.277011924
 10
78.6964676687
 20
-156.49999843
  0
LWPOLYLINE
  5
23F
100
AcDbEntity
  8
views
  6
ByLayer
 62
    0
370
   -1
100
AcDbPolyline
 90
    4
 70
    0
 43
0
 10
78.6964676687
 20
-119.49999843
 10
81.8251180451
 20
-117.722984696
 10
81.8251180451
 20
-121.277011924
 10
78.6964676687
 20
-119.49999843
  0
LWPOLYLINE
  5
240
100
AcDbEntity
  8
views
  6
ByLayer
 62
    0
370
   -1
100
AcDbPolyline
 90
    4
 70
    0
 43
0
 10
43.6964676687
 20
-119.49999978
 10
46.8251180451
 20
-117.722986046
 10
46.8251180451
 20
-121.277013274
 10
43.6964676687
 20
-119.49999978
  0
LWPOLYLINE
  5
241
100
AcDbEntity
  8
views
  6
ByLayer
 62
    0
370
   -1
100
AcDbPolyline
 90
    4
 70
    0
 43
0
 10
43.6964676687
 20
-156.49999978
 10
46.8251180451
 20
-154.722986046
 10
46.8251180451
 20
-158.277013274
 10
43.6964676687
 20
-156.49999978
  0
LWPOLYLINE
  5
242
100
AcDbEntity
  8
views
  6
ByLayer
 62
    0
370
   -1
100
AcDbPolyline
 90
    4
 70
    0
 43
0
 10
78.6964676687
 20
-119.499996469
 10
81.8464676687
 20
-121.318649817
 10
81.8464676687
 20
-117.681343121
 10
78.6964676687
 20
-119.499996469
  0
LWPOLYLINE
  5
243
100
AcDbEntity
  8
views
  6
ByLayer
 62
    0
370
   -1
100
AcDbPolyline
 90
    4
 70
    0
 43
0
 10
43.6964676687
 20
-119.499996469
 10
46.8464676687
 20
-121.318649817
 10
46.8464676687
 20
-117.681343121
 10
43.6964676687
 20
-119.499996469
  0
LWPOLYLINE
  5
244
100
AcDbEntity
  8
views
  6
ByLayer
 62
    0
370
   -1
100
AcDbPolyline
 90
    4
 70
    0
 43
0
 10
78.6964676687
 20
-156.499996469
 10
81.8464676687
 20
-158.318649817
 10
81.8464676687
 20
-154.681343121
 10
78.6964676687
 20
-156.499996469
  0
LWPOLYLINE
  5
245
100
AcDbEntity
  8
views
  6
ByLayer
 62
    0
370
   -1
100
AcDbPolyline
 90
    4
 70
    0
 43
0
 10
43.6964676687
 20
-156.499996469
 10
46.8464676687
 20
-158.318649817
 10
46.8464676687
 20
-154.681343121
 10
43.6964676687
 20
-156.499996469
  0
LINE
  5
246
100
AcDbEntity
  8
views
  6
ByLayer
 62
    0
370
   -1
100
AcDbLine
 10
78.6964676687
 20
-156.499996469
 11
78.6964676687
 21
-156.49999843
  0
LINE
  5
247
100
AcDbEntity
  8
views
  6
ByLayer
 62
    0
370
   -1
100
AcDbLine
 10
78.6964676687
 20
-119.499996469
 11
78.6964676687
 21
-119.49999843
  0
LINE
  5
248
100
AcDbEntity
  8
views
  6
ByLayer
 62
    0
370
   -1
100
AcDbLine
 10
43.6964676687
 20
-119.499996469
 11
43.6964676687
 21
-119.49999978
  0
LINE
  5
249
100
AcDbEntity
  8
views
  6
ByLayer
 62
    0
370
   -1
100
AcDbLine
 10
43.6964676687
 20
-156.499996469
 11
43.6964676687
 21
-156.49999978
  0
LINE
  5
24A
100
AcDbEntity
  8
views
  6
ByLayer
 62
    0
370
   -1
100
AcDbLine
 10
49.3486859346
 20
-137.999995092
 11
48.5085689304
 21
-137.999994641
  0
LINE
  5
24B
100
AcDbEntity
  8
views
  6
ByLayer
 62
    0
370
   -1
100
AcDbLine
 10
89.9905627192
 20
-123.21249123
 11
90.7964670984
 21
-123.212491477
  0
LINE
  5
24C
100
AcDbEntity
  8
views
  6
ByLayer
 62
    0
370
   -1
100
AcDbLine
 10
89.99055364340001
 20
-152.78749123
 11
90.79646823900001
 21
-152.787491477
  0
ENDBLK
  5
56
330
54
100
AcDbEntity
  8
0
100
AcDbBlockEnd
  0
ENDSEC
  0
SECTION
  2
ENTITIES
  0
INSERT
  5
24D
100
AcDbEntity
  8
views
  6
ByLayer
 62
    0
370
   -1
100
AcDbBlockReference
  2
SHAPE2DVIEW
 10
0
 20
0
 30
0
 41
1
 42
1
 43
0
 50
0
 70
    1
 71
    1
 44
0
 45
0
  0
INSERT
  5
24E
100
AcDbEntity
  8
views
  6
ByLayer
 62
    0
370
   -1
100
AcDbBlockReference
  2
SHAPE2DVIEW001
 10
0
 20
0
 30
0
 41
1
 42
1
 43
0
 50
0
 70
    1
 71
    1
 44
0
 45
0
  0
INSERT
  5
24F
100
AcDbEntity
  8
views
  6
ByLayer
 62
    0
370
   -1
100
AcDbBlockReference
  2
SHAPE2DVIEW002
 10
0
 20
0
 30
0
 41
1
 42
1
 43
0
 50
0
 70
    1
 71
    1
 44
0
 45
0
  0
ENDSEC
  0
SECTION
  2
OBJECTS
  0
DICTIONARY
  5
C
330
0
100
AcDbDictionary
281
    1
  3
ACAD_GROUP
350
D
  0
DICTIONARY
  5
D
330
C
100
AcDbDictionary
281
    1
  0
ENDSEC
  0
EOF
